<?xml version="1.0" encoding="utf-8" standalone="no"?>
<!DOCTYPE svg PUBLIC "-//W3C//DTD SVG 1.1//EN"
  "http://www.w3.org/Graphics/SVG/1.1/DTD/svg11.dtd">
<!-- Created with matplotlib (http://matplotlib.org/) -->
<svg height="420pt" version="1.1" viewBox="0 0 562 420" width="562pt" xmlns="http://www.w3.org/2000/svg" xmlns:xlink="http://www.w3.org/1999/xlink">
 <defs>
  <style type="text/css">
*{stroke-linecap:butt;stroke-linejoin:round;stroke-miterlimit:100000;}
  </style>
 </defs>
 <g id="figure_1">
  <g id="patch_1">
   <path d="M 0 420.48 
L 562.016642 420.48 
L 562.016642 0 
L 0 0 
z
" style="fill:#ffffff;"/>
  </g>
  <g id="axes_1">
   <g id="patch_2">
    <path d="M 13.034527 413.28 
L 539.786642 413.28 
L 539.786642 7.2 
L 13.034527 7.2 
z
" style="fill:#ffffff;"/>
   </g>
   <g id="line2d_1">
    <path clip-path="url(#pf14324f848)" d="M 23.164375 217.185492 
L 24.462578 216.10061 
L 25.760781 215.20602 
L 27.02624 214.497392 
L 28.317099 213.922682 
L 29.607958 213.481189 
L 31.94557 212.973673 
L 34.283182 212.778896 
L 36.619931 212.833833 
L 39.301961 213.137934 
L 41.88712 213.618275 
L 46.805883 214.881185 
L 50.416634 215.991644 
L 62.832541 220.190145 
L 70.849668 222.815608 
L 78.993822 225.245377 
L 86.248369 227.175762 
L 93.192633 228.816972 
L 102.653972 230.749458 
L 110.495899 232.112728 
L 117.151753 233.120427 
L 126.344546 234.315592 
L 136.673683 235.426392 
L 149.762429 236.546461 
L 162.443376 237.388512 
L 177.745931 238.160633 
L 196.496689 238.838066 
L 215.658252 239.314372 
L 242.864653 239.744869 
L 277.696505 240.045906 
L 329.34178 240.240466 
L 421.723428 240.332529 
L 529.656794 240.348143 
L 529.656794 240.348143 
" style="fill:none;stroke:#0000ff;stroke-linecap:square;"/>
   </g>
   <g id="line2d_2">
    <path clip-path="url(#pf14324f848)" d="M 23.164375 217.185492 
L 24.869366 227.32496 
L 26.596534 236.149535 
L 28.323702 243.707758 
L 29.587505 248.532677 
L 31.119246 253.673971 
L 32.650988 258.127171 
L 34.216303 262.051802 
L 35.781618 265.419691 
L 37.861338 269.148331 
L 39.750613 271.902668 
L 41.20443 273.669978 
L 42.658247 275.16984 
L 44.462757 276.706 
L 46.267267 277.930178 
L 48.652061 279.145365 
L 49.928228 279.635297 
L 52.215015 280.278915 
L 54.501801 280.670193 
L 56.592653 280.848192 
L 59.180395 280.877711 
L 63.966888 280.522678 
L 69.029918 279.770697 
L 76.073545 278.395209 
L 98.650691 273.713805 
L 108.73436 271.960652 
L 119.39809 270.398048 
L 128.850111 269.242782 
L 139.253928 268.187448 
L 152.341665 267.127496 
L 164.884504 266.336466 
L 180.096885 265.605028 
L 197.611039 264.994203 
L 218.729114 264.489922 
L 244.107911 264.105696 
L 280.42679 263.803368 
L 334.125722 263.614886 
L 436.113501 263.528335 
L 529.656794 263.517103 
L 529.656794 263.517103 
" style="fill:none;stroke:#ff0000;stroke-linecap:square;"/>
   </g>
   <g id="line2d_3">
    <path clip-path="url(#pf14324f848)" d="M 23.164375 170.855984 
L 24.147916 169.192439 
L 25.788597 166.976745 
L 26.445736 166.267007 
L 27.760016 165.120729 
L 28.72892 164.488852 
L 29.697824 164.020499 
L 30.666728 163.701407 
L 31.635632 163.518406 
L 32.831532 163.462193 
L 34.027433 163.573936 
L 35.30715 163.858106 
L 36.586868 164.292004 
L 38.010848 164.927939 
L 39.971101 166.026466 
L 42.623933 167.841211 
L 46.348548 170.843821 
L 52.718587 176.657392 
L 65.277004 188.499527 
L 71.735811 194.163689 
L 75.361486 197.144479 
L 78.215636 199.383056 
L 85.425657 204.607952 
L 91.270293 208.400169 
L 96.801759 211.643225 
L 102.210191 214.510937 
L 103.401663 215.10469 
L 108.562142 217.527421 
L 115.887594 220.581318 
L 119.305018 221.865057 
L 127.489747 224.614425 
L 132.800136 226.177254 
L 139.530235 227.938053 
L 146.836902 229.603798 
L 155.581567 231.3068 
L 164.037506 232.696792 
L 172.416542 233.863473 
L 181.17141 234.893035 
L 190.002193 235.766111 
L 201.297412 236.682403 
L 214.476742 237.52272 
L 229.707517 238.257045 
L 246.353838 238.843373 
L 267.309996 239.353952 
L 294.06755 239.76282 
L 328.931518 240.055118 
L 379.936896 240.242435 
L 475.692982 240.333968 
L 529.656794 240.344637 
L 529.656794 240.344637 
" style="fill:none;stroke:#0000ff;stroke-linecap:square;"/>
   </g>
   <g id="line2d_4">
    <path clip-path="url(#pf14324f848)" d="M 23.164375 170.855984 
L 24.890142 194.264352 
L 26.340146 211.30713 
L 27.998321 228.220382 
L 29.241952 239.303439 
L 31.152151 253.981967 
L 32.475553 262.678288 
L 33.848891 270.580446 
L 35.237641 277.53316 
L 36.802438 284.258099 
L 38.527871 290.477715 
L 40.113127 295.228367 
L 41.422997 298.543108 
L 42.010326 299.867046 
L 44.114499 303.874174 
L 45.973531 306.574163 
L 47.875809 308.649849 
L 49.273325 309.794949 
L 50.67084 310.660872 
L 52.235663 311.340373 
L 53.800486 311.75347 
L 56.025529 311.953235 
L 58.346283 311.763375 
L 60.854058 311.197333 
L 64.241527 309.986354 
L 68.144456 308.151369 
L 74.321704 304.706975 
L 89.282243 295.836292 
L 95.978382 292.168459 
L 103.399264 288.474651 
L 109.88146 285.583609 
L 116.493032 282.948193 
L 122.648686 280.761084 
L 130.387869 278.34376 
L 137.19773 276.491414 
L 146.18051 274.391711 
L 153.937859 272.851277 
L 162.31637 271.430173 
L 171.03742 270.179416 
L 180.968364 268.993502 
L 191.38402 267.975492 
L 204.509455 266.957369 
L 218.250768 266.139466 
L 235.788224 265.371393 
L 255.474709 264.773545 
L 278.748885 264.309884 
L 307.716458 263.963663 
L 348.562156 263.715303 
L 411.86086 263.572402 
L 529.656794 263.520609 
L 529.656794 263.520609 
" style="fill:none;stroke:#ff0000;stroke-linecap:square;"/>
   </g>
   <g id="line2d_5">
    <path clip-path="url(#pf14324f848)" d="M 23.164375 124.526476 
L 23.721828 123.065749 
L 24.279281 121.738527 
L 25.394187 119.458795 
L 26.654626 117.432407 
L 27.915065 115.929352 
L 29.361687 114.774896 
L 30.808309 114.155815 
L 32.014406 113.998594 
L 33.220502 114.129154 
L 34.759976 114.662545 
L 35.81997 115.239844 
L 37.939958 116.830424 
L 39.976127 118.811573 
L 42.081977 121.22839 
L 45.484269 125.713669 
L 49.288236 131.280719 
L 57.491241 144.056893 
L 64.696177 155.123845 
L 68.551127 160.765127 
L 74.098457 168.42959 
L 78.802324 174.471111 
L 81.078695 177.239906 
L 87.243318 184.234756 
L 91.62038 188.767742 
L 95.83459 192.808415 
L 101.27312 197.581161 
L 103.343562 199.274518 
L 107.720519 202.643473 
L 113.433518 206.638109 
L 117.494248 209.221988 
L 123.417681 212.644621 
L 126.809376 214.433888 
L 132.643162 217.247279 
L 136.968979 219.13543 
L 143.865718 221.83303 
L 149.345064 223.730179 
L 156.406654 225.891905 
L 160.286745 226.957719 
L 168.789495 229.026845 
L 176.59559 230.64391 
L 184.376783 232.026041 
L 189.941466 232.892085 
L 201.493789 234.413062 
L 212.864152 235.606875 
L 225.011385 236.618335 
L 237.768121 237.44924 
L 253.890906 238.240145 
L 270.535428 238.831154 
L 292.143605 239.358721 
L 320.26018 239.781109 
L 356.470921 240.07181 
L 411.177048 240.255699 
L 516.323211 240.338386 
L 529.656794 240.341131 
L 529.656794 240.341131 
" style="fill:none;stroke:#0000ff;stroke-linecap:square;"/>
   </g>
   <g id="line2d_6">
    <path clip-path="url(#pf14324f848)" d="M 23.164375 124.526476 
L 24.805629 159.428067 
L 26.446884 189.512638 
L 28.029198 214.521734 
L 29.768509 238.06016 
L 31.110233 253.729834 
L 32.765638 270.441737 
L 34.179465 282.685237 
L 35.593292 293.278046 
L 36.923562 301.902746 
L 38.253831 309.366813 
L 39.846775 316.950058 
L 41.439718 323.234283 
L 43.061025 328.467883 
L 44.682331 332.681503 
L 46.019002 335.484334 
L 47.747934 338.326121 
L 49.476867 340.401584 
L 50.893359 341.609339 
L 51.759873 342.154912 
L 52.626386 342.567525 
L 53.718312 342.914214 
L 54.810239 343.085564 
L 55.902166 343.099191 
L 56.994093 342.971189 
L 58.319766 342.646496 
L 59.64544 342.15843 
L 61.626443 341.170231 
L 63.537834 339.97363 
L 67.093833 337.270017 
L 71.483547 333.36801 
L 76.570029 328.453547 
L 86.148431 319.057972 
L 93.113405 312.61402 
L 96.176797 309.944107 
L 101.688573 305.422598 
L 107.60219 300.985505 
L 112.229169 297.808579 
L 118.437235 293.934135 
L 122.899889 291.407631 
L 127.860361 288.835163 
L 132.918967 286.448909 
L 137.765301 284.369464 
L 144.174808 281.901647 
L 150.32519 279.805673 
L 156.909283 277.824045 
L 165.408746 275.61644 
L 173.772132 273.775954 
L 180.910428 272.427796 
L 189.00849 271.111284 
L 197.913879 269.886737 
L 207.884131 268.748327 
L 219.034246 267.7143 
L 232.622908 266.726175 
L 247.744071 265.897367 
L 264.989749 265.209866 
L 282.51476 264.714131 
L 308.104043 264.238519 
L 339.817841 263.901829 
L 384.20383 263.676038 
L 461.495951 263.550009 
L 529.656794 263.524114 
L 529.656794 263.524114 
" style="fill:none;stroke:#ff0000;stroke-linecap:square;"/>
   </g>
   <g id="line2d_7">
    <path clip-path="url(#pf14324f848)" d="M 23.164375 78.196968 
L 23.946144 75.519924 
L 24.727913 73.192865 
L 25.875641 70.360941 
L 27.02337 68.162411 
L 28.171098 66.533695 
L 29.318827 65.416917 
L 30.194714 64.876252 
L 30.959499 64.605926 
L 31.724284 64.509624 
L 32.489069 64.574774 
L 33.253854 64.789579 
L 34.43599 65.390521 
L 35.618126 66.285031 
L 37.006124 67.664062 
L 39.352911 70.673113 
L 40.311701 72.107712 
L 42.229281 75.267263 
L 44.093569 78.64359 
L 46.310486 82.956357 
L 51.492553 93.821171 
L 63.991487 120.811533 
L 67.447635 127.899675 
L 71.391714 135.64807 
L 75.080102 142.533036 
L 79.45563 150.226672 
L 83.565388 156.979945 
L 88.206557 164.064513 
L 91.967965 169.398313 
L 97.483622 176.592656 
L 101.172081 181.01098 
L 106.936233 187.330894 
L 113.154561 193.414225 
L 117.466994 197.225455 
L 120.205722 199.485816 
L 126.00518 203.892846 
L 130.353741 206.885174 
L 135.323091 210.006964 
L 139.111546 212.190699 
L 145.77245 215.657304 
L 151.179794 218.155913 
L 154.987762 219.762486 
L 162.263932 222.516402 
L 167.758495 224.34933 
L 172.845403 225.878002 
L 180.340476 227.86842 
L 187.968037 229.61329 
L 195.553615 231.106627 
L 203.879421 232.507745 
L 214.155679 233.947856 
L 224.577017 235.13848 
L 234.563276 236.071094 
L 247.689189 237.048001 
L 261.294538 237.825895 
L 277.256581 238.508276 
L 295.4159 239.063258 
L 319.138341 239.544561 
L 349.019074 239.903612 
L 389.823136 240.150685 
L 455.398905 240.29557 
L 529.656794 240.337626 
L 529.656794 240.337626 
" style="fill:none;stroke:#0000ff;stroke-linecap:square;"/>
   </g>
   <g id="line2d_8">
    <path clip-path="url(#pf14324f848)" d="M 23.164375 78.196968 
L 24.772264 124.75931 
L 26.353048 164.374164 
L 27.920279 198.350071 
L 29.529119 228.407995 
L 31.20988 255.243801 
L 32.890642 278.010308 
L 34.377864 295.188243 
L 35.862674 309.896958 
L 37.401352 322.870335 
L 38.555361 331.253095 
L 40.166115 341.243996 
L 41.408812 347.737341 
L 42.820371 353.977556 
L 44.266428 359.257708 
L 45.746984 363.635753 
L 47.005369 366.633982 
L 47.523476 367.693311 
L 48.559691 369.530352 
L 49.403195 370.76784 
L 50.246699 371.7923 
L 51.16516 372.684158 
L 52.083622 373.361448 
L 53.002083 373.841919 
L 53.920545 374.142025 
L 54.785908 374.273461 
L 55.651272 374.27019 
L 56.516636 374.143247 
L 57.382 373.902898 
L 58.868644 373.252532 
L 60.517882 372.225191 
L 61.907018 371.147689 
L 63.296154 369.905712 
L 66.434815 366.617843 
L 70.18934 362.065115 
L 73.344746 357.922452 
L 89.275537 336.371614 
L 95.095372 329.113561 
L 100.143444 323.26047 
L 105.939166 317.075419 
L 111.502423 311.672799 
L 116.263969 307.448524 
L 120.146179 304.263391 
L 126.120716 299.787306 
L 126.558117 299.478868 
L 131.430595 296.210324 
L 137.149632 292.742353 
L 141.863085 290.157824 
L 147.10745 287.546635 
L 152.554588 285.102685 
L 157.814453 282.977388 
L 164.046313 280.727247 
L 167.793023 279.501208 
L 176.08681 277.088238 
L 181.197957 275.785993 
L 189.092017 274.015621 
L 197.248041 272.454139 
L 206.076298 271.024433 
L 215.929138 269.697011 
L 226.553384 268.52728 
L 236.827234 267.607076 
L 249.355085 266.710392 
L 263.830492 265.916069 
L 281.549303 265.207287 
L 302.167737 264.641368 
L 326.945222 264.205597 
L 358.442305 263.88581 
L 402.602803 263.670058 
L 478.367401 263.549741 
L 529.656794 263.52762 
L 529.656794 263.52762 
" style="fill:none;stroke:#ff0000;stroke-linecap:square;"/>
   </g>
   <g id="line2d_9">
    <path clip-path="url(#pf14324f848)" d="M 23.164375 31.86746 
L 24.524272 26.337593 
L 25.46663 23.260977 
L 26.444748 20.659582 
L 27.422867 18.609987 
L 28.400986 17.064317 
L 29.427695 15.935688 
L 30.502994 15.245554 
L 31.040644 15.073851 
L 31.631315 15.009231 
L 32.221985 15.067347 
L 33.403326 15.524192 
L 34.181869 16.053196 
L 34.960411 16.747091 
L 36.517495 18.579052 
L 38.187758 21.115372 
L 38.943239 22.430128 
L 41.392023 27.287217 
L 42.329843 29.351377 
L 45.518904 37.007716 
L 48.100248 43.729054 
L 52.57462 55.989968 
L 62.688952 84.055097 
L 65.436755 91.388117 
L 71.751817 107.415434 
L 76.669777 118.991154 
L 80.402023 127.217225 
L 84.427445 135.547712 
L 88.94518 144.241393 
L 93.036322 151.53778 
L 95.812905 156.190892 
L 101.167147 164.517838 
L 103.628964 168.075504 
L 108.923439 175.187226 
L 113.65112 180.957049 
L 116.44223 184.124793 
L 122.618854 190.554692 
L 127.501861 195.118258 
L 129.391022 196.770337 
L 135.394721 201.632797 
L 141.504578 206.027016 
L 145.220468 208.45264 
L 149.9754 211.308775 
L 154.626283 213.855302 
L 159.372852 216.224454 
L 165.881146 219.132763 
L 170.128851 220.839215 
L 176.479927 223.138223 
L 183.967658 225.503362 
L 188.405014 226.748646 
L 196.703196 228.804002 
L 204.48015 230.447421 
L 210.990979 231.641955 
L 221.813047 233.317259 
L 231.618247 234.555088 
L 241.766868 235.607327 
L 254.825327 236.685233 
L 269.035455 237.581837 
L 283.50985 238.26998 
L 300.308849 238.857194 
L 320.84006 239.354774 
L 345.455285 239.737945 
L 380.925421 240.046281 
L 432.233127 240.239868 
L 527.149573 240.333302 
L 529.656794 240.33412 
L 529.656794 240.33412 
" style="fill:none;stroke:#0000ff;stroke-linecap:square;"/>
   </g>
   <g id="line2d_10">
    <path clip-path="url(#pf14324f848)" d="M 23.164375 31.86746 
L 24.743562 89.772026 
L 26.328718 140.119624 
L 27.913874 183.621525 
L 29.597208 223.252991 
L 31.117864 253.95688 
L 32.682659 281.122582 
L 34.357834 305.839064 
L 35.697 322.739734 
L 37.406054 341.076108 
L 38.7323 353.096773 
L 39.688659 360.695746 
L 41.22242 371.204408 
L 42.566703 378.8913 
L 43.910986 385.318513 
L 45.149695 390.246383 
L 46.388403 394.321701 
L 47.792266 398.021692 
L 48.948381 400.414717 
L 50.108263 402.285327 
L 51.271913 403.682357 
L 52.492765 404.685425 
L 53.77082 405.283192 
L 55.087153 405.470769 
L 55.764459 405.415182 
L 57.747207 404.731441 
L 58.879772 404.034276 
L 60.012338 403.144998 
L 62.277469 400.876117 
L 64.691052 397.879077 
L 67.357911 394.049767 
L 69.004236 391.484581 
L 71.684318 387.076905 
L 79.845273 372.837902 
L 85.682973 362.675572 
L 88.172785 358.468432 
L 93.997189 349.053092 
L 99.753421 340.426801 
L 104.624555 333.689897 
L 108.697346 328.45447 
L 113.691705 322.515235 
L 118.451682 317.326086 
L 122.278471 313.469713 
L 126.916624 309.149642 
L 132.000517 304.829613 
L 137.035397 300.945532 
L 142.131285 297.380031 
L 147.053221 294.255167 
L 153.393822 290.647178 
L 159.991427 287.339122 
L 164.44217 285.337478 
L 170.176346 283.003754 
L 175.627922 281.016368 
L 180.601423 279.380303 
L 188.45472 277.102316 
L 192.793491 275.987105 
L 201.946957 273.925364 
L 208.990687 272.573896 
L 215.796576 271.434938 
L 225.488988 270.055594 
L 234.239646 269.017829 
L 244.645311 267.99588 
L 256.895629 267.033221 
L 270.496768 266.204675 
L 286.394865 265.480083 
L 304.363834 264.893178 
L 326.728911 264.401206 
L 350.477076 264.069504 
L 386.006417 263.789952 
L 442.860049 263.604487 
L 529.656794 263.531126 
L 529.656794 263.531126 
" style="fill:none;stroke:#ff0000;stroke-linecap:square;"/>
   </g>
   <g id="patch_3">
    <path d="M 13.034527 263.515 
L 539.786642 263.515 
" style="fill:none;stroke:#000000;stroke-linecap:square;stroke-linejoin:miter;stroke-width:0.8;"/>
   </g>
   <g id="patch_4">
    <path d="M 23.164375 413.28 
L 23.164375 7.2 
" style="fill:none;stroke:#000000;stroke-linecap:square;stroke-linejoin:miter;stroke-width:0.8;"/>
   </g>
   <g id="matplotlib.axis_1">
    <g id="xtick_1">
     <g id="line2d_11">
      <defs>
       <path d="M 0 0 
L 0 -4 
" id="ma4c3284ab1" style="stroke:#000000;stroke-width:0.5;"/>
      </defs>
      <g>
       <use style="stroke:#000000;stroke-width:0.5;" x="23.164375" xlink:href="#ma4c3284ab1" y="263.514999932"/>
      </g>
     </g>
    </g>
    <g id="xtick_2">
     <g id="line2d_12">
      <g>
       <use style="stroke:#000000;stroke-width:0.5;" x="124.462858728" xlink:href="#ma4c3284ab1" y="263.514999932"/>
      </g>
     </g>
     <g id="text_1">
      <!-- 2 -->
      <defs>
       <path d="M 19.1875 8.296875 
L 53.609375 8.296875 
L 53.609375 0 
L 7.328125 0 
L 7.328125 8.296875 
Q 12.9375 14.109375 22.625 23.890625 
Q 32.328125 33.6875 34.8125 36.53125 
Q 39.546875 41.84375 41.421875 45.53125 
Q 43.3125 49.21875 43.3125 52.78125 
Q 43.3125 58.59375 39.234375 62.25 
Q 35.15625 65.921875 28.609375 65.921875 
Q 23.96875 65.921875 18.8125 64.3125 
Q 13.671875 62.703125 7.8125 59.421875 
L 7.8125 69.390625 
Q 13.765625 71.78125 18.9375 73 
Q 24.125 74.21875 28.421875 74.21875 
Q 39.75 74.21875 46.484375 68.546875 
Q 53.21875 62.890625 53.21875 53.421875 
Q 53.21875 48.921875 51.53125 44.890625 
Q 49.859375 40.875 45.40625 35.40625 
Q 44.1875 33.984375 37.640625 27.21875 
Q 31.109375 20.453125 19.1875 8.296875 
" id="BitstreamVeraSans-Roman-32"/>
      </defs>
      <g transform="translate(120.645358728 276.633124932)scale(0.12 -0.12)">
       <use xlink:href="#BitstreamVeraSans-Roman-32"/>
      </g>
     </g>
    </g>
    <g id="xtick_3">
     <g id="line2d_13">
      <g>
       <use style="stroke:#000000;stroke-width:0.5;" x="225.761342456" xlink:href="#ma4c3284ab1" y="263.514999932"/>
      </g>
     </g>
     <g id="text_2">
      <!-- 4 -->
      <defs>
       <path d="M 37.796875 64.3125 
L 12.890625 25.390625 
L 37.796875 25.390625 
z
M 35.203125 72.90625 
L 47.609375 72.90625 
L 47.609375 25.390625 
L 58.015625 25.390625 
L 58.015625 17.1875 
L 47.609375 17.1875 
L 47.609375 0 
L 37.796875 0 
L 37.796875 17.1875 
L 4.890625 17.1875 
L 4.890625 26.703125 
z
" id="BitstreamVeraSans-Roman-34"/>
      </defs>
      <g transform="translate(221.943842456 276.633124932)scale(0.12 -0.12)">
       <use xlink:href="#BitstreamVeraSans-Roman-34"/>
      </g>
     </g>
    </g>
    <g id="xtick_4">
     <g id="line2d_14">
      <g>
       <use style="stroke:#000000;stroke-width:0.5;" x="327.059826183" xlink:href="#ma4c3284ab1" y="263.514999932"/>
      </g>
     </g>
     <g id="text_3">
      <!-- 6 -->
      <defs>
       <path d="M 33.015625 40.375 
Q 26.375 40.375 22.484375 35.828125 
Q 18.609375 31.296875 18.609375 23.390625 
Q 18.609375 15.53125 22.484375 10.953125 
Q 26.375 6.390625 33.015625 6.390625 
Q 39.65625 6.390625 43.53125 10.953125 
Q 47.40625 15.53125 47.40625 23.390625 
Q 47.40625 31.296875 43.53125 35.828125 
Q 39.65625 40.375 33.015625 40.375 
M 52.59375 71.296875 
L 52.59375 62.3125 
Q 48.875 64.0625 45.09375 64.984375 
Q 41.3125 65.921875 37.59375 65.921875 
Q 27.828125 65.921875 22.671875 59.328125 
Q 17.53125 52.734375 16.796875 39.40625 
Q 19.671875 43.65625 24.015625 45.921875 
Q 28.375 48.1875 33.59375 48.1875 
Q 44.578125 48.1875 50.953125 41.515625 
Q 57.328125 34.859375 57.328125 23.390625 
Q 57.328125 12.15625 50.6875 5.359375 
Q 44.046875 -1.421875 33.015625 -1.421875 
Q 20.359375 -1.421875 13.671875 8.265625 
Q 6.984375 17.96875 6.984375 36.375 
Q 6.984375 53.65625 15.1875 63.9375 
Q 23.390625 74.21875 37.203125 74.21875 
Q 40.921875 74.21875 44.703125 73.484375 
Q 48.484375 72.75 52.59375 71.296875 
" id="BitstreamVeraSans-Roman-36"/>
      </defs>
      <g transform="translate(323.242326183 276.633124932)scale(0.12 -0.12)">
       <use xlink:href="#BitstreamVeraSans-Roman-36"/>
      </g>
     </g>
    </g>
    <g id="xtick_5">
     <g id="line2d_15">
      <g>
       <use style="stroke:#000000;stroke-width:0.5;" x="428.358309911" xlink:href="#ma4c3284ab1" y="263.514999932"/>
      </g>
     </g>
     <g id="text_4">
      <!-- 8 -->
      <defs>
       <path d="M 31.78125 34.625 
Q 24.75 34.625 20.71875 30.859375 
Q 16.703125 27.09375 16.703125 20.515625 
Q 16.703125 13.921875 20.71875 10.15625 
Q 24.75 6.390625 31.78125 6.390625 
Q 38.8125 6.390625 42.859375 10.171875 
Q 46.921875 13.96875 46.921875 20.515625 
Q 46.921875 27.09375 42.890625 30.859375 
Q 38.875 34.625 31.78125 34.625 
M 21.921875 38.8125 
Q 15.578125 40.375 12.03125 44.71875 
Q 8.5 49.078125 8.5 55.328125 
Q 8.5 64.0625 14.71875 69.140625 
Q 20.953125 74.21875 31.78125 74.21875 
Q 42.671875 74.21875 48.875 69.140625 
Q 55.078125 64.0625 55.078125 55.328125 
Q 55.078125 49.078125 51.53125 44.71875 
Q 48 40.375 41.703125 38.8125 
Q 48.828125 37.15625 52.796875 32.3125 
Q 56.78125 27.484375 56.78125 20.515625 
Q 56.78125 9.90625 50.3125 4.234375 
Q 43.84375 -1.421875 31.78125 -1.421875 
Q 19.734375 -1.421875 13.25 4.234375 
Q 6.78125 9.90625 6.78125 20.515625 
Q 6.78125 27.484375 10.78125 32.3125 
Q 14.796875 37.15625 21.921875 38.8125 
M 18.3125 54.390625 
Q 18.3125 48.734375 21.84375 45.5625 
Q 25.390625 42.390625 31.78125 42.390625 
Q 38.140625 42.390625 41.71875 45.5625 
Q 45.3125 48.734375 45.3125 54.390625 
Q 45.3125 60.0625 41.71875 63.234375 
Q 38.140625 66.40625 31.78125 66.40625 
Q 25.390625 66.40625 21.84375 63.234375 
Q 18.3125 60.0625 18.3125 54.390625 
" id="BitstreamVeraSans-Roman-38"/>
      </defs>
      <g transform="translate(424.540809911 276.633124932)scale(0.12 -0.12)">
       <use xlink:href="#BitstreamVeraSans-Roman-38"/>
      </g>
     </g>
    </g>
    <g id="xtick_6">
     <g id="line2d_16">
      <g>
       <use style="stroke:#000000;stroke-width:0.5;" x="529.656793639" xlink:href="#ma4c3284ab1" y="263.514999932"/>
      </g>
     </g>
     <g id="text_5">
      <!-- 10 -->
      <defs>
       <path d="M 31.78125 66.40625 
Q 24.171875 66.40625 20.328125 58.90625 
Q 16.5 51.421875 16.5 36.375 
Q 16.5 21.390625 20.328125 13.890625 
Q 24.171875 6.390625 31.78125 6.390625 
Q 39.453125 6.390625 43.28125 13.890625 
Q 47.125 21.390625 47.125 36.375 
Q 47.125 51.421875 43.28125 58.90625 
Q 39.453125 66.40625 31.78125 66.40625 
M 31.78125 74.21875 
Q 44.046875 74.21875 50.515625 64.515625 
Q 56.984375 54.828125 56.984375 36.375 
Q 56.984375 17.96875 50.515625 8.265625 
Q 44.046875 -1.421875 31.78125 -1.421875 
Q 19.53125 -1.421875 13.0625 8.265625 
Q 6.59375 17.96875 6.59375 36.375 
Q 6.59375 54.828125 13.0625 64.515625 
Q 19.53125 74.21875 31.78125 74.21875 
" id="BitstreamVeraSans-Roman-30"/>
       <path d="M 12.40625 8.296875 
L 28.515625 8.296875 
L 28.515625 63.921875 
L 10.984375 60.40625 
L 10.984375 69.390625 
L 28.421875 72.90625 
L 38.28125 72.90625 
L 38.28125 8.296875 
L 54.390625 8.296875 
L 54.390625 0 
L 12.40625 0 
z
" id="BitstreamVeraSans-Roman-31"/>
      </defs>
      <g transform="translate(522.021793639 276.633124932)scale(0.12 -0.12)">
       <use xlink:href="#BitstreamVeraSans-Roman-31"/>
       <use x="63.623046875" xlink:href="#BitstreamVeraSans-Roman-30"/>
      </g>
     </g>
    </g>
    <g id="xtick_7">
     <g id="line2d_17">
      <defs>
       <path d="M 0 0 
L 0 -2 
" id="m18b4d09ba7" style="stroke:#000000;stroke-width:0.5;"/>
      </defs>
      <g>
       <use style="stroke:#000000;stroke-width:0.5;" x="48.488995932" xlink:href="#m18b4d09ba7" y="263.514999932"/>
      </g>
     </g>
    </g>
    <g id="xtick_8">
     <g id="line2d_18">
      <g>
       <use style="stroke:#000000;stroke-width:0.5;" x="73.8136168639" xlink:href="#m18b4d09ba7" y="263.514999932"/>
      </g>
     </g>
    </g>
    <g id="xtick_9">
     <g id="line2d_19">
      <g>
       <use style="stroke:#000000;stroke-width:0.5;" x="99.1382377959" xlink:href="#m18b4d09ba7" y="263.514999932"/>
      </g>
     </g>
    </g>
    <g id="xtick_10">
     <g id="line2d_20">
      <g>
       <use style="stroke:#000000;stroke-width:0.5;" x="149.78747966" xlink:href="#m18b4d09ba7" y="263.514999932"/>
      </g>
     </g>
    </g>
    <g id="xtick_11">
     <g id="line2d_21">
      <g>
       <use style="stroke:#000000;stroke-width:0.5;" x="175.112100592" xlink:href="#m18b4d09ba7" y="263.514999932"/>
      </g>
     </g>
    </g>
    <g id="xtick_12">
     <g id="line2d_22">
      <g>
       <use style="stroke:#000000;stroke-width:0.5;" x="200.436721524" xlink:href="#m18b4d09ba7" y="263.514999932"/>
      </g>
     </g>
    </g>
    <g id="xtick_13">
     <g id="line2d_23">
      <g>
       <use style="stroke:#000000;stroke-width:0.5;" x="251.085963388" xlink:href="#m18b4d09ba7" y="263.514999932"/>
      </g>
     </g>
    </g>
    <g id="xtick_14">
     <g id="line2d_24">
      <g>
       <use style="stroke:#000000;stroke-width:0.5;" x="276.41058432" xlink:href="#m18b4d09ba7" y="263.514999932"/>
      </g>
     </g>
    </g>
    <g id="xtick_15">
     <g id="line2d_25">
      <g>
       <use style="stroke:#000000;stroke-width:0.5;" x="301.735205251" xlink:href="#m18b4d09ba7" y="263.514999932"/>
      </g>
     </g>
    </g>
    <g id="xtick_16">
     <g id="line2d_26">
      <g>
       <use style="stroke:#000000;stroke-width:0.5;" x="352.384447115" xlink:href="#m18b4d09ba7" y="263.514999932"/>
      </g>
     </g>
    </g>
    <g id="xtick_17">
     <g id="line2d_27">
      <g>
       <use style="stroke:#000000;stroke-width:0.5;" x="377.709068047" xlink:href="#m18b4d09ba7" y="263.514999932"/>
      </g>
     </g>
    </g>
    <g id="xtick_18">
     <g id="line2d_28">
      <g>
       <use style="stroke:#000000;stroke-width:0.5;" x="403.033688979" xlink:href="#m18b4d09ba7" y="263.514999932"/>
      </g>
     </g>
    </g>
    <g id="xtick_19">
     <g id="line2d_29">
      <g>
       <use style="stroke:#000000;stroke-width:0.5;" x="453.682930843" xlink:href="#m18b4d09ba7" y="263.514999932"/>
      </g>
     </g>
    </g>
    <g id="xtick_20">
     <g id="line2d_30">
      <g>
       <use style="stroke:#000000;stroke-width:0.5;" x="479.007551775" xlink:href="#m18b4d09ba7" y="263.514999932"/>
      </g>
     </g>
    </g>
    <g id="xtick_21">
     <g id="line2d_31">
      <g>
       <use style="stroke:#000000;stroke-width:0.5;" x="504.332172707" xlink:href="#m18b4d09ba7" y="263.514999932"/>
      </g>
     </g>
    </g>
    <g id="text_6">
     <!-- $t$ -->
     <defs>
      <path d="M 6.203125 8.109375 
Q 6.203125 9.578125 6.5 10.890625 
L 13.71875 39.59375 
L 3.21875 39.59375 
Q 2.203125 39.59375 2.203125 40.921875 
Q 2.59375 43.109375 3.515625 43.109375 
L 14.59375 43.109375 
L 18.609375 59.421875 
Q 19 60.75 20.171875 61.671875 
Q 21.34375 62.59375 22.796875 62.59375 
Q 24.078125 62.59375 24.921875 61.828125 
Q 25.78125 61.078125 25.78125 59.8125 
Q 25.78125 59.515625 25.75 59.34375 
Q 25.734375 59.1875 25.6875 58.984375 
L 21.6875 43.109375 
L 31.984375 43.109375 
Q 33.015625 43.109375 33.015625 41.796875 
Q 32.953125 41.546875 32.8125 40.953125 
Q 32.671875 40.375 32.421875 39.984375 
Q 32.171875 39.59375 31.6875 39.59375 
L 20.796875 39.59375 
L 13.625 10.6875 
Q 12.890625 7.859375 12.890625 5.8125 
Q 12.890625 1.515625 15.828125 1.515625 
Q 20.21875 1.515625 23.609375 5.640625 
Q 27 9.765625 28.8125 14.703125 
Q 29.203125 15.28125 29.59375 15.28125 
L 30.8125 15.28125 
Q 31.203125 15.28125 31.4375 15.015625 
Q 31.6875 14.75 31.6875 14.40625 
Q 31.6875 14.203125 31.59375 14.109375 
Q 29.390625 8.0625 25.1875 3.46875 
Q 21 -1.125 15.578125 -1.125 
Q 11.625 -1.125 8.90625 1.453125 
Q 6.203125 4.046875 6.203125 8.109375 
" id="Cmmi10-74"/>
     </defs>
     <g transform="translate(547.786642012 263.514999932)scale(0.19 -0.19)">
      <use transform="translate(0.0 0.40625)" xlink:href="#Cmmi10-74"/>
     </g>
    </g>
   </g>
   <g id="matplotlib.axis_2">
    <g id="ytick_1">
     <g id="line2d_32">
      <defs>
       <path d="M 0 0 
L 4 0 
" id="m1206019e16" style="stroke:#000000;stroke-width:0.5;"/>
      </defs>
      <g>
       <use style="stroke:#000000;stroke-width:0.5;" x="23.164375" xlink:href="#m1206019e16" y="356.174016019"/>
      </g>
     </g>
     <g id="text_7">
      <!-- -1 -->
      <defs>
       <path d="M 4.890625 31.390625 
L 31.203125 31.390625 
L 31.203125 23.390625 
L 4.890625 23.390625 
z
" id="BitstreamVeraSans-Roman-2d"/>
      </defs>
      <g transform="translate(7.2 359.485266019)scale(0.12 -0.12)">
       <use xlink:href="#BitstreamVeraSans-Roman-2d"/>
       <use x="36.083984375" xlink:href="#BitstreamVeraSans-Roman-31"/>
      </g>
     </g>
    </g>
    <g id="ytick_2">
     <g id="line2d_33">
      <g>
       <use style="stroke:#000000;stroke-width:0.5;" x="23.164375" xlink:href="#m1206019e16" y="263.514999932"/>
      </g>
     </g>
    </g>
    <g id="ytick_3">
     <g id="line2d_34">
      <g>
       <use style="stroke:#000000;stroke-width:0.5;" x="23.164375" xlink:href="#m1206019e16" y="170.855983845"/>
      </g>
     </g>
     <g id="text_8">
      <!-- 1 -->
      <g transform="translate(11.529375 174.167233845)scale(0.12 -0.12)">
       <use xlink:href="#BitstreamVeraSans-Roman-31"/>
      </g>
     </g>
    </g>
    <g id="ytick_4">
     <g id="line2d_35">
      <g>
       <use style="stroke:#000000;stroke-width:0.5;" x="23.164375" xlink:href="#m1206019e16" y="78.1969677576"/>
      </g>
     </g>
     <g id="text_9">
      <!-- 2 -->
      <g transform="translate(11.529375 81.5082177576)scale(0.12 -0.12)">
       <use xlink:href="#BitstreamVeraSans-Roman-32"/>
      </g>
     </g>
    </g>
    <g id="ytick_5">
     <g id="line2d_36">
      <defs>
       <path d="M 0 0 
L 2 0 
" id="mdcd73290bf" style="stroke:#000000;stroke-width:0.5;"/>
      </defs>
      <g>
       <use style="stroke:#000000;stroke-width:0.5;" x="23.164375" xlink:href="#mdcd73290bf" y="411.769425672"/>
      </g>
     </g>
    </g>
    <g id="ytick_6">
     <g id="line2d_37">
      <g>
       <use style="stroke:#000000;stroke-width:0.5;" x="23.164375" xlink:href="#mdcd73290bf" y="393.237622454"/>
      </g>
     </g>
    </g>
    <g id="ytick_7">
     <g id="line2d_38">
      <g>
       <use style="stroke:#000000;stroke-width:0.5;" x="23.164375" xlink:href="#mdcd73290bf" y="374.705819237"/>
      </g>
     </g>
    </g>
    <g id="ytick_8">
     <g id="line2d_39">
      <g>
       <use style="stroke:#000000;stroke-width:0.5;" x="23.164375" xlink:href="#mdcd73290bf" y="337.642212802"/>
      </g>
     </g>
    </g>
    <g id="ytick_9">
     <g id="line2d_40">
      <g>
       <use style="stroke:#000000;stroke-width:0.5;" x="23.164375" xlink:href="#mdcd73290bf" y="319.110409584"/>
      </g>
     </g>
    </g>
    <g id="ytick_10">
     <g id="line2d_41">
      <g>
       <use style="stroke:#000000;stroke-width:0.5;" x="23.164375" xlink:href="#mdcd73290bf" y="300.578606367"/>
      </g>
     </g>
    </g>
    <g id="ytick_11">
     <g id="line2d_42">
      <g>
       <use style="stroke:#000000;stroke-width:0.5;" x="23.164375" xlink:href="#mdcd73290bf" y="282.04680315"/>
      </g>
     </g>
    </g>
    <g id="ytick_12">
     <g id="line2d_43">
      <g>
       <use style="stroke:#000000;stroke-width:0.5;" x="23.164375" xlink:href="#mdcd73290bf" y="244.983196715"/>
      </g>
     </g>
    </g>
    <g id="ytick_13">
     <g id="line2d_44">
      <g>
       <use style="stroke:#000000;stroke-width:0.5;" x="23.164375" xlink:href="#mdcd73290bf" y="226.451393497"/>
      </g>
     </g>
    </g>
    <g id="ytick_14">
     <g id="line2d_45">
      <g>
       <use style="stroke:#000000;stroke-width:0.5;" x="23.164375" xlink:href="#mdcd73290bf" y="207.91959028"/>
      </g>
     </g>
    </g>
    <g id="ytick_15">
     <g id="line2d_46">
      <g>
       <use style="stroke:#000000;stroke-width:0.5;" x="23.164375" xlink:href="#mdcd73290bf" y="189.387787062"/>
      </g>
     </g>
    </g>
    <g id="ytick_16">
     <g id="line2d_47">
      <g>
       <use style="stroke:#000000;stroke-width:0.5;" x="23.164375" xlink:href="#mdcd73290bf" y="152.324180627"/>
      </g>
     </g>
    </g>
    <g id="ytick_17">
     <g id="line2d_48">
      <g>
       <use style="stroke:#000000;stroke-width:0.5;" x="23.164375" xlink:href="#mdcd73290bf" y="133.79237741"/>
      </g>
     </g>
    </g>
    <g id="ytick_18">
     <g id="line2d_49">
      <g>
       <use style="stroke:#000000;stroke-width:0.5;" x="23.164375" xlink:href="#mdcd73290bf" y="115.260574192"/>
      </g>
     </g>
    </g>
    <g id="ytick_19">
     <g id="line2d_50">
      <g>
       <use style="stroke:#000000;stroke-width:0.5;" x="23.164375" xlink:href="#mdcd73290bf" y="96.728770975"/>
      </g>
     </g>
    </g>
    <g id="ytick_20">
     <g id="line2d_51">
      <g>
       <use style="stroke:#000000;stroke-width:0.5;" x="23.164375" xlink:href="#mdcd73290bf" y="59.6651645401"/>
      </g>
     </g>
    </g>
    <g id="ytick_21">
     <g id="line2d_52">
      <g>
       <use style="stroke:#000000;stroke-width:0.5;" x="23.164375" xlink:href="#mdcd73290bf" y="41.1333613227"/>
      </g>
     </g>
    </g>
    <g id="ytick_22">
     <g id="line2d_53">
      <g>
       <use style="stroke:#000000;stroke-width:0.5;" x="23.164375" xlink:href="#mdcd73290bf" y="22.6015581052"/>
      </g>
     </g>
    </g>
   </g>
   <g id="legend_1">
    <g id="patch_5">
     <path d="M 485.026642 54.07625 
L 535.786642 54.07625 
L 535.786642 15.2 
L 485.026642 15.2 
z
" style="fill:#4c4c4c;opacity:0.5;stroke:#4c4c4c;stroke-linejoin:miter;"/>
    </g>
    <g id="patch_6">
     <path d="M 483.026642 52.07625 
L 533.786642 52.07625 
L 533.786642 13.2 
L 483.026642 13.2 
z
" style="fill:#ffffff;stroke:#000000;stroke-linejoin:miter;"/>
    </g>
    <g id="line2d_54">
     <path d="M 493.826642 25.318125 
L 487.226642 25.318125 
" style="fill:none;stroke:#0000ff;stroke-linecap:square;"/>
    </g>
    <g id="line2d_55"/>
    <g id="text_10">
     <!-- $x(t)$ -->
     <defs>
      <path d="M 31 -24.8125 
Q 25.4375 -20.40625 21.40625 -14.71875 
Q 17.390625 -9.03125 14.8125 -2.578125 
Q 12.25 3.859375 10.984375 10.890625 
Q 9.71875 17.921875 9.71875 25 
Q 9.71875 32.171875 10.984375 39.203125 
Q 12.25 46.234375 14.859375 52.734375 
Q 17.484375 59.234375 21.53125 64.890625 
Q 25.59375 70.5625 31 74.8125 
Q 31 75 31.5 75 
L 32.421875 75 
Q 32.71875 75 32.953125 74.734375 
Q 33.203125 74.46875 33.203125 74.125 
Q 33.203125 73.6875 33.015625 73.484375 
Q 28.125 68.703125 24.875 63.234375 
Q 21.625 57.765625 19.640625 51.578125 
Q 17.671875 45.40625 16.796875 38.78125 
Q 15.921875 32.171875 15.921875 25 
Q 15.921875 -6.78125 32.90625 -23.296875 
Q 33.203125 -23.578125 33.203125 -24.125 
Q 33.203125 -24.359375 32.9375 -24.671875 
Q 32.671875 -25 32.421875 -25 
L 31.5 -25 
Q 31 -25 31 -24.8125 
" id="Cmr10-28"/>
      <path d="M 6.5 -25 
Q 5.609375 -25 5.609375 -24.125 
Q 5.609375 -23.6875 5.8125 -23.484375 
Q 22.90625 -6.78125 22.90625 25 
Q 22.90625 56.78125 6 73.296875 
Q 5.609375 73.53125 5.609375 74.125 
Q 5.609375 74.46875 5.875 74.734375 
Q 6.15625 75 6.5 75 
L 7.421875 75 
Q 7.71875 75 7.90625 74.8125 
Q 15.09375 69.140625 19.875 61.03125 
Q 24.65625 52.9375 26.875 43.75 
Q 29.109375 34.578125 29.109375 25 
Q 29.109375 17.921875 27.90625 11.0625 
Q 26.703125 4.203125 24.09375 -2.453125 
Q 21.484375 -9.125 17.484375 -14.765625 
Q 13.484375 -20.40625 7.90625 -24.8125 
Q 7.71875 -25 7.421875 -25 
z
" id="Cmr10-29"/>
      <path d="M 7.8125 2.875 
Q 9.578125 1.515625 12.796875 1.515625 
Q 15.921875 1.515625 18.3125 4.515625 
Q 20.703125 7.515625 21.578125 11.078125 
L 26.125 28.8125 
Q 27.203125 33.640625 27.203125 35.40625 
Q 27.203125 37.890625 25.8125 39.75 
Q 24.421875 41.609375 21.921875 41.609375 
Q 18.75 41.609375 15.96875 39.625 
Q 13.1875 37.640625 11.28125 34.59375 
Q 9.375 31.546875 8.59375 28.421875 
Q 8.40625 27.78125 7.8125 27.78125 
L 6.59375 27.78125 
Q 5.8125 27.78125 5.8125 28.71875 
L 5.8125 29 
Q 6.78125 32.71875 9.125 36.25 
Q 11.46875 39.796875 14.859375 41.984375 
Q 18.265625 44.1875 22.125 44.1875 
Q 25.78125 44.1875 28.734375 42.234375 
Q 31.6875 40.28125 32.90625 36.921875 
Q 34.625 39.984375 37.28125 42.078125 
Q 39.9375 44.1875 43.109375 44.1875 
Q 45.265625 44.1875 47.5 43.421875 
Q 49.75 42.671875 51.171875 41.109375 
Q 52.59375 39.546875 52.59375 37.203125 
Q 52.59375 34.671875 50.953125 32.828125 
Q 49.3125 31 46.78125 31 
Q 45.171875 31 44.09375 32.03125 
Q 43.015625 33.0625 43.015625 34.625 
Q 43.015625 36.71875 44.453125 38.296875 
Q 45.90625 39.890625 47.90625 40.1875 
Q 46.09375 41.609375 42.921875 41.609375 
Q 39.703125 41.609375 37.328125 38.625 
Q 34.96875 35.640625 33.984375 31.984375 
L 29.59375 14.3125 
Q 28.515625 10.296875 28.515625 7.71875 
Q 28.515625 5.171875 29.953125 3.34375 
Q 31.390625 1.515625 33.796875 1.515625 
Q 38.484375 1.515625 42.15625 5.640625 
Q 45.84375 9.765625 47.015625 14.703125 
Q 47.21875 15.28125 47.796875 15.28125 
L 49.03125 15.28125 
Q 49.421875 15.28125 49.65625 15.015625 
Q 49.90625 14.75 49.90625 14.40625 
Q 49.90625 14.3125 49.8125 14.109375 
Q 48.390625 8.15625 43.84375 3.515625 
Q 39.3125 -1.125 33.59375 -1.125 
Q 29.9375 -1.125 26.984375 0.84375 
Q 24.03125 2.828125 22.796875 6.203125 
Q 21.234375 3.265625 18.46875 1.0625 
Q 15.71875 -1.125 12.59375 -1.125 
Q 10.453125 -1.125 8.171875 -0.359375 
Q 5.90625 0.390625 4.484375 1.953125 
Q 3.078125 3.515625 3.078125 5.90625 
Q 3.078125 8.25 4.703125 10.171875 
Q 6.34375 12.109375 8.796875 12.109375 
Q 10.453125 12.109375 11.578125 11.109375 
Q 12.703125 10.109375 12.703125 8.5 
Q 12.703125 6.390625 11.296875 4.828125 
Q 9.90625 3.265625 7.8125 2.875 
" id="Cmmi10-78"/>
     </defs>
     <g transform="translate(496.826642012 29.518125)scale(0.12 -0.12)">
      <use xlink:href="#Cmmi10-78"/>
      <use transform="translate(57.080078125 0.0)" xlink:href="#Cmr10-28"/>
      <use transform="translate(95.8984375 0.0)" xlink:href="#Cmmi10-74"/>
      <use transform="translate(131.982421875 0.0)" xlink:href="#Cmr10-29"/>
     </g>
    </g>
    <g id="line2d_56">
     <path d="M 493.826642 37.67625 
L 487.226642 37.67625 
" style="fill:none;stroke:#ff0000;stroke-linecap:square;"/>
    </g>
    <g id="line2d_57"/>
    <g id="text_11">
     <!-- $dx/dt$ -->
     <defs>
      <path d="M 5.609375 -23 
Q 5.609375 -22.703125 5.71875 -22.609375 
L 40.484375 73.78125 
Q 40.671875 74.359375 41.15625 74.671875 
Q 41.65625 75 42.28125 75 
Q 43.171875 75 43.71875 74.453125 
Q 44.28125 73.921875 44.28125 73 
L 44.28125 72.609375 
L 9.515625 -23.78125 
Q 8.9375 -25 7.625 -25 
Q 6.78125 -25 6.1875 -24.40625 
Q 5.609375 -23.828125 5.609375 -23 
" id="Cmmi10-3d"/>
      <path d="M 17.390625 -1.125 
Q 11.078125 -1.125 7.4375 3.640625 
Q 3.8125 8.40625 3.8125 14.890625 
Q 3.8125 21.296875 7.125 28.171875 
Q 10.453125 35.0625 16.09375 39.625 
Q 21.734375 44.1875 28.21875 44.1875 
Q 31.15625 44.1875 33.515625 42.546875 
Q 35.890625 40.921875 37.203125 38.1875 
L 42.828125 60.5 
Q 43.21875 62.203125 43.3125 63.1875 
Q 43.3125 64.796875 36.8125 64.796875 
Q 35.796875 64.796875 35.796875 66.109375 
Q 35.84375 66.359375 36.015625 66.984375 
Q 36.1875 67.625 36.453125 67.96875 
Q 36.71875 68.3125 37.203125 68.3125 
L 50.6875 69.390625 
Q 51.90625 69.390625 51.90625 68.109375 
L 37.5 10.59375 
Q 36.8125 8.9375 36.8125 5.8125 
Q 36.8125 1.515625 39.703125 1.515625 
Q 42.828125 1.515625 44.453125 5.484375 
Q 46.09375 9.46875 47.21875 14.703125 
Q 47.40625 15.28125 48 15.28125 
L 49.21875 15.28125 
Q 49.609375 15.28125 49.84375 14.9375 
Q 50.09375 14.59375 50.09375 14.3125 
Q 48.34375 7.328125 46.265625 3.09375 
Q 44.1875 -1.125 39.5 -1.125 
Q 36.140625 -1.125 33.546875 0.84375 
Q 30.953125 2.828125 30.328125 6.109375 
Q 23.875 -1.125 17.390625 -1.125 
M 17.484375 1.515625 
Q 21.09375 1.515625 24.484375 4.21875 
Q 27.875 6.9375 30.328125 10.59375 
Q 30.421875 10.6875 30.421875 10.984375 
L 35.890625 33.015625 
Q 35.296875 36.53125 33.296875 39.0625 
Q 31.296875 41.609375 27.984375 41.609375 
Q 24.609375 41.609375 21.703125 38.84375 
Q 18.796875 36.078125 16.796875 32.328125 
Q 14.84375 28.328125 13.0625 21.34375 
Q 11.28125 14.359375 11.28125 10.5 
Q 11.28125 7.03125 12.765625 4.265625 
Q 14.265625 1.515625 17.484375 1.515625 
" id="Cmmi10-64"/>
     </defs>
     <g transform="translate(496.826642012 41.87625)scale(0.12 -0.12)">
      <use xlink:href="#Cmmi10-64"/>
      <use transform="translate(52.001953125 0.0)" xlink:href="#Cmmi10-78"/>
      <use transform="translate(109.08203125 0.0)" xlink:href="#Cmmi10-3d"/>
      <use transform="translate(159.08203125 0.0)" xlink:href="#Cmmi10-64"/>
      <use transform="translate(211.083984375 0.0)" xlink:href="#Cmmi10-74"/>
     </g>
    </g>
   </g>
  </g>
 </g>
 <defs>
  <clipPath id="pf14324f848">
   <rect height="406.08" width="526.752115385" x="13.0345266272" y="7.2"/>
  </clipPath>
 </defs>
</svg>
