<?xml version="1.0" encoding="utf-8" standalone="no"?>
<!DOCTYPE svg PUBLIC "-//W3C//DTD SVG 1.1//EN"
  "http://www.w3.org/Graphics/SVG/1.1/DTD/svg11.dtd">
<!-- Created with matplotlib (http://matplotlib.org/) -->
<svg height="414pt" version="1.1" viewBox="0 0 564 414" width="564pt" xmlns="http://www.w3.org/2000/svg" xmlns:xlink="http://www.w3.org/1999/xlink">
 <defs>
  <style type="text/css">
*{stroke-linecap:butt;stroke-linejoin:round;stroke-miterlimit:100000;}
  </style>
 </defs>
 <g id="figure_1">
  <g id="patch_1">
   <path d="M 0 414.919638 
L 564.742554 414.919638 
L 564.742554 0 
L 0 0 
z
" style="fill:#ffffff;"/>
  </g>
  <g id="axes_1">
   <g id="patch_2">
    <path d="M 34.205 395.995439 
L 513.442554 395.995439 
L 513.442554 34.2 
L 34.205 34.2 
z
" style="fill:#ffffff;"/>
   </g>
   <g id="patch_3">
    <path clip-path="url(#p10e32d4571)" d="M 82.195564 110.898244 
Q 80.340163 115.015243 79.403497 117.093633 
" style="fill:none;stroke:#0000ff;stroke-linecap:round;stroke-width:2.0;"/>
    <path clip-path="url(#p10e32d4571)" d="M 88.070678 110.031058 
L 79.403497 117.093633 
L 78.953746 105.922343 
L 88.070678 110.031058 
z
" style="fill:#0000ff;stroke:#0000ff;stroke-linecap:round;stroke-width:2.0;"/>
   </g>
   <g id="line2d_1">
    <path clip-path="url(#p10e32d4571)" d="M 46.420763 355.40382 
L 47.483228 359.538693 
L 48.691551 363.177847 
L 50.044803 366.380378 
L 51.543502 369.198658 
L 53.18942 371.678981 
L 54.985435 373.862193 
L 56.935424 375.78427 
L 59.044183 377.476855 
L 61.317367 378.967747 
L 63.761453 380.281346 
L 66.383715 381.439048 
L 69.192205 382.459598 
L 72.195751 383.359409 
L 76.520621 384.395894 
L 81.234386 385.272194 
L 86.364559 386.012626 
L 93.409048 386.777611 
L 101.216462 387.393812 
L 111.694388 387.971991 
L 123.513864 388.404954 
L 139.206891 388.757122 
L 159.99311 388.984223 
L 184.266752 389.03267 
L 212.540552 388.881489 
L 240.986426 388.53397 
L 268.400102 388.002585 
L 293.518796 387.312139 
L 315.140011 386.520429 
L 332.23702 385.730316 
L 350.055561 384.711849 
L 368.532198 383.387814 
L 381.164155 382.283421 
L 393.993828 380.953273 
L 406.956898 379.34347 
L 419.967645 377.385688 
L 426.456818 376.250057 
L 432.912976 374.993235 
L 439.316479 373.600717 
L 445.644949 372.056186 
L 451.872943 370.341308 
L 457.971595 368.435517 
L 463.908237 366.315782 
L 469.645997 363.956385 
L 475.143385 361.328695 
L 480.353885 358.400971 
L 485.225555 355.138195 
L 489.700679 351.501977 
L 493.715491 347.450543 
L 497.200016 342.938867 
L 500.078082 337.918978 
L 502.267575 332.340512 
L 503.681 326.151562 
L 504.226447 319.299918 
L 503.809045 311.734737 
L 502.332993 303.408733 
L 499.70424 294.280906 
L 495.833845 284.31982 
L 490.642019 273.507368 
L 484.062741 261.842896 
L 476.048773 249.347442 
L 466.576778 236.067775 
L 455.652133 222.079789 
L 443.312948 207.49078 
L 429.632759 192.440079 
L 414.721384 177.097639 
L 398.723571 161.660274 
L 381.815247 146.345548 
L 364.197465 131.383564 
L 346.088445 117.007236 
L 327.714349 103.441859 
L 309.299631 90.894929 
L 291.057825 79.547151 
L 273.183571 69.545416 
L 255.846463 60.998267 
L 239.187051 53.974017 
L 223.315032 48.501423 
L 208.309448 44.572498 
L 194.220509 42.146946 
L 181.072602 41.157605 
L 168.868021 41.516324 
L 157.590987 43.119803 
L 147.211648 45.855008 
L 137.689785 49.603947 
L 128.978102 54.247667 
L 121.025008 59.66944 
L 113.776881 65.757179 
L 107.179841 72.405165 
L 101.181083 79.515165 
L 95.729831 86.997072 
L 90.777979 94.769148 
L 86.280483 102.757986 
L 82.195564 110.898244 
L 78.484761 119.132241 
L 75.11288 127.409463 
L 72.04788 135.686006 
L 69.260697 143.924006 
L 66.725053 152.091072 
L 64.417244 160.159729 
L 62.315929 168.106897 
L 60.401921 175.913396 
L 58.657984 183.5635 
L 55.620027 198.34642 
L 53.096388 212.384073 
L 51.001973 225.637472 
L 49.268177 238.092017 
L 47.839571 249.75105 
L 46.671254 260.63084 
L 45.328893 275.546616 
L 44.395603 288.876523 
L 43.800236 300.745157 
L 43.489793 311.282258 
L 43.424633 320.616097 
L 43.575054 328.869451 
L 43.918852 336.157308 
L 44.43954 342.585725 
L 45.125058 348.251425 
L 45.966825 353.241877 
L 46.959033 357.635667 
L 48.098121 361.503041 
L 49.382386 364.906534 
L 50.811685 367.901637 
L 52.387213 370.537459 
L 54.111337 372.857363 
L 55.98747 374.899575 
L 58.019978 376.697736 
L 60.214115 378.281419 
L 62.57597 379.67659 
L 65.112439 380.906027 
L 67.831205 381.989696 
L 70.740728 382.945084 
L 74.932899 384.045557 
L 79.504764 384.976035 
L 84.482914 385.762464 
L 91.321681 386.575517 
L 98.904106 387.231371 
L 109.083702 387.848579 
L 120.570346 388.313667 
L 135.826123 388.697454 
L 156.040001 388.956703 
L 179.654613 389.037579 
L 207.17488 388.925323 
L 239.138941 388.562549 
L 266.34543 388.049839 
L 291.283692 387.382734 
L 312.759536 386.618076 
L 335.577762 385.555896 
L 353.527747 384.48597 
L 372.119101 383.092563 
L 384.81308 381.928443 
L 397.688281 380.52444 
L 410.6748 378.822883 
L 423.679767 376.75064 
L 430.152327 375.547416 
L 436.580963 374.214921 
L 442.944508 372.737637 
L 449.218875 371.098122 
L 449.218875 371.098122 
" style="fill:none;stroke:#0000ff;stroke-linecap:square;stroke-width:2.0;"/>
   </g>
   <g id="patch_4">
    <path d="M 34.205 392.105888 
L 513.442554 392.105888 
" style="fill:none;stroke:#000000;stroke-linecap:square;stroke-linejoin:miter;stroke-width:0.8;"/>
   </g>
   <g id="patch_5">
    <path d="M 24.205 395.995439 
L 24.205 34.2 
" style="fill:none;stroke:#000000;stroke-linecap:square;stroke-linejoin:miter;stroke-width:0.8;"/>
   </g>
   <g id="matplotlib.axis_1">
    <g id="xtick_1">
     <g id="line2d_2">
      <defs>
       <path d="M 0 0 
L 0 -4 
" id="m94b74beae5" style="stroke:#000000;stroke-width:0.5;"/>
      </defs>
      <g>
       <use style="stroke:#000000;stroke-width:0.5;" x="79.3812842532" xlink:href="#m94b74beae5" y="392.105887808"/>
      </g>
     </g>
     <g id="text_1">
      <!-- 2 -->
      <defs>
       <path d="M 19.1875 8.296875 
L 53.609375 8.296875 
L 53.609375 0 
L 7.328125 0 
L 7.328125 8.296875 
Q 12.9375 14.109375 22.625 23.890625 
Q 32.328125 33.6875 34.8125 36.53125 
Q 39.546875 41.84375 41.421875 45.53125 
Q 43.3125 49.21875 43.3125 52.78125 
Q 43.3125 58.59375 39.234375 62.25 
Q 35.15625 65.921875 28.609375 65.921875 
Q 23.96875 65.921875 18.8125 64.3125 
Q 13.671875 62.703125 7.8125 59.421875 
L 7.8125 69.390625 
Q 13.765625 71.78125 18.9375 73 
Q 24.125 74.21875 28.421875 74.21875 
Q 39.75 74.21875 46.484375 68.546875 
Q 53.21875 62.890625 53.21875 53.421875 
Q 53.21875 48.921875 51.53125 44.890625 
Q 49.859375 40.875 45.40625 35.40625 
Q 44.1875 33.984375 37.640625 27.21875 
Q 31.109375 20.453125 19.1875 8.296875 
" id="BitstreamVeraSans-Roman-32"/>
      </defs>
      <g transform="translate(75.5637842532 405.224012808)scale(0.12 -0.12)">
       <use xlink:href="#BitstreamVeraSans-Roman-32"/>
      </g>
     </g>
    </g>
    <g id="xtick_2">
     <g id="line2d_3">
      <g>
       <use style="stroke:#000000;stroke-width:0.5;" x="145.302326593" xlink:href="#m94b74beae5" y="392.105887808"/>
      </g>
     </g>
     <g id="text_2">
      <!-- 4 -->
      <defs>
       <path d="M 37.796875 64.3125 
L 12.890625 25.390625 
L 37.796875 25.390625 
z
M 35.203125 72.90625 
L 47.609375 72.90625 
L 47.609375 25.390625 
L 58.015625 25.390625 
L 58.015625 17.1875 
L 47.609375 17.1875 
L 47.609375 0 
L 37.796875 0 
L 37.796875 17.1875 
L 4.890625 17.1875 
L 4.890625 26.703125 
z
" id="BitstreamVeraSans-Roman-34"/>
      </defs>
      <g transform="translate(141.484826593 405.224012808)scale(0.12 -0.12)">
       <use xlink:href="#BitstreamVeraSans-Roman-34"/>
      </g>
     </g>
    </g>
    <g id="xtick_3">
     <g id="line2d_4">
      <g>
       <use style="stroke:#000000;stroke-width:0.5;" x="211.223368932" xlink:href="#m94b74beae5" y="392.105887808"/>
      </g>
     </g>
     <g id="text_3">
      <!-- 6 -->
      <defs>
       <path d="M 33.015625 40.375 
Q 26.375 40.375 22.484375 35.828125 
Q 18.609375 31.296875 18.609375 23.390625 
Q 18.609375 15.53125 22.484375 10.953125 
Q 26.375 6.390625 33.015625 6.390625 
Q 39.65625 6.390625 43.53125 10.953125 
Q 47.40625 15.53125 47.40625 23.390625 
Q 47.40625 31.296875 43.53125 35.828125 
Q 39.65625 40.375 33.015625 40.375 
M 52.59375 71.296875 
L 52.59375 62.3125 
Q 48.875 64.0625 45.09375 64.984375 
Q 41.3125 65.921875 37.59375 65.921875 
Q 27.828125 65.921875 22.671875 59.328125 
Q 17.53125 52.734375 16.796875 39.40625 
Q 19.671875 43.65625 24.015625 45.921875 
Q 28.375 48.1875 33.59375 48.1875 
Q 44.578125 48.1875 50.953125 41.515625 
Q 57.328125 34.859375 57.328125 23.390625 
Q 57.328125 12.15625 50.6875 5.359375 
Q 44.046875 -1.421875 33.015625 -1.421875 
Q 20.359375 -1.421875 13.671875 8.265625 
Q 6.984375 17.96875 6.984375 36.375 
Q 6.984375 53.65625 15.1875 63.9375 
Q 23.390625 74.21875 37.203125 74.21875 
Q 40.921875 74.21875 44.703125 73.484375 
Q 48.484375 72.75 52.59375 71.296875 
" id="BitstreamVeraSans-Roman-36"/>
      </defs>
      <g transform="translate(207.405868932 405.224012808)scale(0.12 -0.12)">
       <use xlink:href="#BitstreamVeraSans-Roman-36"/>
      </g>
     </g>
    </g>
    <g id="xtick_4">
     <g id="line2d_5">
      <g>
       <use style="stroke:#000000;stroke-width:0.5;" x="277.144411271" xlink:href="#m94b74beae5" y="392.105887808"/>
      </g>
     </g>
     <g id="text_4">
      <!-- 8 -->
      <defs>
       <path d="M 31.78125 34.625 
Q 24.75 34.625 20.71875 30.859375 
Q 16.703125 27.09375 16.703125 20.515625 
Q 16.703125 13.921875 20.71875 10.15625 
Q 24.75 6.390625 31.78125 6.390625 
Q 38.8125 6.390625 42.859375 10.171875 
Q 46.921875 13.96875 46.921875 20.515625 
Q 46.921875 27.09375 42.890625 30.859375 
Q 38.875 34.625 31.78125 34.625 
M 21.921875 38.8125 
Q 15.578125 40.375 12.03125 44.71875 
Q 8.5 49.078125 8.5 55.328125 
Q 8.5 64.0625 14.71875 69.140625 
Q 20.953125 74.21875 31.78125 74.21875 
Q 42.671875 74.21875 48.875 69.140625 
Q 55.078125 64.0625 55.078125 55.328125 
Q 55.078125 49.078125 51.53125 44.71875 
Q 48 40.375 41.703125 38.8125 
Q 48.828125 37.15625 52.796875 32.3125 
Q 56.78125 27.484375 56.78125 20.515625 
Q 56.78125 9.90625 50.3125 4.234375 
Q 43.84375 -1.421875 31.78125 -1.421875 
Q 19.734375 -1.421875 13.25 4.234375 
Q 6.78125 9.90625 6.78125 20.515625 
Q 6.78125 27.484375 10.78125 32.3125 
Q 14.796875 37.15625 21.921875 38.8125 
M 18.3125 54.390625 
Q 18.3125 48.734375 21.84375 45.5625 
Q 25.390625 42.390625 31.78125 42.390625 
Q 38.140625 42.390625 41.71875 45.5625 
Q 45.3125 48.734375 45.3125 54.390625 
Q 45.3125 60.0625 41.71875 63.234375 
Q 38.140625 66.40625 31.78125 66.40625 
Q 25.390625 66.40625 21.84375 63.234375 
Q 18.3125 60.0625 18.3125 54.390625 
" id="BitstreamVeraSans-Roman-38"/>
      </defs>
      <g transform="translate(273.326911271 405.224012808)scale(0.12 -0.12)">
       <use xlink:href="#BitstreamVeraSans-Roman-38"/>
      </g>
     </g>
    </g>
    <g id="xtick_5">
     <g id="line2d_6">
      <g>
       <use style="stroke:#000000;stroke-width:0.5;" x="343.065453611" xlink:href="#m94b74beae5" y="392.105887808"/>
      </g>
     </g>
     <g id="text_5">
      <!-- 10 -->
      <defs>
       <path d="M 31.78125 66.40625 
Q 24.171875 66.40625 20.328125 58.90625 
Q 16.5 51.421875 16.5 36.375 
Q 16.5 21.390625 20.328125 13.890625 
Q 24.171875 6.390625 31.78125 6.390625 
Q 39.453125 6.390625 43.28125 13.890625 
Q 47.125 21.390625 47.125 36.375 
Q 47.125 51.421875 43.28125 58.90625 
Q 39.453125 66.40625 31.78125 66.40625 
M 31.78125 74.21875 
Q 44.046875 74.21875 50.515625 64.515625 
Q 56.984375 54.828125 56.984375 36.375 
Q 56.984375 17.96875 50.515625 8.265625 
Q 44.046875 -1.421875 31.78125 -1.421875 
Q 19.53125 -1.421875 13.0625 8.265625 
Q 6.59375 17.96875 6.59375 36.375 
Q 6.59375 54.828125 13.0625 64.515625 
Q 19.53125 74.21875 31.78125 74.21875 
" id="BitstreamVeraSans-Roman-30"/>
       <path d="M 12.40625 8.296875 
L 28.515625 8.296875 
L 28.515625 63.921875 
L 10.984375 60.40625 
L 10.984375 69.390625 
L 28.421875 72.90625 
L 38.28125 72.90625 
L 38.28125 8.296875 
L 54.390625 8.296875 
L 54.390625 0 
L 12.40625 0 
z
" id="BitstreamVeraSans-Roman-31"/>
      </defs>
      <g transform="translate(335.430453611 405.224012808)scale(0.12 -0.12)">
       <use xlink:href="#BitstreamVeraSans-Roman-31"/>
       <use x="63.623046875" xlink:href="#BitstreamVeraSans-Roman-30"/>
      </g>
     </g>
    </g>
    <g id="xtick_6">
     <g id="line2d_7">
      <g>
       <use style="stroke:#000000;stroke-width:0.5;" x="408.98649595" xlink:href="#m94b74beae5" y="392.105887808"/>
      </g>
     </g>
     <g id="text_6">
      <!-- 12 -->
      <g transform="translate(401.35149595 405.224012808)scale(0.12 -0.12)">
       <use xlink:href="#BitstreamVeraSans-Roman-31"/>
       <use x="63.623046875" xlink:href="#BitstreamVeraSans-Roman-32"/>
      </g>
     </g>
    </g>
    <g id="xtick_7">
     <g id="line2d_8">
      <g>
       <use style="stroke:#000000;stroke-width:0.5;" x="474.90753829" xlink:href="#m94b74beae5" y="392.105887808"/>
      </g>
     </g>
     <g id="text_7">
      <!-- 14 -->
      <g transform="translate(467.27253829 405.224012808)scale(0.12 -0.12)">
       <use xlink:href="#BitstreamVeraSans-Roman-31"/>
       <use x="63.623046875" xlink:href="#BitstreamVeraSans-Roman-34"/>
      </g>
     </g>
    </g>
    <g id="xtick_8">
     <g id="line2d_9">
      <defs>
       <path d="M 0 0 
L 0 -2 
" id="md657c74235" style="stroke:#000000;stroke-width:0.5;"/>
      </defs>
      <g>
       <use style="stroke:#000000;stroke-width:0.5;" x="46.4207630835" xlink:href="#md657c74235" y="392.105887808"/>
      </g>
     </g>
    </g>
    <g id="xtick_9">
     <g id="line2d_10">
      <g>
       <use style="stroke:#000000;stroke-width:0.5;" x="62.9010236684" xlink:href="#md657c74235" y="392.105887808"/>
      </g>
     </g>
    </g>
    <g id="xtick_10">
     <g id="line2d_11">
      <g>
       <use style="stroke:#000000;stroke-width:0.5;" x="95.8615448381" xlink:href="#md657c74235" y="392.105887808"/>
      </g>
     </g>
    </g>
    <g id="xtick_11">
     <g id="line2d_12">
      <g>
       <use style="stroke:#000000;stroke-width:0.5;" x="112.341805423" xlink:href="#md657c74235" y="392.105887808"/>
      </g>
     </g>
    </g>
    <g id="xtick_12">
     <g id="line2d_13">
      <g>
       <use style="stroke:#000000;stroke-width:0.5;" x="128.822066008" xlink:href="#md657c74235" y="392.105887808"/>
      </g>
     </g>
    </g>
    <g id="xtick_13">
     <g id="line2d_14">
      <g>
       <use style="stroke:#000000;stroke-width:0.5;" x="161.782587178" xlink:href="#md657c74235" y="392.105887808"/>
      </g>
     </g>
    </g>
    <g id="xtick_14">
     <g id="line2d_15">
      <g>
       <use style="stroke:#000000;stroke-width:0.5;" x="178.262847762" xlink:href="#md657c74235" y="392.105887808"/>
      </g>
     </g>
    </g>
    <g id="xtick_15">
     <g id="line2d_16">
      <g>
       <use style="stroke:#000000;stroke-width:0.5;" x="194.743108347" xlink:href="#md657c74235" y="392.105887808"/>
      </g>
     </g>
    </g>
    <g id="xtick_16">
     <g id="line2d_17">
      <g>
       <use style="stroke:#000000;stroke-width:0.5;" x="227.703629517" xlink:href="#md657c74235" y="392.105887808"/>
      </g>
     </g>
    </g>
    <g id="xtick_17">
     <g id="line2d_18">
      <g>
       <use style="stroke:#000000;stroke-width:0.5;" x="244.183890102" xlink:href="#md657c74235" y="392.105887808"/>
      </g>
     </g>
    </g>
    <g id="xtick_18">
     <g id="line2d_19">
      <g>
       <use style="stroke:#000000;stroke-width:0.5;" x="260.664150687" xlink:href="#md657c74235" y="392.105887808"/>
      </g>
     </g>
    </g>
    <g id="xtick_19">
     <g id="line2d_20">
      <g>
       <use style="stroke:#000000;stroke-width:0.5;" x="293.624671856" xlink:href="#md657c74235" y="392.105887808"/>
      </g>
     </g>
    </g>
    <g id="xtick_20">
     <g id="line2d_21">
      <g>
       <use style="stroke:#000000;stroke-width:0.5;" x="310.104932441" xlink:href="#md657c74235" y="392.105887808"/>
      </g>
     </g>
    </g>
    <g id="xtick_21">
     <g id="line2d_22">
      <g>
       <use style="stroke:#000000;stroke-width:0.5;" x="326.585193026" xlink:href="#md657c74235" y="392.105887808"/>
      </g>
     </g>
    </g>
    <g id="xtick_22">
     <g id="line2d_23">
      <g>
       <use style="stroke:#000000;stroke-width:0.5;" x="359.545714196" xlink:href="#md657c74235" y="392.105887808"/>
      </g>
     </g>
    </g>
    <g id="xtick_23">
     <g id="line2d_24">
      <g>
       <use style="stroke:#000000;stroke-width:0.5;" x="376.025974781" xlink:href="#md657c74235" y="392.105887808"/>
      </g>
     </g>
    </g>
    <g id="xtick_24">
     <g id="line2d_25">
      <g>
       <use style="stroke:#000000;stroke-width:0.5;" x="392.506235365" xlink:href="#md657c74235" y="392.105887808"/>
      </g>
     </g>
    </g>
    <g id="xtick_25">
     <g id="line2d_26">
      <g>
       <use style="stroke:#000000;stroke-width:0.5;" x="425.466756535" xlink:href="#md657c74235" y="392.105887808"/>
      </g>
     </g>
    </g>
    <g id="xtick_26">
     <g id="line2d_27">
      <g>
       <use style="stroke:#000000;stroke-width:0.5;" x="441.94701712" xlink:href="#md657c74235" y="392.105887808"/>
      </g>
     </g>
    </g>
    <g id="xtick_27">
     <g id="line2d_28">
      <g>
       <use style="stroke:#000000;stroke-width:0.5;" x="458.427277705" xlink:href="#md657c74235" y="392.105887808"/>
      </g>
     </g>
    </g>
    <g id="xtick_28">
     <g id="line2d_29">
      <g>
       <use style="stroke:#000000;stroke-width:0.5;" x="491.387798875" xlink:href="#md657c74235" y="392.105887808"/>
      </g>
     </g>
    </g>
    <g id="xtick_29">
     <g id="line2d_30">
      <g>
       <use style="stroke:#000000;stroke-width:0.5;" x="507.868059459" xlink:href="#md657c74235" y="392.105887808"/>
      </g>
     </g>
    </g>
    <g id="text_8">
     <!-- $R(t)$ -->
     <defs>
      <path d="M 31 -24.8125 
Q 25.4375 -20.40625 21.40625 -14.71875 
Q 17.390625 -9.03125 14.8125 -2.578125 
Q 12.25 3.859375 10.984375 10.890625 
Q 9.71875 17.921875 9.71875 25 
Q 9.71875 32.171875 10.984375 39.203125 
Q 12.25 46.234375 14.859375 52.734375 
Q 17.484375 59.234375 21.53125 64.890625 
Q 25.59375 70.5625 31 74.8125 
Q 31 75 31.5 75 
L 32.421875 75 
Q 32.71875 75 32.953125 74.734375 
Q 33.203125 74.46875 33.203125 74.125 
Q 33.203125 73.6875 33.015625 73.484375 
Q 28.125 68.703125 24.875 63.234375 
Q 21.625 57.765625 19.640625 51.578125 
Q 17.671875 45.40625 16.796875 38.78125 
Q 15.921875 32.171875 15.921875 25 
Q 15.921875 -6.78125 32.90625 -23.296875 
Q 33.203125 -23.578125 33.203125 -24.125 
Q 33.203125 -24.359375 32.9375 -24.671875 
Q 32.671875 -25 32.421875 -25 
L 31.5 -25 
Q 31 -25 31 -24.8125 
" id="Cmr10-28"/>
      <path d="M 6.5 -25 
Q 5.609375 -25 5.609375 -24.125 
Q 5.609375 -23.6875 5.8125 -23.484375 
Q 22.90625 -6.78125 22.90625 25 
Q 22.90625 56.78125 6 73.296875 
Q 5.609375 73.53125 5.609375 74.125 
Q 5.609375 74.46875 5.875 74.734375 
Q 6.15625 75 6.5 75 
L 7.421875 75 
Q 7.71875 75 7.90625 74.8125 
Q 15.09375 69.140625 19.875 61.03125 
Q 24.65625 52.9375 26.875 43.75 
Q 29.109375 34.578125 29.109375 25 
Q 29.109375 17.921875 27.90625 11.0625 
Q 26.703125 4.203125 24.09375 -2.453125 
Q 21.484375 -9.125 17.484375 -14.765625 
Q 13.484375 -20.40625 7.90625 -24.8125 
Q 7.71875 -25 7.421875 -25 
z
" id="Cmr10-29"/>
      <path d="M 4.890625 0 
Q 3.90625 0 3.90625 1.3125 
Q 3.953125 1.5625 4.09375 2.171875 
Q 4.25 2.78125 4.515625 3.140625 
Q 4.78125 3.515625 5.171875 3.515625 
Q 11.28125 3.515625 13.71875 4.203125 
Q 14.984375 4.640625 15.578125 6.890625 
L 29.296875 61.8125 
Q 29.5 62.796875 29.5 63.1875 
Q 29.5 64.265625 28.328125 64.40625 
Q 26.421875 64.796875 21.09375 64.796875 
Q 20.125 64.796875 20.125 66.109375 
Q 20.171875 66.359375 20.3125 66.96875 
Q 20.453125 67.578125 20.71875 67.9375 
Q 21 68.3125 21.390625 68.3125 
L 51.703125 68.3125 
Q 55.328125 68.3125 59.234375 67.484375 
Q 63.140625 66.65625 66.40625 64.875 
Q 69.671875 63.09375 71.765625 60.125 
Q 73.875 57.171875 73.875 53.21875 
Q 73.875 48.1875 70.546875 44.234375 
Q 67.234375 40.28125 62.15625 37.625 
Q 57.078125 34.96875 52.296875 33.890625 
Q 56.203125 32.46875 58.6875 29.359375 
Q 61.1875 26.265625 61.1875 22.21875 
Q 61.1875 21.6875 61.15625 21.40625 
Q 61.140625 21.140625 61.078125 20.796875 
L 60.296875 11.921875 
Q 60.203125 9.96875 60.109375 8.59375 
Q 60.015625 7.234375 60.015625 6.390625 
Q 60.015625 3.65625 60.8125 2.015625 
Q 61.625 0.390625 64.015625 0.390625 
Q 67.140625 0.390625 69.5 3.296875 
Q 71.875 6.203125 72.609375 9.625 
Q 73.046875 10.5 73.578125 10.5 
L 74.515625 10.5 
Q 75.484375 10.5 75.484375 9.1875 
Q 74.75 6.296875 73.15625 3.703125 
Q 71.578125 1.125 69.15625 -0.53125 
Q 66.75 -2.203125 63.921875 -2.203125 
Q 58.0625 -2.203125 53.9375 0.40625 
Q 49.8125 3.03125 49.8125 8.59375 
Q 49.8125 10.6875 50.203125 12.3125 
L 52.390625 21.1875 
Q 52.78125 22.40625 52.78125 24.03125 
Q 52.78125 28.171875 49.96875 30.53125 
Q 47.171875 32.90625 42.921875 32.90625 
L 30.609375 32.90625 
L 24.03125 6.5 
Q 23.78125 5.671875 23.78125 5.078125 
Q 23.78125 4.046875 25 3.90625 
Q 26.90625 3.515625 32.171875 3.515625 
Q 33.203125 3.515625 33.203125 2.203125 
Q 32.859375 0.78125 32.65625 0.390625 
Q 32.46875 0 31.5 0 
z
M 31.203125 35.5 
L 42.28125 35.5 
Q 53.171875 35.5 58.6875 41.015625 
Q 61.234375 43.5625 62.71875 47.484375 
Q 64.203125 51.421875 64.203125 55.328125 
Q 64.203125 59.03125 62.03125 61.125 
Q 59.859375 63.234375 56.65625 64.015625 
Q 53.46875 64.796875 49.609375 64.796875 
L 42.921875 64.796875 
Q 40.1875 64.796875 39.296875 64.328125 
Q 38.421875 63.875 37.703125 61.375 
z
" id="Cmmi10-52"/>
      <path d="M 6.203125 8.109375 
Q 6.203125 9.578125 6.5 10.890625 
L 13.71875 39.59375 
L 3.21875 39.59375 
Q 2.203125 39.59375 2.203125 40.921875 
Q 2.59375 43.109375 3.515625 43.109375 
L 14.59375 43.109375 
L 18.609375 59.421875 
Q 19 60.75 20.171875 61.671875 
Q 21.34375 62.59375 22.796875 62.59375 
Q 24.078125 62.59375 24.921875 61.828125 
Q 25.78125 61.078125 25.78125 59.8125 
Q 25.78125 59.515625 25.75 59.34375 
Q 25.734375 59.1875 25.6875 58.984375 
L 21.6875 43.109375 
L 31.984375 43.109375 
Q 33.015625 43.109375 33.015625 41.796875 
Q 32.953125 41.546875 32.8125 40.953125 
Q 32.671875 40.375 32.421875 39.984375 
Q 32.171875 39.59375 31.6875 39.59375 
L 20.796875 39.59375 
L 13.625 10.6875 
Q 12.890625 7.859375 12.890625 5.8125 
Q 12.890625 1.515625 15.828125 1.515625 
Q 20.21875 1.515625 23.609375 5.640625 
Q 27 9.765625 28.8125 14.703125 
Q 29.203125 15.28125 29.59375 15.28125 
L 30.8125 15.28125 
Q 31.203125 15.28125 31.4375 15.015625 
Q 31.6875 14.75 31.6875 14.40625 
Q 31.6875 14.203125 31.59375 14.109375 
Q 29.390625 8.0625 25.1875 3.46875 
Q 21 -1.125 15.578125 -1.125 
Q 11.625 -1.125 8.90625 1.453125 
Q 6.203125 4.046875 6.203125 8.109375 
" id="Cmmi10-74"/>
     </defs>
     <g transform="translate(521.442553864 392.105887808)scale(0.19 -0.19)">
      <use xlink:href="#Cmmi10-52"/>
      <use transform="translate(75.87890625 0.0)" xlink:href="#Cmr10-28"/>
      <use transform="translate(114.697265625 0.0)" xlink:href="#Cmmi10-74"/>
      <use transform="translate(150.78125 0.0)" xlink:href="#Cmr10-29"/>
     </g>
    </g>
   </g>
   <g id="matplotlib.axis_2">
    <g id="ytick_1">
     <g id="line2d_31">
      <defs>
       <path d="M 0 0 
L 4 0 
" id="mc33cac471b" style="stroke:#000000;stroke-width:0.5;"/>
      </defs>
      <g>
       <use style="stroke:#000000;stroke-width:0.5;" x="24.205" xlink:href="#mc33cac471b" y="392.105887808"/>
      </g>
     </g>
     <g id="text_9">
      <!-- 0 -->
      <g transform="translate(12.57 395.417137808)scale(0.12 -0.12)">
       <use xlink:href="#BitstreamVeraSans-Roman-30"/>
      </g>
     </g>
    </g>
    <g id="ytick_2">
     <g id="line2d_32">
      <g>
       <use style="stroke:#000000;stroke-width:0.5;" x="24.205" xlink:href="#mc33cac471b" y="318.70175202"/>
      </g>
     </g>
     <g id="text_10">
      <!-- 2 -->
      <g transform="translate(12.57 322.01300202)scale(0.12 -0.12)">
       <use xlink:href="#BitstreamVeraSans-Roman-32"/>
      </g>
     </g>
    </g>
    <g id="ytick_3">
     <g id="line2d_33">
      <g>
       <use style="stroke:#000000;stroke-width:0.5;" x="24.205" xlink:href="#mc33cac471b" y="245.297616231"/>
      </g>
     </g>
     <g id="text_11">
      <!-- 4 -->
      <g transform="translate(12.57 248.608866231)scale(0.12 -0.12)">
       <use xlink:href="#BitstreamVeraSans-Roman-34"/>
      </g>
     </g>
    </g>
    <g id="ytick_4">
     <g id="line2d_34">
      <g>
       <use style="stroke:#000000;stroke-width:0.5;" x="24.205" xlink:href="#mc33cac471b" y="171.893480443"/>
      </g>
     </g>
     <g id="text_12">
      <!-- 6 -->
      <g transform="translate(12.57 175.204730443)scale(0.12 -0.12)">
       <use xlink:href="#BitstreamVeraSans-Roman-36"/>
      </g>
     </g>
    </g>
    <g id="ytick_5">
     <g id="line2d_35">
      <g>
       <use style="stroke:#000000;stroke-width:0.5;" x="24.205" xlink:href="#mc33cac471b" y="98.4893446548"/>
      </g>
     </g>
     <g id="text_13">
      <!-- 8 -->
      <g transform="translate(12.57 101.800594655)scale(0.12 -0.12)">
       <use xlink:href="#BitstreamVeraSans-Roman-38"/>
      </g>
     </g>
    </g>
    <g id="ytick_6">
     <g id="line2d_36">
      <defs>
       <path d="M 0 0 
L 2 0 
" id="m99eb158028" style="stroke:#000000;stroke-width:0.5;"/>
      </defs>
      <g>
       <use style="stroke:#000000;stroke-width:0.5;" x="24.205" xlink:href="#m99eb158028" y="373.754853861"/>
      </g>
     </g>
    </g>
    <g id="ytick_7">
     <g id="line2d_37">
      <g>
       <use style="stroke:#000000;stroke-width:0.5;" x="24.205" xlink:href="#m99eb158028" y="355.403819914"/>
      </g>
     </g>
    </g>
    <g id="ytick_8">
     <g id="line2d_38">
      <g>
       <use style="stroke:#000000;stroke-width:0.5;" x="24.205" xlink:href="#m99eb158028" y="337.052785967"/>
      </g>
     </g>
    </g>
    <g id="ytick_9">
     <g id="line2d_39">
      <g>
       <use style="stroke:#000000;stroke-width:0.5;" x="24.205" xlink:href="#m99eb158028" y="300.350718073"/>
      </g>
     </g>
    </g>
    <g id="ytick_10">
     <g id="line2d_40">
      <g>
       <use style="stroke:#000000;stroke-width:0.5;" x="24.205" xlink:href="#m99eb158028" y="281.999684126"/>
      </g>
     </g>
    </g>
    <g id="ytick_11">
     <g id="line2d_41">
      <g>
       <use style="stroke:#000000;stroke-width:0.5;" x="24.205" xlink:href="#m99eb158028" y="263.648650179"/>
      </g>
     </g>
    </g>
    <g id="ytick_12">
     <g id="line2d_42">
      <g>
       <use style="stroke:#000000;stroke-width:0.5;" x="24.205" xlink:href="#m99eb158028" y="226.946582284"/>
      </g>
     </g>
    </g>
    <g id="ytick_13">
     <g id="line2d_43">
      <g>
       <use style="stroke:#000000;stroke-width:0.5;" x="24.205" xlink:href="#m99eb158028" y="208.595548337"/>
      </g>
     </g>
    </g>
    <g id="ytick_14">
     <g id="line2d_44">
      <g>
       <use style="stroke:#000000;stroke-width:0.5;" x="24.205" xlink:href="#m99eb158028" y="190.24451439"/>
      </g>
     </g>
    </g>
    <g id="ytick_15">
     <g id="line2d_45">
      <g>
       <use style="stroke:#000000;stroke-width:0.5;" x="24.205" xlink:href="#m99eb158028" y="153.542446496"/>
      </g>
     </g>
    </g>
    <g id="ytick_16">
     <g id="line2d_46">
      <g>
       <use style="stroke:#000000;stroke-width:0.5;" x="24.205" xlink:href="#m99eb158028" y="135.191412549"/>
      </g>
     </g>
    </g>
    <g id="ytick_17">
     <g id="line2d_47">
      <g>
       <use style="stroke:#000000;stroke-width:0.5;" x="24.205" xlink:href="#m99eb158028" y="116.840378602"/>
      </g>
     </g>
    </g>
    <g id="ytick_18">
     <g id="line2d_48">
      <g>
       <use style="stroke:#000000;stroke-width:0.5;" x="24.205" xlink:href="#m99eb158028" y="80.1383107077"/>
      </g>
     </g>
    </g>
    <g id="ytick_19">
     <g id="line2d_49">
      <g>
       <use style="stroke:#000000;stroke-width:0.5;" x="24.205" xlink:href="#m99eb158028" y="61.7872767606"/>
      </g>
     </g>
    </g>
    <g id="ytick_20">
     <g id="line2d_50">
      <g>
       <use style="stroke:#000000;stroke-width:0.5;" x="24.205" xlink:href="#m99eb158028" y="43.4362428136"/>
      </g>
     </g>
    </g>
    <g id="text_14">
     <!-- $F(t)$ -->
     <defs>
      <path d="M 4.6875 0 
Q 3.71875 0 3.71875 1.3125 
Q 3.765625 1.5625 3.90625 2.171875 
Q 4.046875 2.78125 4.3125 3.140625 
Q 4.59375 3.515625 4.984375 3.515625 
Q 11.078125 3.515625 13.484375 4.203125 
Q 14.796875 4.640625 15.375 6.890625 
L 29.109375 61.8125 
Q 29.296875 62.796875 29.296875 63.1875 
Q 29.296875 64.265625 28.078125 64.40625 
Q 26.21875 64.796875 20.90625 64.796875 
Q 19.921875 64.796875 19.921875 66.109375 
Q 19.96875 66.359375 20.109375 66.96875 
Q 20.265625 67.578125 20.53125 67.9375 
Q 20.796875 68.3125 21.1875 68.3125 
L 74.03125 68.3125 
Q 75 68.3125 75 67 
L 72.609375 46.296875 
Q 72.609375 46 72.265625 45.703125 
Q 71.921875 45.40625 71.578125 45.40625 
L 70.703125 45.40625 
Q 69.671875 45.40625 69.671875 46.6875 
Q 70.3125 51.21875 70.3125 54.109375 
Q 70.3125 59.078125 68.15625 61.421875 
Q 66.015625 63.765625 62.734375 64.28125 
Q 59.46875 64.796875 53.71875 64.796875 
L 43.015625 64.796875 
Q 40.28125 64.796875 39.40625 64.328125 
Q 38.53125 63.875 37.796875 61.375 
L 31.390625 35.890625 
L 38.921875 35.890625 
Q 42.625 35.890625 44.921875 36.28125 
Q 47.21875 36.671875 48.734375 37.796875 
Q 50.25 38.921875 51.25 41.046875 
Q 52.25 43.171875 53.078125 46.6875 
Q 53.375 47.609375 54.109375 47.609375 
L 54.984375 47.609375 
Q 56 47.609375 56 46.296875 
L 49.90625 21.578125 
Q 49.46875 20.703125 48.875 20.703125 
L 48 20.703125 
Q 47.015625 20.703125 47.015625 22.015625 
Q 47.265625 23.046875 47.40625 23.734375 
Q 47.5625 24.421875 47.78125 25.703125 
Q 48 27 48 27.984375 
Q 48 30.859375 45.453125 31.640625 
Q 42.921875 32.421875 38.8125 32.421875 
L 30.609375 32.421875 
L 24.125 6.5 
Q 23.875 5.515625 23.875 5.515625 
Q 23.875 4.34375 24.609375 4.203125 
Q 27.203125 3.515625 34.8125 3.515625 
Q 35.796875 3.515625 35.796875 2.203125 
Q 35.453125 0.78125 35.25 0.390625 
Q 35.0625 0 34.078125 0 
z
" id="Cmmi10-46"/>
     </defs>
     <g transform="translate(7.2 21.45)scale(0.19 -0.19)">
      <use xlink:href="#Cmmi10-46"/>
      <use transform="translate(64.306640625 0.0)" xlink:href="#Cmr10-28"/>
      <use transform="translate(103.125 0.0)" xlink:href="#Cmmi10-74"/>
      <use transform="translate(139.208984375 0.0)" xlink:href="#Cmr10-29"/>
     </g>
    </g>
   </g>
  </g>
 </g>
 <defs>
  <clipPath id="p10e32d4571">
   <rect height="361.795439392" width="479.237553864" x="34.205" y="34.2"/>
  </clipPath>
 </defs>
</svg>
