<?xml version="1.0" encoding="UTF-8"?>
<svg xmlns="http://www.w3.org/2000/svg" xmlns:xlink="http://www.w3.org/1999/xlink" width="58pt" height="56pt" viewBox="0 0 58 56" version="1.1">
<g id="surface1">
<path style="fill:none;stroke-width:1.59404;stroke-linecap:butt;stroke-linejoin:miter;stroke:rgb(0%,0%,0%);stroke-opacity:1;stroke-miterlimit:10;" d="M -29.733552 8.758745 L -56.693951 28.348197 L -83.654349 8.758745 L -73.353774 -22.932028 L -40.030221 -22.932028 Z M -29.733552 8.758745 " transform="matrix(1.00002,0,0,-1.00002,86.042741,30.743295)"/>
<path style="fill:none;stroke-width:1.59404;stroke-linecap:butt;stroke-linejoin:miter;stroke:rgb(0%,0%,0%);stroke-opacity:1;stroke-miterlimit:10;" d="M -56.693951 28.348197 L -56.693951 0.00110736 " transform="matrix(1.00002,0,0,-1.00002,86.042741,30.743295)"/>
<path style="fill:none;stroke-width:1.59404;stroke-linecap:butt;stroke-linejoin:miter;stroke:rgb(0%,0%,0%);stroke-opacity:1;stroke-miterlimit:10;" d="M -29.733552 8.758745 L -56.693951 0.00110736 " transform="matrix(1.00002,0,0,-1.00002,86.042741,30.743295)"/>
<path style="fill:none;stroke-width:1.59404;stroke-linecap:butt;stroke-linejoin:miter;stroke:rgb(0%,0%,0%);stroke-opacity:1;stroke-miterlimit:10;" d="M -40.030221 -22.932028 L -56.693951 0.00110736 " transform="matrix(1.00002,0,0,-1.00002,86.042741,30.743295)"/>
<path style="fill:none;stroke-width:1.59404;stroke-linecap:butt;stroke-linejoin:miter;stroke:rgb(0%,0%,0%);stroke-opacity:1;stroke-miterlimit:10;" d="M -73.353774 -22.932028 L -56.693951 0.00110736 " transform="matrix(1.00002,0,0,-1.00002,86.042741,30.743295)"/>
<path style="fill:none;stroke-width:1.59404;stroke-linecap:butt;stroke-linejoin:miter;stroke:rgb(0%,0%,0%);stroke-opacity:1;stroke-miterlimit:10;" d="M -83.654349 8.758745 L -56.693951 0.00110736 " transform="matrix(1.00002,0,0,-1.00002,86.042741,30.743295)"/>
</g>
</svg>
