<?xml version="1.0" encoding="utf-8" standalone="no"?>
<!DOCTYPE svg PUBLIC "-//W3C//DTD SVG 1.1//EN"
  "http://www.w3.org/Graphics/SVG/1.1/DTD/svg11.dtd">
<!-- Created with matplotlib (http://matplotlib.org/) -->
<svg height="416pt" version="1.1" viewBox="0 0 561 416" width="561pt" xmlns="http://www.w3.org/2000/svg" xmlns:xlink="http://www.w3.org/1999/xlink">
 <defs>
  <style type="text/css">
*{stroke-linecap:butt;stroke-linejoin:round;stroke-miterlimit:100000;}
  </style>
 </defs>
 <g id="figure_1">
  <g id="patch_1">
   <path d="M 0 416.71125 
L 561.888831 416.71125 
L 561.888831 0 
L 0 0 
z
" style="fill:#ffffff;"/>
  </g>
  <g id="axes_1">
   <g id="patch_2">
    <path d="M 31.322964 385.833125 
L 540.768831 385.833125 
L 540.768831 31.2 
L 31.322964 31.2 
z
" style="fill:#ffffff;"/>
   </g>
   <g id="line2d_1">
    <path clip-path="url(#pb263c2eeed)" d="M 41.12 109.882379 
L 44.548963 144.129469 
L 48.957629 187.791023 
L 51.406888 209.949624 
L 53.366295 226.025746 
L 55.325702 240.416247 
L 57.285109 253.006991 
L 58.754665 261.236792 
L 60.22422 268.421715 
L 61.693775 274.569515 
L 63.163331 279.695765 
L 64.632886 283.821175 
L 65.61259 286.027054 
L 66.592293 287.806008 
L 67.571997 289.165508 
L 68.551701 290.11296 
L 69.531404 290.655603 
L 70.511108 290.800427 
L 71.490811 290.554125 
L 72.470515 289.923053 
L 73.450218 288.913227 
L 74.429922 287.530322 
L 75.409626 285.779695 
L 76.389329 283.666423 
L 77.858885 279.827094 
L 79.32844 275.19834 
L 80.797995 269.795522 
L 82.267551 263.634366 
L 84.226958 254.2693 
L 86.186365 243.632457 
L 88.145772 231.780841 
L 90.595031 215.370887 
L 93.04429 197.368715 
L 95.983401 174.037765 
L 100.392067 136.882062 
L 104.800733 99.981259 
L 107.249992 81.155213 
L 109.209399 67.713155 
L 110.678955 58.894159 
L 112.14851 51.385454 
L 113.128214 47.205327 
L 114.107917 43.749808 
L 115.087621 41.068854 
L 116.067325 39.206652 
L 116.557176 38.594511 
L 117.047028 38.200392 
L 117.53688 38.027659 
L 118.026732 38.079096 
L 118.516584 38.356877 
L 119.006435 38.862542 
L 119.496287 39.596969 
L 120.475991 41.752208 
L 121.455694 44.815752 
L 122.435398 48.76934 
L 123.415102 53.583293 
L 124.884657 62.325345 
L 126.354212 72.728419 
L 128.313619 88.788407 
L 130.273027 106.774264 
L 133.701989 140.847128 
L 138.110655 184.719452 
L 140.559914 207.145474 
L 142.519321 223.483516 
L 144.478729 238.162156 
L 146.438136 251.055008 
L 147.907691 259.514845 
L 149.377247 266.929455 
L 150.846802 273.304459 
L 152.316357 278.653959 
L 153.785913 282.997737 
L 154.765616 285.346223 
L 155.74532 287.265328 
L 156.725024 288.762512 
L 157.704727 289.845217 
L 158.684431 290.520746 
L 159.664134 290.796179 
L 160.643838 290.678311 
L 161.623541 290.173613 
L 162.603245 289.288212 
L 163.582949 288.027895 
L 164.562652 286.39812 
L 165.542356 284.404052 
L 167.011911 280.740591 
L 168.481467 276.284302 
L 169.951022 271.050562 
L 171.420577 265.054953 
L 173.379985 255.904528 
L 175.339392 245.474082 
L 177.298799 233.818502 
L 179.748058 217.634408 
L 182.197317 199.829304 
L 185.136428 176.682045 
L 189.055242 143.827197 
L 194.443612 98.648322 
L 196.892871 79.949892 
L 198.852278 66.655594 
L 200.321833 57.974704 
L 201.791389 50.626943 
L 202.771092 46.566114 
L 203.750796 43.23873 
L 204.730499 40.693852 
L 205.710203 38.974568 
L 206.200055 38.43605 
L 206.689907 38.11676 
L 207.179758 38.019868 
L 207.66961 38.147953 
L 208.159462 38.502978 
L 208.649314 39.08626 
L 209.139166 39.89845 
L 210.118869 42.208702 
L 211.098573 45.424967 
L 212.078276 49.527037 
L 213.05798 54.483318 
L 214.527535 63.423362 
L 215.997091 74.000992 
L 217.956498 90.249787 
L 220.405757 113.110879 
L 224.814423 157.414036 
L 228.243386 190.91792 
L 230.692645 212.790694 
L 232.652052 228.591949 
L 234.611459 242.682938 
L 236.570866 254.961619 
L 238.040421 262.954713 
L 239.509977 269.903841 
L 240.979532 275.818792 
L 242.449088 280.716518 
L 243.918643 284.618572 
L 244.898347 286.678641 
L 245.87805 288.314322 
L 246.857754 289.533077 
L 247.837457 290.342265 
L 248.817161 290.749048 
L 249.796865 290.760321 
L 250.776568 290.382664 
L 251.756272 289.622319 
L 252.735975 288.485185 
L 253.715679 286.976824 
L 254.695382 285.102496 
L 255.675086 282.867189 
L 257.144641 278.847796 
L 258.614197 274.042459 
L 260.083752 268.466561 
L 261.553308 262.136014 
L 263.512715 252.551522 
L 265.472122 241.704039 
L 267.431529 229.652885 
L 269.880788 213.014108 
L 272.330047 194.814001 
L 275.269158 171.301992 
L 280.167676 129.863773 
L 284.08649 97.322128 
L 286.535749 78.755506 
L 288.495156 65.612493 
L 289.964712 57.072339 
L 291.434267 49.888033 
L 292.413971 45.948057 
L 293.393674 42.750223 
L 294.373378 40.342668 
L 295.353081 38.767338 
L 295.842933 38.302875 
L 296.332785 38.058779 
L 296.822637 38.038024 
L 297.312489 38.242984 
L 297.80234 38.675405 
L 298.292192 39.33638 
L 299.271896 41.344974 
L 300.251599 44.263734 
L 301.231303 48.076241 
L 302.211007 52.754634 
L 303.680562 61.307477 
L 305.150117 71.542959 
L 306.619673 83.24007 
L 308.57908 100.663292 
L 311.518191 129.350219 
L 317.396412 187.877687 
L 319.845671 210.028551 
L 321.805078 226.097167 
L 323.764486 240.47945 
L 325.723893 253.061606 
L 327.193448 261.284882 
L 328.663003 268.463297 
L 330.132559 274.604664 
L 331.602114 279.724598 
L 333.07167 283.843833 
L 334.051373 286.045679 
L 335.031077 287.820672 
L 336.01078 289.176279 
L 336.990484 290.119907 
L 337.970188 290.658793 
L 338.949891 290.799924 
L 339.929595 290.54999 
L 340.909298 289.915344 
L 341.889002 288.901999 
L 342.868706 287.515626 
L 343.848409 285.76158 
L 344.828113 283.644936 
L 346.297668 279.800631 
L 347.767223 275.166997 
L 349.236779 269.759396 
L 350.706334 263.593557 
L 352.665741 254.222423 
L 354.625149 243.579749 
L 356.584556 231.722602 
L 359.033815 215.306291 
L 361.483074 197.298596 
L 364.422184 173.962545 
L 368.830851 136.803713 
L 373.239517 99.907576 
L 375.688776 81.08846 
L 377.648183 67.654459 
L 379.117738 58.843011 
L 380.587294 51.343116 
L 381.566997 47.169528 
L 382.546701 43.721039 
L 383.526404 41.047556 
L 384.506108 39.193208 
L 384.99596 38.585116 
L 385.485812 38.195114 
L 385.975663 38.026556 
L 386.465515 38.082213 
L 386.955367 38.36425 
L 387.445219 38.874193 
L 387.935071 39.612909 
L 388.914774 41.776703 
L 389.894478 44.848683 
L 390.874181 48.810483 
L 391.853885 53.632317 
L 393.32344 62.385349 
L 394.792996 72.798126 
L 396.752403 88.868644 
L 398.71181 106.861948 
L 402.140773 140.940186 
L 406.549439 184.806957 
L 408.998698 207.225544 
L 410.958105 223.556235 
L 412.917512 238.22675 
L 414.876919 251.111056 
L 416.346475 259.564373 
L 417.81603 266.972464 
L 419.285585 273.341016 
L 420.755141 278.684172 
L 422.224696 283.021742 
L 423.2044 285.366173 
L 424.184103 287.281292 
L 425.163807 288.774561 
L 426.143511 289.853419 
L 427.123214 290.525169 
L 428.102918 290.796889 
L 429.082621 290.675369 
L 430.062325 290.167078 
L 431.042029 289.27814 
L 432.021732 288.014338 
L 433.001436 286.381129 
L 433.981139 284.383674 
L 435.450695 280.715215 
L 436.92025 276.254025 
L 438.389805 271.01548 
L 439.859361 265.015165 
L 441.818768 255.858637 
L 443.778175 245.422318 
L 445.737582 233.761152 
L 448.186841 217.57061 
L 450.6361 199.759856 
L 453.575211 176.607287 
L 457.494025 143.748921 
L 462.882395 98.575004 
L 465.331654 79.883734 
L 467.291061 66.597687 
L 468.760617 57.924491 
L 470.230172 50.585679 
L 471.209876 46.531476 
L 472.189579 43.211199 
L 473.169283 40.673863 
L 474.148986 38.962491 
L 474.638838 38.428047 
L 475.12869 38.112894 
L 475.618542 38.020193 
L 476.108394 38.152512 
L 476.598245 38.511802 
L 477.088097 39.099367 
L 477.577949 39.915846 
L 478.557653 42.23464 
L 479.537356 45.459311 
L 480.51706 49.569544 
L 481.496763 54.533639 
L 482.966319 63.484534 
L 484.435874 74.071704 
L 486.395281 90.33078 
L 488.84454 113.200337 
L 493.253206 157.506469 
L 496.682169 191.003671 
L 499.131428 212.868414 
L 501.090835 228.662014 
L 503.050242 242.744701 
L 505.00965 255.01476 
L 506.479205 263.001325 
L 507.94876 269.943959 
L 509.418316 275.852501 
L 510.887871 280.74394 
L 512.357426 284.639853 
L 513.33713 286.695914 
L 514.316834 288.327656 
L 515.296537 289.542542 
L 516.276241 290.347929 
L 517.255944 290.750977 
L 518.235648 290.758578 
L 519.215352 290.377309 
L 520.195055 289.613409 
L 521.174759 288.472773 
L 522.154462 286.960962 
L 523.134166 285.083231 
L 524.11387 282.844567 
L 525.583425 278.820219 
L 527.05298 274.010024 
L 528.522536 268.429365 
L 529.992091 262.094159 
L 530.971795 257.459941 
L 530.971795 257.459941 
" style="fill:none;stroke:#ff0000;stroke-linecap:square;"/>
   </g>
   <g id="line2d_2">
    <path clip-path="url(#pb263c2eeed)" d="M 41.12 245.03822 
L 42.589555 240.47864 
L 43.569259 238.027509 
L 44.548963 236.067295 
L 45.528666 234.608386 
L 46.50837 233.655155 
L 47.488073 233.206155 
L 47.977925 233.168772 
L 48.467777 233.254434 
L 49.447481 233.787974 
L 50.427184 234.790211 
L 51.406888 236.240608 
L 52.386591 238.115274 
L 53.366295 240.387583 
L 54.83585 244.478307 
L 56.305406 249.295765 
L 58.264813 256.665012 
L 60.714072 267.042866 
L 63.653183 280.593094 
L 72.470515 322.088689 
L 75.409626 334.593871 
L 77.858885 344.101948 
L 80.308144 352.645738 
L 82.267551 358.719061 
L 84.226958 364.068794 
L 86.186365 368.657346 
L 87.65592 371.57835 
L 89.125476 374.037646 
L 90.595031 376.021265 
L 92.064587 377.515055 
L 93.04429 378.231631 
L 94.023994 378.71963 
L 95.003697 378.97452 
L 95.983401 378.991671 
L 96.963105 378.766366 
L 97.942808 378.293833 
L 98.922512 377.569283 
L 99.902215 376.587966 
L 100.881919 375.345248 
L 101.861623 373.836697 
L 103.331178 371.066566 
L 104.800733 367.677382 
L 106.270289 363.660943 
L 107.739844 359.014173 
L 109.209399 353.740944 
L 111.168807 345.759337 
L 113.128214 336.750973 
L 115.577473 324.215887 
L 118.516584 307.757607 
L 125.374509 268.418667 
L 127.333916 258.527747 
L 129.293323 249.909798 
L 130.762878 244.470878 
L 132.232434 240.028499 
L 133.212137 237.659727 
L 134.191841 235.784063 
L 135.171545 234.410867 
L 136.151248 233.543507 
L 136.6411 233.298979 
L 137.130952 233.179573 
L 137.620804 233.184141 
L 138.110655 233.311223 
L 139.090359 233.925626 
L 140.070063 235.005503 
L 141.049766 236.529703 
L 142.02947 238.473826 
L 143.009173 240.810844 
L 144.478729 244.989098 
L 145.948284 249.882128 
L 147.907691 257.333251 
L 150.35695 267.783909 
L 153.785913 283.712636 
L 161.623541 320.649686 
L 164.562652 333.272165 
L 167.011911 342.898944 
L 169.46117 351.576259 
L 171.420577 357.765124 
L 173.379985 363.237024 
L 175.339392 367.953695 
L 176.808947 370.974462 
L 178.278503 373.536596 
L 179.748058 375.626136 
L 181.217613 377.228989 
L 182.197317 378.020067 
L 183.17702 378.584041 
L 184.156724 378.916414 
L 185.136428 379.012587 
L 186.116131 378.867869 
L 187.095835 378.477504 
L 188.075538 377.836702 
L 189.055242 376.940692 
L 190.034946 375.784794 
L 191.014649 374.364497 
L 192.484205 371.72916 
L 193.95376 368.477106 
L 195.423315 364.599222 
L 196.892871 360.091154 
L 198.362426 354.955077 
L 200.321833 347.150098 
L 202.28124 338.305147 
L 204.730499 325.943324 
L 207.66961 309.623139 
L 215.507239 264.986001 
L 217.466646 255.483227 
L 218.936201 249.247214 
L 220.405757 243.916334 
L 221.875312 239.592143 
L 222.855016 237.306175 
L 223.834719 235.51533 
L 224.814423 234.227943 
L 225.794127 233.446383 
L 226.283978 233.244453 
L 226.77383 233.16729 
L 227.263682 233.213639 
L 227.753534 233.381939 
L 228.733237 234.076706 
L 229.712941 235.233611 
L 230.692645 236.830908 
L 231.672348 238.843709 
L 233.141904 242.581468 
L 234.611459 247.091967 
L 236.081014 252.269713 
L 238.040421 260.026083 
L 240.48968 270.743015 
L 244.408495 289.200563 
L 250.286716 316.984621 
L 253.225827 329.886406 
L 255.675086 339.80163 
L 258.124345 348.806703 
L 260.083752 355.280776 
L 262.043159 361.055191 
L 264.002567 366.089755 
L 265.472122 369.358322 
L 266.941677 372.176025 
L 268.411233 374.528861 
L 269.880788 376.402841 
L 270.860492 377.379121 
L 271.840195 378.131951 
L 272.819899 378.656922 
L 273.799602 378.949518 
L 274.779306 379.005123 
L 275.75901 378.819035 
L 276.738713 378.386486 
L 277.718417 377.702687 
L 278.69812 376.762878 
L 279.677824 375.562399 
L 280.657528 374.096781 
L 282.127083 371.39221 
L 283.596638 368.0697 
L 285.066194 364.120597 
L 286.535749 359.541194 
L 288.005305 354.334527 
L 289.964712 346.43853 
L 291.924119 337.509204 
L 294.373378 325.057598 
L 297.312489 308.665157 
L 304.660266 266.664628 
L 306.619673 256.965511 
L 308.089228 250.546367 
L 309.558783 245.0066 
L 311.028339 240.453457 
L 312.008042 238.006857 
L 312.987746 236.051298 
L 313.96745 234.597113 
L 314.947153 233.64862 
L 315.926857 233.204316 
L 316.416709 233.169251 
L 316.90656 233.257202 
L 317.886264 233.795215 
L 318.865968 234.801749 
L 319.845671 236.256235 
L 320.825375 238.134752 
L 321.805078 240.410651 
L 323.274634 244.506236 
L 324.744189 249.327898 
L 326.703596 256.701708 
L 329.152855 267.083634 
L 332.091966 280.636548 
L 340.909298 322.129331 
L 343.848409 334.631138 
L 346.297668 344.135817 
L 348.746927 352.675795 
L 350.706334 358.745825 
L 352.665741 364.092079 
L 354.625149 368.676984 
L 356.094704 371.595149 
L 357.564259 374.051518 
L 359.033815 376.032124 
L 360.50337 377.522811 
L 361.483074 378.237267 
L 362.462777 378.723104 
L 363.442481 378.97579 
L 364.422184 378.990692 
L 365.401888 378.763095 
L 366.381592 378.288225 
L 367.361295 377.561292 
L 368.340999 376.577549 
L 369.320702 375.332361 
L 370.300406 373.821301 
L 371.769961 371.047339 
L 373.239517 367.65426 
L 374.709072 363.63389 
L 376.178628 358.983189 
L 377.648183 353.706079 
L 379.60759 345.719487 
L 381.566997 336.706531 
L 384.016256 324.166614 
L 386.955367 307.704565 
L 393.813292 268.369937 
L 395.772699 258.484167 
L 397.242255 251.888226 
L 398.71181 246.144786 
L 400.181365 241.366577 
L 401.161069 238.761131 
L 402.140773 236.641985 
L 403.120476 235.02147 
L 404.10018 233.905878 
L 405.079883 233.295597 
L 405.569735 233.178524 
L 406.059587 233.185401 
L 406.549439 233.314761 
L 407.529142 233.93361 
L 408.508846 235.01775 
L 409.48855 236.546 
L 410.468253 238.493932 
L 411.447957 240.834494 
L 412.917512 245.017536 
L 414.387068 249.914695 
L 416.346475 257.370279 
L 418.795734 267.82489 
L 422.224696 283.756394 
L 430.062325 320.690644 
L 433.001436 333.309845 
L 435.450695 342.933287 
L 437.899954 351.60684 
L 439.859361 357.792445 
L 441.818768 363.260895 
L 443.778175 367.973946 
L 445.247731 370.991893 
L 446.717286 373.55112 
L 448.186841 375.637666 
L 449.656397 377.237436 
L 450.6361 378.026408 
L 451.615804 378.588234 
L 452.595508 378.918416 
L 453.575211 379.012356 
L 454.554915 378.86536 
L 455.534618 378.472672 
L 456.514322 377.829502 
L 457.494025 376.931081 
L 458.473729 375.772727 
L 459.453433 374.349934 
L 460.922988 371.710782 
L 462.392543 368.454846 
L 463.862099 364.573036 
L 465.331654 360.061033 
L 466.80121 354.921059 
L 468.760617 347.11105 
L 470.720024 338.261427 
L 473.169283 325.894615 
L 476.108394 309.570377 
L 483.946022 264.938806 
L 485.90543 255.441739 
L 487.374985 249.211009 
L 488.84454 243.886126 
L 490.314096 239.568481 
L 491.293799 237.287092 
L 492.273503 235.500932 
L 493.253206 234.21828 
L 494.23291 233.441449 
L 494.722762 233.241865 
L 495.212614 233.167028 
L 495.702465 233.215676 
L 496.192317 233.386243 
L 497.172021 234.085427 
L 498.151724 235.246562 
L 499.131428 236.84787 
L 500.111132 238.864435 
L 501.580687 242.607336 
L 503.050242 247.122332 
L 504.519798 252.303906 
L 506.479205 260.064344 
L 508.928464 270.784764 
L 512.847278 289.244618 
L 518.7255 317.026317 
L 521.664611 329.92508 
L 524.11387 339.837133 
L 526.563129 348.838575 
L 528.522536 355.309475 
L 530.481943 361.080516 
L 530.971795 362.409111 
L 530.971795 362.409111 
" style="fill:none;stroke:#0000ff;stroke-linecap:square;"/>
   </g>
   <g id="patch_3">
    <path d="M 31.322964 395.833125 
L 540.768831 395.833125 
" style="fill:none;stroke:#000000;stroke-linecap:square;stroke-linejoin:miter;stroke-width:0.8;"/>
   </g>
   <g id="patch_4">
    <path d="M 41.12 385.833125 
L 41.12 31.2 
" style="fill:none;stroke:#000000;stroke-linecap:square;stroke-linejoin:miter;stroke-width:0.8;"/>
   </g>
   <g id="matplotlib.axis_1">
    <g id="xtick_1">
     <g id="line2d_3">
      <defs>
       <path d="M 0 0 
L 0 -4 
" id="md8a99c6b29" style="stroke:#000000;stroke-width:0.5;"/>
      </defs>
      <g>
       <use style="stroke:#000000;stroke-width:0.5;" x="41.12" xlink:href="#md8a99c6b29" y="395.833125"/>
      </g>
     </g>
     <g id="text_1">
      <!-- 0 -->
      <defs>
       <path d="M 31.78125 66.40625 
Q 24.171875 66.40625 20.328125 58.90625 
Q 16.5 51.421875 16.5 36.375 
Q 16.5 21.390625 20.328125 13.890625 
Q 24.171875 6.390625 31.78125 6.390625 
Q 39.453125 6.390625 43.28125 13.890625 
Q 47.125 21.390625 47.125 36.375 
Q 47.125 51.421875 43.28125 58.90625 
Q 39.453125 66.40625 31.78125 66.40625 
M 31.78125 74.21875 
Q 44.046875 74.21875 50.515625 64.515625 
Q 56.984375 54.828125 56.984375 36.375 
Q 56.984375 17.96875 50.515625 8.265625 
Q 44.046875 -1.421875 31.78125 -1.421875 
Q 19.53125 -1.421875 13.0625 8.265625 
Q 6.59375 17.96875 6.59375 36.375 
Q 6.59375 54.828125 13.0625 64.515625 
Q 19.53125 74.21875 31.78125 74.21875 
" id="BitstreamVeraSans-Roman-30"/>
      </defs>
      <g transform="translate(37.93875 407.4315625)scale(0.1 -0.1)">
       <use xlink:href="#BitstreamVeraSans-Roman-30"/>
      </g>
     </g>
    </g>
    <g id="xtick_2">
     <g id="line2d_4">
      <g>
       <use style="stroke:#000000;stroke-width:0.5;" x="139.090358933" xlink:href="#md8a99c6b29" y="395.833125"/>
      </g>
     </g>
     <g id="text_2">
      <!-- 20 -->
      <defs>
       <path d="M 19.1875 8.296875 
L 53.609375 8.296875 
L 53.609375 0 
L 7.328125 0 
L 7.328125 8.296875 
Q 12.9375 14.109375 22.625 23.890625 
Q 32.328125 33.6875 34.8125 36.53125 
Q 39.546875 41.84375 41.421875 45.53125 
Q 43.3125 49.21875 43.3125 52.78125 
Q 43.3125 58.59375 39.234375 62.25 
Q 35.15625 65.921875 28.609375 65.921875 
Q 23.96875 65.921875 18.8125 64.3125 
Q 13.671875 62.703125 7.8125 59.421875 
L 7.8125 69.390625 
Q 13.765625 71.78125 18.9375 73 
Q 24.125 74.21875 28.421875 74.21875 
Q 39.75 74.21875 46.484375 68.546875 
Q 53.21875 62.890625 53.21875 53.421875 
Q 53.21875 48.921875 51.53125 44.890625 
Q 49.859375 40.875 45.40625 35.40625 
Q 44.1875 33.984375 37.640625 27.21875 
Q 31.109375 20.453125 19.1875 8.296875 
" id="BitstreamVeraSans-Roman-32"/>
      </defs>
      <g transform="translate(132.727858933 407.4315625)scale(0.1 -0.1)">
       <use xlink:href="#BitstreamVeraSans-Roman-32"/>
       <use x="63.623046875" xlink:href="#BitstreamVeraSans-Roman-30"/>
      </g>
     </g>
    </g>
    <g id="xtick_3">
     <g id="line2d_5">
      <g>
       <use style="stroke:#000000;stroke-width:0.5;" x="237.060717866" xlink:href="#md8a99c6b29" y="395.833125"/>
      </g>
     </g>
     <g id="text_3">
      <!-- 40 -->
      <defs>
       <path d="M 37.796875 64.3125 
L 12.890625 25.390625 
L 37.796875 25.390625 
z
M 35.203125 72.90625 
L 47.609375 72.90625 
L 47.609375 25.390625 
L 58.015625 25.390625 
L 58.015625 17.1875 
L 47.609375 17.1875 
L 47.609375 0 
L 37.796875 0 
L 37.796875 17.1875 
L 4.890625 17.1875 
L 4.890625 26.703125 
z
" id="BitstreamVeraSans-Roman-34"/>
      </defs>
      <g transform="translate(230.698217866 407.4315625)scale(0.1 -0.1)">
       <use xlink:href="#BitstreamVeraSans-Roman-34"/>
       <use x="63.623046875" xlink:href="#BitstreamVeraSans-Roman-30"/>
      </g>
     </g>
    </g>
    <g id="xtick_4">
     <g id="line2d_6">
      <g>
       <use style="stroke:#000000;stroke-width:0.5;" x="335.0310768" xlink:href="#md8a99c6b29" y="395.833125"/>
      </g>
     </g>
     <g id="text_4">
      <!-- 60 -->
      <defs>
       <path d="M 33.015625 40.375 
Q 26.375 40.375 22.484375 35.828125 
Q 18.609375 31.296875 18.609375 23.390625 
Q 18.609375 15.53125 22.484375 10.953125 
Q 26.375 6.390625 33.015625 6.390625 
Q 39.65625 6.390625 43.53125 10.953125 
Q 47.40625 15.53125 47.40625 23.390625 
Q 47.40625 31.296875 43.53125 35.828125 
Q 39.65625 40.375 33.015625 40.375 
M 52.59375 71.296875 
L 52.59375 62.3125 
Q 48.875 64.0625 45.09375 64.984375 
Q 41.3125 65.921875 37.59375 65.921875 
Q 27.828125 65.921875 22.671875 59.328125 
Q 17.53125 52.734375 16.796875 39.40625 
Q 19.671875 43.65625 24.015625 45.921875 
Q 28.375 48.1875 33.59375 48.1875 
Q 44.578125 48.1875 50.953125 41.515625 
Q 57.328125 34.859375 57.328125 23.390625 
Q 57.328125 12.15625 50.6875 5.359375 
Q 44.046875 -1.421875 33.015625 -1.421875 
Q 20.359375 -1.421875 13.671875 8.265625 
Q 6.984375 17.96875 6.984375 36.375 
Q 6.984375 53.65625 15.1875 63.9375 
Q 23.390625 74.21875 37.203125 74.21875 
Q 40.921875 74.21875 44.703125 73.484375 
Q 48.484375 72.75 52.59375 71.296875 
" id="BitstreamVeraSans-Roman-36"/>
      </defs>
      <g transform="translate(328.6685768 407.4315625)scale(0.1 -0.1)">
       <use xlink:href="#BitstreamVeraSans-Roman-36"/>
       <use x="63.623046875" xlink:href="#BitstreamVeraSans-Roman-30"/>
      </g>
     </g>
    </g>
    <g id="xtick_5">
     <g id="line2d_7">
      <g>
       <use style="stroke:#000000;stroke-width:0.5;" x="433.001435733" xlink:href="#md8a99c6b29" y="395.833125"/>
      </g>
     </g>
     <g id="text_5">
      <!-- 80 -->
      <defs>
       <path d="M 31.78125 34.625 
Q 24.75 34.625 20.71875 30.859375 
Q 16.703125 27.09375 16.703125 20.515625 
Q 16.703125 13.921875 20.71875 10.15625 
Q 24.75 6.390625 31.78125 6.390625 
Q 38.8125 6.390625 42.859375 10.171875 
Q 46.921875 13.96875 46.921875 20.515625 
Q 46.921875 27.09375 42.890625 30.859375 
Q 38.875 34.625 31.78125 34.625 
M 21.921875 38.8125 
Q 15.578125 40.375 12.03125 44.71875 
Q 8.5 49.078125 8.5 55.328125 
Q 8.5 64.0625 14.71875 69.140625 
Q 20.953125 74.21875 31.78125 74.21875 
Q 42.671875 74.21875 48.875 69.140625 
Q 55.078125 64.0625 55.078125 55.328125 
Q 55.078125 49.078125 51.53125 44.71875 
Q 48 40.375 41.703125 38.8125 
Q 48.828125 37.15625 52.796875 32.3125 
Q 56.78125 27.484375 56.78125 20.515625 
Q 56.78125 9.90625 50.3125 4.234375 
Q 43.84375 -1.421875 31.78125 -1.421875 
Q 19.734375 -1.421875 13.25 4.234375 
Q 6.78125 9.90625 6.78125 20.515625 
Q 6.78125 27.484375 10.78125 32.3125 
Q 14.796875 37.15625 21.921875 38.8125 
M 18.3125 54.390625 
Q 18.3125 48.734375 21.84375 45.5625 
Q 25.390625 42.390625 31.78125 42.390625 
Q 38.140625 42.390625 41.71875 45.5625 
Q 45.3125 48.734375 45.3125 54.390625 
Q 45.3125 60.0625 41.71875 63.234375 
Q 38.140625 66.40625 31.78125 66.40625 
Q 25.390625 66.40625 21.84375 63.234375 
Q 18.3125 60.0625 18.3125 54.390625 
" id="BitstreamVeraSans-Roman-38"/>
      </defs>
      <g transform="translate(426.638935733 407.4315625)scale(0.1 -0.1)">
       <use xlink:href="#BitstreamVeraSans-Roman-38"/>
       <use x="63.623046875" xlink:href="#BitstreamVeraSans-Roman-30"/>
      </g>
     </g>
    </g>
    <g id="xtick_6">
     <g id="line2d_8">
      <g>
       <use style="stroke:#000000;stroke-width:0.5;" x="530.971794666" xlink:href="#md8a99c6b29" y="395.833125"/>
      </g>
     </g>
     <g id="text_6">
      <!-- 100 -->
      <defs>
       <path d="M 12.40625 8.296875 
L 28.515625 8.296875 
L 28.515625 63.921875 
L 10.984375 60.40625 
L 10.984375 69.390625 
L 28.421875 72.90625 
L 38.28125 72.90625 
L 38.28125 8.296875 
L 54.390625 8.296875 
L 54.390625 0 
L 12.40625 0 
z
" id="BitstreamVeraSans-Roman-31"/>
      </defs>
      <g transform="translate(521.428044666 407.4315625)scale(0.1 -0.1)">
       <use xlink:href="#BitstreamVeraSans-Roman-31"/>
       <use x="63.623046875" xlink:href="#BitstreamVeraSans-Roman-30"/>
       <use x="127.24609375" xlink:href="#BitstreamVeraSans-Roman-30"/>
      </g>
     </g>
    </g>
    <g id="xtick_7">
     <g id="line2d_9">
      <defs>
       <path d="M 0 0 
L 0 -2 
" id="mbcdf772d7e" style="stroke:#000000;stroke-width:0.5;"/>
      </defs>
      <g>
       <use style="stroke:#000000;stroke-width:0.5;" x="65.6125897333" xlink:href="#mbcdf772d7e" y="395.833125"/>
      </g>
     </g>
    </g>
    <g id="xtick_8">
     <g id="line2d_10">
      <g>
       <use style="stroke:#000000;stroke-width:0.5;" x="90.1051794666" xlink:href="#mbcdf772d7e" y="395.833125"/>
      </g>
     </g>
    </g>
    <g id="xtick_9">
     <g id="line2d_11">
      <g>
       <use style="stroke:#000000;stroke-width:0.5;" x="114.5977692" xlink:href="#mbcdf772d7e" y="395.833125"/>
      </g>
     </g>
    </g>
    <g id="xtick_10">
     <g id="line2d_12">
      <g>
       <use style="stroke:#000000;stroke-width:0.5;" x="163.582948667" xlink:href="#mbcdf772d7e" y="395.833125"/>
      </g>
     </g>
    </g>
    <g id="xtick_11">
     <g id="line2d_13">
      <g>
       <use style="stroke:#000000;stroke-width:0.5;" x="188.0755384" xlink:href="#mbcdf772d7e" y="395.833125"/>
      </g>
     </g>
    </g>
    <g id="xtick_12">
     <g id="line2d_14">
      <g>
       <use style="stroke:#000000;stroke-width:0.5;" x="212.568128133" xlink:href="#mbcdf772d7e" y="395.833125"/>
      </g>
     </g>
    </g>
    <g id="xtick_13">
     <g id="line2d_15">
      <g>
       <use style="stroke:#000000;stroke-width:0.5;" x="261.5533076" xlink:href="#mbcdf772d7e" y="395.833125"/>
      </g>
     </g>
    </g>
    <g id="xtick_14">
     <g id="line2d_16">
      <g>
       <use style="stroke:#000000;stroke-width:0.5;" x="286.045897333" xlink:href="#mbcdf772d7e" y="395.833125"/>
      </g>
     </g>
    </g>
    <g id="xtick_15">
     <g id="line2d_17">
      <g>
       <use style="stroke:#000000;stroke-width:0.5;" x="310.538487066" xlink:href="#mbcdf772d7e" y="395.833125"/>
      </g>
     </g>
    </g>
    <g id="xtick_16">
     <g id="line2d_18">
      <g>
       <use style="stroke:#000000;stroke-width:0.5;" x="359.523666533" xlink:href="#mbcdf772d7e" y="395.833125"/>
      </g>
     </g>
    </g>
    <g id="xtick_17">
     <g id="line2d_19">
      <g>
       <use style="stroke:#000000;stroke-width:0.5;" x="384.016256266" xlink:href="#mbcdf772d7e" y="395.833125"/>
      </g>
     </g>
    </g>
    <g id="xtick_18">
     <g id="line2d_20">
      <g>
       <use style="stroke:#000000;stroke-width:0.5;" x="408.508846" xlink:href="#mbcdf772d7e" y="395.833125"/>
      </g>
     </g>
    </g>
    <g id="xtick_19">
     <g id="line2d_21">
      <g>
       <use style="stroke:#000000;stroke-width:0.5;" x="457.494025466" xlink:href="#mbcdf772d7e" y="395.833125"/>
      </g>
     </g>
    </g>
    <g id="xtick_20">
     <g id="line2d_22">
      <g>
       <use style="stroke:#000000;stroke-width:0.5;" x="481.986615199" xlink:href="#mbcdf772d7e" y="395.833125"/>
      </g>
     </g>
    </g>
    <g id="xtick_21">
     <g id="line2d_23">
      <g>
       <use style="stroke:#000000;stroke-width:0.5;" x="506.479204933" xlink:href="#mbcdf772d7e" y="395.833125"/>
      </g>
     </g>
    </g>
    <g id="text_7">
     <!-- $t$ -->
     <defs>
      <path d="M 6.203125 8.109375 
Q 6.203125 9.578125 6.5 10.890625 
L 13.71875 39.59375 
L 3.21875 39.59375 
Q 2.203125 39.59375 2.203125 40.921875 
Q 2.59375 43.109375 3.515625 43.109375 
L 14.59375 43.109375 
L 18.609375 59.421875 
Q 19 60.75 20.171875 61.671875 
Q 21.34375 62.59375 22.796875 62.59375 
Q 24.078125 62.59375 24.921875 61.828125 
Q 25.78125 61.078125 25.78125 59.8125 
Q 25.78125 59.515625 25.75 59.34375 
Q 25.734375 59.1875 25.6875 58.984375 
L 21.6875 43.109375 
L 31.984375 43.109375 
Q 33.015625 43.109375 33.015625 41.796875 
Q 32.953125 41.546875 32.8125 40.953125 
Q 32.671875 40.375 32.421875 39.984375 
Q 32.171875 39.59375 31.6875 39.59375 
L 20.796875 39.59375 
L 13.625 10.6875 
Q 12.890625 7.859375 12.890625 5.8125 
Q 12.890625 1.515625 15.828125 1.515625 
Q 20.21875 1.515625 23.609375 5.640625 
Q 27 9.765625 28.8125 14.703125 
Q 29.203125 15.28125 29.59375 15.28125 
L 30.8125 15.28125 
Q 31.203125 15.28125 31.4375 15.015625 
Q 31.6875 14.75 31.6875 14.40625 
Q 31.6875 14.203125 31.59375 14.109375 
Q 29.390625 8.0625 25.1875 3.46875 
Q 21 -1.125 15.578125 -1.125 
Q 11.625 -1.125 8.90625 1.453125 
Q 6.203125 4.046875 6.203125 8.109375 
" id="Cmmi10-74"/>
     </defs>
     <g transform="translate(548.768830559 395.833125)scale(0.16 -0.16)">
      <use transform="translate(0.0 0.40625)" xlink:href="#Cmmi10-74"/>
     </g>
    </g>
   </g>
   <g id="matplotlib.axis_2">
    <g id="ytick_1">
     <g id="line2d_24">
      <defs>
       <path d="M 0 0 
L 4 0 
" id="m4a8e46233c" style="stroke:#000000;stroke-width:0.5;"/>
      </defs>
      <g>
       <use style="stroke:#000000;stroke-width:0.5;" x="41.12" xlink:href="#m4a8e46233c" y="380.194060721"/>
      </g>
     </g>
     <g id="text_8">
      <!-- 30 -->
      <defs>
       <path d="M 40.578125 39.3125 
Q 47.65625 37.796875 51.625 33 
Q 55.609375 28.21875 55.609375 21.1875 
Q 55.609375 10.40625 48.1875 4.484375 
Q 40.765625 -1.421875 27.09375 -1.421875 
Q 22.515625 -1.421875 17.65625 -0.515625 
Q 12.796875 0.390625 7.625 2.203125 
L 7.625 11.71875 
Q 11.71875 9.328125 16.59375 8.109375 
Q 21.484375 6.890625 26.8125 6.890625 
Q 36.078125 6.890625 40.9375 10.546875 
Q 45.796875 14.203125 45.796875 21.1875 
Q 45.796875 27.640625 41.28125 31.265625 
Q 36.765625 34.90625 28.71875 34.90625 
L 20.21875 34.90625 
L 20.21875 43.015625 
L 29.109375 43.015625 
Q 36.375 43.015625 40.234375 45.921875 
Q 44.09375 48.828125 44.09375 54.296875 
Q 44.09375 59.90625 40.109375 62.90625 
Q 36.140625 65.921875 28.71875 65.921875 
Q 24.65625 65.921875 20.015625 65.03125 
Q 15.375 64.15625 9.8125 62.3125 
L 9.8125 71.09375 
Q 15.4375 72.65625 20.34375 73.4375 
Q 25.25 74.21875 29.59375 74.21875 
Q 40.828125 74.21875 47.359375 69.109375 
Q 53.90625 64.015625 53.90625 55.328125 
Q 53.90625 49.265625 50.4375 45.09375 
Q 46.96875 40.921875 40.578125 39.3125 
" id="BitstreamVeraSans-Roman-33"/>
      </defs>
      <g transform="translate(24.395 382.953435721)scale(0.1 -0.1)">
       <use xlink:href="#BitstreamVeraSans-Roman-33"/>
       <use x="63.623046875" xlink:href="#BitstreamVeraSans-Roman-30"/>
      </g>
     </g>
    </g>
    <g id="ytick_2">
     <g id="line2d_25">
      <g>
       <use style="stroke:#000000;stroke-width:0.5;" x="41.12" xlink:href="#m4a8e46233c" y="312.616140298"/>
      </g>
     </g>
     <g id="text_9">
      <!-- 40 -->
      <g transform="translate(24.395 315.375515298)scale(0.1 -0.1)">
       <use xlink:href="#BitstreamVeraSans-Roman-34"/>
       <use x="63.623046875" xlink:href="#BitstreamVeraSans-Roman-30"/>
      </g>
     </g>
    </g>
    <g id="ytick_3">
     <g id="line2d_26">
      <g>
       <use style="stroke:#000000;stroke-width:0.5;" x="41.12" xlink:href="#m4a8e46233c" y="245.038219875"/>
      </g>
     </g>
     <g id="text_10">
      <!-- 50 -->
      <defs>
       <path d="M 10.796875 72.90625 
L 49.515625 72.90625 
L 49.515625 64.59375 
L 19.828125 64.59375 
L 19.828125 46.734375 
Q 21.96875 47.46875 24.109375 47.828125 
Q 26.265625 48.1875 28.421875 48.1875 
Q 40.625 48.1875 47.75 41.5 
Q 54.890625 34.8125 54.890625 23.390625 
Q 54.890625 11.625 47.5625 5.09375 
Q 40.234375 -1.421875 26.90625 -1.421875 
Q 22.3125 -1.421875 17.546875 -0.640625 
Q 12.796875 0.140625 7.71875 1.703125 
L 7.71875 11.625 
Q 12.109375 9.234375 16.796875 8.0625 
Q 21.484375 6.890625 26.703125 6.890625 
Q 35.15625 6.890625 40.078125 11.328125 
Q 45.015625 15.765625 45.015625 23.390625 
Q 45.015625 31 40.078125 35.4375 
Q 35.15625 39.890625 26.703125 39.890625 
Q 22.75 39.890625 18.8125 39.015625 
Q 14.890625 38.140625 10.796875 36.28125 
z
" id="BitstreamVeraSans-Roman-35"/>
      </defs>
      <g transform="translate(24.395 247.797594875)scale(0.1 -0.1)">
       <use xlink:href="#BitstreamVeraSans-Roman-35"/>
       <use x="63.623046875" xlink:href="#BitstreamVeraSans-Roman-30"/>
      </g>
     </g>
    </g>
    <g id="ytick_4">
     <g id="line2d_27">
      <g>
       <use style="stroke:#000000;stroke-width:0.5;" x="41.12" xlink:href="#m4a8e46233c" y="177.460299452"/>
      </g>
     </g>
     <g id="text_11">
      <!-- 60 -->
      <g transform="translate(24.395 180.219674452)scale(0.1 -0.1)">
       <use xlink:href="#BitstreamVeraSans-Roman-36"/>
       <use x="63.623046875" xlink:href="#BitstreamVeraSans-Roman-30"/>
      </g>
     </g>
    </g>
    <g id="ytick_5">
     <g id="line2d_28">
      <g>
       <use style="stroke:#000000;stroke-width:0.5;" x="41.12" xlink:href="#m4a8e46233c" y="109.882379029"/>
      </g>
     </g>
     <g id="text_12">
      <!-- 70 -->
      <defs>
       <path d="M 8.203125 72.90625 
L 55.078125 72.90625 
L 55.078125 68.703125 
L 28.609375 0 
L 18.3125 0 
L 43.21875 64.59375 
L 8.203125 64.59375 
z
" id="BitstreamVeraSans-Roman-37"/>
      </defs>
      <g transform="translate(24.395 112.641754029)scale(0.1 -0.1)">
       <use xlink:href="#BitstreamVeraSans-Roman-37"/>
       <use x="63.623046875" xlink:href="#BitstreamVeraSans-Roman-30"/>
      </g>
     </g>
    </g>
    <g id="ytick_6">
     <g id="line2d_29">
      <g>
       <use style="stroke:#000000;stroke-width:0.5;" x="41.12" xlink:href="#m4a8e46233c" y="42.3044586063"/>
      </g>
     </g>
     <g id="text_13">
      <!-- 80 -->
      <g transform="translate(24.395 45.0638336063)scale(0.1 -0.1)">
       <use xlink:href="#BitstreamVeraSans-Roman-38"/>
       <use x="63.623046875" xlink:href="#BitstreamVeraSans-Roman-30"/>
      </g>
     </g>
    </g>
    <g id="ytick_7">
     <g id="line2d_30">
      <defs>
       <path d="M 0 0 
L 2 0 
" id="mac719fa661" style="stroke:#000000;stroke-width:0.5;"/>
      </defs>
      <g>
       <use style="stroke:#000000;stroke-width:0.5;" x="41.12" xlink:href="#mac719fa661" y="366.678476637"/>
      </g>
     </g>
    </g>
    <g id="ytick_8">
     <g id="line2d_31">
      <g>
       <use style="stroke:#000000;stroke-width:0.5;" x="41.12" xlink:href="#mac719fa661" y="353.162892552"/>
      </g>
     </g>
    </g>
    <g id="ytick_9">
     <g id="line2d_32">
      <g>
       <use style="stroke:#000000;stroke-width:0.5;" x="41.12" xlink:href="#mac719fa661" y="339.647308467"/>
      </g>
     </g>
    </g>
    <g id="ytick_10">
     <g id="line2d_33">
      <g>
       <use style="stroke:#000000;stroke-width:0.5;" x="41.12" xlink:href="#mac719fa661" y="326.131724383"/>
      </g>
     </g>
    </g>
    <g id="ytick_11">
     <g id="line2d_34">
      <g>
       <use style="stroke:#000000;stroke-width:0.5;" x="41.12" xlink:href="#mac719fa661" y="299.100556214"/>
      </g>
     </g>
    </g>
    <g id="ytick_12">
     <g id="line2d_35">
      <g>
       <use style="stroke:#000000;stroke-width:0.5;" x="41.12" xlink:href="#mac719fa661" y="285.584972129"/>
      </g>
     </g>
    </g>
    <g id="ytick_13">
     <g id="line2d_36">
      <g>
       <use style="stroke:#000000;stroke-width:0.5;" x="41.12" xlink:href="#mac719fa661" y="272.069388044"/>
      </g>
     </g>
    </g>
    <g id="ytick_14">
     <g id="line2d_37">
      <g>
       <use style="stroke:#000000;stroke-width:0.5;" x="41.12" xlink:href="#mac719fa661" y="258.55380396"/>
      </g>
     </g>
    </g>
    <g id="ytick_15">
     <g id="line2d_38">
      <g>
       <use style="stroke:#000000;stroke-width:0.5;" x="41.12" xlink:href="#mac719fa661" y="231.522635791"/>
      </g>
     </g>
    </g>
    <g id="ytick_16">
     <g id="line2d_39">
      <g>
       <use style="stroke:#000000;stroke-width:0.5;" x="41.12" xlink:href="#mac719fa661" y="218.007051706"/>
      </g>
     </g>
    </g>
    <g id="ytick_17">
     <g id="line2d_40">
      <g>
       <use style="stroke:#000000;stroke-width:0.5;" x="41.12" xlink:href="#mac719fa661" y="204.491467621"/>
      </g>
     </g>
    </g>
    <g id="ytick_18">
     <g id="line2d_41">
      <g>
       <use style="stroke:#000000;stroke-width:0.5;" x="41.12" xlink:href="#mac719fa661" y="190.975883537"/>
      </g>
     </g>
    </g>
    <g id="ytick_19">
     <g id="line2d_42">
      <g>
       <use style="stroke:#000000;stroke-width:0.5;" x="41.12" xlink:href="#mac719fa661" y="163.944715368"/>
      </g>
     </g>
    </g>
    <g id="ytick_20">
     <g id="line2d_43">
      <g>
       <use style="stroke:#000000;stroke-width:0.5;" x="41.12" xlink:href="#mac719fa661" y="150.429131283"/>
      </g>
     </g>
    </g>
    <g id="ytick_21">
     <g id="line2d_44">
      <g>
       <use style="stroke:#000000;stroke-width:0.5;" x="41.12" xlink:href="#mac719fa661" y="136.913547198"/>
      </g>
     </g>
    </g>
    <g id="ytick_22">
     <g id="line2d_45">
      <g>
       <use style="stroke:#000000;stroke-width:0.5;" x="41.12" xlink:href="#mac719fa661" y="123.397963114"/>
      </g>
     </g>
    </g>
    <g id="ytick_23">
     <g id="line2d_46">
      <g>
       <use style="stroke:#000000;stroke-width:0.5;" x="41.12" xlink:href="#mac719fa661" y="96.3667949447"/>
      </g>
     </g>
    </g>
    <g id="ytick_24">
     <g id="line2d_47">
      <g>
       <use style="stroke:#000000;stroke-width:0.5;" x="41.12" xlink:href="#mac719fa661" y="82.8512108601"/>
      </g>
     </g>
    </g>
    <g id="ytick_25">
     <g id="line2d_48">
      <g>
       <use style="stroke:#000000;stroke-width:0.5;" x="41.12" xlink:href="#mac719fa661" y="69.3356267755"/>
      </g>
     </g>
    </g>
    <g id="ytick_26">
     <g id="line2d_49">
      <g>
       <use style="stroke:#000000;stroke-width:0.5;" x="41.12" xlink:href="#mac719fa661" y="55.8200426909"/>
      </g>
     </g>
    </g>
    <g id="text_14">
     <!-- $H(t), L(t)$ -->
     <defs>
      <path d="M 31 -24.8125 
Q 25.4375 -20.40625 21.40625 -14.71875 
Q 17.390625 -9.03125 14.8125 -2.578125 
Q 12.25 3.859375 10.984375 10.890625 
Q 9.71875 17.921875 9.71875 25 
Q 9.71875 32.171875 10.984375 39.203125 
Q 12.25 46.234375 14.859375 52.734375 
Q 17.484375 59.234375 21.53125 64.890625 
Q 25.59375 70.5625 31 74.8125 
Q 31 75 31.5 75 
L 32.421875 75 
Q 32.71875 75 32.953125 74.734375 
Q 33.203125 74.46875 33.203125 74.125 
Q 33.203125 73.6875 33.015625 73.484375 
Q 28.125 68.703125 24.875 63.234375 
Q 21.625 57.765625 19.640625 51.578125 
Q 17.671875 45.40625 16.796875 38.78125 
Q 15.921875 32.171875 15.921875 25 
Q 15.921875 -6.78125 32.90625 -23.296875 
Q 33.203125 -23.578125 33.203125 -24.125 
Q 33.203125 -24.359375 32.9375 -24.671875 
Q 32.671875 -25 32.421875 -25 
L 31.5 -25 
Q 31 -25 31 -24.8125 
" id="Cmr10-28"/>
      <path d="M 6.5 -25 
Q 5.609375 -25 5.609375 -24.125 
Q 5.609375 -23.6875 5.8125 -23.484375 
Q 22.90625 -6.78125 22.90625 25 
Q 22.90625 56.78125 6 73.296875 
Q 5.609375 73.53125 5.609375 74.125 
Q 5.609375 74.46875 5.875 74.734375 
Q 6.15625 75 6.5 75 
L 7.421875 75 
Q 7.71875 75 7.90625 74.8125 
Q 15.09375 69.140625 19.875 61.03125 
Q 24.65625 52.9375 26.875 43.75 
Q 29.109375 34.578125 29.109375 25 
Q 29.109375 17.921875 27.90625 11.0625 
Q 26.703125 4.203125 24.09375 -2.453125 
Q 21.484375 -9.125 17.484375 -14.765625 
Q 13.484375 -20.40625 7.90625 -24.8125 
Q 7.71875 -25 7.421875 -25 
z
" id="Cmr10-29"/>
      <path d="M 9.90625 -18.015625 
Q 9.90625 -17.578125 10.296875 -17.1875 
Q 13.921875 -13.71875 15.921875 -9.171875 
Q 17.921875 -4.640625 17.921875 0.390625 
L 17.921875 1.609375 
Q 16.3125 0 13.921875 0 
Q 11.625 0 10.015625 1.609375 
Q 8.40625 3.21875 8.40625 5.515625 
Q 8.40625 7.859375 10.015625 9.421875 
Q 11.625 10.984375 13.921875 10.984375 
Q 17.484375 10.984375 19 7.6875 
Q 20.515625 4.390625 20.515625 0.390625 
Q 20.515625 -5.171875 18.28125 -10.171875 
Q 16.0625 -15.1875 12.015625 -19.1875 
Q 11.625 -19.390625 11.375 -19.390625 
Q 10.890625 -19.390625 10.390625 -18.9375 
Q 9.90625 -18.5 9.90625 -18.015625 
" id="Cmmi10-3b"/>
      <path d="M 4.6875 0 
Q 3.71875 0 3.71875 1.3125 
Q 3.765625 1.5625 3.90625 2.171875 
Q 4.046875 2.78125 4.3125 3.140625 
Q 4.59375 3.515625 4.984375 3.515625 
Q 11.078125 3.515625 13.484375 4.203125 
Q 14.796875 4.640625 15.375 6.890625 
L 29.109375 61.8125 
Q 29.296875 62.796875 29.296875 63.1875 
Q 29.296875 64.265625 28.078125 64.40625 
Q 26.21875 64.796875 20.90625 64.796875 
Q 19.921875 64.796875 19.921875 66.109375 
Q 20.265625 67.390625 20.453125 67.84375 
Q 20.65625 68.3125 21.578125 68.3125 
L 51.125 68.3125 
Q 52 68.3125 52 67 
Q 51.859375 65.96875 51.65625 65.375 
Q 51.46875 64.796875 50.6875 64.796875 
Q 43.3125 64.796875 40.828125 64.3125 
Q 38.375 63.875 37.796875 61.375 
L 24.125 6.5 
Q 23.6875 5.28125 23.6875 4.296875 
Q 23.6875 3.515625 27.09375 3.515625 
L 36.375 3.515625 
Q 44.234375 3.515625 49.109375 6.640625 
Q 54 9.765625 56.34375 13.6875 
Q 58.6875 17.625 60.265625 21.84375 
Q 61.859375 26.078125 62.59375 26.21875 
L 63.484375 26.21875 
Q 64.5 26.21875 64.5 24.90625 
L 55.609375 0.6875 
Q 55.46875 0 54.6875 0 
z
" id="Cmmi10-4c"/>
      <path d="M 4.6875 0 
Q 3.71875 0 3.71875 1.3125 
Q 3.765625 1.5625 3.90625 2.171875 
Q 4.046875 2.78125 4.3125 3.140625 
Q 4.59375 3.515625 4.984375 3.515625 
Q 11.078125 3.515625 13.484375 4.203125 
Q 14.796875 4.640625 15.375 6.890625 
L 29.109375 61.8125 
Q 29.296875 62.796875 29.296875 63.1875 
Q 29.296875 64.265625 28.078125 64.40625 
Q 26.21875 64.796875 20.90625 64.796875 
Q 19.921875 64.796875 19.921875 66.109375 
Q 20.265625 67.390625 20.453125 67.84375 
Q 20.65625 68.3125 21.578125 68.3125 
L 48.484375 68.3125 
Q 49.515625 68.3125 49.515625 67 
Q 49.46875 66.75 49.3125 66.15625 
Q 49.171875 65.578125 48.921875 65.1875 
Q 48.6875 64.796875 48.1875 64.796875 
Q 42.09375 64.796875 39.703125 64.109375 
Q 38.375 63.625 37.796875 61.375 
L 31.78125 37.3125 
L 61.8125 37.3125 
L 67.921875 61.8125 
Q 68.109375 62.796875 68.109375 63.1875 
Q 68.109375 64.265625 66.890625 64.40625 
Q 64.984375 64.796875 59.71875 64.796875 
Q 58.6875 64.796875 58.6875 66.109375 
Q 59.03125 67.390625 59.21875 67.84375 
Q 59.421875 68.3125 60.40625 68.3125 
L 87.3125 68.3125 
Q 88.28125 68.3125 88.28125 67 
Q 88.234375 66.75 88.078125 66.140625 
Q 87.9375 65.53125 87.671875 65.15625 
Q 87.40625 64.796875 87.015625 64.796875 
Q 80.90625 64.796875 78.515625 64.109375 
Q 77.203125 63.671875 76.609375 61.375 
L 62.890625 6.5 
Q 62.703125 5.515625 62.703125 5.078125 
Q 62.703125 4.046875 63.921875 3.90625 
Q 65.828125 3.515625 71.09375 3.515625 
Q 72.125 3.515625 72.125 2.203125 
Q 71.828125 1.03125 71.53125 0.515625 
Q 71.234375 0 70.40625 0 
L 43.5 0 
Q 42.484375 0 42.484375 1.3125 
Q 42.671875 2.046875 42.765625 2.390625 
Q 42.875 2.734375 43.140625 3.125 
Q 43.40625 3.515625 43.796875 3.515625 
Q 49.90625 3.515625 52.296875 4.203125 
Q 53.609375 4.640625 54.203125 6.890625 
L 60.890625 33.796875 
L 30.90625 33.796875 
L 24.125 6.5 
Q 23.875 5.28125 23.875 5.078125 
Q 23.875 4.046875 25.09375 3.90625 
Q 27 3.515625 32.328125 3.515625 
Q 33.296875 3.515625 33.296875 2.203125 
Q 32.953125 0.875 32.734375 0.4375 
Q 32.515625 0 31.59375 0 
z
" id="Cmmi10-48"/>
     </defs>
     <g transform="translate(7.2 19.2)scale(0.16 -0.16)">
      <use xlink:href="#Cmmi10-48"/>
      <use transform="translate(83.10546875 0.0)" xlink:href="#Cmr10-28"/>
      <use transform="translate(121.923828125 0.0)" xlink:href="#Cmmi10-74"/>
      <use transform="translate(158.0078125 0.0)" xlink:href="#Cmr10-29"/>
      <use transform="translate(196.826171875 0.0)" xlink:href="#Cmmi10-3b"/>
      <use transform="translate(242.0703125 0.0)" xlink:href="#Cmmi10-4c"/>
      <use transform="translate(310.087890625 0.0)" xlink:href="#Cmr10-28"/>
      <use transform="translate(348.90625 0.0)" xlink:href="#Cmmi10-74"/>
      <use transform="translate(384.990234375 0.0)" xlink:href="#Cmr10-29"/>
     </g>
    </g>
   </g>
   <g id="legend_1">
    <g id="patch_5">
     <path d="M 492.128831 78.07625 
L 536.768831 78.07625 
L 536.768831 39.2 
L 492.128831 39.2 
z
" style="fill:#4c4c4c;opacity:0.5;stroke:#4c4c4c;stroke-linejoin:miter;"/>
    </g>
    <g id="patch_6">
     <path d="M 490.128831 76.07625 
L 534.768831 76.07625 
L 534.768831 37.2 
L 490.128831 37.2 
z
" style="fill:#ffffff;stroke:#000000;stroke-linejoin:miter;"/>
    </g>
    <g id="line2d_50">
     <path d="M 500.928831 49.318125 
L 494.328831 49.318125 
" style="fill:none;stroke:#ff0000;stroke-linecap:square;"/>
    </g>
    <g id="line2d_51"/>
    <g id="text_15">
     <!-- $H(t)$ -->
     <g style="fill:#ff0000;" transform="translate(503.928830559 53.518125)scale(0.12 -0.12)">
      <use xlink:href="#Cmmi10-48"/>
      <use transform="translate(83.10546875 0.0)" xlink:href="#Cmr10-28"/>
      <use transform="translate(121.923828125 0.0)" xlink:href="#Cmmi10-74"/>
      <use transform="translate(158.0078125 0.0)" xlink:href="#Cmr10-29"/>
     </g>
    </g>
    <g id="line2d_52">
     <path d="M 500.928831 61.67625 
L 494.328831 61.67625 
" style="fill:none;stroke:#0000ff;stroke-linecap:square;"/>
    </g>
    <g id="line2d_53"/>
    <g id="text_16">
     <!-- $L(t)$ -->
     <g style="fill:#0000ff;" transform="translate(503.928830559 65.87625)scale(0.12 -0.12)">
      <use xlink:href="#Cmmi10-4c"/>
      <use transform="translate(68.017578125 0.0)" xlink:href="#Cmr10-28"/>
      <use transform="translate(106.8359375 0.0)" xlink:href="#Cmmi10-74"/>
      <use transform="translate(142.919921875 0.0)" xlink:href="#Cmr10-29"/>
     </g>
    </g>
   </g>
  </g>
 </g>
 <defs>
  <clipPath id="pb263c2eeed">
   <rect height="354.633125" width="509.445866453" x="31.3229641067" y="31.2"/>
  </clipPath>
 </defs>
</svg>
