<?xml version="1.0" encoding="utf-8" standalone="no"?>
<!DOCTYPE svg PUBLIC "-//W3C//DTD SVG 1.1//EN"
  "http://www.w3.org/Graphics/SVG/1.1/DTD/svg11.dtd">
<!-- Created with matplotlib (http://matplotlib.org/) -->
<svg height="272pt" version="1.1" viewBox="0 0 120 272" width="120pt" xmlns="http://www.w3.org/2000/svg" xmlns:xlink="http://www.w3.org/1999/xlink">
 <defs>
  <style type="text/css">
*{stroke-linecap:butt;stroke-linejoin:round;}
  </style>
 </defs>
 <g id="figure_1">
  <g id="patch_1">
   <path d="M 0 272.033125 
L 120.673929 272.033125 
L 120.673929 0 
L 0 0 
z
" style="fill:#ffffff;"/>
  </g>
  <g id="axes_1">
   <g id="patch_2">
    <path d="M 10.441633 264.833125 
L 78.113929 264.833125 
L 78.113929 31.2 
L 10.441633 31.2 
z
" style="fill:#ffffff;"/>
   </g>
   <g id="line2d_1">
    <path clip-path="url(#p57584e7545)" d="M 76.370081 131.970331 
L 76.670991 138.914822 
L 76.812539 147.659725 
L 76.742933 154.407727 
L 76.441557 162.718474 
L 75.874693 171.285442 
L 75.196503 178.397808 
L 74.330925 185.406473 
L 73.252024 192.414437 
L 72.099555 198.615725 
L 70.598701 205.389224 
L 69.043121 211.316211 
L 67.318405 216.928944 
L 65.450855 222.125018 
L 63.826952 226.037256 
L 61.956108 229.955905 
L 59.909227 233.618502 
L 58.369692 235.991205 
L 56.493565 238.480658 
L 54.770277 240.406788 
L 53.528725 241.593109 
L 52.272334 242.629339 
L 50.232962 243.972915 
L 48.212574 244.905477 
L 46.176653 245.455568 
L 44.647724 245.61566 
L 42.526571 245.480511 
L 39.437491 244.535862 
L 37.164252 243.260549 
L 34.85825 241.441913 
L 32.447303 238.940759 
L 30.848597 236.919708 
L 28.744823 233.780233 
L 26.699116 230.149278 
L 25.379383 227.467975 
L 23.482104 223.08144 
L 21.775544 218.512849 
L 19.843603 212.465199 
L 18.288203 206.73427 
L 16.938935 200.93333 
L 15.477138 193.421493 
L 14.535695 187.583956 
L 13.649556 180.942431 
L 12.858169 173.357847 
L 12.228491 164.824221 
L 11.853799 156.083783 
L 11.74328 147.332431 
L 11.864442 139.573169 
L 12.217605 131.396796 
L 12.843394 122.840728 
L 13.449188 116.819001 
L 14.423764 109.215232 
L 15.646924 101.6553 
L 16.975226 94.931431 
L 18.496079 88.479796 
L 20.133816 82.590972 
L 21.75218 77.58746 
L 23.269754 73.485741 
L 24.870134 69.677795 
L 26.96555 65.376092 
L 28.573457 62.534222 
L 30.083873 60.189147 
L 31.876144 57.779943 
L 33.823563 55.586961 
L 35.813714 53.771787 
L 37.536785 52.529039 
L 39.18021 51.616539 
L 40.837086 50.958429 
L 42.713916 50.523946 
L 45.459047 50.475521 
L 47.650354 50.937015 
L 49.096462 51.487679 
L 51.212088 52.653913 
L 52.977611 53.965471 
L 55.562993 56.471057 
L 57.330915 58.611195 
L 59.07913 61.096748 
L 60.704957 63.766342 
L 62.75375 67.676598 
L 63.969927 70.320144 
L 65.668716 74.473343 
L 67.58967 79.930214 
L 69.014201 84.615221 
L 70.33106 89.554779 
L 71.917523 96.527362 
L 73.145572 102.998923 
L 74.314932 110.511163 
L 75.152457 117.234814 
L 75.845357 124.392048 
L 76.396583 132.454882 
L 76.734332 141.243647 
L 76.81073 149.10584 
L 76.673618 157.033756 
L 76.326873 164.822045 
L 75.733889 172.94334 
L 74.873161 181.213428 
L 73.818198 188.918934 
L 72.433336 196.925832 
L 71.300268 202.374675 
L 69.745763 208.755178 
L 68.279905 213.909117 
L 66.709742 218.713204 
L 65.388472 222.285018 
L 63.67756 226.372143 
L 62.067432 229.738772 
L 60.37902 232.831187 
L 58.56991 235.70003 
L 56.863077 238.023633 
L 55.4683 239.666628 
L 54.060664 241.104934 
L 52.632591 242.348777 
L 50.53128 243.801959 
L 48.905239 244.62962 
L 47.267307 245.209014 
L 44.198707 245.621689 
L 42.823176 245.524399 
L 40.554193 244.980688 
L 38.655926 244.153891 
L 36.777199 242.992929 
L 34.636143 241.237774 
L 32.875989 239.432329 
L 30.917398 237.012952 
L 29.039195 234.254203 
L 27.006969 230.734993 
L 24.95136 226.535849 
L 22.956927 221.743557 
L 21.279362 217.056684 
L 19.426078 211.011999 
L 18.089305 205.933459 
L 16.442584 198.55085 
L 15.184406 191.709599 
L 14.044156 184.075633 
L 13.265261 177.527912 
L 12.513754 169.143055 
L 12.093003 162.305411 
L 11.80559 154.09298 
L 11.756284 145.17369 
L 11.982946 136.171562 
L 12.405719 128.409043 
L 13.119212 119.923855 
L 13.851939 113.44318 
L 14.905424 106.036992 
L 16.225206 98.57593 
L 17.76375 91.448466 
L 19.602478 84.400106 
L 21.048393 79.675912 
L 22.594606 75.246792 
L 24.515561 70.47969 
L 26.388034 66.490605 
L 28.576238 62.529624 
L 30.543464 59.533944 
L 32.089056 57.51923 
L 34.118568 55.291377 
L 35.37945 54.132485 
L 36.977672 52.89972 
L 38.154509 52.155285 
L 39.858099 51.315852 
L 41.574133 50.748699 
L 43.297362 50.455461 
L 46.457315 50.630439 
L 48.686811 51.311609 
L 50.818579 52.404015 
L 52.027537 53.220647 
L 54.142574 55.006023 
L 55.950757 56.909718 
L 57.621313 58.997862 
L 59.167407 61.232552 
L 61.157961 64.576146 
L 63.147941 68.505463 
L 64.687193 72.004325 
L 66.185889 75.856562 
L 67.709665 80.301946 
L 69.589984 86.694672 
L 70.920134 91.995103 
L 72.529102 99.606854 
L 73.806157 107.036013 
L 74.7747 114.014081 
L 75.667587 122.348579 
L 76.190911 129.02466 
L 76.590844 136.636066 
L 76.798477 145.125088 
L 76.757625 153.696301 
L 76.516564 161.156972 
L 76.065554 168.814662 
L 75.336458 177.084639 
L 74.336703 185.364649 
L 73.426051 191.377103 
L 72.264709 197.789261 
L 70.814958 204.485519 
L 69.626814 209.201375 
L 68.123693 214.417613 
L 66.600131 219.024771 
L 64.665313 224.081625 
L 62.820037 228.218964 
L 60.818816 232.066046 
L 58.925494 235.170303 
L 56.908868 237.965884 
L 54.833353 240.3421 
L 52.408626 242.524748 
L 51.373988 243.271959 
L 49.596382 244.308896 
L 47.802298 245.047519 
L 46.412096 245.4117 
L 44.773692 245.61063 
L 40.529509 244.972129 
L 39.513289 244.569797 
L 38.227219 243.919382 
L 36.950872 243.114858 
L 35.19643 241.742786 
L 32.710853 239.245429 
L 31.046516 237.186389 
L 29.42269 234.854323 
L 27.119065 230.944682 
L 25.35861 227.423469 
L 23.375586 222.814704 
L 23.375586 222.814704 
" style="fill:none;stroke:#0000ff;stroke-linecap:square;stroke-width:2;"/>
   </g>
   <g id="patch_3">
    <path d="M 44.277618 264.833125 
L 44.277618 31.2 
" style="fill:none;stroke:#000000;stroke-linecap:square;stroke-linejoin:miter;stroke-width:0.8;"/>
   </g>
   <g id="patch_4">
    <path d="M 10.441633 148.016562 
L 78.113929 148.016562 
" style="fill:none;stroke:#000000;stroke-linecap:square;stroke-linejoin:miter;stroke-width:0.8;"/>
   </g>
   <g id="matplotlib.axis_1">
    <g id="xtick_1">
     <g id="line2d_2">
      <defs>
       <path d="M 0 0 
L 0 -4 
" id="m8b8c2d566e" style="stroke:#000000;stroke-width:0.5;"/>
      </defs>
      <g>
       <use style="stroke:#000000;stroke-width:0.5;" x="12.185156" xlink:href="#m8b8c2d566e" y="148.016562"/>
      </g>
     </g>
     <g id="text_1">
      <!-- -2 -->
      <defs>
       <path d="M 4.890625 31.390625 
L 31.203125 31.390625 
L 31.203125 23.390625 
L 4.890625 23.390625 
z
" id="DejaVuSans-2d"/>
       <path d="M 19.1875 8.296875 
L 53.609375 8.296875 
L 53.609375 0 
L 7.328125 0 
L 7.328125 8.296875 
Q 12.9375 14.109375 22.625 23.890625 
Q 32.328125 33.6875 34.8125 36.53125 
Q 39.546875 41.84375 41.421875 45.53125 
Q 43.3125 49.21875 43.3125 52.78125 
Q 43.3125 58.59375 39.234375 62.25 
Q 35.15625 65.921875 28.609375 65.921875 
Q 23.96875 65.921875 18.8125 64.3125 
Q 13.671875 62.703125 7.8125 59.421875 
L 7.8125 69.390625 
Q 13.765625 71.78125 18.9375 73 
Q 24.125 74.21875 28.421875 74.21875 
Q 39.75 74.21875 46.484375 68.546875 
Q 53.21875 62.890625 53.21875 53.421875 
Q 53.21875 48.921875 51.53125 44.890625 
Q 49.859375 40.875 45.40625 35.40625 
Q 44.1875 33.984375 37.640625 27.21875 
Q 31.109375 20.453125 19.1875 8.296875 
z
" id="DejaVuSans-32"/>
      </defs>
      <g transform="translate(7.2 159.615)scale(0.1 -0.1)">
       <use xlink:href="#DejaVuSans-2d"/>
       <use x="36.083984" xlink:href="#DejaVuSans-32"/>
      </g>
     </g>
    </g>
    <g id="xtick_2">
     <g id="line2d_3">
      <g>
       <use style="stroke:#000000;stroke-width:0.5;" x="28.231387" xlink:href="#m8b8c2d566e" y="148.016562"/>
      </g>
     </g>
     <g id="text_2">
      <!-- -1 -->
      <defs>
       <path d="M 12.40625 8.296875 
L 28.515625 8.296875 
L 28.515625 63.921875 
L 10.984375 60.40625 
L 10.984375 69.390625 
L 28.421875 72.90625 
L 38.28125 72.90625 
L 38.28125 8.296875 
L 54.390625 8.296875 
L 54.390625 0 
L 12.40625 0 
z
" id="DejaVuSans-31"/>
      </defs>
      <g transform="translate(23.246231 159.615)scale(0.1 -0.1)">
       <use xlink:href="#DejaVuSans-2d"/>
       <use x="36.083984" xlink:href="#DejaVuSans-31"/>
      </g>
     </g>
    </g>
    <g id="xtick_3">
     <g id="line2d_4">
      <g>
       <use style="stroke:#000000;stroke-width:0.5;" x="44.277618" xlink:href="#m8b8c2d566e" y="148.016562"/>
      </g>
     </g>
    </g>
    <g id="xtick_4">
     <g id="line2d_5">
      <g>
       <use style="stroke:#000000;stroke-width:0.5;" x="60.32385" xlink:href="#m8b8c2d566e" y="148.016562"/>
      </g>
     </g>
     <g id="text_3">
      <!-- 1 -->
      <g transform="translate(57.1426 159.615)scale(0.1 -0.1)">
       <use xlink:href="#DejaVuSans-31"/>
      </g>
     </g>
    </g>
    <g id="xtick_5">
     <g id="line2d_6">
      <g>
       <use style="stroke:#000000;stroke-width:0.5;" x="76.370081" xlink:href="#m8b8c2d566e" y="148.016562"/>
      </g>
     </g>
     <g id="text_4">
      <!-- 2 -->
      <g transform="translate(73.188831 159.615)scale(0.1 -0.1)">
       <use xlink:href="#DejaVuSans-32"/>
      </g>
     </g>
    </g>
    <g id="xtick_6">
     <g id="line2d_7">
      <defs>
       <path d="M 0 0 
L 0 -2 
" id="md0fb3b7835" style="stroke:#000000;stroke-width:0.5;"/>
      </defs>
      <g>
       <use style="stroke:#000000;stroke-width:0.5;" x="15.394402" xlink:href="#md0fb3b7835" y="148.016562"/>
      </g>
     </g>
    </g>
    <g id="xtick_7">
     <g id="line2d_8">
      <g>
       <use style="stroke:#000000;stroke-width:0.5;" x="18.603649" xlink:href="#md0fb3b7835" y="148.016562"/>
      </g>
     </g>
    </g>
    <g id="xtick_8">
     <g id="line2d_9">
      <g>
       <use style="stroke:#000000;stroke-width:0.5;" x="21.812895" xlink:href="#md0fb3b7835" y="148.016562"/>
      </g>
     </g>
    </g>
    <g id="xtick_9">
     <g id="line2d_10">
      <g>
       <use style="stroke:#000000;stroke-width:0.5;" x="25.022141" xlink:href="#md0fb3b7835" y="148.016562"/>
      </g>
     </g>
    </g>
    <g id="xtick_10">
     <g id="line2d_11">
      <g>
       <use style="stroke:#000000;stroke-width:0.5;" x="28.231387" xlink:href="#md0fb3b7835" y="148.016562"/>
      </g>
     </g>
    </g>
    <g id="xtick_11">
     <g id="line2d_12">
      <g>
       <use style="stroke:#000000;stroke-width:0.5;" x="31.440634" xlink:href="#md0fb3b7835" y="148.016562"/>
      </g>
     </g>
    </g>
    <g id="xtick_12">
     <g id="line2d_13">
      <g>
       <use style="stroke:#000000;stroke-width:0.5;" x="34.64988" xlink:href="#md0fb3b7835" y="148.016562"/>
      </g>
     </g>
    </g>
    <g id="xtick_13">
     <g id="line2d_14">
      <g>
       <use style="stroke:#000000;stroke-width:0.5;" x="37.859126" xlink:href="#md0fb3b7835" y="148.016562"/>
      </g>
     </g>
    </g>
    <g id="xtick_14">
     <g id="line2d_15">
      <g>
       <use style="stroke:#000000;stroke-width:0.5;" x="41.068372" xlink:href="#md0fb3b7835" y="148.016562"/>
      </g>
     </g>
    </g>
    <g id="xtick_15">
     <g id="line2d_16">
      <g>
       <use style="stroke:#000000;stroke-width:0.5;" x="44.277618" xlink:href="#md0fb3b7835" y="148.016562"/>
      </g>
     </g>
    </g>
    <g id="xtick_16">
     <g id="line2d_17">
      <g>
       <use style="stroke:#000000;stroke-width:0.5;" x="47.486865" xlink:href="#md0fb3b7835" y="148.016562"/>
      </g>
     </g>
    </g>
    <g id="xtick_17">
     <g id="line2d_18">
      <g>
       <use style="stroke:#000000;stroke-width:0.5;" x="50.696111" xlink:href="#md0fb3b7835" y="148.016562"/>
      </g>
     </g>
    </g>
    <g id="xtick_18">
     <g id="line2d_19">
      <g>
       <use style="stroke:#000000;stroke-width:0.5;" x="53.905357" xlink:href="#md0fb3b7835" y="148.016562"/>
      </g>
     </g>
    </g>
    <g id="xtick_19">
     <g id="line2d_20">
      <g>
       <use style="stroke:#000000;stroke-width:0.5;" x="57.114603" xlink:href="#md0fb3b7835" y="148.016562"/>
      </g>
     </g>
    </g>
    <g id="xtick_20">
     <g id="line2d_21">
      <g>
       <use style="stroke:#000000;stroke-width:0.5;" x="60.32385" xlink:href="#md0fb3b7835" y="148.016562"/>
      </g>
     </g>
    </g>
    <g id="xtick_21">
     <g id="line2d_22">
      <g>
       <use style="stroke:#000000;stroke-width:0.5;" x="63.533096" xlink:href="#md0fb3b7835" y="148.016562"/>
      </g>
     </g>
    </g>
    <g id="xtick_22">
     <g id="line2d_23">
      <g>
       <use style="stroke:#000000;stroke-width:0.5;" x="66.742342" xlink:href="#md0fb3b7835" y="148.016562"/>
      </g>
     </g>
    </g>
    <g id="xtick_23">
     <g id="line2d_24">
      <g>
       <use style="stroke:#000000;stroke-width:0.5;" x="69.951588" xlink:href="#md0fb3b7835" y="148.016562"/>
      </g>
     </g>
    </g>
    <g id="xtick_24">
     <g id="line2d_25">
      <g>
       <use style="stroke:#000000;stroke-width:0.5;" x="73.160834" xlink:href="#md0fb3b7835" y="148.016562"/>
      </g>
     </g>
    </g>
    <g id="xtick_25">
     <g id="line2d_26">
      <g>
       <use style="stroke:#000000;stroke-width:0.5;" x="76.370081" xlink:href="#md0fb3b7835" y="148.016562"/>
      </g>
     </g>
    </g>
    <g id="text_5">
     <!-- $x(t)$ -->
     <defs>
      <path d="M 7.8125 2.875 
Q 9.578125 1.515625 12.796875 1.515625 
Q 15.921875 1.515625 18.3125 4.515625 
Q 20.703125 7.515625 21.578125 11.078125 
L 26.125 28.8125 
Q 27.203125 33.640625 27.203125 35.40625 
Q 27.203125 37.890625 25.8125 39.75 
Q 24.421875 41.609375 21.921875 41.609375 
Q 18.75 41.609375 15.96875 39.625 
Q 13.1875 37.640625 11.28125 34.59375 
Q 9.375 31.546875 8.59375 28.421875 
Q 8.40625 27.78125 7.8125 27.78125 
L 6.59375 27.78125 
Q 5.8125 27.78125 5.8125 28.71875 
L 5.8125 29 
Q 6.78125 32.71875 9.125 36.25 
Q 11.46875 39.796875 14.859375 41.984375 
Q 18.265625 44.1875 22.125 44.1875 
Q 25.78125 44.1875 28.734375 42.234375 
Q 31.6875 40.28125 32.90625 36.921875 
Q 34.625 39.984375 37.28125 42.078125 
Q 39.9375 44.1875 43.109375 44.1875 
Q 45.265625 44.1875 47.5 43.421875 
Q 49.75 42.671875 51.171875 41.109375 
Q 52.59375 39.546875 52.59375 37.203125 
Q 52.59375 34.671875 50.953125 32.828125 
Q 49.3125 31 46.78125 31 
Q 45.171875 31 44.09375 32.03125 
Q 43.015625 33.0625 43.015625 34.625 
Q 43.015625 36.71875 44.453125 38.296875 
Q 45.90625 39.890625 47.90625 40.1875 
Q 46.09375 41.609375 42.921875 41.609375 
Q 39.703125 41.609375 37.328125 38.625 
Q 34.96875 35.640625 33.984375 31.984375 
L 29.59375 14.3125 
Q 28.515625 10.296875 28.515625 7.71875 
Q 28.515625 5.171875 29.953125 3.34375 
Q 31.390625 1.515625 33.796875 1.515625 
Q 38.484375 1.515625 42.15625 5.640625 
Q 45.84375 9.765625 47.015625 14.703125 
Q 47.21875 15.28125 47.796875 15.28125 
L 49.03125 15.28125 
Q 49.421875 15.28125 49.65625 15.015625 
Q 49.90625 14.75 49.90625 14.40625 
Q 49.90625 14.3125 49.8125 14.109375 
Q 48.390625 8.15625 43.84375 3.515625 
Q 39.3125 -1.125 33.59375 -1.125 
Q 29.9375 -1.125 26.984375 0.84375 
Q 24.03125 2.828125 22.796875 6.203125 
Q 21.234375 3.265625 18.46875 1.0625 
Q 15.71875 -1.125 12.59375 -1.125 
Q 10.453125 -1.125 8.171875 -0.359375 
Q 5.90625 0.390625 4.484375 1.953125 
Q 3.078125 3.515625 3.078125 5.90625 
Q 3.078125 8.25 4.703125 10.171875 
Q 6.34375 12.109375 8.796875 12.109375 
Q 10.453125 12.109375 11.578125 11.109375 
Q 12.703125 10.109375 12.703125 8.5 
Q 12.703125 6.390625 11.296875 4.828125 
Q 9.90625 3.265625 7.8125 2.875 
z
" id="Cmmi10-78"/>
      <path d="M 31 -24.8125 
Q 25.4375 -20.40625 21.40625 -14.71875 
Q 17.390625 -9.03125 14.8125 -2.578125 
Q 12.25 3.859375 10.984375 10.890625 
Q 9.71875 17.921875 9.71875 25 
Q 9.71875 32.171875 10.984375 39.203125 
Q 12.25 46.234375 14.859375 52.734375 
Q 17.484375 59.234375 21.53125 64.890625 
Q 25.59375 70.5625 31 74.8125 
Q 31 75 31.5 75 
L 32.421875 75 
Q 32.71875 75 32.953125 74.734375 
Q 33.203125 74.46875 33.203125 74.125 
Q 33.203125 73.6875 33.015625 73.484375 
Q 28.125 68.703125 24.875 63.234375 
Q 21.625 57.765625 19.640625 51.578125 
Q 17.671875 45.40625 16.796875 38.78125 
Q 15.921875 32.171875 15.921875 25 
Q 15.921875 -6.78125 32.90625 -23.296875 
Q 33.203125 -23.578125 33.203125 -24.125 
Q 33.203125 -24.359375 32.9375 -24.671875 
Q 32.671875 -25 32.421875 -25 
L 31.5 -25 
Q 31 -25 31 -24.8125 
z
" id="Cmr10-28"/>
      <path d="M 6.203125 8.109375 
Q 6.203125 9.578125 6.5 10.890625 
L 13.71875 39.59375 
L 3.21875 39.59375 
Q 2.203125 39.59375 2.203125 40.921875 
Q 2.59375 43.109375 3.515625 43.109375 
L 14.59375 43.109375 
L 18.609375 59.421875 
Q 19 60.75 20.171875 61.671875 
Q 21.34375 62.59375 22.796875 62.59375 
Q 24.078125 62.59375 24.921875 61.828125 
Q 25.78125 61.078125 25.78125 59.8125 
Q 25.78125 59.515625 25.75 59.34375 
Q 25.734375 59.1875 25.6875 58.984375 
L 21.6875 43.109375 
L 31.984375 43.109375 
Q 33.015625 43.109375 33.015625 41.796875 
Q 32.953125 41.546875 32.8125 40.953125 
Q 32.671875 40.375 32.421875 39.984375 
Q 32.171875 39.59375 31.6875 39.59375 
L 20.796875 39.59375 
L 13.625 10.6875 
Q 12.890625 7.859375 12.890625 5.8125 
Q 12.890625 1.515625 15.828125 1.515625 
Q 20.21875 1.515625 23.609375 5.640625 
Q 27 9.765625 28.8125 14.703125 
Q 29.203125 15.28125 29.59375 15.28125 
L 30.8125 15.28125 
Q 31.203125 15.28125 31.4375 15.015625 
Q 31.6875 14.75 31.6875 14.40625 
Q 31.6875 14.203125 31.59375 14.109375 
Q 29.390625 8.0625 25.1875 3.46875 
Q 21 -1.125 15.578125 -1.125 
Q 11.625 -1.125 8.90625 1.453125 
Q 6.203125 4.046875 6.203125 8.109375 
z
" id="Cmmi10-74"/>
      <path d="M 6.5 -25 
Q 5.609375 -25 5.609375 -24.125 
Q 5.609375 -23.6875 5.8125 -23.484375 
Q 22.90625 -6.78125 22.90625 25 
Q 22.90625 56.78125 6 73.296875 
Q 5.609375 73.53125 5.609375 74.125 
Q 5.609375 74.46875 5.875 74.734375 
Q 6.15625 75 6.5 75 
L 7.421875 75 
Q 7.71875 75 7.90625 74.8125 
Q 15.09375 69.140625 19.875 61.03125 
Q 24.65625 52.9375 26.875 43.75 
Q 29.109375 34.578125 29.109375 25 
Q 29.109375 17.921875 27.90625 11.0625 
Q 26.703125 4.203125 24.09375 -2.453125 
Q 21.484375 -9.125 17.484375 -14.765625 
Q 13.484375 -20.40625 7.90625 -24.8125 
Q 7.71875 -25 7.421875 -25 
z
" id="Cmr10-29"/>
     </defs>
     <g transform="translate(86.113929 148.016562)scale(0.16 -0.16)">
      <use xlink:href="#Cmmi10-78"/>
      <use transform="translate(57.080078 0)" xlink:href="#Cmr10-28"/>
      <use transform="translate(95.898438 0)" xlink:href="#Cmmi10-74"/>
      <use transform="translate(131.982422 0)" xlink:href="#Cmr10-29"/>
     </g>
    </g>
   </g>
   <g id="matplotlib.axis_2">
    <g id="ytick_1">
     <g id="line2d_27">
      <defs>
       <path d="M 0 0 
L 4 0 
" id="mf9fa8e261b" style="stroke:#000000;stroke-width:0.5;"/>
      </defs>
      <g>
       <use style="stroke:#000000;stroke-width:0.5;" x="44.277618" xlink:href="#mf9fa8e261b" y="244.293949"/>
      </g>
     </g>
     <g id="text_6">
      <!-- -6 -->
      <defs>
       <path d="M 33.015625 40.375 
Q 26.375 40.375 22.484375 35.828125 
Q 18.609375 31.296875 18.609375 23.390625 
Q 18.609375 15.53125 22.484375 10.953125 
Q 26.375 6.390625 33.015625 6.390625 
Q 39.65625 6.390625 43.53125 10.953125 
Q 47.40625 15.53125 47.40625 23.390625 
Q 47.40625 31.296875 43.53125 35.828125 
Q 39.65625 40.375 33.015625 40.375 
z
M 52.59375 71.296875 
L 52.59375 62.3125 
Q 48.875 64.0625 45.09375 64.984375 
Q 41.3125 65.921875 37.59375 65.921875 
Q 27.828125 65.921875 22.671875 59.328125 
Q 17.53125 52.734375 16.796875 39.40625 
Q 19.671875 43.65625 24.015625 45.921875 
Q 28.375 48.1875 33.59375 48.1875 
Q 44.578125 48.1875 50.953125 41.515625 
Q 57.328125 34.859375 57.328125 23.390625 
Q 57.328125 12.15625 50.6875 5.359375 
Q 44.046875 -1.421875 33.015625 -1.421875 
Q 20.359375 -1.421875 13.671875 8.265625 
Q 6.984375 17.96875 6.984375 36.375 
Q 6.984375 53.65625 15.1875 63.9375 
Q 23.390625 74.21875 37.203125 74.21875 
Q 40.921875 74.21875 44.703125 73.484375 
Q 48.484375 72.75 52.59375 71.296875 
z
" id="DejaVuSans-36"/>
      </defs>
      <g transform="translate(30.307306 247.053324)scale(0.1 -0.1)">
       <use xlink:href="#DejaVuSans-2d"/>
       <use x="36.083984" xlink:href="#DejaVuSans-36"/>
      </g>
     </g>
    </g>
    <g id="ytick_2">
     <g id="line2d_28">
      <g>
       <use style="stroke:#000000;stroke-width:0.5;" x="44.277618" xlink:href="#mf9fa8e261b" y="212.201487"/>
      </g>
     </g>
     <g id="text_7">
      <!-- -4 -->
      <defs>
       <path d="M 37.796875 64.3125 
L 12.890625 25.390625 
L 37.796875 25.390625 
z
M 35.203125 72.90625 
L 47.609375 72.90625 
L 47.609375 25.390625 
L 58.015625 25.390625 
L 58.015625 17.1875 
L 47.609375 17.1875 
L 47.609375 0 
L 37.796875 0 
L 37.796875 17.1875 
L 4.890625 17.1875 
L 4.890625 26.703125 
z
" id="DejaVuSans-34"/>
      </defs>
      <g transform="translate(30.307306 214.960862)scale(0.1 -0.1)">
       <use xlink:href="#DejaVuSans-2d"/>
       <use x="36.083984" xlink:href="#DejaVuSans-34"/>
      </g>
     </g>
    </g>
    <g id="ytick_3">
     <g id="line2d_29">
      <g>
       <use style="stroke:#000000;stroke-width:0.5;" x="44.277618" xlink:href="#mf9fa8e261b" y="180.109025"/>
      </g>
     </g>
     <g id="text_8">
      <!-- -2 -->
      <g transform="translate(30.307306 182.8684)scale(0.1 -0.1)">
       <use xlink:href="#DejaVuSans-2d"/>
       <use x="36.083984" xlink:href="#DejaVuSans-32"/>
      </g>
     </g>
    </g>
    <g id="ytick_4">
     <g id="line2d_30">
      <g>
       <use style="stroke:#000000;stroke-width:0.5;" x="44.277618" xlink:href="#mf9fa8e261b" y="148.016562"/>
      </g>
     </g>
    </g>
    <g id="ytick_5">
     <g id="line2d_31">
      <g>
       <use style="stroke:#000000;stroke-width:0.5;" x="44.277618" xlink:href="#mf9fa8e261b" y="115.9241"/>
      </g>
     </g>
     <g id="text_9">
      <!-- 2 -->
      <g transform="translate(33.915118 118.683475)scale(0.1 -0.1)">
       <use xlink:href="#DejaVuSans-32"/>
      </g>
     </g>
    </g>
    <g id="ytick_6">
     <g id="line2d_32">
      <g>
       <use style="stroke:#000000;stroke-width:0.5;" x="44.277618" xlink:href="#mf9fa8e261b" y="83.831638"/>
      </g>
     </g>
     <g id="text_10">
      <!-- 4 -->
      <g transform="translate(33.915118 86.591013)scale(0.1 -0.1)">
       <use xlink:href="#DejaVuSans-34"/>
      </g>
     </g>
    </g>
    <g id="ytick_7">
     <g id="line2d_33">
      <g>
       <use style="stroke:#000000;stroke-width:0.5;" x="44.277618" xlink:href="#mf9fa8e261b" y="51.739176"/>
      </g>
     </g>
     <g id="text_11">
      <!-- 6 -->
      <g transform="translate(33.915118 54.498551)scale(0.1 -0.1)">
       <use xlink:href="#DejaVuSans-36"/>
      </g>
     </g>
    </g>
    <g id="ytick_8">
     <g id="line2d_34">
      <defs>
       <path d="M 0 0 
L 2 0 
" id="mdd0116cb69" style="stroke:#000000;stroke-width:0.5;"/>
      </defs>
      <g>
       <use style="stroke:#000000;stroke-width:0.5;" x="44.277618" xlink:href="#mdd0116cb69" y="260.34018"/>
      </g>
     </g>
    </g>
    <g id="ytick_9">
     <g id="line2d_35">
      <g>
       <use style="stroke:#000000;stroke-width:0.5;" x="44.277618" xlink:href="#mdd0116cb69" y="252.317065"/>
      </g>
     </g>
    </g>
    <g id="ytick_10">
     <g id="line2d_36">
      <g>
       <use style="stroke:#000000;stroke-width:0.5;" x="44.277618" xlink:href="#mdd0116cb69" y="236.270834"/>
      </g>
     </g>
    </g>
    <g id="ytick_11">
     <g id="line2d_37">
      <g>
       <use style="stroke:#000000;stroke-width:0.5;" x="44.277618" xlink:href="#mdd0116cb69" y="228.247718"/>
      </g>
     </g>
    </g>
    <g id="ytick_12">
     <g id="line2d_38">
      <g>
       <use style="stroke:#000000;stroke-width:0.5;" x="44.277618" xlink:href="#mdd0116cb69" y="220.224603"/>
      </g>
     </g>
    </g>
    <g id="ytick_13">
     <g id="line2d_39">
      <g>
       <use style="stroke:#000000;stroke-width:0.5;" x="44.277618" xlink:href="#mdd0116cb69" y="204.178371"/>
      </g>
     </g>
    </g>
    <g id="ytick_14">
     <g id="line2d_40">
      <g>
       <use style="stroke:#000000;stroke-width:0.5;" x="44.277618" xlink:href="#mdd0116cb69" y="196.155256"/>
      </g>
     </g>
    </g>
    <g id="ytick_15">
     <g id="line2d_41">
      <g>
       <use style="stroke:#000000;stroke-width:0.5;" x="44.277618" xlink:href="#mdd0116cb69" y="188.13214"/>
      </g>
     </g>
    </g>
    <g id="ytick_16">
     <g id="line2d_42">
      <g>
       <use style="stroke:#000000;stroke-width:0.5;" x="44.277618" xlink:href="#mdd0116cb69" y="172.085909"/>
      </g>
     </g>
    </g>
    <g id="ytick_17">
     <g id="line2d_43">
      <g>
       <use style="stroke:#000000;stroke-width:0.5;" x="44.277618" xlink:href="#mdd0116cb69" y="164.062794"/>
      </g>
     </g>
    </g>
    <g id="ytick_18">
     <g id="line2d_44">
      <g>
       <use style="stroke:#000000;stroke-width:0.5;" x="44.277618" xlink:href="#mdd0116cb69" y="156.039678"/>
      </g>
     </g>
    </g>
    <g id="ytick_19">
     <g id="line2d_45">
      <g>
       <use style="stroke:#000000;stroke-width:0.5;" x="44.277618" xlink:href="#mdd0116cb69" y="139.993447"/>
      </g>
     </g>
    </g>
    <g id="ytick_20">
     <g id="line2d_46">
      <g>
       <use style="stroke:#000000;stroke-width:0.5;" x="44.277618" xlink:href="#mdd0116cb69" y="131.970331"/>
      </g>
     </g>
    </g>
    <g id="ytick_21">
     <g id="line2d_47">
      <g>
       <use style="stroke:#000000;stroke-width:0.5;" x="44.277618" xlink:href="#mdd0116cb69" y="123.947216"/>
      </g>
     </g>
    </g>
    <g id="ytick_22">
     <g id="line2d_48">
      <g>
       <use style="stroke:#000000;stroke-width:0.5;" x="44.277618" xlink:href="#mdd0116cb69" y="107.900985"/>
      </g>
     </g>
    </g>
    <g id="ytick_23">
     <g id="line2d_49">
      <g>
       <use style="stroke:#000000;stroke-width:0.5;" x="44.277618" xlink:href="#mdd0116cb69" y="99.877869"/>
      </g>
     </g>
    </g>
    <g id="ytick_24">
     <g id="line2d_50">
      <g>
       <use style="stroke:#000000;stroke-width:0.5;" x="44.277618" xlink:href="#mdd0116cb69" y="91.854754"/>
      </g>
     </g>
    </g>
    <g id="ytick_25">
     <g id="line2d_51">
      <g>
       <use style="stroke:#000000;stroke-width:0.5;" x="44.277618" xlink:href="#mdd0116cb69" y="75.808522"/>
      </g>
     </g>
    </g>
    <g id="ytick_26">
     <g id="line2d_52">
      <g>
       <use style="stroke:#000000;stroke-width:0.5;" x="44.277618" xlink:href="#mdd0116cb69" y="67.785407"/>
      </g>
     </g>
    </g>
    <g id="ytick_27">
     <g id="line2d_53">
      <g>
       <use style="stroke:#000000;stroke-width:0.5;" x="44.277618" xlink:href="#mdd0116cb69" y="59.762291"/>
      </g>
     </g>
    </g>
    <g id="ytick_28">
     <g id="line2d_54">
      <g>
       <use style="stroke:#000000;stroke-width:0.5;" x="44.277618" xlink:href="#mdd0116cb69" y="43.71606"/>
      </g>
     </g>
    </g>
    <g id="ytick_29">
     <g id="line2d_55">
      <g>
       <use style="stroke:#000000;stroke-width:0.5;" x="44.277618" xlink:href="#mdd0116cb69" y="35.692945"/>
      </g>
     </g>
    </g>
    <g id="text_12">
     <!-- $v(t)$ -->
     <defs>
      <path d="M 10.6875 11.28125 
Q 10.6875 13.53125 11.21875 16.203125 
Q 11.765625 18.890625 12.296875 20.625 
Q 12.84375 22.359375 14.75 27.390625 
Q 16.65625 32.421875 16.703125 32.625 
Q 18.015625 36.28125 18.015625 38.625 
Q 18.015625 41.609375 15.828125 41.609375 
Q 11.859375 41.609375 9.296875 37.53125 
Q 6.734375 33.453125 5.515625 28.421875 
Q 5.328125 27.78125 4.6875 27.78125 
L 3.515625 27.78125 
Q 2.6875 27.78125 2.6875 28.71875 
L 2.6875 29 
Q 4.296875 34.96875 7.609375 39.578125 
Q 10.9375 44.1875 16.015625 44.1875 
Q 19.578125 44.1875 22.046875 41.84375 
Q 24.515625 39.5 24.515625 35.890625 
Q 24.515625 34.03125 23.6875 31.984375 
Q 21.734375 26.90625 20.609375 23.84375 
Q 19.484375 20.796875 18.53125 17.015625 
Q 17.578125 13.234375 17.578125 10.015625 
Q 17.578125 6.25 19.3125 3.875 
Q 21.046875 1.515625 24.703125 1.515625 
Q 31.640625 1.515625 37.203125 12.203125 
Q 38.96875 15.671875 40.53125 20.359375 
Q 42.09375 25.046875 42.09375 27.984375 
Q 42.09375 31 41.109375 32.6875 
Q 40.140625 34.375 38.578125 36.203125 
Q 37.015625 38.03125 37.015625 39.109375 
Q 37.015625 41.0625 38.625 42.671875 
Q 40.234375 44.28125 42.1875 44.28125 
Q 44.578125 44.28125 45.625 42.078125 
Q 46.6875 39.890625 46.6875 37.109375 
Q 46.6875 33.796875 45.734375 29.203125 
Q 44.78125 24.609375 43.09375 19.671875 
Q 41.40625 14.75 39.984375 11.921875 
Q 33.40625 -1.125 24.609375 -1.125 
Q 18.3125 -1.125 14.5 2.015625 
Q 10.6875 5.171875 10.6875 11.28125 
z
" id="Cmmi10-76"/>
     </defs>
     <g transform="translate(31.237618 19.2)scale(0.16 -0.16)">
      <use xlink:href="#Cmmi10-76"/>
      <use transform="translate(48.388672 0)" xlink:href="#Cmr10-28"/>
      <use transform="translate(87.207031 0)" xlink:href="#Cmmi10-74"/>
      <use transform="translate(123.291016 0)" xlink:href="#Cmr10-29"/>
     </g>
    </g>
   </g>
  </g>
 </g>
 <defs>
  <clipPath id="p57584e7545">
   <rect height="233.633125" width="67.672296" x="10.441633" y="31.2"/>
  </clipPath>
 </defs>
</svg>
