<?xml version="1.0" encoding="utf-8" standalone="no"?>
<!DOCTYPE svg PUBLIC "-//W3C//DTD SVG 1.1//EN"
  "http://www.w3.org/Graphics/SVG/1.1/DTD/svg11.dtd">
<!-- Created with matplotlib (http://matplotlib.org/) -->
<svg height="420pt" version="1.1" viewBox="0 0 562 420" width="562pt" xmlns="http://www.w3.org/2000/svg" xmlns:xlink="http://www.w3.org/1999/xlink">
 <defs>
  <style type="text/css">
*{stroke-linecap:butt;stroke-linejoin:round;stroke-miterlimit:100000;}
  </style>
 </defs>
 <g id="figure_1">
  <g id="patch_1">
   <path d="M 0 420.48 
L 562.016642 420.48 
L 562.016642 0 
L 0 0 
z
" style="fill:#ffffff;"/>
  </g>
  <g id="axes_1">
   <g id="patch_2">
    <path d="M 13.034527 413.28 
L 539.786642 413.28 
L 539.786642 7.2 
L 13.034527 7.2 
z
" style="fill:#ffffff;"/>
   </g>
   <g id="line2d_1">
    <path clip-path="url(#p4a15cc5a5c)" d="M 23.164375 212.499851 
L 24.804028 211.193363 
L 26.03584 210.40684 
L 27.267651 209.77088 
L 29.038232 209.093299 
L 30.808814 208.662207 
L 32.542752 208.447948 
L 35.007203 208.44545 
L 37.149351 208.685747 
L 39.2915 209.112745 
L 43.49666 210.376943 
L 48.011046 212.186469 
L 54.02218 215.037464 
L 64.976806 220.745852 
L 72.954949 224.883012 
L 78.726535 227.740413 
L 87.422729 231.745412 
L 94.257693 234.609666 
L 99.497505 236.631464 
L 106.421803 239.075477 
L 114.075113 241.488257 
L 119.270937 242.964008 
L 126.694883 244.861891 
L 135.434827 246.806681 
L 143.359139 248.328764 
L 152.171179 249.784965 
L 162.377273 251.202555 
L 172.582357 252.375188 
L 182.625621 253.329134 
L 195.324408 254.301898 
L 210.627416 255.199297 
L 225.731741 255.85965 
L 246.607127 256.505143 
L 270.557791 256.984202 
L 297.542636 257.312557 
L 337.745457 257.568819 
L 403.048898 257.722312 
L 529.656794 257.77592 
L 529.656794 257.77592 
" style="fill:none;stroke:#0000ff;stroke-linecap:square;"/>
   </g>
   <g id="line2d_2">
    <path clip-path="url(#p4a15cc5a5c)" d="M 23.164375 212.499851 
L 25.006511 223.254181 
L 26.848647 232.590772 
L 28.820652 241.213926 
L 30.271968 246.761821 
L 31.788995 251.918112 
L 33.669709 257.497807 
L 35.848398 262.97605 
L 37.76113 267.028941 
L 39.420791 270.04575 
L 41.093338 272.671164 
L 41.929612 273.842477 
L 43.536532 275.853215 
L 45.154755 277.588271 
L 46.772977 279.064085 
L 49.253861 280.886987 
L 50.430418 281.587507 
L 51.960807 282.359362 
L 53.491196 282.988897 
L 56.526387 283.873643 
L 59.642503 284.364064 
L 61.324919 284.484058 
L 63.916559 284.504069 
L 67.904119 284.218426 
L 71.283733 283.745734 
L 73.952434 283.259827 
L 80.921002 281.672484 
L 90.719827 279.0407 
L 105.938027 274.859332 
L 115.013357 272.560795 
L 124.203216 270.45664 
L 134.027574 268.472555 
L 142.694831 266.944835 
L 153.373062 265.328994 
L 163.954403 263.987689 
L 175.066346 262.820483 
L 188.65271 261.675352 
L 203.102199 260.733297 
L 217.108615 260.033606 
L 233.957132 259.404765 
L 255.301307 258.851249 
L 279.15327 258.451403 
L 312.813359 258.126702 
L 360.86982 257.914915 
L 445.194293 257.806132 
L 529.656794 257.785513 
L 529.656794 257.785513 
" style="fill:none;stroke:#ff0000;stroke-linecap:square;"/>
   </g>
   <g id="line2d_3">
    <path clip-path="url(#p4a15cc5a5c)" d="M 23.164375 167.218985 
L 24.317908 165.338416 
L 25.47144 163.7991 
L 26.505039 162.683549 
L 27.538638 161.795374 
L 28.410311 161.208745 
L 29.281983 160.759215 
L 31.025329 160.231763 
L 32.538439 160.129533 
L 33.656005 160.239878 
L 34.773571 160.490944 
L 36.987107 161.350015 
L 39.200643 162.611945 
L 40.661501 163.625934 
L 42.666609 165.210044 
L 45.115947 167.388387 
L 49.619487 171.883966 
L 52.697199 175.185319 
L 68.977146 193.105593 
L 73.496664 197.786491 
L 78.308885 202.520942 
L 85.863587 209.384859 
L 90.713448 213.415392 
L 93.217529 215.382466 
L 99.783575 220.182614 
L 103.766779 222.851799 
L 109.725245 226.522534 
L 115.237074 229.596203 
L 120.668553 232.345378 
L 123.904753 233.860428 
L 130.211349 236.56889 
L 135.18336 238.49397 
L 141.621525 240.737236 
L 149.452818 243.125906 
L 155.587349 244.765775 
L 164.284741 246.786631 
L 172.08943 248.335393 
L 181.116912 249.859986 
L 187.728058 250.819672 
L 199.025516 252.200427 
L 210.140789 253.293068 
L 221.847137 254.214524 
L 233.566929 254.948288 
L 248.881976 255.685225 
L 266.673003 256.304636 
L 287.33412 256.798409 
L 313.059812 257.189296 
L 348.950035 257.489421 
L 400.647504 257.675723 
L 498.653895 257.765551 
L 529.656794 257.772494 
L 529.656794 257.772494 
" style="fill:none;stroke:#0000ff;stroke-linecap:square;"/>
   </g>
   <g id="line2d_4">
    <path clip-path="url(#p4a15cc5a5c)" d="M 23.164375 167.218985 
L 25.062885 192.31517 
L 26.961396 213.672742 
L 28.452387 228.161975 
L 29.945652 240.900052 
L 31.388367 251.704848 
L 32.831081 261.192661 
L 34.566434 271.058052 
L 36.157096 278.790736 
L 37.675412 285.142339 
L 39.193727 290.603694 
L 41.16495 296.529809 
L 42.416486 299.690242 
L 43.668023 302.435713 
L 44.975555 304.903654 
L 47.031452 308.052632 
L 47.779817 309.000281 
L 49.028205 310.369904 
L 50.276592 311.497778 
L 51.697696 312.51749 
L 53.118799 313.286041 
L 55.048906 313.977853 
L 56.979013 314.320488 
L 58.307131 314.381755 
L 60.942676 314.148901 
L 62.250104 313.884159 
L 65.192416 312.995954 
L 67.90145 311.891717 
L 71.86753 309.918631 
L 77.825999 306.460665 
L 86.51083 300.997149 
L 96.510139 294.792829 
L 105.192665 289.813071 
L 112.663188 285.926304 
L 118.335394 283.234095 
L 123.868369 280.820744 
L 130.28666 278.274314 
L 136.826213 275.943119 
L 143.520536 273.811461 
L 149.166869 272.197555 
L 157.308181 270.13874 
L 165.498214 268.352706 
L 174.282425 266.714111 
L 181.591234 265.541036 
L 191.262536 264.217312 
L 200.221984 263.189972 
L 213.822177 261.931217 
L 226.85697 260.998006 
L 241.377694 260.201527 
L 259.749448 259.468536 
L 280.879526 258.894605 
L 302.164887 258.513187 
L 334.910085 258.164808 
L 378.975602 257.94173 
L 454.730329 257.816812 
L 529.656794 257.78894 
L 529.656794 257.78894 
" style="fill:none;stroke:#ff0000;stroke-linecap:square;"/>
   </g>
   <g id="line2d_5">
    <path clip-path="url(#p4a15cc5a5c)" d="M 23.164375 121.938119 
L 23.633068 120.728894 
L 24.101761 119.612778 
L 25.643661 116.552907 
L 26.85269 114.75169 
L 28.044366 113.434382 
L 28.631528 112.938299 
L 29.805851 112.223427 
L 30.721588 111.902599 
L 31.637325 111.770859 
L 32.553061 111.812775 
L 33.468798 112.014003 
L 34.619715 112.472423 
L 35.770632 113.137151 
L 36.967509 114.023406 
L 38.164386 115.086056 
L 39.636774 116.605002 
L 41.109163 118.325353 
L 44.352431 122.679384 
L 48.315968 128.743611 
L 52.524596 135.699346 
L 66.156355 158.802127 
L 70.343621 165.538309 
L 74.165519 171.427412 
L 78.035306 177.112403 
L 81.305775 181.689051 
L 86.477839 188.493797 
L 88.95091 191.560984 
L 93.56928 196.972483 
L 96.315268 199.999773 
L 99.480095 203.318786 
L 105.216526 208.891057 
L 109.692483 212.864137 
L 114.599699 216.868607 
L 118.725008 219.969451 
L 123.824677 223.491647 
L 130.763934 227.779075 
L 136.608371 230.9819 
L 142.631387 233.932833 
L 148.785657 236.618766 
L 154.90902 238.995557 
L 161.923002 241.396126 
L 168.128575 243.265838 
L 175.437795 245.198917 
L 181.380122 246.580722 
L 190.520865 248.417925 
L 197.581313 249.629248 
L 206.907986 250.99369 
L 217.982719 252.32161 
L 230.280046 253.494914 
L 241.781922 254.363515 
L 254.914562 255.142573 
L 269.789977 255.813058 
L 289.305054 256.441641 
L 313.399891 256.948274 
L 342.852527 257.315215 
L 385.026512 257.578239 
L 450.802901 257.725456 
L 529.656794 257.769068 
L 529.656794 257.769068 
" style="fill:none;stroke:#0000ff;stroke-linecap:square;"/>
   </g>
   <g id="line2d_6">
    <path clip-path="url(#p4a15cc5a5c)" d="M 23.164375 121.938119 
L 24.912875 158.207634 
L 26.647683 189.122146 
L 28.183648 212.802286 
L 29.726501 233.517142 
L 31.27165 251.534116 
L 32.698048 266.017078 
L 34.316443 280.2387 
L 35.934837 292.385618 
L 37.501697 302.408462 
L 38.707354 309.087472 
L 40.142809 315.993863 
L 41.722085 322.421168 
L 43.39212 328.043367 
L 45.009091 332.480716 
L 46.82553 336.440412 
L 47.833484 338.224596 
L 48.841437 339.744278 
L 49.849391 341.021215 
L 50.990304 342.198958 
L 52.38478 343.289882 
L 53.779255 344.038787 
L 55.382643 344.528483 
L 57.633948 344.64271 
L 59.283492 344.367236 
L 60.933036 343.836818 
L 63.386809 342.655967 
L 65.876421 341.073936 
L 68.057342 339.441606 
L 70.923925 337.033613 
L 73.796853 334.406105 
L 81.000128 327.326233 
L 89.50508 318.830723 
L 96.597637 312.080026 
L 102.05143 307.220569 
L 105.895286 303.991783 
L 113.067292 298.417935 
L 118.260303 294.746233 
L 121.741155 292.451257 
L 127.250376 289.080018 
L 131.389705 286.747535 
L 138.1921 283.262743 
L 144.204775 280.515368 
L 151.2694 277.648003 
L 158.1059 275.206513 
L 164.168126 273.286671 
L 169.541089 271.758396 
L 178.785779 269.46632 
L 186.404805 267.858076 
L 193.461319 266.563987 
L 200.703223 265.406485 
L 210.170053 264.118078 
L 219.789159 263.029981 
L 231.813481 261.927101 
L 245.066573 260.976725 
L 258.9513 260.213003 
L 275.958719 259.520924 
L 292.806321 259.029353 
L 316.663583 258.56082 
L 345.321737 258.22394 
L 389.188064 257.967201 
L 457.272007 257.82935 
L 529.656794 257.792366 
L 529.656794 257.792366 
" style="fill:none;stroke:#ff0000;stroke-linecap:square;"/>
   </g>
   <g id="line2d_7">
    <path clip-path="url(#p4a15cc5a5c)" d="M 23.164375 76.657253 
L 23.763302 74.621257 
L 24.362229 72.789613 
L 25.560084 69.698042 
L 26.351132 68.0437 
L 27.685756 65.885313 
L 28.772908 64.660482 
L 29.860059 63.866014 
L 30.403635 63.617192 
L 31.490787 63.39234 
L 32.429938 63.468258 
L 33.369089 63.772022 
L 34.247458 64.244757 
L 35.125826 64.884383 
L 36.882564 66.609181 
L 38.686394 68.911613 
L 40.400095 71.512391 
L 43.377148 76.782528 
L 45.624293 81.238641 
L 48.577569 87.527203 
L 52.998629 97.48875 
L 64.17213 123.119647 
L 69.187104 134.083935 
L 75.474135 146.999235 
L 79.401626 154.542682 
L 84.677369 164.016021 
L 88.276098 170.045378 
L 92.538341 176.742863 
L 94.699874 179.96061 
L 99.743444 187.019083 
L 103.709128 192.146542 
L 108.494396 197.868275 
L 111.870435 201.616372 
L 117.038744 206.92248 
L 119.660122 209.425767 
L 124.598781 213.821736 
L 129.234193 217.592732 
L 135.321337 222.068163 
L 138.982642 224.520865 
L 144.212373 227.73966 
L 150.374217 231.140224 
L 154.608778 233.254026 
L 161.302737 236.262178 
L 165.509763 237.962737 
L 169.735864 239.536855 
L 174.775637 241.252657 
L 181.868744 243.39942 
L 187.742477 244.965648 
L 196.481988 246.987453 
L 205.291751 248.70408 
L 216.360499 250.480481 
L 226.596148 251.812961 
L 237.007277 252.919563 
L 246.938259 253.783656 
L 260.981146 254.750298 
L 274.547358 255.46169 
L 290.165838 256.07662 
L 309.895674 256.626153 
L 333.002871 257.048972 
L 366.073886 257.39978 
L 413.002972 257.629883 
L 491.345401 257.748597 
L 529.656794 257.765642 
L 529.656794 257.765642 
" style="fill:none;stroke:#0000ff;stroke-linecap:square;"/>
   </g>
   <g id="line2d_8">
    <path clip-path="url(#p4a15cc5a5c)" d="M 23.164375 76.657253 
L 24.895763 125.493227 
L 26.448664 163.378378 
L 27.990871 196.134966 
L 29.424996 222.739757 
L 30.859121 246.042898 
L 32.664604 271.238239 
L 34.256554 290.090866 
L 35.798719 305.72524 
L 37.191532 317.879796 
L 38.618266 328.613167 
L 40.146765 338.400346 
L 41.772874 347.098866 
L 43.212081 353.500159 
L 44.095211 356.888189 
L 45.861473 362.565674 
L 46.744603 364.907357 
L 47.708197 367.121522 
L 49.292495 370.060936 
L 50.533904 371.818183 
L 51.881158 373.244922 
L 52.607709 373.826271 
L 53.436908 374.342159 
L 54.266107 374.711626 
L 55.095307 374.945344 
L 55.924506 375.053304 
L 57.234536 374.990096 
L 58.544567 374.669997 
L 60.288107 373.897545 
L 62.031648 372.787278 
L 64.628529 370.624464 
L 67.132877 368.087174 
L 69.436561 365.459363 
L 73.152943 360.8072 
L 79.089894 352.799596 
L 89.582454 338.453962 
L 94.362782 332.227026 
L 98.925259 326.573235 
L 104.037226 320.615176 
L 110.335169 313.84759 
L 111.984611 312.179978 
L 118.165205 306.309927 
L 123.427995 301.766025 
L 127.074187 298.85034 
L 129.702505 296.861109 
L 134.72774 293.307046 
L 140.457918 289.628659 
L 145.574905 286.654403 
L 150.957443 283.815286 
L 155.806802 281.490552 
L 160.026166 279.633233 
L 164.498076 277.819888 
L 173.133674 274.72579 
L 179.780855 272.668724 
L 188.682964 270.294922 
L 196.53609 268.513984 
L 204.542625 266.95678 
L 210.629561 265.924824 
L 220.55539 264.483596 
L 232.768455 263.053743 
L 241.521529 262.219952 
L 254.124016 261.244889 
L 266.972174 260.470461 
L 283.00524 259.741801 
L 301.441181 259.144139 
L 322.907386 258.673479 
L 350.600951 258.297621 
L 386.68369 258.034295 
L 445.018957 257.86088 
L 529.656794 257.795792 
L 529.656794 257.795792 
" style="fill:none;stroke:#ff0000;stroke-linecap:square;"/>
   </g>
   <g id="line2d_9">
    <path clip-path="url(#p4a15cc5a5c)" d="M 23.164375 31.376387 
L 23.832548 28.555788 
L 24.500721 26.054794 
L 25.837066 21.939263 
L 26.568042 20.149137 
L 27.730742 17.911405 
L 28.162466 17.258133 
L 29.025915 16.219268 
L 29.889365 15.514424 
L 30.752814 15.117766 
L 31.711993 15.009231 
L 32.671173 15.220643 
L 33.755495 15.809358 
L 34.839817 16.733033 
L 35.823717 17.832019 
L 36.807617 19.154643 
L 38.775416 22.385113 
L 41.155483 27.153248 
L 43.557761 32.703749 
L 45.550988 37.733013 
L 49.898045 49.588884 
L 55.963566 67.104368 
L 63.239981 88.093604 
L 68.250453 101.94863 
L 73.236167 115.014166 
L 77.40539 125.314341 
L 81.576241 135.020769 
L 85.824958 144.288972 
L 88.25147 149.304947 
L 93.088363 158.717893 
L 97.868621 167.283332 
L 100.681028 171.996279 
L 103.951998 177.187628 
L 108.70586 184.204353 
L 113.36085 190.506528 
L 115.043007 192.653463 
L 120.78072 199.489028 
L 124.003304 203.016922 
L 128.834972 207.919116 
L 133.623764 212.352907 
L 136.546004 214.865834 
L 139.857853 217.548731 
L 144.382113 220.94844 
L 147.554124 223.161333 
L 152.660649 226.450891 
L 157.722872 229.406212 
L 163.221015 232.303662 
L 169.118221 235.085715 
L 174.954731 237.541749 
L 180.898574 239.771442 
L 188.361245 242.227984 
L 192.561303 243.460728 
L 200.509659 245.533437 
L 207.871451 247.185388 
L 216.466662 248.835058 
L 223.480047 249.989347 
L 234.139673 251.465495 
L 241.992617 252.371167 
L 253.762556 253.491554 
L 266.722627 254.459014 
L 280.152474 255.23214 
L 295.795327 255.908968 
L 315.541825 256.51306 
L 338.73663 256.978721 
L 368.042244 257.331008 
L 408.751589 257.579393 
L 475.209679 257.726509 
L 529.656794 257.762215 
L 529.656794 257.762215 
" style="fill:none;stroke:#0000ff;stroke-linecap:square;"/>
   </g>
   <g id="line2d_10">
    <path clip-path="url(#p4a15cc5a5c)" d="M 23.164375 31.376387 
L 24.806559 90.153043 
L 26.448743 140.948521 
L 28.088806 184.697359 
L 29.756665 222.923591 
L 31.25156 252.469724 
L 32.700617 277.35422 
L 34.134394 298.744978 
L 35.542182 316.965484 
L 37.164878 334.939381 
L 38.884931 350.883391 
L 40.213062 361.271244 
L 41.541192 370.175439 
L 42.861416 377.710836 
L 44.445228 385.213754 
L 46.029039 391.240125 
L 47.084914 394.530998 
L 48.478006 398.08116 
L 49.871099 400.825706 
L 50.815967 402.276478 
L 51.760834 403.42621 
L 52.60279 404.217042 
L 53.444745 404.804514 
L 54.419463 405.250438 
L 55.39418 405.465808 
L 56.368898 405.470769 
L 57.649835 405.188431 
L 58.558943 404.808306 
L 60.37716 403.655438 
L 61.286269 402.905292 
L 62.639437 401.602535 
L 65.117518 398.728418 
L 67.595599 395.354996 
L 70.48965 390.955819 
L 73.255408 386.433169 
L 82.97433 369.533413 
L 89.422384 358.422488 
L 94.556664 349.984353 
L 98.649134 343.598158 
L 103.482522 336.484425 
L 108.763904 329.261231 
L 113.900355 322.785613 
L 119.369117 316.467984 
L 123.741174 311.825472 
L 130.703736 305.132045 
L 131.654061 304.281513 
L 136.522662 300.147241 
L 142.051078 295.879457 
L 147.366865 292.16891 
L 152.491292 288.925362 
L 158.334703 285.590165 
L 163.27668 283.044507 
L 168.347778 280.670425 
L 173.050812 278.665652 
L 178.477233 276.566989 
L 183.830042 274.701256 
L 190.280907 272.695009 
L 198.462891 270.486236 
L 206.889865 268.550562 
L 214.600014 267.037642 
L 223.771173 265.511041 
L 230.716025 264.524236 
L 239.665511 263.435427 
L 252.076634 262.209497 
L 264.197045 261.268759 
L 277.051962 260.488055 
L 294.840345 259.68708 
L 313.289549 259.105516 
L 336.504992 258.618639 
L 365.750236 258.25118 
L 407.359525 257.987639 
L 470.709041 257.839962 
L 529.656794 257.799218 
L 529.656794 257.799218 
" style="fill:none;stroke:#ff0000;stroke-linecap:square;"/>
   </g>
   <g id="patch_3">
    <path d="M 13.034527 257.780717 
L 539.786642 257.780717 
" style="fill:none;stroke:#000000;stroke-linecap:square;stroke-linejoin:miter;stroke-width:0.8;"/>
   </g>
   <g id="patch_4">
    <path d="M 23.164375 413.28 
L 23.164375 7.2 
" style="fill:none;stroke:#000000;stroke-linecap:square;stroke-linejoin:miter;stroke-width:0.8;"/>
   </g>
   <g id="matplotlib.axis_1">
    <g id="xtick_1">
     <g id="line2d_11">
      <defs>
       <path d="M 0 0 
L 0 -4 
" id="m5acbe62ba7" style="stroke:#000000;stroke-width:0.5;"/>
      </defs>
      <g>
       <use style="stroke:#000000;stroke-width:0.5;" x="23.164375" xlink:href="#m5acbe62ba7" y="257.780716894"/>
      </g>
     </g>
    </g>
    <g id="xtick_2">
     <g id="line2d_12">
      <g>
       <use style="stroke:#000000;stroke-width:0.5;" x="124.462858728" xlink:href="#m5acbe62ba7" y="257.780716894"/>
      </g>
     </g>
     <g id="text_1">
      <!-- 2 -->
      <defs>
       <path d="M 19.1875 8.296875 
L 53.609375 8.296875 
L 53.609375 0 
L 7.328125 0 
L 7.328125 8.296875 
Q 12.9375 14.109375 22.625 23.890625 
Q 32.328125 33.6875 34.8125 36.53125 
Q 39.546875 41.84375 41.421875 45.53125 
Q 43.3125 49.21875 43.3125 52.78125 
Q 43.3125 58.59375 39.234375 62.25 
Q 35.15625 65.921875 28.609375 65.921875 
Q 23.96875 65.921875 18.8125 64.3125 
Q 13.671875 62.703125 7.8125 59.421875 
L 7.8125 69.390625 
Q 13.765625 71.78125 18.9375 73 
Q 24.125 74.21875 28.421875 74.21875 
Q 39.75 74.21875 46.484375 68.546875 
Q 53.21875 62.890625 53.21875 53.421875 
Q 53.21875 48.921875 51.53125 44.890625 
Q 49.859375 40.875 45.40625 35.40625 
Q 44.1875 33.984375 37.640625 27.21875 
Q 31.109375 20.453125 19.1875 8.296875 
" id="BitstreamVeraSans-Roman-32"/>
      </defs>
      <g transform="translate(120.645358728 270.898841894)scale(0.12 -0.12)">
       <use xlink:href="#BitstreamVeraSans-Roman-32"/>
      </g>
     </g>
    </g>
    <g id="xtick_3">
     <g id="line2d_13">
      <g>
       <use style="stroke:#000000;stroke-width:0.5;" x="225.761342456" xlink:href="#m5acbe62ba7" y="257.780716894"/>
      </g>
     </g>
     <g id="text_2">
      <!-- 4 -->
      <defs>
       <path d="M 37.796875 64.3125 
L 12.890625 25.390625 
L 37.796875 25.390625 
z
M 35.203125 72.90625 
L 47.609375 72.90625 
L 47.609375 25.390625 
L 58.015625 25.390625 
L 58.015625 17.1875 
L 47.609375 17.1875 
L 47.609375 0 
L 37.796875 0 
L 37.796875 17.1875 
L 4.890625 17.1875 
L 4.890625 26.703125 
z
" id="BitstreamVeraSans-Roman-34"/>
      </defs>
      <g transform="translate(221.943842456 270.898841894)scale(0.12 -0.12)">
       <use xlink:href="#BitstreamVeraSans-Roman-34"/>
      </g>
     </g>
    </g>
    <g id="xtick_4">
     <g id="line2d_14">
      <g>
       <use style="stroke:#000000;stroke-width:0.5;" x="327.059826183" xlink:href="#m5acbe62ba7" y="257.780716894"/>
      </g>
     </g>
     <g id="text_3">
      <!-- 6 -->
      <defs>
       <path d="M 33.015625 40.375 
Q 26.375 40.375 22.484375 35.828125 
Q 18.609375 31.296875 18.609375 23.390625 
Q 18.609375 15.53125 22.484375 10.953125 
Q 26.375 6.390625 33.015625 6.390625 
Q 39.65625 6.390625 43.53125 10.953125 
Q 47.40625 15.53125 47.40625 23.390625 
Q 47.40625 31.296875 43.53125 35.828125 
Q 39.65625 40.375 33.015625 40.375 
M 52.59375 71.296875 
L 52.59375 62.3125 
Q 48.875 64.0625 45.09375 64.984375 
Q 41.3125 65.921875 37.59375 65.921875 
Q 27.828125 65.921875 22.671875 59.328125 
Q 17.53125 52.734375 16.796875 39.40625 
Q 19.671875 43.65625 24.015625 45.921875 
Q 28.375 48.1875 33.59375 48.1875 
Q 44.578125 48.1875 50.953125 41.515625 
Q 57.328125 34.859375 57.328125 23.390625 
Q 57.328125 12.15625 50.6875 5.359375 
Q 44.046875 -1.421875 33.015625 -1.421875 
Q 20.359375 -1.421875 13.671875 8.265625 
Q 6.984375 17.96875 6.984375 36.375 
Q 6.984375 53.65625 15.1875 63.9375 
Q 23.390625 74.21875 37.203125 74.21875 
Q 40.921875 74.21875 44.703125 73.484375 
Q 48.484375 72.75 52.59375 71.296875 
" id="BitstreamVeraSans-Roman-36"/>
      </defs>
      <g transform="translate(323.242326183 270.898841894)scale(0.12 -0.12)">
       <use xlink:href="#BitstreamVeraSans-Roman-36"/>
      </g>
     </g>
    </g>
    <g id="xtick_5">
     <g id="line2d_15">
      <g>
       <use style="stroke:#000000;stroke-width:0.5;" x="428.358309911" xlink:href="#m5acbe62ba7" y="257.780716894"/>
      </g>
     </g>
     <g id="text_4">
      <!-- 8 -->
      <defs>
       <path d="M 31.78125 34.625 
Q 24.75 34.625 20.71875 30.859375 
Q 16.703125 27.09375 16.703125 20.515625 
Q 16.703125 13.921875 20.71875 10.15625 
Q 24.75 6.390625 31.78125 6.390625 
Q 38.8125 6.390625 42.859375 10.171875 
Q 46.921875 13.96875 46.921875 20.515625 
Q 46.921875 27.09375 42.890625 30.859375 
Q 38.875 34.625 31.78125 34.625 
M 21.921875 38.8125 
Q 15.578125 40.375 12.03125 44.71875 
Q 8.5 49.078125 8.5 55.328125 
Q 8.5 64.0625 14.71875 69.140625 
Q 20.953125 74.21875 31.78125 74.21875 
Q 42.671875 74.21875 48.875 69.140625 
Q 55.078125 64.0625 55.078125 55.328125 
Q 55.078125 49.078125 51.53125 44.71875 
Q 48 40.375 41.703125 38.8125 
Q 48.828125 37.15625 52.796875 32.3125 
Q 56.78125 27.484375 56.78125 20.515625 
Q 56.78125 9.90625 50.3125 4.234375 
Q 43.84375 -1.421875 31.78125 -1.421875 
Q 19.734375 -1.421875 13.25 4.234375 
Q 6.78125 9.90625 6.78125 20.515625 
Q 6.78125 27.484375 10.78125 32.3125 
Q 14.796875 37.15625 21.921875 38.8125 
M 18.3125 54.390625 
Q 18.3125 48.734375 21.84375 45.5625 
Q 25.390625 42.390625 31.78125 42.390625 
Q 38.140625 42.390625 41.71875 45.5625 
Q 45.3125 48.734375 45.3125 54.390625 
Q 45.3125 60.0625 41.71875 63.234375 
Q 38.140625 66.40625 31.78125 66.40625 
Q 25.390625 66.40625 21.84375 63.234375 
Q 18.3125 60.0625 18.3125 54.390625 
" id="BitstreamVeraSans-Roman-38"/>
      </defs>
      <g transform="translate(424.540809911 270.898841894)scale(0.12 -0.12)">
       <use xlink:href="#BitstreamVeraSans-Roman-38"/>
      </g>
     </g>
    </g>
    <g id="xtick_6">
     <g id="line2d_16">
      <g>
       <use style="stroke:#000000;stroke-width:0.5;" x="529.656793639" xlink:href="#m5acbe62ba7" y="257.780716894"/>
      </g>
     </g>
     <g id="text_5">
      <!-- 10 -->
      <defs>
       <path d="M 31.78125 66.40625 
Q 24.171875 66.40625 20.328125 58.90625 
Q 16.5 51.421875 16.5 36.375 
Q 16.5 21.390625 20.328125 13.890625 
Q 24.171875 6.390625 31.78125 6.390625 
Q 39.453125 6.390625 43.28125 13.890625 
Q 47.125 21.390625 47.125 36.375 
Q 47.125 51.421875 43.28125 58.90625 
Q 39.453125 66.40625 31.78125 66.40625 
M 31.78125 74.21875 
Q 44.046875 74.21875 50.515625 64.515625 
Q 56.984375 54.828125 56.984375 36.375 
Q 56.984375 17.96875 50.515625 8.265625 
Q 44.046875 -1.421875 31.78125 -1.421875 
Q 19.53125 -1.421875 13.0625 8.265625 
Q 6.59375 17.96875 6.59375 36.375 
Q 6.59375 54.828125 13.0625 64.515625 
Q 19.53125 74.21875 31.78125 74.21875 
" id="BitstreamVeraSans-Roman-30"/>
       <path d="M 12.40625 8.296875 
L 28.515625 8.296875 
L 28.515625 63.921875 
L 10.984375 60.40625 
L 10.984375 69.390625 
L 28.421875 72.90625 
L 38.28125 72.90625 
L 38.28125 8.296875 
L 54.390625 8.296875 
L 54.390625 0 
L 12.40625 0 
z
" id="BitstreamVeraSans-Roman-31"/>
      </defs>
      <g transform="translate(522.021793639 270.898841894)scale(0.12 -0.12)">
       <use xlink:href="#BitstreamVeraSans-Roman-31"/>
       <use x="63.623046875" xlink:href="#BitstreamVeraSans-Roman-30"/>
      </g>
     </g>
    </g>
    <g id="xtick_7">
     <g id="line2d_17">
      <defs>
       <path d="M 0 0 
L 0 -2 
" id="m556b626d9f" style="stroke:#000000;stroke-width:0.5;"/>
      </defs>
      <g>
       <use style="stroke:#000000;stroke-width:0.5;" x="48.488995932" xlink:href="#m556b626d9f" y="257.780716894"/>
      </g>
     </g>
    </g>
    <g id="xtick_8">
     <g id="line2d_18">
      <g>
       <use style="stroke:#000000;stroke-width:0.5;" x="73.8136168639" xlink:href="#m556b626d9f" y="257.780716894"/>
      </g>
     </g>
    </g>
    <g id="xtick_9">
     <g id="line2d_19">
      <g>
       <use style="stroke:#000000;stroke-width:0.5;" x="99.1382377959" xlink:href="#m556b626d9f" y="257.780716894"/>
      </g>
     </g>
    </g>
    <g id="xtick_10">
     <g id="line2d_20">
      <g>
       <use style="stroke:#000000;stroke-width:0.5;" x="149.78747966" xlink:href="#m556b626d9f" y="257.780716894"/>
      </g>
     </g>
    </g>
    <g id="xtick_11">
     <g id="line2d_21">
      <g>
       <use style="stroke:#000000;stroke-width:0.5;" x="175.112100592" xlink:href="#m556b626d9f" y="257.780716894"/>
      </g>
     </g>
    </g>
    <g id="xtick_12">
     <g id="line2d_22">
      <g>
       <use style="stroke:#000000;stroke-width:0.5;" x="200.436721524" xlink:href="#m556b626d9f" y="257.780716894"/>
      </g>
     </g>
    </g>
    <g id="xtick_13">
     <g id="line2d_23">
      <g>
       <use style="stroke:#000000;stroke-width:0.5;" x="251.085963388" xlink:href="#m556b626d9f" y="257.780716894"/>
      </g>
     </g>
    </g>
    <g id="xtick_14">
     <g id="line2d_24">
      <g>
       <use style="stroke:#000000;stroke-width:0.5;" x="276.41058432" xlink:href="#m556b626d9f" y="257.780716894"/>
      </g>
     </g>
    </g>
    <g id="xtick_15">
     <g id="line2d_25">
      <g>
       <use style="stroke:#000000;stroke-width:0.5;" x="301.735205251" xlink:href="#m556b626d9f" y="257.780716894"/>
      </g>
     </g>
    </g>
    <g id="xtick_16">
     <g id="line2d_26">
      <g>
       <use style="stroke:#000000;stroke-width:0.5;" x="352.384447115" xlink:href="#m556b626d9f" y="257.780716894"/>
      </g>
     </g>
    </g>
    <g id="xtick_17">
     <g id="line2d_27">
      <g>
       <use style="stroke:#000000;stroke-width:0.5;" x="377.709068047" xlink:href="#m556b626d9f" y="257.780716894"/>
      </g>
     </g>
    </g>
    <g id="xtick_18">
     <g id="line2d_28">
      <g>
       <use style="stroke:#000000;stroke-width:0.5;" x="403.033688979" xlink:href="#m556b626d9f" y="257.780716894"/>
      </g>
     </g>
    </g>
    <g id="xtick_19">
     <g id="line2d_29">
      <g>
       <use style="stroke:#000000;stroke-width:0.5;" x="453.682930843" xlink:href="#m556b626d9f" y="257.780716894"/>
      </g>
     </g>
    </g>
    <g id="xtick_20">
     <g id="line2d_30">
      <g>
       <use style="stroke:#000000;stroke-width:0.5;" x="479.007551775" xlink:href="#m556b626d9f" y="257.780716894"/>
      </g>
     </g>
    </g>
    <g id="xtick_21">
     <g id="line2d_31">
      <g>
       <use style="stroke:#000000;stroke-width:0.5;" x="504.332172707" xlink:href="#m556b626d9f" y="257.780716894"/>
      </g>
     </g>
    </g>
    <g id="text_6">
     <!-- $t$ -->
     <defs>
      <path d="M 6.203125 8.109375 
Q 6.203125 9.578125 6.5 10.890625 
L 13.71875 39.59375 
L 3.21875 39.59375 
Q 2.203125 39.59375 2.203125 40.921875 
Q 2.59375 43.109375 3.515625 43.109375 
L 14.59375 43.109375 
L 18.609375 59.421875 
Q 19 60.75 20.171875 61.671875 
Q 21.34375 62.59375 22.796875 62.59375 
Q 24.078125 62.59375 24.921875 61.828125 
Q 25.78125 61.078125 25.78125 59.8125 
Q 25.78125 59.515625 25.75 59.34375 
Q 25.734375 59.1875 25.6875 58.984375 
L 21.6875 43.109375 
L 31.984375 43.109375 
Q 33.015625 43.109375 33.015625 41.796875 
Q 32.953125 41.546875 32.8125 40.953125 
Q 32.671875 40.375 32.421875 39.984375 
Q 32.171875 39.59375 31.6875 39.59375 
L 20.796875 39.59375 
L 13.625 10.6875 
Q 12.890625 7.859375 12.890625 5.8125 
Q 12.890625 1.515625 15.828125 1.515625 
Q 20.21875 1.515625 23.609375 5.640625 
Q 27 9.765625 28.8125 14.703125 
Q 29.203125 15.28125 29.59375 15.28125 
L 30.8125 15.28125 
Q 31.203125 15.28125 31.4375 15.015625 
Q 31.6875 14.75 31.6875 14.40625 
Q 31.6875 14.203125 31.59375 14.109375 
Q 29.390625 8.0625 25.1875 3.46875 
Q 21 -1.125 15.578125 -1.125 
Q 11.625 -1.125 8.90625 1.453125 
Q 6.203125 4.046875 6.203125 8.109375 
" id="Cmmi10-74"/>
     </defs>
     <g transform="translate(547.786642012 257.780716894)scale(0.19 -0.19)">
      <use transform="translate(0.0 0.40625)" xlink:href="#Cmmi10-74"/>
     </g>
    </g>
   </g>
   <g id="matplotlib.axis_2">
    <g id="ytick_1">
     <g id="line2d_32">
      <defs>
       <path d="M 0 0 
L 4 0 
" id="mbe98360485" style="stroke:#000000;stroke-width:0.5;"/>
      </defs>
      <g>
       <use style="stroke:#000000;stroke-width:0.5;" x="23.164375" xlink:href="#mbe98360485" y="348.342448832"/>
      </g>
     </g>
     <g id="text_7">
      <!-- -1 -->
      <defs>
       <path d="M 4.890625 31.390625 
L 31.203125 31.390625 
L 31.203125 23.390625 
L 4.890625 23.390625 
z
" id="BitstreamVeraSans-Roman-2d"/>
      </defs>
      <g transform="translate(7.2 351.653698832)scale(0.12 -0.12)">
       <use xlink:href="#BitstreamVeraSans-Roman-2d"/>
       <use x="36.083984375" xlink:href="#BitstreamVeraSans-Roman-31"/>
      </g>
     </g>
    </g>
    <g id="ytick_2">
     <g id="line2d_33">
      <g>
       <use style="stroke:#000000;stroke-width:0.5;" x="23.164375" xlink:href="#mbe98360485" y="257.780716894"/>
      </g>
     </g>
    </g>
    <g id="ytick_3">
     <g id="line2d_34">
      <g>
       <use style="stroke:#000000;stroke-width:0.5;" x="23.164375" xlink:href="#mbe98360485" y="167.218984957"/>
      </g>
     </g>
     <g id="text_8">
      <!-- 1 -->
      <g transform="translate(11.529375 170.530234957)scale(0.12 -0.12)">
       <use xlink:href="#BitstreamVeraSans-Roman-31"/>
      </g>
     </g>
    </g>
    <g id="ytick_4">
     <g id="line2d_35">
      <g>
       <use style="stroke:#000000;stroke-width:0.5;" x="23.164375" xlink:href="#mbe98360485" y="76.6572530192"/>
      </g>
     </g>
     <g id="text_9">
      <!-- 2 -->
      <g transform="translate(11.529375 79.9685030192)scale(0.12 -0.12)">
       <use xlink:href="#BitstreamVeraSans-Roman-32"/>
      </g>
     </g>
    </g>
    <g id="ytick_5">
     <g id="line2d_36">
      <defs>
       <path d="M 0 0 
L 2 0 
" id="m6cd17e6c4f" style="stroke:#000000;stroke-width:0.5;"/>
      </defs>
      <g>
       <use style="stroke:#000000;stroke-width:0.5;" x="23.164375" xlink:href="#m6cd17e6c4f" y="402.679487994"/>
      </g>
     </g>
    </g>
    <g id="ytick_6">
     <g id="line2d_37">
      <g>
       <use style="stroke:#000000;stroke-width:0.5;" x="23.164375" xlink:href="#m6cd17e6c4f" y="384.567141607"/>
      </g>
     </g>
    </g>
    <g id="ytick_7">
     <g id="line2d_38">
      <g>
       <use style="stroke:#000000;stroke-width:0.5;" x="23.164375" xlink:href="#m6cd17e6c4f" y="366.454795219"/>
      </g>
     </g>
    </g>
    <g id="ytick_8">
     <g id="line2d_39">
      <g>
       <use style="stroke:#000000;stroke-width:0.5;" x="23.164375" xlink:href="#m6cd17e6c4f" y="330.230102444"/>
      </g>
     </g>
    </g>
    <g id="ytick_9">
     <g id="line2d_40">
      <g>
       <use style="stroke:#000000;stroke-width:0.5;" x="23.164375" xlink:href="#m6cd17e6c4f" y="312.117756057"/>
      </g>
     </g>
    </g>
    <g id="ytick_10">
     <g id="line2d_41">
      <g>
       <use style="stroke:#000000;stroke-width:0.5;" x="23.164375" xlink:href="#m6cd17e6c4f" y="294.005409669"/>
      </g>
     </g>
    </g>
    <g id="ytick_11">
     <g id="line2d_42">
      <g>
       <use style="stroke:#000000;stroke-width:0.5;" x="23.164375" xlink:href="#m6cd17e6c4f" y="275.893063282"/>
      </g>
     </g>
    </g>
    <g id="ytick_12">
     <g id="line2d_43">
      <g>
       <use style="stroke:#000000;stroke-width:0.5;" x="23.164375" xlink:href="#m6cd17e6c4f" y="239.668370507"/>
      </g>
     </g>
    </g>
    <g id="ytick_13">
     <g id="line2d_44">
      <g>
       <use style="stroke:#000000;stroke-width:0.5;" x="23.164375" xlink:href="#m6cd17e6c4f" y="221.556024119"/>
      </g>
     </g>
    </g>
    <g id="ytick_14">
     <g id="line2d_45">
      <g>
       <use style="stroke:#000000;stroke-width:0.5;" x="23.164375" xlink:href="#m6cd17e6c4f" y="203.443677732"/>
      </g>
     </g>
    </g>
    <g id="ytick_15">
     <g id="line2d_46">
      <g>
       <use style="stroke:#000000;stroke-width:0.5;" x="23.164375" xlink:href="#m6cd17e6c4f" y="185.331331344"/>
      </g>
     </g>
    </g>
    <g id="ytick_16">
     <g id="line2d_47">
      <g>
       <use style="stroke:#000000;stroke-width:0.5;" x="23.164375" xlink:href="#m6cd17e6c4f" y="149.106638569"/>
      </g>
     </g>
    </g>
    <g id="ytick_17">
     <g id="line2d_48">
      <g>
       <use style="stroke:#000000;stroke-width:0.5;" x="23.164375" xlink:href="#m6cd17e6c4f" y="130.994292182"/>
      </g>
     </g>
    </g>
    <g id="ytick_18">
     <g id="line2d_49">
      <g>
       <use style="stroke:#000000;stroke-width:0.5;" x="23.164375" xlink:href="#m6cd17e6c4f" y="112.881945794"/>
      </g>
     </g>
    </g>
    <g id="ytick_19">
     <g id="line2d_50">
      <g>
       <use style="stroke:#000000;stroke-width:0.5;" x="23.164375" xlink:href="#m6cd17e6c4f" y="94.7695994067"/>
      </g>
     </g>
    </g>
    <g id="ytick_20">
     <g id="line2d_51">
      <g>
       <use style="stroke:#000000;stroke-width:0.5;" x="23.164375" xlink:href="#m6cd17e6c4f" y="58.5449066317"/>
      </g>
     </g>
    </g>
    <g id="ytick_21">
     <g id="line2d_52">
      <g>
       <use style="stroke:#000000;stroke-width:0.5;" x="23.164375" xlink:href="#m6cd17e6c4f" y="40.4325602443"/>
      </g>
     </g>
    </g>
    <g id="ytick_22">
     <g id="line2d_53">
      <g>
       <use style="stroke:#000000;stroke-width:0.5;" x="23.164375" xlink:href="#m6cd17e6c4f" y="22.3202138568"/>
      </g>
     </g>
    </g>
   </g>
   <g id="legend_1">
    <g id="patch_5">
     <path d="M 485.026642 54.07625 
L 535.786642 54.07625 
L 535.786642 15.2 
L 485.026642 15.2 
z
" style="fill:#4c4c4c;opacity:0.5;stroke:#4c4c4c;stroke-linejoin:miter;"/>
    </g>
    <g id="patch_6">
     <path d="M 483.026642 52.07625 
L 533.786642 52.07625 
L 533.786642 13.2 
L 483.026642 13.2 
z
" style="fill:#ffffff;stroke:#000000;stroke-linejoin:miter;"/>
    </g>
    <g id="line2d_54">
     <path d="M 493.826642 25.318125 
L 487.226642 25.318125 
" style="fill:none;stroke:#0000ff;stroke-linecap:square;"/>
    </g>
    <g id="line2d_55"/>
    <g id="text_10">
     <!-- $x(t)$ -->
     <defs>
      <path d="M 31 -24.8125 
Q 25.4375 -20.40625 21.40625 -14.71875 
Q 17.390625 -9.03125 14.8125 -2.578125 
Q 12.25 3.859375 10.984375 10.890625 
Q 9.71875 17.921875 9.71875 25 
Q 9.71875 32.171875 10.984375 39.203125 
Q 12.25 46.234375 14.859375 52.734375 
Q 17.484375 59.234375 21.53125 64.890625 
Q 25.59375 70.5625 31 74.8125 
Q 31 75 31.5 75 
L 32.421875 75 
Q 32.71875 75 32.953125 74.734375 
Q 33.203125 74.46875 33.203125 74.125 
Q 33.203125 73.6875 33.015625 73.484375 
Q 28.125 68.703125 24.875 63.234375 
Q 21.625 57.765625 19.640625 51.578125 
Q 17.671875 45.40625 16.796875 38.78125 
Q 15.921875 32.171875 15.921875 25 
Q 15.921875 -6.78125 32.90625 -23.296875 
Q 33.203125 -23.578125 33.203125 -24.125 
Q 33.203125 -24.359375 32.9375 -24.671875 
Q 32.671875 -25 32.421875 -25 
L 31.5 -25 
Q 31 -25 31 -24.8125 
" id="Cmr10-28"/>
      <path d="M 6.5 -25 
Q 5.609375 -25 5.609375 -24.125 
Q 5.609375 -23.6875 5.8125 -23.484375 
Q 22.90625 -6.78125 22.90625 25 
Q 22.90625 56.78125 6 73.296875 
Q 5.609375 73.53125 5.609375 74.125 
Q 5.609375 74.46875 5.875 74.734375 
Q 6.15625 75 6.5 75 
L 7.421875 75 
Q 7.71875 75 7.90625 74.8125 
Q 15.09375 69.140625 19.875 61.03125 
Q 24.65625 52.9375 26.875 43.75 
Q 29.109375 34.578125 29.109375 25 
Q 29.109375 17.921875 27.90625 11.0625 
Q 26.703125 4.203125 24.09375 -2.453125 
Q 21.484375 -9.125 17.484375 -14.765625 
Q 13.484375 -20.40625 7.90625 -24.8125 
Q 7.71875 -25 7.421875 -25 
z
" id="Cmr10-29"/>
      <path d="M 7.8125 2.875 
Q 9.578125 1.515625 12.796875 1.515625 
Q 15.921875 1.515625 18.3125 4.515625 
Q 20.703125 7.515625 21.578125 11.078125 
L 26.125 28.8125 
Q 27.203125 33.640625 27.203125 35.40625 
Q 27.203125 37.890625 25.8125 39.75 
Q 24.421875 41.609375 21.921875 41.609375 
Q 18.75 41.609375 15.96875 39.625 
Q 13.1875 37.640625 11.28125 34.59375 
Q 9.375 31.546875 8.59375 28.421875 
Q 8.40625 27.78125 7.8125 27.78125 
L 6.59375 27.78125 
Q 5.8125 27.78125 5.8125 28.71875 
L 5.8125 29 
Q 6.78125 32.71875 9.125 36.25 
Q 11.46875 39.796875 14.859375 41.984375 
Q 18.265625 44.1875 22.125 44.1875 
Q 25.78125 44.1875 28.734375 42.234375 
Q 31.6875 40.28125 32.90625 36.921875 
Q 34.625 39.984375 37.28125 42.078125 
Q 39.9375 44.1875 43.109375 44.1875 
Q 45.265625 44.1875 47.5 43.421875 
Q 49.75 42.671875 51.171875 41.109375 
Q 52.59375 39.546875 52.59375 37.203125 
Q 52.59375 34.671875 50.953125 32.828125 
Q 49.3125 31 46.78125 31 
Q 45.171875 31 44.09375 32.03125 
Q 43.015625 33.0625 43.015625 34.625 
Q 43.015625 36.71875 44.453125 38.296875 
Q 45.90625 39.890625 47.90625 40.1875 
Q 46.09375 41.609375 42.921875 41.609375 
Q 39.703125 41.609375 37.328125 38.625 
Q 34.96875 35.640625 33.984375 31.984375 
L 29.59375 14.3125 
Q 28.515625 10.296875 28.515625 7.71875 
Q 28.515625 5.171875 29.953125 3.34375 
Q 31.390625 1.515625 33.796875 1.515625 
Q 38.484375 1.515625 42.15625 5.640625 
Q 45.84375 9.765625 47.015625 14.703125 
Q 47.21875 15.28125 47.796875 15.28125 
L 49.03125 15.28125 
Q 49.421875 15.28125 49.65625 15.015625 
Q 49.90625 14.75 49.90625 14.40625 
Q 49.90625 14.3125 49.8125 14.109375 
Q 48.390625 8.15625 43.84375 3.515625 
Q 39.3125 -1.125 33.59375 -1.125 
Q 29.9375 -1.125 26.984375 0.84375 
Q 24.03125 2.828125 22.796875 6.203125 
Q 21.234375 3.265625 18.46875 1.0625 
Q 15.71875 -1.125 12.59375 -1.125 
Q 10.453125 -1.125 8.171875 -0.359375 
Q 5.90625 0.390625 4.484375 1.953125 
Q 3.078125 3.515625 3.078125 5.90625 
Q 3.078125 8.25 4.703125 10.171875 
Q 6.34375 12.109375 8.796875 12.109375 
Q 10.453125 12.109375 11.578125 11.109375 
Q 12.703125 10.109375 12.703125 8.5 
Q 12.703125 6.390625 11.296875 4.828125 
Q 9.90625 3.265625 7.8125 2.875 
" id="Cmmi10-78"/>
     </defs>
     <g transform="translate(496.826642012 29.518125)scale(0.12 -0.12)">
      <use xlink:href="#Cmmi10-78"/>
      <use transform="translate(57.080078125 0.0)" xlink:href="#Cmr10-28"/>
      <use transform="translate(95.8984375 0.0)" xlink:href="#Cmmi10-74"/>
      <use transform="translate(131.982421875 0.0)" xlink:href="#Cmr10-29"/>
     </g>
    </g>
    <g id="line2d_56">
     <path d="M 493.826642 37.67625 
L 487.226642 37.67625 
" style="fill:none;stroke:#ff0000;stroke-linecap:square;"/>
    </g>
    <g id="line2d_57"/>
    <g id="text_11">
     <!-- $dx/dt$ -->
     <defs>
      <path d="M 5.609375 -23 
Q 5.609375 -22.703125 5.71875 -22.609375 
L 40.484375 73.78125 
Q 40.671875 74.359375 41.15625 74.671875 
Q 41.65625 75 42.28125 75 
Q 43.171875 75 43.71875 74.453125 
Q 44.28125 73.921875 44.28125 73 
L 44.28125 72.609375 
L 9.515625 -23.78125 
Q 8.9375 -25 7.625 -25 
Q 6.78125 -25 6.1875 -24.40625 
Q 5.609375 -23.828125 5.609375 -23 
" id="Cmmi10-3d"/>
      <path d="M 17.390625 -1.125 
Q 11.078125 -1.125 7.4375 3.640625 
Q 3.8125 8.40625 3.8125 14.890625 
Q 3.8125 21.296875 7.125 28.171875 
Q 10.453125 35.0625 16.09375 39.625 
Q 21.734375 44.1875 28.21875 44.1875 
Q 31.15625 44.1875 33.515625 42.546875 
Q 35.890625 40.921875 37.203125 38.1875 
L 42.828125 60.5 
Q 43.21875 62.203125 43.3125 63.1875 
Q 43.3125 64.796875 36.8125 64.796875 
Q 35.796875 64.796875 35.796875 66.109375 
Q 35.84375 66.359375 36.015625 66.984375 
Q 36.1875 67.625 36.453125 67.96875 
Q 36.71875 68.3125 37.203125 68.3125 
L 50.6875 69.390625 
Q 51.90625 69.390625 51.90625 68.109375 
L 37.5 10.59375 
Q 36.8125 8.9375 36.8125 5.8125 
Q 36.8125 1.515625 39.703125 1.515625 
Q 42.828125 1.515625 44.453125 5.484375 
Q 46.09375 9.46875 47.21875 14.703125 
Q 47.40625 15.28125 48 15.28125 
L 49.21875 15.28125 
Q 49.609375 15.28125 49.84375 14.9375 
Q 50.09375 14.59375 50.09375 14.3125 
Q 48.34375 7.328125 46.265625 3.09375 
Q 44.1875 -1.125 39.5 -1.125 
Q 36.140625 -1.125 33.546875 0.84375 
Q 30.953125 2.828125 30.328125 6.109375 
Q 23.875 -1.125 17.390625 -1.125 
M 17.484375 1.515625 
Q 21.09375 1.515625 24.484375 4.21875 
Q 27.875 6.9375 30.328125 10.59375 
Q 30.421875 10.6875 30.421875 10.984375 
L 35.890625 33.015625 
Q 35.296875 36.53125 33.296875 39.0625 
Q 31.296875 41.609375 27.984375 41.609375 
Q 24.609375 41.609375 21.703125 38.84375 
Q 18.796875 36.078125 16.796875 32.328125 
Q 14.84375 28.328125 13.0625 21.34375 
Q 11.28125 14.359375 11.28125 10.5 
Q 11.28125 7.03125 12.765625 4.265625 
Q 14.265625 1.515625 17.484375 1.515625 
" id="Cmmi10-64"/>
     </defs>
     <g transform="translate(496.826642012 41.87625)scale(0.12 -0.12)">
      <use xlink:href="#Cmmi10-64"/>
      <use transform="translate(52.001953125 0.0)" xlink:href="#Cmmi10-78"/>
      <use transform="translate(109.08203125 0.0)" xlink:href="#Cmmi10-3d"/>
      <use transform="translate(159.08203125 0.0)" xlink:href="#Cmmi10-64"/>
      <use transform="translate(211.083984375 0.0)" xlink:href="#Cmmi10-74"/>
     </g>
    </g>
   </g>
  </g>
 </g>
 <defs>
  <clipPath id="p4a15cc5a5c">
   <rect height="406.08" width="526.752115385" x="13.0345266272" y="7.2"/>
  </clipPath>
 </defs>
</svg>
