<?xml version="1.0" encoding="utf-8" standalone="no"?>
<!DOCTYPE svg PUBLIC "-//W3C//DTD SVG 1.1//EN"
  "http://www.w3.org/Graphics/SVG/1.1/DTD/svg11.dtd">
<!-- Created with matplotlib (http://matplotlib.org/) -->
<svg height="420pt" version="1.1" viewBox="0 0 446 420" width="446pt" xmlns="http://www.w3.org/2000/svg" xmlns:xlink="http://www.w3.org/1999/xlink">
 <defs>
  <style type="text/css">
*{stroke-linecap:butt;stroke-linejoin:round;stroke-miterlimit:100000;}
  </style>
 </defs>
 <g id="figure_1">
  <g id="patch_1">
   <path d="M 0 420.868437 
L 446.43852 420.868437 
L 446.43852 0 
L 0 0 
z
" style="fill:#ffffff;"/>
  </g>
  <g id="axes_1">
   <g id="patch_2">
    <path d="M 7.2 413.668437 
L 420.21852 413.668437 
L 420.21852 33.588437 
L 7.2 33.588437 
z
" style="fill:#ffffff;"/>
   </g>
   <g id="line2d_1">
    <path clip-path="url(#p216687d098)" d="M 216.010457 220.051243 
L 215.993571 220.631828 
L 214.670556 230.3015 
L 213.707535 234.534894 
L 209.58129 247.480926 
L 205.75957 256.283658 
L 200.858834 265.370115 
L 197.802867 270.195405 
L 190.173366 280.257805 
L 173.510978 295.506947 
L 157.54448 304.02829 
L 146.017834 307.167153 
L 137.037561 307.963601 
L 118.027379 304.689517 
L 105.99118 298.567192 
L 96.648147 290.929216 
L 88.575684 281.40423 
L 81.780857 269.976023 
L 77.297472 259.255313 
L 72.908275 242.346071 
L 71.044029 223.770359 
L 71.239665 211.768542 
L 72.494753 199.431651 
L 74.705881 187.441088 
L 78.557091 173.327729 
L 83.777617 159.264643 
L 93.949721 138.970449 
L 108.472711 117.782635 
L 120.417966 104.225913 
L 133.785918 91.821131 
L 148.619175 80.645124 
L 164.604952 71.035939 
L 169.060137 68.749051 
L 193.419658 58.89163 
L 219.01939 52.856986 
L 245.019819 50.871922 
L 267.601332 52.463327 
L 286.95556 56.367472 
L 316.619524 67.397333 
L 334.824785 77.73991 
L 353.559794 92.042787 
L 370.13321 108.93133 
L 379.207735 120.608255 
L 390.076105 138.125745 
L 398.769041 156.914253 
L 402.849299 168.577608 
L 408.687171 194.147206 
L 410.147414 207.275761 
L 410.612383 220.514798 
L 410.076561 233.789479 
L 408.540082 247.025092 
L 405.548933 262.080515 
L 401.263652 276.876083 
L 396.171853 290.234976 
L 386.353346 309.872753 
L 374.198932 328.298702 
L 355.426634 349.771766 
L 343.758447 360.33667 
L 327.867856 372.253583 
L 310.771139 382.537358 
L 295.419494 389.917035 
L 260.797125 401.204996 
L 219.986308 406.359207 
L 206.690888 406.284673 
L 164.752673 400.426102 
L 131.72148 389.341046 
L 115.084987 381.250038 
L 93.876964 367.975459 
L 74.653905 352.321655 
L 63.407796 341.040684 
L 53.199173 328.958875 
L 38.730862 307.388912 
L 32.113632 294.735832 
L 22.477209 269.726128 
L 18.415863 253.42947 
L 15.95946 236.909113 
L 15.142664 217.467218 
L 16.706319 196.937334 
L 20.744608 176.776483 
L 26.525847 158.946437 
L 37.040849 136.624152 
L 50.68805 115.88607 
L 52.871255 113.083713 
L 69.279778 95.066283 
L 88.083951 79.213779 
L 97.191545 72.887078 
L 117.104718 61.471589 
L 138.356516 52.330951 
L 171.660683 43.20138 
L 185.071498 41.111912 
L 236.827448 40.897668 
L 257.952717 44.375542 
L 269.78239 47.271736 
L 294.437635 55.67715 
L 317.656503 66.91081 
L 334.506888 77.498272 
L 350.416663 89.860898 
L 366.501573 105.454062 
L 380.435126 122.599126 
L 388.138065 134.278171 
L 398.412033 154.017798 
L 404.295236 169.334524 
L 408.615483 185.032514 
L 410.997495 198.306115 
L 412.261238 211.679238 
L 412.275856 228.133851 
L 410.598678 244.484075 
L 407.993091 257.633388 
L 404.292521 270.547196 
L 394.427534 293.990149 
L 384.397391 310.961617 
L 372.370099 326.816009 
L 355.260147 344.332322 
L 337.277412 358.550099 
L 308.131033 375.350088 
L 296.875892 380.221288 
L 271.040295 388.592452 
L 235.516712 394.492769 
L 192.434008 393.712439 
L 181.974571 392.221034 
L 140.83704 381.023821 
L 132.735133 377.715513 
L 109.141267 365.619312 
L 87.647917 350.719861 
L 75.968423 340.585509 
L 64.209202 328.428188 
L 53.745759 315.361373 
L 40.377361 293.740269 
L 35.62917 283.800216 
L 30.074303 269.248186 
L 25.969294 254.320805 
L 22.590153 231.406298 
L 22.619281 208.304893 
L 25.249542 189.191313 
L 28.377741 176.392282 
L 32.570009 163.843221 
L 42.912856 141.760485 
L 52.616888 126.462453 
L 63.994075 112.125064 
L 70.847256 104.779241 
L 90.83626 87.245607 
L 109.282318 74.861833 
L 141.718834 59.415081 
L 171.575938 50.776464 
L 212.75001 46.190148 
L 221.627498 46.244159 
L 270.785934 53.30317 
L 279.235907 55.737093 
L 311.633589 68.915327 
L 328.412579 78.548077 
L 344.001032 89.679335 
L 353.40589 97.653838 
L 366.661837 110.976576 
L 378.325781 125.453103 
L 386.800136 138.390005 
L 397.592391 160.082405 
L 404.993082 182.898855 
L 406.398473 189.238364 
L 409.259907 212.163936 
L 409.013461 231.848368 
L 406.294416 251.385319 
L 402.777986 265.372688 
L 397.322805 280.69836 
L 390.316286 295.507758 
L 377.844406 315.370735 
L 368.494424 327.122638 
L 358.092636 338.138223 
L 343.439568 350.979051 
L 327.361222 362.359337 
L 301.383837 376.233072 
L 290.152972 380.816111 
L 256.851385 390.207901 
L 227.346405 393.855356 
L 209.102122 394.058955 
L 177.946903 390.796039 
L 153.969401 385.028997 
L 131.009583 376.54675 
L 123.860364 373.241919 
L 98.609043 358.577436 
L 82.81307 346.494725 
L 68.544326 332.958876 
L 51.703804 312.243784 
L 42.123254 296.712934 
L 34.350452 280.382717 
L 32.319349 275.179547 
L 26.15377 254.320733 
L 22.901834 232.932961 
L 22.381154 218.359269 
L 23.216239 203.796185 
L 26.459085 184.434528 
L 31.213969 167.988861 
L 37.725808 152.036734 
L 43.403775 141.056208 
L 55.352549 122.753334 
L 68.686359 106.937234 
L 83.931808 92.587108 
L 104.372519 77.624804 
L 121.561725 67.87598 
L 160.643996 53.000388 
L 193.044884 46.9427 
L 209.100617 45.817726 
L 241.304194 47.187681 
L 279.523315 55.319676 
L 308.947793 67.048265 
L 313.632539 69.428895 
L 334.39538 82.010212 
L 356.005427 99.497456 
L 375.248916 120.707835 
L 383.909554 133.021851 
L 391.397474 145.944179 
L 397.479339 158.947298 
L 402.373424 172.35069 
L 407.840946 195.552651 
L 409.632516 213.669822 
L 409.31783 231.856738 
L 405.859816 254.876845 
L 401.31253 270.991766 
L 395.080971 286.643816 
L 386.135797 303.509781 
L 376.849652 317.290139 
L 366.189821 330.24008 
L 346.864591 348.666535 
L 333.175555 358.949451 
L 318.494324 368.056184 
L 288.121431 381.921878 
L 266.766485 388.360676 
L 235.76098 393.543234 
L 222.547811 394.352713 
L 196.004809 393.5206 
L 161.961199 387.530875 
L 127.60732 375.244686 
L 105.144607 363.085803 
L 81.021497 345.168522 
L 66.151926 330.609359 
L 52.387314 313.472641 
L 44.409013 301.050866 
L 37.592171 288.08091 
L 29.850245 268.440611 
L 24.766438 248.109518 
L 23.367492 238.818904 
L 22.311109 215.402261 
L 24.752582 192.069789 
L 29.409068 173.059178 
L 32.572667 163.868094 
L 40.223223 146.68385 
L 49.854566 130.326469 
L 59.70875 116.976233 
L 70.883116 104.496726 
L 92.657683 85.558805 
L 101.426315 79.416293 
L 118.572351 69.310455 
L 136.808495 60.891251 
L 165.483813 51.691816 
L 191.458414 47.064988 
L 218.34451 45.672994 
L 238.933702 46.885791 
L 270.861047 52.795466 
L 292.612249 59.869518 
L 316.461363 70.928561 
L 338.384627 84.84629 
L 358.717219 102.091937 
L 369.477261 113.59499 
L 379.096285 125.889457 
L 387.097938 138.194806 
L 387.097938 138.194806 
" style="fill:none;stroke:#0000ff;stroke-linecap:square;"/>
   </g>
   <g id="patch_3">
    <path d="M 7.2 220.051243 
L 420.21852 220.051243 
" style="fill:none;stroke:#000000;stroke-linecap:square;stroke-linejoin:miter;stroke-width:0.8;"/>
   </g>
   <g id="patch_4">
    <path d="M 216.010457 413.668437 
L 216.010457 33.588437 
" style="fill:none;stroke:#000000;stroke-linecap:square;stroke-linejoin:miter;stroke-width:0.8;"/>
   </g>
   <g id="matplotlib.axis_1">
    <g id="xtick_1">
     <g id="line2d_2">
      <defs>
       <path d="M 0 0 
L 0 -4 
" id="m9732b7b4c1" style="stroke:#000000;stroke-width:0.5;"/>
      </defs>
      <g>
       <use style="stroke:#000000;stroke-width:0.5;" x="22.2554981136" xlink:href="#m9732b7b4c1" y="220.051243308"/>
      </g>
     </g>
     <g id="text_1">
      <!-- -0.2 -->
      <defs>
       <path d="M 19.1875 8.296875 
L 53.609375 8.296875 
L 53.609375 0 
L 7.328125 0 
L 7.328125 8.296875 
Q 12.9375 14.109375 22.625 23.890625 
Q 32.328125 33.6875 34.8125 36.53125 
Q 39.546875 41.84375 41.421875 45.53125 
Q 43.3125 49.21875 43.3125 52.78125 
Q 43.3125 58.59375 39.234375 62.25 
Q 35.15625 65.921875 28.609375 65.921875 
Q 23.96875 65.921875 18.8125 64.3125 
Q 13.671875 62.703125 7.8125 59.421875 
L 7.8125 69.390625 
Q 13.765625 71.78125 18.9375 73 
Q 24.125 74.21875 28.421875 74.21875 
Q 39.75 74.21875 46.484375 68.546875 
Q 53.21875 62.890625 53.21875 53.421875 
Q 53.21875 48.921875 51.53125 44.890625 
Q 49.859375 40.875 45.40625 35.40625 
Q 44.1875 33.984375 37.640625 27.21875 
Q 31.109375 20.453125 19.1875 8.296875 
" id="BitstreamVeraSans-Roman-32"/>
       <path d="M 31.78125 66.40625 
Q 24.171875 66.40625 20.328125 58.90625 
Q 16.5 51.421875 16.5 36.375 
Q 16.5 21.390625 20.328125 13.890625 
Q 24.171875 6.390625 31.78125 6.390625 
Q 39.453125 6.390625 43.28125 13.890625 
Q 47.125 21.390625 47.125 36.375 
Q 47.125 51.421875 43.28125 58.90625 
Q 39.453125 66.40625 31.78125 66.40625 
M 31.78125 74.21875 
Q 44.046875 74.21875 50.515625 64.515625 
Q 56.984375 54.828125 56.984375 36.375 
Q 56.984375 17.96875 50.515625 8.265625 
Q 44.046875 -1.421875 31.78125 -1.421875 
Q 19.53125 -1.421875 13.0625 8.265625 
Q 6.59375 17.96875 6.59375 36.375 
Q 6.59375 54.828125 13.0625 64.515625 
Q 19.53125 74.21875 31.78125 74.21875 
" id="BitstreamVeraSans-Roman-30"/>
       <path d="M 10.6875 12.40625 
L 21 12.40625 
L 21 0 
L 10.6875 0 
z
" id="BitstreamVeraSans-Roman-2e"/>
       <path d="M 4.890625 31.390625 
L 31.203125 31.390625 
L 31.203125 23.390625 
L 4.890625 23.390625 
z
" id="BitstreamVeraSans-Roman-2d"/>
      </defs>
      <g transform="translate(10.5489356136 233.169368308)scale(0.12 -0.12)">
       <use xlink:href="#BitstreamVeraSans-Roman-2d"/>
       <use x="36.083984375" xlink:href="#BitstreamVeraSans-Roman-30"/>
       <use x="99.70703125" xlink:href="#BitstreamVeraSans-Roman-2e"/>
       <use x="131.494140625" xlink:href="#BitstreamVeraSans-Roman-32"/>
      </g>
     </g>
    </g>
    <g id="xtick_2">
     <g id="line2d_3">
      <g>
       <use style="stroke:#000000;stroke-width:0.5;" x="119.132977705" xlink:href="#m9732b7b4c1" y="220.051243308"/>
      </g>
     </g>
     <g id="text_2">
      <!-- -0.1 -->
      <defs>
       <path d="M 12.40625 8.296875 
L 28.515625 8.296875 
L 28.515625 63.921875 
L 10.984375 60.40625 
L 10.984375 69.390625 
L 28.421875 72.90625 
L 38.28125 72.90625 
L 38.28125 8.296875 
L 54.390625 8.296875 
L 54.390625 0 
L 12.40625 0 
z
" id="BitstreamVeraSans-Roman-31"/>
      </defs>
      <g transform="translate(107.426415205 233.169368308)scale(0.12 -0.12)">
       <use xlink:href="#BitstreamVeraSans-Roman-2d"/>
       <use x="36.083984375" xlink:href="#BitstreamVeraSans-Roman-30"/>
       <use x="99.70703125" xlink:href="#BitstreamVeraSans-Roman-2e"/>
       <use x="131.494140625" xlink:href="#BitstreamVeraSans-Roman-31"/>
      </g>
     </g>
    </g>
    <g id="xtick_3">
     <g id="line2d_4">
      <g>
       <use style="stroke:#000000;stroke-width:0.5;" x="216.010457296" xlink:href="#m9732b7b4c1" y="220.051243308"/>
      </g>
     </g>
    </g>
    <g id="xtick_4">
     <g id="line2d_5">
      <g>
       <use style="stroke:#000000;stroke-width:0.5;" x="312.887936887" xlink:href="#m9732b7b4c1" y="220.051243308"/>
      </g>
     </g>
     <g id="text_3">
      <!-- 0.1 -->
      <g transform="translate(303.346061887 233.169368308)scale(0.12 -0.12)">
       <use xlink:href="#BitstreamVeraSans-Roman-30"/>
       <use x="63.623046875" xlink:href="#BitstreamVeraSans-Roman-2e"/>
       <use x="95.41015625" xlink:href="#BitstreamVeraSans-Roman-31"/>
      </g>
     </g>
    </g>
    <g id="xtick_5">
     <g id="line2d_6">
      <g>
       <use style="stroke:#000000;stroke-width:0.5;" x="409.765416478" xlink:href="#m9732b7b4c1" y="220.051243308"/>
      </g>
     </g>
     <g id="text_4">
      <!-- 0.2 -->
      <g transform="translate(400.223541478 233.169368308)scale(0.12 -0.12)">
       <use xlink:href="#BitstreamVeraSans-Roman-30"/>
       <use x="63.623046875" xlink:href="#BitstreamVeraSans-Roman-2e"/>
       <use x="95.41015625" xlink:href="#BitstreamVeraSans-Roman-32"/>
      </g>
     </g>
    </g>
    <g id="xtick_6">
     <g id="line2d_7">
      <defs>
       <path d="M 0 0 
L 0 -2 
" id="mdf2a08f668" style="stroke:#000000;stroke-width:0.5;"/>
      </defs>
      <g>
       <use style="stroke:#000000;stroke-width:0.5;" x="41.6309940318" xlink:href="#mdf2a08f668" y="220.051243308"/>
      </g>
     </g>
    </g>
    <g id="xtick_7">
     <g id="line2d_8">
      <g>
       <use style="stroke:#000000;stroke-width:0.5;" x="61.00648995" xlink:href="#mdf2a08f668" y="220.051243308"/>
      </g>
     </g>
    </g>
    <g id="xtick_8">
     <g id="line2d_9">
      <g>
       <use style="stroke:#000000;stroke-width:0.5;" x="80.3819858682" xlink:href="#mdf2a08f668" y="220.051243308"/>
      </g>
     </g>
    </g>
    <g id="xtick_9">
     <g id="line2d_10">
      <g>
       <use style="stroke:#000000;stroke-width:0.5;" x="99.7574817864" xlink:href="#mdf2a08f668" y="220.051243308"/>
      </g>
     </g>
    </g>
    <g id="xtick_10">
     <g id="line2d_11">
      <g>
       <use style="stroke:#000000;stroke-width:0.5;" x="138.508473623" xlink:href="#mdf2a08f668" y="220.051243308"/>
      </g>
     </g>
    </g>
    <g id="xtick_11">
     <g id="line2d_12">
      <g>
       <use style="stroke:#000000;stroke-width:0.5;" x="157.883969541" xlink:href="#mdf2a08f668" y="220.051243308"/>
      </g>
     </g>
    </g>
    <g id="xtick_12">
     <g id="line2d_13">
      <g>
       <use style="stroke:#000000;stroke-width:0.5;" x="177.259465459" xlink:href="#mdf2a08f668" y="220.051243308"/>
      </g>
     </g>
    </g>
    <g id="xtick_13">
     <g id="line2d_14">
      <g>
       <use style="stroke:#000000;stroke-width:0.5;" x="196.634961377" xlink:href="#mdf2a08f668" y="220.051243308"/>
      </g>
     </g>
    </g>
    <g id="xtick_14">
     <g id="line2d_15">
      <g>
       <use style="stroke:#000000;stroke-width:0.5;" x="235.385953214" xlink:href="#mdf2a08f668" y="220.051243308"/>
      </g>
     </g>
    </g>
    <g id="xtick_15">
     <g id="line2d_16">
      <g>
       <use style="stroke:#000000;stroke-width:0.5;" x="254.761449132" xlink:href="#mdf2a08f668" y="220.051243308"/>
      </g>
     </g>
    </g>
    <g id="xtick_16">
     <g id="line2d_17">
      <g>
       <use style="stroke:#000000;stroke-width:0.5;" x="274.13694505" xlink:href="#mdf2a08f668" y="220.051243308"/>
      </g>
     </g>
    </g>
    <g id="xtick_17">
     <g id="line2d_18">
      <g>
       <use style="stroke:#000000;stroke-width:0.5;" x="293.512440968" xlink:href="#mdf2a08f668" y="220.051243308"/>
      </g>
     </g>
    </g>
    <g id="xtick_18">
     <g id="line2d_19">
      <g>
       <use style="stroke:#000000;stroke-width:0.5;" x="332.263432805" xlink:href="#mdf2a08f668" y="220.051243308"/>
      </g>
     </g>
    </g>
    <g id="xtick_19">
     <g id="line2d_20">
      <g>
       <use style="stroke:#000000;stroke-width:0.5;" x="351.638928723" xlink:href="#mdf2a08f668" y="220.051243308"/>
      </g>
     </g>
    </g>
    <g id="xtick_20">
     <g id="line2d_21">
      <g>
       <use style="stroke:#000000;stroke-width:0.5;" x="371.014424641" xlink:href="#mdf2a08f668" y="220.051243308"/>
      </g>
     </g>
    </g>
    <g id="xtick_21">
     <g id="line2d_22">
      <g>
       <use style="stroke:#000000;stroke-width:0.5;" x="390.389920559" xlink:href="#mdf2a08f668" y="220.051243308"/>
      </g>
     </g>
    </g>
    <g id="text_5">
     <!-- $x$ -->
     <defs>
      <path d="M 7.8125 2.875 
Q 9.578125 1.515625 12.796875 1.515625 
Q 15.921875 1.515625 18.3125 4.515625 
Q 20.703125 7.515625 21.578125 11.078125 
L 26.125 28.8125 
Q 27.203125 33.640625 27.203125 35.40625 
Q 27.203125 37.890625 25.8125 39.75 
Q 24.421875 41.609375 21.921875 41.609375 
Q 18.75 41.609375 15.96875 39.625 
Q 13.1875 37.640625 11.28125 34.59375 
Q 9.375 31.546875 8.59375 28.421875 
Q 8.40625 27.78125 7.8125 27.78125 
L 6.59375 27.78125 
Q 5.8125 27.78125 5.8125 28.71875 
L 5.8125 29 
Q 6.78125 32.71875 9.125 36.25 
Q 11.46875 39.796875 14.859375 41.984375 
Q 18.265625 44.1875 22.125 44.1875 
Q 25.78125 44.1875 28.734375 42.234375 
Q 31.6875 40.28125 32.90625 36.921875 
Q 34.625 39.984375 37.28125 42.078125 
Q 39.9375 44.1875 43.109375 44.1875 
Q 45.265625 44.1875 47.5 43.421875 
Q 49.75 42.671875 51.171875 41.109375 
Q 52.59375 39.546875 52.59375 37.203125 
Q 52.59375 34.671875 50.953125 32.828125 
Q 49.3125 31 46.78125 31 
Q 45.171875 31 44.09375 32.03125 
Q 43.015625 33.0625 43.015625 34.625 
Q 43.015625 36.71875 44.453125 38.296875 
Q 45.90625 39.890625 47.90625 40.1875 
Q 46.09375 41.609375 42.921875 41.609375 
Q 39.703125 41.609375 37.328125 38.625 
Q 34.96875 35.640625 33.984375 31.984375 
L 29.59375 14.3125 
Q 28.515625 10.296875 28.515625 7.71875 
Q 28.515625 5.171875 29.953125 3.34375 
Q 31.390625 1.515625 33.796875 1.515625 
Q 38.484375 1.515625 42.15625 5.640625 
Q 45.84375 9.765625 47.015625 14.703125 
Q 47.21875 15.28125 47.796875 15.28125 
L 49.03125 15.28125 
Q 49.421875 15.28125 49.65625 15.015625 
Q 49.90625 14.75 49.90625 14.40625 
Q 49.90625 14.3125 49.8125 14.109375 
Q 48.390625 8.15625 43.84375 3.515625 
Q 39.3125 -1.125 33.59375 -1.125 
Q 29.9375 -1.125 26.984375 0.84375 
Q 24.03125 2.828125 22.796875 6.203125 
Q 21.234375 3.265625 18.46875 1.0625 
Q 15.71875 -1.125 12.59375 -1.125 
Q 10.453125 -1.125 8.171875 -0.359375 
Q 5.90625 0.390625 4.484375 1.953125 
Q 3.078125 3.515625 3.078125 5.90625 
Q 3.078125 8.25 4.703125 10.171875 
Q 6.34375 12.109375 8.796875 12.109375 
Q 10.453125 12.109375 11.578125 11.109375 
Q 12.703125 10.109375 12.703125 8.5 
Q 12.703125 6.390625 11.296875 4.828125 
Q 9.90625 3.265625 7.8125 2.875 
" id="Cmmi10-78"/>
     </defs>
     <g transform="translate(428.218519902 220.051243308)scale(0.19 -0.19)">
      <use transform="translate(0.0 0.8125)" xlink:href="#Cmmi10-78"/>
     </g>
    </g>
   </g>
   <g id="matplotlib.axis_2">
    <g id="ytick_1">
     <g id="line2d_23">
      <defs>
       <path d="M 0 0 
L 4 0 
" id="m19fc63546e" style="stroke:#000000;stroke-width:0.5;"/>
      </defs>
      <g>
       <use style="stroke:#000000;stroke-width:0.5;" x="216.010457296" xlink:href="#m19fc63546e" y="394.430706571"/>
      </g>
     </g>
     <g id="text_6">
      <!-- -0.6 -->
      <defs>
       <path d="M 33.015625 40.375 
Q 26.375 40.375 22.484375 35.828125 
Q 18.609375 31.296875 18.609375 23.390625 
Q 18.609375 15.53125 22.484375 10.953125 
Q 26.375 6.390625 33.015625 6.390625 
Q 39.65625 6.390625 43.53125 10.953125 
Q 47.40625 15.53125 47.40625 23.390625 
Q 47.40625 31.296875 43.53125 35.828125 
Q 39.65625 40.375 33.015625 40.375 
M 52.59375 71.296875 
L 52.59375 62.3125 
Q 48.875 64.0625 45.09375 64.984375 
Q 41.3125 65.921875 37.59375 65.921875 
Q 27.828125 65.921875 22.671875 59.328125 
Q 17.53125 52.734375 16.796875 39.40625 
Q 19.671875 43.65625 24.015625 45.921875 
Q 28.375 48.1875 33.59375 48.1875 
Q 44.578125 48.1875 50.953125 41.515625 
Q 57.328125 34.859375 57.328125 23.390625 
Q 57.328125 12.15625 50.6875 5.359375 
Q 44.046875 -1.421875 33.015625 -1.421875 
Q 20.359375 -1.421875 13.671875 8.265625 
Q 6.984375 17.96875 6.984375 36.375 
Q 6.984375 53.65625 15.1875 63.9375 
Q 23.390625 74.21875 37.203125 74.21875 
Q 40.921875 74.21875 44.703125 73.484375 
Q 48.484375 72.75 52.59375 71.296875 
" id="BitstreamVeraSans-Roman-36"/>
      </defs>
      <g transform="translate(188.597332296 397.741956571)scale(0.12 -0.12)">
       <use xlink:href="#BitstreamVeraSans-Roman-2d"/>
       <use x="36.083984375" xlink:href="#BitstreamVeraSans-Roman-30"/>
       <use x="99.70703125" xlink:href="#BitstreamVeraSans-Roman-2e"/>
       <use x="131.494140625" xlink:href="#BitstreamVeraSans-Roman-36"/>
      </g>
     </g>
    </g>
    <g id="ytick_2">
     <g id="line2d_24">
      <g>
       <use style="stroke:#000000;stroke-width:0.5;" x="216.010457296" xlink:href="#m19fc63546e" y="336.304218817"/>
      </g>
     </g>
     <g id="text_7">
      <!-- -0.4 -->
      <defs>
       <path d="M 37.796875 64.3125 
L 12.890625 25.390625 
L 37.796875 25.390625 
z
M 35.203125 72.90625 
L 47.609375 72.90625 
L 47.609375 25.390625 
L 58.015625 25.390625 
L 58.015625 17.1875 
L 47.609375 17.1875 
L 47.609375 0 
L 37.796875 0 
L 37.796875 17.1875 
L 4.890625 17.1875 
L 4.890625 26.703125 
z
" id="BitstreamVeraSans-Roman-34"/>
      </defs>
      <g transform="translate(188.597332296 339.615468817)scale(0.12 -0.12)">
       <use xlink:href="#BitstreamVeraSans-Roman-2d"/>
       <use x="36.083984375" xlink:href="#BitstreamVeraSans-Roman-30"/>
       <use x="99.70703125" xlink:href="#BitstreamVeraSans-Roman-2e"/>
       <use x="131.494140625" xlink:href="#BitstreamVeraSans-Roman-34"/>
      </g>
     </g>
    </g>
    <g id="ytick_3">
     <g id="line2d_25">
      <g>
       <use style="stroke:#000000;stroke-width:0.5;" x="216.010457296" xlink:href="#m19fc63546e" y="278.177731062"/>
      </g>
     </g>
     <g id="text_8">
      <!-- -0.2 -->
      <g transform="translate(188.597332296 281.488981062)scale(0.12 -0.12)">
       <use xlink:href="#BitstreamVeraSans-Roman-2d"/>
       <use x="36.083984375" xlink:href="#BitstreamVeraSans-Roman-30"/>
       <use x="99.70703125" xlink:href="#BitstreamVeraSans-Roman-2e"/>
       <use x="131.494140625" xlink:href="#BitstreamVeraSans-Roman-32"/>
      </g>
     </g>
    </g>
    <g id="ytick_4">
     <g id="line2d_26">
      <g>
       <use style="stroke:#000000;stroke-width:0.5;" x="216.010457296" xlink:href="#m19fc63546e" y="220.051243308"/>
      </g>
     </g>
    </g>
    <g id="ytick_5">
     <g id="line2d_27">
      <g>
       <use style="stroke:#000000;stroke-width:0.5;" x="216.010457296" xlink:href="#m19fc63546e" y="161.924755553"/>
      </g>
     </g>
     <g id="text_9">
      <!-- 0.2 -->
      <g transform="translate(192.926707296 165.236005553)scale(0.12 -0.12)">
       <use xlink:href="#BitstreamVeraSans-Roman-30"/>
       <use x="63.623046875" xlink:href="#BitstreamVeraSans-Roman-2e"/>
       <use x="95.41015625" xlink:href="#BitstreamVeraSans-Roman-32"/>
      </g>
     </g>
    </g>
    <g id="ytick_6">
     <g id="line2d_28">
      <g>
       <use style="stroke:#000000;stroke-width:0.5;" x="216.010457296" xlink:href="#m19fc63546e" y="103.798267798"/>
      </g>
     </g>
     <g id="text_10">
      <!-- 0.4 -->
      <g transform="translate(192.926707296 107.109517798)scale(0.12 -0.12)">
       <use xlink:href="#BitstreamVeraSans-Roman-30"/>
       <use x="63.623046875" xlink:href="#BitstreamVeraSans-Roman-2e"/>
       <use x="95.41015625" xlink:href="#BitstreamVeraSans-Roman-34"/>
      </g>
     </g>
    </g>
    <g id="ytick_7">
     <g id="line2d_29">
      <g>
       <use style="stroke:#000000;stroke-width:0.5;" x="216.010457296" xlink:href="#m19fc63546e" y="45.6717800439"/>
      </g>
     </g>
     <g id="text_11">
      <!-- 0.6 -->
      <g transform="translate(192.926707296 48.9830300439)scale(0.12 -0.12)">
       <use xlink:href="#BitstreamVeraSans-Roman-30"/>
       <use x="63.623046875" xlink:href="#BitstreamVeraSans-Roman-2e"/>
       <use x="95.41015625" xlink:href="#BitstreamVeraSans-Roman-36"/>
      </g>
     </g>
    </g>
    <g id="ytick_8">
     <g id="line2d_30">
      <defs>
       <path d="M 0 0 
L 2 0 
" id="mea6e60a3d5" style="stroke:#000000;stroke-width:0.5;"/>
      </defs>
      <g>
       <use style="stroke:#000000;stroke-width:0.5;" x="216.010457296" xlink:href="#mea6e60a3d5" y="408.96232851"/>
      </g>
     </g>
    </g>
    <g id="ytick_9">
     <g id="line2d_31">
      <g>
       <use style="stroke:#000000;stroke-width:0.5;" x="216.010457296" xlink:href="#mea6e60a3d5" y="379.899084633"/>
      </g>
     </g>
    </g>
    <g id="ytick_10">
     <g id="line2d_32">
      <g>
       <use style="stroke:#000000;stroke-width:0.5;" x="216.010457296" xlink:href="#mea6e60a3d5" y="365.367462694"/>
      </g>
     </g>
    </g>
    <g id="ytick_11">
     <g id="line2d_33">
      <g>
       <use style="stroke:#000000;stroke-width:0.5;" x="216.010457296" xlink:href="#mea6e60a3d5" y="350.835840756"/>
      </g>
     </g>
    </g>
    <g id="ytick_12">
     <g id="line2d_34">
      <g>
       <use style="stroke:#000000;stroke-width:0.5;" x="216.010457296" xlink:href="#mea6e60a3d5" y="321.772596878"/>
      </g>
     </g>
    </g>
    <g id="ytick_13">
     <g id="line2d_35">
      <g>
       <use style="stroke:#000000;stroke-width:0.5;" x="216.010457296" xlink:href="#mea6e60a3d5" y="307.24097494"/>
      </g>
     </g>
    </g>
    <g id="ytick_14">
     <g id="line2d_36">
      <g>
       <use style="stroke:#000000;stroke-width:0.5;" x="216.010457296" xlink:href="#mea6e60a3d5" y="292.709353001"/>
      </g>
     </g>
    </g>
    <g id="ytick_15">
     <g id="line2d_37">
      <g>
       <use style="stroke:#000000;stroke-width:0.5;" x="216.010457296" xlink:href="#mea6e60a3d5" y="263.646109124"/>
      </g>
     </g>
    </g>
    <g id="ytick_16">
     <g id="line2d_38">
      <g>
       <use style="stroke:#000000;stroke-width:0.5;" x="216.010457296" xlink:href="#mea6e60a3d5" y="249.114487185"/>
      </g>
     </g>
    </g>
    <g id="ytick_17">
     <g id="line2d_39">
      <g>
       <use style="stroke:#000000;stroke-width:0.5;" x="216.010457296" xlink:href="#mea6e60a3d5" y="234.582865246"/>
      </g>
     </g>
    </g>
    <g id="ytick_18">
     <g id="line2d_40">
      <g>
       <use style="stroke:#000000;stroke-width:0.5;" x="216.010457296" xlink:href="#mea6e60a3d5" y="205.519621369"/>
      </g>
     </g>
    </g>
    <g id="ytick_19">
     <g id="line2d_41">
      <g>
       <use style="stroke:#000000;stroke-width:0.5;" x="216.010457296" xlink:href="#mea6e60a3d5" y="190.98799943"/>
      </g>
     </g>
    </g>
    <g id="ytick_20">
     <g id="line2d_42">
      <g>
       <use style="stroke:#000000;stroke-width:0.5;" x="216.010457296" xlink:href="#mea6e60a3d5" y="176.456377492"/>
      </g>
     </g>
    </g>
    <g id="ytick_21">
     <g id="line2d_43">
      <g>
       <use style="stroke:#000000;stroke-width:0.5;" x="216.010457296" xlink:href="#mea6e60a3d5" y="147.393133614"/>
      </g>
     </g>
    </g>
    <g id="ytick_22">
     <g id="line2d_44">
      <g>
       <use style="stroke:#000000;stroke-width:0.5;" x="216.010457296" xlink:href="#mea6e60a3d5" y="132.861511676"/>
      </g>
     </g>
    </g>
    <g id="ytick_23">
     <g id="line2d_45">
      <g>
       <use style="stroke:#000000;stroke-width:0.5;" x="216.010457296" xlink:href="#mea6e60a3d5" y="118.329889737"/>
      </g>
     </g>
    </g>
    <g id="ytick_24">
     <g id="line2d_46">
      <g>
       <use style="stroke:#000000;stroke-width:0.5;" x="216.010457296" xlink:href="#mea6e60a3d5" y="89.2666458598"/>
      </g>
     </g>
    </g>
    <g id="ytick_25">
     <g id="line2d_47">
      <g>
       <use style="stroke:#000000;stroke-width:0.5;" x="216.010457296" xlink:href="#mea6e60a3d5" y="74.7350239212"/>
      </g>
     </g>
    </g>
    <g id="ytick_26">
     <g id="line2d_48">
      <g>
       <use style="stroke:#000000;stroke-width:0.5;" x="216.010457296" xlink:href="#mea6e60a3d5" y="60.2034019825"/>
      </g>
     </g>
    </g>
    <g id="text_12">
     <!-- $y$ -->
     <defs>
      <path d="M 8.40625 -14.3125 
Q 10.5 -17.921875 15.71875 -17.921875 
Q 20.453125 -17.921875 23.921875 -14.59375 
Q 27.390625 -11.28125 29.515625 -6.5625 
Q 31.640625 -1.859375 32.8125 3.078125 
Q 28.375 -1.125 23.1875 -1.125 
Q 19.234375 -1.125 16.453125 0.234375 
Q 13.671875 1.609375 12.125 4.3125 
Q 10.59375 7.03125 10.59375 10.890625 
Q 10.59375 14.15625 11.46875 17.59375 
Q 12.359375 21.046875 13.9375 25.265625 
Q 15.53125 29.5 16.703125 32.625 
Q 18.015625 36.28125 18.015625 38.625 
Q 18.015625 41.609375 15.828125 41.609375 
Q 11.859375 41.609375 9.296875 37.53125 
Q 6.734375 33.453125 5.515625 28.421875 
Q 5.328125 27.78125 4.6875 27.78125 
L 3.515625 27.78125 
Q 2.6875 27.78125 2.6875 28.71875 
L 2.6875 29 
Q 4.296875 34.96875 7.609375 39.578125 
Q 10.9375 44.1875 16.015625 44.1875 
Q 19.578125 44.1875 22.046875 41.84375 
Q 24.515625 39.5 24.515625 35.890625 
Q 24.515625 34.03125 23.6875 31.984375 
Q 23.25 30.765625 21.6875 26.65625 
Q 20.125 22.5625 19.28125 19.875 
Q 18.453125 17.1875 17.921875 14.59375 
Q 17.390625 12.015625 17.390625 9.421875 
Q 17.390625 6.109375 18.796875 3.8125 
Q 20.21875 1.515625 23.296875 1.515625 
Q 29.5 1.515625 34.421875 9.078125 
L 42 39.890625 
Q 42.328125 41.21875 43.546875 42.15625 
Q 44.78125 43.109375 46.1875 43.109375 
Q 47.40625 43.109375 48.3125 42.328125 
Q 49.21875 41.546875 49.21875 40.28125 
Q 49.21875 39.703125 49.125 39.5 
L 39.203125 -0.296875 
Q 37.890625 -5.421875 34.375 -10.109375 
Q 30.859375 -14.796875 25.90625 -17.65625 
Q 20.953125 -20.515625 15.578125 -20.515625 
Q 12.984375 -20.515625 10.4375 -19.5 
Q 7.90625 -18.5 6.34375 -16.5 
Q 4.78125 -14.5 4.78125 -11.8125 
Q 4.78125 -9.078125 6.390625 -7.078125 
Q 8.015625 -5.078125 10.6875 -5.078125 
Q 12.3125 -5.078125 13.40625 -6.078125 
Q 14.5 -7.078125 14.5 -8.6875 
Q 14.5 -10.984375 12.78125 -12.6875 
Q 11.078125 -14.40625 8.796875 -14.40625 
Q 8.6875 -14.359375 8.59375 -14.328125 
Q 8.5 -14.3125 8.40625 -14.3125 
" id="Cmmi10-79"/>
     </defs>
     <g transform="translate(211.260457296 21.5984375)scale(0.19 -0.19)">
      <use transform="translate(0.0 0.8125)" xlink:href="#Cmmi10-79"/>
     </g>
    </g>
   </g>
  </g>
 </g>
 <defs>
  <clipPath id="p216687d098">
   <rect height="380.08" width="413.018519902" x="7.2" y="33.5884375"/>
  </clipPath>
 </defs>
</svg>
