<?xml version="1.0" encoding="utf-8" standalone="no"?>
<!DOCTYPE svg PUBLIC "-//W3C//DTD SVG 1.1//EN"
  "http://www.w3.org/Graphics/SVG/1.1/DTD/svg11.dtd">
<!-- Created with matplotlib (http://matplotlib.org/) -->
<svg height="414pt" version="1.1" viewBox="0 0 562 414" width="562pt" xmlns="http://www.w3.org/2000/svg" xmlns:xlink="http://www.w3.org/1999/xlink">
 <defs>
  <style type="text/css">
*{stroke-linecap:butt;stroke-linejoin:round;stroke-miterlimit:100000;}
  </style>
 </defs>
 <g id="figure_1">
  <g id="patch_1">
   <path d="M 0 414.855665 
L 562.468097 414.855665 
L 562.468097 0 
L 0 0 
z
" style="fill:#ffffff;"/>
  </g>
  <g id="axes_1">
   <g id="patch_2">
    <path d="M 36.752586 397.049987 
L 540.238097 397.049987 
L 540.238097 34.2 
L 36.752586 34.2 
z
" style="fill:#ffffff;"/>
   </g>
   <g id="line2d_1">
    <path clip-path="url(#p410cf2f54b)" d="M 46.435 368.477493 
L 48.855603 367.153519 
L 51.276207 365.541008 
L 53.69681 363.638386 
L 56.117414 361.437391 
L 58.538017 358.924205 
L 60.95862 356.080136 
L 63.379224 352.881998 
L 65.799827 349.302281 
L 68.220431 345.309179 
L 70.641034 340.866511 
L 73.061638 335.933559 
L 75.482241 330.464858 
L 77.902844 324.409929 
L 80.323448 317.713008 
L 82.744051 310.312761 
L 85.164655 302.142029 
L 87.585258 293.127649 
L 90.005861 283.190411 
L 92.426465 272.245277 
L 94.847068 260.20203 
L 97.267672 246.966671 
L 99.688275 232.444089 
L 102.108879 216.542938 
L 104.529482 199.184369 
L 106.950085 180.317674 
L 109.854809 155.70167 
L 112.759534 129.159843 
L 119.537223 65.901637 
L 120.989585 54.763364 
L 121.957827 48.693665 
L 122.926068 44.144866 
L 123.410189 42.579535 
L 123.894309 41.569037 
L 124.37843 41.179081 
L 124.862551 41.477494 
L 125.346671 42.532766 
L 125.830792 44.412137 
L 126.314913 47.179193 
L 126.799033 50.890978 
L 127.767275 61.324108 
L 128.735516 75.906251 
L 129.703757 94.508248 
L 131.156119 128.694358 
L 135.997326 252.73863 
L 137.449688 280.936437 
L 138.41793 296.419199 
L 139.386171 309.454884 
L 140.354412 320.322673 
L 141.322654 329.32777 
L 142.290895 336.765247 
L 143.259137 342.901062 
L 144.227378 347.964676 
L 145.195619 352.148569 
L 146.163861 355.611293 
L 147.132102 358.481962 
L 148.100343 360.865015 
L 149.068585 362.844639 
L 150.520947 365.202255 
L 151.973309 366.977581 
L 153.425671 368.29841 
L 154.878033 369.258102 
L 156.330395 369.925338 
L 157.782757 370.350983 
L 159.235119 370.572928 
L 161.171602 370.599911 
L 163.108085 370.362672 
L 165.044567 369.893927 
L 166.98105 369.215399 
L 169.401653 368.092668 
L 171.822257 366.677701 
L 174.24286 364.974517 
L 176.663464 362.979281 
L 179.084067 360.681889 
L 181.504671 358.066932 
L 183.925274 355.114278 
L 186.345877 351.799369 
L 188.766481 348.09335 
L 191.187084 343.963051 
L 193.607688 339.370885 
L 196.028291 334.274669 
L 198.448894 328.627389 
L 200.869498 322.376938 
L 203.290101 315.46583 
L 205.710705 307.830924 
L 208.131308 299.403189 
L 210.551911 290.107557 
L 212.972515 279.862946 
L 215.393118 268.582594 
L 217.813722 256.174896 
L 220.234325 242.545135 
L 222.654929 227.59872 
L 225.075532 211.247042 
L 227.496135 193.417963 
L 229.916739 174.074632 
L 232.821463 148.917903 
L 236.210308 117.346271 
L 241.051515 71.806215 
L 242.503877 59.814734 
L 243.472118 52.897072 
L 244.440359 47.219893 
L 245.408601 43.185901 
L 245.892721 41.92982 
L 246.376842 41.265803 
L 246.860963 41.26092 
L 247.345083 41.983583 
L 247.829204 43.501836 
L 248.313325 45.881155 
L 248.797445 49.181769 
L 249.281566 53.455522 
L 250.249807 65.066813 
L 251.218049 80.827455 
L 252.18629 100.49992 
L 253.638652 135.841369 
L 257.511618 237.222338 
L 258.96398 268.266798 
L 260.416342 293.317017 
L 261.384583 306.855213 
L 262.352825 318.1619 
L 263.321066 327.540436 
L 264.289307 335.290163 
L 265.257549 341.684208 
L 266.22579 346.960068 
L 267.194031 351.317969 
L 268.162273 354.923377 
L 269.130514 357.911309 
L 270.098755 360.391101 
L 271.066997 362.450932 
L 272.519359 364.904728 
L 273.971721 366.754434 
L 275.424083 368.133771 
L 276.876445 369.140342 
L 278.328807 369.845874 
L 279.781169 370.30344 
L 281.233531 370.552547 
L 283.170014 370.610364 
L 285.106497 370.399631 
L 287.042979 369.954478 
L 288.979462 369.297639 
L 290.915945 368.443648 
L 293.336548 367.111361 
L 295.757152 365.4906 
L 298.177755 363.579579 
L 300.598358 361.369862 
L 303.018962 358.847484 
L 305.439565 355.993621 
L 307.860169 352.78496 
L 310.280772 349.19387 
L 312.701376 345.188421 
L 315.121979 340.732304 
L 317.542582 335.784669 
L 319.963186 330.299909 
L 322.383789 324.2274 
L 324.804393 317.511223 
L 327.224996 310.089879 
L 329.645599 301.896038 
L 332.066203 292.856365 
L 334.486806 282.891479 
L 336.90741 271.916182 
L 339.328013 259.840124 
L 341.748617 246.569228 
L 344.16922 232.008412 
L 346.589823 216.06654 
L 349.010427 198.665309 
L 351.43103 179.755152 
L 354.335754 155.089199 
L 357.724599 123.931816 
L 363.534047 69.407076 
L 364.986409 57.73184 
L 365.954651 51.131707 
L 366.922892 45.879931 
L 367.407013 43.88909 
L 367.891133 42.39926 
L 368.375254 41.473497 
L 368.859375 41.177884 
L 369.343495 41.580444 
L 369.827616 42.749615 
L 370.311737 44.752276 
L 370.795858 47.651262 
L 371.279978 51.502419 
L 372.24822 62.229303 
L 373.216461 77.107884 
L 374.184702 95.982378 
L 375.637064 130.469745 
L 380.478271 254.221293 
L 381.930633 282.130818 
L 382.898875 297.430544 
L 383.867116 310.301205 
L 384.835357 321.025494 
L 385.803599 329.908857 
L 386.77184 337.244745 
L 387.740081 343.29664 
L 388.708323 348.291319 
L 389.676564 352.418703 
L 390.644806 355.83508 
L 391.613047 358.667642 
L 392.581288 361.019237 
L 393.54953 362.972759 
L 395.001892 365.299037 
L 396.454254 367.050092 
L 397.906616 368.351795 
L 399.358978 369.296136 
L 400.81134 369.950807 
L 402.263702 370.365959 
L 403.716064 370.578956 
L 405.652547 370.595759 
L 407.589029 370.349748 
L 409.525512 369.873176 
L 411.461995 369.187436 
L 413.882598 368.056197 
L 416.303202 366.632965 
L 418.723805 364.921507 
L 421.144409 362.917789 
L 423.565012 360.611544 
L 425.985615 357.987222 
L 428.406219 355.02456 
L 430.826822 351.698878 
L 433.247426 347.981195 
L 435.668029 343.83822 
L 438.088632 339.232235 
L 440.509236 334.120922 
L 442.929839 328.457126 
L 445.350443 322.18859 
L 447.771046 315.257669 
L 450.191649 307.601057 
L 452.612253 299.149552 
L 455.032856 289.827911 
L 457.45346 279.554885 
L 459.874063 268.243556 
L 462.294667 255.802203 
L 464.71527 242.136057 
L 467.135873 227.1506 
L 469.556477 210.75752 
L 471.97708 192.885376 
L 474.397684 173.498732 
L 477.302408 148.29369 
L 480.691253 116.683816 
L 485.532459 71.201245 
L 486.984821 59.285942 
L 487.953063 52.445169 
L 488.921304 46.87135 
L 489.889545 42.972225 
L 490.373666 41.79685 
L 490.857787 41.223002 
L 491.341908 41.318032 
L 491.826028 42.150416 
L 492.310149 43.787975 
L 492.79427 46.295611 
L 493.27839 49.732554 
L 494.246632 59.583436 
L 495.214873 73.573036 
L 496.183114 91.624099 
L 497.635476 125.187169 
L 502.960804 260.005636 
L 504.413166 286.765069 
L 505.381407 301.345098 
L 506.349649 313.57168 
L 507.31789 323.738748 
L 508.286131 332.151025 
L 509.254373 339.094642 
L 510.222614 344.822917 
L 511.190856 349.551911 
L 512.159097 353.46152 
L 513.127338 356.699229 
L 514.09558 359.384797 
L 515.063821 361.614945 
L 516.032062 363.467591 
L 517.484424 365.672593 
L 518.936786 367.329529 
L 520.389149 368.556911 
L 521.841511 369.441461 
L 523.293873 370.04708 
L 524.746235 370.421164 
L 526.198597 370.599061 
L 528.135079 370.575814 
L 530.071562 370.295178 
L 530.555683 370.188625 
L 530.555683 370.188625 
" style="fill:none;stroke:#ff0000;stroke-linecap:square;stroke-width:2.0;"/>
   </g>
   <g id="line2d_2">
    <path clip-path="url(#p410cf2f54b)" d="M 46.435 368.477493 
L 48.371483 371.944504 
L 50.307965 374.868547 
L 52.244448 377.334416 
L 54.180931 379.414133 
L 56.117414 381.16865 
L 58.053896 382.6494 
L 60.4745 384.180646 
L 62.895103 385.420959 
L 65.315707 386.426272 
L 68.220431 387.384869 
L 71.609276 388.236552 
L 75.482241 388.944226 
L 79.839327 389.489926 
L 84.680534 389.865437 
L 90.005861 390.056336 
L 95.331189 390.02503 
L 99.688275 389.790339 
L 103.07712 389.407405 
L 105.981844 388.852032 
L 108.402447 388.131893 
L 110.33893 387.294601 
L 111.791292 386.444509 
L 113.243654 385.328519 
L 114.696016 383.847854 
L 115.664258 382.590867 
L 116.632499 381.054802 
L 117.60074 379.169081 
L 118.568982 376.844444 
L 119.537223 373.968634 
L 120.505464 370.401802 
L 121.473706 365.97233 
L 122.441947 360.474418 
L 123.410189 353.669785 
L 124.37843 345.297121 
L 125.346671 335.094247 
L 126.314913 322.838284 
L 127.283154 308.407061 
L 128.735516 282.877311 
L 133.092602 198.650575 
L 134.060844 184.943202 
L 135.029085 174.945645 
L 135.513206 171.431987 
L 135.997326 168.909436 
L 136.481447 167.35212 
L 136.965568 166.716917 
L 137.449688 166.947231 
L 137.933809 167.976739 
L 138.41793 169.732867 
L 138.90205 172.139859 
L 139.870292 178.60237 
L 140.838533 186.779293 
L 142.290895 201.138003 
L 149.068585 272.207602 
L 151.005067 289.223911 
L 152.94155 304.197835 
L 154.878033 317.205482 
L 156.814516 328.404118 
L 158.750998 337.984164 
L 160.687481 346.142169 
L 162.623964 353.066309 
L 164.560447 358.929258 
L 166.496929 363.885325 
L 168.433412 368.069996 
L 170.369895 371.600775 
L 172.306378 374.578674 
L 174.24286 377.089959 
L 176.179343 379.207937 
L 178.115826 380.994668 
L 180.052308 382.502535 
L 182.472912 384.061732 
L 184.893515 385.324606 
L 187.314119 386.348156 
L 190.218843 387.324138 
L 193.607688 388.191358 
L 197.480653 388.91225 
L 201.837739 389.468879 
L 206.678946 389.853543 
L 212.004274 390.052936 
L 217.329601 390.030896 
L 221.686687 389.807113 
L 225.075532 389.437744 
L 227.980256 388.901156 
L 230.400859 388.205877 
L 232.337342 387.398652 
L 233.789704 386.580293 
L 235.242066 385.507525 
L 236.694428 384.086405 
L 237.66267 382.881516 
L 238.630911 381.410612 
L 239.599152 379.606604 
L 240.567394 377.384582 
L 241.535635 374.6376 
L 242.503877 371.232098 
L 243.472118 367.003556 
L 244.440359 361.75354 
L 245.408601 355.25026 
L 246.376842 347.235992 
L 247.345083 337.446049 
L 248.313325 325.644698 
L 249.281566 311.682001 
L 250.733928 286.776632 
L 252.670411 248.33019 
L 254.606894 210.36497 
L 255.575135 194.385252 
L 256.543376 181.688758 
L 257.511618 172.815101 
L 257.995738 169.869974 
L 258.479859 167.903494 
L 258.96398 166.879473 
L 259.4481 166.746622 
L 259.932221 167.442339 
L 260.416342 168.896325 
L 260.900463 171.033845 
L 261.868704 177.054538 
L 262.836945 184.910762 
L 264.289307 198.980493 
L 267.194031 230.436138 
L 270.098755 260.907208 
L 272.035238 279.136141 
L 273.971721 295.349026 
L 275.908204 309.535449 
L 277.844686 321.810957 
L 279.781169 332.35017 
L 281.717652 341.3483 
L 283.654135 348.999839 
L 285.590617 355.487433 
L 287.5271 360.976719 
L 289.463583 365.614573 
L 291.400066 369.529268 
L 293.336548 372.831633 
L 295.273031 375.61667 
L 297.209514 377.965343 
L 299.145996 379.946342 
L 301.082479 381.617749 
L 303.018962 383.028538 
L 305.439565 384.487664 
L 307.860169 385.669756 
L 310.280772 386.627987 
L 313.185496 387.541685 
L 316.574341 388.353198 
L 320.447306 389.026641 
L 324.804393 389.543937 
L 329.645599 389.895484 
L 334.970927 390.063809 
L 340.296254 390.007298 
L 344.653341 389.742295 
L 348.042185 389.321136 
L 350.462789 388.835241 
L 352.883392 388.106581 
L 354.819875 387.258964 
L 356.272237 386.397959 
L 357.724599 385.26709 
L 359.176961 383.765903 
L 360.145202 382.490949 
L 361.113444 380.932403 
L 362.081685 379.01848 
L 363.049927 376.658426 
L 364.018168 373.73816 
L 364.986409 370.115686 
L 365.954651 365.616989 
L 366.922892 360.033819 
L 367.891133 353.125811 
L 368.859375 344.630675 
L 369.827616 334.287463 
L 370.795858 321.878212 
L 371.764099 307.290846 
L 373.216461 281.558257 
L 377.573547 197.557888 
L 378.541788 184.098998 
L 379.51003 174.38137 
L 379.99415 171.010419 
L 380.478271 168.628069 
L 380.962392 167.205753 
L 381.446513 166.698186 
L 381.930633 167.047154 
L 382.414754 168.185234 
L 382.898875 170.03922 
L 383.867116 175.590659 
L 384.835357 183.101386 
L 386.287719 196.851965 
L 388.708323 222.855867 
L 392.097168 258.842443 
L 394.03365 277.278163 
L 395.970133 293.710555 
L 397.906616 308.110043 
L 399.843098 320.582522 
L 401.779581 331.298513 
L 403.716064 340.452274 
L 405.652547 348.239043 
L 407.589029 354.843062 
L 409.525512 360.431918 
L 411.461995 365.154513 
L 413.398478 369.14107 
L 415.33496 372.504213 
L 417.271443 375.340556 
L 419.207926 377.73248 
L 421.144409 379.74991 
L 423.080891 381.451986 
L 425.017374 382.888592 
L 427.437977 384.374333 
L 429.858581 385.577912 
L 432.279184 386.553522 
L 435.183908 387.483798 
L 438.572753 388.310149 
L 442.445719 388.996246 
L 446.802805 389.524061 
L 451.644012 389.884513 
L 456.969339 390.061286 
L 462.294667 390.014307 
L 466.651753 389.760879 
L 470.040597 389.354406 
L 472.945322 388.766213 
L 474.881804 388.181461 
L 476.818287 387.36433 
L 478.270649 386.535524 
L 479.723011 385.448534 
L 481.175373 384.007831 
L 482.143615 382.785814 
L 483.111856 381.293492 
L 484.080097 379.46263 
L 485.048339 377.206886 
L 486.01658 374.417564 
L 486.984821 370.959025 
L 487.953063 366.664392 
L 488.921304 361.332767 
L 489.889545 354.730152 
L 490.857787 346.597523 
L 491.826028 336.670837 
L 492.79427 324.718356 
L 493.762511 310.599014 
L 495.214873 285.482326 
L 497.635476 237.041147 
L 499.087838 209.12995 
L 500.05608 193.358903 
L 501.024321 180.922816 
L 501.992563 172.332638 
L 502.476683 169.529112 
L 502.960804 167.700124 
L 503.444925 166.807093 
L 503.929045 166.79688 
L 504.413166 167.605565 
L 504.897287 169.162026 
L 505.381407 171.391131 
L 506.349649 177.562452 
L 507.31789 185.528536 
L 508.770252 199.698106 
L 512.159097 236.450979 
L 514.5797 261.59232 
L 516.516183 279.751567 
L 518.452666 295.891121 
L 520.389149 310.006679 
L 522.325631 322.216846 
L 524.262114 332.697513 
L 526.198597 341.644158 
L 528.135079 349.250994 
L 530.071562 355.700123 
L 530.555683 357.151257 
L 530.555683 357.151257 
" style="fill:none;stroke:#0000ff;stroke-linecap:square;stroke-width:2.0;"/>
   </g>
   <g id="patch_3">
    <path d="M 36.752586 392.041915 
L 540.238097 392.041915 
" style="fill:none;stroke:#000000;stroke-linecap:square;stroke-linejoin:miter;stroke-width:0.8;"/>
   </g>
   <g id="patch_4">
    <path d="M 46.435 397.049987 
L 46.435 34.2 
" style="fill:none;stroke:#000000;stroke-linecap:square;stroke-linejoin:miter;stroke-width:0.8;"/>
   </g>
   <g id="matplotlib.axis_1">
    <g id="xtick_1">
     <g id="line2d_3">
      <defs>
       <path d="M 0 0 
L 0 -4 
" id="m4b735c6dc3" style="stroke:#000000;stroke-width:0.5;"/>
      </defs>
      <g>
       <use style="stroke:#000000;stroke-width:0.5;" x="46.435" xlink:href="#m4b735c6dc3" y="392.041914897"/>
      </g>
     </g>
    </g>
    <g id="xtick_2">
     <g id="line2d_4">
      <g>
       <use style="stroke:#000000;stroke-width:0.5;" x="143.259136569" xlink:href="#m4b735c6dc3" y="392.041914897"/>
      </g>
     </g>
     <g id="text_1">
      <!-- 2 -->
      <defs>
       <path d="M 19.1875 8.296875 
L 53.609375 8.296875 
L 53.609375 0 
L 7.328125 0 
L 7.328125 8.296875 
Q 12.9375 14.109375 22.625 23.890625 
Q 32.328125 33.6875 34.8125 36.53125 
Q 39.546875 41.84375 41.421875 45.53125 
Q 43.3125 49.21875 43.3125 52.78125 
Q 43.3125 58.59375 39.234375 62.25 
Q 35.15625 65.921875 28.609375 65.921875 
Q 23.96875 65.921875 18.8125 64.3125 
Q 13.671875 62.703125 7.8125 59.421875 
L 7.8125 69.390625 
Q 13.765625 71.78125 18.9375 73 
Q 24.125 74.21875 28.421875 74.21875 
Q 39.75 74.21875 46.484375 68.546875 
Q 53.21875 62.890625 53.21875 53.421875 
Q 53.21875 48.921875 51.53125 44.890625 
Q 49.859375 40.875 45.40625 35.40625 
Q 44.1875 33.984375 37.640625 27.21875 
Q 31.109375 20.453125 19.1875 8.296875 
" id="BitstreamVeraSans-Roman-32"/>
      </defs>
      <g transform="translate(139.441636569 405.160039897)scale(0.12 -0.12)">
       <use xlink:href="#BitstreamVeraSans-Roman-32"/>
      </g>
     </g>
    </g>
    <g id="xtick_3">
     <g id="line2d_5">
      <g>
       <use style="stroke:#000000;stroke-width:0.5;" x="240.083273138" xlink:href="#m4b735c6dc3" y="392.041914897"/>
      </g>
     </g>
     <g id="text_2">
      <!-- 4 -->
      <defs>
       <path d="M 37.796875 64.3125 
L 12.890625 25.390625 
L 37.796875 25.390625 
z
M 35.203125 72.90625 
L 47.609375 72.90625 
L 47.609375 25.390625 
L 58.015625 25.390625 
L 58.015625 17.1875 
L 47.609375 17.1875 
L 47.609375 0 
L 37.796875 0 
L 37.796875 17.1875 
L 4.890625 17.1875 
L 4.890625 26.703125 
z
" id="BitstreamVeraSans-Roman-34"/>
      </defs>
      <g transform="translate(236.265773138 405.160039897)scale(0.12 -0.12)">
       <use xlink:href="#BitstreamVeraSans-Roman-34"/>
      </g>
     </g>
    </g>
    <g id="xtick_4">
     <g id="line2d_6">
      <g>
       <use style="stroke:#000000;stroke-width:0.5;" x="336.907409708" xlink:href="#m4b735c6dc3" y="392.041914897"/>
      </g>
     </g>
     <g id="text_3">
      <!-- 6 -->
      <defs>
       <path d="M 33.015625 40.375 
Q 26.375 40.375 22.484375 35.828125 
Q 18.609375 31.296875 18.609375 23.390625 
Q 18.609375 15.53125 22.484375 10.953125 
Q 26.375 6.390625 33.015625 6.390625 
Q 39.65625 6.390625 43.53125 10.953125 
Q 47.40625 15.53125 47.40625 23.390625 
Q 47.40625 31.296875 43.53125 35.828125 
Q 39.65625 40.375 33.015625 40.375 
M 52.59375 71.296875 
L 52.59375 62.3125 
Q 48.875 64.0625 45.09375 64.984375 
Q 41.3125 65.921875 37.59375 65.921875 
Q 27.828125 65.921875 22.671875 59.328125 
Q 17.53125 52.734375 16.796875 39.40625 
Q 19.671875 43.65625 24.015625 45.921875 
Q 28.375 48.1875 33.59375 48.1875 
Q 44.578125 48.1875 50.953125 41.515625 
Q 57.328125 34.859375 57.328125 23.390625 
Q 57.328125 12.15625 50.6875 5.359375 
Q 44.046875 -1.421875 33.015625 -1.421875 
Q 20.359375 -1.421875 13.671875 8.265625 
Q 6.984375 17.96875 6.984375 36.375 
Q 6.984375 53.65625 15.1875 63.9375 
Q 23.390625 74.21875 37.203125 74.21875 
Q 40.921875 74.21875 44.703125 73.484375 
Q 48.484375 72.75 52.59375 71.296875 
" id="BitstreamVeraSans-Roman-36"/>
      </defs>
      <g transform="translate(333.089909708 405.160039897)scale(0.12 -0.12)">
       <use xlink:href="#BitstreamVeraSans-Roman-36"/>
      </g>
     </g>
    </g>
    <g id="xtick_5">
     <g id="line2d_7">
      <g>
       <use style="stroke:#000000;stroke-width:0.5;" x="433.731546277" xlink:href="#m4b735c6dc3" y="392.041914897"/>
      </g>
     </g>
     <g id="text_4">
      <!-- 8 -->
      <defs>
       <path d="M 31.78125 34.625 
Q 24.75 34.625 20.71875 30.859375 
Q 16.703125 27.09375 16.703125 20.515625 
Q 16.703125 13.921875 20.71875 10.15625 
Q 24.75 6.390625 31.78125 6.390625 
Q 38.8125 6.390625 42.859375 10.171875 
Q 46.921875 13.96875 46.921875 20.515625 
Q 46.921875 27.09375 42.890625 30.859375 
Q 38.875 34.625 31.78125 34.625 
M 21.921875 38.8125 
Q 15.578125 40.375 12.03125 44.71875 
Q 8.5 49.078125 8.5 55.328125 
Q 8.5 64.0625 14.71875 69.140625 
Q 20.953125 74.21875 31.78125 74.21875 
Q 42.671875 74.21875 48.875 69.140625 
Q 55.078125 64.0625 55.078125 55.328125 
Q 55.078125 49.078125 51.53125 44.71875 
Q 48 40.375 41.703125 38.8125 
Q 48.828125 37.15625 52.796875 32.3125 
Q 56.78125 27.484375 56.78125 20.515625 
Q 56.78125 9.90625 50.3125 4.234375 
Q 43.84375 -1.421875 31.78125 -1.421875 
Q 19.734375 -1.421875 13.25 4.234375 
Q 6.78125 9.90625 6.78125 20.515625 
Q 6.78125 27.484375 10.78125 32.3125 
Q 14.796875 37.15625 21.921875 38.8125 
M 18.3125 54.390625 
Q 18.3125 48.734375 21.84375 45.5625 
Q 25.390625 42.390625 31.78125 42.390625 
Q 38.140625 42.390625 41.71875 45.5625 
Q 45.3125 48.734375 45.3125 54.390625 
Q 45.3125 60.0625 41.71875 63.234375 
Q 38.140625 66.40625 31.78125 66.40625 
Q 25.390625 66.40625 21.84375 63.234375 
Q 18.3125 60.0625 18.3125 54.390625 
" id="BitstreamVeraSans-Roman-38"/>
      </defs>
      <g transform="translate(429.914046277 405.160039897)scale(0.12 -0.12)">
       <use xlink:href="#BitstreamVeraSans-Roman-38"/>
      </g>
     </g>
    </g>
    <g id="xtick_6">
     <g id="line2d_8">
      <g>
       <use style="stroke:#000000;stroke-width:0.5;" x="530.555682846" xlink:href="#m4b735c6dc3" y="392.041914897"/>
      </g>
     </g>
     <g id="text_5">
      <!-- 10 -->
      <defs>
       <path d="M 31.78125 66.40625 
Q 24.171875 66.40625 20.328125 58.90625 
Q 16.5 51.421875 16.5 36.375 
Q 16.5 21.390625 20.328125 13.890625 
Q 24.171875 6.390625 31.78125 6.390625 
Q 39.453125 6.390625 43.28125 13.890625 
Q 47.125 21.390625 47.125 36.375 
Q 47.125 51.421875 43.28125 58.90625 
Q 39.453125 66.40625 31.78125 66.40625 
M 31.78125 74.21875 
Q 44.046875 74.21875 50.515625 64.515625 
Q 56.984375 54.828125 56.984375 36.375 
Q 56.984375 17.96875 50.515625 8.265625 
Q 44.046875 -1.421875 31.78125 -1.421875 
Q 19.53125 -1.421875 13.0625 8.265625 
Q 6.59375 17.96875 6.59375 36.375 
Q 6.59375 54.828125 13.0625 64.515625 
Q 19.53125 74.21875 31.78125 74.21875 
" id="BitstreamVeraSans-Roman-30"/>
       <path d="M 12.40625 8.296875 
L 28.515625 8.296875 
L 28.515625 63.921875 
L 10.984375 60.40625 
L 10.984375 69.390625 
L 28.421875 72.90625 
L 38.28125 72.90625 
L 38.28125 8.296875 
L 54.390625 8.296875 
L 54.390625 0 
L 12.40625 0 
z
" id="BitstreamVeraSans-Roman-31"/>
      </defs>
      <g transform="translate(522.920682846 405.160039897)scale(0.12 -0.12)">
       <use xlink:href="#BitstreamVeraSans-Roman-31"/>
       <use x="63.623046875" xlink:href="#BitstreamVeraSans-Roman-30"/>
      </g>
     </g>
    </g>
    <g id="xtick_7">
     <g id="line2d_9">
      <defs>
       <path d="M 0 0 
L 0 -2 
" id="m40f30f1d0a" style="stroke:#000000;stroke-width:0.5;"/>
      </defs>
      <g>
       <use style="stroke:#000000;stroke-width:0.5;" x="70.6410341423" xlink:href="#m40f30f1d0a" y="392.041914897"/>
      </g>
     </g>
    </g>
    <g id="xtick_8">
     <g id="line2d_10">
      <g>
       <use style="stroke:#000000;stroke-width:0.5;" x="94.8470682846" xlink:href="#m40f30f1d0a" y="392.041914897"/>
      </g>
     </g>
    </g>
    <g id="xtick_9">
     <g id="line2d_11">
      <g>
       <use style="stroke:#000000;stroke-width:0.5;" x="119.053102427" xlink:href="#m40f30f1d0a" y="392.041914897"/>
      </g>
     </g>
    </g>
    <g id="xtick_10">
     <g id="line2d_12">
      <g>
       <use style="stroke:#000000;stroke-width:0.5;" x="167.465170712" xlink:href="#m40f30f1d0a" y="392.041914897"/>
      </g>
     </g>
    </g>
    <g id="xtick_11">
     <g id="line2d_13">
      <g>
       <use style="stroke:#000000;stroke-width:0.5;" x="191.671204854" xlink:href="#m40f30f1d0a" y="392.041914897"/>
      </g>
     </g>
    </g>
    <g id="xtick_12">
     <g id="line2d_14">
      <g>
       <use style="stroke:#000000;stroke-width:0.5;" x="215.877238996" xlink:href="#m40f30f1d0a" y="392.041914897"/>
      </g>
     </g>
    </g>
    <g id="xtick_13">
     <g id="line2d_15">
      <g>
       <use style="stroke:#000000;stroke-width:0.5;" x="264.289307281" xlink:href="#m40f30f1d0a" y="392.041914897"/>
      </g>
     </g>
    </g>
    <g id="xtick_14">
     <g id="line2d_16">
      <g>
       <use style="stroke:#000000;stroke-width:0.5;" x="288.495341423" xlink:href="#m40f30f1d0a" y="392.041914897"/>
      </g>
     </g>
    </g>
    <g id="xtick_15">
     <g id="line2d_17">
      <g>
       <use style="stroke:#000000;stroke-width:0.5;" x="312.701375565" xlink:href="#m40f30f1d0a" y="392.041914897"/>
      </g>
     </g>
    </g>
    <g id="xtick_16">
     <g id="line2d_18">
      <g>
       <use style="stroke:#000000;stroke-width:0.5;" x="361.11344385" xlink:href="#m40f30f1d0a" y="392.041914897"/>
      </g>
     </g>
    </g>
    <g id="xtick_17">
     <g id="line2d_19">
      <g>
       <use style="stroke:#000000;stroke-width:0.5;" x="385.319477992" xlink:href="#m40f30f1d0a" y="392.041914897"/>
      </g>
     </g>
    </g>
    <g id="xtick_18">
     <g id="line2d_20">
      <g>
       <use style="stroke:#000000;stroke-width:0.5;" x="409.525512135" xlink:href="#m40f30f1d0a" y="392.041914897"/>
      </g>
     </g>
    </g>
    <g id="xtick_19">
     <g id="line2d_21">
      <g>
       <use style="stroke:#000000;stroke-width:0.5;" x="457.937580419" xlink:href="#m40f30f1d0a" y="392.041914897"/>
      </g>
     </g>
    </g>
    <g id="xtick_20">
     <g id="line2d_22">
      <g>
       <use style="stroke:#000000;stroke-width:0.5;" x="482.143614562" xlink:href="#m40f30f1d0a" y="392.041914897"/>
      </g>
     </g>
    </g>
    <g id="xtick_21">
     <g id="line2d_23">
      <g>
       <use style="stroke:#000000;stroke-width:0.5;" x="506.349648704" xlink:href="#m40f30f1d0a" y="392.041914897"/>
      </g>
     </g>
    </g>
    <g id="text_6">
     <!-- $t$ -->
     <defs>
      <path d="M 6.203125 8.109375 
Q 6.203125 9.578125 6.5 10.890625 
L 13.71875 39.59375 
L 3.21875 39.59375 
Q 2.203125 39.59375 2.203125 40.921875 
Q 2.59375 43.109375 3.515625 43.109375 
L 14.59375 43.109375 
L 18.609375 59.421875 
Q 19 60.75 20.171875 61.671875 
Q 21.34375 62.59375 22.796875 62.59375 
Q 24.078125 62.59375 24.921875 61.828125 
Q 25.78125 61.078125 25.78125 59.8125 
Q 25.78125 59.515625 25.75 59.34375 
Q 25.734375 59.1875 25.6875 58.984375 
L 21.6875 43.109375 
L 31.984375 43.109375 
Q 33.015625 43.109375 33.015625 41.796875 
Q 32.953125 41.546875 32.8125 40.953125 
Q 32.671875 40.375 32.421875 39.984375 
Q 32.171875 39.59375 31.6875 39.59375 
L 20.796875 39.59375 
L 13.625 10.6875 
Q 12.890625 7.859375 12.890625 5.8125 
Q 12.890625 1.515625 15.828125 1.515625 
Q 20.21875 1.515625 23.609375 5.640625 
Q 27 9.765625 28.8125 14.703125 
Q 29.203125 15.28125 29.59375 15.28125 
L 30.8125 15.28125 
Q 31.203125 15.28125 31.4375 15.015625 
Q 31.6875 14.75 31.6875 14.40625 
Q 31.6875 14.203125 31.59375 14.109375 
Q 29.390625 8.0625 25.1875 3.46875 
Q 21 -1.125 15.578125 -1.125 
Q 11.625 -1.125 8.90625 1.453125 
Q 6.203125 4.046875 6.203125 8.109375 
" id="Cmmi10-74"/>
     </defs>
     <g transform="translate(548.238096503 392.041914897)scale(0.19 -0.19)">
      <use transform="translate(0.0 0.40625)" xlink:href="#Cmmi10-74"/>
     </g>
    </g>
   </g>
   <g id="matplotlib.axis_2">
    <g id="ytick_1">
     <g id="line2d_24">
      <defs>
       <path d="M 0 0 
L 4 0 
" id="mc3982522b8" style="stroke:#000000;stroke-width:0.5;"/>
      </defs>
      <g>
       <use style="stroke:#000000;stroke-width:0.5;" x="46.435" xlink:href="#mc3982522b8" y="392.041914897"/>
      </g>
     </g>
    </g>
    <g id="ytick_2">
     <g id="line2d_25">
      <g>
       <use style="stroke:#000000;stroke-width:0.5;" x="46.435" xlink:href="#mc3982522b8" y="344.913071312"/>
      </g>
     </g>
     <g id="text_7">
      <!-- 2 -->
      <g transform="translate(34.8 348.224321312)scale(0.12 -0.12)">
       <use xlink:href="#BitstreamVeraSans-Roman-32"/>
      </g>
     </g>
    </g>
    <g id="ytick_3">
     <g id="line2d_26">
      <g>
       <use style="stroke:#000000;stroke-width:0.5;" x="46.435" xlink:href="#mc3982522b8" y="297.784227726"/>
      </g>
     </g>
     <g id="text_8">
      <!-- 4 -->
      <g transform="translate(34.8 301.095477726)scale(0.12 -0.12)">
       <use xlink:href="#BitstreamVeraSans-Roman-34"/>
      </g>
     </g>
    </g>
    <g id="ytick_4">
     <g id="line2d_27">
      <g>
       <use style="stroke:#000000;stroke-width:0.5;" x="46.435" xlink:href="#mc3982522b8" y="250.65538414"/>
      </g>
     </g>
     <g id="text_9">
      <!-- 6 -->
      <g transform="translate(34.8 253.96663414)scale(0.12 -0.12)">
       <use xlink:href="#BitstreamVeraSans-Roman-36"/>
      </g>
     </g>
    </g>
    <g id="ytick_5">
     <g id="line2d_28">
      <g>
       <use style="stroke:#000000;stroke-width:0.5;" x="46.435" xlink:href="#mc3982522b8" y="203.526540555"/>
      </g>
     </g>
     <g id="text_10">
      <!-- 8 -->
      <g transform="translate(34.8 206.837790555)scale(0.12 -0.12)">
       <use xlink:href="#BitstreamVeraSans-Roman-38"/>
      </g>
     </g>
    </g>
    <g id="ytick_6">
     <g id="line2d_29">
      <g>
       <use style="stroke:#000000;stroke-width:0.5;" x="46.435" xlink:href="#mc3982522b8" y="156.397696969"/>
      </g>
     </g>
     <g id="text_11">
      <!-- 10 -->
      <g transform="translate(27.165 159.708946969)scale(0.12 -0.12)">
       <use xlink:href="#BitstreamVeraSans-Roman-31"/>
       <use x="63.623046875" xlink:href="#BitstreamVeraSans-Roman-30"/>
      </g>
     </g>
    </g>
    <g id="ytick_7">
     <g id="line2d_30">
      <g>
       <use style="stroke:#000000;stroke-width:0.5;" x="46.435" xlink:href="#mc3982522b8" y="109.268853384"/>
      </g>
     </g>
     <g id="text_12">
      <!-- 12 -->
      <g transform="translate(27.165 112.580103384)scale(0.12 -0.12)">
       <use xlink:href="#BitstreamVeraSans-Roman-31"/>
       <use x="63.623046875" xlink:href="#BitstreamVeraSans-Roman-32"/>
      </g>
     </g>
    </g>
    <g id="ytick_8">
     <g id="line2d_31">
      <g>
       <use style="stroke:#000000;stroke-width:0.5;" x="46.435" xlink:href="#mc3982522b8" y="62.1400097983"/>
      </g>
     </g>
     <g id="text_13">
      <!-- 14 -->
      <g transform="translate(27.165 65.4512597983)scale(0.12 -0.12)">
       <use xlink:href="#BitstreamVeraSans-Roman-31"/>
       <use x="63.623046875" xlink:href="#BitstreamVeraSans-Roman-34"/>
      </g>
     </g>
    </g>
    <g id="ytick_9">
     <g id="line2d_32">
      <defs>
       <path d="M 0 0 
L 2 0 
" id="mbd98b149d1" style="stroke:#000000;stroke-width:0.5;"/>
      </defs>
      <g>
       <use style="stroke:#000000;stroke-width:0.5;" x="46.435" xlink:href="#mbd98b149d1" y="380.259704001"/>
      </g>
     </g>
    </g>
    <g id="ytick_10">
     <g id="line2d_33">
      <g>
       <use style="stroke:#000000;stroke-width:0.5;" x="46.435" xlink:href="#mbd98b149d1" y="368.477493104"/>
      </g>
     </g>
    </g>
    <g id="ytick_11">
     <g id="line2d_34">
      <g>
       <use style="stroke:#000000;stroke-width:0.5;" x="46.435" xlink:href="#mbd98b149d1" y="356.695282208"/>
      </g>
     </g>
    </g>
    <g id="ytick_12">
     <g id="line2d_35">
      <g>
       <use style="stroke:#000000;stroke-width:0.5;" x="46.435" xlink:href="#mbd98b149d1" y="333.130860415"/>
      </g>
     </g>
    </g>
    <g id="ytick_13">
     <g id="line2d_36">
      <g>
       <use style="stroke:#000000;stroke-width:0.5;" x="46.435" xlink:href="#mbd98b149d1" y="321.348649519"/>
      </g>
     </g>
    </g>
    <g id="ytick_14">
     <g id="line2d_37">
      <g>
       <use style="stroke:#000000;stroke-width:0.5;" x="46.435" xlink:href="#mbd98b149d1" y="309.566438622"/>
      </g>
     </g>
    </g>
    <g id="ytick_15">
     <g id="line2d_38">
      <g>
       <use style="stroke:#000000;stroke-width:0.5;" x="46.435" xlink:href="#mbd98b149d1" y="286.00201683"/>
      </g>
     </g>
    </g>
    <g id="ytick_16">
     <g id="line2d_39">
      <g>
       <use style="stroke:#000000;stroke-width:0.5;" x="46.435" xlink:href="#mbd98b149d1" y="274.219805933"/>
      </g>
     </g>
    </g>
    <g id="ytick_17">
     <g id="line2d_40">
      <g>
       <use style="stroke:#000000;stroke-width:0.5;" x="46.435" xlink:href="#mbd98b149d1" y="262.437595037"/>
      </g>
     </g>
    </g>
    <g id="ytick_18">
     <g id="line2d_41">
      <g>
       <use style="stroke:#000000;stroke-width:0.5;" x="46.435" xlink:href="#mbd98b149d1" y="238.873173244"/>
      </g>
     </g>
    </g>
    <g id="ytick_19">
     <g id="line2d_42">
      <g>
       <use style="stroke:#000000;stroke-width:0.5;" x="46.435" xlink:href="#mbd98b149d1" y="227.090962348"/>
      </g>
     </g>
    </g>
    <g id="ytick_20">
     <g id="line2d_43">
      <g>
       <use style="stroke:#000000;stroke-width:0.5;" x="46.435" xlink:href="#mbd98b149d1" y="215.308751451"/>
      </g>
     </g>
    </g>
    <g id="ytick_21">
     <g id="line2d_44">
      <g>
       <use style="stroke:#000000;stroke-width:0.5;" x="46.435" xlink:href="#mbd98b149d1" y="191.744329659"/>
      </g>
     </g>
    </g>
    <g id="ytick_22">
     <g id="line2d_45">
      <g>
       <use style="stroke:#000000;stroke-width:0.5;" x="46.435" xlink:href="#mbd98b149d1" y="179.962118762"/>
      </g>
     </g>
    </g>
    <g id="ytick_23">
     <g id="line2d_46">
      <g>
       <use style="stroke:#000000;stroke-width:0.5;" x="46.435" xlink:href="#mbd98b149d1" y="168.179907866"/>
      </g>
     </g>
    </g>
    <g id="ytick_24">
     <g id="line2d_47">
      <g>
       <use style="stroke:#000000;stroke-width:0.5;" x="46.435" xlink:href="#mbd98b149d1" y="144.615486073"/>
      </g>
     </g>
    </g>
    <g id="ytick_25">
     <g id="line2d_48">
      <g>
       <use style="stroke:#000000;stroke-width:0.5;" x="46.435" xlink:href="#mbd98b149d1" y="132.833275177"/>
      </g>
     </g>
    </g>
    <g id="ytick_26">
     <g id="line2d_49">
      <g>
       <use style="stroke:#000000;stroke-width:0.5;" x="46.435" xlink:href="#mbd98b149d1" y="121.05106428"/>
      </g>
     </g>
    </g>
    <g id="ytick_27">
     <g id="line2d_50">
      <g>
       <use style="stroke:#000000;stroke-width:0.5;" x="46.435" xlink:href="#mbd98b149d1" y="97.4866424875"/>
      </g>
     </g>
    </g>
    <g id="ytick_28">
     <g id="line2d_51">
      <g>
       <use style="stroke:#000000;stroke-width:0.5;" x="46.435" xlink:href="#mbd98b149d1" y="85.7044315911"/>
      </g>
     </g>
    </g>
    <g id="ytick_29">
     <g id="line2d_52">
      <g>
       <use style="stroke:#000000;stroke-width:0.5;" x="46.435" xlink:href="#mbd98b149d1" y="73.9222206947"/>
      </g>
     </g>
    </g>
    <g id="ytick_30">
     <g id="line2d_53">
      <g>
       <use style="stroke:#000000;stroke-width:0.5;" x="46.435" xlink:href="#mbd98b149d1" y="50.357798902"/>
      </g>
     </g>
    </g>
    <g id="ytick_31">
     <g id="line2d_54">
      <g>
       <use style="stroke:#000000;stroke-width:0.5;" x="46.435" xlink:href="#mbd98b149d1" y="38.5755880056"/>
      </g>
     </g>
    </g>
    <g id="text_14">
     <!-- $R(t), F(t)$ -->
     <defs>
      <path d="M 31 -24.8125 
Q 25.4375 -20.40625 21.40625 -14.71875 
Q 17.390625 -9.03125 14.8125 -2.578125 
Q 12.25 3.859375 10.984375 10.890625 
Q 9.71875 17.921875 9.71875 25 
Q 9.71875 32.171875 10.984375 39.203125 
Q 12.25 46.234375 14.859375 52.734375 
Q 17.484375 59.234375 21.53125 64.890625 
Q 25.59375 70.5625 31 74.8125 
Q 31 75 31.5 75 
L 32.421875 75 
Q 32.71875 75 32.953125 74.734375 
Q 33.203125 74.46875 33.203125 74.125 
Q 33.203125 73.6875 33.015625 73.484375 
Q 28.125 68.703125 24.875 63.234375 
Q 21.625 57.765625 19.640625 51.578125 
Q 17.671875 45.40625 16.796875 38.78125 
Q 15.921875 32.171875 15.921875 25 
Q 15.921875 -6.78125 32.90625 -23.296875 
Q 33.203125 -23.578125 33.203125 -24.125 
Q 33.203125 -24.359375 32.9375 -24.671875 
Q 32.671875 -25 32.421875 -25 
L 31.5 -25 
Q 31 -25 31 -24.8125 
" id="Cmr10-28"/>
      <path d="M 6.5 -25 
Q 5.609375 -25 5.609375 -24.125 
Q 5.609375 -23.6875 5.8125 -23.484375 
Q 22.90625 -6.78125 22.90625 25 
Q 22.90625 56.78125 6 73.296875 
Q 5.609375 73.53125 5.609375 74.125 
Q 5.609375 74.46875 5.875 74.734375 
Q 6.15625 75 6.5 75 
L 7.421875 75 
Q 7.71875 75 7.90625 74.8125 
Q 15.09375 69.140625 19.875 61.03125 
Q 24.65625 52.9375 26.875 43.75 
Q 29.109375 34.578125 29.109375 25 
Q 29.109375 17.921875 27.90625 11.0625 
Q 26.703125 4.203125 24.09375 -2.453125 
Q 21.484375 -9.125 17.484375 -14.765625 
Q 13.484375 -20.40625 7.90625 -24.8125 
Q 7.71875 -25 7.421875 -25 
z
" id="Cmr10-29"/>
      <path d="M 4.890625 0 
Q 3.90625 0 3.90625 1.3125 
Q 3.953125 1.5625 4.09375 2.171875 
Q 4.25 2.78125 4.515625 3.140625 
Q 4.78125 3.515625 5.171875 3.515625 
Q 11.28125 3.515625 13.71875 4.203125 
Q 14.984375 4.640625 15.578125 6.890625 
L 29.296875 61.8125 
Q 29.5 62.796875 29.5 63.1875 
Q 29.5 64.265625 28.328125 64.40625 
Q 26.421875 64.796875 21.09375 64.796875 
Q 20.125 64.796875 20.125 66.109375 
Q 20.171875 66.359375 20.3125 66.96875 
Q 20.453125 67.578125 20.71875 67.9375 
Q 21 68.3125 21.390625 68.3125 
L 51.703125 68.3125 
Q 55.328125 68.3125 59.234375 67.484375 
Q 63.140625 66.65625 66.40625 64.875 
Q 69.671875 63.09375 71.765625 60.125 
Q 73.875 57.171875 73.875 53.21875 
Q 73.875 48.1875 70.546875 44.234375 
Q 67.234375 40.28125 62.15625 37.625 
Q 57.078125 34.96875 52.296875 33.890625 
Q 56.203125 32.46875 58.6875 29.359375 
Q 61.1875 26.265625 61.1875 22.21875 
Q 61.1875 21.6875 61.15625 21.40625 
Q 61.140625 21.140625 61.078125 20.796875 
L 60.296875 11.921875 
Q 60.203125 9.96875 60.109375 8.59375 
Q 60.015625 7.234375 60.015625 6.390625 
Q 60.015625 3.65625 60.8125 2.015625 
Q 61.625 0.390625 64.015625 0.390625 
Q 67.140625 0.390625 69.5 3.296875 
Q 71.875 6.203125 72.609375 9.625 
Q 73.046875 10.5 73.578125 10.5 
L 74.515625 10.5 
Q 75.484375 10.5 75.484375 9.1875 
Q 74.75 6.296875 73.15625 3.703125 
Q 71.578125 1.125 69.15625 -0.53125 
Q 66.75 -2.203125 63.921875 -2.203125 
Q 58.0625 -2.203125 53.9375 0.40625 
Q 49.8125 3.03125 49.8125 8.59375 
Q 49.8125 10.6875 50.203125 12.3125 
L 52.390625 21.1875 
Q 52.78125 22.40625 52.78125 24.03125 
Q 52.78125 28.171875 49.96875 30.53125 
Q 47.171875 32.90625 42.921875 32.90625 
L 30.609375 32.90625 
L 24.03125 6.5 
Q 23.78125 5.671875 23.78125 5.078125 
Q 23.78125 4.046875 25 3.90625 
Q 26.90625 3.515625 32.171875 3.515625 
Q 33.203125 3.515625 33.203125 2.203125 
Q 32.859375 0.78125 32.65625 0.390625 
Q 32.46875 0 31.5 0 
z
M 31.203125 35.5 
L 42.28125 35.5 
Q 53.171875 35.5 58.6875 41.015625 
Q 61.234375 43.5625 62.71875 47.484375 
Q 64.203125 51.421875 64.203125 55.328125 
Q 64.203125 59.03125 62.03125 61.125 
Q 59.859375 63.234375 56.65625 64.015625 
Q 53.46875 64.796875 49.609375 64.796875 
L 42.921875 64.796875 
Q 40.1875 64.796875 39.296875 64.328125 
Q 38.421875 63.875 37.703125 61.375 
z
" id="Cmmi10-52"/>
      <path d="M 9.90625 -18.015625 
Q 9.90625 -17.578125 10.296875 -17.1875 
Q 13.921875 -13.71875 15.921875 -9.171875 
Q 17.921875 -4.640625 17.921875 0.390625 
L 17.921875 1.609375 
Q 16.3125 0 13.921875 0 
Q 11.625 0 10.015625 1.609375 
Q 8.40625 3.21875 8.40625 5.515625 
Q 8.40625 7.859375 10.015625 9.421875 
Q 11.625 10.984375 13.921875 10.984375 
Q 17.484375 10.984375 19 7.6875 
Q 20.515625 4.390625 20.515625 0.390625 
Q 20.515625 -5.171875 18.28125 -10.171875 
Q 16.0625 -15.1875 12.015625 -19.1875 
Q 11.625 -19.390625 11.375 -19.390625 
Q 10.890625 -19.390625 10.390625 -18.9375 
Q 9.90625 -18.5 9.90625 -18.015625 
" id="Cmmi10-3b"/>
      <path d="M 4.6875 0 
Q 3.71875 0 3.71875 1.3125 
Q 3.765625 1.5625 3.90625 2.171875 
Q 4.046875 2.78125 4.3125 3.140625 
Q 4.59375 3.515625 4.984375 3.515625 
Q 11.078125 3.515625 13.484375 4.203125 
Q 14.796875 4.640625 15.375 6.890625 
L 29.109375 61.8125 
Q 29.296875 62.796875 29.296875 63.1875 
Q 29.296875 64.265625 28.078125 64.40625 
Q 26.21875 64.796875 20.90625 64.796875 
Q 19.921875 64.796875 19.921875 66.109375 
Q 19.96875 66.359375 20.109375 66.96875 
Q 20.265625 67.578125 20.53125 67.9375 
Q 20.796875 68.3125 21.1875 68.3125 
L 74.03125 68.3125 
Q 75 68.3125 75 67 
L 72.609375 46.296875 
Q 72.609375 46 72.265625 45.703125 
Q 71.921875 45.40625 71.578125 45.40625 
L 70.703125 45.40625 
Q 69.671875 45.40625 69.671875 46.6875 
Q 70.3125 51.21875 70.3125 54.109375 
Q 70.3125 59.078125 68.15625 61.421875 
Q 66.015625 63.765625 62.734375 64.28125 
Q 59.46875 64.796875 53.71875 64.796875 
L 43.015625 64.796875 
Q 40.28125 64.796875 39.40625 64.328125 
Q 38.53125 63.875 37.796875 61.375 
L 31.390625 35.890625 
L 38.921875 35.890625 
Q 42.625 35.890625 44.921875 36.28125 
Q 47.21875 36.671875 48.734375 37.796875 
Q 50.25 38.921875 51.25 41.046875 
Q 52.25 43.171875 53.078125 46.6875 
Q 53.375 47.609375 54.109375 47.609375 
L 54.984375 47.609375 
Q 56 47.609375 56 46.296875 
L 49.90625 21.578125 
Q 49.46875 20.703125 48.875 20.703125 
L 48 20.703125 
Q 47.015625 20.703125 47.015625 22.015625 
Q 47.265625 23.046875 47.40625 23.734375 
Q 47.5625 24.421875 47.78125 25.703125 
Q 48 27 48 27.984375 
Q 48 30.859375 45.453125 31.640625 
Q 42.921875 32.421875 38.8125 32.421875 
L 30.609375 32.421875 
L 24.125 6.5 
Q 23.875 5.515625 23.875 5.515625 
Q 23.875 4.34375 24.609375 4.203125 
Q 27.203125 3.515625 34.8125 3.515625 
Q 35.796875 3.515625 35.796875 2.203125 
Q 35.453125 0.78125 35.25 0.390625 
Q 35.0625 0 34.078125 0 
z
" id="Cmmi10-46"/>
     </defs>
     <g transform="translate(7.2 21.45)scale(0.19 -0.19)">
      <use xlink:href="#Cmmi10-52"/>
      <use transform="translate(75.87890625 0.0)" xlink:href="#Cmr10-28"/>
      <use transform="translate(114.697265625 0.0)" xlink:href="#Cmmi10-74"/>
      <use transform="translate(150.78125 0.0)" xlink:href="#Cmr10-29"/>
      <use transform="translate(189.599609375 0.0)" xlink:href="#Cmmi10-3b"/>
      <use transform="translate(234.84375 0.0)" xlink:href="#Cmmi10-46"/>
      <use transform="translate(299.150390625 0.0)" xlink:href="#Cmr10-28"/>
      <use transform="translate(337.96875 0.0)" xlink:href="#Cmmi10-74"/>
      <use transform="translate(374.052734375 0.0)" xlink:href="#Cmr10-29"/>
     </g>
    </g>
   </g>
   <g id="legend_1">
    <g id="patch_5">
     <path d="M 44.752586 81.07625 
L 88.552586 81.07625 
L 88.552586 42.2 
L 44.752586 42.2 
z
" style="fill:#4c4c4c;opacity:0.5;stroke:#4c4c4c;stroke-linejoin:miter;"/>
    </g>
    <g id="patch_6">
     <path d="M 42.752586 79.07625 
L 86.552586 79.07625 
L 86.552586 40.2 
L 42.752586 40.2 
z
" style="fill:#ffffff;stroke:#000000;stroke-linejoin:miter;"/>
    </g>
    <g id="line2d_55">
     <path d="M 53.552586 52.318125 
L 46.952586 52.318125 
" style="fill:none;stroke:#ff0000;stroke-linecap:square;stroke-width:2.0;"/>
    </g>
    <g id="line2d_56"/>
    <g id="text_15">
     <!-- $R(t)$ -->
     <g style="fill:#ff0000;" transform="translate(56.5525863431 56.518125)scale(0.12 -0.12)">
      <use xlink:href="#Cmmi10-52"/>
      <use transform="translate(75.87890625 0.0)" xlink:href="#Cmr10-28"/>
      <use transform="translate(114.697265625 0.0)" xlink:href="#Cmmi10-74"/>
      <use transform="translate(150.78125 0.0)" xlink:href="#Cmr10-29"/>
     </g>
    </g>
    <g id="line2d_57">
     <path d="M 53.552586 64.67625 
L 46.952586 64.67625 
" style="fill:none;stroke:#0000ff;stroke-linecap:square;stroke-width:2.0;"/>
    </g>
    <g id="line2d_58"/>
    <g id="text_16">
     <!-- $F(t)$ -->
     <g style="fill:#0000ff;" transform="translate(56.5525863431 68.87625)scale(0.12 -0.12)">
      <use xlink:href="#Cmmi10-46"/>
      <use transform="translate(64.306640625 0.0)" xlink:href="#Cmr10-28"/>
      <use transform="translate(103.125 0.0)" xlink:href="#Cmmi10-74"/>
      <use transform="translate(139.208984375 0.0)" xlink:href="#Cmr10-29"/>
     </g>
    </g>
   </g>
  </g>
 </g>
 <defs>
  <clipPath id="p410cf2f54b">
   <rect height="362.849986902" width="503.48551016" x="36.7525863431" y="34.2"/>
  </clipPath>
 </defs>
</svg>
