<?xml version="1.0" encoding="utf-8" standalone="no"?>
<!DOCTYPE svg PUBLIC "-//W3C//DTD SVG 1.1//EN"
  "http://www.w3.org/Graphics/SVG/1.1/DTD/svg11.dtd">
<!-- Created with matplotlib (http://matplotlib.org/) -->
<svg height="414pt" version="1.1" viewBox="0 0 562 414" width="562pt" xmlns="http://www.w3.org/2000/svg" xmlns:xlink="http://www.w3.org/1999/xlink">
 <defs>
  <style type="text/css">
*{stroke-linecap:butt;stroke-linejoin:round;stroke-miterlimit:100000;}
  </style>
 </defs>
 <g id="figure_1">
  <g id="patch_1">
   <path d="M 0 414.77168 
L 562.405096 414.77168 
L 562.405096 0 
L 0 0 
z
" style="fill:#ffffff;"/>
  </g>
  <g id="axes_1">
   <g id="patch_2">
    <path d="M 33.363626 398.297453 
L 540.175096 398.297453 
L 540.175096 34.2 
L 33.363626 34.2 
z
" style="fill:#ffffff;"/>
   </g>
   <g id="line2d_1">
    <path clip-path="url(#pb50cb021d1)" d="M 43.11 41.201874 
L 46.155742 42.176167 
L 49.201484 43.373541 
L 52.247226 44.842751 
L 54.68382 46.252615 
L 57.120413 47.908201 
L 59.557007 49.848953 
L 61.9936 52.119352 
L 64.430194 54.769065 
L 66.866788 57.852876 
L 68.694233 60.486265 
L 70.521678 63.423872 
L 72.349123 66.693306 
L 74.176568 70.322745 
L 76.004014 74.340412 
L 77.831459 78.773897 
L 80.268052 85.376911 
L 82.704646 92.820202 
L 85.14124 101.146271 
L 87.577833 110.380111 
L 90.014427 120.523901 
L 92.451021 131.552153 
L 95.496763 146.491452 
L 98.542505 162.537506 
L 102.806543 186.351677 
L 113.771215 248.578719 
L 117.426105 267.594596 
L 120.471847 282.228043 
L 123.517589 295.611072 
L 125.954183 305.373503 
L 128.390776 314.292543 
L 130.82737 322.386642 
L 133.263963 329.690217 
L 135.700557 336.248974 
L 138.137151 342.115767 
L 140.573744 347.347135 
L 143.010338 352.00058 
L 145.446931 356.13253 
L 147.883525 359.796917 
L 150.320119 363.04426 
L 152.756712 365.921141 
L 155.193306 368.469988 
L 157.629899 370.729072 
L 160.066493 372.732644 
L 163.112235 374.923872 
L 166.157977 376.815128 
L 169.203719 378.450749 
L 172.858609 380.12875 
L 176.5135 381.547111 
L 180.777539 382.932767 
L 185.041578 384.082551 
L 189.914765 385.165373 
L 195.3971 386.150857 
L 201.488584 387.022813 
L 208.798365 387.836565 
L 217.326443 388.552895 
L 227.681966 389.187875 
L 240.474082 389.736506 
L 256.921089 390.20375 
L 278.850431 390.587661 
L 309.917 390.890745 
L 358.039724 391.113952 
L 442.711351 391.253567 
L 530.428721 391.295579 
L 530.428721 391.295579 
" style="fill:none;stroke:#ff0000;stroke-linecap:square;stroke-width:2.0;"/>
   </g>
   <g id="line2d_2">
    <path clip-path="url(#pb50cb021d1)" d="M 43.11 388.450369 
L 46.76489 387.447325 
L 49.810632 386.400419 
L 52.856374 385.117279 
L 55.292968 383.887468 
L 57.729562 382.445203 
L 60.166155 380.757125 
L 62.602749 378.785913 
L 65.039342 376.490317 
L 67.475936 373.825406 
L 69.91253 370.743142 
L 72.349123 367.193371 
L 74.785717 363.125334 
L 77.22231 358.489805 
L 79.658904 353.241926 
L 82.095498 347.344752 
L 84.532091 340.77344 
L 86.968685 333.519875 
L 89.405279 325.597371 
L 92.451021 314.815714 
L 95.496763 303.192082 
L 99.760801 285.924234 
L 108.288879 251.065844 
L 111.334621 239.657009 
L 113.771215 231.279233 
L 116.207808 223.704509 
L 118.035253 218.607466 
L 119.862699 214.041538 
L 121.690144 210.02274 
L 123.517589 206.557107 
L 125.345034 203.641613 
L 127.172479 201.265322 
L 128.390776 199.972236 
L 129.609073 198.904511 
L 130.82737 198.054683 
L 132.045667 197.414571 
L 133.263963 196.975424 
L 134.48226 196.728072 
L 135.700557 196.66305 
L 136.918854 196.770721 
L 138.137151 197.041379 
L 139.964596 197.731801 
L 141.792041 198.734971 
L 143.619486 200.019666 
L 145.446931 201.555992 
L 147.883525 203.947181 
L 150.320119 206.673379 
L 153.365861 210.466892 
L 157.020751 215.458329 
L 161.28479 221.710245 
L 167.376274 231.107147 
L 184.432429 257.705822 
L 190.523913 266.727542 
L 196.615397 275.342375 
L 202.097733 282.713844 
L 207.580068 289.709094 
L 213.062404 296.324988 
L 218.54474 302.565597 
L 224.027075 308.439899 
L 229.509411 313.960134 
L 234.991746 319.140615 
L 240.474082 323.996878 
L 245.956418 328.545071 
L 251.438753 332.801522 
L 256.921089 336.782431 
L 262.403424 340.503661 
L 268.494909 344.352482 
L 274.586393 347.919926 
L 280.677877 351.225258 
L 286.769361 354.286709 
L 293.469993 357.393103 
L 300.170625 360.24659 
L 306.871258 362.867105 
L 314.181039 365.481851 
L 321.490819 367.863522 
L 329.409749 370.204231 
L 337.328678 372.318948 
L 345.856755 374.368233 
L 354.993982 376.328278 
L 364.740356 378.179793 
L 375.095879 379.908094 
L 386.06055 381.503005 
L 397.63437 382.958605 
L 410.426486 384.333278 
L 423.827751 385.549104 
L 438.447312 386.65573 
L 454.894319 387.674213 
L 473.168771 388.578292 
L 493.879817 389.374654 
L 517.636605 390.059966 
L 530.428721 390.350286 
L 530.428721 390.350286 
" style="fill:none;stroke:#0000ff;stroke-linecap:square;stroke-width:2.0;"/>
   </g>
   <g id="patch_3">
    <path d="M 33.363626 391.95793 
L 540.175096 391.95793 
" style="fill:none;stroke:#000000;stroke-linecap:square;stroke-linejoin:miter;stroke-width:0.8;"/>
   </g>
   <g id="patch_4">
    <path d="M 43.11 398.297453 
L 43.11 34.2 
" style="fill:none;stroke:#000000;stroke-linecap:square;stroke-linejoin:miter;stroke-width:0.8;"/>
   </g>
   <g id="matplotlib.axis_1">
    <g id="xtick_1">
     <g id="line2d_3">
      <defs>
       <path d="M 0 0 
L 0 -4 
" id="m376eb99424" style="stroke:#000000;stroke-width:0.5;"/>
      </defs>
      <g>
       <use style="stroke:#000000;stroke-width:0.5;" x="43.11" xlink:href="#m376eb99424" y="391.957929506"/>
      </g>
     </g>
    </g>
    <g id="xtick_2">
     <g id="line2d_4">
      <g>
       <use style="stroke:#000000;stroke-width:0.5;" x="104.024840137" xlink:href="#m376eb99424" y="391.957929506"/>
      </g>
     </g>
     <g id="text_1">
      <!-- 10 -->
      <defs>
       <path d="M 31.78125 66.40625 
Q 24.171875 66.40625 20.328125 58.90625 
Q 16.5 51.421875 16.5 36.375 
Q 16.5 21.390625 20.328125 13.890625 
Q 24.171875 6.390625 31.78125 6.390625 
Q 39.453125 6.390625 43.28125 13.890625 
Q 47.125 21.390625 47.125 36.375 
Q 47.125 51.421875 43.28125 58.90625 
Q 39.453125 66.40625 31.78125 66.40625 
M 31.78125 74.21875 
Q 44.046875 74.21875 50.515625 64.515625 
Q 56.984375 54.828125 56.984375 36.375 
Q 56.984375 17.96875 50.515625 8.265625 
Q 44.046875 -1.421875 31.78125 -1.421875 
Q 19.53125 -1.421875 13.0625 8.265625 
Q 6.59375 17.96875 6.59375 36.375 
Q 6.59375 54.828125 13.0625 64.515625 
Q 19.53125 74.21875 31.78125 74.21875 
" id="BitstreamVeraSans-Roman-30"/>
       <path d="M 12.40625 8.296875 
L 28.515625 8.296875 
L 28.515625 63.921875 
L 10.984375 60.40625 
L 10.984375 69.390625 
L 28.421875 72.90625 
L 38.28125 72.90625 
L 38.28125 8.296875 
L 54.390625 8.296875 
L 54.390625 0 
L 12.40625 0 
z
" id="BitstreamVeraSans-Roman-31"/>
      </defs>
      <g transform="translate(96.3898401368 405.076054506)scale(0.12 -0.12)">
       <use xlink:href="#BitstreamVeraSans-Roman-31"/>
       <use x="63.623046875" xlink:href="#BitstreamVeraSans-Roman-30"/>
      </g>
     </g>
    </g>
    <g id="xtick_3">
     <g id="line2d_5">
      <g>
       <use style="stroke:#000000;stroke-width:0.5;" x="164.939680274" xlink:href="#m376eb99424" y="391.957929506"/>
      </g>
     </g>
     <g id="text_2">
      <!-- 20 -->
      <defs>
       <path d="M 19.1875 8.296875 
L 53.609375 8.296875 
L 53.609375 0 
L 7.328125 0 
L 7.328125 8.296875 
Q 12.9375 14.109375 22.625 23.890625 
Q 32.328125 33.6875 34.8125 36.53125 
Q 39.546875 41.84375 41.421875 45.53125 
Q 43.3125 49.21875 43.3125 52.78125 
Q 43.3125 58.59375 39.234375 62.25 
Q 35.15625 65.921875 28.609375 65.921875 
Q 23.96875 65.921875 18.8125 64.3125 
Q 13.671875 62.703125 7.8125 59.421875 
L 7.8125 69.390625 
Q 13.765625 71.78125 18.9375 73 
Q 24.125 74.21875 28.421875 74.21875 
Q 39.75 74.21875 46.484375 68.546875 
Q 53.21875 62.890625 53.21875 53.421875 
Q 53.21875 48.921875 51.53125 44.890625 
Q 49.859375 40.875 45.40625 35.40625 
Q 44.1875 33.984375 37.640625 27.21875 
Q 31.109375 20.453125 19.1875 8.296875 
" id="BitstreamVeraSans-Roman-32"/>
      </defs>
      <g transform="translate(157.304680274 405.076054506)scale(0.12 -0.12)">
       <use xlink:href="#BitstreamVeraSans-Roman-32"/>
       <use x="63.623046875" xlink:href="#BitstreamVeraSans-Roman-30"/>
      </g>
     </g>
    </g>
    <g id="xtick_4">
     <g id="line2d_6">
      <g>
       <use style="stroke:#000000;stroke-width:0.5;" x="225.85452041" xlink:href="#m376eb99424" y="391.957929506"/>
      </g>
     </g>
     <g id="text_3">
      <!-- 30 -->
      <defs>
       <path d="M 40.578125 39.3125 
Q 47.65625 37.796875 51.625 33 
Q 55.609375 28.21875 55.609375 21.1875 
Q 55.609375 10.40625 48.1875 4.484375 
Q 40.765625 -1.421875 27.09375 -1.421875 
Q 22.515625 -1.421875 17.65625 -0.515625 
Q 12.796875 0.390625 7.625 2.203125 
L 7.625 11.71875 
Q 11.71875 9.328125 16.59375 8.109375 
Q 21.484375 6.890625 26.8125 6.890625 
Q 36.078125 6.890625 40.9375 10.546875 
Q 45.796875 14.203125 45.796875 21.1875 
Q 45.796875 27.640625 41.28125 31.265625 
Q 36.765625 34.90625 28.71875 34.90625 
L 20.21875 34.90625 
L 20.21875 43.015625 
L 29.109375 43.015625 
Q 36.375 43.015625 40.234375 45.921875 
Q 44.09375 48.828125 44.09375 54.296875 
Q 44.09375 59.90625 40.109375 62.90625 
Q 36.140625 65.921875 28.71875 65.921875 
Q 24.65625 65.921875 20.015625 65.03125 
Q 15.375 64.15625 9.8125 62.3125 
L 9.8125 71.09375 
Q 15.4375 72.65625 20.34375 73.4375 
Q 25.25 74.21875 29.59375 74.21875 
Q 40.828125 74.21875 47.359375 69.109375 
Q 53.90625 64.015625 53.90625 55.328125 
Q 53.90625 49.265625 50.4375 45.09375 
Q 46.96875 40.921875 40.578125 39.3125 
" id="BitstreamVeraSans-Roman-33"/>
      </defs>
      <g transform="translate(218.21952041 405.076054506)scale(0.12 -0.12)">
       <use xlink:href="#BitstreamVeraSans-Roman-33"/>
       <use x="63.623046875" xlink:href="#BitstreamVeraSans-Roman-30"/>
      </g>
     </g>
    </g>
    <g id="xtick_5">
     <g id="line2d_7">
      <g>
       <use style="stroke:#000000;stroke-width:0.5;" x="286.769360547" xlink:href="#m376eb99424" y="391.957929506"/>
      </g>
     </g>
     <g id="text_4">
      <!-- 40 -->
      <defs>
       <path d="M 37.796875 64.3125 
L 12.890625 25.390625 
L 37.796875 25.390625 
z
M 35.203125 72.90625 
L 47.609375 72.90625 
L 47.609375 25.390625 
L 58.015625 25.390625 
L 58.015625 17.1875 
L 47.609375 17.1875 
L 47.609375 0 
L 37.796875 0 
L 37.796875 17.1875 
L 4.890625 17.1875 
L 4.890625 26.703125 
z
" id="BitstreamVeraSans-Roman-34"/>
      </defs>
      <g transform="translate(279.134360547 405.076054506)scale(0.12 -0.12)">
       <use xlink:href="#BitstreamVeraSans-Roman-34"/>
       <use x="63.623046875" xlink:href="#BitstreamVeraSans-Roman-30"/>
      </g>
     </g>
    </g>
    <g id="xtick_6">
     <g id="line2d_8">
      <g>
       <use style="stroke:#000000;stroke-width:0.5;" x="347.684200684" xlink:href="#m376eb99424" y="391.957929506"/>
      </g>
     </g>
     <g id="text_5">
      <!-- 50 -->
      <defs>
       <path d="M 10.796875 72.90625 
L 49.515625 72.90625 
L 49.515625 64.59375 
L 19.828125 64.59375 
L 19.828125 46.734375 
Q 21.96875 47.46875 24.109375 47.828125 
Q 26.265625 48.1875 28.421875 48.1875 
Q 40.625 48.1875 47.75 41.5 
Q 54.890625 34.8125 54.890625 23.390625 
Q 54.890625 11.625 47.5625 5.09375 
Q 40.234375 -1.421875 26.90625 -1.421875 
Q 22.3125 -1.421875 17.546875 -0.640625 
Q 12.796875 0.140625 7.71875 1.703125 
L 7.71875 11.625 
Q 12.109375 9.234375 16.796875 8.0625 
Q 21.484375 6.890625 26.703125 6.890625 
Q 35.15625 6.890625 40.078125 11.328125 
Q 45.015625 15.765625 45.015625 23.390625 
Q 45.015625 31 40.078125 35.4375 
Q 35.15625 39.890625 26.703125 39.890625 
Q 22.75 39.890625 18.8125 39.015625 
Q 14.890625 38.140625 10.796875 36.28125 
z
" id="BitstreamVeraSans-Roman-35"/>
      </defs>
      <g transform="translate(340.049200684 405.076054506)scale(0.12 -0.12)">
       <use xlink:href="#BitstreamVeraSans-Roman-35"/>
       <use x="63.623046875" xlink:href="#BitstreamVeraSans-Roman-30"/>
      </g>
     </g>
    </g>
    <g id="xtick_7">
     <g id="line2d_9">
      <g>
       <use style="stroke:#000000;stroke-width:0.5;" x="408.599040821" xlink:href="#m376eb99424" y="391.957929506"/>
      </g>
     </g>
     <g id="text_6">
      <!-- 60 -->
      <defs>
       <path d="M 33.015625 40.375 
Q 26.375 40.375 22.484375 35.828125 
Q 18.609375 31.296875 18.609375 23.390625 
Q 18.609375 15.53125 22.484375 10.953125 
Q 26.375 6.390625 33.015625 6.390625 
Q 39.65625 6.390625 43.53125 10.953125 
Q 47.40625 15.53125 47.40625 23.390625 
Q 47.40625 31.296875 43.53125 35.828125 
Q 39.65625 40.375 33.015625 40.375 
M 52.59375 71.296875 
L 52.59375 62.3125 
Q 48.875 64.0625 45.09375 64.984375 
Q 41.3125 65.921875 37.59375 65.921875 
Q 27.828125 65.921875 22.671875 59.328125 
Q 17.53125 52.734375 16.796875 39.40625 
Q 19.671875 43.65625 24.015625 45.921875 
Q 28.375 48.1875 33.59375 48.1875 
Q 44.578125 48.1875 50.953125 41.515625 
Q 57.328125 34.859375 57.328125 23.390625 
Q 57.328125 12.15625 50.6875 5.359375 
Q 44.046875 -1.421875 33.015625 -1.421875 
Q 20.359375 -1.421875 13.671875 8.265625 
Q 6.984375 17.96875 6.984375 36.375 
Q 6.984375 53.65625 15.1875 63.9375 
Q 23.390625 74.21875 37.203125 74.21875 
Q 40.921875 74.21875 44.703125 73.484375 
Q 48.484375 72.75 52.59375 71.296875 
" id="BitstreamVeraSans-Roman-36"/>
      </defs>
      <g transform="translate(400.964040821 405.076054506)scale(0.12 -0.12)">
       <use xlink:href="#BitstreamVeraSans-Roman-36"/>
       <use x="63.623046875" xlink:href="#BitstreamVeraSans-Roman-30"/>
      </g>
     </g>
    </g>
    <g id="xtick_8">
     <g id="line2d_10">
      <g>
       <use style="stroke:#000000;stroke-width:0.5;" x="469.513880957" xlink:href="#m376eb99424" y="391.957929506"/>
      </g>
     </g>
     <g id="text_7">
      <!-- 70 -->
      <defs>
       <path d="M 8.203125 72.90625 
L 55.078125 72.90625 
L 55.078125 68.703125 
L 28.609375 0 
L 18.3125 0 
L 43.21875 64.59375 
L 8.203125 64.59375 
z
" id="BitstreamVeraSans-Roman-37"/>
      </defs>
      <g transform="translate(461.878880957 405.076054506)scale(0.12 -0.12)">
       <use xlink:href="#BitstreamVeraSans-Roman-37"/>
       <use x="63.623046875" xlink:href="#BitstreamVeraSans-Roman-30"/>
      </g>
     </g>
    </g>
    <g id="xtick_9">
     <g id="line2d_11">
      <g>
       <use style="stroke:#000000;stroke-width:0.5;" x="530.428721094" xlink:href="#m376eb99424" y="391.957929506"/>
      </g>
     </g>
     <g id="text_8">
      <!-- 80 -->
      <defs>
       <path d="M 31.78125 34.625 
Q 24.75 34.625 20.71875 30.859375 
Q 16.703125 27.09375 16.703125 20.515625 
Q 16.703125 13.921875 20.71875 10.15625 
Q 24.75 6.390625 31.78125 6.390625 
Q 38.8125 6.390625 42.859375 10.171875 
Q 46.921875 13.96875 46.921875 20.515625 
Q 46.921875 27.09375 42.890625 30.859375 
Q 38.875 34.625 31.78125 34.625 
M 21.921875 38.8125 
Q 15.578125 40.375 12.03125 44.71875 
Q 8.5 49.078125 8.5 55.328125 
Q 8.5 64.0625 14.71875 69.140625 
Q 20.953125 74.21875 31.78125 74.21875 
Q 42.671875 74.21875 48.875 69.140625 
Q 55.078125 64.0625 55.078125 55.328125 
Q 55.078125 49.078125 51.53125 44.71875 
Q 48 40.375 41.703125 38.8125 
Q 48.828125 37.15625 52.796875 32.3125 
Q 56.78125 27.484375 56.78125 20.515625 
Q 56.78125 9.90625 50.3125 4.234375 
Q 43.84375 -1.421875 31.78125 -1.421875 
Q 19.734375 -1.421875 13.25 4.234375 
Q 6.78125 9.90625 6.78125 20.515625 
Q 6.78125 27.484375 10.78125 32.3125 
Q 14.796875 37.15625 21.921875 38.8125 
M 18.3125 54.390625 
Q 18.3125 48.734375 21.84375 45.5625 
Q 25.390625 42.390625 31.78125 42.390625 
Q 38.140625 42.390625 41.71875 45.5625 
Q 45.3125 48.734375 45.3125 54.390625 
Q 45.3125 60.0625 41.71875 63.234375 
Q 38.140625 66.40625 31.78125 66.40625 
Q 25.390625 66.40625 21.84375 63.234375 
Q 18.3125 60.0625 18.3125 54.390625 
" id="BitstreamVeraSans-Roman-38"/>
      </defs>
      <g transform="translate(522.793721094 405.076054506)scale(0.12 -0.12)">
       <use xlink:href="#BitstreamVeraSans-Roman-38"/>
       <use x="63.623046875" xlink:href="#BitstreamVeraSans-Roman-30"/>
      </g>
     </g>
    </g>
    <g id="xtick_10">
     <g id="line2d_12">
      <defs>
       <path d="M 0 0 
L 0 -2 
" id="m7c908c55e6" style="stroke:#000000;stroke-width:0.5;"/>
      </defs>
      <g>
       <use style="stroke:#000000;stroke-width:0.5;" x="55.2929680274" xlink:href="#m7c908c55e6" y="391.957929506"/>
      </g>
     </g>
    </g>
    <g id="xtick_11">
     <g id="line2d_13">
      <g>
       <use style="stroke:#000000;stroke-width:0.5;" x="67.4759360547" xlink:href="#m7c908c55e6" y="391.957929506"/>
      </g>
     </g>
    </g>
    <g id="xtick_12">
     <g id="line2d_14">
      <g>
       <use style="stroke:#000000;stroke-width:0.5;" x="79.6589040821" xlink:href="#m7c908c55e6" y="391.957929506"/>
      </g>
     </g>
    </g>
    <g id="xtick_13">
     <g id="line2d_15">
      <g>
       <use style="stroke:#000000;stroke-width:0.5;" x="91.8418721094" xlink:href="#m7c908c55e6" y="391.957929506"/>
      </g>
     </g>
    </g>
    <g id="xtick_14">
     <g id="line2d_16">
      <g>
       <use style="stroke:#000000;stroke-width:0.5;" x="116.207808164" xlink:href="#m7c908c55e6" y="391.957929506"/>
      </g>
     </g>
    </g>
    <g id="xtick_15">
     <g id="line2d_17">
      <g>
       <use style="stroke:#000000;stroke-width:0.5;" x="128.390776191" xlink:href="#m7c908c55e6" y="391.957929506"/>
      </g>
     </g>
    </g>
    <g id="xtick_16">
     <g id="line2d_18">
      <g>
       <use style="stroke:#000000;stroke-width:0.5;" x="140.573744219" xlink:href="#m7c908c55e6" y="391.957929506"/>
      </g>
     </g>
    </g>
    <g id="xtick_17">
     <g id="line2d_19">
      <g>
       <use style="stroke:#000000;stroke-width:0.5;" x="152.756712246" xlink:href="#m7c908c55e6" y="391.957929506"/>
      </g>
     </g>
    </g>
    <g id="xtick_18">
     <g id="line2d_20">
      <g>
       <use style="stroke:#000000;stroke-width:0.5;" x="177.122648301" xlink:href="#m7c908c55e6" y="391.957929506"/>
      </g>
     </g>
    </g>
    <g id="xtick_19">
     <g id="line2d_21">
      <g>
       <use style="stroke:#000000;stroke-width:0.5;" x="189.305616328" xlink:href="#m7c908c55e6" y="391.957929506"/>
      </g>
     </g>
    </g>
    <g id="xtick_20">
     <g id="line2d_22">
      <g>
       <use style="stroke:#000000;stroke-width:0.5;" x="201.488584356" xlink:href="#m7c908c55e6" y="391.957929506"/>
      </g>
     </g>
    </g>
    <g id="xtick_21">
     <g id="line2d_23">
      <g>
       <use style="stroke:#000000;stroke-width:0.5;" x="213.671552383" xlink:href="#m7c908c55e6" y="391.957929506"/>
      </g>
     </g>
    </g>
    <g id="xtick_22">
     <g id="line2d_24">
      <g>
       <use style="stroke:#000000;stroke-width:0.5;" x="238.037488438" xlink:href="#m7c908c55e6" y="391.957929506"/>
      </g>
     </g>
    </g>
    <g id="xtick_23">
     <g id="line2d_25">
      <g>
       <use style="stroke:#000000;stroke-width:0.5;" x="250.220456465" xlink:href="#m7c908c55e6" y="391.957929506"/>
      </g>
     </g>
    </g>
    <g id="xtick_24">
     <g id="line2d_26">
      <g>
       <use style="stroke:#000000;stroke-width:0.5;" x="262.403424492" xlink:href="#m7c908c55e6" y="391.957929506"/>
      </g>
     </g>
    </g>
    <g id="xtick_25">
     <g id="line2d_27">
      <g>
       <use style="stroke:#000000;stroke-width:0.5;" x="274.58639252" xlink:href="#m7c908c55e6" y="391.957929506"/>
      </g>
     </g>
    </g>
    <g id="xtick_26">
     <g id="line2d_28">
      <g>
       <use style="stroke:#000000;stroke-width:0.5;" x="298.952328574" xlink:href="#m7c908c55e6" y="391.957929506"/>
      </g>
     </g>
    </g>
    <g id="xtick_27">
     <g id="line2d_29">
      <g>
       <use style="stroke:#000000;stroke-width:0.5;" x="311.135296602" xlink:href="#m7c908c55e6" y="391.957929506"/>
      </g>
     </g>
    </g>
    <g id="xtick_28">
     <g id="line2d_30">
      <g>
       <use style="stroke:#000000;stroke-width:0.5;" x="323.318264629" xlink:href="#m7c908c55e6" y="391.957929506"/>
      </g>
     </g>
    </g>
    <g id="xtick_29">
     <g id="line2d_31">
      <g>
       <use style="stroke:#000000;stroke-width:0.5;" x="335.501232656" xlink:href="#m7c908c55e6" y="391.957929506"/>
      </g>
     </g>
    </g>
    <g id="xtick_30">
     <g id="line2d_32">
      <g>
       <use style="stroke:#000000;stroke-width:0.5;" x="359.867168711" xlink:href="#m7c908c55e6" y="391.957929506"/>
      </g>
     </g>
    </g>
    <g id="xtick_31">
     <g id="line2d_33">
      <g>
       <use style="stroke:#000000;stroke-width:0.5;" x="372.050136739" xlink:href="#m7c908c55e6" y="391.957929506"/>
      </g>
     </g>
    </g>
    <g id="xtick_32">
     <g id="line2d_34">
      <g>
       <use style="stroke:#000000;stroke-width:0.5;" x="384.233104766" xlink:href="#m7c908c55e6" y="391.957929506"/>
      </g>
     </g>
    </g>
    <g id="xtick_33">
     <g id="line2d_35">
      <g>
       <use style="stroke:#000000;stroke-width:0.5;" x="396.416072793" xlink:href="#m7c908c55e6" y="391.957929506"/>
      </g>
     </g>
    </g>
    <g id="xtick_34">
     <g id="line2d_36">
      <g>
       <use style="stroke:#000000;stroke-width:0.5;" x="420.782008848" xlink:href="#m7c908c55e6" y="391.957929506"/>
      </g>
     </g>
    </g>
    <g id="xtick_35">
     <g id="line2d_37">
      <g>
       <use style="stroke:#000000;stroke-width:0.5;" x="432.964976875" xlink:href="#m7c908c55e6" y="391.957929506"/>
      </g>
     </g>
    </g>
    <g id="xtick_36">
     <g id="line2d_38">
      <g>
       <use style="stroke:#000000;stroke-width:0.5;" x="445.147944903" xlink:href="#m7c908c55e6" y="391.957929506"/>
      </g>
     </g>
    </g>
    <g id="xtick_37">
     <g id="line2d_39">
      <g>
       <use style="stroke:#000000;stroke-width:0.5;" x="457.33091293" xlink:href="#m7c908c55e6" y="391.957929506"/>
      </g>
     </g>
    </g>
    <g id="xtick_38">
     <g id="line2d_40">
      <g>
       <use style="stroke:#000000;stroke-width:0.5;" x="481.696848985" xlink:href="#m7c908c55e6" y="391.957929506"/>
      </g>
     </g>
    </g>
    <g id="xtick_39">
     <g id="line2d_41">
      <g>
       <use style="stroke:#000000;stroke-width:0.5;" x="493.879817012" xlink:href="#m7c908c55e6" y="391.957929506"/>
      </g>
     </g>
    </g>
    <g id="xtick_40">
     <g id="line2d_42">
      <g>
       <use style="stroke:#000000;stroke-width:0.5;" x="506.062785039" xlink:href="#m7c908c55e6" y="391.957929506"/>
      </g>
     </g>
    </g>
    <g id="xtick_41">
     <g id="line2d_43">
      <g>
       <use style="stroke:#000000;stroke-width:0.5;" x="518.245753067" xlink:href="#m7c908c55e6" y="391.957929506"/>
      </g>
     </g>
    </g>
    <g id="text_9">
     <!-- $t$ -->
     <defs>
      <path d="M 6.203125 8.109375 
Q 6.203125 9.578125 6.5 10.890625 
L 13.71875 39.59375 
L 3.21875 39.59375 
Q 2.203125 39.59375 2.203125 40.921875 
Q 2.59375 43.109375 3.515625 43.109375 
L 14.59375 43.109375 
L 18.609375 59.421875 
Q 19 60.75 20.171875 61.671875 
Q 21.34375 62.59375 22.796875 62.59375 
Q 24.078125 62.59375 24.921875 61.828125 
Q 25.78125 61.078125 25.78125 59.8125 
Q 25.78125 59.515625 25.75 59.34375 
Q 25.734375 59.1875 25.6875 58.984375 
L 21.6875 43.109375 
L 31.984375 43.109375 
Q 33.015625 43.109375 33.015625 41.796875 
Q 32.953125 41.546875 32.8125 40.953125 
Q 32.671875 40.375 32.421875 39.984375 
Q 32.171875 39.59375 31.6875 39.59375 
L 20.796875 39.59375 
L 13.625 10.6875 
Q 12.890625 7.859375 12.890625 5.8125 
Q 12.890625 1.515625 15.828125 1.515625 
Q 20.21875 1.515625 23.609375 5.640625 
Q 27 9.765625 28.8125 14.703125 
Q 29.203125 15.28125 29.59375 15.28125 
L 30.8125 15.28125 
Q 31.203125 15.28125 31.4375 15.015625 
Q 31.6875 14.75 31.6875 14.40625 
Q 31.6875 14.203125 31.59375 14.109375 
Q 29.390625 8.0625 25.1875 3.46875 
Q 21 -1.125 15.578125 -1.125 
Q 11.625 -1.125 8.90625 1.453125 
Q 6.203125 4.046875 6.203125 8.109375 
" id="Cmmi10-74"/>
     </defs>
     <g transform="translate(548.175095516 391.957929506)scale(0.19 -0.19)">
      <use transform="translate(0.0 0.40625)" xlink:href="#Cmmi10-74"/>
     </g>
    </g>
   </g>
   <g id="matplotlib.axis_2">
    <g id="ytick_1">
     <g id="line2d_44">
      <defs>
       <path d="M 0 0 
L 4 0 
" id="m2a0820153b" style="stroke:#000000;stroke-width:0.5;"/>
      </defs>
      <g>
       <use style="stroke:#000000;stroke-width:0.5;" x="43.11" xlink:href="#m2a0820153b" y="391.957929506"/>
      </g>
     </g>
    </g>
    <g id="ytick_2">
     <g id="line2d_45">
      <g>
       <use style="stroke:#000000;stroke-width:0.5;" x="43.11" xlink:href="#m2a0820153b" y="321.806718425"/>
      </g>
     </g>
     <g id="text_10">
      <!-- 20 -->
      <g transform="translate(23.84 325.117968425)scale(0.12 -0.12)">
       <use xlink:href="#BitstreamVeraSans-Roman-32"/>
       <use x="63.623046875" xlink:href="#BitstreamVeraSans-Roman-30"/>
      </g>
     </g>
    </g>
    <g id="ytick_3">
     <g id="line2d_46">
      <g>
       <use style="stroke:#000000;stroke-width:0.5;" x="43.11" xlink:href="#m2a0820153b" y="251.655507345"/>
      </g>
     </g>
     <g id="text_11">
      <!-- 40 -->
      <g transform="translate(23.84 254.966757345)scale(0.12 -0.12)">
       <use xlink:href="#BitstreamVeraSans-Roman-34"/>
       <use x="63.623046875" xlink:href="#BitstreamVeraSans-Roman-30"/>
      </g>
     </g>
    </g>
    <g id="ytick_4">
     <g id="line2d_47">
      <g>
       <use style="stroke:#000000;stroke-width:0.5;" x="43.11" xlink:href="#m2a0820153b" y="181.504296264"/>
      </g>
     </g>
     <g id="text_12">
      <!-- 60 -->
      <g transform="translate(23.84 184.815546264)scale(0.12 -0.12)">
       <use xlink:href="#BitstreamVeraSans-Roman-36"/>
       <use x="63.623046875" xlink:href="#BitstreamVeraSans-Roman-30"/>
      </g>
     </g>
    </g>
    <g id="ytick_5">
     <g id="line2d_48">
      <g>
       <use style="stroke:#000000;stroke-width:0.5;" x="43.11" xlink:href="#m2a0820153b" y="111.353085184"/>
      </g>
     </g>
     <g id="text_13">
      <!-- 80 -->
      <g transform="translate(23.84 114.664335184)scale(0.12 -0.12)">
       <use xlink:href="#BitstreamVeraSans-Roman-38"/>
       <use x="63.623046875" xlink:href="#BitstreamVeraSans-Roman-30"/>
      </g>
     </g>
    </g>
    <g id="ytick_6">
     <g id="line2d_49">
      <g>
       <use style="stroke:#000000;stroke-width:0.5;" x="43.11" xlink:href="#m2a0820153b" y="41.201874103"/>
      </g>
     </g>
     <g id="text_14">
      <!-- 100 -->
      <g transform="translate(16.205 44.513124103)scale(0.12 -0.12)">
       <use xlink:href="#BitstreamVeraSans-Roman-31"/>
       <use x="63.623046875" xlink:href="#BitstreamVeraSans-Roman-30"/>
       <use x="127.24609375" xlink:href="#BitstreamVeraSans-Roman-30"/>
      </g>
     </g>
    </g>
    <g id="ytick_7">
     <g id="line2d_50">
      <defs>
       <path d="M 0 0 
L 2 0 
" id="mb154477c06" style="stroke:#000000;stroke-width:0.5;"/>
      </defs>
      <g>
       <use style="stroke:#000000;stroke-width:0.5;" x="43.11" xlink:href="#mb154477c06" y="374.420126736"/>
      </g>
     </g>
    </g>
    <g id="ytick_8">
     <g id="line2d_51">
      <g>
       <use style="stroke:#000000;stroke-width:0.5;" x="43.11" xlink:href="#mb154477c06" y="356.882323966"/>
      </g>
     </g>
    </g>
    <g id="ytick_9">
     <g id="line2d_52">
      <g>
       <use style="stroke:#000000;stroke-width:0.5;" x="43.11" xlink:href="#mb154477c06" y="339.344521196"/>
      </g>
     </g>
    </g>
    <g id="ytick_10">
     <g id="line2d_53">
      <g>
       <use style="stroke:#000000;stroke-width:0.5;" x="43.11" xlink:href="#mb154477c06" y="304.268915655"/>
      </g>
     </g>
    </g>
    <g id="ytick_11">
     <g id="line2d_54">
      <g>
       <use style="stroke:#000000;stroke-width:0.5;" x="43.11" xlink:href="#mb154477c06" y="286.731112885"/>
      </g>
     </g>
    </g>
    <g id="ytick_12">
     <g id="line2d_55">
      <g>
       <use style="stroke:#000000;stroke-width:0.5;" x="43.11" xlink:href="#mb154477c06" y="269.193310115"/>
      </g>
     </g>
    </g>
    <g id="ytick_13">
     <g id="line2d_56">
      <g>
       <use style="stroke:#000000;stroke-width:0.5;" x="43.11" xlink:href="#mb154477c06" y="234.117704575"/>
      </g>
     </g>
    </g>
    <g id="ytick_14">
     <g id="line2d_57">
      <g>
       <use style="stroke:#000000;stroke-width:0.5;" x="43.11" xlink:href="#mb154477c06" y="216.579901804"/>
      </g>
     </g>
    </g>
    <g id="ytick_15">
     <g id="line2d_58">
      <g>
       <use style="stroke:#000000;stroke-width:0.5;" x="43.11" xlink:href="#mb154477c06" y="199.042099034"/>
      </g>
     </g>
    </g>
    <g id="ytick_16">
     <g id="line2d_59">
      <g>
       <use style="stroke:#000000;stroke-width:0.5;" x="43.11" xlink:href="#mb154477c06" y="163.966493494"/>
      </g>
     </g>
    </g>
    <g id="ytick_17">
     <g id="line2d_60">
      <g>
       <use style="stroke:#000000;stroke-width:0.5;" x="43.11" xlink:href="#mb154477c06" y="146.428690724"/>
      </g>
     </g>
    </g>
    <g id="ytick_18">
     <g id="line2d_61">
      <g>
       <use style="stroke:#000000;stroke-width:0.5;" x="43.11" xlink:href="#mb154477c06" y="128.890887954"/>
      </g>
     </g>
    </g>
    <g id="ytick_19">
     <g id="line2d_62">
      <g>
       <use style="stroke:#000000;stroke-width:0.5;" x="43.11" xlink:href="#mb154477c06" y="93.8152824134"/>
      </g>
     </g>
    </g>
    <g id="ytick_20">
     <g id="line2d_63">
      <g>
       <use style="stroke:#000000;stroke-width:0.5;" x="43.11" xlink:href="#mb154477c06" y="76.2774796433"/>
      </g>
     </g>
    </g>
    <g id="ytick_21">
     <g id="line2d_64">
      <g>
       <use style="stroke:#000000;stroke-width:0.5;" x="43.11" xlink:href="#mb154477c06" y="58.7396768731"/>
      </g>
     </g>
    </g>
    <g id="text_15">
     <!-- $S(t), I(t)$ -->
     <defs>
      <path d="M 31 -24.8125 
Q 25.4375 -20.40625 21.40625 -14.71875 
Q 17.390625 -9.03125 14.8125 -2.578125 
Q 12.25 3.859375 10.984375 10.890625 
Q 9.71875 17.921875 9.71875 25 
Q 9.71875 32.171875 10.984375 39.203125 
Q 12.25 46.234375 14.859375 52.734375 
Q 17.484375 59.234375 21.53125 64.890625 
Q 25.59375 70.5625 31 74.8125 
Q 31 75 31.5 75 
L 32.421875 75 
Q 32.71875 75 32.953125 74.734375 
Q 33.203125 74.46875 33.203125 74.125 
Q 33.203125 73.6875 33.015625 73.484375 
Q 28.125 68.703125 24.875 63.234375 
Q 21.625 57.765625 19.640625 51.578125 
Q 17.671875 45.40625 16.796875 38.78125 
Q 15.921875 32.171875 15.921875 25 
Q 15.921875 -6.78125 32.90625 -23.296875 
Q 33.203125 -23.578125 33.203125 -24.125 
Q 33.203125 -24.359375 32.9375 -24.671875 
Q 32.671875 -25 32.421875 -25 
L 31.5 -25 
Q 31 -25 31 -24.8125 
" id="Cmr10-28"/>
      <path d="M 6.5 -25 
Q 5.609375 -25 5.609375 -24.125 
Q 5.609375 -23.6875 5.8125 -23.484375 
Q 22.90625 -6.78125 22.90625 25 
Q 22.90625 56.78125 6 73.296875 
Q 5.609375 73.53125 5.609375 74.125 
Q 5.609375 74.46875 5.875 74.734375 
Q 6.15625 75 6.5 75 
L 7.421875 75 
Q 7.71875 75 7.90625 74.8125 
Q 15.09375 69.140625 19.875 61.03125 
Q 24.65625 52.9375 26.875 43.75 
Q 29.109375 34.578125 29.109375 25 
Q 29.109375 17.921875 27.90625 11.0625 
Q 26.703125 4.203125 24.09375 -2.453125 
Q 21.484375 -9.125 17.484375 -14.765625 
Q 13.484375 -20.40625 7.90625 -24.8125 
Q 7.71875 -25 7.421875 -25 
z
" id="Cmr10-29"/>
      <path d="M 6.109375 -2.203125 
Q 5.8125 -2.203125 5.5625 -1.859375 
Q 5.328125 -1.515625 5.328125 -1.21875 
L 11.078125 22.125 
Q 11.28125 22.703125 11.921875 22.703125 
L 13.09375 22.703125 
Q 13.484375 22.703125 13.703125 22.40625 
Q 13.921875 22.125 13.921875 21.6875 
Q 13.09375 18.265625 13.09375 15.578125 
Q 13.09375 8.34375 18.0625 4.828125 
Q 23.046875 1.3125 30.609375 1.3125 
Q 33.890625 1.3125 37.0625 2.921875 
Q 40.234375 4.546875 42.59375 7.125 
Q 44.96875 9.71875 46.375 12.90625 
Q 47.796875 16.109375 47.796875 19.390625 
Q 47.796875 22.90625 45.9375 25.65625 
Q 44.09375 28.421875 40.828125 29.203125 
L 28.609375 32.421875 
Q 23.6875 33.734375 20.75 37.71875 
Q 17.828125 41.703125 17.828125 46.6875 
Q 17.828125 52.6875 21.390625 58.25 
Q 24.953125 63.8125 30.6875 67.15625 
Q 36.421875 70.515625 42.390625 70.515625 
Q 46.96875 70.515625 50.796875 68.828125 
Q 54.640625 67.140625 56.6875 63.484375 
L 62.40625 70.21875 
Q 62.984375 70.515625 63.09375 70.515625 
L 63.71875 70.515625 
Q 64.109375 70.515625 64.34375 70.171875 
Q 64.59375 69.828125 64.59375 69.484375 
L 58.796875 46.296875 
Q 58.640625 45.609375 58.015625 45.609375 
L 56.78125 45.609375 
Q 55.90625 45.609375 55.90625 46.6875 
Q 56.390625 49.859375 56.390625 52.203125 
Q 56.390625 56.84375 54.796875 60.28125 
Q 53.21875 63.71875 50.015625 65.5 
Q 46.828125 67.28125 42.09375 67.28125 
Q 38.09375 67.28125 34.125 64.984375 
Q 30.171875 62.703125 27.734375 58.890625 
Q 25.296875 55.078125 25.296875 50.984375 
Q 25.296875 47.75 27.171875 45.265625 
Q 29.046875 42.78125 32.171875 41.890625 
L 44.390625 38.71875 
Q 47.703125 37.84375 50.171875 35.625 
Q 52.640625 33.40625 53.90625 30.34375 
Q 55.171875 27.296875 55.171875 23.6875 
Q 55.171875 18.953125 53.171875 14.328125 
Q 51.171875 9.71875 47.578125 5.90625 
Q 44 2.09375 39.453125 -0.046875 
Q 34.90625 -2.203125 30.171875 -2.203125 
Q 18.265625 -2.203125 13.09375 4.78125 
L 7.515625 -1.90625 
Q 6.9375 -2.203125 6.78125 -2.203125 
z
" id="Cmmi10-53"/>
      <path d="M 9.90625 -18.015625 
Q 9.90625 -17.578125 10.296875 -17.1875 
Q 13.921875 -13.71875 15.921875 -9.171875 
Q 17.921875 -4.640625 17.921875 0.390625 
L 17.921875 1.609375 
Q 16.3125 0 13.921875 0 
Q 11.625 0 10.015625 1.609375 
Q 8.40625 3.21875 8.40625 5.515625 
Q 8.40625 7.859375 10.015625 9.421875 
Q 11.625 10.984375 13.921875 10.984375 
Q 17.484375 10.984375 19 7.6875 
Q 20.515625 4.390625 20.515625 0.390625 
Q 20.515625 -5.171875 18.28125 -10.171875 
Q 16.0625 -15.1875 12.015625 -19.1875 
Q 11.625 -19.390625 11.375 -19.390625 
Q 10.890625 -19.390625 10.390625 -18.9375 
Q 9.90625 -18.5 9.90625 -18.015625 
" id="Cmmi10-3b"/>
      <path d="M 4.203125 0 
Q 3.21875 0 3.21875 1.3125 
Q 3.609375 3.515625 4.5 3.515625 
Q 10.40625 3.515625 12.5 3.90625 
Q 14.796875 4.4375 15.375 6.890625 
L 29.109375 61.8125 
Q 29.296875 62.796875 29.296875 63.09375 
Q 29.296875 63.71875 28.96875 63.984375 
Q 28.65625 64.265625 27.984375 64.40625 
Q 25.984375 64.796875 20.40625 64.796875 
Q 19.390625 64.796875 19.390625 66.109375 
Q 19.734375 67.390625 19.921875 67.84375 
Q 20.125 68.3125 21.09375 68.3125 
L 49.03125 68.3125 
Q 50 68.3125 50 67 
Q 49.953125 66.75 49.796875 66.15625 
Q 49.65625 65.578125 49.40625 65.1875 
Q 49.171875 64.796875 48.6875 64.796875 
Q 42.828125 64.796875 40.578125 64.40625 
Q 38.375 63.875 37.796875 61.375 
L 24.125 6.5 
Q 23.875 5.28125 23.875 5.171875 
Q 23.875 4.9375 23.953125 4.71875 
Q 24.03125 4.5 24.25 4.328125 
Q 24.46875 4.15625 24.6875 4.078125 
Q 24.90625 4 25.203125 3.90625 
Q 27.09375 3.515625 32.8125 3.515625 
Q 33.796875 3.515625 33.796875 2.203125 
Q 33.453125 0.78125 33.25 0.390625 
Q 33.0625 0 32.078125 0 
z
" id="Cmmi10-49"/>
     </defs>
     <g transform="translate(7.2 21.45)scale(0.19 -0.19)">
      <use xlink:href="#Cmmi10-53"/>
      <use transform="translate(61.279296875 0.0)" xlink:href="#Cmr10-28"/>
      <use transform="translate(100.09765625 0.0)" xlink:href="#Cmmi10-74"/>
      <use transform="translate(136.181640625 0.0)" xlink:href="#Cmr10-29"/>
      <use transform="translate(175.0 0.0)" xlink:href="#Cmmi10-3b"/>
      <use transform="translate(220.244140625 0.0)" xlink:href="#Cmmi10-49"/>
      <use transform="translate(264.140625 0.0)" xlink:href="#Cmr10-28"/>
      <use transform="translate(302.958984375 0.0)" xlink:href="#Cmmi10-74"/>
      <use transform="translate(339.04296875 0.0)" xlink:href="#Cmr10-29"/>
     </g>
    </g>
   </g>
   <g id="legend_1">
    <g id="patch_5">
     <path d="M 494.175096 81.07625 
L 536.175096 81.07625 
L 536.175096 42.2 
L 494.175096 42.2 
z
" style="fill:#4c4c4c;opacity:0.5;stroke:#4c4c4c;stroke-linejoin:miter;"/>
    </g>
    <g id="patch_6">
     <path d="M 492.175096 79.07625 
L 534.175096 79.07625 
L 534.175096 40.2 
L 492.175096 40.2 
z
" style="fill:#ffffff;stroke:#000000;stroke-linejoin:miter;"/>
    </g>
    <g id="line2d_65">
     <path d="M 502.975096 52.318125 
L 496.375096 52.318125 
" style="fill:none;stroke:#ff0000;stroke-linecap:square;stroke-width:2.0;"/>
    </g>
    <g id="line2d_66"/>
    <g id="text_16">
     <!-- $S(t)$ -->
     <g style="fill:#ff0000;" transform="translate(505.975095516 56.518125)scale(0.12 -0.12)">
      <use xlink:href="#Cmmi10-53"/>
      <use transform="translate(61.279296875 0.0)" xlink:href="#Cmr10-28"/>
      <use transform="translate(100.09765625 0.0)" xlink:href="#Cmmi10-74"/>
      <use transform="translate(136.181640625 0.0)" xlink:href="#Cmr10-29"/>
     </g>
    </g>
    <g id="line2d_67">
     <path d="M 502.975096 64.67625 
L 496.375096 64.67625 
" style="fill:none;stroke:#0000ff;stroke-linecap:square;stroke-width:2.0;"/>
    </g>
    <g id="line2d_68"/>
    <g id="text_17">
     <!-- $I(t)$ -->
     <g style="fill:#0000ff;" transform="translate(505.975095516 68.87625)scale(0.12 -0.12)">
      <use xlink:href="#Cmmi10-49"/>
      <use transform="translate(43.896484375 0.0)" xlink:href="#Cmr10-28"/>
      <use transform="translate(82.71484375 0.0)" xlink:href="#Cmmi10-74"/>
      <use transform="translate(118.798828125 0.0)" xlink:href="#Cmr10-29"/>
     </g>
    </g>
   </g>
  </g>
 </g>
 <defs>
  <clipPath id="pb50cb021d1">
   <rect height="364.097453354" width="506.811469938" x="33.3636255781" y="34.2"/>
  </clipPath>
 </defs>
</svg>
