<?xml version="1.0" encoding="utf-8" standalone="no"?>
<!DOCTYPE svg PUBLIC "-//W3C//DTD SVG 1.1//EN"
  "http://www.w3.org/Graphics/SVG/1.1/DTD/svg11.dtd">
<svg xmlns:xlink="http://www.w3.org/1999/xlink" width="455.621487pt" height="338.4pt" viewBox="0 0 455.621487 338.4" xmlns="http://www.w3.org/2000/svg" version="1.1">
 <metadata>
  <rdf:RDF xmlns:dc="http://purl.org/dc/elements/1.1/" xmlns:cc="http://creativecommons.org/ns#" xmlns:rdf="http://www.w3.org/1999/02/22-rdf-syntax-ns#">
   <cc:Work>
    <dc:type rdf:resource="http://purl.org/dc/dcmitype/StillImage"/>
    <dc:date>2022-06-16T22:07:13.090189</dc:date>
    <dc:format>image/svg+xml</dc:format>
    <dc:creator>
     <cc:Agent>
      <dc:title>Matplotlib v3.5.1, https://matplotlib.org/</dc:title>
     </cc:Agent>
    </dc:creator>
   </cc:Work>
  </rdf:RDF>
 </metadata>
 <defs>
  <style type="text/css">*{stroke-linejoin: round; stroke-linecap: butt}</style>
 </defs>
 <g id="figure_1">
  <g id="patch_1">
   <path d="M 0 338.4 
L 455.621487 338.4 
L 455.621487 0 
L 0 0 
z
" style="fill: #ffffff"/>
  </g>
  <g id="axes_1">
   <g id="patch_2">
    <path d="M 35.691294 331.2 
L 433.391487 331.2 
L 433.391487 7.2 
L 35.691294 7.2 
z
" style="fill: #ffffff"/>
   </g>
   <g id="matplotlib.axis_1">
    <g id="xtick_1">
     <g id="line2d_1">
      <defs>
       <path id="m0681fb850e" d="M 0 0 
L 0 3.5 
" style="stroke: #000000; stroke-width: 0.8"/>
      </defs>
      <g>
       <use xlink:href="#m0681fb850e" x="43.339375" y="208.805848" style="stroke: #000000; stroke-width: 0.8"/>
      </g>
     </g>
    </g>
    <g id="xtick_2">
     <g id="line2d_2">
      <g>
       <use xlink:href="#m0681fb850e" x="119.820181" y="208.805848" style="stroke: #000000; stroke-width: 0.8"/>
      </g>
     </g>
     <g id="text_1">
      <!-- 2 -->
      <g transform="translate(116.002681 224.923973)scale(0.12 -0.12)">
       <defs>
        <path id="DejaVuSans-32" d="M 1228 531 
L 3431 531 
L 3431 0 
L 469 0 
L 469 531 
Q 828 903 1448 1529 
Q 2069 2156 2228 2338 
Q 2531 2678 2651 2914 
Q 2772 3150 2772 3378 
Q 2772 3750 2511 3984 
Q 2250 4219 1831 4219 
Q 1534 4219 1204 4116 
Q 875 4013 500 3803 
L 500 4441 
Q 881 4594 1212 4672 
Q 1544 4750 1819 4750 
Q 2544 4750 2975 4387 
Q 3406 4025 3406 3419 
Q 3406 3131 3298 2873 
Q 3191 2616 2906 2266 
Q 2828 2175 2409 1742 
Q 1991 1309 1228 531 
z
" transform="scale(0.015625)"/>
       </defs>
       <use xlink:href="#DejaVuSans-32"/>
      </g>
     </g>
    </g>
    <g id="xtick_3">
     <g id="line2d_3">
      <g>
       <use xlink:href="#m0681fb850e" x="196.300987" y="208.805848" style="stroke: #000000; stroke-width: 0.8"/>
      </g>
     </g>
     <g id="text_2">
      <!-- 4 -->
      <g transform="translate(192.483487 224.923973)scale(0.12 -0.12)">
       <defs>
        <path id="DejaVuSans-34" d="M 2419 4116 
L 825 1625 
L 2419 1625 
L 2419 4116 
z
M 2253 4666 
L 3047 4666 
L 3047 1625 
L 3713 1625 
L 3713 1100 
L 3047 1100 
L 3047 0 
L 2419 0 
L 2419 1100 
L 313 1100 
L 313 1709 
L 2253 4666 
z
" transform="scale(0.015625)"/>
       </defs>
       <use xlink:href="#DejaVuSans-34"/>
      </g>
     </g>
    </g>
    <g id="xtick_4">
     <g id="line2d_4">
      <g>
       <use xlink:href="#m0681fb850e" x="272.781794" y="208.805848" style="stroke: #000000; stroke-width: 0.8"/>
      </g>
     </g>
     <g id="text_3">
      <!-- 6 -->
      <g transform="translate(268.964294 224.923973)scale(0.12 -0.12)">
       <defs>
        <path id="DejaVuSans-36" d="M 2113 2584 
Q 1688 2584 1439 2293 
Q 1191 2003 1191 1497 
Q 1191 994 1439 701 
Q 1688 409 2113 409 
Q 2538 409 2786 701 
Q 3034 994 3034 1497 
Q 3034 2003 2786 2293 
Q 2538 2584 2113 2584 
z
M 3366 4563 
L 3366 3988 
Q 3128 4100 2886 4159 
Q 2644 4219 2406 4219 
Q 1781 4219 1451 3797 
Q 1122 3375 1075 2522 
Q 1259 2794 1537 2939 
Q 1816 3084 2150 3084 
Q 2853 3084 3261 2657 
Q 3669 2231 3669 1497 
Q 3669 778 3244 343 
Q 2819 -91 2113 -91 
Q 1303 -91 875 529 
Q 447 1150 447 2328 
Q 447 3434 972 4092 
Q 1497 4750 2381 4750 
Q 2619 4750 2861 4703 
Q 3103 4656 3366 4563 
z
" transform="scale(0.015625)"/>
       </defs>
       <use xlink:href="#DejaVuSans-36"/>
      </g>
     </g>
    </g>
    <g id="xtick_5">
     <g id="line2d_5">
      <g>
       <use xlink:href="#m0681fb850e" x="349.2626" y="208.805848" style="stroke: #000000; stroke-width: 0.8"/>
      </g>
     </g>
     <g id="text_4">
      <!-- 8 -->
      <g transform="translate(345.4451 224.923973)scale(0.12 -0.12)">
       <defs>
        <path id="DejaVuSans-38" d="M 2034 2216 
Q 1584 2216 1326 1975 
Q 1069 1734 1069 1313 
Q 1069 891 1326 650 
Q 1584 409 2034 409 
Q 2484 409 2743 651 
Q 3003 894 3003 1313 
Q 3003 1734 2745 1975 
Q 2488 2216 2034 2216 
z
M 1403 2484 
Q 997 2584 770 2862 
Q 544 3141 544 3541 
Q 544 4100 942 4425 
Q 1341 4750 2034 4750 
Q 2731 4750 3128 4425 
Q 3525 4100 3525 3541 
Q 3525 3141 3298 2862 
Q 3072 2584 2669 2484 
Q 3125 2378 3379 2068 
Q 3634 1759 3634 1313 
Q 3634 634 3220 271 
Q 2806 -91 2034 -91 
Q 1263 -91 848 271 
Q 434 634 434 1313 
Q 434 1759 690 2068 
Q 947 2378 1403 2484 
z
M 1172 3481 
Q 1172 3119 1398 2916 
Q 1625 2713 2034 2713 
Q 2441 2713 2670 2916 
Q 2900 3119 2900 3481 
Q 2900 3844 2670 4047 
Q 2441 4250 2034 4250 
Q 1625 4250 1398 4047 
Q 1172 3844 1172 3481 
z
" transform="scale(0.015625)"/>
       </defs>
       <use xlink:href="#DejaVuSans-38"/>
      </g>
     </g>
    </g>
    <g id="xtick_6">
     <g id="line2d_6">
      <g>
       <use xlink:href="#m0681fb850e" x="425.743406" y="208.805848" style="stroke: #000000; stroke-width: 0.8"/>
      </g>
     </g>
     <g id="text_5">
      <!-- 10 -->
      <g transform="translate(418.108406 224.923973)scale(0.12 -0.12)">
       <defs>
        <path id="DejaVuSans-31" d="M 794 531 
L 1825 531 
L 1825 4091 
L 703 3866 
L 703 4441 
L 1819 4666 
L 2450 4666 
L 2450 531 
L 3481 531 
L 3481 0 
L 794 0 
L 794 531 
z
" transform="scale(0.015625)"/>
        <path id="DejaVuSans-30" d="M 2034 4250 
Q 1547 4250 1301 3770 
Q 1056 3291 1056 2328 
Q 1056 1369 1301 889 
Q 1547 409 2034 409 
Q 2525 409 2770 889 
Q 3016 1369 3016 2328 
Q 3016 3291 2770 3770 
Q 2525 4250 2034 4250 
z
M 2034 4750 
Q 2819 4750 3233 4129 
Q 3647 3509 3647 2328 
Q 3647 1150 3233 529 
Q 2819 -91 2034 -91 
Q 1250 -91 836 529 
Q 422 1150 422 2328 
Q 422 3509 836 4129 
Q 1250 4750 2034 4750 
z
" transform="scale(0.015625)"/>
       </defs>
       <use xlink:href="#DejaVuSans-31"/>
       <use xlink:href="#DejaVuSans-30" x="63.623047"/>
      </g>
     </g>
    </g>
    <g id="xtick_7">
     <g id="line2d_7">
      <defs>
       <path id="me55bdc42a2" d="M 0 0 
L 0 2 
" style="stroke: #000000; stroke-width: 0.6"/>
      </defs>
      <g>
       <use xlink:href="#me55bdc42a2" x="62.459577" y="208.805848" style="stroke: #000000; stroke-width: 0.6"/>
      </g>
     </g>
    </g>
    <g id="xtick_8">
     <g id="line2d_8">
      <g>
       <use xlink:href="#me55bdc42a2" x="81.579778" y="208.805848" style="stroke: #000000; stroke-width: 0.6"/>
      </g>
     </g>
    </g>
    <g id="xtick_9">
     <g id="line2d_9">
      <g>
       <use xlink:href="#me55bdc42a2" x="100.69998" y="208.805848" style="stroke: #000000; stroke-width: 0.6"/>
      </g>
     </g>
    </g>
    <g id="xtick_10">
     <g id="line2d_10">
      <g>
       <use xlink:href="#me55bdc42a2" x="138.940383" y="208.805848" style="stroke: #000000; stroke-width: 0.6"/>
      </g>
     </g>
    </g>
    <g id="xtick_11">
     <g id="line2d_11">
      <g>
       <use xlink:href="#me55bdc42a2" x="158.060584" y="208.805848" style="stroke: #000000; stroke-width: 0.6"/>
      </g>
     </g>
    </g>
    <g id="xtick_12">
     <g id="line2d_12">
      <g>
       <use xlink:href="#me55bdc42a2" x="177.180786" y="208.805848" style="stroke: #000000; stroke-width: 0.6"/>
      </g>
     </g>
    </g>
    <g id="xtick_13">
     <g id="line2d_13">
      <g>
       <use xlink:href="#me55bdc42a2" x="215.421189" y="208.805848" style="stroke: #000000; stroke-width: 0.6"/>
      </g>
     </g>
    </g>
    <g id="xtick_14">
     <g id="line2d_14">
      <g>
       <use xlink:href="#me55bdc42a2" x="234.541391" y="208.805848" style="stroke: #000000; stroke-width: 0.6"/>
      </g>
     </g>
    </g>
    <g id="xtick_15">
     <g id="line2d_15">
      <g>
       <use xlink:href="#me55bdc42a2" x="253.661592" y="208.805848" style="stroke: #000000; stroke-width: 0.6"/>
      </g>
     </g>
    </g>
    <g id="xtick_16">
     <g id="line2d_16">
      <g>
       <use xlink:href="#me55bdc42a2" x="291.901995" y="208.805848" style="stroke: #000000; stroke-width: 0.6"/>
      </g>
     </g>
    </g>
    <g id="xtick_17">
     <g id="line2d_17">
      <g>
       <use xlink:href="#me55bdc42a2" x="311.022197" y="208.805848" style="stroke: #000000; stroke-width: 0.6"/>
      </g>
     </g>
    </g>
    <g id="xtick_18">
     <g id="line2d_18">
      <g>
       <use xlink:href="#me55bdc42a2" x="330.142398" y="208.805848" style="stroke: #000000; stroke-width: 0.6"/>
      </g>
     </g>
    </g>
    <g id="xtick_19">
     <g id="line2d_19">
      <g>
       <use xlink:href="#me55bdc42a2" x="368.382801" y="208.805848" style="stroke: #000000; stroke-width: 0.6"/>
      </g>
     </g>
    </g>
    <g id="xtick_20">
     <g id="line2d_20">
      <g>
       <use xlink:href="#me55bdc42a2" x="387.503003" y="208.805848" style="stroke: #000000; stroke-width: 0.6"/>
      </g>
     </g>
    </g>
    <g id="xtick_21">
     <g id="line2d_21">
      <g>
       <use xlink:href="#me55bdc42a2" x="406.623205" y="208.805848" style="stroke: #000000; stroke-width: 0.6"/>
      </g>
     </g>
    </g>
    <g id="text_6">
     <!-- $t$ -->
     <g transform="translate(441.391487 208.805848)scale(0.19 -0.19)">
      <defs>
       <path id="Cmmi10-74" d="M 397 519 
Q 397 613 416 697 
L 878 2534 
L 206 2534 
Q 141 2534 141 2619 
Q 166 2759 225 2759 
L 934 2759 
L 1191 3803 
Q 1216 3888 1291 3947 
Q 1366 4006 1459 4006 
Q 1541 4006 1595 3957 
Q 1650 3909 1650 3828 
Q 1650 3809 1648 3798 
Q 1647 3788 1644 3775 
L 1388 2759 
L 2047 2759 
Q 2113 2759 2113 2675 
Q 2109 2659 2100 2621 
Q 2091 2584 2075 2559 
Q 2059 2534 2028 2534 
L 1331 2534 
L 872 684 
Q 825 503 825 372 
Q 825 97 1013 97 
Q 1294 97 1511 361 
Q 1728 625 1844 941 
Q 1869 978 1894 978 
L 1972 978 
Q 1997 978 2012 961 
Q 2028 944 2028 922 
Q 2028 909 2022 903 
Q 1881 516 1612 222 
Q 1344 -72 997 -72 
Q 744 -72 570 93 
Q 397 259 397 519 
z
" transform="scale(0.015625)"/>
      </defs>
      <use xlink:href="#Cmmi10-74" transform="translate(0 0.40625)"/>
     </g>
    </g>
   </g>
   <g id="matplotlib.axis_2">
    <g id="ytick_1">
     <g id="line2d_22">
      <defs>
       <path id="m2b93235f26" d="M 0 0 
L -3.5 0 
" style="stroke: #000000; stroke-width: 0.8"/>
      </defs>
      <g>
       <use xlink:href="#m2b93235f26" x="43.339375" y="318.103323" style="stroke: #000000; stroke-width: 0.8"/>
      </g>
     </g>
     <g id="text_7">
      <!-- −1.5 -->
      <g transform="translate(7.2 322.662385)scale(0.12 -0.12)">
       <defs>
        <path id="DejaVuSans-2212" d="M 678 2272 
L 4684 2272 
L 4684 1741 
L 678 1741 
L 678 2272 
z
" transform="scale(0.015625)"/>
        <path id="DejaVuSans-2e" d="M 684 794 
L 1344 794 
L 1344 0 
L 684 0 
L 684 794 
z
" transform="scale(0.015625)"/>
        <path id="DejaVuSans-35" d="M 691 4666 
L 3169 4666 
L 3169 4134 
L 1269 4134 
L 1269 2991 
Q 1406 3038 1543 3061 
Q 1681 3084 1819 3084 
Q 2600 3084 3056 2656 
Q 3513 2228 3513 1497 
Q 3513 744 3044 326 
Q 2575 -91 1722 -91 
Q 1428 -91 1123 -41 
Q 819 9 494 109 
L 494 744 
Q 775 591 1075 516 
Q 1375 441 1709 441 
Q 2250 441 2565 725 
Q 2881 1009 2881 1497 
Q 2881 1984 2565 2268 
Q 2250 2553 1709 2553 
Q 1456 2553 1204 2497 
Q 953 2441 691 2322 
L 691 4666 
z
" transform="scale(0.015625)"/>
       </defs>
       <use xlink:href="#DejaVuSans-2212"/>
       <use xlink:href="#DejaVuSans-31" x="83.789062"/>
       <use xlink:href="#DejaVuSans-2e" x="147.412109"/>
       <use xlink:href="#DejaVuSans-35" x="179.199219"/>
      </g>
     </g>
    </g>
    <g id="ytick_2">
     <g id="line2d_23">
      <g>
       <use xlink:href="#m2b93235f26" x="43.339375" y="281.670831" style="stroke: #000000; stroke-width: 0.8"/>
      </g>
     </g>
     <g id="text_8">
      <!-- −1.0 -->
      <g transform="translate(7.2 286.229894)scale(0.12 -0.12)">
       <use xlink:href="#DejaVuSans-2212"/>
       <use xlink:href="#DejaVuSans-31" x="83.789062"/>
       <use xlink:href="#DejaVuSans-2e" x="147.412109"/>
       <use xlink:href="#DejaVuSans-30" x="179.199219"/>
      </g>
     </g>
    </g>
    <g id="ytick_3">
     <g id="line2d_24">
      <g>
       <use xlink:href="#m2b93235f26" x="43.339375" y="245.238339" style="stroke: #000000; stroke-width: 0.8"/>
      </g>
     </g>
     <g id="text_9">
      <!-- −0.5 -->
      <g transform="translate(7.2 249.797402)scale(0.12 -0.12)">
       <use xlink:href="#DejaVuSans-2212"/>
       <use xlink:href="#DejaVuSans-30" x="83.789062"/>
       <use xlink:href="#DejaVuSans-2e" x="147.412109"/>
       <use xlink:href="#DejaVuSans-35" x="179.199219"/>
      </g>
     </g>
    </g>
    <g id="ytick_4">
     <g id="line2d_25">
      <g>
       <use xlink:href="#m2b93235f26" x="43.339375" y="208.805848" style="stroke: #000000; stroke-width: 0.8"/>
      </g>
     </g>
    </g>
    <g id="ytick_5">
     <g id="line2d_26">
      <g>
       <use xlink:href="#m2b93235f26" x="43.339375" y="172.373356" style="stroke: #000000; stroke-width: 0.8"/>
      </g>
     </g>
     <g id="text_10">
      <!-- 0.5 -->
      <g transform="translate(17.255625 176.932418)scale(0.12 -0.12)">
       <use xlink:href="#DejaVuSans-30"/>
       <use xlink:href="#DejaVuSans-2e" x="63.623047"/>
       <use xlink:href="#DejaVuSans-35" x="95.410156"/>
      </g>
     </g>
    </g>
    <g id="ytick_6">
     <g id="line2d_27">
      <g>
       <use xlink:href="#m2b93235f26" x="43.339375" y="135.940864" style="stroke: #000000; stroke-width: 0.8"/>
      </g>
     </g>
     <g id="text_11">
      <!-- 1.0 -->
      <g transform="translate(17.255625 140.499927)scale(0.12 -0.12)">
       <use xlink:href="#DejaVuSans-31"/>
       <use xlink:href="#DejaVuSans-2e" x="63.623047"/>
       <use xlink:href="#DejaVuSans-30" x="95.410156"/>
      </g>
     </g>
    </g>
    <g id="ytick_7">
     <g id="line2d_28">
      <g>
       <use xlink:href="#m2b93235f26" x="43.339375" y="99.508373" style="stroke: #000000; stroke-width: 0.8"/>
      </g>
     </g>
     <g id="text_12">
      <!-- 1.5 -->
      <g transform="translate(17.255625 104.067435)scale(0.12 -0.12)">
       <use xlink:href="#DejaVuSans-31"/>
       <use xlink:href="#DejaVuSans-2e" x="63.623047"/>
       <use xlink:href="#DejaVuSans-35" x="95.410156"/>
      </g>
     </g>
    </g>
    <g id="ytick_8">
     <g id="line2d_29">
      <g>
       <use xlink:href="#m2b93235f26" x="43.339375" y="63.075881" style="stroke: #000000; stroke-width: 0.8"/>
      </g>
     </g>
     <g id="text_13">
      <!-- 2.0 -->
      <g transform="translate(17.255625 67.634943)scale(0.12 -0.12)">
       <use xlink:href="#DejaVuSans-32"/>
       <use xlink:href="#DejaVuSans-2e" x="63.623047"/>
       <use xlink:href="#DejaVuSans-30" x="95.410156"/>
      </g>
     </g>
    </g>
    <g id="ytick_9">
     <g id="line2d_30">
      <g>
       <use xlink:href="#m2b93235f26" x="43.339375" y="26.643389" style="stroke: #000000; stroke-width: 0.8"/>
      </g>
     </g>
     <g id="text_14">
      <!-- 2.5 -->
      <g transform="translate(17.255625 31.202452)scale(0.12 -0.12)">
       <use xlink:href="#DejaVuSans-32"/>
       <use xlink:href="#DejaVuSans-2e" x="63.623047"/>
       <use xlink:href="#DejaVuSans-35" x="95.410156"/>
      </g>
     </g>
    </g>
    <g id="ytick_10">
     <g id="line2d_31">
      <defs>
       <path id="m2d654d4997" d="M 0 0 
L -2 0 
" style="stroke: #000000; stroke-width: 0.6"/>
      </defs>
      <g>
       <use xlink:href="#m2d654d4997" x="43.339375" y="325.389821" style="stroke: #000000; stroke-width: 0.6"/>
      </g>
     </g>
    </g>
    <g id="ytick_11">
     <g id="line2d_32">
      <g>
       <use xlink:href="#m2d654d4997" x="43.339375" y="310.816824" style="stroke: #000000; stroke-width: 0.6"/>
      </g>
     </g>
    </g>
    <g id="ytick_12">
     <g id="line2d_33">
      <g>
       <use xlink:href="#m2d654d4997" x="43.339375" y="303.530326" style="stroke: #000000; stroke-width: 0.6"/>
      </g>
     </g>
    </g>
    <g id="ytick_13">
     <g id="line2d_34">
      <g>
       <use xlink:href="#m2d654d4997" x="43.339375" y="296.243828" style="stroke: #000000; stroke-width: 0.6"/>
      </g>
     </g>
    </g>
    <g id="ytick_14">
     <g id="line2d_35">
      <g>
       <use xlink:href="#m2d654d4997" x="43.339375" y="288.957329" style="stroke: #000000; stroke-width: 0.6"/>
      </g>
     </g>
    </g>
    <g id="ytick_15">
     <g id="line2d_36">
      <g>
       <use xlink:href="#m2d654d4997" x="43.339375" y="274.384333" style="stroke: #000000; stroke-width: 0.6"/>
      </g>
     </g>
    </g>
    <g id="ytick_16">
     <g id="line2d_37">
      <g>
       <use xlink:href="#m2d654d4997" x="43.339375" y="267.097834" style="stroke: #000000; stroke-width: 0.6"/>
      </g>
     </g>
    </g>
    <g id="ytick_17">
     <g id="line2d_38">
      <g>
       <use xlink:href="#m2d654d4997" x="43.339375" y="259.811336" style="stroke: #000000; stroke-width: 0.6"/>
      </g>
     </g>
    </g>
    <g id="ytick_18">
     <g id="line2d_39">
      <g>
       <use xlink:href="#m2d654d4997" x="43.339375" y="252.524838" style="stroke: #000000; stroke-width: 0.6"/>
      </g>
     </g>
    </g>
    <g id="ytick_19">
     <g id="line2d_40">
      <g>
       <use xlink:href="#m2d654d4997" x="43.339375" y="237.951841" style="stroke: #000000; stroke-width: 0.6"/>
      </g>
     </g>
    </g>
    <g id="ytick_20">
     <g id="line2d_41">
      <g>
       <use xlink:href="#m2d654d4997" x="43.339375" y="230.665343" style="stroke: #000000; stroke-width: 0.6"/>
      </g>
     </g>
    </g>
    <g id="ytick_21">
     <g id="line2d_42">
      <g>
       <use xlink:href="#m2d654d4997" x="43.339375" y="223.378844" style="stroke: #000000; stroke-width: 0.6"/>
      </g>
     </g>
    </g>
    <g id="ytick_22">
     <g id="line2d_43">
      <g>
       <use xlink:href="#m2d654d4997" x="43.339375" y="216.092346" style="stroke: #000000; stroke-width: 0.6"/>
      </g>
     </g>
    </g>
    <g id="ytick_23">
     <g id="line2d_44">
      <g>
       <use xlink:href="#m2d654d4997" x="43.339375" y="201.519349" style="stroke: #000000; stroke-width: 0.6"/>
      </g>
     </g>
    </g>
    <g id="ytick_24">
     <g id="line2d_45">
      <g>
       <use xlink:href="#m2d654d4997" x="43.339375" y="194.232851" style="stroke: #000000; stroke-width: 0.6"/>
      </g>
     </g>
    </g>
    <g id="ytick_25">
     <g id="line2d_46">
      <g>
       <use xlink:href="#m2d654d4997" x="43.339375" y="186.946353" style="stroke: #000000; stroke-width: 0.6"/>
      </g>
     </g>
    </g>
    <g id="ytick_26">
     <g id="line2d_47">
      <g>
       <use xlink:href="#m2d654d4997" x="43.339375" y="179.659854" style="stroke: #000000; stroke-width: 0.6"/>
      </g>
     </g>
    </g>
    <g id="ytick_27">
     <g id="line2d_48">
      <g>
       <use xlink:href="#m2d654d4997" x="43.339375" y="165.086858" style="stroke: #000000; stroke-width: 0.6"/>
      </g>
     </g>
    </g>
    <g id="ytick_28">
     <g id="line2d_49">
      <g>
       <use xlink:href="#m2d654d4997" x="43.339375" y="157.800359" style="stroke: #000000; stroke-width: 0.6"/>
      </g>
     </g>
    </g>
    <g id="ytick_29">
     <g id="line2d_50">
      <g>
       <use xlink:href="#m2d654d4997" x="43.339375" y="150.513861" style="stroke: #000000; stroke-width: 0.6"/>
      </g>
     </g>
    </g>
    <g id="ytick_30">
     <g id="line2d_51">
      <g>
       <use xlink:href="#m2d654d4997" x="43.339375" y="143.227363" style="stroke: #000000; stroke-width: 0.6"/>
      </g>
     </g>
    </g>
    <g id="ytick_31">
     <g id="line2d_52">
      <g>
       <use xlink:href="#m2d654d4997" x="43.339375" y="128.654366" style="stroke: #000000; stroke-width: 0.6"/>
      </g>
     </g>
    </g>
    <g id="ytick_32">
     <g id="line2d_53">
      <g>
       <use xlink:href="#m2d654d4997" x="43.339375" y="121.367868" style="stroke: #000000; stroke-width: 0.6"/>
      </g>
     </g>
    </g>
    <g id="ytick_33">
     <g id="line2d_54">
      <g>
       <use xlink:href="#m2d654d4997" x="43.339375" y="114.081369" style="stroke: #000000; stroke-width: 0.6"/>
      </g>
     </g>
    </g>
    <g id="ytick_34">
     <g id="line2d_55">
      <g>
       <use xlink:href="#m2d654d4997" x="43.339375" y="106.794871" style="stroke: #000000; stroke-width: 0.6"/>
      </g>
     </g>
    </g>
    <g id="ytick_35">
     <g id="line2d_56">
      <g>
       <use xlink:href="#m2d654d4997" x="43.339375" y="92.221874" style="stroke: #000000; stroke-width: 0.6"/>
      </g>
     </g>
    </g>
    <g id="ytick_36">
     <g id="line2d_57">
      <g>
       <use xlink:href="#m2d654d4997" x="43.339375" y="84.935376" style="stroke: #000000; stroke-width: 0.6"/>
      </g>
     </g>
    </g>
    <g id="ytick_37">
     <g id="line2d_58">
      <g>
       <use xlink:href="#m2d654d4997" x="43.339375" y="77.648878" style="stroke: #000000; stroke-width: 0.6"/>
      </g>
     </g>
    </g>
    <g id="ytick_38">
     <g id="line2d_59">
      <g>
       <use xlink:href="#m2d654d4997" x="43.339375" y="70.362379" style="stroke: #000000; stroke-width: 0.6"/>
      </g>
     </g>
    </g>
    <g id="ytick_39">
     <g id="line2d_60">
      <g>
       <use xlink:href="#m2d654d4997" x="43.339375" y="55.789383" style="stroke: #000000; stroke-width: 0.6"/>
      </g>
     </g>
    </g>
    <g id="ytick_40">
     <g id="line2d_61">
      <g>
       <use xlink:href="#m2d654d4997" x="43.339375" y="48.502884" style="stroke: #000000; stroke-width: 0.6"/>
      </g>
     </g>
    </g>
    <g id="ytick_41">
     <g id="line2d_62">
      <g>
       <use xlink:href="#m2d654d4997" x="43.339375" y="41.216386" style="stroke: #000000; stroke-width: 0.6"/>
      </g>
     </g>
    </g>
    <g id="ytick_42">
     <g id="line2d_63">
      <g>
       <use xlink:href="#m2d654d4997" x="43.339375" y="33.929888" style="stroke: #000000; stroke-width: 0.6"/>
      </g>
     </g>
    </g>
    <g id="ytick_43">
     <g id="line2d_64">
      <g>
       <use xlink:href="#m2d654d4997" x="43.339375" y="19.356891" style="stroke: #000000; stroke-width: 0.6"/>
      </g>
     </g>
    </g>
    <g id="ytick_44">
     <g id="line2d_65">
      <g>
       <use xlink:href="#m2d654d4997" x="43.339375" y="12.070392" style="stroke: #000000; stroke-width: 0.6"/>
      </g>
     </g>
    </g>
   </g>
   <g id="line2d_66">
    <path d="M 43.339375 172.373356 
L 45.053752 170.98113 
L 46.847449 169.979824 
L 48.433833 169.416166 
L 50.020216 169.103824 
L 52.143672 169.008411 
L 54.867573 169.309702 
L 57.310332 169.883879 
L 60.642672 170.99404 
L 64.53702 172.604141 
L 69.825326 175.077984 
L 85.979243 182.857017 
L 92.550671 185.738083 
L 100.142597 188.765438 
L 107.855116 191.503484 
L 114.637434 193.64132 
L 122.132761 195.7306 
L 129.876318 197.614144 
L 137.188596 199.162249 
L 145.204758 200.630854 
L 153.761544 201.966974 
L 163.474055 203.234259 
L 173.939635 204.349722 
L 183.391224 205.171438 
L 196.899891 206.09834 
L 212.273074 206.876823 
L 227.48836 207.431742 
L 246.712192 207.914822 
L 272.265426 208.308315 
L 304.040661 208.567012 
L 355.812944 208.734876 
L 425.743406 208.792432 
L 425.743406 208.792432 
" clip-path="url(#p9564ae63e7)" style="fill: none; stroke: #0000ff; stroke-linecap: square"/>
   </g>
   <g id="line2d_67">
    <path d="M 43.339375 172.373356 
L 44.96453 182.308902 
L 46.507675 190.243125 
L 48.05082 196.935871 
L 49.5083 202.282781 
L 50.511023 205.483071 
L 52.048048 209.72932 
L 53.389281 212.864225 
L 54.730515 215.539727 
L 56.075595 217.82148 
L 57.420676 219.753549 
L 58.798287 221.417466 
L 60.369197 222.979677 
L 62.468206 224.598718 
L 63.830316 225.408845 
L 65.192425 226.05917 
L 68.143301 227.017635 
L 70.838544 227.471362 
L 73.653002 227.62762 
L 75.34031 227.601785 
L 79.050529 227.312195 
L 84.250601 226.54423 
L 89.734979 225.481366 
L 121.133886 218.953549 
L 129.971619 217.449667 
L 139.67452 216.011929 
L 150.476402 214.656317 
L 161.998964 213.463366 
L 174.944594 212.389166 
L 187.985205 211.542341 
L 202.143854 210.836938 
L 219.213086 210.214713 
L 239.364904 209.713645 
L 265.341916 209.315753 
L 300.038586 209.038428 
L 352.312055 208.875411 
L 425.743406 208.818161 
L 425.743406 208.818161 
" clip-path="url(#p9564ae63e7)" style="fill: none; stroke: #ff0000; stroke-linecap: square"/>
   </g>
   <g id="line2d_68">
    <path d="M 43.339375 135.940864 
L 44.614897 133.819446 
L 45.890419 132.258992 
L 46.460002 131.722589 
L 47.352106 131.061199 
L 48.24421 130.598655 
L 49.136313 130.314792 
L 50.116984 130.187119 
L 51.730245 130.341449 
L 53.343506 130.875973 
L 54.085467 131.229214 
L 55.79092 132.255313 
L 58.201466 134.113434 
L 60.109248 135.83582 
L 62.725577 138.446461 
L 67.676879 143.820449 
L 76.306223 153.387864 
L 81.213752 158.542925 
L 86.417985 163.641416 
L 88.895631 165.922775 
L 94.622232 170.828064 
L 99.811713 174.839427 
L 103.116847 177.189083 
L 107.992133 180.380775 
L 114.275012 184.047727 
L 119.503518 186.751328 
L 125.221311 189.383157 
L 129.748715 191.249538 
L 134.903267 193.163391 
L 140.564179 195.032042 
L 144.519527 196.206919 
L 150.494434 197.798763 
L 156.933558 199.294658 
L 164.039329 200.715247 
L 171.748573 202.02193 
L 180.928897 203.310134 
L 189.587527 204.303619 
L 199.65782 205.23867 
L 211.646955 206.105336 
L 226.570322 206.899239 
L 241.91188 207.47518 
L 259.173776 207.919775 
L 281.221975 208.280194 
L 311.786271 208.552131 
L 360.247771 208.726655 
L 425.743406 208.789675 
L 425.743406 208.789675 
" clip-path="url(#p9564ae63e7)" style="fill: none; stroke: #0000ff; stroke-linecap: square"/>
   </g>
   <g id="line2d_69">
    <path d="M 43.339375 135.940864 
L 44.630507 154.232867 
L 45.921638 169.98617 
L 47.230219 183.695796 
L 48.744582 197.110715 
L 50.292175 208.494588 
L 51.839768 217.884859 
L 53.370904 225.513528 
L 54.835091 231.49628 
L 56.228399 236.173345 
L 57.737313 240.285141 
L 58.944651 242.961171 
L 60.478852 245.688511 
L 61.409384 247.022575 
L 62.309114 248.109972 
L 63.208843 249.017756 
L 64.320387 249.917152 
L 66.002684 250.872705 
L 67.484648 251.371468 
L 68.966613 251.602884 
L 71.010959 251.563211 
L 73.00502 251.205223 
L 74.227547 250.861514 
L 76.154236 250.167485 
L 80.226967 248.260856 
L 83.306208 246.572567 
L 102.178833 235.601994 
L 109.350922 231.952764 
L 115.316088 229.23835 
L 119.579511 227.473642 
L 123.158999 226.099915 
L 129.832951 223.784992 
L 136.768231 221.689859 
L 144.893795 219.589566 
L 151.310336 218.167173 
L 159.964373 216.532422 
L 168.064134 215.255038 
L 178.307179 213.930483 
L 187.689131 212.952311 
L 198.598257 212.042709 
L 211.977511 211.190422 
L 226.863426 210.499389 
L 243.510316 209.958012 
L 263.615026 209.527135 
L 289.690335 209.196961 
L 327.975849 208.963794 
L 390.400171 208.841255 
L 425.743406 208.820918 
L 425.743406 208.820918 
" clip-path="url(#p9564ae63e7)" style="fill: none; stroke: #ff0000; stroke-linecap: square"/>
   </g>
   <g id="line2d_70">
    <path d="M 43.339375 99.508373 
L 44.44056 96.723005 
L 45.550658 94.587975 
L 46.749217 92.946105 
L 47.660262 92.1032 
L 48.115785 91.799968 
L 49.02683 91.40894 
L 49.937875 91.279459 
L 51.148946 91.464017 
L 52.254425 91.942152 
L 53.81881 93.045029 
L 55.383195 94.560564 
L 57.606856 97.266472 
L 59.81416 100.425652 
L 62.160411 104.136723 
L 67.823346 113.850166 
L 75.78507 127.64634 
L 79.069492 133.053217 
L 84.667527 141.689042 
L 88.184211 146.705726 
L 91.076342 150.590107 
L 96.282126 157.042759 
L 100.117547 161.370802 
L 104.592257 165.991252 
L 107.97075 169.192916 
L 112.480736 173.110231 
L 116.97245 176.637844 
L 121.293102 179.709712 
L 125.738756 182.570849 
L 130.572681 185.369216 
L 134.773555 187.561448 
L 138.664892 189.411493 
L 143.376737 191.440259 
L 148.144927 193.280092 
L 154.075109 195.301888 
L 161.249979 197.403131 
L 165.730622 198.547875 
L 171.372128 199.828863 
L 179.797985 201.453137 
L 186.553548 202.542383 
L 194.240721 203.588613 
L 202.888392 204.559862 
L 212.690561 205.445654 
L 224.866505 206.294842 
L 237.071904 206.932089 
L 253.110087 207.531732 
L 271.658132 207.991335 
L 296.824959 208.362945 
L 329.488932 208.605661 
L 384.118511 208.753195 
L 425.743406 208.786918 
L 425.743406 208.786918 
" clip-path="url(#p9564ae63e7)" style="fill: none; stroke: #0000ff; stroke-linecap: square"/>
   </g>
   <g id="line2d_71">
    <path d="M 43.339375 99.508373 
L 44.689234 129.256728 
L 45.953914 153.151491 
L 47.383036 176.145641 
L 48.887784 196.401165 
L 50.243505 211.672779 
L 51.450532 223.219072 
L 52.983821 235.484869 
L 54.473971 245.197216 
L 55.771862 252.142862 
L 57.069754 257.876545 
L 58.435409 262.77982 
L 59.635807 266.261825 
L 61.236338 269.874436 
L 62.616185 272.18295 
L 63.525415 273.353314 
L 64.434644 274.277801 
L 65.695762 275.199445 
L 66.884611 275.732557 
L 68.073461 275.984576 
L 69.50449 275.969288 
L 70.93552 275.660552 
L 72.904082 274.846887 
L 75.36951 273.339906 
L 77.403446 271.797854 
L 80.336791 269.252899 
L 83.587309 266.165006 
L 96.22641 253.773353 
L 102.199044 248.413066 
L 108.458518 243.33772 
L 113.603794 239.593607 
L 117.392111 237.075558 
L 122.958064 233.721309 
L 128.051427 230.985325 
L 133.095173 228.561573 
L 137.988334 226.456343 
L 142.906126 224.561145 
L 149.390677 222.363563 
L 154.828795 220.754673 
L 160.89632 219.180414 
L 167.694809 217.658162 
L 174.12318 216.422158 
L 182.47456 215.067504 
L 190.40503 214.002423 
L 200.408055 212.910878 
L 209.792003 212.094329 
L 222.716523 211.226581 
L 236.938635 210.531902 
L 254.009882 209.954287 
L 274.297091 209.512174 
L 300.944319 209.177798 
L 339.344695 208.952714 
L 402.211311 208.837578 
L 425.743406 208.823674 
L 425.743406 208.823674 
" clip-path="url(#p9564ae63e7)" style="fill: none; stroke: #ff0000; stroke-linecap: square"/>
   </g>
   <g id="line2d_72">
    <path d="M 43.339375 63.075881 
L 44.317028 59.739944 
L 45.294682 57.126519 
L 46.413429 54.920913 
L 47.347387 53.64788 
L 47.814366 53.186329 
L 48.565895 52.667709 
L 49.317423 52.403971 
L 50.098651 52.375306 
L 50.995062 52.620475 
L 51.891473 53.131495 
L 52.787884 53.878621 
L 54.371153 55.6938 
L 55.978172 58.071377 
L 57.585191 60.874883 
L 59.812656 65.290442 
L 62.199551 70.498298 
L 65.708974 78.665012 
L 73.827868 97.967364 
L 78.915274 109.442525 
L 82.982282 118.022173 
L 86.589321 125.138675 
L 91.198707 133.542262 
L 95.895029 141.32315 
L 98.257063 144.950442 
L 102.374288 150.839232 
L 105.655885 155.159034 
L 108.411301 158.545618 
L 112.962323 163.690604 
L 117.929634 168.720306 
L 122.139035 172.548912 
L 126.038002 175.773002 
L 129.929216 178.708465 
L 133.041927 180.869867 
L 138.131149 184.077782 
L 142.89433 186.748627 
L 146.351986 188.506421 
L 152.647602 191.357798 
L 158.174959 193.531428 
L 163.264877 195.294375 
L 169.855924 197.280331 
L 174.996865 198.62571 
L 182.118879 200.23552 
L 190.115947 201.743421 
L 198.377586 203.02462 
L 206.097697 204.011971 
L 216.145515 205.05012 
L 227.757911 205.974381 
L 239.13381 206.659785 
L 253.485544 207.293904 
L 269.534968 207.784623 
L 290.93346 208.201311 
L 319.072042 208.503007 
L 359.927533 208.695217 
L 425.743406 208.784161 
L 425.743406 208.784161 
" clip-path="url(#p9564ae63e7)" style="fill: none; stroke: #0000ff; stroke-linecap: square"/>
   </g>
   <g id="line2d_73">
    <path d="M 43.339375 63.075881 
L 44.763501 105.554752 
L 46.133938 140.183585 
L 47.447859 168.41798 
L 48.859101 194.069415 
L 50.175333 214.22258 
L 51.491565 231.232131 
L 52.85137 245.949592 
L 54.255934 258.527114 
L 55.515058 267.847507 
L 56.700396 275.157704 
L 57.929548 281.430598 
L 59.079957 286.246776 
L 60.230365 290.17071 
L 60.997304 292.345943 
L 62.43935 295.596871 
L 63.703086 297.658569 
L 64.412497 298.534482 
L 65.121908 299.22865 
L 65.831319 299.756006 
L 67.148974 300.33931 
L 68.365461 300.4777 
L 69.611502 300.279922 
L 70.249299 300.062454 
L 71.510738 299.4306 
L 73.601855 297.889467 
L 75.104015 296.480205 
L 77.233202 294.15833 
L 80.673389 289.860644 
L 85.36373 283.450613 
L 92.776568 273.184754 
L 98.417942 265.827425 
L 102.3955 261.004458 
L 107.778728 255.005341 
L 113.637984 249.16738 
L 118.229167 245.073742 
L 122.992675 241.241719 
L 126.981051 238.334227 
L 132.553965 234.69048 
L 136.707085 232.26396 
L 141.597302 229.691578 
L 145.233337 227.960746 
L 149.060103 226.29177 
L 155.386809 223.84186 
L 160.694307 222.050839 
L 165.439545 220.629335 
L 171.563541 219.016073 
L 177.553193 217.649723 
L 183.253934 216.518247 
L 190.650012 215.261774 
L 198.889164 214.100045 
L 208.442296 213.010638 
L 218.211594 212.126761 
L 228.799204 211.376262 
L 242.614062 210.644772 
L 259.730689 210.019118 
L 280.067688 209.54515 
L 304.60887 209.2118 
L 339.596212 208.978048 
L 397.904531 208.846812 
L 425.743406 208.826431 
L 425.743406 208.826431 
" clip-path="url(#p9564ae63e7)" style="fill: none; stroke: #ff0000; stroke-linecap: square"/>
   </g>
   <g id="line2d_74">
    <path d="M 43.339375 26.643389 
L 44.376167 22.257584 
L 45.412959 18.891901 
L 46.147699 17.058936 
L 46.882439 15.639979 
L 47.719802 14.482475 
L 48.557166 13.768482 
L 49.140677 13.509578 
L 49.724188 13.430769 
L 50.307699 13.51911 
L 50.891209 13.762451 
L 51.57182 14.226962 
L 52.252431 14.869993 
L 53.613652 16.630083 
L 55.272999 19.496646 
L 56.600719 22.252489 
L 58.431596 26.579262 
L 60.894296 33.105581 
L 64.839228 44.561455 
L 75.289586 75.866012 
L 79.423837 87.470199 
L 83.684344 98.659479 
L 88.322257 109.881494 
L 91.279156 116.509829 
L 94.870905 124.023016 
L 97.49221 129.146276 
L 100.616403 134.873156 
L 102.80949 138.657476 
L 107.699496 146.437603 
L 111.233653 151.533213 
L 114.618931 156.032084 
L 117.54519 159.640426 
L 121.683883 164.332848 
L 126.204391 168.954153 
L 129.037144 171.604621 
L 133.675891 175.572886 
L 136.900973 178.081532 
L 142.364281 181.909525 
L 146.261864 184.347155 
L 151.205886 187.125772 
L 156.030444 189.534226 
L 161.383298 191.896115 
L 165.470345 193.503564 
L 169.626235 194.982205 
L 175.295946 196.772764 
L 181.604109 198.494859 
L 187.396906 199.85918 
L 194.824124 201.348691 
L 203.627412 202.797565 
L 212.302183 203.950584 
L 221.789145 204.960654 
L 232.573661 205.856983 
L 245.306488 206.651 
L 258.609027 207.253769 
L 276.317419 207.803642 
L 297.62863 208.214309 
L 324.568338 208.502463 
L 365.94357 208.697324 
L 425.743406 208.781405 
L 425.743406 208.781405 
" clip-path="url(#p9564ae63e7)" style="fill: none; stroke: #0000ff; stroke-linecap: square"/>
   </g>
   <g id="line2d_75">
    <path d="M 43.339375 26.643389 
L 44.759442 80.208138 
L 46.101833 123.15268 
L 47.587138 163.190282 
L 48.94688 193.918795 
L 50.286693 219.43669 
L 51.50576 239.094651 
L 52.837875 257.210371 
L 54.220955 272.799726 
L 55.545489 285.08054 
L 56.917898 295.456371 
L 57.926422 301.755221 
L 58.964064 307.205852 
L 60.001706 311.727336 
L 61.276818 316.164293 
L 62.55193 319.526904 
L 63.402005 321.246518 
L 64.460406 322.873155 
L 64.868529 323.361545 
L 65.684773 324.127014 
L 66.501018 324.633235 
L 67.317262 324.905206 
L 68.020218 324.969231 
L 68.723174 324.88997 
L 69.791857 324.522712 
L 70.86054 323.892634 
L 71.986522 322.983338 
L 73.949982 320.9007 
L 75.295649 319.179416 
L 77.405413 316.117808 
L 80.390081 311.261258 
L 82.915635 306.865452 
L 92.579811 289.64158 
L 98.349779 280.012376 
L 102.511492 273.591264 
L 107.501846 266.521582 
L 111.509745 261.34089 
L 114.812309 257.393746 
L 118.080848 253.760663 
L 122.242389 249.506562 
L 126.258685 245.76915 
L 129.852507 242.708565 
L 132.769918 240.407114 
L 138.589892 236.26427 
L 143.297459 233.308629 
L 148.584611 230.362685 
L 154.412516 227.520583 
L 158.722523 225.660803 
L 163.817177 223.697762 
L 169.355902 221.82057 
L 176.345197 219.783875 
L 182.503648 218.253832 
L 187.513444 217.16712 
L 195.048674 215.762333 
L 203.530619 214.460183 
L 211.589317 213.448646 
L 221.945641 212.408769 
L 231.220737 211.676093 
L 244.529774 210.876316 
L 257.930568 210.295358 
L 276.092906 209.758419 
L 297.111273 209.373147 
L 325.515834 209.087022 
L 367.883785 208.90425 
L 425.743406 208.829188 
L 425.743406 208.829188 
" clip-path="url(#p9564ae63e7)" style="fill: none; stroke: #ff0000; stroke-linecap: square"/>
   </g>
   <g id="patch_3">
    <path d="M 43.339375 331.2 
L 43.339375 7.2 
" style="fill: none; stroke: #000000; stroke-width: 0.8; stroke-linejoin: miter; stroke-linecap: square"/>
   </g>
   <g id="patch_4">
    <path d="M 35.691294 208.805848 
L 433.391487 208.805848 
" style="fill: none; stroke: #000000; stroke-width: 0.8; stroke-linejoin: miter; stroke-linecap: square"/>
   </g>
   <g id="legend_1">
    <g id="patch_5">
     <path d="M 388.091487 46.596875 
L 430.391487 46.596875 
L 430.391487 14.2 
L 388.091487 14.2 
z
" style="fill: #4c4c4c; opacity: 0.5; stroke: #4c4c4c; stroke-linejoin: miter"/>
    </g>
    <g id="patch_6">
     <path d="M 386.091487 44.596875 
L 428.391487 44.596875 
L 428.391487 12.2 
L 386.091487 12.2 
z
" style="fill: #ffffff; stroke: #cccccc; stroke-linejoin: miter"/>
    </g>
    <g id="line2d_76">
     <path d="M 395.091487 22.298438 
L 389.591487 22.298438 
" style="fill: none; stroke: #0000ff; stroke-linecap: square"/>
    </g>
    <g id="text_15">
     <!-- $x(t)$ -->
     <g transform="translate(397.591487 25.798438)scale(0.1 -0.1)">
      <defs>
       <path id="Cmmi10-78" d="M 500 184 
Q 613 97 819 97 
Q 1019 97 1172 289 
Q 1325 481 1381 709 
L 1672 1844 
Q 1741 2153 1741 2266 
Q 1741 2425 1652 2544 
Q 1563 2663 1403 2663 
Q 1200 2663 1022 2536 
Q 844 2409 722 2214 
Q 600 2019 550 1819 
Q 538 1778 500 1778 
L 422 1778 
Q 372 1778 372 1838 
L 372 1856 
Q 434 2094 584 2320 
Q 734 2547 951 2687 
Q 1169 2828 1416 2828 
Q 1650 2828 1839 2703 
Q 2028 2578 2106 2363 
Q 2216 2559 2386 2693 
Q 2556 2828 2759 2828 
Q 2897 2828 3040 2779 
Q 3184 2731 3275 2631 
Q 3366 2531 3366 2381 
Q 3366 2219 3261 2101 
Q 3156 1984 2994 1984 
Q 2891 1984 2822 2050 
Q 2753 2116 2753 2216 
Q 2753 2350 2845 2451 
Q 2938 2553 3066 2572 
Q 2950 2663 2747 2663 
Q 2541 2663 2389 2472 
Q 2238 2281 2175 2047 
L 1894 916 
Q 1825 659 1825 494 
Q 1825 331 1917 214 
Q 2009 97 2163 97 
Q 2463 97 2698 361 
Q 2934 625 3009 941 
Q 3022 978 3059 978 
L 3138 978 
Q 3163 978 3178 961 
Q 3194 944 3194 922 
Q 3194 916 3188 903 
Q 3097 522 2806 225 
Q 2516 -72 2150 -72 
Q 1916 -72 1727 54 
Q 1538 181 1459 397 
Q 1359 209 1182 68 
Q 1006 -72 806 -72 
Q 669 -72 523 -23 
Q 378 25 287 125 
Q 197 225 197 378 
Q 197 528 301 651 
Q 406 775 563 775 
Q 669 775 741 711 
Q 813 647 813 544 
Q 813 409 723 309 
Q 634 209 500 184 
z
" transform="scale(0.015625)"/>
       <path id="Cmr10-28" d="M 1984 -1588 
Q 1628 -1306 1370 -942 
Q 1113 -578 948 -165 
Q 784 247 703 697 
Q 622 1147 622 1600 
Q 622 2059 703 2509 
Q 784 2959 951 3375 
Q 1119 3791 1378 4153 
Q 1638 4516 1984 4788 
Q 1984 4800 2016 4800 
L 2075 4800 
Q 2094 4800 2109 4783 
Q 2125 4766 2125 4744 
Q 2125 4716 2113 4703 
Q 1800 4397 1592 4047 
Q 1384 3697 1257 3301 
Q 1131 2906 1075 2482 
Q 1019 2059 1019 1600 
Q 1019 -434 2106 -1491 
Q 2125 -1509 2125 -1544 
Q 2125 -1559 2108 -1579 
Q 2091 -1600 2075 -1600 
L 2016 -1600 
Q 1984 -1600 1984 -1588 
z
" transform="scale(0.015625)"/>
       <path id="Cmr10-29" d="M 416 -1600 
Q 359 -1600 359 -1544 
Q 359 -1516 372 -1503 
Q 1466 -434 1466 1600 
Q 1466 3634 384 4691 
Q 359 4706 359 4744 
Q 359 4766 376 4783 
Q 394 4800 416 4800 
L 475 4800 
Q 494 4800 506 4788 
Q 966 4425 1272 3906 
Q 1578 3388 1720 2800 
Q 1863 2213 1863 1600 
Q 1863 1147 1786 708 
Q 1709 269 1542 -157 
Q 1375 -584 1119 -945 
Q 863 -1306 506 -1588 
Q 494 -1600 475 -1600 
L 416 -1600 
z
" transform="scale(0.015625)"/>
      </defs>
      <use xlink:href="#Cmmi10-78"/>
      <use xlink:href="#Cmr10-28" transform="translate(57.080078 0)"/>
      <use xlink:href="#Cmmi10-74" transform="translate(95.898438 0)"/>
      <use xlink:href="#Cmr10-29" transform="translate(131.982422 0)"/>
     </g>
    </g>
    <g id="line2d_77">
     <path d="M 395.091487 32.596875 
L 389.591487 32.596875 
" style="fill: none; stroke: #ff0000; stroke-linecap: square"/>
    </g>
    <g id="text_16">
     <!-- $dx/dt$ -->
     <g transform="translate(397.591487 36.096875)scale(0.1 -0.1)">
      <defs>
       <path id="Cmmi10-64" d="M 1113 -72 
Q 709 -72 476 233 
Q 244 538 244 953 
Q 244 1363 456 1803 
Q 669 2244 1030 2536 
Q 1391 2828 1806 2828 
Q 1994 2828 2145 2723 
Q 2297 2619 2381 2444 
L 2741 3872 
Q 2766 3981 2772 4044 
Q 2772 4147 2356 4147 
Q 2291 4147 2291 4231 
Q 2294 4247 2305 4287 
Q 2316 4328 2333 4350 
Q 2350 4372 2381 4372 
L 3244 4441 
Q 3322 4441 3322 4359 
L 2400 678 
Q 2356 572 2356 372 
Q 2356 97 2541 97 
Q 2741 97 2845 351 
Q 2950 606 3022 941 
Q 3034 978 3072 978 
L 3150 978 
Q 3175 978 3190 956 
Q 3206 934 3206 916 
Q 3094 469 2961 198 
Q 2828 -72 2528 -72 
Q 2313 -72 2147 54 
Q 1981 181 1941 391 
Q 1528 -72 1113 -72 
z
M 1119 97 
Q 1350 97 1567 270 
Q 1784 444 1941 678 
Q 1947 684 1947 703 
L 2297 2113 
Q 2259 2338 2131 2500 
Q 2003 2663 1791 2663 
Q 1575 2663 1389 2486 
Q 1203 2309 1075 2069 
Q 950 1813 836 1366 
Q 722 919 722 672 
Q 722 450 817 273 
Q 913 97 1119 97 
z
" transform="scale(0.015625)"/>
       <path id="Cmmi10-3d" d="M 359 -1472 
Q 359 -1453 366 -1447 
L 2591 4722 
Q 2603 4759 2634 4779 
Q 2666 4800 2706 4800 
Q 2763 4800 2798 4765 
Q 2834 4731 2834 4672 
L 2834 4647 
L 609 -1522 
Q 572 -1600 488 -1600 
Q 434 -1600 396 -1562 
Q 359 -1525 359 -1472 
z
" transform="scale(0.015625)"/>
      </defs>
      <use xlink:href="#Cmmi10-64"/>
      <use xlink:href="#Cmmi10-78" transform="translate(52.001953 0)"/>
      <use xlink:href="#Cmmi10-3d" transform="translate(109.082031 0)"/>
      <use xlink:href="#Cmmi10-64" transform="translate(159.082031 0)"/>
      <use xlink:href="#Cmmi10-74" transform="translate(211.083984 0)"/>
     </g>
    </g>
   </g>
  </g>
 </g>
 <defs>
  <clipPath id="p9564ae63e7">
   <rect x="35.691294" y="7.2" width="397.700192" height="324"/>
  </clipPath>
 </defs>
</svg>
