<?xml version="1.0" encoding="utf-8" standalone="no"?>
<!DOCTYPE svg PUBLIC "-//W3C//DTD SVG 1.1//EN"
  "http://www.w3.org/Graphics/SVG/1.1/DTD/svg11.dtd">
<!-- Created with matplotlib (http://matplotlib.org/) -->
<svg height="420pt" version="1.1" viewBox="0 0 562 420" width="562pt" xmlns="http://www.w3.org/2000/svg" xmlns:xlink="http://www.w3.org/1999/xlink">
 <defs>
  <style type="text/css">
*{stroke-linecap:butt;stroke-linejoin:round;stroke-miterlimit:100000;}
  </style>
 </defs>
 <g id="figure_1">
  <g id="patch_1">
   <path d="M 0 420.48 
L 562.016642 420.48 
L 562.016642 0 
L 0 0 
z
" style="fill:#ffffff;"/>
  </g>
  <g id="axes_1">
   <g id="patch_2">
    <path d="M 13.034527 413.28 
L 539.786642 413.28 
L 539.786642 7.2 
L 13.034527 7.2 
z
" style="fill:#ffffff;"/>
   </g>
   <g id="line2d_1">
    <path clip-path="url(#p153640ede1)" d="M 23.164375 214.215494 
L 24.504242 213.115409 
L 25.84411 212.215928 
L 27.12802 211.5228 
L 28.41193 210.977945 
L 30.468087 210.377123 
L 32.076069 210.110223 
L 34.095788 209.989745 
L 36.115506 210.072589 
L 38.186027 210.333974 
L 40.5991 210.824192 
L 44.873938 212.067912 
L 50.011532 213.99603 
L 58.461805 217.70487 
L 76.815906 226.123542 
L 86.438897 230.200598 
L 95.524874 233.717905 
L 102.95231 236.341713 
L 111.2644 239.014301 
L 119.227199 241.325085 
L 127.493398 243.482107 
L 134.758206 245.189088 
L 143.648296 247.057563 
L 152.567977 248.710617 
L 162.844946 250.369344 
L 174.616071 251.985345 
L 185.821145 253.280306 
L 197.97678 254.456406 
L 212.394104 255.592777 
L 225.887329 256.44677 
L 241.980529 257.252126 
L 261.601806 257.989012 
L 285.057513 258.609079 
L 312.372913 259.083591 
L 347.971648 259.449473 
L 393.621916 259.685655 
L 470.97002 259.829412 
L 529.656794 259.861064 
L 529.656794 259.861064 
" style="fill:none;stroke:#0000ff;stroke-linecap:square;"/>
   </g>
   <g id="line2d_2">
    <path clip-path="url(#p153640ede1)" d="M 23.164375 214.215494 
L 23.917855 218.826856 
L 24.671334 223.161866 
L 26.178294 231.06524 
L 27.936143 239.120533 
L 29.952686 247.015736 
L 31.969228 253.674387 
L 33.232383 257.297084 
L 35.171078 262.140298 
L 37.111174 266.226521 
L 39.213518 269.919575 
L 40.051307 271.20391 
L 42.720502 274.680512 
L 45.073655 277.077982 
L 46.43319 278.222249 
L 49.05694 280.008088 
L 50.632995 280.849594 
L 52.974766 281.830331 
L 54.969816 282.448373 
L 58.126756 283.09115 
L 60.350618 283.341561 
L 62.989621 283.464236 
L 66.067694 283.414778 
L 72.715027 282.804255 
L 77.158117 282.142098 
L 84.865394 280.728762 
L 99.233751 277.769996 
L 112.656003 275.067171 
L 124.077371 272.963982 
L 136.438025 270.935359 
L 147.909387 269.285824 
L 159.628567 267.820274 
L 171.839306 266.509279 
L 184.97662 265.318024 
L 200.383293 264.171231 
L 216.082139 263.236214 
L 233.748188 262.413428 
L 255.302773 261.667028 
L 277.502019 261.120108 
L 305.586685 260.655302 
L 340.6794 260.306657 
L 389.157637 260.06372 
L 468.167022 259.924192 
L 529.656794 259.893312 
L 529.656794 259.893312 
" style="fill:none;stroke:#ff0000;stroke-linecap:square;"/>
   </g>
   <g id="line2d_3">
    <path clip-path="url(#p153640ede1)" d="M 23.164375 168.553109 
L 23.9545 167.215355 
L 24.744626 166.0437 
L 26.324876 164.155204 
L 27.541454 163.073382 
L 28.767455 162.273824 
L 29.993456 161.735715 
L 31.78534 161.363018 
L 33.577224 161.414318 
L 35.561713 161.886564 
L 37.896128 162.901125 
L 39.46677 163.812962 
L 41.037413 164.877093 
L 43.276535 166.610946 
L 47.040184 169.95581 
L 51.733689 174.606225 
L 58.633297 181.851377 
L 68.324808 191.940246 
L 74.827639 198.313665 
L 80.97547 203.938698 
L 87.254102 209.251009 
L 91.853891 212.863877 
L 96.481636 216.266124 
L 102.525972 220.372499 
L 108.497089 224.074642 
L 116.054157 228.292835 
L 120.215584 230.409415 
L 124.415372 232.407592 
L 132.862178 236.039435 
L 139.370094 238.516961 
L 146.126306 240.824654 
L 153.522568 243.073467 
L 161.671944 245.252437 
L 166.993072 246.523875 
L 175.508274 248.33737 
L 182.386941 249.624533 
L 193.393221 251.397532 
L 204.743565 252.910829 
L 215.384739 254.087251 
L 227.765845 255.212015 
L 239.56296 256.082604 
L 255.153968 256.992114 
L 272.280404 257.7448 
L 293.360753 258.409925 
L 316.431618 258.904611 
L 347.238214 259.317304 
L 386.844484 259.603289 
L 444.58067 259.781602 
L 529.656794 259.857609 
L 529.656794 259.857609 
" style="fill:none;stroke:#0000ff;stroke-linecap:square;"/>
   </g>
   <g id="line2d_4">
    <path clip-path="url(#p153640ede1)" d="M 23.164375 168.553109 
L 24.963798 192.585549 
L 26.763221 213.119628 
L 28.324851 228.471173 
L 29.992367 242.650718 
L 31.066233 250.705002 
L 32.498054 260.271116 
L 34.422081 271.251652 
L 35.922796 278.508461 
L 37.641543 285.595536 
L 39.351701 291.513201 
L 41.05327 296.425896 
L 43.005478 301.028471 
L 45.085334 304.895009 
L 46.125262 306.480426 
L 47.416663 308.164311 
L 48.831856 309.683562 
L 50.247049 310.89967 
L 51.441762 311.716187 
L 52.636475 312.360474 
L 53.741645 312.818053 
L 55.951983 313.383706 
L 57.057153 313.513491 
L 58.829186 313.539338 
L 60.914967 313.323017 
L 62.876002 312.91741 
L 64.837036 312.350953 
L 67.041229 311.558431 
L 70.763976 309.937049 
L 75.823176 307.361662 
L 84.168892 302.701284 
L 94.072073 297.162566 
L 101.016215 293.503711 
L 105.952137 291.05974 
L 112.153697 288.189366 
L 116.673485 286.2398 
L 121.829007 284.160172 
L 129.44621 281.357382 
L 137.01574 278.870471 
L 146.230901 276.207631 
L 153.315645 274.405652 
L 161.634489 272.532319 
L 171.311 270.64503 
L 180.522807 269.102827 
L 190.532443 267.669779 
L 201.883726 266.305704 
L 213.866104 265.118413 
L 225.72943 264.154803 
L 239.079819 263.276798 
L 255.942281 262.4166 
L 275.126281 261.695849 
L 295.09993 261.15933 
L 320.825386 260.692337 
L 353.221288 260.336297 
L 396.693692 260.088571 
L 466.965632 259.937104 
L 529.656794 259.896767 
L 529.656794 259.896767 
" style="fill:none;stroke:#ff0000;stroke-linecap:square;"/>
   </g>
   <g id="line2d_5">
    <path clip-path="url(#p153640ede1)" d="M 23.164375 122.890724 
L 24.035807 120.698562 
L 24.90724 118.819536 
L 25.778672 117.230402 
L 27.158212 115.255018 
L 28.486577 113.915225 
L 29.814942 113.063409 
L 30.843269 112.70306 
L 31.871596 112.577466 
L 32.899923 112.664783 
L 33.928249 112.944926 
L 35.685231 113.817717 
L 37.454671 115.128555 
L 39.258152 116.835622 
L 41.061634 118.851408 
L 44.188648 122.914432 
L 47.384684 127.600947 
L 52.564795 135.858923 
L 66.539394 158.79331 
L 72.737013 168.31782 
L 77.27664 174.880872 
L 81.769083 181.004448 
L 85.767082 186.138234 
L 91.705888 193.221933 
L 93.721364 195.482346 
L 97.266769 199.287961 
L 102.818702 204.827523 
L 108.333061 209.851956 
L 112.626753 213.456755 
L 116.835956 216.746527 
L 121.323363 220.004504 
L 126.865723 223.698769 
L 129.330388 225.232127 
L 134.059378 227.998102 
L 141.600303 231.96683 
L 144.383758 233.305514 
L 152.468683 236.84579 
L 158.362104 239.129451 
L 163.193629 240.833857 
L 171.026884 243.308199 
L 178.346757 245.332174 
L 185.879691 247.159971 
L 193.311488 248.740305 
L 203.151983 250.537641 
L 213.112991 252.064426 
L 223.51526 253.395368 
L 236.06526 254.705361 
L 250.178964 255.867376 
L 262.805758 256.685413 
L 276.805937 257.400142 
L 295.271526 258.105586 
L 315.586158 258.653204 
L 342.16991 259.123925 
L 375.892966 259.471299 
L 423.63927 259.708917 
L 502.178834 259.838354 
L 529.656794 259.854154 
L 529.656794 259.854154 
" style="fill:none;stroke:#0000ff;stroke-linecap:square;"/>
   </g>
   <g id="line2d_6">
    <path clip-path="url(#p153640ede1)" d="M 23.164375 122.890724 
L 24.746698 156.182459 
L 26.438492 186.968392 
L 27.990963 211.379691 
L 29.727143 234.875133 
L 31.52456 255.511289 
L 33.085612 270.783734 
L 34.562753 283.247831 
L 36.039893 294.004426 
L 37.374726 302.419666 
L 38.709559 309.730126 
L 40.298432 317.152013 
L 41.905099 323.41019 
L 43.720466 329.170426 
L 45.195079 332.958305 
L 46.328939 335.392292 
L 47.549585 337.596078 
L 49.1173 339.860859 
L 50.031299 340.917927 
L 50.945298 341.799593 
L 52.608069 342.997929 
L 53.356842 343.3829 
L 54.688098 343.855757 
L 56.019354 344.084685 
L 57.922245 344.044565 
L 59.825137 343.63739 
L 61.145444 343.17269 
L 63.075363 342.267825 
L 64.747251 341.301547 
L 66.419139 340.195593 
L 68.326491 338.794339 
L 72.560841 335.296379 
L 77.150141 331.140611 
L 91.181037 318.054641 
L 96.411018 313.449812 
L 101.586142 309.145651 
L 106.359528 305.418313 
L 111.035798 301.998194 
L 117.126654 297.882813 
L 121.340892 295.252717 
L 128.730647 291.04557 
L 134.565649 288.063077 
L 141.860995 284.717995 
L 149.378966 281.67396 
L 157.327396 278.851152 
L 162.101381 277.331021 
L 169.907943 275.098672 
L 177.695653 273.151801 
L 185.951212 271.355322 
L 193.209044 269.975243 
L 203.122437 268.351112 
L 214.537811 266.798237 
L 226.01058 265.521246 
L 239.471949 264.317202 
L 253.524726 263.331026 
L 269.168829 262.486532 
L 285.16519 261.834571 
L 304.57654 261.256721 
L 328.825287 260.767032 
L 358.342661 260.398044 
L 400.625813 260.118345 
L 464.501811 259.952319 
L 529.656794 259.900222 
L 529.656794 259.900222 
" style="fill:none;stroke:#ff0000;stroke-linecap:square;"/>
   </g>
   <g id="line2d_7">
    <path clip-path="url(#p153640ede1)" d="M 23.164375 77.228339 
L 23.689546 75.416665 
L 24.214718 73.764357 
L 25.265061 70.909092 
L 26.562505 68.141667 
L 27.85995 66.126627 
L 28.580736 65.30095 
L 29.301522 64.668077 
L 30.022308 64.215488 
L 30.743094 63.931378 
L 31.51275 63.801454 
L 32.282406 63.838201 
L 33.062141 64.033134 
L 33.841876 64.375175 
L 35.401346 65.457466 
L 36.91352 66.952338 
L 38.425694 68.821108 
L 40.775225 72.336282 
L 42.553302 75.396028 
L 45.988769 82.025386 
L 50.931306 92.607578 
L 64.270806 122.548564 
L 69.406385 133.522258 
L 74.783759 144.373065 
L 76.169753 147.053213 
L 81.103073 156.189575 
L 86.407258 165.305248 
L 92.335125 174.642208 
L 94.713445 178.144648 
L 98.787206 183.83335 
L 102.327556 188.471305 
L 106.633419 193.748453 
L 111.79935 199.584714 
L 113.776712 201.683783 
L 119.822755 207.669634 
L 122.396161 210.030692 
L 127.45114 214.367483 
L 132.044529 217.985088 
L 136.921675 221.516031 
L 141.670475 224.671187 
L 144.431708 226.386367 
L 150.621474 229.936612 
L 155.824409 232.630639 
L 161.273617 235.194836 
L 164.468403 236.585387 
L 172.882289 239.88681 
L 180.139797 242.35866 
L 186.73237 244.339854 
L 192.988656 246.013725 
L 202.148271 248.146558 
L 209.896217 249.693918 
L 216.322545 250.82219 
L 225.804904 252.264015 
L 236.576813 253.626914 
L 248.977216 254.898066 
L 260.521019 255.849022 
L 272.417985 256.640298 
L 287.413427 257.421093 
L 302.047287 258.001855 
L 324.322681 258.634378 
L 348.894617 259.088578 
L 380.6761 259.440016 
L 424.138119 259.682715 
L 493.358548 259.824253 
L 529.656794 259.850698 
L 529.656794 259.850698 
" style="fill:none;stroke:#0000ff;stroke-linecap:square;"/>
   </g>
   <g id="line2d_8">
    <path clip-path="url(#p153640ede1)" d="M 23.164375 77.228339 
L 24.879478 125.998778 
L 26.397177 163.339408 
L 27.914875 195.877736 
L 29.612692 227.271198 
L 31.327737 254.288281 
L 33.03459 277.102395 
L 34.555055 294.436595 
L 36.339107 311.647759 
L 38.042082 325.333095 
L 39.423213 334.713957 
L 40.762216 342.511027 
L 41.913065 348.297124 
L 43.44753 354.837263 
L 44.831915 359.711814 
L 46.216301 363.72648 
L 47.925824 367.641671 
L 49.635346 370.555854 
L 50.496551 371.69018 
L 51.357756 372.622858 
L 52.359677 373.474221 
L 53.361599 374.095249 
L 54.620308 374.580203 
L 55.879017 374.770575 
L 56.737577 374.748637 
L 58.454696 374.378295 
L 59.313256 374.047308 
L 60.504946 373.445979 
L 61.696635 372.696996 
L 62.976485 371.748005 
L 65.17145 369.825795 
L 67.366415 367.603125 
L 69.187484 365.58201 
L 73.618749 360.20301 
L 83.827143 346.822274 
L 90.915863 337.690561 
L 96.277505 331.153795 
L 98.851083 328.156128 
L 104.946878 321.446976 
L 109.685914 316.619481 
L 116.035954 310.676566 
L 119.898633 307.345564 
L 125.256178 303.062539 
L 130.938835 298.921988 
L 135.394381 295.945206 
L 139.635771 293.31651 
L 146.768555 289.311033 
L 152.460704 286.455293 
L 160.132691 283.033329 
L 166.313096 280.595859 
L 172.707726 278.340713 
L 180.216565 276.000969 
L 188.161399 273.844609 
L 195.239669 272.165637 
L 203.589323 270.440711 
L 210.787456 269.147924 
L 221.102155 267.564449 
L 228.746452 266.567003 
L 241.464155 265.184375 
L 254.048211 264.096226 
L 267.281747 263.190466 
L 282.203283 262.399076 
L 301.137241 261.659767 
L 320.203382 261.133318 
L 345.557791 260.66511 
L 377.769261 260.312288 
L 419.29 260.079263 
L 490.822231 259.931134 
L 529.656794 259.903677 
L 529.656794 259.903677 
" style="fill:none;stroke:#ff0000;stroke-linecap:square;"/>
   </g>
   <g id="line2d_9">
    <path clip-path="url(#p153640ede1)" d="M 23.164375 31.565954 
L 24.356238 26.71833 
L 25.548101 22.849338 
L 26.763921 19.807794 
L 27.185166 18.94965 
L 28.612756 16.723407 
L 29.782956 15.614421 
L 30.368056 15.278745 
L 31.048283 15.058233 
L 31.72851 15.009231 
L 32.408737 15.120815 
L 33.088964 15.382658 
L 34.0367 15.979677 
L 34.984437 16.824804 
L 35.932174 17.895207 
L 37.804872 20.591934 
L 39.778921 24.139763 
L 41.611601 27.95714 
L 44.775878 35.447983 
L 48.255482 44.592065 
L 52.619761 56.806737 
L 64.694981 91.100549 
L 68.697959 101.904171 
L 73.64394 114.60643 
L 78.476785 126.25588 
L 82.062998 134.395052 
L 86.041112 142.919527 
L 90.717746 152.276011 
L 95.584304 161.277775 
L 99.32785 167.716347 
L 103.664907 174.675587 
L 106.726182 179.280867 
L 109.649923 183.453978 
L 115.888792 191.668014 
L 118.80041 195.199671 
L 123.566577 200.597106 
L 128.316018 205.533825 
L 131.590984 208.699277 
L 133.959114 210.873997 
L 137.920084 214.308909 
L 143.125454 218.462694 
L 147.307089 221.525754 
L 154.086215 226.020773 
L 158.973047 228.93264 
L 163.338872 231.322827 
L 169.588501 234.428377 
L 176.217315 237.355914 
L 181.433625 239.422015 
L 188.193359 241.821363 
L 194.841185 243.907541 
L 202.312954 245.967214 
L 210.623618 247.948902 
L 218.041387 249.47892 
L 226.099232 250.920291 
L 235.764098 252.389057 
L 246.081264 253.693141 
L 256.067283 254.739413 
L 269.850549 255.900095 
L 284.824692 256.866841 
L 300.548232 257.630876 
L 319.264443 258.292538 
L 340.288105 258.80698 
L 367.326036 259.23176 
L 401.239158 259.535431 
L 451.932526 259.745592 
L 529.656794 259.847243 
L 529.656794 259.847243 
" style="fill:none;stroke:#0000ff;stroke-linecap:square;"/>
   </g>
   <g id="line2d_10">
    <path clip-path="url(#p153640ede1)" d="M 23.164375 31.565954 
L 24.699645 87.196678 
L 26.234915 135.668094 
L 27.907771 181.3144 
L 29.464628 217.893862 
L 30.858828 246.395019 
L 32.272682 271.652947 
L 33.811389 295.438761 
L 35.474949 317.330642 
L 37.145553 335.820964 
L 38.663695 349.970929 
L 40.022332 360.748841 
L 41.607093 371.336112 
L 42.965256 378.904408 
L 44.32342 385.244306 
L 45.698427 390.55053 
L 47.042461 394.776365 
L 47.938484 397.11904 
L 49.61696 400.597314 
L 50.399413 401.851914 
L 51.181865 402.895084 
L 51.964318 403.741394 
L 52.829078 404.464154 
L 53.572452 404.919779 
L 54.315826 405.233079 
L 55.0592 405.413713 
L 55.802574 405.470769 
L 56.722593 405.382998 
L 57.642611 405.134139 
L 58.73996 404.646118 
L 59.837308 403.970751 
L 60.934656 403.128041 
L 63.113025 401.029648 
L 64.194045 399.809071 
L 65.846354 397.75301 
L 69.336715 392.818753 
L 71.164876 389.999005 
L 75.989323 382.097601 
L 88.725513 360.632195 
L 93.185237 353.494127 
L 98.354651 345.65166 
L 101.196912 341.556383 
L 107.240658 333.379506 
L 112.851385 326.43403 
L 117.064325 321.615452 
L 122.391374 315.986667 
L 128.33724 310.279098 
L 131.436902 307.528944 
L 134.79551 304.712964 
L 140.417974 300.357337 
L 146.019906 296.430302 
L 150.013353 293.861912 
L 155.973746 290.355977 
L 162.238169 287.056204 
L 164.771843 285.82435 
L 172.967526 282.206398 
L 178.478223 280.059851 
L 183.032683 278.441393 
L 190.911709 275.940228 
L 198.024691 273.971419 
L 203.797836 272.551367 
L 213.116181 270.553436 
L 223.474968 268.69823 
L 233.984427 267.143831 
L 243.664852 265.954604 
L 254.065581 264.892025 
L 264.12427 264.040806 
L 278.275158 263.081308 
L 291.840865 262.369118 
L 311.278437 261.614678 
L 332.984458 261.038083 
L 361.038878 260.566024 
L 397.232369 260.228143 
L 446.853507 260.01632 
L 529.656794 259.907132 
L 529.656794 259.907132 
" style="fill:none;stroke:#ff0000;stroke-linecap:square;"/>
   </g>
   <g id="patch_3">
    <path d="M 13.034527 259.877879 
L 539.786642 259.877879 
" style="fill:none;stroke:#000000;stroke-linecap:square;stroke-linejoin:miter;stroke-width:0.8;"/>
   </g>
   <g id="patch_4">
    <path d="M 23.164375 413.28 
L 23.164375 7.2 
" style="fill:none;stroke:#000000;stroke-linecap:square;stroke-linejoin:miter;stroke-width:0.8;"/>
   </g>
   <g id="matplotlib.axis_1">
    <g id="xtick_1">
     <g id="line2d_11">
      <defs>
       <path d="M 0 0 
L 0 -4 
" id="m2e1d164b8d" style="stroke:#000000;stroke-width:0.5;"/>
      </defs>
      <g>
       <use style="stroke:#000000;stroke-width:0.5;" x="23.164375" xlink:href="#m2e1d164b8d" y="259.877878707"/>
      </g>
     </g>
    </g>
    <g id="xtick_2">
     <g id="line2d_12">
      <g>
       <use style="stroke:#000000;stroke-width:0.5;" x="124.462858728" xlink:href="#m2e1d164b8d" y="259.877878707"/>
      </g>
     </g>
     <g id="text_1">
      <!-- 2 -->
      <defs>
       <path d="M 19.1875 8.296875 
L 53.609375 8.296875 
L 53.609375 0 
L 7.328125 0 
L 7.328125 8.296875 
Q 12.9375 14.109375 22.625 23.890625 
Q 32.328125 33.6875 34.8125 36.53125 
Q 39.546875 41.84375 41.421875 45.53125 
Q 43.3125 49.21875 43.3125 52.78125 
Q 43.3125 58.59375 39.234375 62.25 
Q 35.15625 65.921875 28.609375 65.921875 
Q 23.96875 65.921875 18.8125 64.3125 
Q 13.671875 62.703125 7.8125 59.421875 
L 7.8125 69.390625 
Q 13.765625 71.78125 18.9375 73 
Q 24.125 74.21875 28.421875 74.21875 
Q 39.75 74.21875 46.484375 68.546875 
Q 53.21875 62.890625 53.21875 53.421875 
Q 53.21875 48.921875 51.53125 44.890625 
Q 49.859375 40.875 45.40625 35.40625 
Q 44.1875 33.984375 37.640625 27.21875 
Q 31.109375 20.453125 19.1875 8.296875 
" id="BitstreamVeraSans-Roman-32"/>
      </defs>
      <g transform="translate(120.645358728 272.996003707)scale(0.12 -0.12)">
       <use xlink:href="#BitstreamVeraSans-Roman-32"/>
      </g>
     </g>
    </g>
    <g id="xtick_3">
     <g id="line2d_13">
      <g>
       <use style="stroke:#000000;stroke-width:0.5;" x="225.761342456" xlink:href="#m2e1d164b8d" y="259.877878707"/>
      </g>
     </g>
     <g id="text_2">
      <!-- 4 -->
      <defs>
       <path d="M 37.796875 64.3125 
L 12.890625 25.390625 
L 37.796875 25.390625 
z
M 35.203125 72.90625 
L 47.609375 72.90625 
L 47.609375 25.390625 
L 58.015625 25.390625 
L 58.015625 17.1875 
L 47.609375 17.1875 
L 47.609375 0 
L 37.796875 0 
L 37.796875 17.1875 
L 4.890625 17.1875 
L 4.890625 26.703125 
z
" id="BitstreamVeraSans-Roman-34"/>
      </defs>
      <g transform="translate(221.943842456 272.996003707)scale(0.12 -0.12)">
       <use xlink:href="#BitstreamVeraSans-Roman-34"/>
      </g>
     </g>
    </g>
    <g id="xtick_4">
     <g id="line2d_14">
      <g>
       <use style="stroke:#000000;stroke-width:0.5;" x="327.059826183" xlink:href="#m2e1d164b8d" y="259.877878707"/>
      </g>
     </g>
     <g id="text_3">
      <!-- 6 -->
      <defs>
       <path d="M 33.015625 40.375 
Q 26.375 40.375 22.484375 35.828125 
Q 18.609375 31.296875 18.609375 23.390625 
Q 18.609375 15.53125 22.484375 10.953125 
Q 26.375 6.390625 33.015625 6.390625 
Q 39.65625 6.390625 43.53125 10.953125 
Q 47.40625 15.53125 47.40625 23.390625 
Q 47.40625 31.296875 43.53125 35.828125 
Q 39.65625 40.375 33.015625 40.375 
M 52.59375 71.296875 
L 52.59375 62.3125 
Q 48.875 64.0625 45.09375 64.984375 
Q 41.3125 65.921875 37.59375 65.921875 
Q 27.828125 65.921875 22.671875 59.328125 
Q 17.53125 52.734375 16.796875 39.40625 
Q 19.671875 43.65625 24.015625 45.921875 
Q 28.375 48.1875 33.59375 48.1875 
Q 44.578125 48.1875 50.953125 41.515625 
Q 57.328125 34.859375 57.328125 23.390625 
Q 57.328125 12.15625 50.6875 5.359375 
Q 44.046875 -1.421875 33.015625 -1.421875 
Q 20.359375 -1.421875 13.671875 8.265625 
Q 6.984375 17.96875 6.984375 36.375 
Q 6.984375 53.65625 15.1875 63.9375 
Q 23.390625 74.21875 37.203125 74.21875 
Q 40.921875 74.21875 44.703125 73.484375 
Q 48.484375 72.75 52.59375 71.296875 
" id="BitstreamVeraSans-Roman-36"/>
      </defs>
      <g transform="translate(323.242326183 272.996003707)scale(0.12 -0.12)">
       <use xlink:href="#BitstreamVeraSans-Roman-36"/>
      </g>
     </g>
    </g>
    <g id="xtick_5">
     <g id="line2d_15">
      <g>
       <use style="stroke:#000000;stroke-width:0.5;" x="428.358309911" xlink:href="#m2e1d164b8d" y="259.877878707"/>
      </g>
     </g>
     <g id="text_4">
      <!-- 8 -->
      <defs>
       <path d="M 31.78125 34.625 
Q 24.75 34.625 20.71875 30.859375 
Q 16.703125 27.09375 16.703125 20.515625 
Q 16.703125 13.921875 20.71875 10.15625 
Q 24.75 6.390625 31.78125 6.390625 
Q 38.8125 6.390625 42.859375 10.171875 
Q 46.921875 13.96875 46.921875 20.515625 
Q 46.921875 27.09375 42.890625 30.859375 
Q 38.875 34.625 31.78125 34.625 
M 21.921875 38.8125 
Q 15.578125 40.375 12.03125 44.71875 
Q 8.5 49.078125 8.5 55.328125 
Q 8.5 64.0625 14.71875 69.140625 
Q 20.953125 74.21875 31.78125 74.21875 
Q 42.671875 74.21875 48.875 69.140625 
Q 55.078125 64.0625 55.078125 55.328125 
Q 55.078125 49.078125 51.53125 44.71875 
Q 48 40.375 41.703125 38.8125 
Q 48.828125 37.15625 52.796875 32.3125 
Q 56.78125 27.484375 56.78125 20.515625 
Q 56.78125 9.90625 50.3125 4.234375 
Q 43.84375 -1.421875 31.78125 -1.421875 
Q 19.734375 -1.421875 13.25 4.234375 
Q 6.78125 9.90625 6.78125 20.515625 
Q 6.78125 27.484375 10.78125 32.3125 
Q 14.796875 37.15625 21.921875 38.8125 
M 18.3125 54.390625 
Q 18.3125 48.734375 21.84375 45.5625 
Q 25.390625 42.390625 31.78125 42.390625 
Q 38.140625 42.390625 41.71875 45.5625 
Q 45.3125 48.734375 45.3125 54.390625 
Q 45.3125 60.0625 41.71875 63.234375 
Q 38.140625 66.40625 31.78125 66.40625 
Q 25.390625 66.40625 21.84375 63.234375 
Q 18.3125 60.0625 18.3125 54.390625 
" id="BitstreamVeraSans-Roman-38"/>
      </defs>
      <g transform="translate(424.540809911 272.996003707)scale(0.12 -0.12)">
       <use xlink:href="#BitstreamVeraSans-Roman-38"/>
      </g>
     </g>
    </g>
    <g id="xtick_6">
     <g id="line2d_16">
      <g>
       <use style="stroke:#000000;stroke-width:0.5;" x="529.656793639" xlink:href="#m2e1d164b8d" y="259.877878707"/>
      </g>
     </g>
     <g id="text_5">
      <!-- 10 -->
      <defs>
       <path d="M 31.78125 66.40625 
Q 24.171875 66.40625 20.328125 58.90625 
Q 16.5 51.421875 16.5 36.375 
Q 16.5 21.390625 20.328125 13.890625 
Q 24.171875 6.390625 31.78125 6.390625 
Q 39.453125 6.390625 43.28125 13.890625 
Q 47.125 21.390625 47.125 36.375 
Q 47.125 51.421875 43.28125 58.90625 
Q 39.453125 66.40625 31.78125 66.40625 
M 31.78125 74.21875 
Q 44.046875 74.21875 50.515625 64.515625 
Q 56.984375 54.828125 56.984375 36.375 
Q 56.984375 17.96875 50.515625 8.265625 
Q 44.046875 -1.421875 31.78125 -1.421875 
Q 19.53125 -1.421875 13.0625 8.265625 
Q 6.59375 17.96875 6.59375 36.375 
Q 6.59375 54.828125 13.0625 64.515625 
Q 19.53125 74.21875 31.78125 74.21875 
" id="BitstreamVeraSans-Roman-30"/>
       <path d="M 12.40625 8.296875 
L 28.515625 8.296875 
L 28.515625 63.921875 
L 10.984375 60.40625 
L 10.984375 69.390625 
L 28.421875 72.90625 
L 38.28125 72.90625 
L 38.28125 8.296875 
L 54.390625 8.296875 
L 54.390625 0 
L 12.40625 0 
z
" id="BitstreamVeraSans-Roman-31"/>
      </defs>
      <g transform="translate(522.021793639 272.996003707)scale(0.12 -0.12)">
       <use xlink:href="#BitstreamVeraSans-Roman-31"/>
       <use x="63.623046875" xlink:href="#BitstreamVeraSans-Roman-30"/>
      </g>
     </g>
    </g>
    <g id="xtick_7">
     <g id="line2d_17">
      <defs>
       <path d="M 0 0 
L 0 -2 
" id="mb8ad0fd746" style="stroke:#000000;stroke-width:0.5;"/>
      </defs>
      <g>
       <use style="stroke:#000000;stroke-width:0.5;" x="48.488995932" xlink:href="#mb8ad0fd746" y="259.877878707"/>
      </g>
     </g>
    </g>
    <g id="xtick_8">
     <g id="line2d_18">
      <g>
       <use style="stroke:#000000;stroke-width:0.5;" x="73.8136168639" xlink:href="#mb8ad0fd746" y="259.877878707"/>
      </g>
     </g>
    </g>
    <g id="xtick_9">
     <g id="line2d_19">
      <g>
       <use style="stroke:#000000;stroke-width:0.5;" x="99.1382377959" xlink:href="#mb8ad0fd746" y="259.877878707"/>
      </g>
     </g>
    </g>
    <g id="xtick_10">
     <g id="line2d_20">
      <g>
       <use style="stroke:#000000;stroke-width:0.5;" x="149.78747966" xlink:href="#mb8ad0fd746" y="259.877878707"/>
      </g>
     </g>
    </g>
    <g id="xtick_11">
     <g id="line2d_21">
      <g>
       <use style="stroke:#000000;stroke-width:0.5;" x="175.112100592" xlink:href="#mb8ad0fd746" y="259.877878707"/>
      </g>
     </g>
    </g>
    <g id="xtick_12">
     <g id="line2d_22">
      <g>
       <use style="stroke:#000000;stroke-width:0.5;" x="200.436721524" xlink:href="#mb8ad0fd746" y="259.877878707"/>
      </g>
     </g>
    </g>
    <g id="xtick_13">
     <g id="line2d_23">
      <g>
       <use style="stroke:#000000;stroke-width:0.5;" x="251.085963388" xlink:href="#mb8ad0fd746" y="259.877878707"/>
      </g>
     </g>
    </g>
    <g id="xtick_14">
     <g id="line2d_24">
      <g>
       <use style="stroke:#000000;stroke-width:0.5;" x="276.41058432" xlink:href="#mb8ad0fd746" y="259.877878707"/>
      </g>
     </g>
    </g>
    <g id="xtick_15">
     <g id="line2d_25">
      <g>
       <use style="stroke:#000000;stroke-width:0.5;" x="301.735205251" xlink:href="#mb8ad0fd746" y="259.877878707"/>
      </g>
     </g>
    </g>
    <g id="xtick_16">
     <g id="line2d_26">
      <g>
       <use style="stroke:#000000;stroke-width:0.5;" x="352.384447115" xlink:href="#mb8ad0fd746" y="259.877878707"/>
      </g>
     </g>
    </g>
    <g id="xtick_17">
     <g id="line2d_27">
      <g>
       <use style="stroke:#000000;stroke-width:0.5;" x="377.709068047" xlink:href="#mb8ad0fd746" y="259.877878707"/>
      </g>
     </g>
    </g>
    <g id="xtick_18">
     <g id="line2d_28">
      <g>
       <use style="stroke:#000000;stroke-width:0.5;" x="403.033688979" xlink:href="#mb8ad0fd746" y="259.877878707"/>
      </g>
     </g>
    </g>
    <g id="xtick_19">
     <g id="line2d_29">
      <g>
       <use style="stroke:#000000;stroke-width:0.5;" x="453.682930843" xlink:href="#mb8ad0fd746" y="259.877878707"/>
      </g>
     </g>
    </g>
    <g id="xtick_20">
     <g id="line2d_30">
      <g>
       <use style="stroke:#000000;stroke-width:0.5;" x="479.007551775" xlink:href="#mb8ad0fd746" y="259.877878707"/>
      </g>
     </g>
    </g>
    <g id="xtick_21">
     <g id="line2d_31">
      <g>
       <use style="stroke:#000000;stroke-width:0.5;" x="504.332172707" xlink:href="#mb8ad0fd746" y="259.877878707"/>
      </g>
     </g>
    </g>
    <g id="text_6">
     <!-- $t$ -->
     <defs>
      <path d="M 6.203125 8.109375 
Q 6.203125 9.578125 6.5 10.890625 
L 13.71875 39.59375 
L 3.21875 39.59375 
Q 2.203125 39.59375 2.203125 40.921875 
Q 2.59375 43.109375 3.515625 43.109375 
L 14.59375 43.109375 
L 18.609375 59.421875 
Q 19 60.75 20.171875 61.671875 
Q 21.34375 62.59375 22.796875 62.59375 
Q 24.078125 62.59375 24.921875 61.828125 
Q 25.78125 61.078125 25.78125 59.8125 
Q 25.78125 59.515625 25.75 59.34375 
Q 25.734375 59.1875 25.6875 58.984375 
L 21.6875 43.109375 
L 31.984375 43.109375 
Q 33.015625 43.109375 33.015625 41.796875 
Q 32.953125 41.546875 32.8125 40.953125 
Q 32.671875 40.375 32.421875 39.984375 
Q 32.171875 39.59375 31.6875 39.59375 
L 20.796875 39.59375 
L 13.625 10.6875 
Q 12.890625 7.859375 12.890625 5.8125 
Q 12.890625 1.515625 15.828125 1.515625 
Q 20.21875 1.515625 23.609375 5.640625 
Q 27 9.765625 28.8125 14.703125 
Q 29.203125 15.28125 29.59375 15.28125 
L 30.8125 15.28125 
Q 31.203125 15.28125 31.4375 15.015625 
Q 31.6875 14.75 31.6875 14.40625 
Q 31.6875 14.203125 31.59375 14.109375 
Q 29.390625 8.0625 25.1875 3.46875 
Q 21 -1.125 15.578125 -1.125 
Q 11.625 -1.125 8.90625 1.453125 
Q 6.203125 4.046875 6.203125 8.109375 
" id="Cmmi10-74"/>
     </defs>
     <g transform="translate(547.786642012 259.877878707)scale(0.19 -0.19)">
      <use transform="translate(0.0 0.40625)" xlink:href="#Cmmi10-74"/>
     </g>
    </g>
   </g>
   <g id="matplotlib.axis_2">
    <g id="ytick_1">
     <g id="line2d_32">
      <defs>
       <path d="M 0 0 
L 4 0 
" id="m8b90c7064a" style="stroke:#000000;stroke-width:0.5;"/>
      </defs>
      <g>
       <use style="stroke:#000000;stroke-width:0.5;" x="23.164375" xlink:href="#m8b90c7064a" y="351.202648536"/>
      </g>
     </g>
     <g id="text_7">
      <!-- -1 -->
      <defs>
       <path d="M 4.890625 31.390625 
L 31.203125 31.390625 
L 31.203125 23.390625 
L 4.890625 23.390625 
z
" id="BitstreamVeraSans-Roman-2d"/>
      </defs>
      <g transform="translate(7.2 354.513898536)scale(0.12 -0.12)">
       <use xlink:href="#BitstreamVeraSans-Roman-2d"/>
       <use x="36.083984375" xlink:href="#BitstreamVeraSans-Roman-31"/>
      </g>
     </g>
    </g>
    <g id="ytick_2">
     <g id="line2d_33">
      <g>
       <use style="stroke:#000000;stroke-width:0.5;" x="23.164375" xlink:href="#m8b90c7064a" y="259.877878707"/>
      </g>
     </g>
    </g>
    <g id="ytick_3">
     <g id="line2d_34">
      <g>
       <use style="stroke:#000000;stroke-width:0.5;" x="23.164375" xlink:href="#m8b90c7064a" y="168.553108878"/>
      </g>
     </g>
     <g id="text_8">
      <!-- 1 -->
      <g transform="translate(11.529375 171.864358878)scale(0.12 -0.12)">
       <use xlink:href="#BitstreamVeraSans-Roman-31"/>
      </g>
     </g>
    </g>
    <g id="ytick_4">
     <g id="line2d_35">
      <g>
       <use style="stroke:#000000;stroke-width:0.5;" x="23.164375" xlink:href="#m8b90c7064a" y="77.2283390487"/>
      </g>
     </g>
     <g id="text_9">
      <!-- 2 -->
      <g transform="translate(11.529375 80.5395890487)scale(0.12 -0.12)">
       <use xlink:href="#BitstreamVeraSans-Roman-32"/>
      </g>
     </g>
    </g>
    <g id="ytick_5">
     <g id="line2d_36">
      <defs>
       <path d="M 0 0 
L 2 0 
" id="m5e85bb9d07" style="stroke:#000000;stroke-width:0.5;"/>
      </defs>
      <g>
       <use style="stroke:#000000;stroke-width:0.5;" x="23.164375" xlink:href="#m5e85bb9d07" y="405.997510434"/>
      </g>
     </g>
    </g>
    <g id="ytick_6">
     <g id="line2d_37">
      <g>
       <use style="stroke:#000000;stroke-width:0.5;" x="23.164375" xlink:href="#m5e85bb9d07" y="387.732556468"/>
      </g>
     </g>
    </g>
    <g id="ytick_7">
     <g id="line2d_38">
      <g>
       <use style="stroke:#000000;stroke-width:0.5;" x="23.164375" xlink:href="#m5e85bb9d07" y="369.467602502"/>
      </g>
     </g>
    </g>
    <g id="ytick_8">
     <g id="line2d_39">
      <g>
       <use style="stroke:#000000;stroke-width:0.5;" x="23.164375" xlink:href="#m5e85bb9d07" y="332.93769457"/>
      </g>
     </g>
    </g>
    <g id="ytick_9">
     <g id="line2d_40">
      <g>
       <use style="stroke:#000000;stroke-width:0.5;" x="23.164375" xlink:href="#m5e85bb9d07" y="314.672740605"/>
      </g>
     </g>
    </g>
    <g id="ytick_10">
     <g id="line2d_41">
      <g>
       <use style="stroke:#000000;stroke-width:0.5;" x="23.164375" xlink:href="#m5e85bb9d07" y="296.407786639"/>
      </g>
     </g>
    </g>
    <g id="ytick_11">
     <g id="line2d_42">
      <g>
       <use style="stroke:#000000;stroke-width:0.5;" x="23.164375" xlink:href="#m5e85bb9d07" y="278.142832673"/>
      </g>
     </g>
    </g>
    <g id="ytick_12">
     <g id="line2d_43">
      <g>
       <use style="stroke:#000000;stroke-width:0.5;" x="23.164375" xlink:href="#m5e85bb9d07" y="241.612924741"/>
      </g>
     </g>
    </g>
    <g id="ytick_13">
     <g id="line2d_44">
      <g>
       <use style="stroke:#000000;stroke-width:0.5;" x="23.164375" xlink:href="#m5e85bb9d07" y="223.347970775"/>
      </g>
     </g>
    </g>
    <g id="ytick_14">
     <g id="line2d_45">
      <g>
       <use style="stroke:#000000;stroke-width:0.5;" x="23.164375" xlink:href="#m5e85bb9d07" y="205.08301681"/>
      </g>
     </g>
    </g>
    <g id="ytick_15">
     <g id="line2d_46">
      <g>
       <use style="stroke:#000000;stroke-width:0.5;" x="23.164375" xlink:href="#m5e85bb9d07" y="186.818062844"/>
      </g>
     </g>
    </g>
    <g id="ytick_16">
     <g id="line2d_47">
      <g>
       <use style="stroke:#000000;stroke-width:0.5;" x="23.164375" xlink:href="#m5e85bb9d07" y="150.288154912"/>
      </g>
     </g>
    </g>
    <g id="ytick_17">
     <g id="line2d_48">
      <g>
       <use style="stroke:#000000;stroke-width:0.5;" x="23.164375" xlink:href="#m5e85bb9d07" y="132.023200946"/>
      </g>
     </g>
    </g>
    <g id="ytick_18">
     <g id="line2d_49">
      <g>
       <use style="stroke:#000000;stroke-width:0.5;" x="23.164375" xlink:href="#m5e85bb9d07" y="113.75824698"/>
      </g>
     </g>
    </g>
    <g id="ytick_19">
     <g id="line2d_50">
      <g>
       <use style="stroke:#000000;stroke-width:0.5;" x="23.164375" xlink:href="#m5e85bb9d07" y="95.4932930146"/>
      </g>
     </g>
    </g>
    <g id="ytick_20">
     <g id="line2d_51">
      <g>
       <use style="stroke:#000000;stroke-width:0.5;" x="23.164375" xlink:href="#m5e85bb9d07" y="58.9633850829"/>
      </g>
     </g>
    </g>
    <g id="ytick_21">
     <g id="line2d_52">
      <g>
       <use style="stroke:#000000;stroke-width:0.5;" x="23.164375" xlink:href="#m5e85bb9d07" y="40.6984311171"/>
      </g>
     </g>
    </g>
    <g id="ytick_22">
     <g id="line2d_53">
      <g>
       <use style="stroke:#000000;stroke-width:0.5;" x="23.164375" xlink:href="#m5e85bb9d07" y="22.4334771512"/>
      </g>
     </g>
    </g>
   </g>
   <g id="legend_1">
    <g id="patch_5">
     <path d="M 485.026642 54.07625 
L 535.786642 54.07625 
L 535.786642 15.2 
L 485.026642 15.2 
z
" style="fill:#4c4c4c;opacity:0.5;stroke:#4c4c4c;stroke-linejoin:miter;"/>
    </g>
    <g id="patch_6">
     <path d="M 483.026642 52.07625 
L 533.786642 52.07625 
L 533.786642 13.2 
L 483.026642 13.2 
z
" style="fill:#ffffff;stroke:#000000;stroke-linejoin:miter;"/>
    </g>
    <g id="line2d_54">
     <path d="M 493.826642 25.318125 
L 487.226642 25.318125 
" style="fill:none;stroke:#0000ff;stroke-linecap:square;"/>
    </g>
    <g id="line2d_55"/>
    <g id="text_10">
     <!-- $x(t)$ -->
     <defs>
      <path d="M 31 -24.8125 
Q 25.4375 -20.40625 21.40625 -14.71875 
Q 17.390625 -9.03125 14.8125 -2.578125 
Q 12.25 3.859375 10.984375 10.890625 
Q 9.71875 17.921875 9.71875 25 
Q 9.71875 32.171875 10.984375 39.203125 
Q 12.25 46.234375 14.859375 52.734375 
Q 17.484375 59.234375 21.53125 64.890625 
Q 25.59375 70.5625 31 74.8125 
Q 31 75 31.5 75 
L 32.421875 75 
Q 32.71875 75 32.953125 74.734375 
Q 33.203125 74.46875 33.203125 74.125 
Q 33.203125 73.6875 33.015625 73.484375 
Q 28.125 68.703125 24.875 63.234375 
Q 21.625 57.765625 19.640625 51.578125 
Q 17.671875 45.40625 16.796875 38.78125 
Q 15.921875 32.171875 15.921875 25 
Q 15.921875 -6.78125 32.90625 -23.296875 
Q 33.203125 -23.578125 33.203125 -24.125 
Q 33.203125 -24.359375 32.9375 -24.671875 
Q 32.671875 -25 32.421875 -25 
L 31.5 -25 
Q 31 -25 31 -24.8125 
" id="Cmr10-28"/>
      <path d="M 6.5 -25 
Q 5.609375 -25 5.609375 -24.125 
Q 5.609375 -23.6875 5.8125 -23.484375 
Q 22.90625 -6.78125 22.90625 25 
Q 22.90625 56.78125 6 73.296875 
Q 5.609375 73.53125 5.609375 74.125 
Q 5.609375 74.46875 5.875 74.734375 
Q 6.15625 75 6.5 75 
L 7.421875 75 
Q 7.71875 75 7.90625 74.8125 
Q 15.09375 69.140625 19.875 61.03125 
Q 24.65625 52.9375 26.875 43.75 
Q 29.109375 34.578125 29.109375 25 
Q 29.109375 17.921875 27.90625 11.0625 
Q 26.703125 4.203125 24.09375 -2.453125 
Q 21.484375 -9.125 17.484375 -14.765625 
Q 13.484375 -20.40625 7.90625 -24.8125 
Q 7.71875 -25 7.421875 -25 
z
" id="Cmr10-29"/>
      <path d="M 7.8125 2.875 
Q 9.578125 1.515625 12.796875 1.515625 
Q 15.921875 1.515625 18.3125 4.515625 
Q 20.703125 7.515625 21.578125 11.078125 
L 26.125 28.8125 
Q 27.203125 33.640625 27.203125 35.40625 
Q 27.203125 37.890625 25.8125 39.75 
Q 24.421875 41.609375 21.921875 41.609375 
Q 18.75 41.609375 15.96875 39.625 
Q 13.1875 37.640625 11.28125 34.59375 
Q 9.375 31.546875 8.59375 28.421875 
Q 8.40625 27.78125 7.8125 27.78125 
L 6.59375 27.78125 
Q 5.8125 27.78125 5.8125 28.71875 
L 5.8125 29 
Q 6.78125 32.71875 9.125 36.25 
Q 11.46875 39.796875 14.859375 41.984375 
Q 18.265625 44.1875 22.125 44.1875 
Q 25.78125 44.1875 28.734375 42.234375 
Q 31.6875 40.28125 32.90625 36.921875 
Q 34.625 39.984375 37.28125 42.078125 
Q 39.9375 44.1875 43.109375 44.1875 
Q 45.265625 44.1875 47.5 43.421875 
Q 49.75 42.671875 51.171875 41.109375 
Q 52.59375 39.546875 52.59375 37.203125 
Q 52.59375 34.671875 50.953125 32.828125 
Q 49.3125 31 46.78125 31 
Q 45.171875 31 44.09375 32.03125 
Q 43.015625 33.0625 43.015625 34.625 
Q 43.015625 36.71875 44.453125 38.296875 
Q 45.90625 39.890625 47.90625 40.1875 
Q 46.09375 41.609375 42.921875 41.609375 
Q 39.703125 41.609375 37.328125 38.625 
Q 34.96875 35.640625 33.984375 31.984375 
L 29.59375 14.3125 
Q 28.515625 10.296875 28.515625 7.71875 
Q 28.515625 5.171875 29.953125 3.34375 
Q 31.390625 1.515625 33.796875 1.515625 
Q 38.484375 1.515625 42.15625 5.640625 
Q 45.84375 9.765625 47.015625 14.703125 
Q 47.21875 15.28125 47.796875 15.28125 
L 49.03125 15.28125 
Q 49.421875 15.28125 49.65625 15.015625 
Q 49.90625 14.75 49.90625 14.40625 
Q 49.90625 14.3125 49.8125 14.109375 
Q 48.390625 8.15625 43.84375 3.515625 
Q 39.3125 -1.125 33.59375 -1.125 
Q 29.9375 -1.125 26.984375 0.84375 
Q 24.03125 2.828125 22.796875 6.203125 
Q 21.234375 3.265625 18.46875 1.0625 
Q 15.71875 -1.125 12.59375 -1.125 
Q 10.453125 -1.125 8.171875 -0.359375 
Q 5.90625 0.390625 4.484375 1.953125 
Q 3.078125 3.515625 3.078125 5.90625 
Q 3.078125 8.25 4.703125 10.171875 
Q 6.34375 12.109375 8.796875 12.109375 
Q 10.453125 12.109375 11.578125 11.109375 
Q 12.703125 10.109375 12.703125 8.5 
Q 12.703125 6.390625 11.296875 4.828125 
Q 9.90625 3.265625 7.8125 2.875 
" id="Cmmi10-78"/>
     </defs>
     <g transform="translate(496.826642012 29.518125)scale(0.12 -0.12)">
      <use xlink:href="#Cmmi10-78"/>
      <use transform="translate(57.080078125 0.0)" xlink:href="#Cmr10-28"/>
      <use transform="translate(95.8984375 0.0)" xlink:href="#Cmmi10-74"/>
      <use transform="translate(131.982421875 0.0)" xlink:href="#Cmr10-29"/>
     </g>
    </g>
    <g id="line2d_56">
     <path d="M 493.826642 37.67625 
L 487.226642 37.67625 
" style="fill:none;stroke:#ff0000;stroke-linecap:square;"/>
    </g>
    <g id="line2d_57"/>
    <g id="text_11">
     <!-- $dx/dt$ -->
     <defs>
      <path d="M 5.609375 -23 
Q 5.609375 -22.703125 5.71875 -22.609375 
L 40.484375 73.78125 
Q 40.671875 74.359375 41.15625 74.671875 
Q 41.65625 75 42.28125 75 
Q 43.171875 75 43.71875 74.453125 
Q 44.28125 73.921875 44.28125 73 
L 44.28125 72.609375 
L 9.515625 -23.78125 
Q 8.9375 -25 7.625 -25 
Q 6.78125 -25 6.1875 -24.40625 
Q 5.609375 -23.828125 5.609375 -23 
" id="Cmmi10-3d"/>
      <path d="M 17.390625 -1.125 
Q 11.078125 -1.125 7.4375 3.640625 
Q 3.8125 8.40625 3.8125 14.890625 
Q 3.8125 21.296875 7.125 28.171875 
Q 10.453125 35.0625 16.09375 39.625 
Q 21.734375 44.1875 28.21875 44.1875 
Q 31.15625 44.1875 33.515625 42.546875 
Q 35.890625 40.921875 37.203125 38.1875 
L 42.828125 60.5 
Q 43.21875 62.203125 43.3125 63.1875 
Q 43.3125 64.796875 36.8125 64.796875 
Q 35.796875 64.796875 35.796875 66.109375 
Q 35.84375 66.359375 36.015625 66.984375 
Q 36.1875 67.625 36.453125 67.96875 
Q 36.71875 68.3125 37.203125 68.3125 
L 50.6875 69.390625 
Q 51.90625 69.390625 51.90625 68.109375 
L 37.5 10.59375 
Q 36.8125 8.9375 36.8125 5.8125 
Q 36.8125 1.515625 39.703125 1.515625 
Q 42.828125 1.515625 44.453125 5.484375 
Q 46.09375 9.46875 47.21875 14.703125 
Q 47.40625 15.28125 48 15.28125 
L 49.21875 15.28125 
Q 49.609375 15.28125 49.84375 14.9375 
Q 50.09375 14.59375 50.09375 14.3125 
Q 48.34375 7.328125 46.265625 3.09375 
Q 44.1875 -1.125 39.5 -1.125 
Q 36.140625 -1.125 33.546875 0.84375 
Q 30.953125 2.828125 30.328125 6.109375 
Q 23.875 -1.125 17.390625 -1.125 
M 17.484375 1.515625 
Q 21.09375 1.515625 24.484375 4.21875 
Q 27.875 6.9375 30.328125 10.59375 
Q 30.421875 10.6875 30.421875 10.984375 
L 35.890625 33.015625 
Q 35.296875 36.53125 33.296875 39.0625 
Q 31.296875 41.609375 27.984375 41.609375 
Q 24.609375 41.609375 21.703125 38.84375 
Q 18.796875 36.078125 16.796875 32.328125 
Q 14.84375 28.328125 13.0625 21.34375 
Q 11.28125 14.359375 11.28125 10.5 
Q 11.28125 7.03125 12.765625 4.265625 
Q 14.265625 1.515625 17.484375 1.515625 
" id="Cmmi10-64"/>
     </defs>
     <g transform="translate(496.826642012 41.87625)scale(0.12 -0.12)">
      <use xlink:href="#Cmmi10-64"/>
      <use transform="translate(52.001953125 0.0)" xlink:href="#Cmmi10-78"/>
      <use transform="translate(109.08203125 0.0)" xlink:href="#Cmmi10-3d"/>
      <use transform="translate(159.08203125 0.0)" xlink:href="#Cmmi10-64"/>
      <use transform="translate(211.083984375 0.0)" xlink:href="#Cmmi10-74"/>
     </g>
    </g>
   </g>
  </g>
 </g>
 <defs>
  <clipPath id="p153640ede1">
   <rect height="406.08" width="526.752115385" x="13.0345266272" y="7.2"/>
  </clipPath>
 </defs>
</svg>
