<?xml version="1.0" encoding="utf-8" standalone="no"?>
<!DOCTYPE svg PUBLIC "-//W3C//DTD SVG 1.1//EN"
  "http://www.w3.org/Graphics/SVG/1.1/DTD/svg11.dtd">
<svg xmlns:xlink="http://www.w3.org/1999/xlink" width="455.364085pt" height="344.32pt" viewBox="0 0 455.364085 344.32" xmlns="http://www.w3.org/2000/svg" version="1.1">
 <metadata>
  <rdf:RDF xmlns:dc="http://purl.org/dc/elements/1.1/" xmlns:cc="http://creativecommons.org/ns#" xmlns:rdf="http://www.w3.org/1999/02/22-rdf-syntax-ns#">
   <cc:Work>
    <dc:type rdf:resource="http://purl.org/dc/dcmitype/StillImage"/>
    <dc:date>2022-06-16T22:08:42.677418</dc:date>
    <dc:format>image/svg+xml</dc:format>
    <dc:creator>
     <cc:Agent>
      <dc:title>Matplotlib v3.5.1, https://matplotlib.org/</dc:title>
     </cc:Agent>
    </dc:creator>
   </cc:Work>
  </rdf:RDF>
 </metadata>
 <defs>
  <style type="text/css">*{stroke-linejoin: round; stroke-linecap: butt}</style>
 </defs>
 <g id="figure_1">
  <g id="patch_1">
   <path d="M 0 344.32 
L 455.364085 344.32 
L 455.364085 0 
L 0 0 
z
" style="fill: #ffffff"/>
  </g>
  <g id="axes_1">
   <g id="patch_2">
    <path d="M 113.63443 337.12 
L 434.244085 337.12 
L 434.244085 31.2 
L 113.63443 31.2 
z
" style="fill: #ffffff"/>
   </g>
   <g id="matplotlib.axis_1">
    <g id="xtick_1">
     <g id="line2d_1">
      <defs>
       <path id="m4a6c1f800f" d="M 0 0 
L 0 3.5 
" style="stroke: #000000; stroke-width: 0.8"/>
      </defs>
      <g>
       <use xlink:href="#m4a6c1f800f" x="119.8" y="184.153804" style="stroke: #000000; stroke-width: 0.8"/>
      </g>
     </g>
    </g>
    <g id="xtick_2">
     <g id="line2d_2">
      <g>
       <use xlink:href="#m4a6c1f800f" x="181.455703" y="184.153804" style="stroke: #000000; stroke-width: 0.8"/>
      </g>
     </g>
     <g id="text_1">
      <!-- $\pi$ -->
      <g transform="translate(178.605703 198.752242)scale(0.1 -0.1)">
       <defs>
        <path id="Cmmi10-bc" d="M 647 109 
Q 647 144 672 213 
Q 850 584 1004 942 
Q 1159 1300 1282 1639 
Q 1406 1978 1509 2363 
L 1100 2363 
Q 866 2363 662 2216 
Q 459 2069 325 1844 
Q 313 1819 288 1819 
L 213 1819 
Q 153 1819 153 1881 
Q 153 1894 166 1919 
Q 375 2275 614 2517 
Q 853 2759 1153 2759 
L 3475 2759 
Q 3541 2759 3587 2715 
Q 3634 2672 3634 2597 
Q 3634 2503 3567 2433 
Q 3500 2363 3406 2363 
L 2591 2363 
Q 2488 1859 2478 1381 
Q 2478 766 2694 269 
Q 2713 231 2713 191 
Q 2713 122 2672 62 
Q 2631 3 2567 -34 
Q 2503 -72 2431 -72 
Q 2263 -72 2200 203 
Q 2138 478 2138 738 
Q 2138 1103 2200 1442 
Q 2263 1781 2400 2363 
L 1703 2363 
Q 1197 313 1094 103 
Q 1003 -72 844 -72 
Q 766 -72 706 -20 
Q 647 31 647 109 
z
" transform="scale(0.015625)"/>
       </defs>
       <use xlink:href="#Cmmi10-bc" transform="translate(0 0.890625)"/>
      </g>
     </g>
    </g>
    <g id="xtick_3">
     <g id="line2d_3">
      <g>
       <use xlink:href="#m4a6c1f800f" x="243.111406" y="184.153804" style="stroke: #000000; stroke-width: 0.8"/>
      </g>
     </g>
     <g id="text_2">
      <!-- $2 \, \pi$ -->
      <g transform="translate(237.011406 198.752242)scale(0.1 -0.1)">
       <defs>
        <path id="Cmr10-32" d="M 319 0 
L 319 172 
Q 319 188 331 206 
L 1325 1306 
Q 1550 1550 1690 1715 
Q 1831 1881 1968 2097 
Q 2106 2313 2186 2536 
Q 2266 2759 2266 3009 
Q 2266 3272 2169 3511 
Q 2072 3750 1880 3894 
Q 1688 4038 1416 4038 
Q 1138 4038 916 3870 
Q 694 3703 603 3438 
Q 628 3444 672 3444 
Q 816 3444 917 3347 
Q 1019 3250 1019 3097 
Q 1019 2950 917 2848 
Q 816 2747 672 2747 
Q 522 2747 420 2851 
Q 319 2956 319 3097 
Q 319 3338 409 3548 
Q 500 3759 670 3923 
Q 841 4088 1055 4175 
Q 1269 4263 1509 4263 
Q 1875 4263 2190 4108 
Q 2506 3953 2690 3670 
Q 2875 3388 2875 3009 
Q 2875 2731 2753 2481 
Q 2631 2231 2440 2026 
Q 2250 1822 1953 1562 
Q 1656 1303 1563 1216 
L 838 519 
L 1453 519 
Q 1906 519 2211 526 
Q 2516 534 2534 550 
Q 2609 631 2688 1141 
L 2875 1141 
L 2694 0 
L 319 0 
z
" transform="scale(0.015625)"/>
       </defs>
       <use xlink:href="#Cmr10-32" transform="translate(0 0.390625)"/>
       <use xlink:href="#Cmmi10-bc" transform="translate(64.632454 0.390625)"/>
      </g>
     </g>
    </g>
    <g id="xtick_4">
     <g id="line2d_4">
      <g>
       <use xlink:href="#m4a6c1f800f" x="304.767109" y="184.153804" style="stroke: #000000; stroke-width: 0.8"/>
      </g>
     </g>
     <g id="text_3">
      <!-- $3 \, \pi$ -->
      <g transform="translate(298.667109 198.752242)scale(0.1 -0.1)">
       <defs>
        <path id="Cmr10-33" d="M 609 494 
Q 759 275 1012 169 
Q 1266 63 1556 63 
Q 1928 63 2084 380 
Q 2241 697 2241 1100 
Q 2241 1281 2208 1462 
Q 2175 1644 2097 1800 
Q 2019 1956 1883 2050 
Q 1747 2144 1550 2144 
L 1125 2144 
Q 1069 2144 1069 2203 
L 1069 2259 
Q 1069 2309 1125 2309 
L 1478 2338 
Q 1703 2338 1851 2506 
Q 2000 2675 2069 2917 
Q 2138 3159 2138 3378 
Q 2138 3684 1994 3881 
Q 1850 4078 1556 4078 
Q 1313 4078 1091 3986 
Q 869 3894 738 3706 
Q 750 3709 759 3711 
Q 769 3713 781 3713 
Q 925 3713 1022 3613 
Q 1119 3513 1119 3372 
Q 1119 3234 1022 3134 
Q 925 3034 781 3034 
Q 641 3034 541 3134 
Q 441 3234 441 3372 
Q 441 3647 606 3850 
Q 772 4053 1033 4158 
Q 1294 4263 1556 4263 
Q 1750 4263 1965 4205 
Q 2181 4147 2356 4039 
Q 2531 3931 2642 3762 
Q 2753 3594 2753 3378 
Q 2753 3109 2633 2881 
Q 2513 2653 2303 2487 
Q 2094 2322 1844 2241 
Q 2122 2188 2372 2031 
Q 2622 1875 2773 1631 
Q 2925 1388 2925 1106 
Q 2925 753 2731 467 
Q 2538 181 2222 20 
Q 1906 -141 1556 -141 
Q 1256 -141 954 -26 
Q 653 88 461 316 
Q 269 544 269 863 
Q 269 1022 375 1128 
Q 481 1234 641 1234 
Q 744 1234 830 1186 
Q 916 1138 964 1050 
Q 1013 963 1013 863 
Q 1013 706 903 600 
Q 794 494 641 494 
L 609 494 
z
" transform="scale(0.015625)"/>
       </defs>
       <use xlink:href="#Cmr10-33" transform="translate(0 0.390625)"/>
       <use xlink:href="#Cmmi10-bc" transform="translate(64.632454 0.390625)"/>
      </g>
     </g>
    </g>
    <g id="xtick_5">
     <g id="line2d_5">
      <g>
       <use xlink:href="#m4a6c1f800f" x="366.422812" y="184.153804" style="stroke: #000000; stroke-width: 0.8"/>
      </g>
     </g>
     <g id="text_4">
      <!-- $4 \, \pi$ -->
      <g transform="translate(360.322812 198.752242)scale(0.1 -0.1)">
       <defs>
        <path id="Cmr10-34" d="M 178 1056 
L 178 1281 
L 2156 4231 
Q 2178 4263 2222 4263 
L 2316 4263 
Q 2388 4263 2388 4191 
L 2388 1281 
L 3016 1281 
L 3016 1056 
L 2388 1056 
L 2388 428 
Q 2388 297 2575 261 
Q 2763 225 3009 225 
L 3009 0 
L 1247 0 
L 1247 225 
Q 1494 225 1681 261 
Q 1869 297 1869 428 
L 1869 1056 
L 178 1056 
z
M 391 1281 
L 1906 1281 
L 1906 3547 
L 391 1281 
z
" transform="scale(0.015625)"/>
       </defs>
       <use xlink:href="#Cmr10-34" transform="translate(0 0.390625)"/>
       <use xlink:href="#Cmmi10-bc" transform="translate(64.632454 0.390625)"/>
      </g>
     </g>
    </g>
    <g id="xtick_6">
     <g id="line2d_6">
      <g>
       <use xlink:href="#m4a6c1f800f" x="428.078515" y="184.153804" style="stroke: #000000; stroke-width: 0.8"/>
      </g>
     </g>
     <g id="text_5">
      <!-- $5 \, \pi$ -->
      <g transform="translate(421.978515 198.752242)scale(0.1 -0.1)">
       <defs>
        <path id="Cmr10-35" d="M 556 728 
Q 622 541 758 387 
Q 894 234 1080 148 
Q 1266 63 1466 63 
Q 1928 63 2103 422 
Q 2278 781 2278 1294 
Q 2278 1516 2270 1667 
Q 2263 1819 2228 1959 
Q 2169 2184 2020 2353 
Q 1872 2522 1656 2522 
Q 1441 2522 1286 2456 
Q 1131 2391 1034 2303 
Q 938 2216 863 2119 
Q 788 2022 769 2016 
L 697 2016 
Q 681 2016 657 2036 
Q 634 2056 634 2075 
L 634 4213 
Q 634 4228 654 4245 
Q 675 4263 697 4263 
L 716 4263 
Q 1147 4056 1631 4056 
Q 2106 4056 2547 4263 
L 2566 4263 
Q 2588 4263 2606 4247 
Q 2625 4231 2625 4213 
L 2625 4153 
Q 2625 4122 2613 4122 
Q 2394 3831 2064 3668 
Q 1734 3506 1381 3506 
Q 1125 3506 856 3578 
L 856 2369 
Q 1069 2541 1236 2614 
Q 1403 2688 1663 2688 
Q 2016 2688 2295 2484 
Q 2575 2281 2725 1954 
Q 2875 1628 2875 1288 
Q 2875 903 2686 575 
Q 2497 247 2172 53 
Q 1847 -141 1466 -141 
Q 1150 -141 886 21 
Q 622 184 470 459 
Q 319 734 319 1044 
Q 319 1188 412 1278 
Q 506 1369 647 1369 
Q 788 1369 883 1276 
Q 978 1184 978 1044 
Q 978 906 883 811 
Q 788 716 647 716 
Q 625 716 597 720 
Q 569 725 556 728 
z
" transform="scale(0.015625)"/>
       </defs>
       <use xlink:href="#Cmr10-35" transform="translate(0 0.390625)"/>
       <use xlink:href="#Cmmi10-bc" transform="translate(64.632454 0.390625)"/>
      </g>
     </g>
    </g>
    <g id="xtick_7">
     <g id="line2d_7">
      <defs>
       <path id="m8153c8b1d0" d="M 0 0 
L 0 2 
" style="stroke: #000000; stroke-width: 0.6"/>
      </defs>
      <g>
       <use xlink:href="#m8153c8b1d0" x="135.213926" y="184.153804" style="stroke: #000000; stroke-width: 0.6"/>
      </g>
     </g>
    </g>
    <g id="xtick_8">
     <g id="line2d_8">
      <g>
       <use xlink:href="#m8153c8b1d0" x="150.627851" y="184.153804" style="stroke: #000000; stroke-width: 0.6"/>
      </g>
     </g>
    </g>
    <g id="xtick_9">
     <g id="line2d_9">
      <g>
       <use xlink:href="#m8153c8b1d0" x="166.041777" y="184.153804" style="stroke: #000000; stroke-width: 0.6"/>
      </g>
     </g>
    </g>
    <g id="xtick_10">
     <g id="line2d_10">
      <g>
       <use xlink:href="#m8153c8b1d0" x="196.869629" y="184.153804" style="stroke: #000000; stroke-width: 0.6"/>
      </g>
     </g>
    </g>
    <g id="xtick_11">
     <g id="line2d_11">
      <g>
       <use xlink:href="#m8153c8b1d0" x="212.283554" y="184.153804" style="stroke: #000000; stroke-width: 0.6"/>
      </g>
     </g>
    </g>
    <g id="xtick_12">
     <g id="line2d_12">
      <g>
       <use xlink:href="#m8153c8b1d0" x="227.69748" y="184.153804" style="stroke: #000000; stroke-width: 0.6"/>
      </g>
     </g>
    </g>
    <g id="xtick_13">
     <g id="line2d_13">
      <g>
       <use xlink:href="#m8153c8b1d0" x="258.525332" y="184.153804" style="stroke: #000000; stroke-width: 0.6"/>
      </g>
     </g>
    </g>
    <g id="xtick_14">
     <g id="line2d_14">
      <g>
       <use xlink:href="#m8153c8b1d0" x="273.939257" y="184.153804" style="stroke: #000000; stroke-width: 0.6"/>
      </g>
     </g>
    </g>
    <g id="xtick_15">
     <g id="line2d_15">
      <g>
       <use xlink:href="#m8153c8b1d0" x="289.353183" y="184.153804" style="stroke: #000000; stroke-width: 0.6"/>
      </g>
     </g>
    </g>
    <g id="xtick_16">
     <g id="line2d_16">
      <g>
       <use xlink:href="#m8153c8b1d0" x="320.181034" y="184.153804" style="stroke: #000000; stroke-width: 0.6"/>
      </g>
     </g>
    </g>
    <g id="xtick_17">
     <g id="line2d_17">
      <g>
       <use xlink:href="#m8153c8b1d0" x="335.59496" y="184.153804" style="stroke: #000000; stroke-width: 0.6"/>
      </g>
     </g>
    </g>
    <g id="xtick_18">
     <g id="line2d_18">
      <g>
       <use xlink:href="#m8153c8b1d0" x="351.008886" y="184.153804" style="stroke: #000000; stroke-width: 0.6"/>
      </g>
     </g>
    </g>
    <g id="xtick_19">
     <g id="line2d_19">
      <g>
       <use xlink:href="#m8153c8b1d0" x="381.836737" y="184.153804" style="stroke: #000000; stroke-width: 0.6"/>
      </g>
     </g>
    </g>
    <g id="xtick_20">
     <g id="line2d_20">
      <g>
       <use xlink:href="#m8153c8b1d0" x="397.250663" y="184.153804" style="stroke: #000000; stroke-width: 0.6"/>
      </g>
     </g>
    </g>
    <g id="xtick_21">
     <g id="line2d_21">
      <g>
       <use xlink:href="#m8153c8b1d0" x="412.664589" y="184.153804" style="stroke: #000000; stroke-width: 0.6"/>
      </g>
     </g>
    </g>
    <g id="text_6">
     <!-- $t$ -->
     <g transform="translate(442.244085 184.153804)scale(0.16 -0.16)">
      <defs>
       <path id="Cmmi10-74" d="M 397 519 
Q 397 613 416 697 
L 878 2534 
L 206 2534 
Q 141 2534 141 2619 
Q 166 2759 225 2759 
L 934 2759 
L 1191 3803 
Q 1216 3888 1291 3947 
Q 1366 4006 1459 4006 
Q 1541 4006 1595 3957 
Q 1650 3909 1650 3828 
Q 1650 3809 1648 3798 
Q 1647 3788 1644 3775 
L 1388 2759 
L 2047 2759 
Q 2113 2759 2113 2675 
Q 2109 2659 2100 2621 
Q 2091 2584 2075 2559 
Q 2059 2534 2028 2534 
L 1331 2534 
L 872 684 
Q 825 503 825 372 
Q 825 97 1013 97 
Q 1294 97 1511 361 
Q 1728 625 1844 941 
Q 1869 978 1894 978 
L 1972 978 
Q 1997 978 2012 961 
Q 2028 944 2028 922 
Q 2028 909 2022 903 
Q 1881 516 1612 222 
Q 1344 -72 997 -72 
Q 744 -72 570 93 
Q 397 259 397 519 
z
" transform="scale(0.015625)"/>
      </defs>
      <use xlink:href="#Cmmi10-74" transform="translate(0 0.40625)"/>
     </g>
    </g>
   </g>
   <g id="matplotlib.axis_2">
    <g id="ytick_1">
     <g id="line2d_22">
      <defs>
       <path id="m174587d779" d="M 0 0 
L -3.5 0 
" style="stroke: #000000; stroke-width: 0.8"/>
      </defs>
      <g>
       <use xlink:href="#m174587d779" x="119.8" y="325.844035" style="stroke: #000000; stroke-width: 0.8"/>
      </g>
     </g>
     <g id="text_7">
      <!-- $-0.08$ -->
      <g transform="translate(87.2 329.643253)scale(0.1 -0.1)">
       <defs>
        <path id="Cmsy10-a1" d="M 653 1472 
Q 600 1472 565 1512 
Q 531 1553 531 1600 
Q 531 1647 565 1687 
Q 600 1728 653 1728 
L 4325 1728 
Q 4375 1728 4408 1687 
Q 4441 1647 4441 1600 
Q 4441 1553 4408 1512 
Q 4375 1472 4325 1472 
L 653 1472 
z
" transform="scale(0.015625)"/>
        <path id="Cmr10-30" d="M 1600 -141 
Q 816 -141 533 504 
Q 250 1150 250 2041 
Q 250 2597 351 3087 
Q 453 3578 754 3920 
Q 1056 4263 1600 4263 
Q 2022 4263 2290 4056 
Q 2559 3850 2700 3523 
Q 2841 3197 2892 2823 
Q 2944 2450 2944 2041 
Q 2944 1491 2842 1011 
Q 2741 531 2444 195 
Q 2147 -141 1600 -141 
z
M 1600 25 
Q 1956 25 2131 390 
Q 2306 756 2347 1200 
Q 2388 1644 2388 2144 
Q 2388 2625 2347 3031 
Q 2306 3438 2132 3767 
Q 1959 4097 1600 4097 
Q 1238 4097 1063 3765 
Q 888 3434 847 3029 
Q 806 2625 806 2144 
Q 806 1788 823 1472 
Q 841 1156 916 820 
Q 991 484 1158 254 
Q 1325 25 1600 25 
z
" transform="scale(0.015625)"/>
        <path id="Cmmi10-3a" d="M 538 353 
Q 538 497 644 600 
Q 750 703 891 703 
Q 978 703 1062 656 
Q 1147 609 1194 525 
Q 1241 441 1241 353 
Q 1241 213 1137 106 
Q 1034 0 891 0 
Q 750 0 644 106 
Q 538 213 538 353 
z
" transform="scale(0.015625)"/>
        <path id="Cmr10-38" d="M 269 972 
Q 269 1356 522 1651 
Q 775 1947 1172 2144 
L 934 2297 
Q 716 2441 578 2680 
Q 441 2919 441 3181 
Q 441 3488 602 3734 
Q 763 3981 1030 4122 
Q 1297 4263 1600 4263 
Q 1884 4263 2148 4147 
Q 2413 4031 2583 3815 
Q 2753 3600 2753 3303 
Q 2753 3088 2651 2903 
Q 2550 2719 2373 2572 
Q 2197 2425 1997 2322 
L 2363 2088 
Q 2616 1922 2770 1653 
Q 2925 1384 2925 1088 
Q 2925 741 2739 456 
Q 2553 172 2247 15 
Q 1941 -141 1600 -141 
Q 1269 -141 961 -6 
Q 653 128 461 383 
Q 269 638 269 972 
z
M 616 972 
Q 616 719 755 509 
Q 894 300 1122 181 
Q 1350 63 1600 63 
Q 1972 63 2275 280 
Q 2578 497 2578 856 
Q 2578 978 2529 1098 
Q 2481 1219 2395 1317 
Q 2309 1416 2203 1478 
L 1344 2034 
Q 1144 1928 976 1765 
Q 809 1603 712 1400 
Q 616 1197 616 972 
z
M 1056 2925 
L 1831 2425 
Q 2100 2581 2272 2803 
Q 2444 3025 2444 3303 
Q 2444 3519 2323 3698 
Q 2203 3878 2009 3978 
Q 1816 4078 1594 4078 
Q 1400 4078 1203 4003 
Q 1006 3928 878 3779 
Q 750 3631 750 3431 
Q 750 3131 1056 2925 
z
" transform="scale(0.015625)"/>
       </defs>
       <use xlink:href="#Cmsy10-a1" transform="translate(0 0.390625)"/>
       <use xlink:href="#Cmr10-30" transform="translate(77.685547 0.390625)"/>
       <use xlink:href="#Cmmi10-3a" transform="translate(127.685547 0.390625)"/>
       <use xlink:href="#Cmr10-30" transform="translate(155.371094 0.390625)"/>
       <use xlink:href="#Cmr10-38" transform="translate(205.371094 0.390625)"/>
      </g>
     </g>
    </g>
    <g id="ytick_2">
     <g id="line2d_23">
      <g>
       <use xlink:href="#m174587d779" x="119.8" y="290.421477" style="stroke: #000000; stroke-width: 0.8"/>
      </g>
     </g>
     <g id="text_8">
      <!-- $-0.060000000000000005$ -->
      <g transform="translate(7.2 294.220696)scale(0.1 -0.1)">
       <defs>
        <path id="Cmr10-36" d="M 1600 -141 
Q 1203 -141 937 70 
Q 672 281 526 617 
Q 381 953 325 1322 
Q 269 1691 269 2069 
Q 269 2575 466 3084 
Q 663 3594 1045 3928 
Q 1428 4263 1953 4263 
Q 2172 4263 2361 4180 
Q 2550 4097 2658 3936 
Q 2766 3775 2766 3547 
Q 2766 3416 2677 3327 
Q 2588 3238 2456 3238 
Q 2331 3238 2240 3328 
Q 2150 3419 2150 3547 
Q 2150 3672 2240 3762 
Q 2331 3853 2456 3853 
L 2491 3853 
Q 2409 3969 2261 4023 
Q 2113 4078 1953 4078 
Q 1759 4078 1595 3993 
Q 1431 3909 1300 3765 
Q 1169 3622 1081 3448 
Q 994 3275 945 3053 
Q 897 2831 884 2637 
Q 872 2444 872 2150 
Q 984 2413 1190 2580 
Q 1397 2747 1656 2747 
Q 1941 2747 2175 2631 
Q 2409 2516 2578 2311 
Q 2747 2106 2836 1843 
Q 2925 1581 2925 1313 
Q 2925 938 2758 598 
Q 2591 259 2287 59 
Q 1984 -141 1600 -141 
z
M 1600 63 
Q 1847 63 1997 175 
Q 2147 288 2217 473 
Q 2288 659 2305 848 
Q 2322 1038 2322 1313 
Q 2322 1675 2287 1931 
Q 2253 2188 2100 2383 
Q 1947 2578 1631 2578 
Q 1372 2578 1205 2403 
Q 1038 2228 961 1961 
Q 884 1694 884 1447 
Q 884 1363 891 1319 
Q 891 1309 889 1303 
Q 888 1297 884 1288 
Q 884 1013 940 731 
Q 997 450 1156 256 
Q 1316 63 1600 63 
z
" transform="scale(0.015625)"/>
       </defs>
       <use xlink:href="#Cmsy10-a1" transform="translate(0 0.390625)"/>
       <use xlink:href="#Cmr10-30" transform="translate(77.685547 0.390625)"/>
       <use xlink:href="#Cmmi10-3a" transform="translate(127.685547 0.390625)"/>
       <use xlink:href="#Cmr10-30" transform="translate(155.371094 0.390625)"/>
       <use xlink:href="#Cmr10-36" transform="translate(205.371094 0.390625)"/>
       <use xlink:href="#Cmr10-30" transform="translate(255.371094 0.390625)"/>
       <use xlink:href="#Cmr10-30" transform="translate(305.371094 0.390625)"/>
       <use xlink:href="#Cmr10-30" transform="translate(355.371094 0.390625)"/>
       <use xlink:href="#Cmr10-30" transform="translate(405.371094 0.390625)"/>
       <use xlink:href="#Cmr10-30" transform="translate(455.371094 0.390625)"/>
       <use xlink:href="#Cmr10-30" transform="translate(505.371094 0.390625)"/>
       <use xlink:href="#Cmr10-30" transform="translate(555.371094 0.390625)"/>
       <use xlink:href="#Cmr10-30" transform="translate(605.371094 0.390625)"/>
       <use xlink:href="#Cmr10-30" transform="translate(655.371094 0.390625)"/>
       <use xlink:href="#Cmr10-30" transform="translate(705.371094 0.390625)"/>
       <use xlink:href="#Cmr10-30" transform="translate(755.371094 0.390625)"/>
       <use xlink:href="#Cmr10-30" transform="translate(805.371094 0.390625)"/>
       <use xlink:href="#Cmr10-30" transform="translate(855.371094 0.390625)"/>
       <use xlink:href="#Cmr10-30" transform="translate(905.371094 0.390625)"/>
       <use xlink:href="#Cmr10-30" transform="translate(955.371094 0.390625)"/>
       <use xlink:href="#Cmr10-35" transform="translate(1005.371094 0.390625)"/>
      </g>
     </g>
    </g>
    <g id="ytick_3">
     <g id="line2d_24">
      <g>
       <use xlink:href="#m174587d779" x="119.8" y="254.998919" style="stroke: #000000; stroke-width: 0.8"/>
      </g>
     </g>
     <g id="text_9">
      <!-- $-0.04000000000000001$ -->
      <g transform="translate(12.2 258.798138)scale(0.1 -0.1)">
       <defs>
        <path id="Cmr10-31" d="M 594 0 
L 594 225 
Q 1394 225 1394 428 
L 1394 3788 
Q 1063 3628 556 3628 
L 556 3853 
Q 1341 3853 1741 4263 
L 1831 4263 
Q 1853 4263 1873 4245 
Q 1894 4228 1894 4206 
L 1894 428 
Q 1894 225 2694 225 
L 2694 0 
L 594 0 
z
" transform="scale(0.015625)"/>
       </defs>
       <use xlink:href="#Cmsy10-a1" transform="translate(0 0.390625)"/>
       <use xlink:href="#Cmr10-30" transform="translate(77.685547 0.390625)"/>
       <use xlink:href="#Cmmi10-3a" transform="translate(127.685547 0.390625)"/>
       <use xlink:href="#Cmr10-30" transform="translate(155.371094 0.390625)"/>
       <use xlink:href="#Cmr10-34" transform="translate(205.371094 0.390625)"/>
       <use xlink:href="#Cmr10-30" transform="translate(255.371094 0.390625)"/>
       <use xlink:href="#Cmr10-30" transform="translate(305.371094 0.390625)"/>
       <use xlink:href="#Cmr10-30" transform="translate(355.371094 0.390625)"/>
       <use xlink:href="#Cmr10-30" transform="translate(405.371094 0.390625)"/>
       <use xlink:href="#Cmr10-30" transform="translate(455.371094 0.390625)"/>
       <use xlink:href="#Cmr10-30" transform="translate(505.371094 0.390625)"/>
       <use xlink:href="#Cmr10-30" transform="translate(555.371094 0.390625)"/>
       <use xlink:href="#Cmr10-30" transform="translate(605.371094 0.390625)"/>
       <use xlink:href="#Cmr10-30" transform="translate(655.371094 0.390625)"/>
       <use xlink:href="#Cmr10-30" transform="translate(705.371094 0.390625)"/>
       <use xlink:href="#Cmr10-30" transform="translate(755.371094 0.390625)"/>
       <use xlink:href="#Cmr10-30" transform="translate(805.371094 0.390625)"/>
       <use xlink:href="#Cmr10-30" transform="translate(855.371094 0.390625)"/>
       <use xlink:href="#Cmr10-30" transform="translate(905.371094 0.390625)"/>
       <use xlink:href="#Cmr10-31" transform="translate(955.371094 0.390625)"/>
      </g>
     </g>
    </g>
    <g id="ytick_4">
     <g id="line2d_25">
      <g>
       <use xlink:href="#m174587d779" x="119.8" y="219.576362" style="stroke: #000000; stroke-width: 0.8"/>
      </g>
     </g>
     <g id="text_10">
      <!-- $-0.020000000000000004$ -->
      <g transform="translate(7.2 223.37558)scale(0.1 -0.1)">
       <use xlink:href="#Cmsy10-a1" transform="translate(0 0.390625)"/>
       <use xlink:href="#Cmr10-30" transform="translate(77.685547 0.390625)"/>
       <use xlink:href="#Cmmi10-3a" transform="translate(127.685547 0.390625)"/>
       <use xlink:href="#Cmr10-30" transform="translate(155.371094 0.390625)"/>
       <use xlink:href="#Cmr10-32" transform="translate(205.371094 0.390625)"/>
       <use xlink:href="#Cmr10-30" transform="translate(255.371094 0.390625)"/>
       <use xlink:href="#Cmr10-30" transform="translate(305.371094 0.390625)"/>
       <use xlink:href="#Cmr10-30" transform="translate(355.371094 0.390625)"/>
       <use xlink:href="#Cmr10-30" transform="translate(405.371094 0.390625)"/>
       <use xlink:href="#Cmr10-30" transform="translate(455.371094 0.390625)"/>
       <use xlink:href="#Cmr10-30" transform="translate(505.371094 0.390625)"/>
       <use xlink:href="#Cmr10-30" transform="translate(555.371094 0.390625)"/>
       <use xlink:href="#Cmr10-30" transform="translate(605.371094 0.390625)"/>
       <use xlink:href="#Cmr10-30" transform="translate(655.371094 0.390625)"/>
       <use xlink:href="#Cmr10-30" transform="translate(705.371094 0.390625)"/>
       <use xlink:href="#Cmr10-30" transform="translate(755.371094 0.390625)"/>
       <use xlink:href="#Cmr10-30" transform="translate(805.371094 0.390625)"/>
       <use xlink:href="#Cmr10-30" transform="translate(855.371094 0.390625)"/>
       <use xlink:href="#Cmr10-30" transform="translate(905.371094 0.390625)"/>
       <use xlink:href="#Cmr10-30" transform="translate(955.371094 0.390625)"/>
       <use xlink:href="#Cmr10-34" transform="translate(1005.371094 0.390625)"/>
      </g>
     </g>
    </g>
    <g id="ytick_5">
     <g id="line2d_26">
      <g>
       <use xlink:href="#m174587d779" x="119.8" y="184.153804" style="stroke: #000000; stroke-width: 0.8"/>
      </g>
     </g>
    </g>
    <g id="ytick_6">
     <g id="line2d_27">
      <g>
       <use xlink:href="#m174587d779" x="119.8" y="148.731246" style="stroke: #000000; stroke-width: 0.8"/>
      </g>
     </g>
     <g id="text_11">
      <!-- $0.01999999999999999$ -->
      <g transform="translate(20 152.530465)scale(0.1 -0.1)">
       <defs>
        <path id="Cmr10-39" d="M 722 269 
Q 897 63 1331 63 
Q 1575 63 1786 228 
Q 1997 394 2113 634 
Q 2247 906 2284 1214 
Q 2322 1522 2322 1978 
Q 2213 1719 2008 1553 
Q 1803 1388 1538 1388 
Q 1166 1388 873 1589 
Q 581 1791 425 2120 
Q 269 2450 269 2822 
Q 269 3206 444 3539 
Q 619 3872 928 4067 
Q 1238 4263 1631 4263 
Q 2019 4263 2280 4052 
Q 2541 3841 2678 3508 
Q 2816 3175 2870 2803 
Q 2925 2431 2925 2069 
Q 2925 1575 2744 1061 
Q 2563 547 2202 203 
Q 1841 -141 1331 -141 
Q 953 -141 690 37 
Q 428 216 428 575 
Q 428 706 517 795 
Q 606 884 738 884 
Q 866 884 955 795 
Q 1044 706 1044 575 
Q 1044 450 953 359 
Q 863 269 738 269 
L 722 269 
z
M 1563 1556 
Q 1825 1556 1992 1732 
Q 2159 1909 2234 2171 
Q 2309 2434 2309 2694 
L 2309 2816 
L 2309 2841 
Q 2309 3322 2168 3700 
Q 2028 4078 1631 4078 
Q 1378 4078 1220 3967 
Q 1063 3856 988 3672 
Q 913 3488 892 3278 
Q 872 3069 872 2822 
Q 872 2459 906 2203 
Q 941 1947 1094 1751 
Q 1247 1556 1563 1556 
z
" transform="scale(0.015625)"/>
       </defs>
       <use xlink:href="#Cmr10-30" transform="translate(0 0.390625)"/>
       <use xlink:href="#Cmmi10-3a" transform="translate(50 0.390625)"/>
       <use xlink:href="#Cmr10-30" transform="translate(77.685547 0.390625)"/>
       <use xlink:href="#Cmr10-31" transform="translate(127.685547 0.390625)"/>
       <use xlink:href="#Cmr10-39" transform="translate(177.685547 0.390625)"/>
       <use xlink:href="#Cmr10-39" transform="translate(227.685547 0.390625)"/>
       <use xlink:href="#Cmr10-39" transform="translate(277.685547 0.390625)"/>
       <use xlink:href="#Cmr10-39" transform="translate(327.685547 0.390625)"/>
       <use xlink:href="#Cmr10-39" transform="translate(377.685547 0.390625)"/>
       <use xlink:href="#Cmr10-39" transform="translate(427.685547 0.390625)"/>
       <use xlink:href="#Cmr10-39" transform="translate(477.685547 0.390625)"/>
       <use xlink:href="#Cmr10-39" transform="translate(527.685547 0.390625)"/>
       <use xlink:href="#Cmr10-39" transform="translate(577.685547 0.390625)"/>
       <use xlink:href="#Cmr10-39" transform="translate(627.685547 0.390625)"/>
       <use xlink:href="#Cmr10-39" transform="translate(677.685547 0.390625)"/>
       <use xlink:href="#Cmr10-39" transform="translate(727.685547 0.390625)"/>
       <use xlink:href="#Cmr10-39" transform="translate(777.685547 0.390625)"/>
       <use xlink:href="#Cmr10-39" transform="translate(827.685547 0.390625)"/>
       <use xlink:href="#Cmr10-39" transform="translate(877.685547 0.390625)"/>
      </g>
     </g>
    </g>
    <g id="ytick_7">
     <g id="line2d_28">
      <g>
       <use xlink:href="#m174587d779" x="119.8" y="113.308689" style="stroke: #000000; stroke-width: 0.8"/>
      </g>
     </g>
     <g id="text_12">
      <!-- $0.04000000000000001$ -->
      <g transform="translate(20 117.107907)scale(0.1 -0.1)">
       <use xlink:href="#Cmr10-30" transform="translate(0 0.390625)"/>
       <use xlink:href="#Cmmi10-3a" transform="translate(50 0.390625)"/>
       <use xlink:href="#Cmr10-30" transform="translate(77.685547 0.390625)"/>
       <use xlink:href="#Cmr10-34" transform="translate(127.685547 0.390625)"/>
       <use xlink:href="#Cmr10-30" transform="translate(177.685547 0.390625)"/>
       <use xlink:href="#Cmr10-30" transform="translate(227.685547 0.390625)"/>
       <use xlink:href="#Cmr10-30" transform="translate(277.685547 0.390625)"/>
       <use xlink:href="#Cmr10-30" transform="translate(327.685547 0.390625)"/>
       <use xlink:href="#Cmr10-30" transform="translate(377.685547 0.390625)"/>
       <use xlink:href="#Cmr10-30" transform="translate(427.685547 0.390625)"/>
       <use xlink:href="#Cmr10-30" transform="translate(477.685547 0.390625)"/>
       <use xlink:href="#Cmr10-30" transform="translate(527.685547 0.390625)"/>
       <use xlink:href="#Cmr10-30" transform="translate(577.685547 0.390625)"/>
       <use xlink:href="#Cmr10-30" transform="translate(627.685547 0.390625)"/>
       <use xlink:href="#Cmr10-30" transform="translate(677.685547 0.390625)"/>
       <use xlink:href="#Cmr10-30" transform="translate(727.685547 0.390625)"/>
       <use xlink:href="#Cmr10-30" transform="translate(777.685547 0.390625)"/>
       <use xlink:href="#Cmr10-30" transform="translate(827.685547 0.390625)"/>
       <use xlink:href="#Cmr10-31" transform="translate(877.685547 0.390625)"/>
      </g>
     </g>
    </g>
    <g id="ytick_8">
     <g id="line2d_29">
      <g>
       <use xlink:href="#m174587d779" x="119.8" y="77.886131" style="stroke: #000000; stroke-width: 0.8"/>
      </g>
     </g>
     <g id="text_13">
      <!-- $0.06$ -->
      <g transform="translate(95 81.68535)scale(0.1 -0.1)">
       <use xlink:href="#Cmr10-30" transform="translate(0 0.390625)"/>
       <use xlink:href="#Cmmi10-3a" transform="translate(50 0.390625)"/>
       <use xlink:href="#Cmr10-30" transform="translate(77.685547 0.390625)"/>
       <use xlink:href="#Cmr10-36" transform="translate(127.685547 0.390625)"/>
      </g>
     </g>
    </g>
    <g id="ytick_9">
     <g id="line2d_30">
      <g>
       <use xlink:href="#m174587d779" x="119.8" y="42.463573" style="stroke: #000000; stroke-width: 0.8"/>
      </g>
     </g>
     <g id="text_14">
      <!-- $0.07999999999999999$ -->
      <g transform="translate(20 46.262792)scale(0.1 -0.1)">
       <defs>
        <path id="Cmr10-37" d="M 1113 166 
Q 1113 522 1175 862 
Q 1238 1203 1358 1536 
Q 1478 1869 1648 2189 
Q 1819 2509 2022 2791 
L 2606 3603 
L 1875 3603 
Q 738 3603 703 3572 
Q 619 3469 544 2981 
L 359 2981 
L 569 4325 
L 756 4325 
L 756 4306 
Q 756 4191 1147 4156 
Q 1538 4122 1913 4122 
L 3103 4122 
L 3103 3956 
Q 3103 3950 3101 3947 
Q 3100 3944 3097 3938 
L 2216 2700 
Q 1891 2219 1809 1631 
Q 1728 1044 1728 166 
Q 1728 41 1637 -50 
Q 1547 -141 1422 -141 
Q 1294 -141 1203 -50 
Q 1113 41 1113 166 
z
" transform="scale(0.015625)"/>
       </defs>
       <use xlink:href="#Cmr10-30" transform="translate(0 0.421875)"/>
       <use xlink:href="#Cmmi10-3a" transform="translate(50 0.421875)"/>
       <use xlink:href="#Cmr10-30" transform="translate(77.685547 0.421875)"/>
       <use xlink:href="#Cmr10-37" transform="translate(127.685547 0.421875)"/>
       <use xlink:href="#Cmr10-39" transform="translate(177.685547 0.421875)"/>
       <use xlink:href="#Cmr10-39" transform="translate(227.685547 0.421875)"/>
       <use xlink:href="#Cmr10-39" transform="translate(277.685547 0.421875)"/>
       <use xlink:href="#Cmr10-39" transform="translate(327.685547 0.421875)"/>
       <use xlink:href="#Cmr10-39" transform="translate(377.685547 0.421875)"/>
       <use xlink:href="#Cmr10-39" transform="translate(427.685547 0.421875)"/>
       <use xlink:href="#Cmr10-39" transform="translate(477.685547 0.421875)"/>
       <use xlink:href="#Cmr10-39" transform="translate(527.685547 0.421875)"/>
       <use xlink:href="#Cmr10-39" transform="translate(577.685547 0.421875)"/>
       <use xlink:href="#Cmr10-39" transform="translate(627.685547 0.421875)"/>
       <use xlink:href="#Cmr10-39" transform="translate(677.685547 0.421875)"/>
       <use xlink:href="#Cmr10-39" transform="translate(727.685547 0.421875)"/>
       <use xlink:href="#Cmr10-39" transform="translate(777.685547 0.421875)"/>
       <use xlink:href="#Cmr10-39" transform="translate(827.685547 0.421875)"/>
       <use xlink:href="#Cmr10-39" transform="translate(877.685547 0.421875)"/>
      </g>
     </g>
    </g>
    <g id="ytick_10">
     <g id="line2d_31">
      <defs>
       <path id="m27fd9b014a" d="M 0 0 
L -2 0 
" style="stroke: #000000; stroke-width: 0.6"/>
      </defs>
      <g>
       <use xlink:href="#m27fd9b014a" x="119.8" y="334.699674" style="stroke: #000000; stroke-width: 0.6"/>
      </g>
     </g>
    </g>
    <g id="ytick_11">
     <g id="line2d_32">
      <g>
       <use xlink:href="#m27fd9b014a" x="119.8" y="316.988395" style="stroke: #000000; stroke-width: 0.6"/>
      </g>
     </g>
    </g>
    <g id="ytick_12">
     <g id="line2d_33">
      <g>
       <use xlink:href="#m27fd9b014a" x="119.8" y="308.132756" style="stroke: #000000; stroke-width: 0.6"/>
      </g>
     </g>
    </g>
    <g id="ytick_13">
     <g id="line2d_34">
      <g>
       <use xlink:href="#m27fd9b014a" x="119.8" y="299.277116" style="stroke: #000000; stroke-width: 0.6"/>
      </g>
     </g>
    </g>
    <g id="ytick_14">
     <g id="line2d_35">
      <g>
       <use xlink:href="#m27fd9b014a" x="119.8" y="281.565838" style="stroke: #000000; stroke-width: 0.6"/>
      </g>
     </g>
    </g>
    <g id="ytick_15">
     <g id="line2d_36">
      <g>
       <use xlink:href="#m27fd9b014a" x="119.8" y="272.710198" style="stroke: #000000; stroke-width: 0.6"/>
      </g>
     </g>
    </g>
    <g id="ytick_16">
     <g id="line2d_37">
      <g>
       <use xlink:href="#m27fd9b014a" x="119.8" y="263.854559" style="stroke: #000000; stroke-width: 0.6"/>
      </g>
     </g>
    </g>
    <g id="ytick_17">
     <g id="line2d_38">
      <g>
       <use xlink:href="#m27fd9b014a" x="119.8" y="246.14328" style="stroke: #000000; stroke-width: 0.6"/>
      </g>
     </g>
    </g>
    <g id="ytick_18">
     <g id="line2d_39">
      <g>
       <use xlink:href="#m27fd9b014a" x="119.8" y="237.287641" style="stroke: #000000; stroke-width: 0.6"/>
      </g>
     </g>
    </g>
    <g id="ytick_19">
     <g id="line2d_40">
      <g>
       <use xlink:href="#m27fd9b014a" x="119.8" y="228.432001" style="stroke: #000000; stroke-width: 0.6"/>
      </g>
     </g>
    </g>
    <g id="ytick_20">
     <g id="line2d_41">
      <g>
       <use xlink:href="#m27fd9b014a" x="119.8" y="210.720722" style="stroke: #000000; stroke-width: 0.6"/>
      </g>
     </g>
    </g>
    <g id="ytick_21">
     <g id="line2d_42">
      <g>
       <use xlink:href="#m27fd9b014a" x="119.8" y="201.865083" style="stroke: #000000; stroke-width: 0.6"/>
      </g>
     </g>
    </g>
    <g id="ytick_22">
     <g id="line2d_43">
      <g>
       <use xlink:href="#m27fd9b014a" x="119.8" y="193.009443" style="stroke: #000000; stroke-width: 0.6"/>
      </g>
     </g>
    </g>
    <g id="ytick_23">
     <g id="line2d_44">
      <g>
       <use xlink:href="#m27fd9b014a" x="119.8" y="175.298165" style="stroke: #000000; stroke-width: 0.6"/>
      </g>
     </g>
    </g>
    <g id="ytick_24">
     <g id="line2d_45">
      <g>
       <use xlink:href="#m27fd9b014a" x="119.8" y="166.442525" style="stroke: #000000; stroke-width: 0.6"/>
      </g>
     </g>
    </g>
    <g id="ytick_25">
     <g id="line2d_46">
      <g>
       <use xlink:href="#m27fd9b014a" x="119.8" y="157.586886" style="stroke: #000000; stroke-width: 0.6"/>
      </g>
     </g>
    </g>
    <g id="ytick_26">
     <g id="line2d_47">
      <g>
       <use xlink:href="#m27fd9b014a" x="119.8" y="139.875607" style="stroke: #000000; stroke-width: 0.6"/>
      </g>
     </g>
    </g>
    <g id="ytick_27">
     <g id="line2d_48">
      <g>
       <use xlink:href="#m27fd9b014a" x="119.8" y="131.019968" style="stroke: #000000; stroke-width: 0.6"/>
      </g>
     </g>
    </g>
    <g id="ytick_28">
     <g id="line2d_49">
      <g>
       <use xlink:href="#m27fd9b014a" x="119.8" y="122.164328" style="stroke: #000000; stroke-width: 0.6"/>
      </g>
     </g>
    </g>
    <g id="ytick_29">
     <g id="line2d_50">
      <g>
       <use xlink:href="#m27fd9b014a" x="119.8" y="104.453049" style="stroke: #000000; stroke-width: 0.6"/>
      </g>
     </g>
    </g>
    <g id="ytick_30">
     <g id="line2d_51">
      <g>
       <use xlink:href="#m27fd9b014a" x="119.8" y="95.59741" style="stroke: #000000; stroke-width: 0.6"/>
      </g>
     </g>
    </g>
    <g id="ytick_31">
     <g id="line2d_52">
      <g>
       <use xlink:href="#m27fd9b014a" x="119.8" y="86.74177" style="stroke: #000000; stroke-width: 0.6"/>
      </g>
     </g>
    </g>
    <g id="ytick_32">
     <g id="line2d_53">
      <g>
       <use xlink:href="#m27fd9b014a" x="119.8" y="69.030492" style="stroke: #000000; stroke-width: 0.6"/>
      </g>
     </g>
    </g>
    <g id="ytick_33">
     <g id="line2d_54">
      <g>
       <use xlink:href="#m27fd9b014a" x="119.8" y="60.174852" style="stroke: #000000; stroke-width: 0.6"/>
      </g>
     </g>
    </g>
    <g id="ytick_34">
     <g id="line2d_55">
      <g>
       <use xlink:href="#m27fd9b014a" x="119.8" y="51.319213" style="stroke: #000000; stroke-width: 0.6"/>
      </g>
     </g>
    </g>
    <g id="ytick_35">
     <g id="line2d_56">
      <g>
       <use xlink:href="#m27fd9b014a" x="119.8" y="33.607934" style="stroke: #000000; stroke-width: 0.6"/>
      </g>
     </g>
    </g>
    <g id="text_15">
     <!-- $x(t)$ -->
     <g transform="translate(106.12 19.2)scale(0.16 -0.16)">
      <defs>
       <path id="Cmmi10-78" d="M 500 184 
Q 613 97 819 97 
Q 1019 97 1172 289 
Q 1325 481 1381 709 
L 1672 1844 
Q 1741 2153 1741 2266 
Q 1741 2425 1652 2544 
Q 1563 2663 1403 2663 
Q 1200 2663 1022 2536 
Q 844 2409 722 2214 
Q 600 2019 550 1819 
Q 538 1778 500 1778 
L 422 1778 
Q 372 1778 372 1838 
L 372 1856 
Q 434 2094 584 2320 
Q 734 2547 951 2687 
Q 1169 2828 1416 2828 
Q 1650 2828 1839 2703 
Q 2028 2578 2106 2363 
Q 2216 2559 2386 2693 
Q 2556 2828 2759 2828 
Q 2897 2828 3040 2779 
Q 3184 2731 3275 2631 
Q 3366 2531 3366 2381 
Q 3366 2219 3261 2101 
Q 3156 1984 2994 1984 
Q 2891 1984 2822 2050 
Q 2753 2116 2753 2216 
Q 2753 2350 2845 2451 
Q 2938 2553 3066 2572 
Q 2950 2663 2747 2663 
Q 2541 2663 2389 2472 
Q 2238 2281 2175 2047 
L 1894 916 
Q 1825 659 1825 494 
Q 1825 331 1917 214 
Q 2009 97 2163 97 
Q 2463 97 2698 361 
Q 2934 625 3009 941 
Q 3022 978 3059 978 
L 3138 978 
Q 3163 978 3178 961 
Q 3194 944 3194 922 
Q 3194 916 3188 903 
Q 3097 522 2806 225 
Q 2516 -72 2150 -72 
Q 1916 -72 1727 54 
Q 1538 181 1459 397 
Q 1359 209 1182 68 
Q 1006 -72 806 -72 
Q 669 -72 523 -23 
Q 378 25 287 125 
Q 197 225 197 378 
Q 197 528 301 651 
Q 406 775 563 775 
Q 669 775 741 711 
Q 813 647 813 544 
Q 813 409 723 309 
Q 634 209 500 184 
z
" transform="scale(0.015625)"/>
       <path id="Cmr10-28" d="M 1984 -1588 
Q 1628 -1306 1370 -942 
Q 1113 -578 948 -165 
Q 784 247 703 697 
Q 622 1147 622 1600 
Q 622 2059 703 2509 
Q 784 2959 951 3375 
Q 1119 3791 1378 4153 
Q 1638 4516 1984 4788 
Q 1984 4800 2016 4800 
L 2075 4800 
Q 2094 4800 2109 4783 
Q 2125 4766 2125 4744 
Q 2125 4716 2113 4703 
Q 1800 4397 1592 4047 
Q 1384 3697 1257 3301 
Q 1131 2906 1075 2482 
Q 1019 2059 1019 1600 
Q 1019 -434 2106 -1491 
Q 2125 -1509 2125 -1544 
Q 2125 -1559 2108 -1579 
Q 2091 -1600 2075 -1600 
L 2016 -1600 
Q 1984 -1600 1984 -1588 
z
" transform="scale(0.015625)"/>
       <path id="Cmr10-29" d="M 416 -1600 
Q 359 -1600 359 -1544 
Q 359 -1516 372 -1503 
Q 1466 -434 1466 1600 
Q 1466 3634 384 4691 
Q 359 4706 359 4744 
Q 359 4766 376 4783 
Q 394 4800 416 4800 
L 475 4800 
Q 494 4800 506 4788 
Q 966 4425 1272 3906 
Q 1578 3388 1720 2800 
Q 1863 2213 1863 1600 
Q 1863 1147 1786 708 
Q 1709 269 1542 -157 
Q 1375 -584 1119 -945 
Q 863 -1306 506 -1588 
Q 494 -1600 475 -1600 
L 416 -1600 
z
" transform="scale(0.015625)"/>
      </defs>
      <use xlink:href="#Cmmi10-78"/>
      <use xlink:href="#Cmr10-28" transform="translate(57.080078 0)"/>
      <use xlink:href="#Cmmi10-74" transform="translate(95.898438 0)"/>
      <use xlink:href="#Cmr10-29" transform="translate(131.982422 0)"/>
     </g>
    </g>
   </g>
   <g id="line2d_57">
    <path d="M 119.8 330.729905 
L 121.280588 327.228608 
L 122.416141 322.333466 
L 124.820699 305.978755 
L 125.413189 300.783547 
L 128.202287 270.973752 
L 130.744013 237.667502 
L 133.743914 193.951781 
L 138.257722 127.781785 
L 139.354857 112.976185 
L 142.17382 79.423164 
L 143.5254 66.235571 
L 144.577096 57.507834 
L 146.760738 44.123175 
L 148.323263 38.75912 
L 149.679356 37.083077 
L 151.24492 38.635018 
L 152.088548 41.010156 
L 153.153716 45.516328 
L 155.789189 63.522525 
L 156.444082 69.403203 
L 158.098811 86.473225 
L 160.751028 119.380283 
L 163.499927 158.415974 
L 168.667705 234.691327 
L 171.798509 275.467494 
L 173.432591 293.317139 
L 175.051103 308.020903 
L 176.518357 318.454015 
L 178.047784 326.136259 
L 179.491758 330.232404 
L 181.158534 331.032547 
L 182.599682 328.314212 
L 184.243188 321.432405 
L 187.046767 300.985315 
L 187.7816 293.972855 
L 189.963481 269.692398 
L 192.687293 233.630031 
L 201.774387 103.182691 
L 203.557587 82.324938 
L 205.66476 62.047342 
L 207.085661 51.493228 
L 208.167829 45.308136 
L 209.449506 40.169526 
L 211.260809 37.102331 
L 212.441997 37.794025 
L 214.083349 42.264015 
L 215.153856 47.325743 
L 216.637306 57.012858 
L 218.764504 75.894441 
L 220.185545 91.396134 
L 221.621319 109.029437 
L 223.529216 134.876262 
L 231.934841 256.592825 
L 234.377682 285.898747 
L 235.406074 296.451624 
L 238.049881 317.68429 
L 238.843929 322.232326 
L 241.036037 330.028031 
L 242.149816 331.221747 
L 243.251408 330.540723 
L 245.249754 324.622733 
L 246.89951 315.344102 
L 248.635657 301.590987 
L 249.325336 295.082112 
L 250.832969 278.994507 
L 254.355389 233.455052 
L 257.025121 194.403382 
L 261.9076 123.130295 
L 264.652506 88.553285 
L 267.254841 62.598423 
L 269.046191 49.584323 
L 269.650305 46.186518 
L 271.938674 38.140328 
L 273.514685 37.186551 
L 273.978895 37.628239 
L 275.586616 41.679308 
L 277.147509 49.264926 
L 279.050143 63.091452 
L 280.153592 73.229478 
L 282.759367 102.466332 
L 284.985072 132.06429 
L 292.702443 244.726802 
L 295.396677 278.797653 
L 297.382479 299.495541 
L 299.689824 317.585068 
L 301.891054 328.008179 
L 304.47963 331.024801 
L 305.388286 329.663615 
L 306.607823 325.880799 
L 309.090604 311.522163 
L 310.0107 304.075449 
L 311.162185 293.280339 
L 313.719937 264.179551 
L 314.651527 252.120867 
L 317.903293 205.985141 
L 322.543888 137.337145 
L 324.858515 106.048144 
L 326.150705 90.35966 
L 328.341091 67.60614 
L 330.576791 50.352139 
L 331.865544 43.505495 
L 333.240879 38.873086 
L 335.573087 37.55084 
L 336.190265 38.58791 
L 337.77381 43.866087 
L 339.104145 51.126428 
L 341.336626 68.707358 
L 342.35766 78.797498 
L 343.894727 96.098211 
L 346.874682 135.357585 
L 354.455096 246.048047 
L 356.22745 269.009569 
L 358.452479 293.845748 
L 359.458437 303.297379 
L 361.516361 318.642181 
L 362.432483 323.608343 
L 364.72788 330.648151 
L 365.908274 331.168635 
L 368.18619 326.186394 
L 368.573702 324.566872 
L 370.527904 313.127702 
L 372.548234 295.948747 
L 374.214727 278.186069 
L 375.28907 265.265149 
L 377.067198 241.825215 
L 380.696624 189.013317 
L 384.789193 129.048764 
L 387.489965 94.061413 
L 389.317804 74.088462 
L 390.782541 60.802728 
L 393.061758 45.673946 
L 394.252815 40.69097 
L 395.115317 38.397375 
L 397.011184 37.323284 
L 399.291345 43.257747 
L 400.972143 52.515001 
L 403.402157 72.613199 
L 405.425153 94.601347 
L 407.312931 118.561873 
L 411.404293 177.494276 
L 415.13571 232.505994 
L 417.521011 264.519095 
L 419.888825 291.628121 
L 422.523147 314.41284 
L 423.215287 318.9032 
L 424.461529 325.285919 
L 425.8806 329.781544 
L 427.299672 331.236923 
L 428.078515 330.729905 
L 428.078515 330.729905 
" clip-path="url(#p8e8461604a)" style="fill: none; stroke: #0000ff; stroke-linecap: square"/>
   </g>
   <g id="patch_3">
    <path d="M 119.8 337.12 
L 119.8 31.2 
" style="fill: none; stroke: #000000; stroke-width: 0.8; stroke-linejoin: miter; stroke-linecap: square"/>
   </g>
   <g id="patch_4">
    <path d="M 113.63443 184.153804 
L 434.244085 184.153804 
" style="fill: none; stroke: #000000; stroke-width: 0.8; stroke-linejoin: miter; stroke-linecap: square"/>
   </g>
  </g>
 </g>
 <defs>
  <clipPath id="p8e8461604a">
   <rect x="113.63443" y="31.2" width="320.609655" height="305.92"/>
  </clipPath>
 </defs>
</svg>
