<?xml version="1.0" encoding="utf-8" standalone="no"?>
<!DOCTYPE svg PUBLIC "-//W3C//DTD SVG 1.1//EN"
  "http://www.w3.org/Graphics/SVG/1.1/DTD/svg11.dtd">
<!-- Created with matplotlib (http://matplotlib.org/) -->
<svg height="417pt" version="1.1" viewBox="0 0 562 417" width="562pt" xmlns="http://www.w3.org/2000/svg" xmlns:xlink="http://www.w3.org/1999/xlink">
 <defs>
  <style type="text/css">
*{stroke-linecap:butt;stroke-linejoin:round;}
  </style>
 </defs>
 <g id="figure_1">
  <g id="patch_1">
   <path d="
M0 417.175
L562.883 417.175
L562.883 0
L0 0
z
" style="fill:#ffffff;"/>
  </g>
  <g id="axes_1">
   <g id="patch_2">
    <path d="
M38.9347 395.326
L537.323 395.326
L537.323 43.2
L38.9347 43.2
z
" style="fill:#ffffff;"/>
   </g>
   <g id="line2d_1">
    <path clip-path="url(#pe4a509f18e)" d="
M48.5191 388.554
L49.2491 349.121
L49.9791 313.201
L51.4391 250.948
L53.0158 196.399
L53.9693 168.998
L54.9229 145.335
L56.6616 110.682
L58.4004 85.4367
L59.4955 73.6338
L61.3221 59.8874
L63.1488 52.363
L64.6831 49.9717
L66.2173 50.5225
L67.4678 52.7856
L69.6781 59.9864
L73.554 79.6269
L75.986 94.826
L79.6383 119.742
L88.1006 178.641
L89.833 190.053
L92.5858 207.428
L96.1669 228.481
L100.815 253.021
L103.819 267.2
L106.107 277.143
L108.655 287.374
L112.66 301.784
L115.503 310.857
L118.155 318.523
L120.984 325.919
L124.489 334.067
L128.082 341.368
L132.69 349.369
L135.194 353.15
L138.318 357.373
L140.219 359.697
L144.983 364.806
L146.179 365.942
L151.255 370.198
L154.255 372.333
L158.359 374.859
L163.169 377.329
L165.74 378.463
L171.284 380.535
L175.682 381.873
L181.139 383.228
L184.886 383.997
L192.329 385.211
L199.665 386.091
L207.112 386.748
L217.185 387.368
L228.583 387.817
L243.728 388.162
L265.57 388.397
L303.028 388.521
L415.553 388.554
L527.738 388.554
L527.738 388.554" style="fill:none;stroke:#0000ff;stroke-linecap:square;stroke-width:2.0;"/>
   </g>
   <g id="patch_3">
    <path d="
M38.9347 388.554
L537.323 388.554" style="fill:none;stroke:#000000;stroke-linecap:square;stroke-linejoin:miter;stroke-width:0.8;"/>
   </g>
   <g id="patch_4">
    <path d="
M48.5191 395.326
L48.5191 43.2" style="fill:none;stroke:#000000;stroke-linecap:square;stroke-linejoin:miter;stroke-width:0.8;"/>
   </g>
   <g id="matplotlib.axis_1">
    <g id="xtick_1">
     <g id="line2d_2">
      <defs>
       <path d="
M0 0
L0 -4" id="m93b0483c22" style="stroke:#000000;stroke-width:0.5;"/>
      </defs>
      <g>
       <use style="stroke:#000000;stroke-width:0.5;" x="48.5190625" xlink:href="#m93b0483c22" y="388.554497041"/>
      </g>
     </g>
    </g>
    <g id="xtick_2">
     <g id="line2d_3">
      <g>
       <use style="stroke:#000000;stroke-width:0.5;" x="168.323882905" xlink:href="#m93b0483c22" y="388.554497041"/>
      </g>
     </g>
     <g id="text_1">
      <!-- 5 -->
      <defs>
       <path d="
M10.7969 72.9062
L49.5156 72.9062
L49.5156 64.5938
L19.8281 64.5938
L19.8281 46.7344
Q21.9688 47.4688 24.1094 47.8281
Q26.2656 48.1875 28.4219 48.1875
Q40.625 48.1875 47.75 41.5
Q54.8906 34.8125 54.8906 23.3906
Q54.8906 11.625 47.5625 5.09375
Q40.2344 -1.42188 26.9062 -1.42188
Q22.3125 -1.42188 17.5469 -0.640625
Q12.7969 0.140625 7.71875 1.70312
L7.71875 11.625
Q12.1094 9.23438 16.7969 8.0625
Q21.4844 6.89062 26.7031 6.89062
Q35.1562 6.89062 40.0781 11.3281
Q45.0156 15.7656 45.0156 23.3906
Q45.0156 31 40.0781 35.4375
Q35.1562 39.8906 26.7031 39.8906
Q22.75 39.8906 18.8125 39.0156
Q14.8906 38.1406 10.7969 36.2812
z
" id="BitstreamVeraSans-Roman-35"/>
      </defs>
      <g transform="translate(164.078414155 406.231684541)scale(0.18 -0.18)">
       <use xlink:href="#BitstreamVeraSans-Roman-35"/>
      </g>
     </g>
    </g>
    <g id="xtick_3">
     <g id="line2d_4">
      <g>
       <use style="stroke:#000000;stroke-width:0.5;" x="288.12870331" xlink:href="#m93b0483c22" y="388.554497041"/>
      </g>
     </g>
     <g id="text_2">
      <!-- 10 -->
      <defs>
       <path d="
M31.7812 66.4062
Q24.1719 66.4062 20.3281 58.9062
Q16.5 51.4219 16.5 36.375
Q16.5 21.3906 20.3281 13.8906
Q24.1719 6.39062 31.7812 6.39062
Q39.4531 6.39062 43.2812 13.8906
Q47.125 21.3906 47.125 36.375
Q47.125 51.4219 43.2812 58.9062
Q39.4531 66.4062 31.7812 66.4062
M31.7812 74.2188
Q44.0469 74.2188 50.5156 64.5156
Q56.9844 54.8281 56.9844 36.375
Q56.9844 17.9688 50.5156 8.26562
Q44.0469 -1.42188 31.7812 -1.42188
Q19.5312 -1.42188 13.0625 8.26562
Q6.59375 17.9688 6.59375 36.375
Q6.59375 54.8281 13.0625 64.5156
Q19.5312 74.2188 31.7812 74.2188" id="BitstreamVeraSans-Roman-30"/>
       <path d="
M12.4062 8.29688
L28.5156 8.29688
L28.5156 63.9219
L10.9844 60.4062
L10.9844 69.3906
L28.4219 72.9062
L38.2812 72.9062
L38.2812 8.29688
L54.3906 8.29688
L54.3906 0
L12.4062 0
z
" id="BitstreamVeraSans-Roman-31"/>
      </defs>
      <g transform="translate(278.26245331 406.231684541)scale(0.18 -0.18)">
       <use xlink:href="#BitstreamVeraSans-Roman-31"/>
       <use x="63.623046875" xlink:href="#BitstreamVeraSans-Roman-30"/>
      </g>
     </g>
    </g>
    <g id="xtick_4">
     <g id="line2d_5">
      <g>
       <use style="stroke:#000000;stroke-width:0.5;" x="407.933523715" xlink:href="#m93b0483c22" y="388.554497041"/>
      </g>
     </g>
     <g id="text_3">
      <!-- 15 -->
      <g transform="translate(398.255711215 406.231684541)scale(0.18 -0.18)">
       <use xlink:href="#BitstreamVeraSans-Roman-31"/>
       <use x="63.623046875" xlink:href="#BitstreamVeraSans-Roman-35"/>
      </g>
     </g>
    </g>
    <g id="xtick_5">
     <g id="line2d_6">
      <g>
       <use style="stroke:#000000;stroke-width:0.5;" x="527.73834412" xlink:href="#m93b0483c22" y="388.554497041"/>
      </g>
     </g>
     <g id="text_4">
      <!-- 20 -->
      <defs>
       <path d="
M19.1875 8.29688
L53.6094 8.29688
L53.6094 0
L7.32812 0
L7.32812 8.29688
Q12.9375 14.1094 22.625 23.8906
Q32.3281 33.6875 34.8125 36.5312
Q39.5469 41.8438 41.4219 45.5312
Q43.3125 49.2188 43.3125 52.7812
Q43.3125 58.5938 39.2344 62.25
Q35.1562 65.9219 28.6094 65.9219
Q23.9688 65.9219 18.8125 64.3125
Q13.6719 62.7031 7.8125 59.4219
L7.8125 69.3906
Q13.7656 71.7812 18.9375 73
Q24.125 74.2188 28.4219 74.2188
Q39.75 74.2188 46.4844 68.5469
Q53.2188 62.8906 53.2188 53.4219
Q53.2188 48.9219 51.5312 44.8906
Q49.8594 40.875 45.4062 35.4062
Q44.1875 33.9844 37.6406 27.2188
Q31.1094 20.4531 19.1875 8.29688" id="BitstreamVeraSans-Roman-32"/>
      </defs>
      <g transform="translate(517.54303162 406.231684541)scale(0.18 -0.18)">
       <use xlink:href="#BitstreamVeraSans-Roman-32"/>
       <use x="63.623046875" xlink:href="#BitstreamVeraSans-Roman-30"/>
      </g>
     </g>
    </g>
    <g id="xtick_6">
     <g id="line2d_7">
      <defs>
       <path d="
M0 0
L0 -2" id="m177f7580d0" style="stroke:#000000;stroke-width:0.5;"/>
      </defs>
      <g>
       <use style="stroke:#000000;stroke-width:0.5;" x="72.480026581" xlink:href="#m177f7580d0" y="388.554497041"/>
      </g>
     </g>
    </g>
    <g id="xtick_7">
     <g id="line2d_8">
      <g>
       <use style="stroke:#000000;stroke-width:0.5;" x="96.440990662" xlink:href="#m177f7580d0" y="388.554497041"/>
      </g>
     </g>
    </g>
    <g id="xtick_8">
     <g id="line2d_9">
      <g>
       <use style="stroke:#000000;stroke-width:0.5;" x="120.401954743" xlink:href="#m177f7580d0" y="388.554497041"/>
      </g>
     </g>
    </g>
    <g id="xtick_9">
     <g id="line2d_10">
      <g>
       <use style="stroke:#000000;stroke-width:0.5;" x="144.362918824" xlink:href="#m177f7580d0" y="388.554497041"/>
      </g>
     </g>
    </g>
    <g id="xtick_10">
     <g id="line2d_11">
      <g>
       <use style="stroke:#000000;stroke-width:0.5;" x="192.284846986" xlink:href="#m177f7580d0" y="388.554497041"/>
      </g>
     </g>
    </g>
    <g id="xtick_11">
     <g id="line2d_12">
      <g>
       <use style="stroke:#000000;stroke-width:0.5;" x="216.245811067" xlink:href="#m177f7580d0" y="388.554497041"/>
      </g>
     </g>
    </g>
    <g id="xtick_12">
     <g id="line2d_13">
      <g>
       <use style="stroke:#000000;stroke-width:0.5;" x="240.206775148" xlink:href="#m177f7580d0" y="388.554497041"/>
      </g>
     </g>
    </g>
    <g id="xtick_13">
     <g id="line2d_14">
      <g>
       <use style="stroke:#000000;stroke-width:0.5;" x="264.167739229" xlink:href="#m177f7580d0" y="388.554497041"/>
      </g>
     </g>
    </g>
    <g id="xtick_14">
     <g id="line2d_15">
      <g>
       <use style="stroke:#000000;stroke-width:0.5;" x="312.089667391" xlink:href="#m177f7580d0" y="388.554497041"/>
      </g>
     </g>
    </g>
    <g id="xtick_15">
     <g id="line2d_16">
      <g>
       <use style="stroke:#000000;stroke-width:0.5;" x="336.050631472" xlink:href="#m177f7580d0" y="388.554497041"/>
      </g>
     </g>
    </g>
    <g id="xtick_16">
     <g id="line2d_17">
      <g>
       <use style="stroke:#000000;stroke-width:0.5;" x="360.011595553" xlink:href="#m177f7580d0" y="388.554497041"/>
      </g>
     </g>
    </g>
    <g id="xtick_17">
     <g id="line2d_18">
      <g>
       <use style="stroke:#000000;stroke-width:0.5;" x="383.972559634" xlink:href="#m177f7580d0" y="388.554497041"/>
      </g>
     </g>
    </g>
    <g id="xtick_18">
     <g id="line2d_19">
      <g>
       <use style="stroke:#000000;stroke-width:0.5;" x="431.894487796" xlink:href="#m177f7580d0" y="388.554497041"/>
      </g>
     </g>
    </g>
    <g id="xtick_19">
     <g id="line2d_20">
      <g>
       <use style="stroke:#000000;stroke-width:0.5;" x="455.855451877" xlink:href="#m177f7580d0" y="388.554497041"/>
      </g>
     </g>
    </g>
    <g id="xtick_20">
     <g id="line2d_21">
      <g>
       <use style="stroke:#000000;stroke-width:0.5;" x="479.816415958" xlink:href="#m177f7580d0" y="388.554497041"/>
      </g>
     </g>
    </g>
    <g id="xtick_21">
     <g id="line2d_22">
      <g>
       <use style="stroke:#000000;stroke-width:0.5;" x="503.777380039" xlink:href="#m177f7580d0" y="388.554497041"/>
      </g>
     </g>
    </g>
    <g id="text_5">
     <!-- $t$ -->
     <defs>
      <path d="
M6.20312 8.10938
Q6.20312 9.57812 6.5 10.8906
L13.7188 39.5938
L3.21875 39.5938
Q2.20312 39.5938 2.20312 40.9219
Q2.59375 43.1094 3.51562 43.1094
L14.5938 43.1094
L18.6094 59.4219
Q19 60.75 20.1719 61.6719
Q21.3438 62.5938 22.7969 62.5938
Q24.0781 62.5938 24.9219 61.8281
Q25.7812 61.0781 25.7812 59.8125
Q25.7812 59.5156 25.75 59.3438
Q25.7344 59.1875 25.6875 58.9844
L21.6875 43.1094
L31.9844 43.1094
Q33.0156 43.1094 33.0156 41.7969
Q32.9531 41.5469 32.8125 40.9531
Q32.6719 40.375 32.4219 39.9844
Q32.1719 39.5938 31.6875 39.5938
L20.7969 39.5938
L13.625 10.6875
Q12.8906 7.85938 12.8906 5.8125
Q12.8906 1.51562 15.8281 1.51562
Q20.2188 1.51562 23.6094 5.64062
Q27 9.76562 28.8125 14.7031
Q29.2031 15.2812 29.5938 15.2812
L30.8125 15.2812
Q31.2031 15.2812 31.4375 15.0156
Q31.6875 14.75 31.6875 14.4062
Q31.6875 14.2031 31.5938 14.1094
Q29.3906 8.0625 25.1875 3.46875
Q21 -1.125 15.5781 -1.125
Q11.625 -1.125 8.90625 1.45312
Q6.20312 4.04688 6.20312 8.10938" id="Cmmi10-74"/>
     </defs>
     <g transform="translate(545.322729752 388.554497041)scale(0.28 -0.28)">
      <use transform="translate(0.0 0.40625)" xlink:href="#Cmmi10-74"/>
     </g>
    </g>
   </g>
   <g id="matplotlib.axis_2">
    <g id="ytick_1">
     <g id="line2d_23">
      <defs>
       <path d="
M0 0
L4 0" id="m728421d6d4" style="stroke:#000000;stroke-width:0.5;"/>
      </defs>
      <g>
       <use style="stroke:#000000;stroke-width:0.5;" x="48.5190625" xlink:href="#m728421d6d4" y="388.554497041"/>
      </g>
     </g>
    </g>
    <g id="ytick_2">
     <g id="line2d_24">
      <g>
       <use style="stroke:#000000;stroke-width:0.5;" x="48.5190625" xlink:href="#m728421d6d4" y="320.814183787"/>
      </g>
     </g>
     <g id="text_6">
      <!-- 0.05 -->
      <defs>
       <path d="
M10.6875 12.4062
L21 12.4062
L21 0
L10.6875 0
z
" id="BitstreamVeraSans-Roman-2e"/>
      </defs>
      <g transform="translate(7.2 325.781058787)scale(0.18 -0.18)">
       <use xlink:href="#BitstreamVeraSans-Roman-30"/>
       <use x="63.623046875" xlink:href="#BitstreamVeraSans-Roman-2e"/>
       <use x="95.41015625" xlink:href="#BitstreamVeraSans-Roman-30"/>
       <use x="159.033203125" xlink:href="#BitstreamVeraSans-Roman-35"/>
      </g>
     </g>
    </g>
    <g id="ytick_3">
     <g id="line2d_25">
      <g>
       <use style="stroke:#000000;stroke-width:0.5;" x="48.5190625" xlink:href="#m728421d6d4" y="253.073870533"/>
      </g>
     </g>
     <g id="text_7">
      <!-- 0.1 -->
      <g transform="translate(18.7425 258.040745533)scale(0.18 -0.18)">
       <use xlink:href="#BitstreamVeraSans-Roman-30"/>
       <use x="63.623046875" xlink:href="#BitstreamVeraSans-Roman-2e"/>
       <use x="95.41015625" xlink:href="#BitstreamVeraSans-Roman-31"/>
      </g>
     </g>
    </g>
    <g id="ytick_4">
     <g id="line2d_26">
      <g>
       <use style="stroke:#000000;stroke-width:0.5;" x="48.5190625" xlink:href="#m728421d6d4" y="185.333557279"/>
      </g>
     </g>
     <g id="text_8">
      <!-- 0.15 -->
      <g transform="translate(7.2 190.300432279)scale(0.18 -0.18)">
       <use xlink:href="#BitstreamVeraSans-Roman-30"/>
       <use x="63.623046875" xlink:href="#BitstreamVeraSans-Roman-2e"/>
       <use x="95.41015625" xlink:href="#BitstreamVeraSans-Roman-31"/>
       <use x="159.033203125" xlink:href="#BitstreamVeraSans-Roman-35"/>
      </g>
     </g>
    </g>
    <g id="ytick_5">
     <g id="line2d_27">
      <g>
       <use style="stroke:#000000;stroke-width:0.5;" x="48.5190625" xlink:href="#m728421d6d4" y="117.593244025"/>
      </g>
     </g>
     <g id="text_9">
      <!-- 0.2 -->
      <g transform="translate(18.883125 122.560119025)scale(0.18 -0.18)">
       <use xlink:href="#BitstreamVeraSans-Roman-30"/>
       <use x="63.623046875" xlink:href="#BitstreamVeraSans-Roman-2e"/>
       <use x="95.41015625" xlink:href="#BitstreamVeraSans-Roman-32"/>
      </g>
     </g>
    </g>
    <g id="ytick_6">
     <g id="line2d_28">
      <g>
       <use style="stroke:#000000;stroke-width:0.5;" x="48.5190625" xlink:href="#m728421d6d4" y="49.8529307715"/>
      </g>
     </g>
     <g id="text_10">
      <!-- 0.25 -->
      <g transform="translate(7.2 54.8198057715)scale(0.18 -0.18)">
       <use xlink:href="#BitstreamVeraSans-Roman-30"/>
       <use x="63.623046875" xlink:href="#BitstreamVeraSans-Roman-2e"/>
       <use x="95.41015625" xlink:href="#BitstreamVeraSans-Roman-32"/>
       <use x="159.033203125" xlink:href="#BitstreamVeraSans-Roman-35"/>
      </g>
     </g>
    </g>
    <g id="ytick_7">
     <g id="line2d_29">
      <defs>
       <path d="
M0 0
L2 0" id="mf0c55a9a47" style="stroke:#000000;stroke-width:0.5;"/>
      </defs>
      <g>
       <use style="stroke:#000000;stroke-width:0.5;" x="48.5190625" xlink:href="#mf0c55a9a47" y="375.006434391"/>
      </g>
     </g>
    </g>
    <g id="ytick_8">
     <g id="line2d_30">
      <g>
       <use style="stroke:#000000;stroke-width:0.5;" x="48.5190625" xlink:href="#mf0c55a9a47" y="361.45837174"/>
      </g>
     </g>
    </g>
    <g id="ytick_9">
     <g id="line2d_31">
      <g>
       <use style="stroke:#000000;stroke-width:0.5;" x="48.5190625" xlink:href="#mf0c55a9a47" y="347.910309089"/>
      </g>
     </g>
    </g>
    <g id="ytick_10">
     <g id="line2d_32">
      <g>
       <use style="stroke:#000000;stroke-width:0.5;" x="48.5190625" xlink:href="#mf0c55a9a47" y="334.362246438"/>
      </g>
     </g>
    </g>
    <g id="ytick_11">
     <g id="line2d_33">
      <g>
       <use style="stroke:#000000;stroke-width:0.5;" x="48.5190625" xlink:href="#mf0c55a9a47" y="307.266121137"/>
      </g>
     </g>
    </g>
    <g id="ytick_12">
     <g id="line2d_34">
      <g>
       <use style="stroke:#000000;stroke-width:0.5;" x="48.5190625" xlink:href="#mf0c55a9a47" y="293.718058486"/>
      </g>
     </g>
    </g>
    <g id="ytick_13">
     <g id="line2d_35">
      <g>
       <use style="stroke:#000000;stroke-width:0.5;" x="48.5190625" xlink:href="#mf0c55a9a47" y="280.169995835"/>
      </g>
     </g>
    </g>
    <g id="ytick_14">
     <g id="line2d_36">
      <g>
       <use style="stroke:#000000;stroke-width:0.5;" x="48.5190625" xlink:href="#mf0c55a9a47" y="266.621933184"/>
      </g>
     </g>
    </g>
    <g id="ytick_15">
     <g id="line2d_37">
      <g>
       <use style="stroke:#000000;stroke-width:0.5;" x="48.5190625" xlink:href="#mf0c55a9a47" y="239.525807883"/>
      </g>
     </g>
    </g>
    <g id="ytick_16">
     <g id="line2d_38">
      <g>
       <use style="stroke:#000000;stroke-width:0.5;" x="48.5190625" xlink:href="#mf0c55a9a47" y="225.977745232"/>
      </g>
     </g>
    </g>
    <g id="ytick_17">
     <g id="line2d_39">
      <g>
       <use style="stroke:#000000;stroke-width:0.5;" x="48.5190625" xlink:href="#mf0c55a9a47" y="212.429682581"/>
      </g>
     </g>
    </g>
    <g id="ytick_18">
     <g id="line2d_40">
      <g>
       <use style="stroke:#000000;stroke-width:0.5;" x="48.5190625" xlink:href="#mf0c55a9a47" y="198.88161993"/>
      </g>
     </g>
    </g>
    <g id="ytick_19">
     <g id="line2d_41">
      <g>
       <use style="stroke:#000000;stroke-width:0.5;" x="48.5190625" xlink:href="#mf0c55a9a47" y="171.785494629"/>
      </g>
     </g>
    </g>
    <g id="ytick_20">
     <g id="line2d_42">
      <g>
       <use style="stroke:#000000;stroke-width:0.5;" x="48.5190625" xlink:href="#mf0c55a9a47" y="158.237431978"/>
      </g>
     </g>
    </g>
    <g id="ytick_21">
     <g id="line2d_43">
      <g>
       <use style="stroke:#000000;stroke-width:0.5;" x="48.5190625" xlink:href="#mf0c55a9a47" y="144.689369327"/>
      </g>
     </g>
    </g>
    <g id="ytick_22">
     <g id="line2d_44">
      <g>
       <use style="stroke:#000000;stroke-width:0.5;" x="48.5190625" xlink:href="#mf0c55a9a47" y="131.141306676"/>
      </g>
     </g>
    </g>
    <g id="ytick_23">
     <g id="line2d_45">
      <g>
       <use style="stroke:#000000;stroke-width:0.5;" x="48.5190625" xlink:href="#mf0c55a9a47" y="104.045181375"/>
      </g>
     </g>
    </g>
    <g id="ytick_24">
     <g id="line2d_46">
      <g>
       <use style="stroke:#000000;stroke-width:0.5;" x="48.5190625" xlink:href="#mf0c55a9a47" y="90.4971187239"/>
      </g>
     </g>
    </g>
    <g id="ytick_25">
     <g id="line2d_47">
      <g>
       <use style="stroke:#000000;stroke-width:0.5;" x="48.5190625" xlink:href="#mf0c55a9a47" y="76.9490560731"/>
      </g>
     </g>
    </g>
    <g id="ytick_26">
     <g id="line2d_48">
      <g>
       <use style="stroke:#000000;stroke-width:0.5;" x="48.5190625" xlink:href="#mf0c55a9a47" y="63.4009934223"/>
      </g>
     </g>
    </g>
    <g id="text_11">
     <!-- $x(t)$ -->
     <defs>
      <path d="
M31 -24.8125
Q25.4375 -20.4062 21.4062 -14.7188
Q17.3906 -9.03125 14.8125 -2.57812
Q12.25 3.85938 10.9844 10.8906
Q9.71875 17.9219 9.71875 25
Q9.71875 32.1719 10.9844 39.2031
Q12.25 46.2344 14.8594 52.7344
Q17.4844 59.2344 21.5312 64.8906
Q25.5938 70.5625 31 74.8125
Q31 75 31.5 75
L32.4219 75
Q32.7188 75 32.9531 74.7344
Q33.2031 74.4688 33.2031 74.125
Q33.2031 73.6875 33.0156 73.4844
Q28.125 68.7031 24.875 63.2344
Q21.625 57.7656 19.6406 51.5781
Q17.6719 45.4062 16.7969 38.7812
Q15.9219 32.1719 15.9219 25
Q15.9219 -6.78125 32.9062 -23.2969
Q33.2031 -23.5781 33.2031 -24.125
Q33.2031 -24.3594 32.9375 -24.6719
Q32.6719 -25 32.4219 -25
L31.5 -25
Q31 -25 31 -24.8125" id="Cmr10-28"/>
      <path d="
M6.5 -25
Q5.60938 -25 5.60938 -24.125
Q5.60938 -23.6875 5.8125 -23.4844
Q22.9062 -6.78125 22.9062 25
Q22.9062 56.7812 6 73.2969
Q5.60938 73.5312 5.60938 74.125
Q5.60938 74.4688 5.875 74.7344
Q6.15625 75 6.5 75
L7.42188 75
Q7.71875 75 7.90625 74.8125
Q15.0938 69.1406 19.875 61.0312
Q24.6562 52.9375 26.875 43.75
Q29.1094 34.5781 29.1094 25
Q29.1094 17.9219 27.9062 11.0625
Q26.7031 4.20312 24.0938 -2.45312
Q21.4844 -9.125 17.4844 -14.7656
Q13.4844 -20.4062 7.90625 -24.8125
Q7.71875 -25 7.42188 -25
z
" id="Cmr10-29"/>
      <path d="
M7.8125 2.875
Q9.57812 1.51562 12.7969 1.51562
Q15.9219 1.51562 18.3125 4.51562
Q20.7031 7.51562 21.5781 11.0781
L26.125 28.8125
Q27.2031 33.6406 27.2031 35.4062
Q27.2031 37.8906 25.8125 39.75
Q24.4219 41.6094 21.9219 41.6094
Q18.75 41.6094 15.9688 39.625
Q13.1875 37.6406 11.2812 34.5938
Q9.375 31.5469 8.59375 28.4219
Q8.40625 27.7812 7.8125 27.7812
L6.59375 27.7812
Q5.8125 27.7812 5.8125 28.7188
L5.8125 29
Q6.78125 32.7188 9.125 36.25
Q11.4688 39.7969 14.8594 41.9844
Q18.2656 44.1875 22.125 44.1875
Q25.7812 44.1875 28.7344 42.2344
Q31.6875 40.2812 32.9062 36.9219
Q34.625 39.9844 37.2812 42.0781
Q39.9375 44.1875 43.1094 44.1875
Q45.2656 44.1875 47.5 43.4219
Q49.75 42.6719 51.1719 41.1094
Q52.5938 39.5469 52.5938 37.2031
Q52.5938 34.6719 50.9531 32.8281
Q49.3125 31 46.7812 31
Q45.1719 31 44.0938 32.0312
Q43.0156 33.0625 43.0156 34.625
Q43.0156 36.7188 44.4531 38.2969
Q45.9062 39.8906 47.9062 40.1875
Q46.0938 41.6094 42.9219 41.6094
Q39.7031 41.6094 37.3281 38.625
Q34.9688 35.6406 33.9844 31.9844
L29.5938 14.3125
Q28.5156 10.2969 28.5156 7.71875
Q28.5156 5.17188 29.9531 3.34375
Q31.3906 1.51562 33.7969 1.51562
Q38.4844 1.51562 42.1562 5.64062
Q45.8438 9.76562 47.0156 14.7031
Q47.2188 15.2812 47.7969 15.2812
L49.0312 15.2812
Q49.4219 15.2812 49.6562 15.0156
Q49.9062 14.75 49.9062 14.4062
Q49.9062 14.3125 49.8125 14.1094
Q48.3906 8.15625 43.8438 3.51562
Q39.3125 -1.125 33.5938 -1.125
Q29.9375 -1.125 26.9844 0.84375
Q24.0312 2.82812 22.7969 6.20312
Q21.2344 3.26562 18.4688 1.0625
Q15.7188 -1.125 12.5938 -1.125
Q10.4531 -1.125 8.17188 -0.359375
Q5.90625 0.390625 4.48438 1.95312
Q3.07812 3.51562 3.07812 5.90625
Q3.07812 8.25 4.70312 10.1719
Q6.34375 12.1094 8.79688 12.1094
Q10.4531 12.1094 11.5781 11.1094
Q12.7031 10.1094 12.7031 8.5
Q12.7031 6.39062 11.2969 4.82812
Q9.90625 3.26562 7.8125 2.875" id="Cmmi10-78"/>
     </defs>
     <g transform="translate(24.5790625 28.2)scale(0.28 -0.28)">
      <use xlink:href="#Cmmi10-78"/>
      <use transform="translate(57.080078125 0.0)" xlink:href="#Cmr10-28"/>
      <use transform="translate(95.8984375 0.0)" xlink:href="#Cmmi10-74"/>
      <use transform="translate(131.982421875 0.0)" xlink:href="#Cmr10-29"/>
     </g>
    </g>
   </g>
   <g id="legend_1">
    <g id="patch_5">
     <path d="
M462.443 75.2137
L531.323 75.2137
L531.323 49.2
L462.443 49.2
z
" style="fill:#e6e6e6;stroke:#000000;stroke-linejoin:miter;"/>
    </g>
    <g id="line2d_49">
     <path d="
M473.243 61.3181
L466.643 61.3181" style="fill:none;stroke:#0000ff;stroke-linecap:square;stroke-width:2.0;"/>
    </g>
    <g id="line2d_50"/>
    <g id="text_12">
     <!-- $e^{-t} - e^{-2t}$ -->
     <defs>
      <path d="
M4.98438 0
L4.98438 2.6875
Q4.98438 2.9375 5.17188 3.21875
L20.7031 20.4062
Q24.2188 24.2188 26.4062 26.7969
Q28.6094 29.3906 30.75 32.7656
Q32.9062 36.1406 34.1562 39.625
Q35.4062 43.1094 35.4062 47.0156
Q35.4062 51.125 33.8906 54.8594
Q32.375 58.5938 29.375 60.8438
Q26.375 63.0938 22.125 63.0938
Q17.7812 63.0938 14.3125 60.4688
Q10.8438 57.8594 9.42188 53.7188
Q9.8125 53.8125 10.5 53.8125
Q12.75 53.8125 14.3281 52.2969
Q15.9219 50.7812 15.9219 48.3906
Q15.9219 46.0938 14.3281 44.5
Q12.75 42.9219 10.5 42.9219
Q8.15625 42.9219 6.5625 44.5469
Q4.98438 46.1875 4.98438 48.3906
Q4.98438 52.1562 6.39062 55.4375
Q7.8125 58.7344 10.4688 61.2969
Q13.1406 63.875 16.4844 65.2344
Q19.8281 66.6094 23.5781 66.6094
Q29.2969 66.6094 34.2188 64.1875
Q39.1562 61.7656 42.0312 57.3438
Q44.9219 52.9375 44.9219 47.0156
Q44.9219 42.6719 43.0156 38.7656
Q41.1094 34.8594 38.125 31.6562
Q35.1562 28.4688 30.5156 24.4062
Q25.875 20.3594 24.4219 19
L13.0938 8.10938
L22.7031 8.10938
Q29.7812 8.10938 34.5469 8.21875
Q39.3125 8.34375 39.5938 8.59375
Q40.7656 9.85938 42 17.8281
L44.9219 17.8281
L42.0938 0
z
" id="Cmr10-32"/>
      <path d="
M10.2031 23
Q9.375 23 8.82812 23.625
Q8.29688 24.2656 8.29688 25
Q8.29688 25.7344 8.82812 26.3594
Q9.375 27 10.2031 27
L67.5781 27
Q68.3594 27 68.875 26.3594
Q69.3906 25.7344 69.3906 25
Q69.3906 24.2656 68.875 23.625
Q68.3594 23 67.5781 23
z
" id="Cmsy10-a1"/>
      <path d="
M20.125 -1.125
Q15.3281 -1.125 11.7344 1.35938
Q8.15625 3.85938 6.26562 8.07812
Q4.39062 12.3125 4.39062 17
Q4.39062 24.125 7.98438 30.3906
Q11.5781 36.6719 17.7188 40.4219
Q23.875 44.1875 30.9062 44.1875
Q35.2031 44.1875 38.4062 41.9688
Q41.6094 39.75 41.6094 35.5938
Q41.6094 29.8281 37.0156 27.0156
Q32.4219 24.2188 26.6562 23.5625
Q20.9062 22.9062 13.9219 22.9062
L13.625 22.9062
Q12.0156 16.9375 12.0156 12.7031
Q12.0156 8.25 14.0625 4.875
Q16.1094 1.51562 20.3125 1.51562
Q26.2656 1.51562 31.75 4.25
Q37.25 6.98438 40.7188 11.8125
Q41.0156 12.1094 41.5 12.1094
Q42 12.1094 42.5 11.5469
Q43.0156 10.9844 43.0156 10.5
Q43.0156 10.1094 42.8281 9.90625
Q39.1562 4.78125 32.9531 1.82812
Q26.7656 -1.125 20.125 -1.125
M14.2031 25.4844
Q20.0156 25.4844 24.9531 26.0156
Q29.8906 26.5625 33.8906 28.7344
Q37.8906 30.9062 37.8906 35.5
Q37.8906 37.3594 36.8594 38.75
Q35.8438 40.1406 34.2031 40.875
Q32.5625 41.6094 30.8125 41.6094
Q26.5625 41.6094 23.1719 39.3125
Q19.7812 37.0156 17.5781 33.3281
Q15.375 29.6406 14.2031 25.4844" id="Cmmi10-65"/>
     </defs>
     <g transform="translate(476.242729752 65.518125)scale(0.12 -0.12)">
      <use transform="translate(0.0 0.8578125)" xlink:href="#Cmmi10-65"/>
      <use transform="translate(46.484375 43.3734375)scale(0.7)" xlink:href="#Cmsy10-a1"/>
      <use transform="translate(100.864257812 43.3734375)scale(0.7)" xlink:href="#Cmmi10-74"/>
      <use transform="translate(143.129296875 0.8578125)" xlink:href="#Cmsy10-a1"/>
      <use transform="translate(220.81484375 0.8578125)" xlink:href="#Cmmi10-65"/>
      <use transform="translate(267.29921875 43.3734375)scale(0.7)" xlink:href="#Cmsy10-a1"/>
      <use transform="translate(321.679101563 43.3734375)scale(0.7)" xlink:href="#Cmr10-32"/>
      <use transform="translate(356.679101563 43.3734375)scale(0.7)" xlink:href="#Cmmi10-74"/>
     </g>
    </g>
   </g>
  </g>
 </g>
 <defs>
  <clipPath id="pe4a509f18e">
   <rect height="352.126153846" width="498.388052885" x="38.9346768676" y="43.2"/>
  </clipPath>
 </defs>
</svg>
