<?xml version="1.0" encoding="utf-8" standalone="no"?>
<!DOCTYPE svg PUBLIC "-//W3C//DTD SVG 1.1//EN"
  "http://www.w3.org/Graphics/SVG/1.1/DTD/svg11.dtd">
<svg xmlns:xlink="http://www.w3.org/1999/xlink" width="455.267854pt" height="344.32pt" viewBox="0 0 455.267854 344.32" xmlns="http://www.w3.org/2000/svg" version="1.1">
 <metadata>
  <rdf:RDF xmlns:dc="http://purl.org/dc/elements/1.1/" xmlns:cc="http://creativecommons.org/ns#" xmlns:rdf="http://www.w3.org/1999/02/22-rdf-syntax-ns#">
   <cc:Work>
    <dc:type rdf:resource="http://purl.org/dc/dcmitype/StillImage"/>
    <dc:date>2023-04-11T10:19:02.416415</dc:date>
    <dc:format>image/svg+xml</dc:format>
    <dc:creator>
     <cc:Agent>
      <dc:title>Matplotlib v3.5.1, https://matplotlib.org/</dc:title>
     </cc:Agent>
    </dc:creator>
   </cc:Work>
  </rdf:RDF>
 </metadata>
 <defs>
  <style type="text/css">*{stroke-linejoin: round; stroke-linecap: butt}</style>
 </defs>
 <g id="figure_1">
  <g id="patch_1">
   <path d="M 0 344.32 
L 455.267854 344.32 
L 455.267854 -0 
L 0 -0 
z
" style="fill: #ffffff"/>
  </g>
  <g id="axes_1">
   <g id="patch_2">
    <path d="M 108.538277 337.12 
L 434.147854 337.12 
L 434.147854 31.2 
L 108.538277 31.2 
z
" style="fill: #ffffff"/>
   </g>
   <g id="matplotlib.axis_1">
    <g id="xtick_1">
     <g id="line2d_1">
      <defs>
       <path id="m841065b9e0" d="M 0 0 
L 0 3.5 
" style="stroke: #000000; stroke-width: 0.8"/>
      </defs>
      <g>
       <use xlink:href="#m841065b9e0" x="114.8" y="184.741247" style="stroke: #000000; stroke-width: 0.8"/>
      </g>
     </g>
    </g>
    <g id="xtick_2">
     <g id="line2d_2">
      <g>
       <use xlink:href="#m841065b9e0" x="146.108613" y="184.741247" style="stroke: #000000; stroke-width: 0.8"/>
      </g>
     </g>
     <g id="text_1">
      <!-- $\pi$ -->
      <g transform="translate(143.258613 199.339685)scale(0.1 -0.1)">
       <defs>
        <path id="Cmmi10-bc" d="M 647 109 
Q 647 144 672 213 
Q 850 584 1004 942 
Q 1159 1300 1282 1639 
Q 1406 1978 1509 2363 
L 1100 2363 
Q 866 2363 662 2216 
Q 459 2069 325 1844 
Q 313 1819 288 1819 
L 213 1819 
Q 153 1819 153 1881 
Q 153 1894 166 1919 
Q 375 2275 614 2517 
Q 853 2759 1153 2759 
L 3475 2759 
Q 3541 2759 3587 2715 
Q 3634 2672 3634 2597 
Q 3634 2503 3567 2433 
Q 3500 2363 3406 2363 
L 2591 2363 
Q 2488 1859 2478 1381 
Q 2478 766 2694 269 
Q 2713 231 2713 191 
Q 2713 122 2672 62 
Q 2631 3 2567 -34 
Q 2503 -72 2431 -72 
Q 2263 -72 2200 203 
Q 2138 478 2138 738 
Q 2138 1103 2200 1442 
Q 2263 1781 2400 2363 
L 1703 2363 
Q 1197 313 1094 103 
Q 1003 -72 844 -72 
Q 766 -72 706 -20 
Q 647 31 647 109 
z
" transform="scale(0.015625)"/>
       </defs>
       <use xlink:href="#Cmmi10-bc" transform="translate(0 0.890625)"/>
      </g>
     </g>
    </g>
    <g id="xtick_3">
     <g id="line2d_3">
      <g>
       <use xlink:href="#m841065b9e0" x="177.417226" y="184.741247" style="stroke: #000000; stroke-width: 0.8"/>
      </g>
     </g>
     <g id="text_2">
      <!-- $2 \, \pi$ -->
      <g transform="translate(171.317226 199.339685)scale(0.1 -0.1)">
       <defs>
        <path id="Cmr10-32" d="M 319 0 
L 319 172 
Q 319 188 331 206 
L 1325 1306 
Q 1550 1550 1690 1715 
Q 1831 1881 1968 2097 
Q 2106 2313 2186 2536 
Q 2266 2759 2266 3009 
Q 2266 3272 2169 3511 
Q 2072 3750 1880 3894 
Q 1688 4038 1416 4038 
Q 1138 4038 916 3870 
Q 694 3703 603 3438 
Q 628 3444 672 3444 
Q 816 3444 917 3347 
Q 1019 3250 1019 3097 
Q 1019 2950 917 2848 
Q 816 2747 672 2747 
Q 522 2747 420 2851 
Q 319 2956 319 3097 
Q 319 3338 409 3548 
Q 500 3759 670 3923 
Q 841 4088 1055 4175 
Q 1269 4263 1509 4263 
Q 1875 4263 2190 4108 
Q 2506 3953 2690 3670 
Q 2875 3388 2875 3009 
Q 2875 2731 2753 2481 
Q 2631 2231 2440 2026 
Q 2250 1822 1953 1562 
Q 1656 1303 1563 1216 
L 838 519 
L 1453 519 
Q 1906 519 2211 526 
Q 2516 534 2534 550 
Q 2609 631 2688 1141 
L 2875 1141 
L 2694 0 
L 319 0 
z
" transform="scale(0.015625)"/>
       </defs>
       <use xlink:href="#Cmr10-32" transform="translate(0 0.390625)"/>
       <use xlink:href="#Cmmi10-bc" transform="translate(64.632454 0.390625)"/>
      </g>
     </g>
    </g>
    <g id="xtick_4">
     <g id="line2d_4">
      <g>
       <use xlink:href="#m841065b9e0" x="208.72584" y="184.741247" style="stroke: #000000; stroke-width: 0.8"/>
      </g>
     </g>
     <g id="text_3">
      <!-- $3 \, \pi$ -->
      <g transform="translate(202.62584 199.339685)scale(0.1 -0.1)">
       <defs>
        <path id="Cmr10-33" d="M 609 494 
Q 759 275 1012 169 
Q 1266 63 1556 63 
Q 1928 63 2084 380 
Q 2241 697 2241 1100 
Q 2241 1281 2208 1462 
Q 2175 1644 2097 1800 
Q 2019 1956 1883 2050 
Q 1747 2144 1550 2144 
L 1125 2144 
Q 1069 2144 1069 2203 
L 1069 2259 
Q 1069 2309 1125 2309 
L 1478 2338 
Q 1703 2338 1851 2506 
Q 2000 2675 2069 2917 
Q 2138 3159 2138 3378 
Q 2138 3684 1994 3881 
Q 1850 4078 1556 4078 
Q 1313 4078 1091 3986 
Q 869 3894 738 3706 
Q 750 3709 759 3711 
Q 769 3713 781 3713 
Q 925 3713 1022 3613 
Q 1119 3513 1119 3372 
Q 1119 3234 1022 3134 
Q 925 3034 781 3034 
Q 641 3034 541 3134 
Q 441 3234 441 3372 
Q 441 3647 606 3850 
Q 772 4053 1033 4158 
Q 1294 4263 1556 4263 
Q 1750 4263 1965 4205 
Q 2181 4147 2356 4039 
Q 2531 3931 2642 3762 
Q 2753 3594 2753 3378 
Q 2753 3109 2633 2881 
Q 2513 2653 2303 2487 
Q 2094 2322 1844 2241 
Q 2122 2188 2372 2031 
Q 2622 1875 2773 1631 
Q 2925 1388 2925 1106 
Q 2925 753 2731 467 
Q 2538 181 2222 20 
Q 1906 -141 1556 -141 
Q 1256 -141 954 -26 
Q 653 88 461 316 
Q 269 544 269 863 
Q 269 1022 375 1128 
Q 481 1234 641 1234 
Q 744 1234 830 1186 
Q 916 1138 964 1050 
Q 1013 963 1013 863 
Q 1013 706 903 600 
Q 794 494 641 494 
L 609 494 
z
" transform="scale(0.015625)"/>
       </defs>
       <use xlink:href="#Cmr10-33" transform="translate(0 0.390625)"/>
       <use xlink:href="#Cmmi10-bc" transform="translate(64.632454 0.390625)"/>
      </g>
     </g>
    </g>
    <g id="xtick_5">
     <g id="line2d_5">
      <g>
       <use xlink:href="#m841065b9e0" x="240.034453" y="184.741247" style="stroke: #000000; stroke-width: 0.8"/>
      </g>
     </g>
     <g id="text_4">
      <!-- $4 \, \pi$ -->
      <g transform="translate(233.934453 199.339685)scale(0.1 -0.1)">
       <defs>
        <path id="Cmr10-34" d="M 178 1056 
L 178 1281 
L 2156 4231 
Q 2178 4263 2222 4263 
L 2316 4263 
Q 2388 4263 2388 4191 
L 2388 1281 
L 3016 1281 
L 3016 1056 
L 2388 1056 
L 2388 428 
Q 2388 297 2575 261 
Q 2763 225 3009 225 
L 3009 0 
L 1247 0 
L 1247 225 
Q 1494 225 1681 261 
Q 1869 297 1869 428 
L 1869 1056 
L 178 1056 
z
M 391 1281 
L 1906 1281 
L 1906 3547 
L 391 1281 
z
" transform="scale(0.015625)"/>
       </defs>
       <use xlink:href="#Cmr10-34" transform="translate(0 0.390625)"/>
       <use xlink:href="#Cmmi10-bc" transform="translate(64.632454 0.390625)"/>
      </g>
     </g>
    </g>
    <g id="xtick_6">
     <g id="line2d_6">
      <g>
       <use xlink:href="#m841065b9e0" x="271.343066" y="184.741247" style="stroke: #000000; stroke-width: 0.8"/>
      </g>
     </g>
     <g id="text_5">
      <!-- $5 \, \pi$ -->
      <g transform="translate(265.243066 199.339685)scale(0.1 -0.1)">
       <defs>
        <path id="Cmr10-35" d="M 556 728 
Q 622 541 758 387 
Q 894 234 1080 148 
Q 1266 63 1466 63 
Q 1928 63 2103 422 
Q 2278 781 2278 1294 
Q 2278 1516 2270 1667 
Q 2263 1819 2228 1959 
Q 2169 2184 2020 2353 
Q 1872 2522 1656 2522 
Q 1441 2522 1286 2456 
Q 1131 2391 1034 2303 
Q 938 2216 863 2119 
Q 788 2022 769 2016 
L 697 2016 
Q 681 2016 657 2036 
Q 634 2056 634 2075 
L 634 4213 
Q 634 4228 654 4245 
Q 675 4263 697 4263 
L 716 4263 
Q 1147 4056 1631 4056 
Q 2106 4056 2547 4263 
L 2566 4263 
Q 2588 4263 2606 4247 
Q 2625 4231 2625 4213 
L 2625 4153 
Q 2625 4122 2613 4122 
Q 2394 3831 2064 3668 
Q 1734 3506 1381 3506 
Q 1125 3506 856 3578 
L 856 2369 
Q 1069 2541 1236 2614 
Q 1403 2688 1663 2688 
Q 2016 2688 2295 2484 
Q 2575 2281 2725 1954 
Q 2875 1628 2875 1288 
Q 2875 903 2686 575 
Q 2497 247 2172 53 
Q 1847 -141 1466 -141 
Q 1150 -141 886 21 
Q 622 184 470 459 
Q 319 734 319 1044 
Q 319 1188 412 1278 
Q 506 1369 647 1369 
Q 788 1369 883 1276 
Q 978 1184 978 1044 
Q 978 906 883 811 
Q 788 716 647 716 
Q 625 716 597 720 
Q 569 725 556 728 
z
" transform="scale(0.015625)"/>
       </defs>
       <use xlink:href="#Cmr10-35" transform="translate(0 0.390625)"/>
       <use xlink:href="#Cmmi10-bc" transform="translate(64.632454 0.390625)"/>
      </g>
     </g>
    </g>
    <g id="xtick_7">
     <g id="line2d_7">
      <g>
       <use xlink:href="#m841065b9e0" x="302.651679" y="184.741247" style="stroke: #000000; stroke-width: 0.8"/>
      </g>
     </g>
     <g id="text_6">
      <!-- $6 \, \pi$ -->
      <g transform="translate(296.551679 199.339685)scale(0.1 -0.1)">
       <defs>
        <path id="Cmr10-36" d="M 1600 -141 
Q 1203 -141 937 70 
Q 672 281 526 617 
Q 381 953 325 1322 
Q 269 1691 269 2069 
Q 269 2575 466 3084 
Q 663 3594 1045 3928 
Q 1428 4263 1953 4263 
Q 2172 4263 2361 4180 
Q 2550 4097 2658 3936 
Q 2766 3775 2766 3547 
Q 2766 3416 2677 3327 
Q 2588 3238 2456 3238 
Q 2331 3238 2240 3328 
Q 2150 3419 2150 3547 
Q 2150 3672 2240 3762 
Q 2331 3853 2456 3853 
L 2491 3853 
Q 2409 3969 2261 4023 
Q 2113 4078 1953 4078 
Q 1759 4078 1595 3993 
Q 1431 3909 1300 3765 
Q 1169 3622 1081 3448 
Q 994 3275 945 3053 
Q 897 2831 884 2637 
Q 872 2444 872 2150 
Q 984 2413 1190 2580 
Q 1397 2747 1656 2747 
Q 1941 2747 2175 2631 
Q 2409 2516 2578 2311 
Q 2747 2106 2836 1843 
Q 2925 1581 2925 1313 
Q 2925 938 2758 598 
Q 2591 259 2287 59 
Q 1984 -141 1600 -141 
z
M 1600 63 
Q 1847 63 1997 175 
Q 2147 288 2217 473 
Q 2288 659 2305 848 
Q 2322 1038 2322 1313 
Q 2322 1675 2287 1931 
Q 2253 2188 2100 2383 
Q 1947 2578 1631 2578 
Q 1372 2578 1205 2403 
Q 1038 2228 961 1961 
Q 884 1694 884 1447 
Q 884 1363 891 1319 
Q 891 1309 889 1303 
Q 888 1297 884 1288 
Q 884 1013 940 731 
Q 997 450 1156 256 
Q 1316 63 1600 63 
z
" transform="scale(0.015625)"/>
       </defs>
       <use xlink:href="#Cmr10-36" transform="translate(0 0.390625)"/>
       <use xlink:href="#Cmmi10-bc" transform="translate(64.632454 0.390625)"/>
      </g>
     </g>
    </g>
    <g id="xtick_8">
     <g id="line2d_8">
      <g>
       <use xlink:href="#m841065b9e0" x="333.960292" y="184.741247" style="stroke: #000000; stroke-width: 0.8"/>
      </g>
     </g>
     <g id="text_7">
      <!-- $7 \, \pi$ -->
      <g transform="translate(327.860292 199.339685)scale(0.1 -0.1)">
       <defs>
        <path id="Cmr10-37" d="M 1113 166 
Q 1113 522 1175 862 
Q 1238 1203 1358 1536 
Q 1478 1869 1648 2189 
Q 1819 2509 2022 2791 
L 2606 3603 
L 1875 3603 
Q 738 3603 703 3572 
Q 619 3469 544 2981 
L 359 2981 
L 569 4325 
L 756 4325 
L 756 4306 
Q 756 4191 1147 4156 
Q 1538 4122 1913 4122 
L 3103 4122 
L 3103 3956 
Q 3103 3950 3101 3947 
Q 3100 3944 3097 3938 
L 2216 2700 
Q 1891 2219 1809 1631 
Q 1728 1044 1728 166 
Q 1728 41 1637 -50 
Q 1547 -141 1422 -141 
Q 1294 -141 1203 -50 
Q 1113 41 1113 166 
z
" transform="scale(0.015625)"/>
       </defs>
       <use xlink:href="#Cmr10-37" transform="translate(0 0.421875)"/>
       <use xlink:href="#Cmmi10-bc" transform="translate(64.632454 0.421875)"/>
      </g>
     </g>
    </g>
    <g id="xtick_9">
     <g id="line2d_9">
      <g>
       <use xlink:href="#m841065b9e0" x="365.268905" y="184.741247" style="stroke: #000000; stroke-width: 0.8"/>
      </g>
     </g>
     <g id="text_8">
      <!-- $8 \, \pi$ -->
      <g transform="translate(359.168905 199.339685)scale(0.1 -0.1)">
       <defs>
        <path id="Cmr10-38" d="M 269 972 
Q 269 1356 522 1651 
Q 775 1947 1172 2144 
L 934 2297 
Q 716 2441 578 2680 
Q 441 2919 441 3181 
Q 441 3488 602 3734 
Q 763 3981 1030 4122 
Q 1297 4263 1600 4263 
Q 1884 4263 2148 4147 
Q 2413 4031 2583 3815 
Q 2753 3600 2753 3303 
Q 2753 3088 2651 2903 
Q 2550 2719 2373 2572 
Q 2197 2425 1997 2322 
L 2363 2088 
Q 2616 1922 2770 1653 
Q 2925 1384 2925 1088 
Q 2925 741 2739 456 
Q 2553 172 2247 15 
Q 1941 -141 1600 -141 
Q 1269 -141 961 -6 
Q 653 128 461 383 
Q 269 638 269 972 
z
M 616 972 
Q 616 719 755 509 
Q 894 300 1122 181 
Q 1350 63 1600 63 
Q 1972 63 2275 280 
Q 2578 497 2578 856 
Q 2578 978 2529 1098 
Q 2481 1219 2395 1317 
Q 2309 1416 2203 1478 
L 1344 2034 
Q 1144 1928 976 1765 
Q 809 1603 712 1400 
Q 616 1197 616 972 
z
M 1056 2925 
L 1831 2425 
Q 2100 2581 2272 2803 
Q 2444 3025 2444 3303 
Q 2444 3519 2323 3698 
Q 2203 3878 2009 3978 
Q 1816 4078 1594 4078 
Q 1400 4078 1203 4003 
Q 1006 3928 878 3779 
Q 750 3631 750 3431 
Q 750 3131 1056 2925 
z
" transform="scale(0.015625)"/>
       </defs>
       <use xlink:href="#Cmr10-38" transform="translate(0 0.390625)"/>
       <use xlink:href="#Cmmi10-bc" transform="translate(64.632454 0.390625)"/>
      </g>
     </g>
    </g>
    <g id="xtick_10">
     <g id="line2d_10">
      <g>
       <use xlink:href="#m841065b9e0" x="396.577519" y="184.741247" style="stroke: #000000; stroke-width: 0.8"/>
      </g>
     </g>
     <g id="text_9">
      <!-- $9 \, \pi$ -->
      <g transform="translate(390.477519 199.339685)scale(0.1 -0.1)">
       <defs>
        <path id="Cmr10-39" d="M 722 269 
Q 897 63 1331 63 
Q 1575 63 1786 228 
Q 1997 394 2113 634 
Q 2247 906 2284 1214 
Q 2322 1522 2322 1978 
Q 2213 1719 2008 1553 
Q 1803 1388 1538 1388 
Q 1166 1388 873 1589 
Q 581 1791 425 2120 
Q 269 2450 269 2822 
Q 269 3206 444 3539 
Q 619 3872 928 4067 
Q 1238 4263 1631 4263 
Q 2019 4263 2280 4052 
Q 2541 3841 2678 3508 
Q 2816 3175 2870 2803 
Q 2925 2431 2925 2069 
Q 2925 1575 2744 1061 
Q 2563 547 2202 203 
Q 1841 -141 1331 -141 
Q 953 -141 690 37 
Q 428 216 428 575 
Q 428 706 517 795 
Q 606 884 738 884 
Q 866 884 955 795 
Q 1044 706 1044 575 
Q 1044 450 953 359 
Q 863 269 738 269 
L 722 269 
z
M 1563 1556 
Q 1825 1556 1992 1732 
Q 2159 1909 2234 2171 
Q 2309 2434 2309 2694 
L 2309 2816 
L 2309 2841 
Q 2309 3322 2168 3700 
Q 2028 4078 1631 4078 
Q 1378 4078 1220 3967 
Q 1063 3856 988 3672 
Q 913 3488 892 3278 
Q 872 3069 872 2822 
Q 872 2459 906 2203 
Q 941 1947 1094 1751 
Q 1247 1556 1563 1556 
z
" transform="scale(0.015625)"/>
       </defs>
       <use xlink:href="#Cmr10-39" transform="translate(0 0.390625)"/>
       <use xlink:href="#Cmmi10-bc" transform="translate(64.632454 0.390625)"/>
      </g>
     </g>
    </g>
    <g id="xtick_11">
     <g id="line2d_11">
      <g>
       <use xlink:href="#m841065b9e0" x="427.886132" y="184.741247" style="stroke: #000000; stroke-width: 0.8"/>
      </g>
     </g>
     <g id="text_10">
      <!-- $10 \, \pi$ -->
      <g transform="translate(419.286132 199.339685)scale(0.1 -0.1)">
       <defs>
        <path id="Cmr10-31" d="M 594 0 
L 594 225 
Q 1394 225 1394 428 
L 1394 3788 
Q 1063 3628 556 3628 
L 556 3853 
Q 1341 3853 1741 4263 
L 1831 4263 
Q 1853 4263 1873 4245 
Q 1894 4228 1894 4206 
L 1894 428 
Q 1894 225 2694 225 
L 2694 0 
L 594 0 
z
" transform="scale(0.015625)"/>
        <path id="Cmr10-30" d="M 1600 -141 
Q 816 -141 533 504 
Q 250 1150 250 2041 
Q 250 2597 351 3087 
Q 453 3578 754 3920 
Q 1056 4263 1600 4263 
Q 2022 4263 2290 4056 
Q 2559 3850 2700 3523 
Q 2841 3197 2892 2823 
Q 2944 2450 2944 2041 
Q 2944 1491 2842 1011 
Q 2741 531 2444 195 
Q 2147 -141 1600 -141 
z
M 1600 25 
Q 1956 25 2131 390 
Q 2306 756 2347 1200 
Q 2388 1644 2388 2144 
Q 2388 2625 2347 3031 
Q 2306 3438 2132 3767 
Q 1959 4097 1600 4097 
Q 1238 4097 1063 3765 
Q 888 3434 847 3029 
Q 806 2625 806 2144 
Q 806 1788 823 1472 
Q 841 1156 916 820 
Q 991 484 1158 254 
Q 1325 25 1600 25 
z
" transform="scale(0.015625)"/>
       </defs>
       <use xlink:href="#Cmr10-31" transform="translate(0 0.390625)"/>
       <use xlink:href="#Cmr10-30" transform="translate(50 0.390625)"/>
       <use xlink:href="#Cmmi10-bc" transform="translate(114.632454 0.390625)"/>
      </g>
     </g>
    </g>
    <g id="xtick_12">
     <g id="line2d_12">
      <defs>
       <path id="ma6a2774060" d="M 0 0 
L 0 2 
" style="stroke: #000000; stroke-width: 0.6"/>
      </defs>
      <g>
       <use xlink:href="#ma6a2774060" x="122.627153" y="184.741247" style="stroke: #000000; stroke-width: 0.6"/>
      </g>
     </g>
    </g>
    <g id="xtick_13">
     <g id="line2d_13">
      <g>
       <use xlink:href="#ma6a2774060" x="130.454307" y="184.741247" style="stroke: #000000; stroke-width: 0.6"/>
      </g>
     </g>
    </g>
    <g id="xtick_14">
     <g id="line2d_14">
      <g>
       <use xlink:href="#ma6a2774060" x="138.28146" y="184.741247" style="stroke: #000000; stroke-width: 0.6"/>
      </g>
     </g>
    </g>
    <g id="xtick_15">
     <g id="line2d_15">
      <g>
       <use xlink:href="#ma6a2774060" x="153.935766" y="184.741247" style="stroke: #000000; stroke-width: 0.6"/>
      </g>
     </g>
    </g>
    <g id="xtick_16">
     <g id="line2d_16">
      <g>
       <use xlink:href="#ma6a2774060" x="161.76292" y="184.741247" style="stroke: #000000; stroke-width: 0.6"/>
      </g>
     </g>
    </g>
    <g id="xtick_17">
     <g id="line2d_17">
      <g>
       <use xlink:href="#ma6a2774060" x="169.590073" y="184.741247" style="stroke: #000000; stroke-width: 0.6"/>
      </g>
     </g>
    </g>
    <g id="xtick_18">
     <g id="line2d_18">
      <g>
       <use xlink:href="#ma6a2774060" x="185.24438" y="184.741247" style="stroke: #000000; stroke-width: 0.6"/>
      </g>
     </g>
    </g>
    <g id="xtick_19">
     <g id="line2d_19">
      <g>
       <use xlink:href="#ma6a2774060" x="193.071533" y="184.741247" style="stroke: #000000; stroke-width: 0.6"/>
      </g>
     </g>
    </g>
    <g id="xtick_20">
     <g id="line2d_20">
      <g>
       <use xlink:href="#ma6a2774060" x="200.898686" y="184.741247" style="stroke: #000000; stroke-width: 0.6"/>
      </g>
     </g>
    </g>
    <g id="xtick_21">
     <g id="line2d_21">
      <g>
       <use xlink:href="#ma6a2774060" x="216.552993" y="184.741247" style="stroke: #000000; stroke-width: 0.6"/>
      </g>
     </g>
    </g>
    <g id="xtick_22">
     <g id="line2d_22">
      <g>
       <use xlink:href="#ma6a2774060" x="224.380146" y="184.741247" style="stroke: #000000; stroke-width: 0.6"/>
      </g>
     </g>
    </g>
    <g id="xtick_23">
     <g id="line2d_23">
      <g>
       <use xlink:href="#ma6a2774060" x="232.207299" y="184.741247" style="stroke: #000000; stroke-width: 0.6"/>
      </g>
     </g>
    </g>
    <g id="xtick_24">
     <g id="line2d_24">
      <g>
       <use xlink:href="#ma6a2774060" x="247.861606" y="184.741247" style="stroke: #000000; stroke-width: 0.6"/>
      </g>
     </g>
    </g>
    <g id="xtick_25">
     <g id="line2d_25">
      <g>
       <use xlink:href="#ma6a2774060" x="255.688759" y="184.741247" style="stroke: #000000; stroke-width: 0.6"/>
      </g>
     </g>
    </g>
    <g id="xtick_26">
     <g id="line2d_26">
      <g>
       <use xlink:href="#ma6a2774060" x="263.515913" y="184.741247" style="stroke: #000000; stroke-width: 0.6"/>
      </g>
     </g>
    </g>
    <g id="xtick_27">
     <g id="line2d_27">
      <g>
       <use xlink:href="#ma6a2774060" x="279.170219" y="184.741247" style="stroke: #000000; stroke-width: 0.6"/>
      </g>
     </g>
    </g>
    <g id="xtick_28">
     <g id="line2d_28">
      <g>
       <use xlink:href="#ma6a2774060" x="286.997372" y="184.741247" style="stroke: #000000; stroke-width: 0.6"/>
      </g>
     </g>
    </g>
    <g id="xtick_29">
     <g id="line2d_29">
      <g>
       <use xlink:href="#ma6a2774060" x="294.824526" y="184.741247" style="stroke: #000000; stroke-width: 0.6"/>
      </g>
     </g>
    </g>
    <g id="xtick_30">
     <g id="line2d_30">
      <g>
       <use xlink:href="#ma6a2774060" x="310.478832" y="184.741247" style="stroke: #000000; stroke-width: 0.6"/>
      </g>
     </g>
    </g>
    <g id="xtick_31">
     <g id="line2d_31">
      <g>
       <use xlink:href="#ma6a2774060" x="318.305986" y="184.741247" style="stroke: #000000; stroke-width: 0.6"/>
      </g>
     </g>
    </g>
    <g id="xtick_32">
     <g id="line2d_32">
      <g>
       <use xlink:href="#ma6a2774060" x="326.133139" y="184.741247" style="stroke: #000000; stroke-width: 0.6"/>
      </g>
     </g>
    </g>
    <g id="xtick_33">
     <g id="line2d_33">
      <g>
       <use xlink:href="#ma6a2774060" x="341.787446" y="184.741247" style="stroke: #000000; stroke-width: 0.6"/>
      </g>
     </g>
    </g>
    <g id="xtick_34">
     <g id="line2d_34">
      <g>
       <use xlink:href="#ma6a2774060" x="349.614599" y="184.741247" style="stroke: #000000; stroke-width: 0.6"/>
      </g>
     </g>
    </g>
    <g id="xtick_35">
     <g id="line2d_35">
      <g>
       <use xlink:href="#ma6a2774060" x="357.441752" y="184.741247" style="stroke: #000000; stroke-width: 0.6"/>
      </g>
     </g>
    </g>
    <g id="xtick_36">
     <g id="line2d_36">
      <g>
       <use xlink:href="#ma6a2774060" x="373.096059" y="184.741247" style="stroke: #000000; stroke-width: 0.6"/>
      </g>
     </g>
    </g>
    <g id="xtick_37">
     <g id="line2d_37">
      <g>
       <use xlink:href="#ma6a2774060" x="380.923212" y="184.741247" style="stroke: #000000; stroke-width: 0.6"/>
      </g>
     </g>
    </g>
    <g id="xtick_38">
     <g id="line2d_38">
      <g>
       <use xlink:href="#ma6a2774060" x="388.750365" y="184.741247" style="stroke: #000000; stroke-width: 0.6"/>
      </g>
     </g>
    </g>
    <g id="xtick_39">
     <g id="line2d_39">
      <g>
       <use xlink:href="#ma6a2774060" x="404.404672" y="184.741247" style="stroke: #000000; stroke-width: 0.6"/>
      </g>
     </g>
    </g>
    <g id="xtick_40">
     <g id="line2d_40">
      <g>
       <use xlink:href="#ma6a2774060" x="412.231825" y="184.741247" style="stroke: #000000; stroke-width: 0.6"/>
      </g>
     </g>
    </g>
    <g id="xtick_41">
     <g id="line2d_41">
      <g>
       <use xlink:href="#ma6a2774060" x="420.058979" y="184.741247" style="stroke: #000000; stroke-width: 0.6"/>
      </g>
     </g>
    </g>
    <g id="text_11">
     <!-- $t$ -->
     <g transform="translate(442.147854 184.741247)scale(0.16 -0.16)">
      <defs>
       <path id="Cmmi10-74" d="M 397 519 
Q 397 613 416 697 
L 878 2534 
L 206 2534 
Q 141 2534 141 2619 
Q 166 2759 225 2759 
L 934 2759 
L 1191 3803 
Q 1216 3888 1291 3947 
Q 1366 4006 1459 4006 
Q 1541 4006 1595 3957 
Q 1650 3909 1650 3828 
Q 1650 3809 1648 3798 
Q 1647 3788 1644 3775 
L 1388 2759 
L 2047 2759 
Q 2113 2759 2113 2675 
Q 2109 2659 2100 2621 
Q 2091 2584 2075 2559 
Q 2059 2534 2028 2534 
L 1331 2534 
L 872 684 
Q 825 503 825 372 
Q 825 97 1013 97 
Q 1294 97 1511 361 
Q 1728 625 1844 941 
Q 1869 978 1894 978 
L 1972 978 
Q 1997 978 2012 961 
Q 2028 944 2028 922 
Q 2028 909 2022 903 
Q 1881 516 1612 222 
Q 1344 -72 997 -72 
Q 744 -72 570 93 
Q 397 259 397 519 
z
" transform="scale(0.015625)"/>
      </defs>
      <use xlink:href="#Cmmi10-74" transform="translate(0 0.40625)"/>
     </g>
    </g>
   </g>
   <g id="matplotlib.axis_2">
    <g id="ytick_1">
     <g id="line2d_42">
      <defs>
       <path id="m5349c169b2" d="M 0 0 
L -3.5 0 
" style="stroke: #000000; stroke-width: 0.8"/>
      </defs>
      <g>
       <use xlink:href="#m5349c169b2" x="114.8" y="323.170787" style="stroke: #000000; stroke-width: 0.8"/>
      </g>
     </g>
     <g id="text_12">
      <!-- $-0.30000000000000004$ -->
      <g transform="translate(7.2 326.970006)scale(0.1 -0.1)">
       <defs>
        <path id="Cmsy10-a1" d="M 653 1472 
Q 600 1472 565 1512 
Q 531 1553 531 1600 
Q 531 1647 565 1687 
Q 600 1728 653 1728 
L 4325 1728 
Q 4375 1728 4408 1687 
Q 4441 1647 4441 1600 
Q 4441 1553 4408 1512 
Q 4375 1472 4325 1472 
L 653 1472 
z
" transform="scale(0.015625)"/>
        <path id="Cmmi10-3a" d="M 538 353 
Q 538 497 644 600 
Q 750 703 891 703 
Q 978 703 1062 656 
Q 1147 609 1194 525 
Q 1241 441 1241 353 
Q 1241 213 1137 106 
Q 1034 0 891 0 
Q 750 0 644 106 
Q 538 213 538 353 
z
" transform="scale(0.015625)"/>
       </defs>
       <use xlink:href="#Cmsy10-a1" transform="translate(0 0.390625)"/>
       <use xlink:href="#Cmr10-30" transform="translate(77.685547 0.390625)"/>
       <use xlink:href="#Cmmi10-3a" transform="translate(127.685547 0.390625)"/>
       <use xlink:href="#Cmr10-33" transform="translate(155.371094 0.390625)"/>
       <use xlink:href="#Cmr10-30" transform="translate(205.371094 0.390625)"/>
       <use xlink:href="#Cmr10-30" transform="translate(255.371094 0.390625)"/>
       <use xlink:href="#Cmr10-30" transform="translate(305.371094 0.390625)"/>
       <use xlink:href="#Cmr10-30" transform="translate(355.371094 0.390625)"/>
       <use xlink:href="#Cmr10-30" transform="translate(405.371094 0.390625)"/>
       <use xlink:href="#Cmr10-30" transform="translate(455.371094 0.390625)"/>
       <use xlink:href="#Cmr10-30" transform="translate(505.371094 0.390625)"/>
       <use xlink:href="#Cmr10-30" transform="translate(555.371094 0.390625)"/>
       <use xlink:href="#Cmr10-30" transform="translate(605.371094 0.390625)"/>
       <use xlink:href="#Cmr10-30" transform="translate(655.371094 0.390625)"/>
       <use xlink:href="#Cmr10-30" transform="translate(705.371094 0.390625)"/>
       <use xlink:href="#Cmr10-30" transform="translate(755.371094 0.390625)"/>
       <use xlink:href="#Cmr10-30" transform="translate(805.371094 0.390625)"/>
       <use xlink:href="#Cmr10-30" transform="translate(855.371094 0.390625)"/>
       <use xlink:href="#Cmr10-30" transform="translate(905.371094 0.390625)"/>
       <use xlink:href="#Cmr10-34" transform="translate(955.371094 0.390625)"/>
      </g>
     </g>
    </g>
    <g id="ytick_2">
     <g id="line2d_43">
      <g>
       <use xlink:href="#m5349c169b2" x="114.8" y="277.027607" style="stroke: #000000; stroke-width: 0.8"/>
      </g>
     </g>
     <g id="text_13">
      <!-- $-0.2$ -->
      <g transform="translate(87.2 280.826826)scale(0.1 -0.1)">
       <use xlink:href="#Cmsy10-a1" transform="translate(0 0.390625)"/>
       <use xlink:href="#Cmr10-30" transform="translate(77.685547 0.390625)"/>
       <use xlink:href="#Cmmi10-3a" transform="translate(127.685547 0.390625)"/>
       <use xlink:href="#Cmr10-32" transform="translate(155.371094 0.390625)"/>
      </g>
     </g>
    </g>
    <g id="ytick_3">
     <g id="line2d_44">
      <g>
       <use xlink:href="#m5349c169b2" x="114.8" y="230.884427" style="stroke: #000000; stroke-width: 0.8"/>
      </g>
     </g>
     <g id="text_14">
      <!-- $-0.09999999999999998$ -->
      <g transform="translate(7.2 234.683646)scale(0.1 -0.1)">
       <use xlink:href="#Cmsy10-a1" transform="translate(0 0.390625)"/>
       <use xlink:href="#Cmr10-30" transform="translate(77.685547 0.390625)"/>
       <use xlink:href="#Cmmi10-3a" transform="translate(127.685547 0.390625)"/>
       <use xlink:href="#Cmr10-30" transform="translate(155.371094 0.390625)"/>
       <use xlink:href="#Cmr10-39" transform="translate(205.371094 0.390625)"/>
       <use xlink:href="#Cmr10-39" transform="translate(255.371094 0.390625)"/>
       <use xlink:href="#Cmr10-39" transform="translate(305.371094 0.390625)"/>
       <use xlink:href="#Cmr10-39" transform="translate(355.371094 0.390625)"/>
       <use xlink:href="#Cmr10-39" transform="translate(405.371094 0.390625)"/>
       <use xlink:href="#Cmr10-39" transform="translate(455.371094 0.390625)"/>
       <use xlink:href="#Cmr10-39" transform="translate(505.371094 0.390625)"/>
       <use xlink:href="#Cmr10-39" transform="translate(555.371094 0.390625)"/>
       <use xlink:href="#Cmr10-39" transform="translate(605.371094 0.390625)"/>
       <use xlink:href="#Cmr10-39" transform="translate(655.371094 0.390625)"/>
       <use xlink:href="#Cmr10-39" transform="translate(705.371094 0.390625)"/>
       <use xlink:href="#Cmr10-39" transform="translate(755.371094 0.390625)"/>
       <use xlink:href="#Cmr10-39" transform="translate(805.371094 0.390625)"/>
       <use xlink:href="#Cmr10-39" transform="translate(855.371094 0.390625)"/>
       <use xlink:href="#Cmr10-39" transform="translate(905.371094 0.390625)"/>
       <use xlink:href="#Cmr10-38" transform="translate(955.371094 0.390625)"/>
      </g>
     </g>
    </g>
    <g id="ytick_4">
     <g id="line2d_45">
      <g>
       <use xlink:href="#m5349c169b2" x="114.8" y="184.741247" style="stroke: #000000; stroke-width: 0.8"/>
      </g>
     </g>
    </g>
    <g id="ytick_5">
     <g id="line2d_46">
      <g>
       <use xlink:href="#m5349c169b2" x="114.8" y="138.598068" style="stroke: #000000; stroke-width: 0.8"/>
      </g>
     </g>
     <g id="text_15">
      <!-- $0.09999999999999998$ -->
      <g transform="translate(15 142.397286)scale(0.1 -0.1)">
       <use xlink:href="#Cmr10-30" transform="translate(0 0.390625)"/>
       <use xlink:href="#Cmmi10-3a" transform="translate(50 0.390625)"/>
       <use xlink:href="#Cmr10-30" transform="translate(77.685547 0.390625)"/>
       <use xlink:href="#Cmr10-39" transform="translate(127.685547 0.390625)"/>
       <use xlink:href="#Cmr10-39" transform="translate(177.685547 0.390625)"/>
       <use xlink:href="#Cmr10-39" transform="translate(227.685547 0.390625)"/>
       <use xlink:href="#Cmr10-39" transform="translate(277.685547 0.390625)"/>
       <use xlink:href="#Cmr10-39" transform="translate(327.685547 0.390625)"/>
       <use xlink:href="#Cmr10-39" transform="translate(377.685547 0.390625)"/>
       <use xlink:href="#Cmr10-39" transform="translate(427.685547 0.390625)"/>
       <use xlink:href="#Cmr10-39" transform="translate(477.685547 0.390625)"/>
       <use xlink:href="#Cmr10-39" transform="translate(527.685547 0.390625)"/>
       <use xlink:href="#Cmr10-39" transform="translate(577.685547 0.390625)"/>
       <use xlink:href="#Cmr10-39" transform="translate(627.685547 0.390625)"/>
       <use xlink:href="#Cmr10-39" transform="translate(677.685547 0.390625)"/>
       <use xlink:href="#Cmr10-39" transform="translate(727.685547 0.390625)"/>
       <use xlink:href="#Cmr10-39" transform="translate(777.685547 0.390625)"/>
       <use xlink:href="#Cmr10-39" transform="translate(827.685547 0.390625)"/>
       <use xlink:href="#Cmr10-38" transform="translate(877.685547 0.390625)"/>
      </g>
     </g>
    </g>
    <g id="ytick_6">
     <g id="line2d_47">
      <g>
       <use xlink:href="#m5349c169b2" x="114.8" y="92.454888" style="stroke: #000000; stroke-width: 0.8"/>
      </g>
     </g>
     <g id="text_16">
      <!-- $0.20000000000000007$ -->
      <g transform="translate(15 96.254106)scale(0.1 -0.1)">
       <use xlink:href="#Cmr10-30" transform="translate(0 0.421875)"/>
       <use xlink:href="#Cmmi10-3a" transform="translate(50 0.421875)"/>
       <use xlink:href="#Cmr10-32" transform="translate(77.685547 0.421875)"/>
       <use xlink:href="#Cmr10-30" transform="translate(127.685547 0.421875)"/>
       <use xlink:href="#Cmr10-30" transform="translate(177.685547 0.421875)"/>
       <use xlink:href="#Cmr10-30" transform="translate(227.685547 0.421875)"/>
       <use xlink:href="#Cmr10-30" transform="translate(277.685547 0.421875)"/>
       <use xlink:href="#Cmr10-30" transform="translate(327.685547 0.421875)"/>
       <use xlink:href="#Cmr10-30" transform="translate(377.685547 0.421875)"/>
       <use xlink:href="#Cmr10-30" transform="translate(427.685547 0.421875)"/>
       <use xlink:href="#Cmr10-30" transform="translate(477.685547 0.421875)"/>
       <use xlink:href="#Cmr10-30" transform="translate(527.685547 0.421875)"/>
       <use xlink:href="#Cmr10-30" transform="translate(577.685547 0.421875)"/>
       <use xlink:href="#Cmr10-30" transform="translate(627.685547 0.421875)"/>
       <use xlink:href="#Cmr10-30" transform="translate(677.685547 0.421875)"/>
       <use xlink:href="#Cmr10-30" transform="translate(727.685547 0.421875)"/>
       <use xlink:href="#Cmr10-30" transform="translate(777.685547 0.421875)"/>
       <use xlink:href="#Cmr10-30" transform="translate(827.685547 0.421875)"/>
       <use xlink:href="#Cmr10-37" transform="translate(877.685547 0.421875)"/>
      </g>
     </g>
    </g>
    <g id="ytick_7">
     <g id="line2d_48">
      <g>
       <use xlink:href="#m5349c169b2" x="114.8" y="46.311708" style="stroke: #000000; stroke-width: 0.8"/>
      </g>
     </g>
     <g id="text_17">
      <!-- $0.30000000000000004$ -->
      <g transform="translate(15 50.110927)scale(0.1 -0.1)">
       <use xlink:href="#Cmr10-30" transform="translate(0 0.390625)"/>
       <use xlink:href="#Cmmi10-3a" transform="translate(50 0.390625)"/>
       <use xlink:href="#Cmr10-33" transform="translate(77.685547 0.390625)"/>
       <use xlink:href="#Cmr10-30" transform="translate(127.685547 0.390625)"/>
       <use xlink:href="#Cmr10-30" transform="translate(177.685547 0.390625)"/>
       <use xlink:href="#Cmr10-30" transform="translate(227.685547 0.390625)"/>
       <use xlink:href="#Cmr10-30" transform="translate(277.685547 0.390625)"/>
       <use xlink:href="#Cmr10-30" transform="translate(327.685547 0.390625)"/>
       <use xlink:href="#Cmr10-30" transform="translate(377.685547 0.390625)"/>
       <use xlink:href="#Cmr10-30" transform="translate(427.685547 0.390625)"/>
       <use xlink:href="#Cmr10-30" transform="translate(477.685547 0.390625)"/>
       <use xlink:href="#Cmr10-30" transform="translate(527.685547 0.390625)"/>
       <use xlink:href="#Cmr10-30" transform="translate(577.685547 0.390625)"/>
       <use xlink:href="#Cmr10-30" transform="translate(627.685547 0.390625)"/>
       <use xlink:href="#Cmr10-30" transform="translate(677.685547 0.390625)"/>
       <use xlink:href="#Cmr10-30" transform="translate(727.685547 0.390625)"/>
       <use xlink:href="#Cmr10-30" transform="translate(777.685547 0.390625)"/>
       <use xlink:href="#Cmr10-30" transform="translate(827.685547 0.390625)"/>
       <use xlink:href="#Cmr10-34" transform="translate(877.685547 0.390625)"/>
      </g>
     </g>
    </g>
    <g id="ytick_8">
     <g id="line2d_49">
      <defs>
       <path id="m9aa39851ef" d="M 0 0 
L -2 0 
" style="stroke: #000000; stroke-width: 0.6"/>
      </defs>
      <g>
       <use xlink:href="#m9aa39851ef" x="114.8" y="332.399423" style="stroke: #000000; stroke-width: 0.6"/>
      </g>
     </g>
    </g>
    <g id="ytick_9">
     <g id="line2d_50">
      <g>
       <use xlink:href="#m9aa39851ef" x="114.8" y="313.942151" style="stroke: #000000; stroke-width: 0.6"/>
      </g>
     </g>
    </g>
    <g id="ytick_10">
     <g id="line2d_51">
      <g>
       <use xlink:href="#m9aa39851ef" x="114.8" y="304.713515" style="stroke: #000000; stroke-width: 0.6"/>
      </g>
     </g>
    </g>
    <g id="ytick_11">
     <g id="line2d_52">
      <g>
       <use xlink:href="#m9aa39851ef" x="114.8" y="295.484879" style="stroke: #000000; stroke-width: 0.6"/>
      </g>
     </g>
    </g>
    <g id="ytick_12">
     <g id="line2d_53">
      <g>
       <use xlink:href="#m9aa39851ef" x="114.8" y="286.256243" style="stroke: #000000; stroke-width: 0.6"/>
      </g>
     </g>
    </g>
    <g id="ytick_13">
     <g id="line2d_54">
      <g>
       <use xlink:href="#m9aa39851ef" x="114.8" y="267.798971" style="stroke: #000000; stroke-width: 0.6"/>
      </g>
     </g>
    </g>
    <g id="ytick_14">
     <g id="line2d_55">
      <g>
       <use xlink:href="#m9aa39851ef" x="114.8" y="258.570335" style="stroke: #000000; stroke-width: 0.6"/>
      </g>
     </g>
    </g>
    <g id="ytick_15">
     <g id="line2d_56">
      <g>
       <use xlink:href="#m9aa39851ef" x="114.8" y="249.341699" style="stroke: #000000; stroke-width: 0.6"/>
      </g>
     </g>
    </g>
    <g id="ytick_16">
     <g id="line2d_57">
      <g>
       <use xlink:href="#m9aa39851ef" x="114.8" y="240.113063" style="stroke: #000000; stroke-width: 0.6"/>
      </g>
     </g>
    </g>
    <g id="ytick_17">
     <g id="line2d_58">
      <g>
       <use xlink:href="#m9aa39851ef" x="114.8" y="221.655791" style="stroke: #000000; stroke-width: 0.6"/>
      </g>
     </g>
    </g>
    <g id="ytick_18">
     <g id="line2d_59">
      <g>
       <use xlink:href="#m9aa39851ef" x="114.8" y="212.427155" style="stroke: #000000; stroke-width: 0.6"/>
      </g>
     </g>
    </g>
    <g id="ytick_19">
     <g id="line2d_60">
      <g>
       <use xlink:href="#m9aa39851ef" x="114.8" y="203.198519" style="stroke: #000000; stroke-width: 0.6"/>
      </g>
     </g>
    </g>
    <g id="ytick_20">
     <g id="line2d_61">
      <g>
       <use xlink:href="#m9aa39851ef" x="114.8" y="193.969883" style="stroke: #000000; stroke-width: 0.6"/>
      </g>
     </g>
    </g>
    <g id="ytick_21">
     <g id="line2d_62">
      <g>
       <use xlink:href="#m9aa39851ef" x="114.8" y="175.512612" style="stroke: #000000; stroke-width: 0.6"/>
      </g>
     </g>
    </g>
    <g id="ytick_22">
     <g id="line2d_63">
      <g>
       <use xlink:href="#m9aa39851ef" x="114.8" y="166.283976" style="stroke: #000000; stroke-width: 0.6"/>
      </g>
     </g>
    </g>
    <g id="ytick_23">
     <g id="line2d_64">
      <g>
       <use xlink:href="#m9aa39851ef" x="114.8" y="157.05534" style="stroke: #000000; stroke-width: 0.6"/>
      </g>
     </g>
    </g>
    <g id="ytick_24">
     <g id="line2d_65">
      <g>
       <use xlink:href="#m9aa39851ef" x="114.8" y="147.826704" style="stroke: #000000; stroke-width: 0.6"/>
      </g>
     </g>
    </g>
    <g id="ytick_25">
     <g id="line2d_66">
      <g>
       <use xlink:href="#m9aa39851ef" x="114.8" y="129.369432" style="stroke: #000000; stroke-width: 0.6"/>
      </g>
     </g>
    </g>
    <g id="ytick_26">
     <g id="line2d_67">
      <g>
       <use xlink:href="#m9aa39851ef" x="114.8" y="120.140796" style="stroke: #000000; stroke-width: 0.6"/>
      </g>
     </g>
    </g>
    <g id="ytick_27">
     <g id="line2d_68">
      <g>
       <use xlink:href="#m9aa39851ef" x="114.8" y="110.91216" style="stroke: #000000; stroke-width: 0.6"/>
      </g>
     </g>
    </g>
    <g id="ytick_28">
     <g id="line2d_69">
      <g>
       <use xlink:href="#m9aa39851ef" x="114.8" y="101.683524" style="stroke: #000000; stroke-width: 0.6"/>
      </g>
     </g>
    </g>
    <g id="ytick_29">
     <g id="line2d_70">
      <g>
       <use xlink:href="#m9aa39851ef" x="114.8" y="83.226252" style="stroke: #000000; stroke-width: 0.6"/>
      </g>
     </g>
    </g>
    <g id="ytick_30">
     <g id="line2d_71">
      <g>
       <use xlink:href="#m9aa39851ef" x="114.8" y="73.997616" style="stroke: #000000; stroke-width: 0.6"/>
      </g>
     </g>
    </g>
    <g id="ytick_31">
     <g id="line2d_72">
      <g>
       <use xlink:href="#m9aa39851ef" x="114.8" y="64.76898" style="stroke: #000000; stroke-width: 0.6"/>
      </g>
     </g>
    </g>
    <g id="ytick_32">
     <g id="line2d_73">
      <g>
       <use xlink:href="#m9aa39851ef" x="114.8" y="55.540344" style="stroke: #000000; stroke-width: 0.6"/>
      </g>
     </g>
    </g>
    <g id="ytick_33">
     <g id="line2d_74">
      <g>
       <use xlink:href="#m9aa39851ef" x="114.8" y="37.083072" style="stroke: #000000; stroke-width: 0.6"/>
      </g>
     </g>
    </g>
    <g id="text_18">
     <!-- $x(t)$ -->
     <g transform="translate(101.12 19.2)scale(0.16 -0.16)">
      <defs>
       <path id="Cmmi10-78" d="M 500 184 
Q 613 97 819 97 
Q 1019 97 1172 289 
Q 1325 481 1381 709 
L 1672 1844 
Q 1741 2153 1741 2266 
Q 1741 2425 1652 2544 
Q 1563 2663 1403 2663 
Q 1200 2663 1022 2536 
Q 844 2409 722 2214 
Q 600 2019 550 1819 
Q 538 1778 500 1778 
L 422 1778 
Q 372 1778 372 1838 
L 372 1856 
Q 434 2094 584 2320 
Q 734 2547 951 2687 
Q 1169 2828 1416 2828 
Q 1650 2828 1839 2703 
Q 2028 2578 2106 2363 
Q 2216 2559 2386 2693 
Q 2556 2828 2759 2828 
Q 2897 2828 3040 2779 
Q 3184 2731 3275 2631 
Q 3366 2531 3366 2381 
Q 3366 2219 3261 2101 
Q 3156 1984 2994 1984 
Q 2891 1984 2822 2050 
Q 2753 2116 2753 2216 
Q 2753 2350 2845 2451 
Q 2938 2553 3066 2572 
Q 2950 2663 2747 2663 
Q 2541 2663 2389 2472 
Q 2238 2281 2175 2047 
L 1894 916 
Q 1825 659 1825 494 
Q 1825 331 1917 214 
Q 2009 97 2163 97 
Q 2463 97 2698 361 
Q 2934 625 3009 941 
Q 3022 978 3059 978 
L 3138 978 
Q 3163 978 3178 961 
Q 3194 944 3194 922 
Q 3194 916 3188 903 
Q 3097 522 2806 225 
Q 2516 -72 2150 -72 
Q 1916 -72 1727 54 
Q 1538 181 1459 397 
Q 1359 209 1182 68 
Q 1006 -72 806 -72 
Q 669 -72 523 -23 
Q 378 25 287 125 
Q 197 225 197 378 
Q 197 528 301 651 
Q 406 775 563 775 
Q 669 775 741 711 
Q 813 647 813 544 
Q 813 409 723 309 
Q 634 209 500 184 
z
" transform="scale(0.015625)"/>
       <path id="Cmr10-28" d="M 1984 -1588 
Q 1628 -1306 1370 -942 
Q 1113 -578 948 -165 
Q 784 247 703 697 
Q 622 1147 622 1600 
Q 622 2059 703 2509 
Q 784 2959 951 3375 
Q 1119 3791 1378 4153 
Q 1638 4516 1984 4788 
Q 1984 4800 2016 4800 
L 2075 4800 
Q 2094 4800 2109 4783 
Q 2125 4766 2125 4744 
Q 2125 4716 2113 4703 
Q 1800 4397 1592 4047 
Q 1384 3697 1257 3301 
Q 1131 2906 1075 2482 
Q 1019 2059 1019 1600 
Q 1019 -434 2106 -1491 
Q 2125 -1509 2125 -1544 
Q 2125 -1559 2108 -1579 
Q 2091 -1600 2075 -1600 
L 2016 -1600 
Q 1984 -1600 1984 -1588 
z
" transform="scale(0.015625)"/>
       <path id="Cmr10-29" d="M 416 -1600 
Q 359 -1600 359 -1544 
Q 359 -1516 372 -1503 
Q 1466 -434 1466 1600 
Q 1466 3634 384 4691 
Q 359 4706 359 4744 
Q 359 4766 376 4783 
Q 394 4800 416 4800 
L 475 4800 
Q 494 4800 506 4788 
Q 966 4425 1272 3906 
Q 1578 3388 1720 2800 
Q 1863 2213 1863 1600 
Q 1863 1147 1786 708 
Q 1709 269 1542 -157 
Q 1375 -584 1119 -945 
Q 863 -1306 506 -1588 
Q 494 -1600 475 -1600 
L 416 -1600 
z
" transform="scale(0.015625)"/>
      </defs>
      <use xlink:href="#Cmmi10-78"/>
      <use xlink:href="#Cmr10-28" transform="translate(57.080078 0)"/>
      <use xlink:href="#Cmmi10-74" transform="translate(95.898438 0)"/>
      <use xlink:href="#Cmr10-29" transform="translate(131.982422 0)"/>
     </g>
    </g>
   </g>
   <g id="line2d_75">
    <path d="M 114.8 184.741247 
L 115.241782 183.019246 
L 116.234208 174.400486 
L 116.50953 174.115553 
L 116.784851 175.833522 
L 117.060173 179.696982 
L 117.335495 185.464884 
L 118.379872 210.470783 
L 118.626739 212.809089 
L 118.873607 212.378106 
L 119.120474 208.892382 
L 119.614208 193.301181 
L 120.845329 142.254147 
L 121.009371 139.578904 
L 121.173414 138.780872 
L 121.329867 139.889393 
L 121.642774 147.664363 
L 122.112134 171.469653 
L 123.191273 238.527704 
L 123.574389 247.661361 
L 123.765947 246.945072 
L 123.957506 242.498854 
L 124.284204 226.769855 
L 124.610903 202.728423 
L 125.590999 122.032515 
L 125.917698 108.026204 
L 126.081048 105.565995 
L 126.244397 106.428228 
L 126.407746 110.660753 
L 126.689939 125.548778 
L 127.046469 155.76022 
L 128.146155 263.400028 
L 128.494996 277.919654 
L 128.635732 278.936982 
L 128.776468 277.000977 
L 129.057941 264.410165 
L 129.48015 226.670917 
L 130.60604 97.623245 
L 130.952894 79.119306 
L 131.126321 77.049144 
L 131.299748 80.084403 
L 131.646601 100.974214 
L 131.993455 138.43012 
L 133.024101 273.920894 
L 133.367649 298.861748 
L 133.525059 303.598334 
L 133.682469 303.729811 
L 133.839879 299.198206 
L 134.154699 276.830272 
L 134.626929 217.069362 
L 135.57139 83.264216 
L 135.88621 60.255414 
L 136.030029 55.925054 
L 136.173848 55.767817 
L 136.317668 59.821918 
L 136.605306 80.027368 
L 137.036764 135.165291 
L 138.058033 290.917416 
L 138.461345 319.757497 
L 138.590053 322.01591 
L 138.718761 320.699458 
L 138.976177 307.501357 
L 139.362301 264.280709 
L 140.857209 48.697059 
L 141.055193 42.021552 
L 141.143359 41.860185 
L 141.319692 46.772639 
L 141.58419 66.675976 
L 141.936854 112.95104 
L 143.259346 317.454161 
L 143.523845 330.421595 
L 143.612011 331.235055 
L 143.700177 330.255816 
L 143.876509 322.981506 
L 144.228946 288.83732 
L 144.726847 208.548377 
L 145.623069 63.665776 
L 145.99328 38.627812 
L 146.083491 37.15649 
L 146.173701 37.575645 
L 146.354122 44.039478 
L 146.624753 66.999229 
L 147.166014 149.04566 
L 148.05113 296.65393 
L 148.405176 326.450802 
L 148.582199 331.152308 
L 148.670711 330.801708 
L 148.847734 324.729524 
L 149.113268 302.948961 
L 149.644337 224.569579 
L 150.475501 84.934223 
L 150.92168 45.691709 
L 151.113107 41.715715 
L 151.20882 42.816874 
L 151.400247 51.092773 
L 151.687387 77.508644 
L 152.165954 149.0176 
L 153.04295 288.443928 
L 153.335281 313.926477 
L 153.627613 322.014263 
L 153.773779 319.163572 
L 154.066111 300.281487 
L 154.504609 245.1191 
L 155.603308 80.863953 
L 155.932918 58.509448 
L 156.152658 55.502802 
L 156.3504 61.15024 
L 156.614015 80.167565 
L 156.965502 122.041185 
L 158.148456 284.589635 
L 158.48661 302.836533 
L 158.575691 304.145141 
L 158.664771 303.956191 
L 158.842932 299.152265 
L 159.199254 273.315483 
L 159.733737 206.247047 
L 160.446381 112.771694 
L 160.802703 84.879985 
L 160.980864 78.381745 
L 161.159025 77.258085 
L 161.329939 81.203766 
L 161.671768 102.598515 
L 161.842682 118.920188 
L 163.150443 263.834934 
L 163.507105 278.283084 
L 163.625992 278.932565 
L 163.74488 277.484236 
L 163.935342 270.964444 
L 164.316267 244.523692 
L 165.699189 115.38109 
L 166.022146 105.812133 
L 166.129798 105.536552 
L 166.267546 107.289942 
L 166.54304 117.42095 
L 166.956282 145.777198 
L 168.058261 233.935016 
L 168.333755 244.656766 
L 168.58165 247.836112 
L 168.705597 247.096101 
L 168.829544 244.867352 
L 169.077438 236.350548 
L 169.325332 223.400325 
L 170.497815 150.649921 
L 170.859626 140.280635 
L 171.040532 138.785099 
L 171.221437 139.731508 
L 171.583248 148.122519 
L 171.764154 154.888593 
L 172.784965 200.234581 
L 173.063664 208.191429 
L 173.342363 212.368204 
L 173.621062 212.66067 
L 173.899761 209.502796 
L 175.014556 182.475326 
L 175.423158 175.928411 
L 175.83176 174.017532 
L 176.348567 177.037274 
L 176.865374 182.132396 
L 177.382181 184.729839 
L 177.898987 182.713696 
L 178.845648 174.425051 
L 179.318979 175.0883 
L 179.555644 177.730153 
L 179.792309 181.900251 
L 180.868976 208.342299 
L 181.227865 212.736216 
L 181.496115 212.335949 
L 181.764366 208.331726 
L 183.47492 141.991332 
L 183.675244 139.138963 
L 183.875567 139.151683 
L 184.07589 142.202727 
L 184.476537 157.089526 
L 185.077508 194.837556 
L 185.780512 237.368799 
L 186.061714 246.068409 
L 186.202314 247.718921 
L 186.342915 247.405036 
L 186.483516 245.078872 
L 186.764718 234.524017 
L 187.045919 216.9757 
L 188.398447 112.496835 
L 188.702993 105.543728 
L 188.854493 106.320071 
L 189.005992 109.997731 
L 189.308991 125.674033 
L 189.763489 165.846211 
L 190.672486 257.118879 
L 191.077339 277.218212 
L 191.281046 278.787475 
L 191.3829 277.25437 
L 191.567981 270.536077 
L 191.938145 243.149325 
L 192.123227 223.790636 
L 193.218641 97.986679 
L 193.573727 79.02506 
L 193.692089 77.134223 
L 193.810452 77.613226 
L 194.047176 85.689603 
L 194.402262 114.244942 
L 194.757348 157.728204 
L 195.783211 286.463161 
L 196.076315 302.164111 
L 196.222867 304.248893 
L 196.369418 302.294663 
L 196.662522 286.503034 
L 197.102178 237.486116 
L 198.273834 75.336608 
L 198.619953 56.429679 
L 198.706483 55.349583 
L 198.793012 55.79452 
L 198.966072 61.249079 
L 199.31219 89.33737 
L 199.831369 163.438439 
L 200.753084 298.848916 
L 201.095152 320.247259 
L 201.266187 321.858251 
L 201.437221 317.159794 
L 201.608255 306.327252 
L 201.950324 268.371194 
L 203.489632 47.881398 
L 203.745846 41.76521 
L 203.873953 44.223269 
L 204.131519 60.032635 
L 204.519894 107.672677 
L 205.943937 322.213188 
L 206.191695 331.107638 
L 206.309996 330.406969 
L 206.546597 319.457995 
L 206.901498 281.414739 
L 207.019798 264.014795 
L 208.241047 63.586145 
L 208.515893 42.181073 
L 208.653316 37.694533 
L 208.790739 37.572801 
L 208.928162 41.819516 
L 209.181268 60.558755 
L 209.528316 105.83873 
L 210.800826 310.781044 
L 211.06598 328.270705 
L 211.215452 331.222855 
L 211.364923 329.032379 
L 211.663866 309.749826 
L 212.11228 249.979 
L 213.239279 67.804981 
L 213.614945 43.129837 
L 213.740167 41.733904 
L 213.865389 43.86372 
L 214.115833 58.358609 
L 214.44607 95.781947 
L 216.002695 316.60748 
L 216.229062 322.047199 
L 216.342245 320.622281 
L 216.533088 312.091958 
L 216.72393 296.380075 
L 217.105616 247.580044 
L 218.250672 77.991727 
L 218.536936 59.002483 
L 218.727778 55.316227 
L 218.8232 56.255936 
L 219.014042 63.585296 
L 219.204885 77.724706 
L 219.707388 140.047964 
L 220.642369 273.099064 
L 220.947625 296.957741 
L 221.100253 302.752595 
L 221.252881 304.182342 
L 221.40551 301.242317 
L 221.710766 283.031191 
L 222.183008 229.588608 
L 223.141849 105.10393 
L 223.457635 83.064218 
L 223.615528 78.032902 
L 223.773422 77.233738 
L 223.931315 80.63629 
L 224.247101 99.108631 
L 224.720781 148.772388 
L 225.66814 256.659984 
L 226.044458 276.658984 
L 226.169897 278.781969 
L 226.295336 278.553282 
L 226.546214 271.2615 
L 226.905175 246.999667 
L 228.423062 110.793138 
L 228.687335 105.508657 
L 228.834847 106.385858 
L 229.129871 115.902854 
L 229.424896 134.154057 
L 230.841945 241.289279 
L 231.131108 247.588928 
L 231.259982 247.661843 
L 231.388855 246.088887 
L 231.517729 242.956039 
L 232.033223 217.842351 
L 233.064212 152.846964 
L 233.319029 143.620712 
L 233.573847 139.169056 
L 233.828665 139.617921 
L 234.083483 144.565014 
L 234.593119 164.211332 
L 235.425136 201.019734 
L 235.954969 212.331114 
L 236.16242 212.949997 
L 236.369871 211.555259 
L 236.577323 208.442429 
L 237.706151 180.964827 
L 238.005175 176.313326 
L 238.304198 174.171216 
L 238.603222 174.413039 
L 239.726663 183.882712 
L 240.288384 184.152184 
L 241.326859 175.185611 
L 241.803613 174.30724 
L 242.249716 178.92562 
L 243.880245 212.879968 
L 244.172464 211.767507 
L 244.464683 206.361138 
L 244.756902 196.946999 
L 245.991689 144.395361 
L 246.197487 140.152041 
L 246.403285 138.776319 
L 246.556851 139.794082 
L 246.863983 147.189617 
L 247.324682 170.108138 
L 248.399646 237.44966 
L 248.706778 246.546788 
L 248.860344 247.833474 
L 249.007282 246.849877 
L 249.301157 238.332232 
L 249.741969 211.038972 
L 251.009202 112.760412 
L 251.252542 106.128009 
L 251.374211 105.487843 
L 251.495881 106.712635 
L 251.739221 114.736032 
L 251.98256 129.707165 
L 252.354617 163.159263 
L 253.32885 259.935542 
L 253.629939 275.45874 
L 253.780484 278.626698 
L 253.931028 278.463891 
L 254.081572 274.915622 
L 254.382661 258.058599 
L 254.834294 212.940625 
L 255.914597 92.188682 
L 256.248546 77.81209 
L 256.359862 77.046732 
L 256.471178 78.389557 
L 256.693811 87.339246 
L 256.916443 104.1255 
L 257.255349 141.922191 
L 258.371691 284.160226 
L 258.670568 301.476644 
L 258.869819 304.180286 
L 258.969445 302.733698 
L 259.183139 293.39876 
L 259.525345 262.27403 
L 259.98162 198.798017 
L 260.894169 75.069869 
L 261.231214 56.559914 
L 261.343563 55.316497 
L 261.455912 56.645681 
L 261.680609 66.927015 
L 262.017654 99.724723 
L 262.467048 166.479101 
L 263.265571 287.94084 
L 263.609867 316.29403 
L 263.839397 322.047007 
L 263.954162 320.676471 
L 264.183692 309.520024 
L 264.527988 273.725697 
L 265.065248 187.575385 
L 265.763017 77.659418 
L 266.084034 49.125001 
L 266.244543 42.779746 
L 266.405052 42.164554 
L 266.565561 47.328165 
L 266.886578 74.014984 
L 267.368105 145.670701 
L 268.338156 302.921395 
L 268.673171 327.946226 
L 268.840679 331.23662 
L 268.924432 330.460627 
L 269.09194 324.100801 
L 269.343201 303.176061 
L 269.836881 230.831664 
L 270.815399 68.300459 
L 271.131874 42.24136 
L 271.342858 37.083077 
L 271.44835 38.370739 
L 271.659334 48.566622 
L 271.958541 78.990098 
L 272.257748 124.121071 
L 273.304972 298.926108 
L 273.604179 324.656591 
L 273.753782 330.303687 
L 273.903386 330.826516 
L 274.13548 321.534209 
L 274.382953 299.018386 
L 274.712917 252.681243 
L 275.886187 64.806566 
L 276.146913 46.08934 
L 276.277277 42.220343 
L 276.40764 42.166628 
L 276.538003 45.91691 
L 276.79873 64.27703 
L 277.299416 132.003176 
L 278.361485 297.407595 
L 278.702874 319.877338 
L 278.81667 321.963494 
L 278.930466 321.249928 
L 279.158058 311.589002 
L 279.499447 278.571597 
L 279.954632 210.620745 
L 280.800449 84.632085 
L 281.082388 62.289284 
L 281.246607 56.291408 
L 281.410826 55.766699 
L 281.575045 60.688422 
L 281.903484 85.620029 
L 282.396141 150.839387 
L 283.217237 268.624645 
L 283.545676 295.927643 
L 283.709895 302.566967 
L 283.874894 304.156107 
L 284.039893 300.643957 
L 284.369891 279.369339 
L 284.699889 242.794907 
L 285.79523 101.83371 
L 286.185835 79.089066 
L 286.321325 77.061522 
L 286.456815 78.155749 
L 286.727795 89.337285 
L 287.134264 125.026519 
L 288.381228 263.593319 
L 288.707317 277.703569 
L 288.870362 278.891395 
L 289.033407 276.14659 
L 289.359496 259.780617 
L 289.729524 227.49592 
L 290.808754 122.444066 
L 291.152463 107.474725 
L 291.381603 105.628512 
L 291.496172 107.168945 
L 291.725312 114.872234 
L 292.18359 145.190649 
L 293.218047 229.8216 
L 293.513606 243.118218 
L 293.809166 247.832187 
L 293.956945 246.878201 
L 294.252504 238.844061 
L 294.548063 224.091738 
L 295.613423 156.04325 
L 296.06094 140.825218 
L 296.284699 138.774924 
L 296.508457 140.441952 
L 296.732216 145.451307 
L 296.955975 153.174486 
L 298.098146 202.836505 
L 298.561248 212.23892 
L 298.792799 212.918918 
L 299.02435 211.112321 
L 299.255901 207.249997 
L 300.452562 178.661226 
L 300.822394 174.599886 
L 301.192226 174.301401 
L 301.562058 176.840587 
L 302.234824 183.199277 
L 302.571208 184.681178 
L 302.907591 184.143119 
L 304.126369 174.248107 
L 304.532629 174.932771 
L 304.904457 179.566376 
L 305.276285 187.646346 
L 306.282702 211.158672 
L 306.545462 212.983498 
L 306.808223 211.5527 
L 307.070983 206.63933 
L 307.596503 187.67378 
L 308.586791 145.004215 
L 308.819174 140.090439 
L 309.051557 138.837998 
L 309.283941 141.625706 
L 309.516324 148.475294 
L 309.981091 172.556445 
L 311.088779 240.294173 
L 311.310317 246.320746 
L 311.531854 247.725888 
L 311.753392 244.176023 
L 312.092796 229.383135 
L 312.432199 205.225759 
L 313.35109 127.82541 
L 313.831256 106.712337 
L 313.951297 105.494468 
L 314.071339 106.080636 
L 314.311422 112.703341 
L 314.551505 126.231262 
L 315.031671 169.363174 
L 315.97752 262.076544 
L 316.282108 276.483627 
L 316.434402 278.898122 
L 316.586697 277.879124 
L 316.738991 273.401578 
L 317.043579 254.61477 
L 317.527971 203.720199 
L 318.358215 106.031984 
L 318.690312 83.195482 
L 318.856361 77.972565 
L 319.02241 77.338343 
L 319.188459 81.392604 
L 319.520557 102.937746 
L 319.852654 139.380996 
L 321.024229 286.971292 
L 321.317123 302.337233 
L 321.414754 304.057117 
L 321.53473 303.721621 
L 321.774684 294.959168 
L 322.134614 263.195093 
L 322.374567 232.187149 
L 323.508034 75.35838 
L 323.7914 58.164844 
L 323.885856 55.861565 
L 324.016932 55.658605 
L 324.148008 58.956708 
L 324.41016 75.701775 
L 324.803389 122.479703 
L 326.081405 306.992995 
L 326.3764 321.313616 
L 326.474731 322.020152 
L 326.573063 320.635425 
L 326.769725 311.676706 
L 327.037441 287.125305 
L 327.572872 206.744474 
L 328.376019 78.160805 
L 328.777592 45.405406 
L 328.91145 41.970099 
L 329.0315 42.305443 
L 329.271599 52.609768 
L 329.631749 90.008111 
L 329.871848 126.36473 
L 330.972401 304.739215 
L 331.339252 329.568521 
L 331.490214 331.128963 
L 331.641175 327.446137 
L 331.943098 305.026922 
L 332.395983 240.882382 
L 333.452713 66.048928 
L 333.842562 38.69259 
L 333.930488 37.186401 
L 334.018414 37.475896 
L 334.194266 43.40581 
L 334.458045 64.974817 
L 334.985601 143.313942 
L 335.971948 304.441614 
L 336.332168 329.32554 
L 336.422223 331.063775 
L 336.512278 330.933142 
L 336.602333 328.937441 
L 336.880359 311.436357 
L 337.297398 257.9298 
L 338.548983 60.532483 
L 338.787425 45.121143 
L 338.906645 42.053625 
L 339.025866 42.180996 
L 339.145087 45.490646 
L 339.383529 61.251007 
L 339.742896 104.740348 
L 341.198275 314.576538 
L 341.350501 320.708042 
L 341.502727 321.866003 
L 341.654952 318.037891 
L 341.959404 296.278261 
L 342.416081 235.854046 
L 343.374701 89.253017 
L 343.724418 61.038005 
L 343.914064 55.546521 
L 344.008887 55.544576 
L 344.198533 60.981126 
L 344.483002 81.832141 
L 344.862294 128.418727 
L 345.810523 265.984047 
L 346.189815 297.354586 
L 346.379461 303.627479 
L 346.474284 304.231972 
L 346.569107 303.14435 
L 346.758753 296.024672 
L 347.042838 274.114144 
L 347.326923 241.536885 
L 348.478507 96.332086 
L 348.770214 80.050468 
L 348.916068 77.181347 
L 349.061921 77.931944 
L 349.325408 88.148043 
L 349.720637 121.692809 
L 351.169812 272.913183 
L 351.389281 278.651412 
L 351.499016 278.825853 
L 351.60875 277.219183 
L 351.828219 268.911471 
L 352.267158 235.346278 
L 353.433529 121.967646 
L 353.807546 106.711416 
L 353.932218 105.48118 
L 354.05689 106.208119 
L 354.306234 113.26438 
L 354.555578 126.900173 
L 355.303611 189.484478 
L 355.948946 235.88906 
L 356.164057 244.090024 
L 356.379169 247.675989 
L 356.59428 246.583012 
L 356.809392 241.096871 
L 357.255193 218.628064 
L 358.408641 148.310193 
L 358.639331 141.569933 
L 358.870021 138.834902 
L 359.110728 140.220656 
L 359.351436 145.509236 
L 359.832852 164.456897 
L 360.852673 206.716496 
L 361.192613 212.356848 
L 361.532553 212.249858 
L 361.872494 207.262866 
L 362.90914 181.588358 
L 363.265906 176.022685 
L 363.622672 174.016155 
L 363.979437 175.2056 
L 364.770951 182.584345 
L 365.080536 184.414603 
L 365.390121 184.605245 
L 366.00929 180.349851 
L 366.62846 174.768043 
L 366.938044 174.040001 
L 367.247629 175.771789 
L 367.618249 181.379254 
L 368.73011 208.517668 
L 369.102147 212.835158 
L 369.288166 212.73011 
L 369.474184 210.904263 
L 369.699354 206.355507 
L 369.924524 199.413363 
L 371.275545 143.13744 
L 371.515147 139.230034 
L 371.754748 139.389104 
L 371.99435 143.896017 
L 372.473552 164.979996 
L 373.748232 241.771968 
L 373.933524 246.4217 
L 374.118815 247.822647 
L 374.304107 245.766645 
L 374.67469 231.411691 
L 375.036743 206.25529 
L 376.116756 118.80994 
L 376.40394 107.612021 
L 376.547532 105.578499 
L 376.691124 106.112993 
L 376.834716 109.255484 
L 377.1219 123.089225 
L 377.409084 145.676567 
L 378.724602 269.684705 
L 378.981685 278.209298 
L 379.110227 278.91664 
L 379.238768 277.158091 
L 379.495852 266.34364 
L 379.89377 232.65098 
L 381.342329 81.733091 
L 381.505794 77.484893 
L 381.66926 77.718363 
L 381.832725 82.492435 
L 382.159657 104.932018 
L 382.650053 163.363039 
L 383.53708 278.125203 
L 383.832756 298.692165 
L 384.100267 304.199254 
L 384.234022 301.928243 
L 384.501533 287.497642 
L 384.9028 244.405759 
L 386.119356 75.869749 
L 386.41238 58.039354 
L 386.558892 55.346942 
L 386.705404 57.018874 
L 386.998428 73.219457 
L 387.337234 110.782065 
L 388.806079 314.262215 
L 389.051651 321.983107 
L 389.174437 320.999886 
L 389.420009 309.384964 
L 389.788367 270.241503 
L 390.156726 212.50145 
L 390.991845 78.327669 
L 391.421814 44.392941 
L 391.593801 41.748964 
L 391.679795 42.920779 
L 391.851782 50.201714 
L 392.02377 63.773701 
L 392.369821 107.405984 
L 393.742124 318.512573 
L 393.992737 330.421337 
L 394.076274 331.236923 
L 394.159812 330.442999 
L 394.326887 324.072706 
L 394.5775 303.192735 
L 395.051996 234.205831 
L 395.974259 77.423175 
L 396.28168 47.147614 
L 396.589101 37.098679 
L 396.742812 40.250128 
L 397.050233 62.32076 
L 397.46816 120.091008 
L 398.64873 310.425244 
L 398.93967 329.026667 
L 399.03665 331.037841 
L 399.13363 330.882358 
L 399.32759 324.123458 
L 399.61853 298.889317 
L 399.976137 247.977641 
L 401.121672 64.705285 
L 401.393638 45.564182 
L 401.529621 41.986268 
L 401.665604 42.563793 
L 401.801587 47.265423 
L 402.073553 68.31859 
L 402.481502 123.476644 
L 403.478429 284.545732 
L 403.840485 315.918008 
L 404.021513 321.689938 
L 404.112027 321.929422 
L 404.293056 317.131376 
L 404.564598 297.466796 
L 405.066752 230.553846 
L 406.030129 85.130619 
L 406.429035 57.60445 
L 406.562003 55.344922 
L 406.694972 56.68874 
L 406.960909 69.833018 
L 407.385147 115.288126 
L 408.584964 281.80148 
L 408.910974 301.622023 
L 409.073979 304.248129 
L 409.236984 301.878461 
L 409.562994 282.984851 
L 410.052009 227.24159 
L 411.027328 102.041246 
L 411.347916 81.447933 
L 411.50821 77.41682 
L 411.668504 77.755649 
L 411.828798 82.385717 
L 412.149387 103.351496 
L 412.69508 164.051934 
L 413.513621 256.17186 
L 413.922892 277.309083 
L 414.059315 278.959767 
L 414.195739 277.837188 
L 414.332162 274.019563 
L 414.65891 255.001605 
L 414.985657 225.294342 
L 416.06711 120.956758 
L 416.453884 106.247814 
L 416.575945 105.473065 
L 416.698006 106.56701 
L 416.942127 114.073795 
L 417.430369 146.204117 
L 418.492094 232.062721 
L 418.821456 245.116982 
L 418.986136 247.612104 
L 419.150817 247.354859 
L 419.315498 244.449142 
L 419.65627 231.073302 
L 420.184544 197.709039 
L 420.88891 154.080616 
L 421.208756 142.643519 
L 421.528602 138.771794 
L 421.688525 139.710343 
L 421.848448 142.421422 
L 422.168295 152.311511 
L 423.447679 206.148037 
L 423.828381 212.496169 
L 424.018732 212.939977 
L 424.209082 211.691173 
L 424.589784 205.103572 
L 425.75272 177.657868 
L 426.143837 174.208892 
L 426.534954 174.815853 
L 427.548337 183.71247 
L 427.886132 184.741247 
L 427.886132 184.741247 
" clip-path="url(#pa62e9cb36d)" style="fill: none; stroke: #0000ff; stroke-linecap: square"/>
   </g>
   <g id="patch_3">
    <path d="M 114.8 337.12 
L 114.8 31.2 
" style="fill: none; stroke: #000000; stroke-width: 0.8; stroke-linejoin: miter; stroke-linecap: square"/>
   </g>
   <g id="patch_4">
    <path d="M 108.538277 184.741247 
L 434.147854 184.741247 
" style="fill: none; stroke: #000000; stroke-width: 0.8; stroke-linejoin: miter; stroke-linecap: square"/>
   </g>
  </g>
 </g>
 <defs>
  <clipPath id="pa62e9cb36d">
   <rect x="108.538277" y="31.2" width="325.609577" height="305.92"/>
  </clipPath>
 </defs>
</svg>
