<?xml version="1.0" encoding="utf-8" standalone="no"?>
<!DOCTYPE svg PUBLIC "-//W3C//DTD SVG 1.1//EN"
  "http://www.w3.org/Graphics/SVG/1.1/DTD/svg11.dtd">
<svg xmlns:xlink="http://www.w3.org/1999/xlink" width="455.621487pt" height="338.86802pt" viewBox="0 0 455.621487 338.86802" xmlns="http://www.w3.org/2000/svg" version="1.1">
 <metadata>
  <rdf:RDF xmlns:dc="http://purl.org/dc/elements/1.1/" xmlns:cc="http://creativecommons.org/ns#" xmlns:rdf="http://www.w3.org/1999/02/22-rdf-syntax-ns#">
   <cc:Work>
    <dc:type rdf:resource="http://purl.org/dc/dcmitype/StillImage"/>
    <dc:date>2023-04-11T10:18:35.715919</dc:date>
    <dc:format>image/svg+xml</dc:format>
    <dc:creator>
     <cc:Agent>
      <dc:title>Matplotlib v3.5.1, https://matplotlib.org/</dc:title>
     </cc:Agent>
    </dc:creator>
   </cc:Work>
  </rdf:RDF>
 </metadata>
 <defs>
  <style type="text/css">*{stroke-linejoin: round; stroke-linecap: butt}</style>
 </defs>
 <g id="figure_1">
  <g id="patch_1">
   <path d="M 0 338.86802 
L 455.621487 338.86802 
L 455.621487 0 
L 0 0 
z
" style="fill: #ffffff"/>
  </g>
  <g id="axes_1">
   <g id="patch_2">
    <path d="M 35.691294 325.266357 
L 433.391487 325.266357 
L 433.391487 7.2 
L 35.691294 7.2 
z
" style="fill: #ffffff"/>
   </g>
   <g id="matplotlib.axis_1">
    <g id="xtick_1">
     <g id="line2d_1">
      <defs>
       <path id="m165bb44b0f" d="M 0 0 
L 0 3.5 
" style="stroke: #000000; stroke-width: 0.8"/>
      </defs>
      <g>
       <use xlink:href="#m165bb44b0f" x="43.339375" y="213.255253" style="stroke: #000000; stroke-width: 0.8"/>
      </g>
     </g>
    </g>
    <g id="xtick_2">
     <g id="line2d_2">
      <g>
       <use xlink:href="#m165bb44b0f" x="119.820181" y="213.255253" style="stroke: #000000; stroke-width: 0.8"/>
      </g>
     </g>
     <g id="text_1">
      <!-- 2 -->
      <g transform="translate(116.002681 229.373378)scale(0.12 -0.12)">
       <defs>
        <path id="DejaVuSans-32" d="M 1228 531 
L 3431 531 
L 3431 0 
L 469 0 
L 469 531 
Q 828 903 1448 1529 
Q 2069 2156 2228 2338 
Q 2531 2678 2651 2914 
Q 2772 3150 2772 3378 
Q 2772 3750 2511 3984 
Q 2250 4219 1831 4219 
Q 1534 4219 1204 4116 
Q 875 4013 500 3803 
L 500 4441 
Q 881 4594 1212 4672 
Q 1544 4750 1819 4750 
Q 2544 4750 2975 4387 
Q 3406 4025 3406 3419 
Q 3406 3131 3298 2873 
Q 3191 2616 2906 2266 
Q 2828 2175 2409 1742 
Q 1991 1309 1228 531 
z
" transform="scale(0.015625)"/>
       </defs>
       <use xlink:href="#DejaVuSans-32"/>
      </g>
     </g>
    </g>
    <g id="xtick_3">
     <g id="line2d_3">
      <g>
       <use xlink:href="#m165bb44b0f" x="196.300987" y="213.255253" style="stroke: #000000; stroke-width: 0.8"/>
      </g>
     </g>
     <g id="text_2">
      <!-- 4 -->
      <g transform="translate(192.483487 229.373378)scale(0.12 -0.12)">
       <defs>
        <path id="DejaVuSans-34" d="M 2419 4116 
L 825 1625 
L 2419 1625 
L 2419 4116 
z
M 2253 4666 
L 3047 4666 
L 3047 1625 
L 3713 1625 
L 3713 1100 
L 3047 1100 
L 3047 0 
L 2419 0 
L 2419 1100 
L 313 1100 
L 313 1709 
L 2253 4666 
z
" transform="scale(0.015625)"/>
       </defs>
       <use xlink:href="#DejaVuSans-34"/>
      </g>
     </g>
    </g>
    <g id="xtick_4">
     <g id="line2d_4">
      <g>
       <use xlink:href="#m165bb44b0f" x="272.781794" y="213.255253" style="stroke: #000000; stroke-width: 0.8"/>
      </g>
     </g>
     <g id="text_3">
      <!-- 6 -->
      <g transform="translate(268.964294 229.373378)scale(0.12 -0.12)">
       <defs>
        <path id="DejaVuSans-36" d="M 2113 2584 
Q 1688 2584 1439 2293 
Q 1191 2003 1191 1497 
Q 1191 994 1439 701 
Q 1688 409 2113 409 
Q 2538 409 2786 701 
Q 3034 994 3034 1497 
Q 3034 2003 2786 2293 
Q 2538 2584 2113 2584 
z
M 3366 4563 
L 3366 3988 
Q 3128 4100 2886 4159 
Q 2644 4219 2406 4219 
Q 1781 4219 1451 3797 
Q 1122 3375 1075 2522 
Q 1259 2794 1537 2939 
Q 1816 3084 2150 3084 
Q 2853 3084 3261 2657 
Q 3669 2231 3669 1497 
Q 3669 778 3244 343 
Q 2819 -91 2113 -91 
Q 1303 -91 875 529 
Q 447 1150 447 2328 
Q 447 3434 972 4092 
Q 1497 4750 2381 4750 
Q 2619 4750 2861 4703 
Q 3103 4656 3366 4563 
z
" transform="scale(0.015625)"/>
       </defs>
       <use xlink:href="#DejaVuSans-36"/>
      </g>
     </g>
    </g>
    <g id="xtick_5">
     <g id="line2d_5">
      <g>
       <use xlink:href="#m165bb44b0f" x="349.2626" y="213.255253" style="stroke: #000000; stroke-width: 0.8"/>
      </g>
     </g>
     <g id="text_4">
      <!-- 8 -->
      <g transform="translate(345.4451 229.373378)scale(0.12 -0.12)">
       <defs>
        <path id="DejaVuSans-38" d="M 2034 2216 
Q 1584 2216 1326 1975 
Q 1069 1734 1069 1313 
Q 1069 891 1326 650 
Q 1584 409 2034 409 
Q 2484 409 2743 651 
Q 3003 894 3003 1313 
Q 3003 1734 2745 1975 
Q 2488 2216 2034 2216 
z
M 1403 2484 
Q 997 2584 770 2862 
Q 544 3141 544 3541 
Q 544 4100 942 4425 
Q 1341 4750 2034 4750 
Q 2731 4750 3128 4425 
Q 3525 4100 3525 3541 
Q 3525 3141 3298 2862 
Q 3072 2584 2669 2484 
Q 3125 2378 3379 2068 
Q 3634 1759 3634 1313 
Q 3634 634 3220 271 
Q 2806 -91 2034 -91 
Q 1263 -91 848 271 
Q 434 634 434 1313 
Q 434 1759 690 2068 
Q 947 2378 1403 2484 
z
M 1172 3481 
Q 1172 3119 1398 2916 
Q 1625 2713 2034 2713 
Q 2441 2713 2670 2916 
Q 2900 3119 2900 3481 
Q 2900 3844 2670 4047 
Q 2441 4250 2034 4250 
Q 1625 4250 1398 4047 
Q 1172 3844 1172 3481 
z
" transform="scale(0.015625)"/>
       </defs>
       <use xlink:href="#DejaVuSans-38"/>
      </g>
     </g>
    </g>
    <g id="xtick_6">
     <g id="line2d_6">
      <g>
       <use xlink:href="#m165bb44b0f" x="425.743406" y="213.255253" style="stroke: #000000; stroke-width: 0.8"/>
      </g>
     </g>
     <g id="text_5">
      <!-- 10 -->
      <g transform="translate(418.108406 229.373378)scale(0.12 -0.12)">
       <defs>
        <path id="DejaVuSans-31" d="M 794 531 
L 1825 531 
L 1825 4091 
L 703 3866 
L 703 4441 
L 1819 4666 
L 2450 4666 
L 2450 531 
L 3481 531 
L 3481 0 
L 794 0 
L 794 531 
z
" transform="scale(0.015625)"/>
        <path id="DejaVuSans-30" d="M 2034 4250 
Q 1547 4250 1301 3770 
Q 1056 3291 1056 2328 
Q 1056 1369 1301 889 
Q 1547 409 2034 409 
Q 2525 409 2770 889 
Q 3016 1369 3016 2328 
Q 3016 3291 2770 3770 
Q 2525 4250 2034 4250 
z
M 2034 4750 
Q 2819 4750 3233 4129 
Q 3647 3509 3647 2328 
Q 3647 1150 3233 529 
Q 2819 -91 2034 -91 
Q 1250 -91 836 529 
Q 422 1150 422 2328 
Q 422 3509 836 4129 
Q 1250 4750 2034 4750 
z
" transform="scale(0.015625)"/>
       </defs>
       <use xlink:href="#DejaVuSans-31"/>
       <use xlink:href="#DejaVuSans-30" x="63.623047"/>
      </g>
     </g>
    </g>
    <g id="xtick_7">
     <g id="line2d_7">
      <defs>
       <path id="m7449c9bca9" d="M 0 0 
L 0 2 
" style="stroke: #000000; stroke-width: 0.6"/>
      </defs>
      <g>
       <use xlink:href="#m7449c9bca9" x="62.459577" y="213.255253" style="stroke: #000000; stroke-width: 0.6"/>
      </g>
     </g>
    </g>
    <g id="xtick_8">
     <g id="line2d_8">
      <g>
       <use xlink:href="#m7449c9bca9" x="81.579778" y="213.255253" style="stroke: #000000; stroke-width: 0.6"/>
      </g>
     </g>
    </g>
    <g id="xtick_9">
     <g id="line2d_9">
      <g>
       <use xlink:href="#m7449c9bca9" x="100.69998" y="213.255253" style="stroke: #000000; stroke-width: 0.6"/>
      </g>
     </g>
    </g>
    <g id="xtick_10">
     <g id="line2d_10">
      <g>
       <use xlink:href="#m7449c9bca9" x="138.940383" y="213.255253" style="stroke: #000000; stroke-width: 0.6"/>
      </g>
     </g>
    </g>
    <g id="xtick_11">
     <g id="line2d_11">
      <g>
       <use xlink:href="#m7449c9bca9" x="158.060584" y="213.255253" style="stroke: #000000; stroke-width: 0.6"/>
      </g>
     </g>
    </g>
    <g id="xtick_12">
     <g id="line2d_12">
      <g>
       <use xlink:href="#m7449c9bca9" x="177.180786" y="213.255253" style="stroke: #000000; stroke-width: 0.6"/>
      </g>
     </g>
    </g>
    <g id="xtick_13">
     <g id="line2d_13">
      <g>
       <use xlink:href="#m7449c9bca9" x="215.421189" y="213.255253" style="stroke: #000000; stroke-width: 0.6"/>
      </g>
     </g>
    </g>
    <g id="xtick_14">
     <g id="line2d_14">
      <g>
       <use xlink:href="#m7449c9bca9" x="234.541391" y="213.255253" style="stroke: #000000; stroke-width: 0.6"/>
      </g>
     </g>
    </g>
    <g id="xtick_15">
     <g id="line2d_15">
      <g>
       <use xlink:href="#m7449c9bca9" x="253.661592" y="213.255253" style="stroke: #000000; stroke-width: 0.6"/>
      </g>
     </g>
    </g>
    <g id="xtick_16">
     <g id="line2d_16">
      <g>
       <use xlink:href="#m7449c9bca9" x="291.901995" y="213.255253" style="stroke: #000000; stroke-width: 0.6"/>
      </g>
     </g>
    </g>
    <g id="xtick_17">
     <g id="line2d_17">
      <g>
       <use xlink:href="#m7449c9bca9" x="311.022197" y="213.255253" style="stroke: #000000; stroke-width: 0.6"/>
      </g>
     </g>
    </g>
    <g id="xtick_18">
     <g id="line2d_18">
      <g>
       <use xlink:href="#m7449c9bca9" x="330.142398" y="213.255253" style="stroke: #000000; stroke-width: 0.6"/>
      </g>
     </g>
    </g>
    <g id="xtick_19">
     <g id="line2d_19">
      <g>
       <use xlink:href="#m7449c9bca9" x="368.382801" y="213.255253" style="stroke: #000000; stroke-width: 0.6"/>
      </g>
     </g>
    </g>
    <g id="xtick_20">
     <g id="line2d_20">
      <g>
       <use xlink:href="#m7449c9bca9" x="387.503003" y="213.255253" style="stroke: #000000; stroke-width: 0.6"/>
      </g>
     </g>
    </g>
    <g id="xtick_21">
     <g id="line2d_21">
      <g>
       <use xlink:href="#m7449c9bca9" x="406.623205" y="213.255253" style="stroke: #000000; stroke-width: 0.6"/>
      </g>
     </g>
    </g>
    <g id="text_6">
     <!-- $t$ -->
     <g transform="translate(441.391487 213.255253)scale(0.19 -0.19)">
      <defs>
       <path id="Cmmi10-74" d="M 397 519 
Q 397 613 416 697 
L 878 2534 
L 206 2534 
Q 141 2534 141 2619 
Q 166 2759 225 2759 
L 934 2759 
L 1191 3803 
Q 1216 3888 1291 3947 
Q 1366 4006 1459 4006 
Q 1541 4006 1595 3957 
Q 1650 3909 1650 3828 
Q 1650 3809 1648 3798 
Q 1647 3788 1644 3775 
L 1388 2759 
L 2047 2759 
Q 2113 2759 2113 2675 
Q 2109 2659 2100 2621 
Q 2091 2584 2075 2559 
Q 2059 2534 2028 2534 
L 1331 2534 
L 872 684 
Q 825 503 825 372 
Q 825 97 1013 97 
Q 1294 97 1511 361 
Q 1728 625 1844 941 
Q 1869 978 1894 978 
L 1972 978 
Q 1997 978 2012 961 
Q 2028 944 2028 922 
Q 2028 909 2022 903 
Q 1881 516 1612 222 
Q 1344 -72 997 -72 
Q 744 -72 570 93 
Q 397 259 397 519 
z
" transform="scale(0.015625)"/>
      </defs>
      <use xlink:href="#Cmmi10-74" transform="translate(0 0.40625)"/>
     </g>
    </g>
   </g>
   <g id="matplotlib.axis_2">
    <g id="ytick_1">
     <g id="line2d_22">
      <defs>
       <path id="mb3ff55d7e4" d="M 0 0 
L -3.5 0 
" style="stroke: #000000; stroke-width: 0.8"/>
      </defs>
      <g>
       <use xlink:href="#mb3ff55d7e4" x="43.339375" y="324.613332" style="stroke: #000000; stroke-width: 0.8"/>
      </g>
     </g>
     <g id="text_7">
      <!-- −1.5 -->
      <g transform="translate(7.2 329.172395)scale(0.12 -0.12)">
       <defs>
        <path id="DejaVuSans-2212" d="M 678 2272 
L 4684 2272 
L 4684 1741 
L 678 1741 
L 678 2272 
z
" transform="scale(0.015625)"/>
        <path id="DejaVuSans-2e" d="M 684 794 
L 1344 794 
L 1344 0 
L 684 0 
L 684 794 
z
" transform="scale(0.015625)"/>
        <path id="DejaVuSans-35" d="M 691 4666 
L 3169 4666 
L 3169 4134 
L 1269 4134 
L 1269 2991 
Q 1406 3038 1543 3061 
Q 1681 3084 1819 3084 
Q 2600 3084 3056 2656 
Q 3513 2228 3513 1497 
Q 3513 744 3044 326 
Q 2575 -91 1722 -91 
Q 1428 -91 1123 -41 
Q 819 9 494 109 
L 494 744 
Q 775 591 1075 516 
Q 1375 441 1709 441 
Q 2250 441 2565 725 
Q 2881 1009 2881 1497 
Q 2881 1984 2565 2268 
Q 2250 2553 1709 2553 
Q 1456 2553 1204 2497 
Q 953 2441 691 2322 
L 691 4666 
z
" transform="scale(0.015625)"/>
       </defs>
       <use xlink:href="#DejaVuSans-2212"/>
       <use xlink:href="#DejaVuSans-31" x="83.789062"/>
       <use xlink:href="#DejaVuSans-2e" x="147.412109"/>
       <use xlink:href="#DejaVuSans-35" x="179.199219"/>
      </g>
     </g>
    </g>
    <g id="ytick_2">
     <g id="line2d_23">
      <g>
       <use xlink:href="#mb3ff55d7e4" x="43.339375" y="287.493972" style="stroke: #000000; stroke-width: 0.8"/>
      </g>
     </g>
     <g id="text_8">
      <!-- −1.0 -->
      <g transform="translate(7.2 292.053035)scale(0.12 -0.12)">
       <use xlink:href="#DejaVuSans-2212"/>
       <use xlink:href="#DejaVuSans-31" x="83.789062"/>
       <use xlink:href="#DejaVuSans-2e" x="147.412109"/>
       <use xlink:href="#DejaVuSans-30" x="179.199219"/>
      </g>
     </g>
    </g>
    <g id="ytick_3">
     <g id="line2d_24">
      <g>
       <use xlink:href="#mb3ff55d7e4" x="43.339375" y="250.374613" style="stroke: #000000; stroke-width: 0.8"/>
      </g>
     </g>
     <g id="text_9">
      <!-- −0.5 -->
      <g transform="translate(7.2 254.933675)scale(0.12 -0.12)">
       <use xlink:href="#DejaVuSans-2212"/>
       <use xlink:href="#DejaVuSans-30" x="83.789062"/>
       <use xlink:href="#DejaVuSans-2e" x="147.412109"/>
       <use xlink:href="#DejaVuSans-35" x="179.199219"/>
      </g>
     </g>
    </g>
    <g id="ytick_4">
     <g id="line2d_25">
      <g>
       <use xlink:href="#mb3ff55d7e4" x="43.339375" y="213.255253" style="stroke: #000000; stroke-width: 0.8"/>
      </g>
     </g>
    </g>
    <g id="ytick_5">
     <g id="line2d_26">
      <g>
       <use xlink:href="#mb3ff55d7e4" x="43.339375" y="176.135893" style="stroke: #000000; stroke-width: 0.8"/>
      </g>
     </g>
     <g id="text_10">
      <!-- 0.5 -->
      <g transform="translate(17.255625 180.694955)scale(0.12 -0.12)">
       <use xlink:href="#DejaVuSans-30"/>
       <use xlink:href="#DejaVuSans-2e" x="63.623047"/>
       <use xlink:href="#DejaVuSans-35" x="95.410156"/>
      </g>
     </g>
    </g>
    <g id="ytick_6">
     <g id="line2d_27">
      <g>
       <use xlink:href="#mb3ff55d7e4" x="43.339375" y="139.016533" style="stroke: #000000; stroke-width: 0.8"/>
      </g>
     </g>
     <g id="text_11">
      <!-- 1.0 -->
      <g transform="translate(17.255625 143.575596)scale(0.12 -0.12)">
       <use xlink:href="#DejaVuSans-31"/>
       <use xlink:href="#DejaVuSans-2e" x="63.623047"/>
       <use xlink:href="#DejaVuSans-30" x="95.410156"/>
      </g>
     </g>
    </g>
    <g id="ytick_7">
     <g id="line2d_28">
      <g>
       <use xlink:href="#mb3ff55d7e4" x="43.339375" y="101.897173" style="stroke: #000000; stroke-width: 0.8"/>
      </g>
     </g>
     <g id="text_12">
      <!-- 1.5 -->
      <g transform="translate(17.255625 106.456236)scale(0.12 -0.12)">
       <use xlink:href="#DejaVuSans-31"/>
       <use xlink:href="#DejaVuSans-2e" x="63.623047"/>
       <use xlink:href="#DejaVuSans-35" x="95.410156"/>
      </g>
     </g>
    </g>
    <g id="ytick_8">
     <g id="line2d_29">
      <g>
       <use xlink:href="#mb3ff55d7e4" x="43.339375" y="64.777814" style="stroke: #000000; stroke-width: 0.8"/>
      </g>
     </g>
     <g id="text_13">
      <!-- 2.0 -->
      <g transform="translate(17.255625 69.336876)scale(0.12 -0.12)">
       <use xlink:href="#DejaVuSans-32"/>
       <use xlink:href="#DejaVuSans-2e" x="63.623047"/>
       <use xlink:href="#DejaVuSans-30" x="95.410156"/>
      </g>
     </g>
    </g>
    <g id="ytick_9">
     <g id="line2d_30">
      <g>
       <use xlink:href="#mb3ff55d7e4" x="43.339375" y="27.658454" style="stroke: #000000; stroke-width: 0.8"/>
      </g>
     </g>
     <g id="text_14">
      <!-- 2.5 -->
      <g transform="translate(17.255625 32.217516)scale(0.12 -0.12)">
       <use xlink:href="#DejaVuSans-32"/>
       <use xlink:href="#DejaVuSans-2e" x="63.623047"/>
       <use xlink:href="#DejaVuSans-35" x="95.410156"/>
      </g>
     </g>
    </g>
    <g id="ytick_10">
     <g id="line2d_31">
      <defs>
       <path id="m7d45bdee69" d="M 0 0 
L -2 0 
" style="stroke: #000000; stroke-width: 0.6"/>
      </defs>
      <g>
       <use xlink:href="#m7d45bdee69" x="43.339375" y="317.18946" style="stroke: #000000; stroke-width: 0.6"/>
      </g>
     </g>
    </g>
    <g id="ytick_11">
     <g id="line2d_32">
      <g>
       <use xlink:href="#m7d45bdee69" x="43.339375" y="309.765588" style="stroke: #000000; stroke-width: 0.6"/>
      </g>
     </g>
    </g>
    <g id="ytick_12">
     <g id="line2d_33">
      <g>
       <use xlink:href="#m7d45bdee69" x="43.339375" y="302.341716" style="stroke: #000000; stroke-width: 0.6"/>
      </g>
     </g>
    </g>
    <g id="ytick_13">
     <g id="line2d_34">
      <g>
       <use xlink:href="#m7d45bdee69" x="43.339375" y="294.917844" style="stroke: #000000; stroke-width: 0.6"/>
      </g>
     </g>
    </g>
    <g id="ytick_14">
     <g id="line2d_35">
      <g>
       <use xlink:href="#m7d45bdee69" x="43.339375" y="280.0701" style="stroke: #000000; stroke-width: 0.6"/>
      </g>
     </g>
    </g>
    <g id="ytick_15">
     <g id="line2d_36">
      <g>
       <use xlink:href="#m7d45bdee69" x="43.339375" y="272.646228" style="stroke: #000000; stroke-width: 0.6"/>
      </g>
     </g>
    </g>
    <g id="ytick_16">
     <g id="line2d_37">
      <g>
       <use xlink:href="#m7d45bdee69" x="43.339375" y="265.222356" style="stroke: #000000; stroke-width: 0.6"/>
      </g>
     </g>
    </g>
    <g id="ytick_17">
     <g id="line2d_38">
      <g>
       <use xlink:href="#m7d45bdee69" x="43.339375" y="257.798484" style="stroke: #000000; stroke-width: 0.6"/>
      </g>
     </g>
    </g>
    <g id="ytick_18">
     <g id="line2d_39">
      <g>
       <use xlink:href="#m7d45bdee69" x="43.339375" y="242.950741" style="stroke: #000000; stroke-width: 0.6"/>
      </g>
     </g>
    </g>
    <g id="ytick_19">
     <g id="line2d_40">
      <g>
       <use xlink:href="#m7d45bdee69" x="43.339375" y="235.526869" style="stroke: #000000; stroke-width: 0.6"/>
      </g>
     </g>
    </g>
    <g id="ytick_20">
     <g id="line2d_41">
      <g>
       <use xlink:href="#m7d45bdee69" x="43.339375" y="228.102997" style="stroke: #000000; stroke-width: 0.6"/>
      </g>
     </g>
    </g>
    <g id="ytick_21">
     <g id="line2d_42">
      <g>
       <use xlink:href="#m7d45bdee69" x="43.339375" y="220.679125" style="stroke: #000000; stroke-width: 0.6"/>
      </g>
     </g>
    </g>
    <g id="ytick_22">
     <g id="line2d_43">
      <g>
       <use xlink:href="#m7d45bdee69" x="43.339375" y="205.831381" style="stroke: #000000; stroke-width: 0.6"/>
      </g>
     </g>
    </g>
    <g id="ytick_23">
     <g id="line2d_44">
      <g>
       <use xlink:href="#m7d45bdee69" x="43.339375" y="198.407509" style="stroke: #000000; stroke-width: 0.6"/>
      </g>
     </g>
    </g>
    <g id="ytick_24">
     <g id="line2d_45">
      <g>
       <use xlink:href="#m7d45bdee69" x="43.339375" y="190.983637" style="stroke: #000000; stroke-width: 0.6"/>
      </g>
     </g>
    </g>
    <g id="ytick_25">
     <g id="line2d_46">
      <g>
       <use xlink:href="#m7d45bdee69" x="43.339375" y="183.559765" style="stroke: #000000; stroke-width: 0.6"/>
      </g>
     </g>
    </g>
    <g id="ytick_26">
     <g id="line2d_47">
      <g>
       <use xlink:href="#m7d45bdee69" x="43.339375" y="168.712021" style="stroke: #000000; stroke-width: 0.6"/>
      </g>
     </g>
    </g>
    <g id="ytick_27">
     <g id="line2d_48">
      <g>
       <use xlink:href="#m7d45bdee69" x="43.339375" y="161.288149" style="stroke: #000000; stroke-width: 0.6"/>
      </g>
     </g>
    </g>
    <g id="ytick_28">
     <g id="line2d_49">
      <g>
       <use xlink:href="#m7d45bdee69" x="43.339375" y="153.864277" style="stroke: #000000; stroke-width: 0.6"/>
      </g>
     </g>
    </g>
    <g id="ytick_29">
     <g id="line2d_50">
      <g>
       <use xlink:href="#m7d45bdee69" x="43.339375" y="146.440405" style="stroke: #000000; stroke-width: 0.6"/>
      </g>
     </g>
    </g>
    <g id="ytick_30">
     <g id="line2d_51">
      <g>
       <use xlink:href="#m7d45bdee69" x="43.339375" y="131.592661" style="stroke: #000000; stroke-width: 0.6"/>
      </g>
     </g>
    </g>
    <g id="ytick_31">
     <g id="line2d_52">
      <g>
       <use xlink:href="#m7d45bdee69" x="43.339375" y="124.168789" style="stroke: #000000; stroke-width: 0.6"/>
      </g>
     </g>
    </g>
    <g id="ytick_32">
     <g id="line2d_53">
      <g>
       <use xlink:href="#m7d45bdee69" x="43.339375" y="116.744917" style="stroke: #000000; stroke-width: 0.6"/>
      </g>
     </g>
    </g>
    <g id="ytick_33">
     <g id="line2d_54">
      <g>
       <use xlink:href="#m7d45bdee69" x="43.339375" y="109.321045" style="stroke: #000000; stroke-width: 0.6"/>
      </g>
     </g>
    </g>
    <g id="ytick_34">
     <g id="line2d_55">
      <g>
       <use xlink:href="#m7d45bdee69" x="43.339375" y="94.473301" style="stroke: #000000; stroke-width: 0.6"/>
      </g>
     </g>
    </g>
    <g id="ytick_35">
     <g id="line2d_56">
      <g>
       <use xlink:href="#m7d45bdee69" x="43.339375" y="87.04943" style="stroke: #000000; stroke-width: 0.6"/>
      </g>
     </g>
    </g>
    <g id="ytick_36">
     <g id="line2d_57">
      <g>
       <use xlink:href="#m7d45bdee69" x="43.339375" y="79.625558" style="stroke: #000000; stroke-width: 0.6"/>
      </g>
     </g>
    </g>
    <g id="ytick_37">
     <g id="line2d_58">
      <g>
       <use xlink:href="#m7d45bdee69" x="43.339375" y="72.201686" style="stroke: #000000; stroke-width: 0.6"/>
      </g>
     </g>
    </g>
    <g id="ytick_38">
     <g id="line2d_59">
      <g>
       <use xlink:href="#m7d45bdee69" x="43.339375" y="57.353942" style="stroke: #000000; stroke-width: 0.6"/>
      </g>
     </g>
    </g>
    <g id="ytick_39">
     <g id="line2d_60">
      <g>
       <use xlink:href="#m7d45bdee69" x="43.339375" y="49.93007" style="stroke: #000000; stroke-width: 0.6"/>
      </g>
     </g>
    </g>
    <g id="ytick_40">
     <g id="line2d_61">
      <g>
       <use xlink:href="#m7d45bdee69" x="43.339375" y="42.506198" style="stroke: #000000; stroke-width: 0.6"/>
      </g>
     </g>
    </g>
    <g id="ytick_41">
     <g id="line2d_62">
      <g>
       <use xlink:href="#m7d45bdee69" x="43.339375" y="35.082326" style="stroke: #000000; stroke-width: 0.6"/>
      </g>
     </g>
    </g>
    <g id="ytick_42">
     <g id="line2d_63">
      <g>
       <use xlink:href="#m7d45bdee69" x="43.339375" y="20.234582" style="stroke: #000000; stroke-width: 0.6"/>
      </g>
     </g>
    </g>
    <g id="ytick_43">
     <g id="line2d_64">
      <g>
       <use xlink:href="#m7d45bdee69" x="43.339375" y="12.81071" style="stroke: #000000; stroke-width: 0.6"/>
      </g>
     </g>
    </g>
   </g>
   <g id="line2d_65">
    <path d="M 43.339375 176.135893 
L 44.907181 174.761455 
L 46.65202 173.539521 
L 49.181482 172.23425 
L 50.840384 171.619967 
L 54.212943 170.823371 
L 58.499988 170.451495 
L 59.791043 170.444136 
L 64.961673 170.771317 
L 69.826794 171.481583 
L 73.526328 172.227956 
L 79.487156 173.758859 
L 85.434696 175.669049 
L 90.765681 177.70248 
L 97.166495 180.544649 
L 102.275006 183.121355 
L 108.099143 186.37746 
L 113.229297 189.505002 
L 118.119628 192.6867 
L 126.351028 198.398525 
L 135.108556 204.794858 
L 149.748408 215.554006 
L 156.950269 220.555945 
L 162.941602 224.423728 
L 167.339548 227.042287 
L 171.836429 229.491532 
L 175.580321 231.333544 
L 179.378265 233.002276 
L 183.639759 234.617502 
L 187.324881 235.782176 
L 190.347472 236.569846 
L 195.506467 237.553247 
L 199.019078 237.95622 
L 202.429316 238.137985 
L 204.308483 238.14967 
L 209.830216 237.821887 
L 214.572798 237.11562 
L 219.31432 236.03014 
L 223.088502 234.906902 
L 228.770506 232.810292 
L 231.987748 231.422883 
L 236.794809 229.106712 
L 243.072331 225.700447 
L 248.230442 222.638617 
L 254.338547 218.788892 
L 279.494899 202.498594 
L 283.493385 200.15194 
L 288.609173 197.359386 
L 294.77651 194.371792 
L 299.132625 192.551198 
L 302.590349 191.295236 
L 306.743317 190.0238 
L 310.255559 189.160952 
L 315.004539 188.317433 
L 317.917736 187.989016 
L 322.363764 187.77009 
L 325.568288 187.825274 
L 329.507153 188.137023 
L 333.018794 188.639252 
L 337.887837 189.677082 
L 342.070397 190.87375 
L 346.178121 192.309101 
L 351.275619 194.423514 
L 355.612045 196.486571 
L 360.868853 199.273242 
L 366.13372 202.328221 
L 371.488342 205.646731 
L 382.079333 212.583174 
L 392.158638 219.239354 
L 399.421718 223.804894 
L 404.384915 226.71584 
L 407.501819 228.431077 
L 413.575534 231.474111 
L 417.897551 233.364185 
L 422.065409 234.944004 
L 425.743406 236.124858 
L 425.743406 236.124858 
" clip-path="url(#p62fd2b9683)" style="fill: none; stroke: #0000ff; stroke-linecap: square"/>
   </g>
   <g id="line2d_66">
    <path d="M 43.339375 176.135893 
L 44.705591 182.293449 
L 46.368223 188.643992 
L 47.802592 193.269206 
L 49.23696 197.228257 
L 50.528323 200.306314 
L 51.819686 202.989661 
L 53.779781 206.429946 
L 55.980082 209.558087 
L 58.256132 212.163844 
L 60.625124 214.363845 
L 62.233606 215.630417 
L 65.598232 217.851077 
L 69.770397 220.077855 
L 73.891411 221.965921 
L 81.230758 225.034758 
L 102.282507 233.545013 
L 107.816561 235.595606 
L 115.162073 237.994492 
L 118.885903 239.024756 
L 121.733647 239.712517 
L 127.17306 240.756408 
L 130.932299 241.251841 
L 135.964813 241.60239 
L 139.150603 241.630378 
L 142.822641 241.47013 
L 146.322304 241.122499 
L 151.307757 240.297033 
L 154.97723 239.443484 
L 158.957622 238.28699 
L 161.71483 237.34932 
L 165.723437 235.794972 
L 169.20965 234.26846 
L 173.992842 231.929733 
L 179.033019 229.191539 
L 185.306228 225.454397 
L 192.744684 220.669755 
L 219.63737 202.818105 
L 226.069608 199.053418 
L 231.78275 196.057587 
L 236.035177 194.080964 
L 238.406136 193.082919 
L 243.029277 191.367901 
L 247.123405 190.120116 
L 250.838194 189.220452 
L 255.25798 188.449828 
L 258.225368 188.119911 
L 261.960035 187.922135 
L 266.66372 188.019859 
L 270.560328 188.392342 
L 273.706802 188.883106 
L 275.161655 189.166438 
L 280.710453 190.565164 
L 283.134675 191.329063 
L 287.238765 192.822584 
L 292.570122 195.113072 
L 297.538721 197.567592 
L 302.550618 200.312948 
L 307.898355 203.487438 
L 314.46097 207.638921 
L 339.225857 223.746824 
L 344.673699 226.933824 
L 349.485366 229.520612 
L 353.58933 231.525499 
L 358.757734 233.749065 
L 363.050961 235.313712 
L 367.6807 236.689494 
L 370.989835 237.463719 
L 374.012965 238.012885 
L 377.725328 238.475531 
L 382.394476 238.720058 
L 386.495701 238.622164 
L 391.124774 238.161806 
L 394.740634 237.548191 
L 397.925229 236.827839 
L 403.343018 235.230272 
L 406.481443 234.101032 
L 411.143278 232.167198 
L 413.271788 231.189036 
L 417.911076 228.868983 
L 423.554958 225.740755 
L 425.743406 224.450802 
L 425.743406 224.450802 
" clip-path="url(#p62fd2b9683)" style="fill: none; stroke: #ff0000; stroke-linecap: square"/>
   </g>
   <g id="line2d_67">
    <path d="M 43.339375 139.016533 
L 44.234006 137.417145 
L 45.128636 136.074323 
L 46.020434 134.965763 
L 46.912232 134.063929 
L 47.897269 133.28318 
L 48.882305 132.704139 
L 50.005806 132.261134 
L 51.129308 132.021319 
L 52.464202 131.964349 
L 53.799096 132.118722 
L 54.864237 132.371211 
L 57.47761 133.383051 
L 58.63384 133.974253 
L 61.662387 135.828502 
L 64.315985 137.716262 
L 68.132553 140.696891 
L 75.914979 147.221053 
L 102.89139 170.463771 
L 117.010934 182.950018 
L 142.887358 205.980007 
L 149.592931 211.599603 
L 154.292763 215.349382 
L 160.285856 219.842329 
L 164.864697 223.016032 
L 169.15141 225.753955 
L 173.923763 228.507517 
L 178.628614 230.890789 
L 183.182329 232.860846 
L 188.170082 234.616313 
L 190.825239 235.372662 
L 192.81184 235.855768 
L 196.706607 236.594293 
L 201.207184 237.099975 
L 205.120017 237.235567 
L 206.001555 237.227213 
L 211.149539 236.895856 
L 214.238244 236.469205 
L 218.47925 235.613659 
L 221.717163 234.757882 
L 226.645321 233.136774 
L 231.513641 231.18471 
L 236.501582 228.859757 
L 242.267109 225.818154 
L 249.291032 221.701776 
L 257.031468 216.806933 
L 277.770859 203.413105 
L 282.930119 200.356917 
L 288.640435 197.241847 
L 293.137292 195.031252 
L 296.604162 193.494609 
L 300.55904 191.93788 
L 305.68664 190.257107 
L 309.939657 189.172334 
L 311.744814 188.80051 
L 316.187557 188.11725 
L 320.270374 187.786169 
L 323.745781 187.731543 
L 327.230464 187.887214 
L 330.731816 188.254659 
L 335.199079 189.025652 
L 338.786796 189.883685 
L 342.588456 191.016178 
L 346.113792 192.262182 
L 351.249172 194.391945 
L 354.970872 196.149433 
L 359.846812 198.693368 
L 364.744478 201.485761 
L 371.503264 205.644616 
L 381.685368 212.312025 
L 394.577115 220.785503 
L 402.251853 225.484572 
L 405.957945 227.588673 
L 412.27624 230.855278 
L 417.30241 233.115147 
L 422.911047 235.230657 
L 425.743406 236.12205 
L 425.743406 236.12205 
" clip-path="url(#p62fd2b9683)" style="fill: none; stroke: #0000ff; stroke-linecap: square"/>
   </g>
   <g id="line2d_68">
    <path d="M 43.339375 139.016533 
L 44.705782 156.186502 
L 46.180772 171.885343 
L 47.699658 185.427301 
L 49.213673 196.680586 
L 50.55355 205.049594 
L 51.958981 212.459533 
L 53.160551 217.83688 
L 54.745254 223.77686 
L 55.873202 227.317597 
L 57.072629 230.544074 
L 58.662437 234.086149 
L 60.029701 236.564266 
L 61.396966 238.601128 
L 63.376169 240.904733 
L 65.653987 242.80922 
L 67.541965 243.924275 
L 69.302864 244.675229 
L 72.104488 245.446255 
L 74.142907 245.77351 
L 75.988461 245.953308 
L 80.897993 246.120072 
L 94.738564 246.226051 
L 102.38174 246.587522 
L 120.572111 247.621942 
L 126.428417 247.662915 
L 131.309241 247.480579 
L 136.670175 247.004926 
L 141.116731 246.364182 
L 144.362875 245.745003 
L 149.303401 244.546712 
L 152.439962 243.622435 
L 157.133524 242.001351 
L 159.900014 240.913813 
L 164.078732 239.090719 
L 169.318569 236.512692 
L 175.68667 232.981469 
L 181.582897 229.377216 
L 187.233935 225.681766 
L 195.711873 219.839739 
L 212.773491 207.917217 
L 219.375743 203.598381 
L 226.066824 199.575225 
L 230.447549 197.188557 
L 235.255952 194.834787 
L 238.468142 193.434033 
L 244.295655 191.276972 
L 249.63872 189.767063 
L 253.459427 188.977637 
L 258.057879 188.359847 
L 259.673578 188.230385 
L 264.113354 188.111251 
L 267.376347 188.244968 
L 271.452903 188.673233 
L 273.241097 188.951418 
L 278.849958 190.171832 
L 283.236765 191.479867 
L 287.617912 193.076821 
L 290.461115 194.258576 
L 294.852961 196.291105 
L 299.788796 198.845025 
L 303.789133 201.095877 
L 310.479169 205.149403 
L 318.17432 210.11675 
L 334.851486 221.061436 
L 341.79893 225.307783 
L 344.569669 226.898823 
L 348.486962 229.024856 
L 352.655933 231.106157 
L 356.703833 232.925108 
L 361.469631 234.783797 
L 365.976763 236.235462 
L 367.356599 236.617067 
L 371.30798 237.540355 
L 375.912737 238.289417 
L 380.074341 238.655101 
L 382.786629 238.731989 
L 386.827543 238.609233 
L 391.405592 238.128954 
L 395.900091 237.311301 
L 397.961079 236.824598 
L 403.943291 235.030472 
L 409.423801 232.919065 
L 411.742011 231.901892 
L 415.428247 230.145091 
L 419.457764 228.046024 
L 425.743406 224.453611 
L 425.743406 224.453611 
" clip-path="url(#p62fd2b9683)" style="fill: none; stroke: #ff0000; stroke-linecap: square"/>
   </g>
   <g id="line2d_69">
    <path d="M 43.339375 101.897173 
L 44.404104 99.114186 
L 45.468834 96.915825 
L 46.663098 95.059908 
L 47.857363 93.765577 
L 48.918989 93.02476 
L 49.980615 92.620276 
L 50.7328 92.514144 
L 51.484985 92.542215 
L 52.317149 92.714715 
L 53.149312 93.020965 
L 55.15671 94.228202 
L 55.993966 94.89727 
L 58.422583 97.268054 
L 61.7666 101.289961 
L 65.96926 107.064601 
L 83.393316 132.310796 
L 89.174996 140.154816 
L 96.298559 149.3523 
L 104.496294 159.407818 
L 112.495523 168.799133 
L 120.177593 177.503615 
L 129.707484 187.899043 
L 134.92906 193.385647 
L 142.823029 201.337646 
L 148.98157 207.194171 
L 155.737268 213.191324 
L 161.050082 217.540324 
L 165.577872 220.957523 
L 169.771387 223.862249 
L 175.097641 227.161244 
L 176.932123 228.190648 
L 182.137864 230.798275 
L 186.879131 232.753731 
L 190.378508 233.93131 
L 195.510859 235.240365 
L 196.294798 235.396069 
L 201.732836 236.151559 
L 205.9817 236.347873 
L 211.055575 236.135808 
L 213.791778 235.824075 
L 217.952771 235.093226 
L 223.045094 233.794999 
L 226.906662 232.531583 
L 232.076536 230.493468 
L 237.18267 228.130014 
L 242.653201 225.265379 
L 248.567952 221.853767 
L 255.683262 217.438244 
L 279.752533 202.088028 
L 284.534662 199.337514 
L 290.553972 196.176466 
L 296.038567 193.651218 
L 301.570951 191.50291 
L 306.468309 189.972611 
L 311.304275 188.830293 
L 315.688619 188.127398 
L 319.188137 187.800372 
L 322.168012 187.688205 
L 326.435167 187.795462 
L 330.374855 188.173578 
L 334.516528 188.855731 
L 339.421175 190.030108 
L 342.461543 190.949979 
L 347.525144 192.789743 
L 352.237482 194.822753 
L 358.460789 197.928079 
L 363.51972 200.75332 
L 369.921286 204.63302 
L 377.678823 209.644433 
L 396.514788 222.002164 
L 402.82242 225.811384 
L 407.994344 228.684239 
L 413.101868 231.244549 
L 415.781499 232.462164 
L 419.103657 233.8401 
L 423.932996 235.563509 
L 425.743406 236.119241 
L 425.743406 236.119241 
" clip-path="url(#p62fd2b9683)" style="fill: none; stroke: #0000ff; stroke-linecap: square"/>
   </g>
   <g id="line2d_70">
    <path d="M 43.339375 101.897173 
L 44.680017 129.58834 
L 46.020659 153.210209 
L 47.510918 175.363889 
L 48.626229 189.496838 
L 49.964602 204.064735 
L 51.384693 217.04876 
L 52.683354 227.005607 
L 54.085339 235.993191 
L 55.38245 242.908119 
L 56.67956 248.667581 
L 57.422235 251.508057 
L 58.797654 255.998668 
L 60.063144 259.356639 
L 61.220802 261.870316 
L 62.270627 263.749146 
L 63.365578 265.35407 
L 64.691101 266.877421 
L 66.202073 268.139292 
L 66.957558 268.608119 
L 68.259669 269.199801 
L 69.771136 269.594531 
L 71.215172 269.731885 
L 72.659208 269.680718 
L 74.137096 269.472805 
L 78.129143 268.373863 
L 81.127915 267.25045 
L 91.6608 263.004229 
L 96.777382 261.225315 
L 100.834959 260.011158 
L 105.693006 258.766483 
L 112.208134 257.3689 
L 132.74651 253.345589 
L 136.603369 252.40532 
L 142.445105 250.757015 
L 146.643263 249.380536 
L 151.067628 247.739431 
L 156.880119 245.272094 
L 161.990014 242.807602 
L 168.29872 239.395258 
L 173.819626 236.098456 
L 179.37133 232.526882 
L 186.983467 227.295379 
L 196.559086 220.369485 
L 210.083902 210.539286 
L 218.105425 205.046654 
L 224.228713 201.184197 
L 227.158896 199.46587 
L 230.993812 197.363888 
L 234.755559 195.480285 
L 239.709722 193.296022 
L 244.426225 191.556496 
L 249.057295 190.193908 
L 253.130367 189.292228 
L 255.702408 188.870126 
L 260.736271 188.380378 
L 264.106887 188.303571 
L 268.089541 188.47242 
L 272.127606 188.927779 
L 276.1319 189.655911 
L 279.088758 190.365262 
L 282.813241 191.458538 
L 286.458785 192.734443 
L 291.333606 194.737339 
L 295.746626 196.817557 
L 300.235074 199.163433 
L 305.975456 202.449263 
L 313.129769 206.88604 
L 322.557877 213.060722 
L 332.631281 219.675993 
L 338.723379 223.495854 
L 344.166063 226.695008 
L 350.747275 230.198025 
L 354.761191 232.096344 
L 360.285821 234.367725 
L 363.472627 235.481334 
L 368.848043 237.007818 
L 371.087856 237.507373 
L 375.899655 238.298139 
L 380.463925 238.683185 
L 383.752617 238.73689 
L 387.271035 238.586179 
L 391.158856 238.170931 
L 394.877509 237.533252 
L 399.426863 236.442334 
L 402.554971 235.501168 
L 406.840197 233.97207 
L 409.917361 232.712678 
L 415.516755 230.104585 
L 420.456221 227.502839 
L 425.743406 224.456419 
L 425.743406 224.456419 
" clip-path="url(#p62fd2b9683)" style="fill: none; stroke: #ff0000; stroke-linecap: square"/>
   </g>
   <g id="line2d_71">
    <path d="M 43.339375 64.777814 
L 44.29063 61.438483 
L 45.241885 58.75663 
L 46.48173 56.132328 
L 47.721574 54.366922 
L 48.764436 53.457689 
L 49.807297 53.006481 
L 50.617365 52.935628 
L 51.427434 53.082844 
L 52.304471 53.462762 
L 53.636856 54.423912 
L 54.96924 55.77958 
L 56.072653 57.152463 
L 58.325926 60.51702 
L 60.476752 64.258189 
L 63.546984 70.184809 
L 69.397527 82.376287 
L 75.166833 94.525963 
L 81.551023 107.41409 
L 86.756721 117.303844 
L 92.723924 127.93286 
L 98.99935 138.362495 
L 104.753865 147.340629 
L 109.752534 154.748753 
L 115.516925 162.900278 
L 122.029964 171.663869 
L 129.262886 180.887026 
L 133.33068 185.844979 
L 140.352765 194.005289 
L 144.379358 198.444803 
L 148.946386 203.25301 
L 154.183164 208.446888 
L 159.441091 213.289475 
L 163.841696 217.032565 
L 168.065015 220.340739 
L 173.260831 224.005015 
L 178.024522 226.949311 
L 181.047518 228.602816 
L 184.969025 230.491225 
L 188.706278 232.01508 
L 194.100509 233.730408 
L 196.587827 234.326608 
L 200.299116 234.986847 
L 202.558658 235.254621 
L 206.461929 235.479776 
L 210.755086 235.385251 
L 213.990152 235.082731 
L 217.788889 234.48174 
L 221.434042 233.664969 
L 226.064373 232.306491 
L 228.831138 231.33349 
L 233.451524 229.46051 
L 236.653708 227.995224 
L 243.027254 224.724586 
L 248.598303 221.546937 
L 256.133924 216.913527 
L 277.557213 203.27306 
L 284.99106 198.973788 
L 290.184683 196.262083 
L 295.198517 193.928377 
L 298.259544 192.659103 
L 302.903157 190.981012 
L 306.189258 189.985909 
L 310.487934 188.939313 
L 313.620442 188.366061 
L 318.149012 187.828723 
L 321.178841 187.665145 
L 325.569267 187.709628 
L 330.240001 188.12211 
L 333.278402 188.590097 
L 336.632044 189.285522 
L 341.049315 190.479185 
L 344.600201 191.657909 
L 349.283042 193.492843 
L 353.663364 195.475726 
L 355.625048 196.440377 
L 362.394552 200.089651 
L 367.482075 203.107566 
L 374.293138 207.416214 
L 400.308461 224.323072 
L 407.010589 228.153407 
L 410.364158 229.905101 
L 415.364225 232.274929 
L 420.542788 234.386123 
L 425.743406 236.116432 
L 425.743406 236.116432 
" clip-path="url(#p62fd2b9683)" style="fill: none; stroke: #0000ff; stroke-linecap: square"/>
   </g>
   <g id="line2d_72">
    <path d="M 43.339375 64.777814 
L 44.542818 99.623494 
L 45.967044 134.89685 
L 47.291744 162.675658 
L 48.4972 184.307778 
L 49.895434 205.630112 
L 51.221676 222.617226 
L 52.609504 237.495578 
L 53.660359 247.048974 
L 55.147531 258.392737 
L 56.426638 266.383758 
L 57.705745 272.97661 
L 58.975198 278.327665 
L 60.113083 282.250631 
L 61.250967 285.456195 
L 62.33892 287.935012 
L 63.426873 289.913238 
L 64.277057 291.151723 
L 65.658827 292.663915 
L 66.190413 293.098993 
L 67.812034 293.994403 
L 69.335328 294.332054 
L 70.858623 294.276685 
L 73.142886 293.623718 
L 75.073925 292.674735 
L 76.981362 291.485022 
L 80.77751 288.659001 
L 94.179324 277.979504 
L 98.282402 275.143946 
L 100.477567 273.744793 
L 105.474479 270.853088 
L 109.651116 268.71531 
L 116.355525 265.696572 
L 123.68165 262.767445 
L 139.684835 256.548499 
L 146.998189 253.367714 
L 152.144944 250.90339 
L 158.784719 247.407412 
L 164.737827 243.956523 
L 171.342012 239.787915 
L 179.395143 234.274076 
L 187.716561 228.193812 
L 200.092566 218.801948 
L 210.781326 210.822714 
L 215.967723 207.146753 
L 221.467001 203.470755 
L 226.829753 200.164228 
L 229.74123 198.50373 
L 233.034527 196.752665 
L 238.351787 194.236863 
L 242.477992 192.571916 
L 246.237136 191.288862 
L 249.206944 190.439862 
L 251.911618 189.796966 
L 256.291922 189.025687 
L 260.37292 188.612842 
L 262.111914 188.527355 
L 267.358349 188.597151 
L 272.227589 189.098226 
L 274.943395 189.556447 
L 279.033409 190.480896 
L 283.968703 191.955902 
L 286.496448 192.855779 
L 290.411615 194.430485 
L 295.105875 196.586417 
L 301.101126 199.7132 
L 307.260113 203.283951 
L 314.182538 207.61433 
L 328.9721 217.33433 
L 337.496168 222.772114 
L 343.781919 226.501263 
L 348.022336 228.823749 
L 353.99838 231.769192 
L 358.548047 233.714707 
L 362.28941 235.100182 
L 366.376627 236.375675 
L 370.67411 237.433149 
L 374.768215 238.158018 
L 377.070666 238.441179 
L 379.139373 238.617991 
L 383.665503 238.746334 
L 386.612784 238.638521 
L 391.991839 238.055134 
L 394.442449 237.626193 
L 399.204002 236.509167 
L 404.051725 235.002801 
L 408.538281 233.297558 
L 411.755654 231.903798 
L 416.760703 229.477707 
L 421.921422 226.686524 
L 425.743406 224.459228 
L 425.743406 224.459228 
" clip-path="url(#p62fd2b9683)" style="fill: none; stroke: #ff0000; stroke-linecap: square"/>
   </g>
   <g id="line2d_73">
    <path d="M 43.339375 27.658454 
L 44.253349 23.641991 
L 45.167324 20.406335 
L 45.77664 18.642733 
L 46.93377 16.071625 
L 47.693236 14.884135 
L 48.452702 14.051419 
L 49.257387 13.520478 
L 50.062071 13.316661 
L 50.866756 13.407856 
L 51.671441 13.764691 
L 52.570651 14.444788 
L 54.006073 16.065005 
L 54.542285 16.81787 
L 56.309255 19.774539 
L 58.290969 23.794412 
L 60.066782 27.868482 
L 62.579294 34.162024 
L 68.578051 50.430407 
L 76.655429 72.469739 
L 81.821829 85.769343 
L 85.944633 95.782534 
L 90.94244 107.189811 
L 96.315592 118.605672 
L 101.454051 128.777813 
L 104.081038 133.724099 
L 109.716396 143.815698 
L 115.629469 153.726156 
L 120.793726 161.880095 
L 125.129361 168.39762 
L 131.646649 177.669582 
L 137.208243 185.102695 
L 143.593662 193.09716 
L 146.642901 196.70774 
L 151.934703 202.645418 
L 156.125058 207.040669 
L 160.84638 211.652934 
L 165.780695 216.070008 
L 170.225326 219.679248 
L 174.059901 222.500196 
L 178.271623 225.275202 
L 182.418019 227.667004 
L 184.978097 228.971683 
L 188.453566 230.529424 
L 192.455435 232.01542 
L 196.788392 233.250554 
L 198.705934 233.673007 
L 203.375187 234.384777 
L 205.955608 234.587143 
L 207.640075 234.646851 
L 211.595697 234.56594 
L 216.064901 234.111016 
L 220.401515 233.316219 
L 224.087774 232.381014 
L 227.005453 231.480964 
L 232.524223 229.42067 
L 237.525222 227.189018 
L 240.310739 225.813355 
L 246.926113 222.225753 
L 253.238031 218.473837 
L 262.759566 212.461992 
L 275.937205 204.119928 
L 281.824182 200.631576 
L 286.878657 197.850611 
L 292.596654 195.010493 
L 298.633104 192.434827 
L 301.938603 191.232435 
L 306.730062 189.774971 
L 311.82644 188.619249 
L 316.536373 187.931256 
L 320.343858 187.650215 
L 323.463589 187.605916 
L 325.081413 187.649155 
L 330.502615 188.122497 
L 334.387733 188.768947 
L 337.462073 189.457812 
L 340.4819 190.28252 
L 344.07862 191.449176 
L 349.309022 193.483141 
L 353.70047 195.47507 
L 360.258112 198.872635 
L 366.610285 202.563102 
L 371.493438 205.603553 
L 381.034998 211.852028 
L 394.144837 220.490723 
L 400.961342 224.707767 
L 406.642441 227.949239 
L 411.411565 230.422447 
L 415.708653 232.422982 
L 419.913086 234.146115 
L 422.947332 235.233785 
L 425.743406 236.113623 
L 425.743406 236.113623 
" clip-path="url(#p62fd2b9683)" style="fill: none; stroke: #0000ff; stroke-linecap: square"/>
   </g>
   <g id="line2d_74">
    <path d="M 43.339375 27.658454 
L 44.723509 78.46243 
L 46.073699 120.53666 
L 47.372971 154.996246 
L 48.687373 184.650285 
L 49.982466 209.429321 
L 51.314361 230.936823 
L 52.534884 247.576291 
L 53.838827 262.543864 
L 54.994963 273.700956 
L 56.345298 284.554255 
L 57.459083 291.968298 
L 58.741075 299.012416 
L 59.854793 304.003225 
L 60.861274 307.724265 
L 61.867755 310.783897 
L 63.12208 313.785362 
L 64.376404 316.006824 
L 65.21262 317.111048 
L 66.501886 318.301868 
L 67.012104 318.620214 
L 68.032541 319.027219 
L 68.777617 319.149696 
L 69.522692 319.140758 
L 71.012843 318.7797 
L 72.015383 318.316511 
L 73.451453 317.399741 
L 74.887523 316.239805 
L 76.421408 314.791482 
L 79.403328 311.54735 
L 84.706578 305.114417 
L 91.199427 297.246523 
L 94.267707 293.767306 
L 98.394999 289.419653 
L 100.037912 287.8007 
L 104.767913 283.489267 
L 108.336045 280.558793 
L 112.403936 277.515077 
L 117.738958 273.921058 
L 124.892274 269.616095 
L 131.960356 265.696501 
L 146.160974 257.95208 
L 153.209579 253.863207 
L 159.005398 250.28923 
L 164.531421 246.681462 
L 171.296549 241.996558 
L 178.857037 236.443391 
L 186.803979 230.327313 
L 211.456139 211.097257 
L 216.512372 207.439439 
L 221.148189 204.268221 
L 225.882235 201.248757 
L 231.003168 198.27349 
L 236.106951 195.650126 
L 238.613501 194.498306 
L 243.975092 192.359281 
L 247.338091 191.25518 
L 251.47999 190.15879 
L 254.219106 189.597834 
L 259.556943 188.888322 
L 263.808214 188.690044 
L 267.752818 188.797117 
L 271.589427 189.167164 
L 274.947606 189.702161 
L 279.357267 190.694974 
L 284.036324 192.092987 
L 286.632161 193.013502 
L 292.099943 195.266251 
L 296.100539 197.161187 
L 302.295599 200.450946 
L 309.55356 204.746435 
L 318.470849 210.45143 
L 336.819766 222.382726 
L 342.867631 226.002966 
L 348.574469 229.13394 
L 351.97903 230.839954 
L 356.001876 232.677075 
L 360.894962 234.622744 
L 365.506415 236.139245 
L 367.741692 236.756571 
L 373.007332 237.891829 
L 377.302263 238.474606 
L 382.359537 238.75457 
L 385.110529 238.720451 
L 388.600739 238.488226 
L 393.454225 237.817824 
L 396.439284 237.20879 
L 401.082427 235.973841 
L 405.123468 234.626597 
L 409.651507 232.835127 
L 414.051129 230.832087 
L 419.332993 228.123568 
L 424.43659 225.237395 
L 425.743406 224.462037 
L 425.743406 224.462037 
" clip-path="url(#p62fd2b9683)" style="fill: none; stroke: #ff0000; stroke-linecap: square"/>
   </g>
   <g id="patch_3">
    <path d="M 43.339375 325.266357 
L 43.339375 7.2 
" style="fill: none; stroke: #000000; stroke-width: 0.8; stroke-linejoin: miter; stroke-linecap: square"/>
   </g>
   <g id="patch_4">
    <path d="M 35.691294 213.255253 
L 433.391487 213.255253 
" style="fill: none; stroke: #000000; stroke-width: 0.8; stroke-linejoin: miter; stroke-linecap: square"/>
   </g>
   <g id="legend_1">
    <g id="patch_5">
     <path d="M 388.091487 46.596875 
L 430.391487 46.596875 
L 430.391487 14.2 
L 388.091487 14.2 
z
" style="fill: #4c4c4c; opacity: 0.5; stroke: #4c4c4c; stroke-linejoin: miter"/>
    </g>
    <g id="patch_6">
     <path d="M 386.091487 44.596875 
L 428.391487 44.596875 
L 428.391487 12.2 
L 386.091487 12.2 
z
" style="fill: #ffffff; stroke: #cccccc; stroke-linejoin: miter"/>
    </g>
    <g id="line2d_75">
     <path d="M 395.091487 22.298438 
L 389.591487 22.298438 
" style="fill: none; stroke: #0000ff; stroke-linecap: square"/>
    </g>
    <g id="text_15">
     <!-- $x(t)$ -->
     <g transform="translate(397.591487 25.798438)scale(0.1 -0.1)">
      <defs>
       <path id="Cmmi10-78" d="M 500 184 
Q 613 97 819 97 
Q 1019 97 1172 289 
Q 1325 481 1381 709 
L 1672 1844 
Q 1741 2153 1741 2266 
Q 1741 2425 1652 2544 
Q 1563 2663 1403 2663 
Q 1200 2663 1022 2536 
Q 844 2409 722 2214 
Q 600 2019 550 1819 
Q 538 1778 500 1778 
L 422 1778 
Q 372 1778 372 1838 
L 372 1856 
Q 434 2094 584 2320 
Q 734 2547 951 2687 
Q 1169 2828 1416 2828 
Q 1650 2828 1839 2703 
Q 2028 2578 2106 2363 
Q 2216 2559 2386 2693 
Q 2556 2828 2759 2828 
Q 2897 2828 3040 2779 
Q 3184 2731 3275 2631 
Q 3366 2531 3366 2381 
Q 3366 2219 3261 2101 
Q 3156 1984 2994 1984 
Q 2891 1984 2822 2050 
Q 2753 2116 2753 2216 
Q 2753 2350 2845 2451 
Q 2938 2553 3066 2572 
Q 2950 2663 2747 2663 
Q 2541 2663 2389 2472 
Q 2238 2281 2175 2047 
L 1894 916 
Q 1825 659 1825 494 
Q 1825 331 1917 214 
Q 2009 97 2163 97 
Q 2463 97 2698 361 
Q 2934 625 3009 941 
Q 3022 978 3059 978 
L 3138 978 
Q 3163 978 3178 961 
Q 3194 944 3194 922 
Q 3194 916 3188 903 
Q 3097 522 2806 225 
Q 2516 -72 2150 -72 
Q 1916 -72 1727 54 
Q 1538 181 1459 397 
Q 1359 209 1182 68 
Q 1006 -72 806 -72 
Q 669 -72 523 -23 
Q 378 25 287 125 
Q 197 225 197 378 
Q 197 528 301 651 
Q 406 775 563 775 
Q 669 775 741 711 
Q 813 647 813 544 
Q 813 409 723 309 
Q 634 209 500 184 
z
" transform="scale(0.015625)"/>
       <path id="Cmr10-28" d="M 1984 -1588 
Q 1628 -1306 1370 -942 
Q 1113 -578 948 -165 
Q 784 247 703 697 
Q 622 1147 622 1600 
Q 622 2059 703 2509 
Q 784 2959 951 3375 
Q 1119 3791 1378 4153 
Q 1638 4516 1984 4788 
Q 1984 4800 2016 4800 
L 2075 4800 
Q 2094 4800 2109 4783 
Q 2125 4766 2125 4744 
Q 2125 4716 2113 4703 
Q 1800 4397 1592 4047 
Q 1384 3697 1257 3301 
Q 1131 2906 1075 2482 
Q 1019 2059 1019 1600 
Q 1019 -434 2106 -1491 
Q 2125 -1509 2125 -1544 
Q 2125 -1559 2108 -1579 
Q 2091 -1600 2075 -1600 
L 2016 -1600 
Q 1984 -1600 1984 -1588 
z
" transform="scale(0.015625)"/>
       <path id="Cmr10-29" d="M 416 -1600 
Q 359 -1600 359 -1544 
Q 359 -1516 372 -1503 
Q 1466 -434 1466 1600 
Q 1466 3634 384 4691 
Q 359 4706 359 4744 
Q 359 4766 376 4783 
Q 394 4800 416 4800 
L 475 4800 
Q 494 4800 506 4788 
Q 966 4425 1272 3906 
Q 1578 3388 1720 2800 
Q 1863 2213 1863 1600 
Q 1863 1147 1786 708 
Q 1709 269 1542 -157 
Q 1375 -584 1119 -945 
Q 863 -1306 506 -1588 
Q 494 -1600 475 -1600 
L 416 -1600 
z
" transform="scale(0.015625)"/>
      </defs>
      <use xlink:href="#Cmmi10-78"/>
      <use xlink:href="#Cmr10-28" transform="translate(57.080078 0)"/>
      <use xlink:href="#Cmmi10-74" transform="translate(95.898438 0)"/>
      <use xlink:href="#Cmr10-29" transform="translate(131.982422 0)"/>
     </g>
    </g>
    <g id="line2d_76">
     <path d="M 395.091487 32.596875 
L 389.591487 32.596875 
" style="fill: none; stroke: #ff0000; stroke-linecap: square"/>
    </g>
    <g id="text_16">
     <!-- $dx/dt$ -->
     <g transform="translate(397.591487 36.096875)scale(0.1 -0.1)">
      <defs>
       <path id="Cmmi10-64" d="M 1113 -72 
Q 709 -72 476 233 
Q 244 538 244 953 
Q 244 1363 456 1803 
Q 669 2244 1030 2536 
Q 1391 2828 1806 2828 
Q 1994 2828 2145 2723 
Q 2297 2619 2381 2444 
L 2741 3872 
Q 2766 3981 2772 4044 
Q 2772 4147 2356 4147 
Q 2291 4147 2291 4231 
Q 2294 4247 2305 4287 
Q 2316 4328 2333 4350 
Q 2350 4372 2381 4372 
L 3244 4441 
Q 3322 4441 3322 4359 
L 2400 678 
Q 2356 572 2356 372 
Q 2356 97 2541 97 
Q 2741 97 2845 351 
Q 2950 606 3022 941 
Q 3034 978 3072 978 
L 3150 978 
Q 3175 978 3190 956 
Q 3206 934 3206 916 
Q 3094 469 2961 198 
Q 2828 -72 2528 -72 
Q 2313 -72 2147 54 
Q 1981 181 1941 391 
Q 1528 -72 1113 -72 
z
M 1119 97 
Q 1350 97 1567 270 
Q 1784 444 1941 678 
Q 1947 684 1947 703 
L 2297 2113 
Q 2259 2338 2131 2500 
Q 2003 2663 1791 2663 
Q 1575 2663 1389 2486 
Q 1203 2309 1075 2069 
Q 950 1813 836 1366 
Q 722 919 722 672 
Q 722 450 817 273 
Q 913 97 1119 97 
z
" transform="scale(0.015625)"/>
       <path id="Cmmi10-3d" d="M 359 -1472 
Q 359 -1453 366 -1447 
L 2591 4722 
Q 2603 4759 2634 4779 
Q 2666 4800 2706 4800 
Q 2763 4800 2798 4765 
Q 2834 4731 2834 4672 
L 2834 4647 
L 609 -1522 
Q 572 -1600 488 -1600 
Q 434 -1600 396 -1562 
Q 359 -1525 359 -1472 
z
" transform="scale(0.015625)"/>
      </defs>
      <use xlink:href="#Cmmi10-64"/>
      <use xlink:href="#Cmmi10-78" transform="translate(52.001953 0)"/>
      <use xlink:href="#Cmmi10-3d" transform="translate(109.082031 0)"/>
      <use xlink:href="#Cmmi10-64" transform="translate(159.082031 0)"/>
      <use xlink:href="#Cmmi10-74" transform="translate(211.083984 0)"/>
     </g>
    </g>
   </g>
  </g>
 </g>
 <defs>
  <clipPath id="p62fd2b9683">
   <rect x="35.691294" y="7.2" width="397.700192" height="318.066357"/>
  </clipPath>
 </defs>
</svg>
