<?xml version="1.0" encoding="utf-8" standalone="no"?>
<!DOCTYPE svg PUBLIC "-//W3C//DTD SVG 1.1//EN"
  "http://www.w3.org/Graphics/SVG/1.1/DTD/svg11.dtd">
<svg xmlns:xlink="http://www.w3.org/1999/xlink" width="455.267854pt" height="344.32pt" viewBox="0 0 455.267854 344.32" xmlns="http://www.w3.org/2000/svg" version="1.1">
 <metadata>
  <rdf:RDF xmlns:dc="http://purl.org/dc/elements/1.1/" xmlns:cc="http://creativecommons.org/ns#" xmlns:rdf="http://www.w3.org/1999/02/22-rdf-syntax-ns#">
   <cc:Work>
    <dc:type rdf:resource="http://purl.org/dc/dcmitype/StillImage"/>
    <dc:date>2023-04-11T10:18:41.350818</dc:date>
    <dc:format>image/svg+xml</dc:format>
    <dc:creator>
     <cc:Agent>
      <dc:title>Matplotlib v3.5.1, https://matplotlib.org/</dc:title>
     </cc:Agent>
    </dc:creator>
   </cc:Work>
  </rdf:RDF>
 </metadata>
 <defs>
  <style type="text/css">*{stroke-linejoin: round; stroke-linecap: butt}</style>
 </defs>
 <g id="figure_1">
  <g id="patch_1">
   <path d="M 0 344.32 
L 455.267854 344.32 
L 455.267854 0 
L 0 0 
z
" style="fill: #ffffff"/>
  </g>
  <g id="axes_1">
   <g id="patch_2">
    <path d="M 108.538277 337.12 
L 434.147854 337.12 
L 434.147854 31.2 
L 108.538277 31.2 
z
" style="fill: #ffffff"/>
   </g>
   <g id="matplotlib.axis_1">
    <g id="xtick_1">
     <g id="line2d_1">
      <defs>
       <path id="me797ccadf0" d="M 0 0 
L 0 3.5 
" style="stroke: #000000; stroke-width: 0.8"/>
      </defs>
      <g>
       <use xlink:href="#me797ccadf0" x="114.8" y="184.162089" style="stroke: #000000; stroke-width: 0.8"/>
      </g>
     </g>
    </g>
    <g id="xtick_2">
     <g id="line2d_2">
      <g>
       <use xlink:href="#me797ccadf0" x="146.108613" y="184.162089" style="stroke: #000000; stroke-width: 0.8"/>
      </g>
     </g>
     <g id="text_1">
      <!-- $\pi$ -->
      <g transform="translate(143.258613 198.760527)scale(0.1 -0.1)">
       <defs>
        <path id="Cmmi10-bc" d="M 647 109 
Q 647 144 672 213 
Q 850 584 1004 942 
Q 1159 1300 1282 1639 
Q 1406 1978 1509 2363 
L 1100 2363 
Q 866 2363 662 2216 
Q 459 2069 325 1844 
Q 313 1819 288 1819 
L 213 1819 
Q 153 1819 153 1881 
Q 153 1894 166 1919 
Q 375 2275 614 2517 
Q 853 2759 1153 2759 
L 3475 2759 
Q 3541 2759 3587 2715 
Q 3634 2672 3634 2597 
Q 3634 2503 3567 2433 
Q 3500 2363 3406 2363 
L 2591 2363 
Q 2488 1859 2478 1381 
Q 2478 766 2694 269 
Q 2713 231 2713 191 
Q 2713 122 2672 62 
Q 2631 3 2567 -34 
Q 2503 -72 2431 -72 
Q 2263 -72 2200 203 
Q 2138 478 2138 738 
Q 2138 1103 2200 1442 
Q 2263 1781 2400 2363 
L 1703 2363 
Q 1197 313 1094 103 
Q 1003 -72 844 -72 
Q 766 -72 706 -20 
Q 647 31 647 109 
z
" transform="scale(0.015625)"/>
       </defs>
       <use xlink:href="#Cmmi10-bc" transform="translate(0 0.890625)"/>
      </g>
     </g>
    </g>
    <g id="xtick_3">
     <g id="line2d_3">
      <g>
       <use xlink:href="#me797ccadf0" x="177.417226" y="184.162089" style="stroke: #000000; stroke-width: 0.8"/>
      </g>
     </g>
     <g id="text_2">
      <!-- $2 \, \pi$ -->
      <g transform="translate(171.317226 198.760527)scale(0.1 -0.1)">
       <defs>
        <path id="Cmr10-32" d="M 319 0 
L 319 172 
Q 319 188 331 206 
L 1325 1306 
Q 1550 1550 1690 1715 
Q 1831 1881 1968 2097 
Q 2106 2313 2186 2536 
Q 2266 2759 2266 3009 
Q 2266 3272 2169 3511 
Q 2072 3750 1880 3894 
Q 1688 4038 1416 4038 
Q 1138 4038 916 3870 
Q 694 3703 603 3438 
Q 628 3444 672 3444 
Q 816 3444 917 3347 
Q 1019 3250 1019 3097 
Q 1019 2950 917 2848 
Q 816 2747 672 2747 
Q 522 2747 420 2851 
Q 319 2956 319 3097 
Q 319 3338 409 3548 
Q 500 3759 670 3923 
Q 841 4088 1055 4175 
Q 1269 4263 1509 4263 
Q 1875 4263 2190 4108 
Q 2506 3953 2690 3670 
Q 2875 3388 2875 3009 
Q 2875 2731 2753 2481 
Q 2631 2231 2440 2026 
Q 2250 1822 1953 1562 
Q 1656 1303 1563 1216 
L 838 519 
L 1453 519 
Q 1906 519 2211 526 
Q 2516 534 2534 550 
Q 2609 631 2688 1141 
L 2875 1141 
L 2694 0 
L 319 0 
z
" transform="scale(0.015625)"/>
       </defs>
       <use xlink:href="#Cmr10-32" transform="translate(0 0.390625)"/>
       <use xlink:href="#Cmmi10-bc" transform="translate(64.632454 0.390625)"/>
      </g>
     </g>
    </g>
    <g id="xtick_4">
     <g id="line2d_4">
      <g>
       <use xlink:href="#me797ccadf0" x="208.72584" y="184.162089" style="stroke: #000000; stroke-width: 0.8"/>
      </g>
     </g>
     <g id="text_3">
      <!-- $3 \, \pi$ -->
      <g transform="translate(202.62584 198.760527)scale(0.1 -0.1)">
       <defs>
        <path id="Cmr10-33" d="M 609 494 
Q 759 275 1012 169 
Q 1266 63 1556 63 
Q 1928 63 2084 380 
Q 2241 697 2241 1100 
Q 2241 1281 2208 1462 
Q 2175 1644 2097 1800 
Q 2019 1956 1883 2050 
Q 1747 2144 1550 2144 
L 1125 2144 
Q 1069 2144 1069 2203 
L 1069 2259 
Q 1069 2309 1125 2309 
L 1478 2338 
Q 1703 2338 1851 2506 
Q 2000 2675 2069 2917 
Q 2138 3159 2138 3378 
Q 2138 3684 1994 3881 
Q 1850 4078 1556 4078 
Q 1313 4078 1091 3986 
Q 869 3894 738 3706 
Q 750 3709 759 3711 
Q 769 3713 781 3713 
Q 925 3713 1022 3613 
Q 1119 3513 1119 3372 
Q 1119 3234 1022 3134 
Q 925 3034 781 3034 
Q 641 3034 541 3134 
Q 441 3234 441 3372 
Q 441 3647 606 3850 
Q 772 4053 1033 4158 
Q 1294 4263 1556 4263 
Q 1750 4263 1965 4205 
Q 2181 4147 2356 4039 
Q 2531 3931 2642 3762 
Q 2753 3594 2753 3378 
Q 2753 3109 2633 2881 
Q 2513 2653 2303 2487 
Q 2094 2322 1844 2241 
Q 2122 2188 2372 2031 
Q 2622 1875 2773 1631 
Q 2925 1388 2925 1106 
Q 2925 753 2731 467 
Q 2538 181 2222 20 
Q 1906 -141 1556 -141 
Q 1256 -141 954 -26 
Q 653 88 461 316 
Q 269 544 269 863 
Q 269 1022 375 1128 
Q 481 1234 641 1234 
Q 744 1234 830 1186 
Q 916 1138 964 1050 
Q 1013 963 1013 863 
Q 1013 706 903 600 
Q 794 494 641 494 
L 609 494 
z
" transform="scale(0.015625)"/>
       </defs>
       <use xlink:href="#Cmr10-33" transform="translate(0 0.390625)"/>
       <use xlink:href="#Cmmi10-bc" transform="translate(64.632454 0.390625)"/>
      </g>
     </g>
    </g>
    <g id="xtick_5">
     <g id="line2d_5">
      <g>
       <use xlink:href="#me797ccadf0" x="240.034453" y="184.162089" style="stroke: #000000; stroke-width: 0.8"/>
      </g>
     </g>
     <g id="text_4">
      <!-- $4 \, \pi$ -->
      <g transform="translate(233.934453 198.760527)scale(0.1 -0.1)">
       <defs>
        <path id="Cmr10-34" d="M 178 1056 
L 178 1281 
L 2156 4231 
Q 2178 4263 2222 4263 
L 2316 4263 
Q 2388 4263 2388 4191 
L 2388 1281 
L 3016 1281 
L 3016 1056 
L 2388 1056 
L 2388 428 
Q 2388 297 2575 261 
Q 2763 225 3009 225 
L 3009 0 
L 1247 0 
L 1247 225 
Q 1494 225 1681 261 
Q 1869 297 1869 428 
L 1869 1056 
L 178 1056 
z
M 391 1281 
L 1906 1281 
L 1906 3547 
L 391 1281 
z
" transform="scale(0.015625)"/>
       </defs>
       <use xlink:href="#Cmr10-34" transform="translate(0 0.390625)"/>
       <use xlink:href="#Cmmi10-bc" transform="translate(64.632454 0.390625)"/>
      </g>
     </g>
    </g>
    <g id="xtick_6">
     <g id="line2d_6">
      <g>
       <use xlink:href="#me797ccadf0" x="271.343066" y="184.162089" style="stroke: #000000; stroke-width: 0.8"/>
      </g>
     </g>
     <g id="text_5">
      <!-- $5 \, \pi$ -->
      <g transform="translate(265.243066 198.760527)scale(0.1 -0.1)">
       <defs>
        <path id="Cmr10-35" d="M 556 728 
Q 622 541 758 387 
Q 894 234 1080 148 
Q 1266 63 1466 63 
Q 1928 63 2103 422 
Q 2278 781 2278 1294 
Q 2278 1516 2270 1667 
Q 2263 1819 2228 1959 
Q 2169 2184 2020 2353 
Q 1872 2522 1656 2522 
Q 1441 2522 1286 2456 
Q 1131 2391 1034 2303 
Q 938 2216 863 2119 
Q 788 2022 769 2016 
L 697 2016 
Q 681 2016 657 2036 
Q 634 2056 634 2075 
L 634 4213 
Q 634 4228 654 4245 
Q 675 4263 697 4263 
L 716 4263 
Q 1147 4056 1631 4056 
Q 2106 4056 2547 4263 
L 2566 4263 
Q 2588 4263 2606 4247 
Q 2625 4231 2625 4213 
L 2625 4153 
Q 2625 4122 2613 4122 
Q 2394 3831 2064 3668 
Q 1734 3506 1381 3506 
Q 1125 3506 856 3578 
L 856 2369 
Q 1069 2541 1236 2614 
Q 1403 2688 1663 2688 
Q 2016 2688 2295 2484 
Q 2575 2281 2725 1954 
Q 2875 1628 2875 1288 
Q 2875 903 2686 575 
Q 2497 247 2172 53 
Q 1847 -141 1466 -141 
Q 1150 -141 886 21 
Q 622 184 470 459 
Q 319 734 319 1044 
Q 319 1188 412 1278 
Q 506 1369 647 1369 
Q 788 1369 883 1276 
Q 978 1184 978 1044 
Q 978 906 883 811 
Q 788 716 647 716 
Q 625 716 597 720 
Q 569 725 556 728 
z
" transform="scale(0.015625)"/>
       </defs>
       <use xlink:href="#Cmr10-35" transform="translate(0 0.390625)"/>
       <use xlink:href="#Cmmi10-bc" transform="translate(64.632454 0.390625)"/>
      </g>
     </g>
    </g>
    <g id="xtick_7">
     <g id="line2d_7">
      <g>
       <use xlink:href="#me797ccadf0" x="302.651679" y="184.162089" style="stroke: #000000; stroke-width: 0.8"/>
      </g>
     </g>
     <g id="text_6">
      <!-- $6 \, \pi$ -->
      <g transform="translate(296.551679 198.760527)scale(0.1 -0.1)">
       <defs>
        <path id="Cmr10-36" d="M 1600 -141 
Q 1203 -141 937 70 
Q 672 281 526 617 
Q 381 953 325 1322 
Q 269 1691 269 2069 
Q 269 2575 466 3084 
Q 663 3594 1045 3928 
Q 1428 4263 1953 4263 
Q 2172 4263 2361 4180 
Q 2550 4097 2658 3936 
Q 2766 3775 2766 3547 
Q 2766 3416 2677 3327 
Q 2588 3238 2456 3238 
Q 2331 3238 2240 3328 
Q 2150 3419 2150 3547 
Q 2150 3672 2240 3762 
Q 2331 3853 2456 3853 
L 2491 3853 
Q 2409 3969 2261 4023 
Q 2113 4078 1953 4078 
Q 1759 4078 1595 3993 
Q 1431 3909 1300 3765 
Q 1169 3622 1081 3448 
Q 994 3275 945 3053 
Q 897 2831 884 2637 
Q 872 2444 872 2150 
Q 984 2413 1190 2580 
Q 1397 2747 1656 2747 
Q 1941 2747 2175 2631 
Q 2409 2516 2578 2311 
Q 2747 2106 2836 1843 
Q 2925 1581 2925 1313 
Q 2925 938 2758 598 
Q 2591 259 2287 59 
Q 1984 -141 1600 -141 
z
M 1600 63 
Q 1847 63 1997 175 
Q 2147 288 2217 473 
Q 2288 659 2305 848 
Q 2322 1038 2322 1313 
Q 2322 1675 2287 1931 
Q 2253 2188 2100 2383 
Q 1947 2578 1631 2578 
Q 1372 2578 1205 2403 
Q 1038 2228 961 1961 
Q 884 1694 884 1447 
Q 884 1363 891 1319 
Q 891 1309 889 1303 
Q 888 1297 884 1288 
Q 884 1013 940 731 
Q 997 450 1156 256 
Q 1316 63 1600 63 
z
" transform="scale(0.015625)"/>
       </defs>
       <use xlink:href="#Cmr10-36" transform="translate(0 0.390625)"/>
       <use xlink:href="#Cmmi10-bc" transform="translate(64.632454 0.390625)"/>
      </g>
     </g>
    </g>
    <g id="xtick_8">
     <g id="line2d_8">
      <g>
       <use xlink:href="#me797ccadf0" x="333.960292" y="184.162089" style="stroke: #000000; stroke-width: 0.8"/>
      </g>
     </g>
     <g id="text_7">
      <!-- $7 \, \pi$ -->
      <g transform="translate(327.860292 198.760527)scale(0.1 -0.1)">
       <defs>
        <path id="Cmr10-37" d="M 1113 166 
Q 1113 522 1175 862 
Q 1238 1203 1358 1536 
Q 1478 1869 1648 2189 
Q 1819 2509 2022 2791 
L 2606 3603 
L 1875 3603 
Q 738 3603 703 3572 
Q 619 3469 544 2981 
L 359 2981 
L 569 4325 
L 756 4325 
L 756 4306 
Q 756 4191 1147 4156 
Q 1538 4122 1913 4122 
L 3103 4122 
L 3103 3956 
Q 3103 3950 3101 3947 
Q 3100 3944 3097 3938 
L 2216 2700 
Q 1891 2219 1809 1631 
Q 1728 1044 1728 166 
Q 1728 41 1637 -50 
Q 1547 -141 1422 -141 
Q 1294 -141 1203 -50 
Q 1113 41 1113 166 
z
" transform="scale(0.015625)"/>
       </defs>
       <use xlink:href="#Cmr10-37" transform="translate(0 0.421875)"/>
       <use xlink:href="#Cmmi10-bc" transform="translate(64.632454 0.421875)"/>
      </g>
     </g>
    </g>
    <g id="xtick_9">
     <g id="line2d_9">
      <g>
       <use xlink:href="#me797ccadf0" x="365.268905" y="184.162089" style="stroke: #000000; stroke-width: 0.8"/>
      </g>
     </g>
     <g id="text_8">
      <!-- $8 \, \pi$ -->
      <g transform="translate(359.168905 198.760527)scale(0.1 -0.1)">
       <defs>
        <path id="Cmr10-38" d="M 269 972 
Q 269 1356 522 1651 
Q 775 1947 1172 2144 
L 934 2297 
Q 716 2441 578 2680 
Q 441 2919 441 3181 
Q 441 3488 602 3734 
Q 763 3981 1030 4122 
Q 1297 4263 1600 4263 
Q 1884 4263 2148 4147 
Q 2413 4031 2583 3815 
Q 2753 3600 2753 3303 
Q 2753 3088 2651 2903 
Q 2550 2719 2373 2572 
Q 2197 2425 1997 2322 
L 2363 2088 
Q 2616 1922 2770 1653 
Q 2925 1384 2925 1088 
Q 2925 741 2739 456 
Q 2553 172 2247 15 
Q 1941 -141 1600 -141 
Q 1269 -141 961 -6 
Q 653 128 461 383 
Q 269 638 269 972 
z
M 616 972 
Q 616 719 755 509 
Q 894 300 1122 181 
Q 1350 63 1600 63 
Q 1972 63 2275 280 
Q 2578 497 2578 856 
Q 2578 978 2529 1098 
Q 2481 1219 2395 1317 
Q 2309 1416 2203 1478 
L 1344 2034 
Q 1144 1928 976 1765 
Q 809 1603 712 1400 
Q 616 1197 616 972 
z
M 1056 2925 
L 1831 2425 
Q 2100 2581 2272 2803 
Q 2444 3025 2444 3303 
Q 2444 3519 2323 3698 
Q 2203 3878 2009 3978 
Q 1816 4078 1594 4078 
Q 1400 4078 1203 4003 
Q 1006 3928 878 3779 
Q 750 3631 750 3431 
Q 750 3131 1056 2925 
z
" transform="scale(0.015625)"/>
       </defs>
       <use xlink:href="#Cmr10-38" transform="translate(0 0.390625)"/>
       <use xlink:href="#Cmmi10-bc" transform="translate(64.632454 0.390625)"/>
      </g>
     </g>
    </g>
    <g id="xtick_10">
     <g id="line2d_10">
      <g>
       <use xlink:href="#me797ccadf0" x="396.577519" y="184.162089" style="stroke: #000000; stroke-width: 0.8"/>
      </g>
     </g>
     <g id="text_9">
      <!-- $9 \, \pi$ -->
      <g transform="translate(390.477519 198.760527)scale(0.1 -0.1)">
       <defs>
        <path id="Cmr10-39" d="M 722 269 
Q 897 63 1331 63 
Q 1575 63 1786 228 
Q 1997 394 2113 634 
Q 2247 906 2284 1214 
Q 2322 1522 2322 1978 
Q 2213 1719 2008 1553 
Q 1803 1388 1538 1388 
Q 1166 1388 873 1589 
Q 581 1791 425 2120 
Q 269 2450 269 2822 
Q 269 3206 444 3539 
Q 619 3872 928 4067 
Q 1238 4263 1631 4263 
Q 2019 4263 2280 4052 
Q 2541 3841 2678 3508 
Q 2816 3175 2870 2803 
Q 2925 2431 2925 2069 
Q 2925 1575 2744 1061 
Q 2563 547 2202 203 
Q 1841 -141 1331 -141 
Q 953 -141 690 37 
Q 428 216 428 575 
Q 428 706 517 795 
Q 606 884 738 884 
Q 866 884 955 795 
Q 1044 706 1044 575 
Q 1044 450 953 359 
Q 863 269 738 269 
L 722 269 
z
M 1563 1556 
Q 1825 1556 1992 1732 
Q 2159 1909 2234 2171 
Q 2309 2434 2309 2694 
L 2309 2816 
L 2309 2841 
Q 2309 3322 2168 3700 
Q 2028 4078 1631 4078 
Q 1378 4078 1220 3967 
Q 1063 3856 988 3672 
Q 913 3488 892 3278 
Q 872 3069 872 2822 
Q 872 2459 906 2203 
Q 941 1947 1094 1751 
Q 1247 1556 1563 1556 
z
" transform="scale(0.015625)"/>
       </defs>
       <use xlink:href="#Cmr10-39" transform="translate(0 0.390625)"/>
       <use xlink:href="#Cmmi10-bc" transform="translate(64.632454 0.390625)"/>
      </g>
     </g>
    </g>
    <g id="xtick_11">
     <g id="line2d_11">
      <g>
       <use xlink:href="#me797ccadf0" x="427.886132" y="184.162089" style="stroke: #000000; stroke-width: 0.8"/>
      </g>
     </g>
     <g id="text_10">
      <!-- $10 \, \pi$ -->
      <g transform="translate(419.286132 198.760527)scale(0.1 -0.1)">
       <defs>
        <path id="Cmr10-31" d="M 594 0 
L 594 225 
Q 1394 225 1394 428 
L 1394 3788 
Q 1063 3628 556 3628 
L 556 3853 
Q 1341 3853 1741 4263 
L 1831 4263 
Q 1853 4263 1873 4245 
Q 1894 4228 1894 4206 
L 1894 428 
Q 1894 225 2694 225 
L 2694 0 
L 594 0 
z
" transform="scale(0.015625)"/>
        <path id="Cmr10-30" d="M 1600 -141 
Q 816 -141 533 504 
Q 250 1150 250 2041 
Q 250 2597 351 3087 
Q 453 3578 754 3920 
Q 1056 4263 1600 4263 
Q 2022 4263 2290 4056 
Q 2559 3850 2700 3523 
Q 2841 3197 2892 2823 
Q 2944 2450 2944 2041 
Q 2944 1491 2842 1011 
Q 2741 531 2444 195 
Q 2147 -141 1600 -141 
z
M 1600 25 
Q 1956 25 2131 390 
Q 2306 756 2347 1200 
Q 2388 1644 2388 2144 
Q 2388 2625 2347 3031 
Q 2306 3438 2132 3767 
Q 1959 4097 1600 4097 
Q 1238 4097 1063 3765 
Q 888 3434 847 3029 
Q 806 2625 806 2144 
Q 806 1788 823 1472 
Q 841 1156 916 820 
Q 991 484 1158 254 
Q 1325 25 1600 25 
z
" transform="scale(0.015625)"/>
       </defs>
       <use xlink:href="#Cmr10-31" transform="translate(0 0.390625)"/>
       <use xlink:href="#Cmr10-30" transform="translate(50 0.390625)"/>
       <use xlink:href="#Cmmi10-bc" transform="translate(114.632454 0.390625)"/>
      </g>
     </g>
    </g>
    <g id="xtick_12">
     <g id="line2d_12">
      <defs>
       <path id="m65d380d30d" d="M 0 0 
L 0 2 
" style="stroke: #000000; stroke-width: 0.6"/>
      </defs>
      <g>
       <use xlink:href="#m65d380d30d" x="122.627153" y="184.162089" style="stroke: #000000; stroke-width: 0.6"/>
      </g>
     </g>
    </g>
    <g id="xtick_13">
     <g id="line2d_13">
      <g>
       <use xlink:href="#m65d380d30d" x="130.454307" y="184.162089" style="stroke: #000000; stroke-width: 0.6"/>
      </g>
     </g>
    </g>
    <g id="xtick_14">
     <g id="line2d_14">
      <g>
       <use xlink:href="#m65d380d30d" x="138.28146" y="184.162089" style="stroke: #000000; stroke-width: 0.6"/>
      </g>
     </g>
    </g>
    <g id="xtick_15">
     <g id="line2d_15">
      <g>
       <use xlink:href="#m65d380d30d" x="153.935766" y="184.162089" style="stroke: #000000; stroke-width: 0.6"/>
      </g>
     </g>
    </g>
    <g id="xtick_16">
     <g id="line2d_16">
      <g>
       <use xlink:href="#m65d380d30d" x="161.76292" y="184.162089" style="stroke: #000000; stroke-width: 0.6"/>
      </g>
     </g>
    </g>
    <g id="xtick_17">
     <g id="line2d_17">
      <g>
       <use xlink:href="#m65d380d30d" x="169.590073" y="184.162089" style="stroke: #000000; stroke-width: 0.6"/>
      </g>
     </g>
    </g>
    <g id="xtick_18">
     <g id="line2d_18">
      <g>
       <use xlink:href="#m65d380d30d" x="185.24438" y="184.162089" style="stroke: #000000; stroke-width: 0.6"/>
      </g>
     </g>
    </g>
    <g id="xtick_19">
     <g id="line2d_19">
      <g>
       <use xlink:href="#m65d380d30d" x="193.071533" y="184.162089" style="stroke: #000000; stroke-width: 0.6"/>
      </g>
     </g>
    </g>
    <g id="xtick_20">
     <g id="line2d_20">
      <g>
       <use xlink:href="#m65d380d30d" x="200.898686" y="184.162089" style="stroke: #000000; stroke-width: 0.6"/>
      </g>
     </g>
    </g>
    <g id="xtick_21">
     <g id="line2d_21">
      <g>
       <use xlink:href="#m65d380d30d" x="216.552993" y="184.162089" style="stroke: #000000; stroke-width: 0.6"/>
      </g>
     </g>
    </g>
    <g id="xtick_22">
     <g id="line2d_22">
      <g>
       <use xlink:href="#m65d380d30d" x="224.380146" y="184.162089" style="stroke: #000000; stroke-width: 0.6"/>
      </g>
     </g>
    </g>
    <g id="xtick_23">
     <g id="line2d_23">
      <g>
       <use xlink:href="#m65d380d30d" x="232.207299" y="184.162089" style="stroke: #000000; stroke-width: 0.6"/>
      </g>
     </g>
    </g>
    <g id="xtick_24">
     <g id="line2d_24">
      <g>
       <use xlink:href="#m65d380d30d" x="247.861606" y="184.162089" style="stroke: #000000; stroke-width: 0.6"/>
      </g>
     </g>
    </g>
    <g id="xtick_25">
     <g id="line2d_25">
      <g>
       <use xlink:href="#m65d380d30d" x="255.688759" y="184.162089" style="stroke: #000000; stroke-width: 0.6"/>
      </g>
     </g>
    </g>
    <g id="xtick_26">
     <g id="line2d_26">
      <g>
       <use xlink:href="#m65d380d30d" x="263.515913" y="184.162089" style="stroke: #000000; stroke-width: 0.6"/>
      </g>
     </g>
    </g>
    <g id="xtick_27">
     <g id="line2d_27">
      <g>
       <use xlink:href="#m65d380d30d" x="279.170219" y="184.162089" style="stroke: #000000; stroke-width: 0.6"/>
      </g>
     </g>
    </g>
    <g id="xtick_28">
     <g id="line2d_28">
      <g>
       <use xlink:href="#m65d380d30d" x="286.997372" y="184.162089" style="stroke: #000000; stroke-width: 0.6"/>
      </g>
     </g>
    </g>
    <g id="xtick_29">
     <g id="line2d_29">
      <g>
       <use xlink:href="#m65d380d30d" x="294.824526" y="184.162089" style="stroke: #000000; stroke-width: 0.6"/>
      </g>
     </g>
    </g>
    <g id="xtick_30">
     <g id="line2d_30">
      <g>
       <use xlink:href="#m65d380d30d" x="310.478832" y="184.162089" style="stroke: #000000; stroke-width: 0.6"/>
      </g>
     </g>
    </g>
    <g id="xtick_31">
     <g id="line2d_31">
      <g>
       <use xlink:href="#m65d380d30d" x="318.305986" y="184.162089" style="stroke: #000000; stroke-width: 0.6"/>
      </g>
     </g>
    </g>
    <g id="xtick_32">
     <g id="line2d_32">
      <g>
       <use xlink:href="#m65d380d30d" x="326.133139" y="184.162089" style="stroke: #000000; stroke-width: 0.6"/>
      </g>
     </g>
    </g>
    <g id="xtick_33">
     <g id="line2d_33">
      <g>
       <use xlink:href="#m65d380d30d" x="341.787446" y="184.162089" style="stroke: #000000; stroke-width: 0.6"/>
      </g>
     </g>
    </g>
    <g id="xtick_34">
     <g id="line2d_34">
      <g>
       <use xlink:href="#m65d380d30d" x="349.614599" y="184.162089" style="stroke: #000000; stroke-width: 0.6"/>
      </g>
     </g>
    </g>
    <g id="xtick_35">
     <g id="line2d_35">
      <g>
       <use xlink:href="#m65d380d30d" x="357.441752" y="184.162089" style="stroke: #000000; stroke-width: 0.6"/>
      </g>
     </g>
    </g>
    <g id="xtick_36">
     <g id="line2d_36">
      <g>
       <use xlink:href="#m65d380d30d" x="373.096059" y="184.162089" style="stroke: #000000; stroke-width: 0.6"/>
      </g>
     </g>
    </g>
    <g id="xtick_37">
     <g id="line2d_37">
      <g>
       <use xlink:href="#m65d380d30d" x="380.923212" y="184.162089" style="stroke: #000000; stroke-width: 0.6"/>
      </g>
     </g>
    </g>
    <g id="xtick_38">
     <g id="line2d_38">
      <g>
       <use xlink:href="#m65d380d30d" x="388.750365" y="184.162089" style="stroke: #000000; stroke-width: 0.6"/>
      </g>
     </g>
    </g>
    <g id="xtick_39">
     <g id="line2d_39">
      <g>
       <use xlink:href="#m65d380d30d" x="404.404672" y="184.162089" style="stroke: #000000; stroke-width: 0.6"/>
      </g>
     </g>
    </g>
    <g id="xtick_40">
     <g id="line2d_40">
      <g>
       <use xlink:href="#m65d380d30d" x="412.231825" y="184.162089" style="stroke: #000000; stroke-width: 0.6"/>
      </g>
     </g>
    </g>
    <g id="xtick_41">
     <g id="line2d_41">
      <g>
       <use xlink:href="#m65d380d30d" x="420.058979" y="184.162089" style="stroke: #000000; stroke-width: 0.6"/>
      </g>
     </g>
    </g>
    <g id="text_11">
     <!-- $t$ -->
     <g transform="translate(442.147854 184.162089)scale(0.16 -0.16)">
      <defs>
       <path id="Cmmi10-74" d="M 397 519 
Q 397 613 416 697 
L 878 2534 
L 206 2534 
Q 141 2534 141 2619 
Q 166 2759 225 2759 
L 934 2759 
L 1191 3803 
Q 1216 3888 1291 3947 
Q 1366 4006 1459 4006 
Q 1541 4006 1595 3957 
Q 1650 3909 1650 3828 
Q 1650 3809 1648 3798 
Q 1647 3788 1644 3775 
L 1388 2759 
L 2047 2759 
Q 2113 2759 2113 2675 
Q 2109 2659 2100 2621 
Q 2091 2584 2075 2559 
Q 2059 2534 2028 2534 
L 1331 2534 
L 872 684 
Q 825 503 825 372 
Q 825 97 1013 97 
Q 1294 97 1511 361 
Q 1728 625 1844 941 
Q 1869 978 1894 978 
L 1972 978 
Q 1997 978 2012 961 
Q 2028 944 2028 922 
Q 2028 909 2022 903 
Q 1881 516 1612 222 
Q 1344 -72 997 -72 
Q 744 -72 570 93 
Q 397 259 397 519 
z
" transform="scale(0.015625)"/>
      </defs>
      <use xlink:href="#Cmmi10-74" transform="translate(0 0.40625)"/>
     </g>
    </g>
   </g>
   <g id="matplotlib.axis_2">
    <g id="ytick_1">
     <g id="line2d_42">
      <defs>
       <path id="maf171947a2" d="M 0 0 
L -3.5 0 
" style="stroke: #000000; stroke-width: 0.8"/>
      </defs>
      <g>
       <use xlink:href="#maf171947a2" x="114.8" y="322.048753" style="stroke: #000000; stroke-width: 0.8"/>
      </g>
     </g>
     <g id="text_12">
      <!-- $-0.30000000000000004$ -->
      <g transform="translate(7.2 325.847972)scale(0.1 -0.1)">
       <defs>
        <path id="Cmsy10-a1" d="M 653 1472 
Q 600 1472 565 1512 
Q 531 1553 531 1600 
Q 531 1647 565 1687 
Q 600 1728 653 1728 
L 4325 1728 
Q 4375 1728 4408 1687 
Q 4441 1647 4441 1600 
Q 4441 1553 4408 1512 
Q 4375 1472 4325 1472 
L 653 1472 
z
" transform="scale(0.015625)"/>
        <path id="Cmmi10-3a" d="M 538 353 
Q 538 497 644 600 
Q 750 703 891 703 
Q 978 703 1062 656 
Q 1147 609 1194 525 
Q 1241 441 1241 353 
Q 1241 213 1137 106 
Q 1034 0 891 0 
Q 750 0 644 106 
Q 538 213 538 353 
z
" transform="scale(0.015625)"/>
       </defs>
       <use xlink:href="#Cmsy10-a1" transform="translate(0 0.390625)"/>
       <use xlink:href="#Cmr10-30" transform="translate(77.685547 0.390625)"/>
       <use xlink:href="#Cmmi10-3a" transform="translate(127.685547 0.390625)"/>
       <use xlink:href="#Cmr10-33" transform="translate(155.371094 0.390625)"/>
       <use xlink:href="#Cmr10-30" transform="translate(205.371094 0.390625)"/>
       <use xlink:href="#Cmr10-30" transform="translate(255.371094 0.390625)"/>
       <use xlink:href="#Cmr10-30" transform="translate(305.371094 0.390625)"/>
       <use xlink:href="#Cmr10-30" transform="translate(355.371094 0.390625)"/>
       <use xlink:href="#Cmr10-30" transform="translate(405.371094 0.390625)"/>
       <use xlink:href="#Cmr10-30" transform="translate(455.371094 0.390625)"/>
       <use xlink:href="#Cmr10-30" transform="translate(505.371094 0.390625)"/>
       <use xlink:href="#Cmr10-30" transform="translate(555.371094 0.390625)"/>
       <use xlink:href="#Cmr10-30" transform="translate(605.371094 0.390625)"/>
       <use xlink:href="#Cmr10-30" transform="translate(655.371094 0.390625)"/>
       <use xlink:href="#Cmr10-30" transform="translate(705.371094 0.390625)"/>
       <use xlink:href="#Cmr10-30" transform="translate(755.371094 0.390625)"/>
       <use xlink:href="#Cmr10-30" transform="translate(805.371094 0.390625)"/>
       <use xlink:href="#Cmr10-30" transform="translate(855.371094 0.390625)"/>
       <use xlink:href="#Cmr10-30" transform="translate(905.371094 0.390625)"/>
       <use xlink:href="#Cmr10-34" transform="translate(955.371094 0.390625)"/>
      </g>
     </g>
    </g>
    <g id="ytick_2">
     <g id="line2d_43">
      <g>
       <use xlink:href="#maf171947a2" x="114.8" y="276.086532" style="stroke: #000000; stroke-width: 0.8"/>
      </g>
     </g>
     <g id="text_13">
      <!-- $-0.2$ -->
      <g transform="translate(87.2 279.885751)scale(0.1 -0.1)">
       <use xlink:href="#Cmsy10-a1" transform="translate(0 0.390625)"/>
       <use xlink:href="#Cmr10-30" transform="translate(77.685547 0.390625)"/>
       <use xlink:href="#Cmmi10-3a" transform="translate(127.685547 0.390625)"/>
       <use xlink:href="#Cmr10-32" transform="translate(155.371094 0.390625)"/>
      </g>
     </g>
    </g>
    <g id="ytick_3">
     <g id="line2d_44">
      <g>
       <use xlink:href="#maf171947a2" x="114.8" y="230.124311" style="stroke: #000000; stroke-width: 0.8"/>
      </g>
     </g>
     <g id="text_14">
      <!-- $-0.09999999999999998$ -->
      <g transform="translate(7.2 233.923529)scale(0.1 -0.1)">
       <use xlink:href="#Cmsy10-a1" transform="translate(0 0.390625)"/>
       <use xlink:href="#Cmr10-30" transform="translate(77.685547 0.390625)"/>
       <use xlink:href="#Cmmi10-3a" transform="translate(127.685547 0.390625)"/>
       <use xlink:href="#Cmr10-30" transform="translate(155.371094 0.390625)"/>
       <use xlink:href="#Cmr10-39" transform="translate(205.371094 0.390625)"/>
       <use xlink:href="#Cmr10-39" transform="translate(255.371094 0.390625)"/>
       <use xlink:href="#Cmr10-39" transform="translate(305.371094 0.390625)"/>
       <use xlink:href="#Cmr10-39" transform="translate(355.371094 0.390625)"/>
       <use xlink:href="#Cmr10-39" transform="translate(405.371094 0.390625)"/>
       <use xlink:href="#Cmr10-39" transform="translate(455.371094 0.390625)"/>
       <use xlink:href="#Cmr10-39" transform="translate(505.371094 0.390625)"/>
       <use xlink:href="#Cmr10-39" transform="translate(555.371094 0.390625)"/>
       <use xlink:href="#Cmr10-39" transform="translate(605.371094 0.390625)"/>
       <use xlink:href="#Cmr10-39" transform="translate(655.371094 0.390625)"/>
       <use xlink:href="#Cmr10-39" transform="translate(705.371094 0.390625)"/>
       <use xlink:href="#Cmr10-39" transform="translate(755.371094 0.390625)"/>
       <use xlink:href="#Cmr10-39" transform="translate(805.371094 0.390625)"/>
       <use xlink:href="#Cmr10-39" transform="translate(855.371094 0.390625)"/>
       <use xlink:href="#Cmr10-39" transform="translate(905.371094 0.390625)"/>
       <use xlink:href="#Cmr10-38" transform="translate(955.371094 0.390625)"/>
      </g>
     </g>
    </g>
    <g id="ytick_4">
     <g id="line2d_45">
      <g>
       <use xlink:href="#maf171947a2" x="114.8" y="184.162089" style="stroke: #000000; stroke-width: 0.8"/>
      </g>
     </g>
    </g>
    <g id="ytick_5">
     <g id="line2d_46">
      <g>
       <use xlink:href="#maf171947a2" x="114.8" y="138.199868" style="stroke: #000000; stroke-width: 0.8"/>
      </g>
     </g>
     <g id="text_15">
      <!-- $0.09999999999999998$ -->
      <g transform="translate(15 141.999087)scale(0.1 -0.1)">
       <use xlink:href="#Cmr10-30" transform="translate(0 0.390625)"/>
       <use xlink:href="#Cmmi10-3a" transform="translate(50 0.390625)"/>
       <use xlink:href="#Cmr10-30" transform="translate(77.685547 0.390625)"/>
       <use xlink:href="#Cmr10-39" transform="translate(127.685547 0.390625)"/>
       <use xlink:href="#Cmr10-39" transform="translate(177.685547 0.390625)"/>
       <use xlink:href="#Cmr10-39" transform="translate(227.685547 0.390625)"/>
       <use xlink:href="#Cmr10-39" transform="translate(277.685547 0.390625)"/>
       <use xlink:href="#Cmr10-39" transform="translate(327.685547 0.390625)"/>
       <use xlink:href="#Cmr10-39" transform="translate(377.685547 0.390625)"/>
       <use xlink:href="#Cmr10-39" transform="translate(427.685547 0.390625)"/>
       <use xlink:href="#Cmr10-39" transform="translate(477.685547 0.390625)"/>
       <use xlink:href="#Cmr10-39" transform="translate(527.685547 0.390625)"/>
       <use xlink:href="#Cmr10-39" transform="translate(577.685547 0.390625)"/>
       <use xlink:href="#Cmr10-39" transform="translate(627.685547 0.390625)"/>
       <use xlink:href="#Cmr10-39" transform="translate(677.685547 0.390625)"/>
       <use xlink:href="#Cmr10-39" transform="translate(727.685547 0.390625)"/>
       <use xlink:href="#Cmr10-39" transform="translate(777.685547 0.390625)"/>
       <use xlink:href="#Cmr10-39" transform="translate(827.685547 0.390625)"/>
       <use xlink:href="#Cmr10-38" transform="translate(877.685547 0.390625)"/>
      </g>
     </g>
    </g>
    <g id="ytick_6">
     <g id="line2d_47">
      <g>
       <use xlink:href="#maf171947a2" x="114.8" y="92.237647" style="stroke: #000000; stroke-width: 0.8"/>
      </g>
     </g>
     <g id="text_16">
      <!-- $0.20000000000000007$ -->
      <g transform="translate(15 96.036866)scale(0.1 -0.1)">
       <use xlink:href="#Cmr10-30" transform="translate(0 0.421875)"/>
       <use xlink:href="#Cmmi10-3a" transform="translate(50 0.421875)"/>
       <use xlink:href="#Cmr10-32" transform="translate(77.685547 0.421875)"/>
       <use xlink:href="#Cmr10-30" transform="translate(127.685547 0.421875)"/>
       <use xlink:href="#Cmr10-30" transform="translate(177.685547 0.421875)"/>
       <use xlink:href="#Cmr10-30" transform="translate(227.685547 0.421875)"/>
       <use xlink:href="#Cmr10-30" transform="translate(277.685547 0.421875)"/>
       <use xlink:href="#Cmr10-30" transform="translate(327.685547 0.421875)"/>
       <use xlink:href="#Cmr10-30" transform="translate(377.685547 0.421875)"/>
       <use xlink:href="#Cmr10-30" transform="translate(427.685547 0.421875)"/>
       <use xlink:href="#Cmr10-30" transform="translate(477.685547 0.421875)"/>
       <use xlink:href="#Cmr10-30" transform="translate(527.685547 0.421875)"/>
       <use xlink:href="#Cmr10-30" transform="translate(577.685547 0.421875)"/>
       <use xlink:href="#Cmr10-30" transform="translate(627.685547 0.421875)"/>
       <use xlink:href="#Cmr10-30" transform="translate(677.685547 0.421875)"/>
       <use xlink:href="#Cmr10-30" transform="translate(727.685547 0.421875)"/>
       <use xlink:href="#Cmr10-30" transform="translate(777.685547 0.421875)"/>
       <use xlink:href="#Cmr10-30" transform="translate(827.685547 0.421875)"/>
       <use xlink:href="#Cmr10-37" transform="translate(877.685547 0.421875)"/>
      </g>
     </g>
    </g>
    <g id="ytick_7">
     <g id="line2d_48">
      <g>
       <use xlink:href="#maf171947a2" x="114.8" y="46.275426" style="stroke: #000000; stroke-width: 0.8"/>
      </g>
     </g>
     <g id="text_17">
      <!-- $0.30000000000000004$ -->
      <g transform="translate(15 50.074644)scale(0.1 -0.1)">
       <use xlink:href="#Cmr10-30" transform="translate(0 0.390625)"/>
       <use xlink:href="#Cmmi10-3a" transform="translate(50 0.390625)"/>
       <use xlink:href="#Cmr10-33" transform="translate(77.685547 0.390625)"/>
       <use xlink:href="#Cmr10-30" transform="translate(127.685547 0.390625)"/>
       <use xlink:href="#Cmr10-30" transform="translate(177.685547 0.390625)"/>
       <use xlink:href="#Cmr10-30" transform="translate(227.685547 0.390625)"/>
       <use xlink:href="#Cmr10-30" transform="translate(277.685547 0.390625)"/>
       <use xlink:href="#Cmr10-30" transform="translate(327.685547 0.390625)"/>
       <use xlink:href="#Cmr10-30" transform="translate(377.685547 0.390625)"/>
       <use xlink:href="#Cmr10-30" transform="translate(427.685547 0.390625)"/>
       <use xlink:href="#Cmr10-30" transform="translate(477.685547 0.390625)"/>
       <use xlink:href="#Cmr10-30" transform="translate(527.685547 0.390625)"/>
       <use xlink:href="#Cmr10-30" transform="translate(577.685547 0.390625)"/>
       <use xlink:href="#Cmr10-30" transform="translate(627.685547 0.390625)"/>
       <use xlink:href="#Cmr10-30" transform="translate(677.685547 0.390625)"/>
       <use xlink:href="#Cmr10-30" transform="translate(727.685547 0.390625)"/>
       <use xlink:href="#Cmr10-30" transform="translate(777.685547 0.390625)"/>
       <use xlink:href="#Cmr10-30" transform="translate(827.685547 0.390625)"/>
       <use xlink:href="#Cmr10-34" transform="translate(877.685547 0.390625)"/>
      </g>
     </g>
    </g>
    <g id="ytick_8">
     <g id="line2d_49">
      <defs>
       <path id="m2c03bf4ee0" d="M 0 0 
L -2 0 
" style="stroke: #000000; stroke-width: 0.6"/>
      </defs>
      <g>
       <use xlink:href="#m2c03bf4ee0" x="114.8" y="331.241198" style="stroke: #000000; stroke-width: 0.6"/>
      </g>
     </g>
    </g>
    <g id="ytick_9">
     <g id="line2d_50">
      <g>
       <use xlink:href="#m2c03bf4ee0" x="114.8" y="312.856309" style="stroke: #000000; stroke-width: 0.6"/>
      </g>
     </g>
    </g>
    <g id="ytick_10">
     <g id="line2d_51">
      <g>
       <use xlink:href="#m2c03bf4ee0" x="114.8" y="303.663865" style="stroke: #000000; stroke-width: 0.6"/>
      </g>
     </g>
    </g>
    <g id="ytick_11">
     <g id="line2d_52">
      <g>
       <use xlink:href="#m2c03bf4ee0" x="114.8" y="294.471421" style="stroke: #000000; stroke-width: 0.6"/>
      </g>
     </g>
    </g>
    <g id="ytick_12">
     <g id="line2d_53">
      <g>
       <use xlink:href="#m2c03bf4ee0" x="114.8" y="285.278976" style="stroke: #000000; stroke-width: 0.6"/>
      </g>
     </g>
    </g>
    <g id="ytick_13">
     <g id="line2d_54">
      <g>
       <use xlink:href="#m2c03bf4ee0" x="114.8" y="266.894088" style="stroke: #000000; stroke-width: 0.6"/>
      </g>
     </g>
    </g>
    <g id="ytick_14">
     <g id="line2d_55">
      <g>
       <use xlink:href="#m2c03bf4ee0" x="114.8" y="257.701643" style="stroke: #000000; stroke-width: 0.6"/>
      </g>
     </g>
    </g>
    <g id="ytick_15">
     <g id="line2d_56">
      <g>
       <use xlink:href="#m2c03bf4ee0" x="114.8" y="248.509199" style="stroke: #000000; stroke-width: 0.6"/>
      </g>
     </g>
    </g>
    <g id="ytick_16">
     <g id="line2d_57">
      <g>
       <use xlink:href="#m2c03bf4ee0" x="114.8" y="239.316755" style="stroke: #000000; stroke-width: 0.6"/>
      </g>
     </g>
    </g>
    <g id="ytick_17">
     <g id="line2d_58">
      <g>
       <use xlink:href="#m2c03bf4ee0" x="114.8" y="220.931866" style="stroke: #000000; stroke-width: 0.6"/>
      </g>
     </g>
    </g>
    <g id="ytick_18">
     <g id="line2d_59">
      <g>
       <use xlink:href="#m2c03bf4ee0" x="114.8" y="211.739422" style="stroke: #000000; stroke-width: 0.6"/>
      </g>
     </g>
    </g>
    <g id="ytick_19">
     <g id="line2d_60">
      <g>
       <use xlink:href="#m2c03bf4ee0" x="114.8" y="202.546978" style="stroke: #000000; stroke-width: 0.6"/>
      </g>
     </g>
    </g>
    <g id="ytick_20">
     <g id="line2d_61">
      <g>
       <use xlink:href="#m2c03bf4ee0" x="114.8" y="193.354534" style="stroke: #000000; stroke-width: 0.6"/>
      </g>
     </g>
    </g>
    <g id="ytick_21">
     <g id="line2d_62">
      <g>
       <use xlink:href="#m2c03bf4ee0" x="114.8" y="174.969645" style="stroke: #000000; stroke-width: 0.6"/>
      </g>
     </g>
    </g>
    <g id="ytick_22">
     <g id="line2d_63">
      <g>
       <use xlink:href="#m2c03bf4ee0" x="114.8" y="165.777201" style="stroke: #000000; stroke-width: 0.6"/>
      </g>
     </g>
    </g>
    <g id="ytick_23">
     <g id="line2d_64">
      <g>
       <use xlink:href="#m2c03bf4ee0" x="114.8" y="156.584757" style="stroke: #000000; stroke-width: 0.6"/>
      </g>
     </g>
    </g>
    <g id="ytick_24">
     <g id="line2d_65">
      <g>
       <use xlink:href="#m2c03bf4ee0" x="114.8" y="147.392312" style="stroke: #000000; stroke-width: 0.6"/>
      </g>
     </g>
    </g>
    <g id="ytick_25">
     <g id="line2d_66">
      <g>
       <use xlink:href="#m2c03bf4ee0" x="114.8" y="129.007424" style="stroke: #000000; stroke-width: 0.6"/>
      </g>
     </g>
    </g>
    <g id="ytick_26">
     <g id="line2d_67">
      <g>
       <use xlink:href="#m2c03bf4ee0" x="114.8" y="119.81498" style="stroke: #000000; stroke-width: 0.6"/>
      </g>
     </g>
    </g>
    <g id="ytick_27">
     <g id="line2d_68">
      <g>
       <use xlink:href="#m2c03bf4ee0" x="114.8" y="110.622535" style="stroke: #000000; stroke-width: 0.6"/>
      </g>
     </g>
    </g>
    <g id="ytick_28">
     <g id="line2d_69">
      <g>
       <use xlink:href="#m2c03bf4ee0" x="114.8" y="101.430091" style="stroke: #000000; stroke-width: 0.6"/>
      </g>
     </g>
    </g>
    <g id="ytick_29">
     <g id="line2d_70">
      <g>
       <use xlink:href="#m2c03bf4ee0" x="114.8" y="83.045203" style="stroke: #000000; stroke-width: 0.6"/>
      </g>
     </g>
    </g>
    <g id="ytick_30">
     <g id="line2d_71">
      <g>
       <use xlink:href="#m2c03bf4ee0" x="114.8" y="73.852758" style="stroke: #000000; stroke-width: 0.6"/>
      </g>
     </g>
    </g>
    <g id="ytick_31">
     <g id="line2d_72">
      <g>
       <use xlink:href="#m2c03bf4ee0" x="114.8" y="64.660314" style="stroke: #000000; stroke-width: 0.6"/>
      </g>
     </g>
    </g>
    <g id="ytick_32">
     <g id="line2d_73">
      <g>
       <use xlink:href="#m2c03bf4ee0" x="114.8" y="55.46787" style="stroke: #000000; stroke-width: 0.6"/>
      </g>
     </g>
    </g>
    <g id="ytick_33">
     <g id="line2d_74">
      <g>
       <use xlink:href="#m2c03bf4ee0" x="114.8" y="37.082981" style="stroke: #000000; stroke-width: 0.6"/>
      </g>
     </g>
    </g>
    <g id="text_18">
     <!-- $x(t)$ -->
     <g transform="translate(101.12 19.2)scale(0.16 -0.16)">
      <defs>
       <path id="Cmmi10-78" d="M 500 184 
Q 613 97 819 97 
Q 1019 97 1172 289 
Q 1325 481 1381 709 
L 1672 1844 
Q 1741 2153 1741 2266 
Q 1741 2425 1652 2544 
Q 1563 2663 1403 2663 
Q 1200 2663 1022 2536 
Q 844 2409 722 2214 
Q 600 2019 550 1819 
Q 538 1778 500 1778 
L 422 1778 
Q 372 1778 372 1838 
L 372 1856 
Q 434 2094 584 2320 
Q 734 2547 951 2687 
Q 1169 2828 1416 2828 
Q 1650 2828 1839 2703 
Q 2028 2578 2106 2363 
Q 2216 2559 2386 2693 
Q 2556 2828 2759 2828 
Q 2897 2828 3040 2779 
Q 3184 2731 3275 2631 
Q 3366 2531 3366 2381 
Q 3366 2219 3261 2101 
Q 3156 1984 2994 1984 
Q 2891 1984 2822 2050 
Q 2753 2116 2753 2216 
Q 2753 2350 2845 2451 
Q 2938 2553 3066 2572 
Q 2950 2663 2747 2663 
Q 2541 2663 2389 2472 
Q 2238 2281 2175 2047 
L 1894 916 
Q 1825 659 1825 494 
Q 1825 331 1917 214 
Q 2009 97 2163 97 
Q 2463 97 2698 361 
Q 2934 625 3009 941 
Q 3022 978 3059 978 
L 3138 978 
Q 3163 978 3178 961 
Q 3194 944 3194 922 
Q 3194 916 3188 903 
Q 3097 522 2806 225 
Q 2516 -72 2150 -72 
Q 1916 -72 1727 54 
Q 1538 181 1459 397 
Q 1359 209 1182 68 
Q 1006 -72 806 -72 
Q 669 -72 523 -23 
Q 378 25 287 125 
Q 197 225 197 378 
Q 197 528 301 651 
Q 406 775 563 775 
Q 669 775 741 711 
Q 813 647 813 544 
Q 813 409 723 309 
Q 634 209 500 184 
z
" transform="scale(0.015625)"/>
       <path id="Cmr10-28" d="M 1984 -1588 
Q 1628 -1306 1370 -942 
Q 1113 -578 948 -165 
Q 784 247 703 697 
Q 622 1147 622 1600 
Q 622 2059 703 2509 
Q 784 2959 951 3375 
Q 1119 3791 1378 4153 
Q 1638 4516 1984 4788 
Q 1984 4800 2016 4800 
L 2075 4800 
Q 2094 4800 2109 4783 
Q 2125 4766 2125 4744 
Q 2125 4716 2113 4703 
Q 1800 4397 1592 4047 
Q 1384 3697 1257 3301 
Q 1131 2906 1075 2482 
Q 1019 2059 1019 1600 
Q 1019 -434 2106 -1491 
Q 2125 -1509 2125 -1544 
Q 2125 -1559 2108 -1579 
Q 2091 -1600 2075 -1600 
L 2016 -1600 
Q 1984 -1600 1984 -1588 
z
" transform="scale(0.015625)"/>
       <path id="Cmr10-29" d="M 416 -1600 
Q 359 -1600 359 -1544 
Q 359 -1516 372 -1503 
Q 1466 -434 1466 1600 
Q 1466 3634 384 4691 
Q 359 4706 359 4744 
Q 359 4766 376 4783 
Q 394 4800 416 4800 
L 475 4800 
Q 494 4800 506 4788 
Q 966 4425 1272 3906 
Q 1578 3388 1720 2800 
Q 1863 2213 1863 1600 
Q 1863 1147 1786 708 
Q 1709 269 1542 -157 
Q 1375 -584 1119 -945 
Q 863 -1306 506 -1588 
Q 494 -1600 475 -1600 
L 416 -1600 
z
" transform="scale(0.015625)"/>
      </defs>
      <use xlink:href="#Cmmi10-78"/>
      <use xlink:href="#Cmr10-28" transform="translate(57.080078 0)"/>
      <use xlink:href="#Cmmi10-74" transform="translate(95.898438 0)"/>
      <use xlink:href="#Cmr10-29" transform="translate(131.982422 0)"/>
     </g>
    </g>
   </g>
   <g id="line2d_75">
    <path d="M 114.8 184.162089 
L 115.363346 181.463507 
L 116.208365 173.976378 
L 116.490039 173.536381 
L 116.771712 175.158761 
L 117.053385 179.018133 
L 117.791991 196.784518 
L 118.161293 205.869014 
L 118.530596 211.515267 
L 118.771058 212.229099 
L 119.042102 209.65459 
L 119.313146 203.412384 
L 119.855234 182.040623 
L 120.668366 146.571628 
L 121.091608 138.534536 
L 121.243805 138.649505 
L 121.396003 140.512128 
L 121.700398 149.429507 
L 122.15699 173.77497 
L 123.222373 238.949762 
L 123.37457 243.734333 
L 123.608613 246.978856 
L 123.847294 244.693298 
L 124.085975 236.69259 
L 124.563337 205.953846 
L 125.713893 115.148964 
L 125.909726 107.949477 
L 126.105559 105.212387 
L 126.301392 107.24777 
L 126.497225 114.075411 
L 126.888891 140.695889 
L 128.424403 275.380868 
L 128.558371 277.792414 
L 128.692339 277.567887 
L 128.826307 274.67112 
L 129.094242 261.100723 
L 129.429388 231.406147 
L 130.837635 83.059135 
L 131.085515 76.922738 
L 131.209454 77.705131 
L 131.457334 87.024551 
L 131.829153 118.65694 
L 133.351109 297.081028 
L 133.616328 303.195623 
L 133.704735 302.326649 
L 133.881547 296.209432 
L 134.235173 267.637341 
L 135.804183 64.424854 
L 136.080941 55.315451 
L 136.173193 55.685633 
L 136.357699 61.59281 
L 136.634456 82.729683 
L 137.003466 129.752305 
L 138.144194 298.607042 
L 138.431514 317.625473 
L 138.555873 320.646747 
L 138.680231 320.353926 
L 138.80459 316.737883 
L 139.053307 299.906218 
L 139.435567 252.692301 
L 140.770992 54.177555 
L 141.038077 42.235238 
L 141.17162 42.159133 
L 141.305163 46.071396 
L 141.587129 66.858496 
L 142.0324 128.034915 
L 143.071365 298.292035 
L 143.368212 323.532128 
L 143.516636 329.126113 
L 143.665059 329.708336 
L 143.813483 325.249102 
L 144.093857 303.72012 
L 144.557454 237.842537 
L 145.639182 61.883938 
L 145.948247 40.052992 
L 146.102779 37.086925 
L 146.257312 39.637748 
L 146.566377 60.700308 
L 147.046787 127.755023 
L 148.132691 304.692633 
L 148.417913 325.889782 
L 148.560524 329.810012 
L 148.703134 329.072113 
L 148.845745 323.708175 
L 149.130967 299.967524 
L 149.558799 238.556599 
L 150.594536 70.599535 
L 150.904732 46.40027 
L 151.05983 41.976794 
L 151.214928 42.933699 
L 151.489373 57.513044 
L 151.847413 98.155669 
L 153.42279 317.156493 
L 153.659752 320.664142 
L 153.778234 317.899551 
L 154.015197 303.708694 
L 154.370641 263.761572 
L 155.58835 82.169229 
L 155.858207 61.659586 
L 156.128064 55.278201 
L 156.262992 57.614108 
L 156.532849 72.870615 
L 156.937635 117.874031 
L 158.166172 285.06568 
L 158.515348 302.377694 
L 158.689935 302.587325 
L 158.864523 297.155818 
L 159.213698 270.94823 
L 159.562873 229.224371 
L 160.610398 97.404503 
L 160.959573 78.713753 
L 161.061295 77.047145 
L 161.163018 77.136952 
L 161.366462 82.485061 
L 161.569906 94.279078 
L 161.976794 133.299377 
L 163.147388 262.745216 
L 163.483544 276.958632 
L 163.59546 278.018723 
L 163.707376 277.219227 
L 163.931208 270.240237 
L 164.155041 256.764272 
L 164.378873 238.026902 
L 165.457994 130.174312 
L 165.889643 107.88639 
L 166.105467 105.202794 
L 166.284502 107.388275 
L 166.642572 122.676557 
L 167.179678 164.578164 
L 167.895818 223.660314 
L 168.253888 241.500765 
L 168.432924 245.858342 
L 168.611959 246.969979 
L 168.790994 244.896799 
L 168.970029 239.862411 
L 170.767927 141.580532 
L 170.991004 138.547718 
L 171.214081 139.244949 
L 171.437159 143.377709 
L 171.975416 163.690647 
L 172.807772 200.372096 
L 173.10187 208.321646 
L 173.395968 212.030912 
L 173.690066 211.486211 
L 173.984164 207.317423 
L 175.365197 176.033741 
L 175.614567 173.918992 
L 175.863937 173.517821 
L 176.362677 176.622167 
L 177.033716 182.852757 
L 177.499365 184.099754 
L 177.965015 181.598498 
L 178.896313 173.695711 
L 179.188805 173.778789 
L 179.481296 176.180736 
L 179.773788 180.957278 
L 181.236248 212.086533 
L 181.508424 211.545266 
L 181.780601 207.302892 
L 182.324954 188.720563 
L 183.246852 147.832265 
L 183.554152 140.133809 
L 183.7502 138.395771 
L 183.946249 139.475181 
L 184.142297 143.466697 
L 184.534394 159.613139 
L 186.044491 244.917519 
L 186.198149 246.871812 
L 186.351808 246.493118 
L 186.505466 243.720676 
L 186.812783 231.214768 
L 187.273759 198.267749 
L 188.242195 119.745278 
L 188.611146 106.201359 
L 188.759724 105.226412 
L 188.908302 107.019871 
L 189.205458 118.812093 
L 189.651192 154.07483 
L 190.753574 261.881845 
L 191.121035 277.123786 
L 191.237756 278.020008 
L 191.354478 276.894084 
L 191.587921 268.605449 
L 191.821365 252.759456 
L 192.054808 230.536374 
L 193.342034 89.075288 
L 193.695486 76.957658 
L 193.872213 78.647669 
L 194.048939 85.593507 
L 194.402392 113.955743 
L 195.109297 206.795715 
L 195.639476 272.810359 
L 195.991599 298.127782 
L 196.166995 302.880746 
L 196.322948 302.308659 
L 196.4789 297.183998 
L 196.790804 274.039168 
L 197.102708 236.627173 
L 198.28823 73.969693 
L 198.579435 57.374692 
L 198.676504 55.479256 
L 198.773573 55.488796 
L 198.96771 61.234208 
L 199.258915 83.463888 
L 199.744258 148.862383 
L 200.760731 298.542585 
L 201.099026 319.242279 
L 201.197397 320.851475 
L 201.295767 320.380258 
L 201.492509 313.225164 
L 201.787621 287.897056 
L 202.181104 232.551234 
L 203.23734 67.422076 
L 203.568716 44.413196 
L 203.679175 41.928106 
L 203.789634 42.170554 
L 204.010552 50.797378 
L 204.341928 82.577129 
L 204.852634 163.208452 
L 205.746369 304.565387 
L 206.001722 324.385772 
L 206.257075 329.966283 
L 206.384751 327.163355 
L 206.690432 305.852205 
L 207.163415 239.762885 
L 208.16722 71.777278 
L 208.585472 39.360232 
L 208.752773 37.167031 
L 208.920074 41.433004 
L 209.171025 59.453973 
L 209.505626 102.063557 
L 210.873189 315.945149 
L 211.155246 329.499672 
L 211.296274 329.52418 
L 211.437303 325.00888 
L 211.719359 303.096534 
L 212.208204 233.080163 
L 213.242144 67.388904 
L 213.552326 45.114685 
L 213.741648 41.720184 
L 213.827577 42.828444 
L 213.999434 49.925659 
L 214.171292 63.199677 
L 214.515006 105.442257 
L 215.902133 309.640957 
L 216.151149 320.304491 
L 216.275657 320.678094 
L 216.400164 317.728511 
L 216.64918 302.293007 
L 217.022704 258.88561 
L 218.396748 66.246656 
L 218.675864 55.511666 
L 218.768902 55.422044 
L 218.954979 60.466022 
L 219.141056 72.146658 
L 219.51321 112.284807 
L 220.825042 288.261538 
L 221.138267 302.474887 
L 221.29488 302.759303 
L 221.451493 298.490065 
L 221.764719 277.323073 
L 222.077945 242.588131 
L 223.141771 104.844254 
L 223.442012 83.605096 
L 223.723552 76.870642 
L 223.854972 78.312628 
L 224.117811 89.5838 
L 224.380651 110.671004 
L 225.89319 270.083989 
L 226.205615 278.007006 
L 226.361827 276.547159 
L 226.674252 263.395952 
L 227.142889 223.647813 
L 228.130741 126.151475 
L 228.526086 107.409427 
L 228.657868 105.39157 
L 228.789649 105.55985 
L 228.921431 107.865232 
L 229.184994 118.402937 
L 229.71212 157.102973 
L 230.54806 225.889705 
L 231.030387 245.536183 
L 231.150969 246.883571 
L 231.27155 246.76129 
L 231.512714 242.297665 
L 231.995041 219.507737 
L 233.057881 152.677103 
L 233.348137 142.448461 
L 233.638394 138.427405 
L 233.817048 139.092998 
L 233.995701 141.984739 
L 234.353008 153.282858 
L 235.603584 205.680809 
L 235.960891 211.690913 
L 236.139544 212.294701 
L 236.496851 209.152426 
L 237.286817 190.226038 
L 237.681799 180.879159 
L 238.076782 175.024739 
L 238.502623 173.556374 
L 238.928465 176.142068 
L 239.780147 183.573635 
L 240.102694 184.11904 
L 240.425241 182.80463 
L 241.492037 173.770034 
L 241.913739 174.380224 
L 242.335441 179.880459 
L 243.731479 211.21009 
L 243.916005 212.277564 
L 244.100531 211.747977 
L 244.285057 209.513718 
L 244.469583 205.571075 
L 244.838635 193.098693 
L 246.035486 142.856441 
L 246.334698 138.495238 
L 246.484305 138.689912 
L 246.633911 140.574876 
L 246.933124 149.360318 
L 247.232336 164.088657 
L 248.464167 239.224803 
L 248.833716 246.951248 
L 248.956899 246.609856 
L 249.203266 241.31709 
L 249.539859 224.690887 
L 249.876452 199.490795 
L 250.83534 121.119679 
L 251.240079 106.025757 
L 251.359115 105.198267 
L 251.478152 106.145364 
L 251.716226 113.367178 
L 252.073336 136.461017 
L 253.626932 274.427982 
L 253.827366 277.989522 
L 253.927583 277.558616 
L 254.0278 275.630734 
L 254.228234 267.360903 
L 254.629102 235.028452 
L 256.094063 82.113488 
L 256.319442 76.92497 
L 256.432131 77.518591 
L 256.595 82.175224 
L 256.920737 104.25493 
L 257.409343 162.006297 
L 258.328106 279.4778 
L 258.62462 298.784032 
L 258.772876 302.744404 
L 258.921133 302.623576 
L 259.06939 298.381761 
L 259.365903 278.095076 
L 259.810673 223.800538 
L 260.858937 78.02582 
L 261.181116 57.853042 
L 261.288509 55.532952 
L 261.395902 55.542325 
L 261.610688 62.56084 
L 261.825474 78.504402 
L 262.320492 142.392655 
L 263.333801 294.243384 
L 263.710358 319.080335 
L 263.804497 320.781581 
L 263.898636 320.579086 
L 264.086914 314.472753 
L 264.369332 291.794586 
L 264.65175 255.420285 
L 266.0133 53.610573 
L 266.259826 42.450596 
L 266.383089 41.887086 
L 266.506352 44.727296 
L 266.74429 59.553083 
L 267.088317 100.144082 
L 268.548494 320.276878 
L 268.800709 329.883549 
L 268.884781 329.876788 
L 269.052924 325.012873 
L 269.305139 306.106727 
L 269.809569 234.810177 
L 270.818429 67.834903 
L 271.154715 41.174687 
L 271.329745 37.103542 
L 271.41726 37.720416 
L 271.602605 44.819477 
L 271.896094 71.11435 
L 272.287413 128.807899 
L 273.287547 295.86822 
L 273.613793 324.040898 
L 273.83129 330.065493 
L 273.940038 329.018681 
L 274.157536 318.922896 
L 274.483781 285.596906 
L 274.810027 235.711709 
L 275.869458 66.360615 
L 276.134316 46.625168 
L 276.266745 42.370903 
L 276.399174 42.034373 
L 276.531603 45.611628 
L 276.79646 63.952894 
L 277.223486 119.395618 
L 278.37123 297.340667 
L 278.635183 316.21938 
L 278.76716 320.28438 
L 278.899136 320.608801 
L 279.031113 317.203167 
L 279.295066 299.753268 
L 279.690995 251.49623 
L 280.9161 73.582459 
L 281.161204 58.650282 
L 281.306708 55.388554 
L 281.452212 56.423729 
L 281.743221 70.968912 
L 282.179734 118.918767 
L 283.343768 280.242552 
L 283.634996 299.124306 
L 283.829147 303.182615 
L 283.926223 302.559222 
L 284.120374 296.115382 
L 284.314526 283.184213 
L 284.702828 241.613306 
L 285.899093 93.247144 
L 286.233131 77.865294 
L 286.370375 76.941922 
L 286.507619 79.193246 
L 286.782107 92.699256 
L 287.056595 116.484943 
L 288.429035 265.701547 
L 288.729233 277.14945 
L 288.829299 278.018001 
L 288.984535 276.431313 
L 289.295006 263.176222 
L 289.760712 223.586866 
L 290.692124 130.198591 
L 291.002595 111.962907 
L 291.313066 105.216877 
L 291.499071 106.95346 
L 291.685076 112.800423 
L 292.057087 134.878705 
L 293.251666 230.96957 
L 293.702223 246.329586 
L 293.927501 246.415747 
L 294.15278 241.601245 
L 294.603337 220.054366 
L 295.705794 151.323326 
L 296.146777 139.185432 
L 296.367268 138.571415 
L 296.577805 141.251724 
L 296.998878 154.437586 
L 298.309352 207.763442 
L 298.526783 211.223245 
L 298.744214 212.303094 
L 298.961645 211.140623 
L 299.179076 208.05221 
L 300.379451 179.352669 
L 300.710102 174.878066 
L 301.040753 173.468646 
L 301.371404 174.727019 
L 302.363357 183.409364 
L 302.694008 184.145514 
L 303.188794 181.689678 
L 304.074528 173.910558 
L 304.465477 173.975775 
L 306.514093 212.238367 
L 306.738619 211.581869 
L 306.963145 208.399195 
L 307.412197 194.847715 
L 308.594333 144.371066 
L 309.020381 138.377314 
L 309.162397 139.251233 
L 309.446428 145.574699 
L 310.014492 174.147692 
L 311.083098 239.288056 
L 311.341744 245.990535 
L 311.471066 246.999843 
L 311.600389 246.338326 
L 311.859035 239.941183 
L 312.11768 227.143818 
L 312.376326 209.023269 
L 313.349346 127.585996 
L 313.805076 106.937177 
L 313.919009 105.377542 
L 314.032941 105.425658 
L 314.260806 110.421868 
L 314.488671 121.735693 
L 314.965986 162.068591 
L 315.96379 260.276449 
L 316.337966 276.817073 
L 316.462692 278.022289 
L 316.587417 276.921691 
L 316.815417 268.965906 
L 317.125242 246.746932 
L 317.538342 201.799369 
L 318.499151 94.26811 
L 318.768369 80.01409 
L 318.902978 77.165247 
L 319.037588 77.355692 
L 319.172197 80.618336 
L 319.441415 96.047867 
L 319.935292 149.675694 
L 321.031779 286.565049 
L 321.305138 300.965533 
L 321.441817 303.170828 
L 321.578496 301.880254 
L 321.851855 288.930767 
L 322.261893 246.700281 
L 323.6485 64.869097 
L 323.90677 55.521873 
L 323.99286 55.361006 
L 324.165041 59.551444 
L 324.509401 85.12191 
L 324.853762 129.545539 
L 326.021234 300.918507 
L 326.371476 320.109066 
L 326.488223 320.836718 
L 326.60497 318.629404 
L 326.721718 313.521358 
L 328.795105 44.700274 
L 328.963655 41.698584 
L 329.047931 42.582125 
L 329.216481 49.085455 
L 329.385032 61.653174 
L 329.722133 102.574231 
L 331.221327 323.60973 
L 331.47957 330.03756 
L 331.608691 327.534419 
L 331.866934 311.391897 
L 332.250344 263.727388 
L 333.716373 43.923392 
L 333.863838 38.159734 
L 334.011303 37.384408 
L 334.158768 41.624073 
L 334.453698 64.397881 
L 334.896093 127.351229 
L 335.991671 305.442696 
L 336.295102 326.92982 
L 336.428841 329.964694 
L 336.562581 328.898093 
L 336.83006 314.723618 
L 337.231279 267.244187 
L 338.691748 49.805721 
L 338.948561 41.715028 
L 339.034166 42.288328 
L 339.205374 48.307465 
L 339.462187 68.805063 
L 339.804605 113.767123 
L 341.000802 298.524383 
L 341.266623 316.834948 
L 341.399534 320.512366 
L 341.532445 320.392067 
L 341.665356 316.497302 
L 341.931177 297.999439 
L 342.348661 245.458805 
L 343.575954 70.170585 
L 343.894846 55.697306 
L 344.001144 55.403775 
L 344.107441 57.396525 
L 344.320036 68.005387 
L 344.532631 86.667141 
L 344.745226 111.963327 
L 346.005371 284.051828 
L 346.349047 302.030791 
L 346.463605 303.200885 
L 346.578164 301.909986 
L 346.830455 290.695849 
L 347.241436 251.380363 
L 348.510945 93.639635 
L 348.828322 78.311546 
L 348.987011 76.939051 
L 349.145699 79.807653 
L 349.463077 97.402208 
L 349.967619 149.847645 
L 350.832253 250.011829 
L 351.148209 271.044448 
L 351.434268 277.991844 
L 351.577298 276.914907 
L 351.863357 266.088623 
L 352.149416 245.331563 
L 353.461758 119.915066 
L 353.819669 106.232955 
L 353.938973 105.202424 
L 354.058277 105.955799 
L 354.253421 110.886695 
L 354.643709 132.63425 
L 356.149391 242.86437 
L 356.326045 246.404875 
L 356.502698 246.783959 
L 356.679352 244.096514 
L 357.032659 230.639481 
L 357.443184 205.604215 
L 358.264232 153.969074 
L 358.674756 140.478848 
L 358.873379 138.425897 
L 359.072002 139.315914 
L 359.270625 142.923412 
L 359.469249 148.857222 
L 360.966182 208.570707 
L 361.317403 212.272742 
L 361.668623 210.075865 
L 362.070965 202.114479 
L 362.875648 181.707709 
L 363.27799 175.351215 
L 363.679806 173.477775 
L 364.081623 175.435256 
L 364.885256 182.851839 
L 365.200041 184.118251 
L 365.514827 183.611187 
L 366.689013 173.922695 
L 366.961321 173.540927 
L 367.233629 175.091354 
L 367.505937 178.735169 
L 367.778245 184.269813 
L 368.68904 207.0671 
L 369.05522 211.915449 
L 369.23831 212.233514 
L 369.421399 210.916638 
L 369.787579 203.248878 
L 371.205184 144.548213 
L 371.505028 138.915179 
L 371.65495 138.402575 
L 371.804872 139.56681 
L 372.104715 146.980412 
L 372.404559 160.608568 
L 373.790404 242.290574 
L 373.963635 246.0553 
L 374.136866 246.949761 
L 374.310096 244.823783 
L 374.656558 231.645484 
L 375.17625 193.930976 
L 376.089909 119.967924 
L 376.401189 107.398449 
L 376.556829 105.265946 
L 376.712468 106.143256 
L 376.991256 115.287217 
L 377.360699 140.948079 
L 378.83847 273.656574 
L 379.085959 278.022401 
L 379.209704 276.828061 
L 379.457193 267.663781 
L 379.828426 238.578539 
L 381.257082 85.460668 
L 381.549548 76.945209 
L 381.695781 78.024267 
L 381.988247 90.916418 
L 382.402735 130.696973 
L 383.784362 295.293725 
L 384.060687 303.176173 
L 384.19885 301.809643 
L 384.423656 292.009529 
L 384.760866 261.267022 
L 385.098076 216.030957 
L 386.11902 75.746663 
L 386.425304 57.547901 
L 386.527398 55.486978 
L 386.629492 55.532905 
L 386.830718 61.801861 
L 387.128112 85.277544 
L 387.524638 137.687782 
L 388.628066 299.985035 
L 388.938445 318.897193 
L 389.093634 320.896578 
L 389.248823 317.717274 
L 389.559201 296.376611 
L 389.918871 250.515672 
L 391.177718 59.102681 
L 391.447471 43.553832 
L 391.537389 41.86626 
L 391.627307 41.988189 
L 391.807142 47.647748 
L 392.076895 69.024781 
L 392.614161 147.264725 
L 393.564191 300.963378 
L 393.920452 327.281881 
L 394.039206 329.920412 
L 394.15796 329.32734 
L 394.395467 318.552032 
L 394.753182 280.455714 
L 395.231104 201.436304 
L 396.067468 66.207158 
L 396.425909 39.738448 
L 396.565506 37.099701 
L 396.705104 38.965215 
L 396.984299 55.841969 
L 397.403091 109.202247 
L 398.716633 315.289461 
L 399.0368 329.886388 
L 399.143523 329.592891 
L 399.364386 320.778464 
L 399.706807 287.086008 
L 400.16337 214.993844 
L 401.076494 69.199405 
L 401.446379 43.660288 
L 401.53885 41.874754 
L 401.631321 42.00659 
L 401.816264 47.971225 
L 402.093677 70.312944 
L 402.556033 135.291998 
L 403.574552 294.233061 
L 403.865557 316.034882 
L 404.01106 320.432366 
L 404.156562 320.282237 
L 404.302065 315.615584 
L 404.59307 293.604162 
L 404.884076 257.504423 
L 406.104198 77.660914 
L 406.4409 57.17745 
L 406.553134 55.31149 
L 406.665368 56.004847 
L 406.889836 64.901159 
L 407.226538 95.115729 
L 407.761228 170.539459 
L 408.563262 278.887828 
L 408.830606 297.470953 
L 409.097951 303.163805 
L 409.231623 300.99561 
L 409.468118 289.3111 
L 409.776584 260.938934 
L 411.208804 88.213729 
L 411.549114 76.931067 
L 411.719269 78.602706 
L 411.889425 85.019779 
L 412.229735 110.422236 
L 412.910355 190.750822 
L 413.565688 259.249163 
L 413.827822 273.586545 
L 414.096297 277.979113 
L 414.233707 276.098929 
L 414.508526 264.458631 
L 414.783344 243.871331 
L 416.170809 114.940822 
L 416.44897 106.046925 
L 416.588051 105.230354 
L 416.727131 106.823674 
L 417.005293 116.766974 
L 417.283454 134.279581 
L 418.695351 240.550578 
L 419.016395 246.943422 
L 419.176918 246.243066 
L 419.33744 243.061382 
L 419.658484 230.19839 
L 421.234015 141.642972 
L 421.467375 138.511561 
L 421.700735 139.453799 
L 421.934096 144.114497 
L 422.485455 165.607391 
L 423.245204 199.293705 
L 423.625079 209.335609 
L 423.815016 211.709878 
L 424.004954 212.276962 
L 424.223438 210.849914 
L 424.441922 207.529351 
L 425.752826 177.104974 
L 426.019489 174.292686 
L 426.286152 173.471757 
L 426.819479 176.507264 
L 427.352805 181.72175 
L 427.886132 184.162089 
L 427.886132 184.162089 
" clip-path="url(#p36898d870a)" style="fill: none; stroke: #0000ff; stroke-linecap: square"/>
   </g>
   <g id="line2d_76">
    <path d="M 114.8 184.162089 
L 120.81266 140.463569 
L 122.168784 131.016873 
L 126.116113 105.072916 
L 129.047709 87.753654 
L 132.094604 71.964259 
L 133.200738 66.86203 
L 135.370737 57.915434 
L 138.122385 48.732244 
L 140.419966 43.032763 
L 141.384521 41.194817 
L 143.552504 38.290786 
L 145.128795 37.260661 
L 147.046437 37.245759 
L 148.463168 38.108033 
L 148.926186 38.550082 
L 151.218535 41.890064 
L 152.212309 43.925599 
L 154.755598 50.708099 
L 156.619661 57.064884 
L 158.147629 63.106793 
L 161.316823 77.860029 
L 164.691331 96.507036 
L 166.117615 105.17561 
L 170.396351 133.418659 
L 173.013984 151.933498 
L 185.121583 239.608604 
L 186.769091 250.666746 
L 190.015423 271.05867 
L 192.945438 287.5027 
L 195.867001 301.680089 
L 197.63586 309.056097 
L 200.00135 317.374667 
L 201.512319 321.71363 
L 202.471989 324.060574 
L 203.775171 326.727558 
L 206.248833 330.106897 
L 206.873586 330.606566 
L 209.302079 331.179735 
L 211.519836 329.798506 
L 213.378307 327.252538 
L 215.236943 323.463039 
L 217.331714 317.743314 
L 218.221733 314.86268 
L 220.832619 304.932689 
L 223.275559 293.763688 
L 224.480195 287.639377 
L 227.845513 268.603987 
L 230.483684 251.972539 
L 234.739994 222.772931 
L 240.492018 180.785935 
L 244.816576 149.211612 
L 249.140385 119.281115 
L 249.593908 116.294763 
L 252.296733 99.277655 
L 254.935943 84.162778 
L 255.866252 79.239459 
L 258.701152 65.68853 
L 260.0064 60.239005 
L 261.590212 54.341916 
L 262.696232 50.707628 
L 264.225052 46.3626 
L 265.631804 43.079838 
L 266.768584 40.939626 
L 268.396452 38.687292 
L 269.966315 37.43371 
L 272.907878 37.536019 
L 274.027397 38.414811 
L 275.102446 39.691403 
L 276.081639 41.219945 
L 277.948084 45.085066 
L 280.56527 52.547654 
L 282.485438 59.472697 
L 285.025139 70.396133 
L 287.679133 83.778924 
L 290.547085 100.230546 
L 294.221904 123.795355 
L 296.643113 140.492414 
L 301.456832 175.350397 
L 307.890279 222.375046 
L 310.887569 243.221341 
L 314.846922 268.642063 
L 317.325547 282.9232 
L 319.791975 295.620318 
L 321.724843 304.388266 
L 324.645862 315.471346 
L 325.980049 319.609155 
L 327.268327 323.029047 
L 329.010824 326.729735 
L 330.263552 328.71873 
L 331.342162 329.974155 
L 333.583229 331.21488 
L 334.810563 331.10739 
L 335.968162 330.495544 
L 338.864476 326.811496 
L 340.397722 323.63654 
L 342.472698 318.030478 
L 343.742048 313.881887 
L 346.465258 303.231687 
L 348.446104 294.077599 
L 350.663137 282.550254 
L 353.648145 265.137307 
L 354.994676 256.664122 
L 358.308654 234.485396 
L 362.771042 202.546015 
L 371.576281 138.391874 
L 375.332815 113.014391 
L 377.685473 98.350446 
L 380.767921 80.974888 
L 382.873218 70.500158 
L 384.590338 62.889962 
L 386.875605 54.165661 
L 389.189783 47.07097 
L 390.3386 44.229638 
L 391.88939 41.132739 
L 393.528145 38.800917 
L 395.420128 37.330878 
L 396.600253 37.083077 
L 398.31135 37.639107 
L 400.416942 39.803313 
L 402.133588 42.760446 
L 404.769522 49.331714 
L 406.74375 55.803471 
L 408.288044 61.746593 
L 411.350119 75.664079 
L 413.472129 86.830301 
L 417.2172 109.140327 
L 419.28865 122.669007 
L 424.057127 156.080716 
L 427.886132 184.162089 
L 427.886132 184.162089 
" clip-path="url(#p36898d870a)" style="fill: none; stroke: #ff0000; stroke-width: 3; stroke-linecap: square"/>
   </g>
   <g id="line2d_77">
    <path d="M 114.8 184.162089 
L 120.126645 223.002056 
L 123.590003 246.942799 
L 126.972705 268.505869 
L 128.611206 278.115061 
L 130.411442 287.938824 
L 132.148679 296.617514 
L 134.684696 307.737213 
L 136.976455 316.071767 
L 139.410704 323.014588 
L 141.146715 326.707165 
L 143.482422 329.966353 
L 143.912338 330.349193 
L 146.43295 331.221725 
L 147.525569 330.869694 
L 148.867193 329.834792 
L 150.582656 327.551345 
L 152.239078 324.338905 
L 153.861846 320.253276 
L 155.41127 315.510462 
L 157.634458 307.327725 
L 158.611953 303.238733 
L 162.030272 286.758403 
L 164.665964 271.967381 
L 166.780497 258.979363 
L 170.680102 232.935159 
L 175.605454 197.513049 
L 182.193232 149.255461 
L 185.387102 126.905796 
L 188.261061 108.033116 
L 191.226564 90.219724 
L 194.645579 72.280979 
L 196.988181 61.857692 
L 199.22743 53.470014 
L 201.388878 46.935698 
L 203.589784 41.939087 
L 204.6833 40.097738 
L 205.939938 38.517339 
L 208.334845 37.11128 
L 209.129959 37.113211 
L 211.065427 38.095057 
L 213.374141 41.064533 
L 215.212748 44.803951 
L 218.433296 54.184799 
L 220.025488 60.092094 
L 221.1029 64.540881 
L 223.506379 75.70364 
L 226.291717 90.598403 
L 228.129899 101.446937 
L 230.582296 116.998186 
L 233.907122 139.656332 
L 239.946344 183.511922 
L 245.069205 220.920507 
L 249.156063 249.146873 
L 251.198598 262.303505 
L 254.471471 281.621141 
L 257.374608 296.576967 
L 259.547781 306.229786 
L 261.174967 312.513978 
L 262.493467 316.980723 
L 264.641885 323.006626 
L 265.396966 324.744776 
L 267.319249 328.254206 
L 268.267968 329.494212 
L 270.067436 330.940081 
L 271.495025 331.236923 
L 273.619873 330.282651 
L 274.56941 329.318523 
L 277.076939 325.197092 
L 278.486395 321.896164 
L 279.862452 318.009133 
L 282.276914 309.660727 
L 283.13299 306.251849 
L 284.974966 298.16234 
L 286.494168 290.754953 
L 288.173146 281.850364 
L 291.583074 261.705337 
L 294.226479 244.498037 
L 298.011285 218.095808 
L 304.005895 174.176799 
L 307.768719 146.816043 
L 311.381652 121.782255 
L 315.458379 96.028953 
L 318.031029 81.605986 
L 320.43506 69.666136 
L 323.374173 57.344567 
L 325.49582 50.147578 
L 328.027507 43.550556 
L 330.154993 39.755318 
L 331.582065 38.128723 
L 332.832006 37.318571 
L 335.706027 37.646764 
L 337.05034 38.84696 
L 338.766093 41.337589 
L 339.259037 42.249759 
L 341.729494 48.115637 
L 342.549928 50.530765 
L 343.72605 54.386697 
L 345.577433 61.365964 
L 347.418629 69.356937 
L 348.798259 75.990317 
L 351.81012 92.224522 
L 355.116195 112.441596 
L 358.352892 134.145645 
L 364.062328 175.263995 
L 369.601633 215.882785 
L 373.990141 246.48353 
L 376.131929 260.412179 
L 378.740759 276.174906 
L 381.529537 291.277837 
L 384.011328 302.965914 
L 386.694771 313.528993 
L 389.122368 321.072232 
L 390.76848 325.038719 
L 392.368547 327.974036 
L 393.612814 329.617164 
L 394.242422 330.232999 
L 396.352297 331.231808 
L 398.128584 330.796081 
L 400.11791 328.927038 
L 400.530881 328.35755 
L 403.260863 323.049993 
L 405.004851 318.28929 
L 406.048996 314.945211 
L 408.317758 306.455912 
L 411.375091 292.535602 
L 415.156422 271.83974 
L 417.702949 256.078819 
L 422.233854 225.314369 
L 427.886132 184.162089 
L 427.886132 184.162089 
" clip-path="url(#p36898d870a)" style="fill: none; stroke: #ff0000; stroke-width: 3; stroke-linecap: square"/>
   </g>
   <g id="patch_3">
    <path d="M 114.8 337.12 
L 114.8 31.2 
" style="fill: none; stroke: #000000; stroke-width: 0.8; stroke-linejoin: miter; stroke-linecap: square"/>
   </g>
   <g id="patch_4">
    <path d="M 108.538277 184.162089 
L 434.147854 184.162089 
" style="fill: none; stroke: #000000; stroke-width: 0.8; stroke-linejoin: miter; stroke-linecap: square"/>
   </g>
   <g id="legend_1">
    <g id="patch_5">
     <path d="M 115.538277 70.596875 
L 196.238277 70.596875 
L 196.238277 38.2 
L 115.538277 38.2 
z
" style="fill: #4c4c4c; opacity: 0.5; stroke: #4c4c4c; stroke-linejoin: miter"/>
    </g>
    <g id="patch_6">
     <path d="M 113.538277 68.596875 
L 194.238277 68.596875 
L 194.238277 36.2 
L 113.538277 36.2 
z
" style="fill: #ffffff; stroke: #cccccc; stroke-linejoin: miter"/>
    </g>
    <g id="line2d_78">
     <path d="M 122.538277 46.298438 
L 117.038277 46.298438 
" style="fill: none; stroke: #0000ff; stroke-linecap: square"/>
    </g>
    <g id="text_19">
     <!-- $x(t)$ -->
     <g transform="translate(125.038277 49.798438)scale(0.1 -0.1)">
      <use xlink:href="#Cmmi10-78"/>
      <use xlink:href="#Cmr10-28" transform="translate(57.080078 0)"/>
      <use xlink:href="#Cmmi10-74" transform="translate(95.898438 0)"/>
      <use xlink:href="#Cmr10-29" transform="translate(131.982422 0)"/>
     </g>
    </g>
    <g id="line2d_79">
     <path d="M 122.538277 56.596875 
L 117.038277 56.596875 
" style="fill: none; stroke: #ff0000; stroke-width: 3; stroke-linecap: square"/>
    </g>
    <g id="text_20">
     <!-- $|(A/2 \overline{\omega} \delta) \sin \delta t|$ -->
     <g transform="translate(125.038277 60.096875)scale(0.1 -0.1)">
      <defs>
       <path id="Cmsy10-6a" d="M 763 -1484 
L 763 4684 
Q 763 4734 800 4767 
Q 838 4800 891 4800 
Q 938 4800 978 4767 
Q 1019 4734 1019 4684 
L 1019 -1484 
Q 1019 -1534 978 -1567 
Q 938 -1600 891 -1600 
Q 838 -1600 800 -1567 
Q 763 -1534 763 -1484 
z
" transform="scale(0.015625)"/>
       <path id="Cmmi10-41" d="M 288 0 
Q 225 0 225 84 
Q 250 225 306 225 
Q 566 225 755 328 
Q 944 431 1081 647 
Q 1094 659 1094 659 
L 3378 4513 
Q 3428 4581 3500 4581 
L 3584 4581 
Q 3603 4581 3622 4573 
Q 3641 4566 3655 4548 
Q 3669 4531 3669 4513 
L 4056 378 
Q 4056 350 4084 294 
Q 4147 225 4563 225 
Q 4628 225 4628 141 
Q 4606 56 4592 28 
Q 4578 0 4519 0 
L 2919 0 
Q 2859 0 2859 84 
Q 2894 225 2944 225 
Q 3450 225 3481 397 
L 3384 1453 
L 1806 1453 
L 1294 594 
Q 1247 525 1247 434 
Q 1247 322 1355 273 
Q 1463 225 1594 225 
Q 1656 225 1656 141 
Q 1634 50 1621 25 
Q 1609 0 1550 0 
L 288 0 
z
M 1931 1678 
L 3359 1678 
L 3169 3750 
L 1931 1678 
z
" transform="scale(0.015625)"/>
       <path id="Cmmi10-3d" d="M 359 -1472 
Q 359 -1453 366 -1447 
L 2591 4722 
Q 2603 4759 2634 4779 
Q 2666 4800 2706 4800 
Q 2763 4800 2798 4765 
Q 2834 4731 2834 4672 
L 2834 4647 
L 609 -1522 
Q 572 -1600 488 -1600 
Q 434 -1600 396 -1562 
Q 359 -1525 359 -1472 
z
" transform="scale(0.015625)"/>
       <path id="Cmmi10-21" d="M 775 -72 
Q 413 -72 252 193 
Q 91 459 91 844 
Q 91 1097 136 1339 
Q 181 1581 273 1829 
Q 366 2078 484 2295 
Q 603 2513 750 2719 
Q 778 2759 825 2759 
Q 866 2759 891 2734 
Q 916 2709 916 2675 
Q 916 2641 897 2613 
Q 313 1809 313 1131 
Q 313 838 448 627 
Q 584 416 863 416 
Q 1103 416 1308 556 
Q 1513 697 1663 916 
Q 1663 1028 1702 1265 
Q 1741 1503 1823 1689 
Q 1906 1875 2022 1875 
Q 2169 1875 2169 1703 
Q 2169 1603 2126 1451 
Q 2084 1300 2032 1169 
Q 1981 1038 1906 872 
Q 1981 416 2363 416 
Q 2584 416 2807 544 
Q 3031 672 3203 880 
Q 3375 1088 3473 1328 
Q 3572 1569 3572 1784 
Q 3572 1978 3511 2086 
Q 3450 2194 3350 2312 
Q 3250 2431 3250 2503 
Q 3250 2628 3356 2731 
Q 3463 2834 3584 2834 
Q 3741 2834 3806 2692 
Q 3872 2550 3872 2369 
Q 3872 2075 3755 1628 
Q 3638 1181 3488 884 
Q 3281 481 2970 204 
Q 2659 -72 2272 -72 
Q 2025 -72 1873 76 
Q 1722 225 1678 481 
Q 1500 228 1272 78 
Q 1044 -72 775 -72 
z
" transform="scale(0.015625)"/>
       <path id="Cmmi10-b1" d="M 1281 -97 
Q 1059 -97 868 -14 
Q 678 69 536 225 
Q 394 381 325 573 
Q 256 766 256 991 
Q 256 1391 445 1767 
Q 634 2144 961 2419 
Q 1288 2694 1672 2791 
Q 1484 3138 1386 3389 
Q 1288 3641 1288 3903 
Q 1288 4097 1378 4245 
Q 1469 4394 1628 4478 
Q 1788 4563 1984 4563 
Q 2175 4563 2741 4434 
Q 2888 4400 2888 4263 
Q 2888 4156 2809 4068 
Q 2731 3981 2625 3981 
Q 2547 3981 2484 4017 
Q 2422 4053 2287 4143 
Q 2153 4234 2047 4282 
Q 1941 4331 1825 4331 
Q 1694 4331 1589 4251 
Q 1484 4172 1484 4044 
Q 1484 3841 1664 3577 
Q 1844 3313 2175 2900 
Q 2553 2419 2553 1838 
Q 2553 1550 2470 1215 
Q 2388 881 2230 584 
Q 2072 288 1826 95 
Q 1581 -97 1281 -97 
z
M 1294 78 
Q 1544 78 1723 337 
Q 1903 597 1995 955 
Q 2088 1313 2088 1556 
Q 2088 2034 1753 2631 
Q 1416 2538 1172 2238 
Q 928 1938 803 1547 
Q 678 1156 678 806 
Q 678 500 837 289 
Q 997 78 1294 78 
z
" transform="scale(0.015625)"/>
       <path id="Cmr10-73" d="M 213 -19 
L 213 1025 
Q 213 1075 269 1075 
L 347 1075 
Q 384 1075 397 1025 
Q 575 97 1259 97 
Q 1563 97 1767 234 
Q 1972 372 1972 659 
Q 1972 866 1812 1011 
Q 1653 1156 1434 1209 
L 1006 1294 
Q 791 1341 614 1437 
Q 438 1534 325 1695 
Q 213 1856 213 2069 
Q 213 2350 361 2529 
Q 509 2709 746 2789 
Q 984 2869 1259 2869 
Q 1588 2869 1831 2694 
L 2016 2853 
Q 2016 2869 2047 2869 
L 2094 2869 
Q 2113 2869 2128 2851 
Q 2144 2834 2144 2816 
L 2144 1978 
Q 2144 1919 2094 1919 
L 2016 1919 
Q 1959 1919 1959 1978 
Q 1959 2313 1773 2516 
Q 1588 2719 1253 2719 
Q 966 2719 755 2612 
Q 544 2506 544 2247 
Q 544 2069 695 1955 
Q 847 1841 1050 1791 
L 1484 1709 
Q 1703 1659 1892 1540 
Q 2081 1422 2192 1240 
Q 2303 1059 2303 831 
Q 2303 600 2223 429 
Q 2144 259 2001 146 
Q 1859 34 1665 -19 
Q 1472 -72 1259 -72 
Q 859 -72 575 197 
L 341 -56 
Q 341 -72 306 -72 
L 269 -72 
Q 213 -72 213 -19 
z
" transform="scale(0.015625)"/>
       <path id="Cmr10-69" d="M 197 0 
L 197 225 
Q 416 225 556 259 
Q 697 294 697 428 
L 697 2175 
Q 697 2422 601 2478 
Q 506 2534 225 2534 
L 225 2759 
L 1147 2828 
L 1147 428 
Q 1147 294 1269 259 
Q 1391 225 1594 225 
L 1594 0 
L 197 0 
z
M 469 3928 
Q 469 4069 575 4175 
Q 681 4281 819 4281 
Q 909 4281 993 4234 
Q 1078 4188 1125 4103 
Q 1172 4019 1172 3928 
Q 1172 3791 1065 3684 
Q 959 3578 819 3578 
Q 681 3578 575 3684 
Q 469 3791 469 3928 
z
" transform="scale(0.015625)"/>
       <path id="Cmr10-6e" d="M 191 0 
L 191 225 
Q 409 225 550 259 
Q 691 294 691 428 
L 691 2175 
Q 691 2347 639 2423 
Q 588 2500 491 2517 
Q 394 2534 191 2534 
L 191 2759 
L 1119 2828 
L 1119 2203 
Q 1247 2478 1498 2653 
Q 1750 2828 2047 2828 
Q 2491 2828 2714 2615 
Q 2938 2403 2938 1966 
L 2938 428 
Q 2938 294 3078 259 
Q 3219 225 3438 225 
L 3438 0 
L 1972 0 
L 1972 225 
Q 2191 225 2331 259 
Q 2472 294 2472 428 
L 2472 1947 
Q 2472 2259 2381 2461 
Q 2291 2663 2009 2663 
Q 1638 2663 1398 2366 
Q 1159 2069 1159 1691 
L 1159 428 
Q 1159 294 1300 259 
Q 1441 225 1656 225 
L 1656 0 
L 191 0 
z
" transform="scale(0.015625)"/>
      </defs>
      <use xlink:href="#Cmsy10-6a"/>
      <use xlink:href="#Cmr10-28" transform="translate(27.685547 0)"/>
      <use xlink:href="#Cmmi10-41" transform="translate(66.503906 0)"/>
      <use xlink:href="#Cmmi10-3d" transform="translate(141.503906 0)"/>
      <use xlink:href="#Cmr10-32" transform="translate(191.503906 0)"/>
      <use xlink:href="#Cmmi10-21" transform="translate(241.503906 0.5)"/>
      <use xlink:href="#Cmmi10-b1" transform="translate(303.710938 0)"/>
      <use xlink:href="#Cmr10-29" transform="translate(348.095703 0)"/>
      <use xlink:href="#Cmr10-73" transform="translate(386.914062 0)"/>
      <use xlink:href="#Cmr10-69" transform="translate(426.318359 0)"/>
      <use xlink:href="#Cmr10-6e" transform="translate(454.003906 0)"/>
      <use xlink:href="#Cmmi10-b1" transform="translate(523.405226 0)"/>
      <use xlink:href="#Cmmi10-74" transform="translate(567.789991 0)"/>
      <use xlink:href="#Cmsy10-6a" transform="translate(603.873976 0)"/>
      <path d="M 241.503906 56.53125 
L 241.503906 62.78125 
L 303.710938 62.78125 
L 303.710938 56.53125 
L 241.503906 56.53125 
z
"/>
     </g>
    </g>
   </g>
  </g>
 </g>
 <defs>
  <clipPath id="p36898d870a">
   <rect x="108.538277" y="31.2" width="325.609577" height="305.92"/>
  </clipPath>
 </defs>
</svg>
