<?xml version="1.0" encoding="utf-8" standalone="no"?>
<!DOCTYPE svg PUBLIC "-//W3C//DTD SVG 1.1//EN"
  "http://www.w3.org/Graphics/SVG/1.1/DTD/svg11.dtd">
<svg xmlns:xlink="http://www.w3.org/1999/xlink" width="455.267854pt" height="343.558794pt" viewBox="0 0 455.267854 343.558794" xmlns="http://www.w3.org/2000/svg" version="1.1">
 <metadata>
  <rdf:RDF xmlns:dc="http://purl.org/dc/elements/1.1/" xmlns:cc="http://creativecommons.org/ns#" xmlns:rdf="http://www.w3.org/1999/02/22-rdf-syntax-ns#">
   <cc:Work>
    <dc:type rdf:resource="http://purl.org/dc/dcmitype/StillImage"/>
    <dc:date>2023-04-11T10:18:24.013627</dc:date>
    <dc:format>image/svg+xml</dc:format>
    <dc:creator>
     <cc:Agent>
      <dc:title>Matplotlib v3.5.1, https://matplotlib.org/</dc:title>
     </cc:Agent>
    </dc:creator>
   </cc:Work>
  </rdf:RDF>
 </metadata>
 <defs>
  <style type="text/css">*{stroke-linejoin: round; stroke-linecap: butt}</style>
 </defs>
 <g id="figure_1">
  <g id="patch_1">
   <path d="M 0 343.558794 
L 455.267854 343.558794 
L 455.267854 0 
L 0 0 
z
" style="fill: #ffffff"/>
  </g>
  <g id="axes_1">
   <g id="patch_2">
    <path d="M 108.538277 334.701762 
L 434.147854 334.701762 
L 434.147854 31.2 
L 108.538277 31.2 
z
" style="fill: #ffffff"/>
   </g>
   <g id="matplotlib.axis_1">
    <g id="xtick_1">
     <g id="line2d_1">
      <defs>
       <path id="m49e0753235" d="M 0 0 
L 0 3.5 
" style="stroke: #000000; stroke-width: 0.8"/>
      </defs>
      <g>
       <use xlink:href="#m49e0753235" x="114.8" y="247.075479" style="stroke: #000000; stroke-width: 0.8"/>
      </g>
     </g>
    </g>
    <g id="xtick_2">
     <g id="line2d_2">
      <g>
       <use xlink:href="#m49e0753235" x="219.162044" y="247.075479" style="stroke: #000000; stroke-width: 0.8"/>
      </g>
     </g>
     <g id="text_1">
      <!-- $\pi$ -->
      <g transform="translate(216.312044 261.673917)scale(0.1 -0.1)">
       <defs>
        <path id="Cmmi10-bc" d="M 647 109 
Q 647 144 672 213 
Q 850 584 1004 942 
Q 1159 1300 1282 1639 
Q 1406 1978 1509 2363 
L 1100 2363 
Q 866 2363 662 2216 
Q 459 2069 325 1844 
Q 313 1819 288 1819 
L 213 1819 
Q 153 1819 153 1881 
Q 153 1894 166 1919 
Q 375 2275 614 2517 
Q 853 2759 1153 2759 
L 3475 2759 
Q 3541 2759 3587 2715 
Q 3634 2672 3634 2597 
Q 3634 2503 3567 2433 
Q 3500 2363 3406 2363 
L 2591 2363 
Q 2488 1859 2478 1381 
Q 2478 766 2694 269 
Q 2713 231 2713 191 
Q 2713 122 2672 62 
Q 2631 3 2567 -34 
Q 2503 -72 2431 -72 
Q 2263 -72 2200 203 
Q 2138 478 2138 738 
Q 2138 1103 2200 1442 
Q 2263 1781 2400 2363 
L 1703 2363 
Q 1197 313 1094 103 
Q 1003 -72 844 -72 
Q 766 -72 706 -20 
Q 647 31 647 109 
z
" transform="scale(0.015625)"/>
       </defs>
       <use xlink:href="#Cmmi10-bc" transform="translate(0 0.890625)"/>
      </g>
     </g>
    </g>
    <g id="xtick_3">
     <g id="line2d_3">
      <g>
       <use xlink:href="#m49e0753235" x="323.524088" y="247.075479" style="stroke: #000000; stroke-width: 0.8"/>
      </g>
     </g>
     <g id="text_2">
      <!-- $2 \, \pi$ -->
      <g transform="translate(317.424088 261.673917)scale(0.1 -0.1)">
       <defs>
        <path id="Cmr10-32" d="M 319 0 
L 319 172 
Q 319 188 331 206 
L 1325 1306 
Q 1550 1550 1690 1715 
Q 1831 1881 1968 2097 
Q 2106 2313 2186 2536 
Q 2266 2759 2266 3009 
Q 2266 3272 2169 3511 
Q 2072 3750 1880 3894 
Q 1688 4038 1416 4038 
Q 1138 4038 916 3870 
Q 694 3703 603 3438 
Q 628 3444 672 3444 
Q 816 3444 917 3347 
Q 1019 3250 1019 3097 
Q 1019 2950 917 2848 
Q 816 2747 672 2747 
Q 522 2747 420 2851 
Q 319 2956 319 3097 
Q 319 3338 409 3548 
Q 500 3759 670 3923 
Q 841 4088 1055 4175 
Q 1269 4263 1509 4263 
Q 1875 4263 2190 4108 
Q 2506 3953 2690 3670 
Q 2875 3388 2875 3009 
Q 2875 2731 2753 2481 
Q 2631 2231 2440 2026 
Q 2250 1822 1953 1562 
Q 1656 1303 1563 1216 
L 838 519 
L 1453 519 
Q 1906 519 2211 526 
Q 2516 534 2534 550 
Q 2609 631 2688 1141 
L 2875 1141 
L 2694 0 
L 319 0 
z
" transform="scale(0.015625)"/>
       </defs>
       <use xlink:href="#Cmr10-32" transform="translate(0 0.390625)"/>
       <use xlink:href="#Cmmi10-bc" transform="translate(64.632454 0.390625)"/>
      </g>
     </g>
    </g>
    <g id="xtick_4">
     <g id="line2d_4">
      <g>
       <use xlink:href="#m49e0753235" x="427.886132" y="247.075479" style="stroke: #000000; stroke-width: 0.8"/>
      </g>
     </g>
     <g id="text_3">
      <!-- $3 \, \pi$ -->
      <g transform="translate(421.786132 261.673917)scale(0.1 -0.1)">
       <defs>
        <path id="Cmr10-33" d="M 609 494 
Q 759 275 1012 169 
Q 1266 63 1556 63 
Q 1928 63 2084 380 
Q 2241 697 2241 1100 
Q 2241 1281 2208 1462 
Q 2175 1644 2097 1800 
Q 2019 1956 1883 2050 
Q 1747 2144 1550 2144 
L 1125 2144 
Q 1069 2144 1069 2203 
L 1069 2259 
Q 1069 2309 1125 2309 
L 1478 2338 
Q 1703 2338 1851 2506 
Q 2000 2675 2069 2917 
Q 2138 3159 2138 3378 
Q 2138 3684 1994 3881 
Q 1850 4078 1556 4078 
Q 1313 4078 1091 3986 
Q 869 3894 738 3706 
Q 750 3709 759 3711 
Q 769 3713 781 3713 
Q 925 3713 1022 3613 
Q 1119 3513 1119 3372 
Q 1119 3234 1022 3134 
Q 925 3034 781 3034 
Q 641 3034 541 3134 
Q 441 3234 441 3372 
Q 441 3647 606 3850 
Q 772 4053 1033 4158 
Q 1294 4263 1556 4263 
Q 1750 4263 1965 4205 
Q 2181 4147 2356 4039 
Q 2531 3931 2642 3762 
Q 2753 3594 2753 3378 
Q 2753 3109 2633 2881 
Q 2513 2653 2303 2487 
Q 2094 2322 1844 2241 
Q 2122 2188 2372 2031 
Q 2622 1875 2773 1631 
Q 2925 1388 2925 1106 
Q 2925 753 2731 467 
Q 2538 181 2222 20 
Q 1906 -141 1556 -141 
Q 1256 -141 954 -26 
Q 653 88 461 316 
Q 269 544 269 863 
Q 269 1022 375 1128 
Q 481 1234 641 1234 
Q 744 1234 830 1186 
Q 916 1138 964 1050 
Q 1013 963 1013 863 
Q 1013 706 903 600 
Q 794 494 641 494 
L 609 494 
z
" transform="scale(0.015625)"/>
       </defs>
       <use xlink:href="#Cmr10-33" transform="translate(0 0.390625)"/>
       <use xlink:href="#Cmmi10-bc" transform="translate(64.632454 0.390625)"/>
      </g>
     </g>
    </g>
    <g id="xtick_5">
     <g id="line2d_5">
      <defs>
       <path id="m72abc9dbe3" d="M 0 0 
L 0 2 
" style="stroke: #000000; stroke-width: 0.6"/>
      </defs>
      <g>
       <use xlink:href="#m72abc9dbe3" x="140.890511" y="247.075479" style="stroke: #000000; stroke-width: 0.6"/>
      </g>
     </g>
    </g>
    <g id="xtick_6">
     <g id="line2d_6">
      <g>
       <use xlink:href="#m72abc9dbe3" x="166.981022" y="247.075479" style="stroke: #000000; stroke-width: 0.6"/>
      </g>
     </g>
    </g>
    <g id="xtick_7">
     <g id="line2d_7">
      <g>
       <use xlink:href="#m72abc9dbe3" x="193.071533" y="247.075479" style="stroke: #000000; stroke-width: 0.6"/>
      </g>
     </g>
    </g>
    <g id="xtick_8">
     <g id="line2d_8">
      <g>
       <use xlink:href="#m72abc9dbe3" x="245.252555" y="247.075479" style="stroke: #000000; stroke-width: 0.6"/>
      </g>
     </g>
    </g>
    <g id="xtick_9">
     <g id="line2d_9">
      <g>
       <use xlink:href="#m72abc9dbe3" x="271.343066" y="247.075479" style="stroke: #000000; stroke-width: 0.6"/>
      </g>
     </g>
    </g>
    <g id="xtick_10">
     <g id="line2d_10">
      <g>
       <use xlink:href="#m72abc9dbe3" x="297.433577" y="247.075479" style="stroke: #000000; stroke-width: 0.6"/>
      </g>
     </g>
    </g>
    <g id="xtick_11">
     <g id="line2d_11">
      <g>
       <use xlink:href="#m72abc9dbe3" x="349.614599" y="247.075479" style="stroke: #000000; stroke-width: 0.6"/>
      </g>
     </g>
    </g>
    <g id="xtick_12">
     <g id="line2d_12">
      <g>
       <use xlink:href="#m72abc9dbe3" x="375.70511" y="247.075479" style="stroke: #000000; stroke-width: 0.6"/>
      </g>
     </g>
    </g>
    <g id="xtick_13">
     <g id="line2d_13">
      <g>
       <use xlink:href="#m72abc9dbe3" x="401.795621" y="247.075479" style="stroke: #000000; stroke-width: 0.6"/>
      </g>
     </g>
    </g>
    <g id="text_4">
     <!-- $t$ -->
     <g transform="translate(442.147854 247.075479)scale(0.16 -0.16)">
      <defs>
       <path id="Cmmi10-74" d="M 397 519 
Q 397 613 416 697 
L 878 2534 
L 206 2534 
Q 141 2534 141 2619 
Q 166 2759 225 2759 
L 934 2759 
L 1191 3803 
Q 1216 3888 1291 3947 
Q 1366 4006 1459 4006 
Q 1541 4006 1595 3957 
Q 1650 3909 1650 3828 
Q 1650 3809 1648 3798 
Q 1647 3788 1644 3775 
L 1388 2759 
L 2047 2759 
Q 2113 2759 2113 2675 
Q 2109 2659 2100 2621 
Q 2091 2584 2075 2559 
Q 2059 2534 2028 2534 
L 1331 2534 
L 872 684 
Q 825 503 825 372 
Q 825 97 1013 97 
Q 1294 97 1511 361 
Q 1728 625 1844 941 
Q 1869 978 1894 978 
L 1972 978 
Q 1997 978 2012 961 
Q 2028 944 2028 922 
Q 2028 909 2022 903 
Q 1881 516 1612 222 
Q 1344 -72 997 -72 
Q 744 -72 570 93 
Q 397 259 397 519 
z
" transform="scale(0.015625)"/>
      </defs>
      <use xlink:href="#Cmmi10-74" transform="translate(0 0.40625)"/>
     </g>
    </g>
   </g>
   <g id="matplotlib.axis_2">
    <g id="ytick_1">
     <g id="line2d_14">
      <defs>
       <path id="m18444da5d5" d="M 0 0 
L -3.5 0 
" style="stroke: #000000; stroke-width: 0.8"/>
      </defs>
      <g>
       <use xlink:href="#m18444da5d5" x="114.8" y="330.479888" style="stroke: #000000; stroke-width: 0.8"/>
      </g>
     </g>
     <g id="text_5">
      <!-- $-0.20000000000000004$ -->
      <g transform="translate(7.2 334.279107)scale(0.1 -0.1)">
       <defs>
        <path id="Cmsy10-a1" d="M 653 1472 
Q 600 1472 565 1512 
Q 531 1553 531 1600 
Q 531 1647 565 1687 
Q 600 1728 653 1728 
L 4325 1728 
Q 4375 1728 4408 1687 
Q 4441 1647 4441 1600 
Q 4441 1553 4408 1512 
Q 4375 1472 4325 1472 
L 653 1472 
z
" transform="scale(0.015625)"/>
        <path id="Cmr10-30" d="M 1600 -141 
Q 816 -141 533 504 
Q 250 1150 250 2041 
Q 250 2597 351 3087 
Q 453 3578 754 3920 
Q 1056 4263 1600 4263 
Q 2022 4263 2290 4056 
Q 2559 3850 2700 3523 
Q 2841 3197 2892 2823 
Q 2944 2450 2944 2041 
Q 2944 1491 2842 1011 
Q 2741 531 2444 195 
Q 2147 -141 1600 -141 
z
M 1600 25 
Q 1956 25 2131 390 
Q 2306 756 2347 1200 
Q 2388 1644 2388 2144 
Q 2388 2625 2347 3031 
Q 2306 3438 2132 3767 
Q 1959 4097 1600 4097 
Q 1238 4097 1063 3765 
Q 888 3434 847 3029 
Q 806 2625 806 2144 
Q 806 1788 823 1472 
Q 841 1156 916 820 
Q 991 484 1158 254 
Q 1325 25 1600 25 
z
" transform="scale(0.015625)"/>
        <path id="Cmmi10-3a" d="M 538 353 
Q 538 497 644 600 
Q 750 703 891 703 
Q 978 703 1062 656 
Q 1147 609 1194 525 
Q 1241 441 1241 353 
Q 1241 213 1137 106 
Q 1034 0 891 0 
Q 750 0 644 106 
Q 538 213 538 353 
z
" transform="scale(0.015625)"/>
        <path id="Cmr10-34" d="M 178 1056 
L 178 1281 
L 2156 4231 
Q 2178 4263 2222 4263 
L 2316 4263 
Q 2388 4263 2388 4191 
L 2388 1281 
L 3016 1281 
L 3016 1056 
L 2388 1056 
L 2388 428 
Q 2388 297 2575 261 
Q 2763 225 3009 225 
L 3009 0 
L 1247 0 
L 1247 225 
Q 1494 225 1681 261 
Q 1869 297 1869 428 
L 1869 1056 
L 178 1056 
z
M 391 1281 
L 1906 1281 
L 1906 3547 
L 391 1281 
z
" transform="scale(0.015625)"/>
       </defs>
       <use xlink:href="#Cmsy10-a1" transform="translate(0 0.390625)"/>
       <use xlink:href="#Cmr10-30" transform="translate(77.685547 0.390625)"/>
       <use xlink:href="#Cmmi10-3a" transform="translate(127.685547 0.390625)"/>
       <use xlink:href="#Cmr10-32" transform="translate(155.371094 0.390625)"/>
       <use xlink:href="#Cmr10-30" transform="translate(205.371094 0.390625)"/>
       <use xlink:href="#Cmr10-30" transform="translate(255.371094 0.390625)"/>
       <use xlink:href="#Cmr10-30" transform="translate(305.371094 0.390625)"/>
       <use xlink:href="#Cmr10-30" transform="translate(355.371094 0.390625)"/>
       <use xlink:href="#Cmr10-30" transform="translate(405.371094 0.390625)"/>
       <use xlink:href="#Cmr10-30" transform="translate(455.371094 0.390625)"/>
       <use xlink:href="#Cmr10-30" transform="translate(505.371094 0.390625)"/>
       <use xlink:href="#Cmr10-30" transform="translate(555.371094 0.390625)"/>
       <use xlink:href="#Cmr10-30" transform="translate(605.371094 0.390625)"/>
       <use xlink:href="#Cmr10-30" transform="translate(655.371094 0.390625)"/>
       <use xlink:href="#Cmr10-30" transform="translate(705.371094 0.390625)"/>
       <use xlink:href="#Cmr10-30" transform="translate(755.371094 0.390625)"/>
       <use xlink:href="#Cmr10-30" transform="translate(805.371094 0.390625)"/>
       <use xlink:href="#Cmr10-30" transform="translate(855.371094 0.390625)"/>
       <use xlink:href="#Cmr10-30" transform="translate(905.371094 0.390625)"/>
       <use xlink:href="#Cmr10-34" transform="translate(955.371094 0.390625)"/>
      </g>
     </g>
    </g>
    <g id="ytick_2">
     <g id="line2d_15">
      <g>
       <use xlink:href="#m18444da5d5" x="114.8" y="288.777684" style="stroke: #000000; stroke-width: 0.8"/>
      </g>
     </g>
     <g id="text_6">
      <!-- $-0.10000000000000003$ -->
      <g transform="translate(7.2 292.576902)scale(0.1 -0.1)">
       <defs>
        <path id="Cmr10-31" d="M 594 0 
L 594 225 
Q 1394 225 1394 428 
L 1394 3788 
Q 1063 3628 556 3628 
L 556 3853 
Q 1341 3853 1741 4263 
L 1831 4263 
Q 1853 4263 1873 4245 
Q 1894 4228 1894 4206 
L 1894 428 
Q 1894 225 2694 225 
L 2694 0 
L 594 0 
z
" transform="scale(0.015625)"/>
       </defs>
       <use xlink:href="#Cmsy10-a1" transform="translate(0 0.390625)"/>
       <use xlink:href="#Cmr10-30" transform="translate(77.685547 0.390625)"/>
       <use xlink:href="#Cmmi10-3a" transform="translate(127.685547 0.390625)"/>
       <use xlink:href="#Cmr10-31" transform="translate(155.371094 0.390625)"/>
       <use xlink:href="#Cmr10-30" transform="translate(205.371094 0.390625)"/>
       <use xlink:href="#Cmr10-30" transform="translate(255.371094 0.390625)"/>
       <use xlink:href="#Cmr10-30" transform="translate(305.371094 0.390625)"/>
       <use xlink:href="#Cmr10-30" transform="translate(355.371094 0.390625)"/>
       <use xlink:href="#Cmr10-30" transform="translate(405.371094 0.390625)"/>
       <use xlink:href="#Cmr10-30" transform="translate(455.371094 0.390625)"/>
       <use xlink:href="#Cmr10-30" transform="translate(505.371094 0.390625)"/>
       <use xlink:href="#Cmr10-30" transform="translate(555.371094 0.390625)"/>
       <use xlink:href="#Cmr10-30" transform="translate(605.371094 0.390625)"/>
       <use xlink:href="#Cmr10-30" transform="translate(655.371094 0.390625)"/>
       <use xlink:href="#Cmr10-30" transform="translate(705.371094 0.390625)"/>
       <use xlink:href="#Cmr10-30" transform="translate(755.371094 0.390625)"/>
       <use xlink:href="#Cmr10-30" transform="translate(805.371094 0.390625)"/>
       <use xlink:href="#Cmr10-30" transform="translate(855.371094 0.390625)"/>
       <use xlink:href="#Cmr10-30" transform="translate(905.371094 0.390625)"/>
       <use xlink:href="#Cmr10-33" transform="translate(955.371094 0.390625)"/>
      </g>
     </g>
    </g>
    <g id="ytick_3">
     <g id="line2d_16">
      <g>
       <use xlink:href="#m18444da5d5" x="114.8" y="247.075479" style="stroke: #000000; stroke-width: 0.8"/>
      </g>
     </g>
    </g>
    <g id="ytick_4">
     <g id="line2d_17">
      <g>
       <use xlink:href="#m18444da5d5" x="114.8" y="205.373275" style="stroke: #000000; stroke-width: 0.8"/>
      </g>
     </g>
     <g id="text_7">
      <!-- $0.09999999999999998$ -->
      <g transform="translate(15 209.172494)scale(0.1 -0.1)">
       <defs>
        <path id="Cmr10-39" d="M 722 269 
Q 897 63 1331 63 
Q 1575 63 1786 228 
Q 1997 394 2113 634 
Q 2247 906 2284 1214 
Q 2322 1522 2322 1978 
Q 2213 1719 2008 1553 
Q 1803 1388 1538 1388 
Q 1166 1388 873 1589 
Q 581 1791 425 2120 
Q 269 2450 269 2822 
Q 269 3206 444 3539 
Q 619 3872 928 4067 
Q 1238 4263 1631 4263 
Q 2019 4263 2280 4052 
Q 2541 3841 2678 3508 
Q 2816 3175 2870 2803 
Q 2925 2431 2925 2069 
Q 2925 1575 2744 1061 
Q 2563 547 2202 203 
Q 1841 -141 1331 -141 
Q 953 -141 690 37 
Q 428 216 428 575 
Q 428 706 517 795 
Q 606 884 738 884 
Q 866 884 955 795 
Q 1044 706 1044 575 
Q 1044 450 953 359 
Q 863 269 738 269 
L 722 269 
z
M 1563 1556 
Q 1825 1556 1992 1732 
Q 2159 1909 2234 2171 
Q 2309 2434 2309 2694 
L 2309 2816 
L 2309 2841 
Q 2309 3322 2168 3700 
Q 2028 4078 1631 4078 
Q 1378 4078 1220 3967 
Q 1063 3856 988 3672 
Q 913 3488 892 3278 
Q 872 3069 872 2822 
Q 872 2459 906 2203 
Q 941 1947 1094 1751 
Q 1247 1556 1563 1556 
z
" transform="scale(0.015625)"/>
        <path id="Cmr10-38" d="M 269 972 
Q 269 1356 522 1651 
Q 775 1947 1172 2144 
L 934 2297 
Q 716 2441 578 2680 
Q 441 2919 441 3181 
Q 441 3488 602 3734 
Q 763 3981 1030 4122 
Q 1297 4263 1600 4263 
Q 1884 4263 2148 4147 
Q 2413 4031 2583 3815 
Q 2753 3600 2753 3303 
Q 2753 3088 2651 2903 
Q 2550 2719 2373 2572 
Q 2197 2425 1997 2322 
L 2363 2088 
Q 2616 1922 2770 1653 
Q 2925 1384 2925 1088 
Q 2925 741 2739 456 
Q 2553 172 2247 15 
Q 1941 -141 1600 -141 
Q 1269 -141 961 -6 
Q 653 128 461 383 
Q 269 638 269 972 
z
M 616 972 
Q 616 719 755 509 
Q 894 300 1122 181 
Q 1350 63 1600 63 
Q 1972 63 2275 280 
Q 2578 497 2578 856 
Q 2578 978 2529 1098 
Q 2481 1219 2395 1317 
Q 2309 1416 2203 1478 
L 1344 2034 
Q 1144 1928 976 1765 
Q 809 1603 712 1400 
Q 616 1197 616 972 
z
M 1056 2925 
L 1831 2425 
Q 2100 2581 2272 2803 
Q 2444 3025 2444 3303 
Q 2444 3519 2323 3698 
Q 2203 3878 2009 3978 
Q 1816 4078 1594 4078 
Q 1400 4078 1203 4003 
Q 1006 3928 878 3779 
Q 750 3631 750 3431 
Q 750 3131 1056 2925 
z
" transform="scale(0.015625)"/>
       </defs>
       <use xlink:href="#Cmr10-30" transform="translate(0 0.390625)"/>
       <use xlink:href="#Cmmi10-3a" transform="translate(50 0.390625)"/>
       <use xlink:href="#Cmr10-30" transform="translate(77.685547 0.390625)"/>
       <use xlink:href="#Cmr10-39" transform="translate(127.685547 0.390625)"/>
       <use xlink:href="#Cmr10-39" transform="translate(177.685547 0.390625)"/>
       <use xlink:href="#Cmr10-39" transform="translate(227.685547 0.390625)"/>
       <use xlink:href="#Cmr10-39" transform="translate(277.685547 0.390625)"/>
       <use xlink:href="#Cmr10-39" transform="translate(327.685547 0.390625)"/>
       <use xlink:href="#Cmr10-39" transform="translate(377.685547 0.390625)"/>
       <use xlink:href="#Cmr10-39" transform="translate(427.685547 0.390625)"/>
       <use xlink:href="#Cmr10-39" transform="translate(477.685547 0.390625)"/>
       <use xlink:href="#Cmr10-39" transform="translate(527.685547 0.390625)"/>
       <use xlink:href="#Cmr10-39" transform="translate(577.685547 0.390625)"/>
       <use xlink:href="#Cmr10-39" transform="translate(627.685547 0.390625)"/>
       <use xlink:href="#Cmr10-39" transform="translate(677.685547 0.390625)"/>
       <use xlink:href="#Cmr10-39" transform="translate(727.685547 0.390625)"/>
       <use xlink:href="#Cmr10-39" transform="translate(777.685547 0.390625)"/>
       <use xlink:href="#Cmr10-39" transform="translate(827.685547 0.390625)"/>
       <use xlink:href="#Cmr10-38" transform="translate(877.685547 0.390625)"/>
      </g>
     </g>
    </g>
    <g id="ytick_5">
     <g id="line2d_18">
      <g>
       <use xlink:href="#m18444da5d5" x="114.8" y="163.671071" style="stroke: #000000; stroke-width: 0.8"/>
      </g>
     </g>
     <g id="text_8">
      <!-- $0.19999999999999996$ -->
      <g transform="translate(15 167.470289)scale(0.1 -0.1)">
       <defs>
        <path id="Cmr10-36" d="M 1600 -141 
Q 1203 -141 937 70 
Q 672 281 526 617 
Q 381 953 325 1322 
Q 269 1691 269 2069 
Q 269 2575 466 3084 
Q 663 3594 1045 3928 
Q 1428 4263 1953 4263 
Q 2172 4263 2361 4180 
Q 2550 4097 2658 3936 
Q 2766 3775 2766 3547 
Q 2766 3416 2677 3327 
Q 2588 3238 2456 3238 
Q 2331 3238 2240 3328 
Q 2150 3419 2150 3547 
Q 2150 3672 2240 3762 
Q 2331 3853 2456 3853 
L 2491 3853 
Q 2409 3969 2261 4023 
Q 2113 4078 1953 4078 
Q 1759 4078 1595 3993 
Q 1431 3909 1300 3765 
Q 1169 3622 1081 3448 
Q 994 3275 945 3053 
Q 897 2831 884 2637 
Q 872 2444 872 2150 
Q 984 2413 1190 2580 
Q 1397 2747 1656 2747 
Q 1941 2747 2175 2631 
Q 2409 2516 2578 2311 
Q 2747 2106 2836 1843 
Q 2925 1581 2925 1313 
Q 2925 938 2758 598 
Q 2591 259 2287 59 
Q 1984 -141 1600 -141 
z
M 1600 63 
Q 1847 63 1997 175 
Q 2147 288 2217 473 
Q 2288 659 2305 848 
Q 2322 1038 2322 1313 
Q 2322 1675 2287 1931 
Q 2253 2188 2100 2383 
Q 1947 2578 1631 2578 
Q 1372 2578 1205 2403 
Q 1038 2228 961 1961 
Q 884 1694 884 1447 
Q 884 1363 891 1319 
Q 891 1309 889 1303 
Q 888 1297 884 1288 
Q 884 1013 940 731 
Q 997 450 1156 256 
Q 1316 63 1600 63 
z
" transform="scale(0.015625)"/>
       </defs>
       <use xlink:href="#Cmr10-30" transform="translate(0 0.390625)"/>
       <use xlink:href="#Cmmi10-3a" transform="translate(50 0.390625)"/>
       <use xlink:href="#Cmr10-31" transform="translate(77.685547 0.390625)"/>
       <use xlink:href="#Cmr10-39" transform="translate(127.685547 0.390625)"/>
       <use xlink:href="#Cmr10-39" transform="translate(177.685547 0.390625)"/>
       <use xlink:href="#Cmr10-39" transform="translate(227.685547 0.390625)"/>
       <use xlink:href="#Cmr10-39" transform="translate(277.685547 0.390625)"/>
       <use xlink:href="#Cmr10-39" transform="translate(327.685547 0.390625)"/>
       <use xlink:href="#Cmr10-39" transform="translate(377.685547 0.390625)"/>
       <use xlink:href="#Cmr10-39" transform="translate(427.685547 0.390625)"/>
       <use xlink:href="#Cmr10-39" transform="translate(477.685547 0.390625)"/>
       <use xlink:href="#Cmr10-39" transform="translate(527.685547 0.390625)"/>
       <use xlink:href="#Cmr10-39" transform="translate(577.685547 0.390625)"/>
       <use xlink:href="#Cmr10-39" transform="translate(627.685547 0.390625)"/>
       <use xlink:href="#Cmr10-39" transform="translate(677.685547 0.390625)"/>
       <use xlink:href="#Cmr10-39" transform="translate(727.685547 0.390625)"/>
       <use xlink:href="#Cmr10-39" transform="translate(777.685547 0.390625)"/>
       <use xlink:href="#Cmr10-39" transform="translate(827.685547 0.390625)"/>
       <use xlink:href="#Cmr10-36" transform="translate(877.685547 0.390625)"/>
      </g>
     </g>
    </g>
    <g id="ytick_6">
     <g id="line2d_19">
      <g>
       <use xlink:href="#m18444da5d5" x="114.8" y="121.968866" style="stroke: #000000; stroke-width: 0.8"/>
      </g>
     </g>
     <g id="text_9">
      <!-- $0.30000000000000004$ -->
      <g transform="translate(15 125.768085)scale(0.1 -0.1)">
       <use xlink:href="#Cmr10-30" transform="translate(0 0.390625)"/>
       <use xlink:href="#Cmmi10-3a" transform="translate(50 0.390625)"/>
       <use xlink:href="#Cmr10-33" transform="translate(77.685547 0.390625)"/>
       <use xlink:href="#Cmr10-30" transform="translate(127.685547 0.390625)"/>
       <use xlink:href="#Cmr10-30" transform="translate(177.685547 0.390625)"/>
       <use xlink:href="#Cmr10-30" transform="translate(227.685547 0.390625)"/>
       <use xlink:href="#Cmr10-30" transform="translate(277.685547 0.390625)"/>
       <use xlink:href="#Cmr10-30" transform="translate(327.685547 0.390625)"/>
       <use xlink:href="#Cmr10-30" transform="translate(377.685547 0.390625)"/>
       <use xlink:href="#Cmr10-30" transform="translate(427.685547 0.390625)"/>
       <use xlink:href="#Cmr10-30" transform="translate(477.685547 0.390625)"/>
       <use xlink:href="#Cmr10-30" transform="translate(527.685547 0.390625)"/>
       <use xlink:href="#Cmr10-30" transform="translate(577.685547 0.390625)"/>
       <use xlink:href="#Cmr10-30" transform="translate(627.685547 0.390625)"/>
       <use xlink:href="#Cmr10-30" transform="translate(677.685547 0.390625)"/>
       <use xlink:href="#Cmr10-30" transform="translate(727.685547 0.390625)"/>
       <use xlink:href="#Cmr10-30" transform="translate(777.685547 0.390625)"/>
       <use xlink:href="#Cmr10-30" transform="translate(827.685547 0.390625)"/>
       <use xlink:href="#Cmr10-34" transform="translate(877.685547 0.390625)"/>
      </g>
     </g>
    </g>
    <g id="ytick_7">
     <g id="line2d_20">
      <g>
       <use xlink:href="#m18444da5d5" x="114.8" y="80.266662" style="stroke: #000000; stroke-width: 0.8"/>
      </g>
     </g>
     <g id="text_10">
      <!-- $0.4$ -->
      <g transform="translate(95 84.065881)scale(0.1 -0.1)">
       <use xlink:href="#Cmr10-30" transform="translate(0 0.390625)"/>
       <use xlink:href="#Cmmi10-3a" transform="translate(50 0.390625)"/>
       <use xlink:href="#Cmr10-34" transform="translate(77.685547 0.390625)"/>
      </g>
     </g>
    </g>
    <g id="ytick_8">
     <g id="line2d_21">
      <g>
       <use xlink:href="#m18444da5d5" x="114.8" y="38.564458" style="stroke: #000000; stroke-width: 0.8"/>
      </g>
     </g>
     <g id="text_11">
      <!-- $0.5$ -->
      <g transform="translate(95 42.363676)scale(0.1 -0.1)">
       <defs>
        <path id="Cmr10-35" d="M 556 728 
Q 622 541 758 387 
Q 894 234 1080 148 
Q 1266 63 1466 63 
Q 1928 63 2103 422 
Q 2278 781 2278 1294 
Q 2278 1516 2270 1667 
Q 2263 1819 2228 1959 
Q 2169 2184 2020 2353 
Q 1872 2522 1656 2522 
Q 1441 2522 1286 2456 
Q 1131 2391 1034 2303 
Q 938 2216 863 2119 
Q 788 2022 769 2016 
L 697 2016 
Q 681 2016 657 2036 
Q 634 2056 634 2075 
L 634 4213 
Q 634 4228 654 4245 
Q 675 4263 697 4263 
L 716 4263 
Q 1147 4056 1631 4056 
Q 2106 4056 2547 4263 
L 2566 4263 
Q 2588 4263 2606 4247 
Q 2625 4231 2625 4213 
L 2625 4153 
Q 2625 4122 2613 4122 
Q 2394 3831 2064 3668 
Q 1734 3506 1381 3506 
Q 1125 3506 856 3578 
L 856 2369 
Q 1069 2541 1236 2614 
Q 1403 2688 1663 2688 
Q 2016 2688 2295 2484 
Q 2575 2281 2725 1954 
Q 2875 1628 2875 1288 
Q 2875 903 2686 575 
Q 2497 247 2172 53 
Q 1847 -141 1466 -141 
Q 1150 -141 886 21 
Q 622 184 470 459 
Q 319 734 319 1044 
Q 319 1188 412 1278 
Q 506 1369 647 1369 
Q 788 1369 883 1276 
Q 978 1184 978 1044 
Q 978 906 883 811 
Q 788 716 647 716 
Q 625 716 597 720 
Q 569 725 556 728 
z
" transform="scale(0.015625)"/>
       </defs>
       <use xlink:href="#Cmr10-30" transform="translate(0 0.390625)"/>
       <use xlink:href="#Cmmi10-3a" transform="translate(50 0.390625)"/>
       <use xlink:href="#Cmr10-35" transform="translate(77.685547 0.390625)"/>
      </g>
     </g>
    </g>
    <g id="ytick_9">
     <g id="line2d_22">
      <defs>
       <path id="md897393bbc" d="M 0 0 
L -2 0 
" style="stroke: #000000; stroke-width: 0.6"/>
      </defs>
      <g>
       <use xlink:href="#md897393bbc" x="114.8" y="322.139447" style="stroke: #000000; stroke-width: 0.6"/>
      </g>
     </g>
    </g>
    <g id="ytick_10">
     <g id="line2d_23">
      <g>
       <use xlink:href="#md897393bbc" x="114.8" y="313.799006" style="stroke: #000000; stroke-width: 0.6"/>
      </g>
     </g>
    </g>
    <g id="ytick_11">
     <g id="line2d_24">
      <g>
       <use xlink:href="#md897393bbc" x="114.8" y="305.458565" style="stroke: #000000; stroke-width: 0.6"/>
      </g>
     </g>
    </g>
    <g id="ytick_12">
     <g id="line2d_25">
      <g>
       <use xlink:href="#md897393bbc" x="114.8" y="297.118125" style="stroke: #000000; stroke-width: 0.6"/>
      </g>
     </g>
    </g>
    <g id="ytick_13">
     <g id="line2d_26">
      <g>
       <use xlink:href="#md897393bbc" x="114.8" y="280.437243" style="stroke: #000000; stroke-width: 0.6"/>
      </g>
     </g>
    </g>
    <g id="ytick_14">
     <g id="line2d_27">
      <g>
       <use xlink:href="#md897393bbc" x="114.8" y="272.096802" style="stroke: #000000; stroke-width: 0.6"/>
      </g>
     </g>
    </g>
    <g id="ytick_15">
     <g id="line2d_28">
      <g>
       <use xlink:href="#md897393bbc" x="114.8" y="263.756361" style="stroke: #000000; stroke-width: 0.6"/>
      </g>
     </g>
    </g>
    <g id="ytick_16">
     <g id="line2d_29">
      <g>
       <use xlink:href="#md897393bbc" x="114.8" y="255.41592" style="stroke: #000000; stroke-width: 0.6"/>
      </g>
     </g>
    </g>
    <g id="ytick_17">
     <g id="line2d_30">
      <g>
       <use xlink:href="#md897393bbc" x="114.8" y="238.735039" style="stroke: #000000; stroke-width: 0.6"/>
      </g>
     </g>
    </g>
    <g id="ytick_18">
     <g id="line2d_31">
      <g>
       <use xlink:href="#md897393bbc" x="114.8" y="230.394598" style="stroke: #000000; stroke-width: 0.6"/>
      </g>
     </g>
    </g>
    <g id="ytick_19">
     <g id="line2d_32">
      <g>
       <use xlink:href="#md897393bbc" x="114.8" y="222.054157" style="stroke: #000000; stroke-width: 0.6"/>
      </g>
     </g>
    </g>
    <g id="ytick_20">
     <g id="line2d_33">
      <g>
       <use xlink:href="#md897393bbc" x="114.8" y="213.713716" style="stroke: #000000; stroke-width: 0.6"/>
      </g>
     </g>
    </g>
    <g id="ytick_21">
     <g id="line2d_34">
      <g>
       <use xlink:href="#md897393bbc" x="114.8" y="197.032834" style="stroke: #000000; stroke-width: 0.6"/>
      </g>
     </g>
    </g>
    <g id="ytick_22">
     <g id="line2d_35">
      <g>
       <use xlink:href="#md897393bbc" x="114.8" y="188.692393" style="stroke: #000000; stroke-width: 0.6"/>
      </g>
     </g>
    </g>
    <g id="ytick_23">
     <g id="line2d_36">
      <g>
       <use xlink:href="#md897393bbc" x="114.8" y="180.351952" style="stroke: #000000; stroke-width: 0.6"/>
      </g>
     </g>
    </g>
    <g id="ytick_24">
     <g id="line2d_37">
      <g>
       <use xlink:href="#md897393bbc" x="114.8" y="172.011512" style="stroke: #000000; stroke-width: 0.6"/>
      </g>
     </g>
    </g>
    <g id="ytick_25">
     <g id="line2d_38">
      <g>
       <use xlink:href="#md897393bbc" x="114.8" y="155.33063" style="stroke: #000000; stroke-width: 0.6"/>
      </g>
     </g>
    </g>
    <g id="ytick_26">
     <g id="line2d_39">
      <g>
       <use xlink:href="#md897393bbc" x="114.8" y="146.990189" style="stroke: #000000; stroke-width: 0.6"/>
      </g>
     </g>
    </g>
    <g id="ytick_27">
     <g id="line2d_40">
      <g>
       <use xlink:href="#md897393bbc" x="114.8" y="138.649748" style="stroke: #000000; stroke-width: 0.6"/>
      </g>
     </g>
    </g>
    <g id="ytick_28">
     <g id="line2d_41">
      <g>
       <use xlink:href="#md897393bbc" x="114.8" y="130.309307" style="stroke: #000000; stroke-width: 0.6"/>
      </g>
     </g>
    </g>
    <g id="ytick_29">
     <g id="line2d_42">
      <g>
       <use xlink:href="#md897393bbc" x="114.8" y="113.628425" style="stroke: #000000; stroke-width: 0.6"/>
      </g>
     </g>
    </g>
    <g id="ytick_30">
     <g id="line2d_43">
      <g>
       <use xlink:href="#md897393bbc" x="114.8" y="105.287985" style="stroke: #000000; stroke-width: 0.6"/>
      </g>
     </g>
    </g>
    <g id="ytick_31">
     <g id="line2d_44">
      <g>
       <use xlink:href="#md897393bbc" x="114.8" y="96.947544" style="stroke: #000000; stroke-width: 0.6"/>
      </g>
     </g>
    </g>
    <g id="ytick_32">
     <g id="line2d_45">
      <g>
       <use xlink:href="#md897393bbc" x="114.8" y="88.607103" style="stroke: #000000; stroke-width: 0.6"/>
      </g>
     </g>
    </g>
    <g id="ytick_33">
     <g id="line2d_46">
      <g>
       <use xlink:href="#md897393bbc" x="114.8" y="71.926221" style="stroke: #000000; stroke-width: 0.6"/>
      </g>
     </g>
    </g>
    <g id="ytick_34">
     <g id="line2d_47">
      <g>
       <use xlink:href="#md897393bbc" x="114.8" y="63.58578" style="stroke: #000000; stroke-width: 0.6"/>
      </g>
     </g>
    </g>
    <g id="ytick_35">
     <g id="line2d_48">
      <g>
       <use xlink:href="#md897393bbc" x="114.8" y="55.245339" style="stroke: #000000; stroke-width: 0.6"/>
      </g>
     </g>
    </g>
    <g id="ytick_36">
     <g id="line2d_49">
      <g>
       <use xlink:href="#md897393bbc" x="114.8" y="46.904898" style="stroke: #000000; stroke-width: 0.6"/>
      </g>
     </g>
    </g>
    <g id="text_12">
     <!-- $x(t)$ -->
     <g transform="translate(101.12 19.2)scale(0.16 -0.16)">
      <defs>
       <path id="Cmmi10-78" d="M 500 184 
Q 613 97 819 97 
Q 1019 97 1172 289 
Q 1325 481 1381 709 
L 1672 1844 
Q 1741 2153 1741 2266 
Q 1741 2425 1652 2544 
Q 1563 2663 1403 2663 
Q 1200 2663 1022 2536 
Q 844 2409 722 2214 
Q 600 2019 550 1819 
Q 538 1778 500 1778 
L 422 1778 
Q 372 1778 372 1838 
L 372 1856 
Q 434 2094 584 2320 
Q 734 2547 951 2687 
Q 1169 2828 1416 2828 
Q 1650 2828 1839 2703 
Q 2028 2578 2106 2363 
Q 2216 2559 2386 2693 
Q 2556 2828 2759 2828 
Q 2897 2828 3040 2779 
Q 3184 2731 3275 2631 
Q 3366 2531 3366 2381 
Q 3366 2219 3261 2101 
Q 3156 1984 2994 1984 
Q 2891 1984 2822 2050 
Q 2753 2116 2753 2216 
Q 2753 2350 2845 2451 
Q 2938 2553 3066 2572 
Q 2950 2663 2747 2663 
Q 2541 2663 2389 2472 
Q 2238 2281 2175 2047 
L 1894 916 
Q 1825 659 1825 494 
Q 1825 331 1917 214 
Q 2009 97 2163 97 
Q 2463 97 2698 361 
Q 2934 625 3009 941 
Q 3022 978 3059 978 
L 3138 978 
Q 3163 978 3178 961 
Q 3194 944 3194 922 
Q 3194 916 3188 903 
Q 3097 522 2806 225 
Q 2516 -72 2150 -72 
Q 1916 -72 1727 54 
Q 1538 181 1459 397 
Q 1359 209 1182 68 
Q 1006 -72 806 -72 
Q 669 -72 523 -23 
Q 378 25 287 125 
Q 197 225 197 378 
Q 197 528 301 651 
Q 406 775 563 775 
Q 669 775 741 711 
Q 813 647 813 544 
Q 813 409 723 309 
Q 634 209 500 184 
z
" transform="scale(0.015625)"/>
       <path id="Cmr10-28" d="M 1984 -1588 
Q 1628 -1306 1370 -942 
Q 1113 -578 948 -165 
Q 784 247 703 697 
Q 622 1147 622 1600 
Q 622 2059 703 2509 
Q 784 2959 951 3375 
Q 1119 3791 1378 4153 
Q 1638 4516 1984 4788 
Q 1984 4800 2016 4800 
L 2075 4800 
Q 2094 4800 2109 4783 
Q 2125 4766 2125 4744 
Q 2125 4716 2113 4703 
Q 1800 4397 1592 4047 
Q 1384 3697 1257 3301 
Q 1131 2906 1075 2482 
Q 1019 2059 1019 1600 
Q 1019 -434 2106 -1491 
Q 2125 -1509 2125 -1544 
Q 2125 -1559 2108 -1579 
Q 2091 -1600 2075 -1600 
L 2016 -1600 
Q 1984 -1600 1984 -1588 
z
" transform="scale(0.015625)"/>
       <path id="Cmr10-29" d="M 416 -1600 
Q 359 -1600 359 -1544 
Q 359 -1516 372 -1503 
Q 1466 -434 1466 1600 
Q 1466 3634 384 4691 
Q 359 4706 359 4744 
Q 359 4766 376 4783 
Q 394 4800 416 4800 
L 475 4800 
Q 494 4800 506 4788 
Q 966 4425 1272 3906 
Q 1578 3388 1720 2800 
Q 1863 2213 1863 1600 
Q 1863 1147 1786 708 
Q 1709 269 1542 -157 
Q 1375 -584 1119 -945 
Q 863 -1306 506 -1588 
Q 494 -1600 475 -1600 
L 416 -1600 
z
" transform="scale(0.015625)"/>
      </defs>
      <use xlink:href="#Cmmi10-78"/>
      <use xlink:href="#Cmr10-28" transform="translate(57.080078 0)"/>
      <use xlink:href="#Cmmi10-74" transform="translate(95.898438 0)"/>
      <use xlink:href="#Cmr10-29" transform="translate(131.982422 0)"/>
     </g>
    </g>
   </g>
   <g id="line2d_50">
    <path d="M 114.8 314.440579 
L 124.492403 148.540458 
L 126.521667 118.494114 
L 128.628913 91.194798 
L 130.17022 74.274617 
L 131.382581 63.005322 
L 131.966439 58.260248 
L 132.970278 51.181193 
L 133.974118 45.5056 
L 134.603894 42.676241 
L 135.23367 40.41695 
L 136.228748 38.014097 
L 137.223826 37.036572 
L 137.923744 37.193432 
L 138.623662 38.0355 
L 139.286844 39.452182 
L 139.950027 41.45508 
L 140.782374 44.769668 
L 142.241338 52.602978 
L 142.867956 56.701545 
L 144.967432 73.230857 
L 146.803673 90.557616 
L 149.214217 115.918003 
L 153.256275 159.922039 
L 154.954944 177.089772 
L 156.321049 189.685256 
L 158.617401 207.61511 
L 159.7533 214.708039 
L 160.842713 220.284382 
L 161.932126 224.600919 
L 162.673948 226.800254 
L 163.415771 228.393682 
L 164.215783 229.433243 
L 165.015796 229.774908 
L 165.954177 229.304591 
L 167.038127 227.632955 
L 168.122077 224.819599 
L 169.359607 220.32806 
L 170.597138 214.629337 
L 171.879942 207.651026 
L 174.258139 192.643167 
L 178.800893 161.971672 
L 180.696429 150.729726 
L 181.748754 145.357896 
L 182.80108 140.764548 
L 184.023329 136.550507 
L 184.990548 134.161489 
L 185.700002 132.978909 
L 186.409456 132.300171 
L 187.538281 132.294868 
L 188.667106 133.642816 
L 189.470783 135.436288 
L 190.27446 137.920829 
L 191.161945 141.455702 
L 192.173559 146.469526 
L 193.983741 157.901239 
L 194.782309 163.864255 
L 197.233521 185.105188 
L 199.604517 208.723788 
L 204.450763 259.349477 
L 205.711543 271.595702 
L 207.156511 284.534283 
L 208.435382 294.745307 
L 209.714253 303.571291 
L 210.598646 308.769321 
L 211.407154 312.823937 
L 212.215661 316.179809 
L 213.153329 319.163928 
L 214.090996 321.146744 
L 214.738179 321.922549 
L 215.385362 322.211971 
L 216.223528 321.866237 
L 217.061695 320.716674 
L 217.927846 318.703001 
L 218.793996 315.877957 
L 219.588439 312.604626 
L 220.382883 308.713845 
L 221.494454 302.310279 
L 223.558493 287.863219 
L 225.52193 271.784643 
L 232.341479 212.180896 
L 233.286039 205.038635 
L 235.351106 191.593771 
L 236.247529 186.853048 
L 237.143951 182.861324 
L 238.024954 179.714818 
L 238.905957 177.375289 
L 240.016722 175.617659 
L 241.127487 175.219919 
L 241.795492 175.640434 
L 242.628091 176.854632 
L 243.46069 178.823487 
L 244.446456 182.103426 
L 245.432223 186.368663 
L 246.533982 192.228318 
L 247.635742 199.141998 
L 248.984795 208.864331 
L 251.194678 227.127894 
L 257.864251 287.166714 
L 259.773414 301.858686 
L 261.544994 313.152341 
L 262.688697 318.991231 
L 263.431808 322.107292 
L 264.174919 324.65885 
L 265.130711 327.07755 
L 266.086503 328.495092 
L 266.690844 328.86519 
L 267.295185 328.824558 
L 268.20828 327.98451 
L 269.17509 326.083753 
L 270.141901 323.167024 
L 270.823185 320.521636 
L 271.50447 317.4078 
L 272.440142 312.405873 
L 273.375813 306.621674 
L 274.546466 298.394228 
L 275.71712 289.216762 
L 278.055379 268.773902 
L 283.873416 215.217575 
L 286.082821 197.900857 
L 287.65016 187.75106 
L 288.382896 183.736095 
L 289.344852 179.242262 
L 290.568934 174.883619 
L 291.180975 173.302408 
L 292.055455 171.757107 
L 292.97859 171.052611 
L 293.901725 171.307461 
L 294.80812 172.487226 
L 295.714516 174.573095 
L 296.894508 178.602621 
L 298.528984 186.487629 
L 299.697704 193.612175 
L 300.866423 201.817479 
L 303.523815 223.598265 
L 311.078037 290.740441 
L 313.045365 304.566078 
L 314.649633 313.512294 
L 315.764938 318.300556 
L 316.880243 321.812444 
L 317.703884 323.548179 
L 318.829511 324.707094 
L 319.812276 324.558258 
L 320.79504 323.328538 
L 321.933496 320.575561 
L 322.774584 317.653748 
L 323.615673 314.009841 
L 325.126242 305.77486 
L 326.859166 293.964249 
L 329.073189 275.995088 
L 336.848666 206.134011 
L 338.869306 191.410609 
L 339.777569 185.812381 
L 340.950901 179.669561 
L 342.124233 174.866373 
L 342.885304 172.513389 
L 343.646374 170.784525 
L 344.143469 169.999395 
L 345.148022 169.255077 
L 346.152575 169.644973 
L 346.852978 170.585513 
L 347.553382 172.068266 
L 348.309702 174.26601 
L 349.066021 177.065397 
L 350.040569 181.521515 
L 351.015117 186.87626 
L 353.078635 200.832266 
L 353.947226 207.608238 
L 356.586965 230.500848 
L 361.26447 273.535446 
L 363.73925 293.758857 
L 365.616208 306.424407 
L 366.56537 311.710835 
L 367.680105 316.834794 
L 368.41805 319.539318 
L 369.155994 321.670567 
L 370.014376 323.406368 
L 370.872757 324.325471 
L 371.83299 324.374106 
L 372.793223 323.388136 
L 373.592931 321.786482 
L 374.392639 319.491022 
L 375.309616 316.032874 
L 376.226592 311.732905 
L 377.429842 304.902523 
L 378.598077 297.106913 
L 380.126064 285.440893 
L 382.040363 269.042348 
L 388.358397 211.699596 
L 389.591445 201.870197 
L 391.597359 188.088128 
L 393.404917 178.578824 
L 394.120772 175.685023 
L 394.836627 173.320688 
L 395.552482 171.503393 
L 396.364122 170.12157 
L 397.175761 169.473434 
L 397.801996 169.478963 
L 398.428232 169.925092 
L 398.898789 170.548805 
L 400.090814 173.220404 
L 401.282839 177.40962 
L 402.381344 182.540149 
L 403.340693 187.945814 
L 404.300043 194.138914 
L 405.451205 202.492749 
L 407.951393 223.340566 
L 413.829838 277.083005 
L 416.439347 297.729061 
L 418.172333 308.805168 
L 418.976745 313.06109 
L 420.232881 318.456453 
L 421.073127 321.161594 
L 421.913372 323.108869 
L 422.856592 324.367536 
L 423.799813 324.630134 
L 424.559602 324.114607 
L 425.3639 322.866896 
L 426.168199 320.908803 
L 427.027165 318.054031 
L 427.886132 314.440579 
L 427.886132 314.440579 
" clip-path="url(#pcac0b0f466)" style="fill: none; stroke: #0000ff; stroke-linecap: square"/>
   </g>
   <g id="line2d_51">
    <path d="M 114.8 314.440579 
L 115.595352 310.450941 
L 116.390703 305.880483 
L 117.534953 298.371528 
L 119.237213 285.449407 
L 120.848736 271.72595 
L 127.235554 213.625992 
L 129.313461 197.333688 
L 130.44131 189.729942 
L 131.381151 184.194969 
L 132.352635 179.319911 
L 133.32412 175.370948 
L 134.056574 173.039204 
L 134.789028 171.282977 
L 135.462525 170.187812 
L 136.136021 169.598034 
L 136.809517 169.51752 
L 137.620192 170.096531 
L 138.749808 172.123002 
L 139.879424 175.534035 
L 140.973502 180.098415 
L 142.067581 185.82352 
L 143.136859 192.44536 
L 145.34142 208.81281 
L 147.192365 224.678324 
L 153.719869 283.805756 
L 155.467433 297.270826 
L 156.324691 303.099849 
L 157.568712 310.482838 
L 158.319107 314.258899 
L 159.45843 318.935315 
L 160.597753 322.261421 
L 161.344749 323.678164 
L 162.309411 324.590353 
L 163.274072 324.457867 
L 164.328134 323.121209 
L 165.382195 320.56118 
L 166.243984 317.587267 
L 167.105772 313.854763 
L 167.936686 309.575174 
L 169.653297 298.809398 
L 170.866212 289.843677 
L 173.369124 268.699969 
L 180.094048 208.032704 
L 181.33531 198.48401 
L 182.576572 190.018776 
L 183.664161 183.641545 
L 184.75175 178.350653 
L 185.479649 175.462259 
L 186.207547 173.12365 
L 187.061748 171.104377 
L 187.915948 169.888111 
L 189.079489 169.545024 
L 189.980353 170.323681 
L 190.64215 171.471481 
L 191.303948 173.099125 
L 192.494094 177.198789 
L 193.684241 182.731051 
L 195.079147 190.884385 
L 196.823802 203.276693 
L 198.973659 221.130185 
L 206.420043 288.00347 
L 208.399078 302.406049 
L 209.331306 308.150462 
L 210.390236 313.739479 
L 211.764431 319.367462 
L 212.95809 322.657468 
L 213.55492 323.72095 
L 214.15175 324.388761 
L 215.071445 324.635877 
L 215.99114 323.932785 
L 217.096718 321.842893 
L 217.75414 319.96951 
L 218.411562 317.639578 
L 219.628495 312.173415 
L 220.818138 305.480136 
L 222.678989 292.671149 
L 224.601972 277.047979 
L 232.327742 207.608243 
L 233.605923 197.834322 
L 235.732097 184.255761 
L 236.713584 179.324897 
L 237.69507 175.339205 
L 238.567497 172.635121 
L 239.439924 170.751769 
L 240.081802 169.902619 
L 240.72368 169.514243 
L 241.697889 169.809559 
L 242.672099 171.166887 
L 243.566051 173.331064 
L 244.310024 175.78435 
L 245.053996 178.80937 
L 246.553416 186.540177 
L 247.793882 194.436305 
L 249.95307 210.85843 
L 252.408416 232.422056 
L 257.616317 279.91854 
L 258.763639 289.285882 
L 260.075963 299.004413 
L 262.0967 311.363581 
L 262.805112 314.830691 
L 263.768937 318.752366 
L 264.732762 321.709718 
L 265.365644 323.107407 
L 266.042619 324.113787 
L 266.719594 324.608549 
L 267.396568 324.588408 
L 268.073543 324.053497 
L 268.70083 323.101403 
L 269.328116 321.715777 
L 270.073692 319.516071 
L 270.819268 316.732909 
L 271.841687 312.0094 
L 272.840463 306.445423 
L 273.839239 300.023788 
L 275.761373 285.602819 
L 278.385787 262.765491 
L 283.248064 218.163588 
L 285.193944 202.237537 
L 287.397506 187.20213 
L 288.72246 180.123169 
L 289.715049 175.925861 
L 290.707638 172.7437 
L 291.388497 171.172025 
L 292.069356 170.110228 
L 292.685437 169.594894 
L 293.301517 169.50575 
L 293.917598 169.843286 
L 294.533678 170.605646 
L 295.467243 172.560458 
L 296.848967 177.169695 
L 297.645518 180.714589 
L 298.44207 184.8695 
L 299.766982 193.025893 
L 301.198784 203.376516 
L 303.847747 225.684982 
L 310.159138 282.948735 
L 312.513321 300.758735 
L 314.343595 311.706106 
L 315.270935 316.087004 
L 316.198274 319.60833 
L 316.896236 321.664749 
L 317.594198 323.194645 
L 318.210681 324.099308 
L 318.827164 324.57974 
L 319.443647 324.633295 
L 320.06013 324.259678 
L 320.542015 323.671424 
L 321.404853 321.975876 
L 322.267692 319.472559 
L 323.44016 314.826149 
L 324.612629 308.831616 
L 325.867332 301.059079 
L 327.036187 292.707774 
L 329.482795 272.522001 
L 336.441866 209.619662 
L 337.646567 200.191074 
L 339.518517 187.560263 
L 340.69935 181.107017 
L 341.880183 175.985194 
L 342.689217 173.299204 
L 343.498251 171.312801 
L 344.673525 169.710529 
L 345.656342 169.557802 
L 346.639159 170.489436 
L 347.30805 171.737583 
L 347.97694 173.474183 
L 348.808733 176.297829 
L 350.281442 183.015028 
L 351.992679 193.326113 
L 353.684786 205.759812 
L 356.230736 227.504876 
L 361.689414 277.453465 
L 364.043395 296.207656 
L 364.840368 301.735347 
L 365.978068 308.743162 
L 367.115768 314.595481 
L 367.827059 317.617604 
L 368.805958 320.927249 
L 369.784856 323.212026 
L 370.561875 324.27447 
L 371.338894 324.661619 
L 372.039918 324.428518 
L 372.740943 323.644583 
L 373.482411 322.222256 
L 374.22388 320.201322 
L 375.355158 316.002381 
L 376.486436 310.526441 
L 377.470294 304.804194 
L 378.64271 296.935981 
L 379.874557 287.603292 
L 381.550564 273.519139 
L 389.269864 204.445247 
L 391.580623 188.2791 
L 392.933137 180.848865 
L 394.133467 175.717446 
L 395.333796 172.074093 
L 395.97809 170.760012 
L 396.622383 169.90502 
L 397.632878 169.500088 
L 398.643372 170.242227 
L 399.398689 171.540176 
L 400.154006 173.462497 
L 400.848347 175.766878 
L 402.083509 181.084988 
L 403.578279 189.455964 
L 404.752721 197.354698 
L 405.927163 206.246118 
L 407.267542 217.378887 
L 415.508019 290.851406 
L 416.75486 299.940284 
L 417.785847 306.565492 
L 418.816834 312.275054 
L 420.058822 317.813666 
L 420.986352 320.92545 
L 421.913882 323.117019 
L 422.824849 324.347266 
L 423.473818 324.657584 
L 424.122787 324.494398 
L 424.771756 323.858705 
L 425.420725 322.754385 
L 426.420323 320.153041 
L 427.153228 317.571144 
L 427.886132 314.440579 
L 427.886132 314.440579 
" clip-path="url(#pcac0b0f466)" style="fill: none; stroke: #ff0000; stroke-linecap: square"/>
   </g>
   <g id="patch_3">
    <path d="M 114.8 334.701762 
L 114.8 31.2 
" style="fill: none; stroke: #000000; stroke-width: 0.8; stroke-linejoin: miter; stroke-linecap: square"/>
   </g>
   <g id="patch_4">
    <path d="M 108.538277 247.075479 
L 434.147854 247.075479 
" style="fill: none; stroke: #000000; stroke-width: 0.8; stroke-linejoin: miter; stroke-linecap: square"/>
   </g>
   <g id="legend_1">
    <g id="patch_5">
     <path d="M 382.047854 71.796875 
L 431.147854 71.796875 
L 431.147854 38.2 
L 382.047854 38.2 
z
" style="fill: #4c4c4c; opacity: 0.5; stroke: #4c4c4c; stroke-linejoin: miter"/>
    </g>
    <g id="patch_6">
     <path d="M 380.047854 69.796875 
L 429.147854 69.796875 
L 429.147854 36.2 
L 380.047854 36.2 
z
" style="fill: #ffffff; stroke: #cccccc; stroke-linejoin: miter"/>
    </g>
    <g id="line2d_52">
     <path d="M 389.047854 46.298438 
L 383.547854 46.298438 
" style="fill: none; stroke: #0000ff; stroke-linecap: square"/>
    </g>
    <g id="text_13">
     <!-- $x_h + x_p$ -->
     <g transform="translate(391.547854 49.798438)scale(0.1 -0.1)">
      <defs>
       <path id="Cmmi10-68" d="M 341 116 
Q 341 153 347 172 
L 1275 3872 
Q 1300 3981 1306 4044 
Q 1306 4147 891 4147 
Q 825 4147 825 4231 
Q 828 4247 839 4287 
Q 850 4328 867 4350 
Q 884 4372 916 4372 
L 1778 4441 
L 1797 4441 
Q 1797 4434 1819 4423 
Q 1841 4413 1844 4409 
Q 1856 4378 1856 4359 
L 1356 2363 
Q 1750 2828 2291 2828 
Q 2516 2828 2680 2750 
Q 2844 2672 2936 2514 
Q 3028 2356 3028 2138 
Q 3028 1875 2911 1503 
Q 2794 1131 2619 672 
Q 2528 463 2528 288 
Q 2528 97 2675 97 
Q 2925 97 3092 364 
Q 3259 631 3328 941 
Q 3341 978 3378 978 
L 3456 978 
Q 3481 978 3497 961 
Q 3513 944 3513 922 
Q 3513 916 3506 903 
Q 3450 672 3339 448 
Q 3228 225 3059 76 
Q 2891 -72 2663 -72 
Q 2438 -72 2278 83 
Q 2119 238 2119 459 
Q 2119 578 2169 709 
Q 2350 1191 2470 1569 
Q 2591 1947 2591 2234 
Q 2591 2419 2519 2541 
Q 2447 2663 2278 2663 
Q 1934 2663 1678 2452 
Q 1422 2241 1234 1894 
L 800 147 
Q 775 50 703 -11 
Q 631 -72 538 -72 
Q 456 -72 398 -17 
Q 341 38 341 116 
z
" transform="scale(0.015625)"/>
       <path id="Cmr10-2b" d="M 481 1472 
Q 428 1472 393 1512 
Q 359 1553 359 1600 
Q 359 1647 393 1687 
Q 428 1728 481 1728 
L 2363 1728 
L 2363 3616 
Q 2363 3666 2400 3698 
Q 2438 3731 2491 3731 
Q 2538 3731 2578 3698 
Q 2619 3666 2619 3616 
L 2619 1728 
L 4500 1728 
Q 4547 1728 4581 1687 
Q 4616 1647 4616 1600 
Q 4616 1553 4581 1512 
Q 4547 1472 4500 1472 
L 2619 1472 
L 2619 -416 
Q 2619 -466 2578 -498 
Q 2538 -531 2491 -531 
Q 2438 -531 2400 -498 
Q 2363 -466 2363 -416 
L 2363 1472 
L 481 1472 
z
" transform="scale(0.015625)"/>
       <path id="Cmmi10-70" d="M -159 -1241 
Q -219 -1241 -219 -1159 
Q -197 -1019 -134 -1019 
Q 66 -1019 145 -983 
Q 225 -947 269 -800 
L 991 2081 
Q 1038 2200 1038 2388 
Q 1038 2663 850 2663 
Q 650 2663 553 2423 
Q 456 2184 366 1819 
Q 366 1778 313 1778 
L 238 1778 
Q 222 1778 203 1801 
Q 184 1825 184 1844 
Q 253 2122 317 2315 
Q 381 2509 517 2668 
Q 653 2828 856 2828 
Q 1075 2828 1240 2704 
Q 1406 2581 1453 2369 
Q 1628 2572 1840 2700 
Q 2053 2828 2278 2828 
Q 2547 2828 2745 2684 
Q 2944 2541 3044 2308 
Q 3144 2075 3144 1806 
Q 3144 1394 2933 953 
Q 2722 513 2361 220 
Q 2000 -72 1588 -72 
Q 1400 -72 1248 34 
Q 1097 141 1013 313 
L 722 -825 
Q 706 -919 703 -934 
Q 703 -1019 1125 -1019 
Q 1191 -1019 1191 -1100 
Q 1169 -1184 1155 -1212 
Q 1141 -1241 1081 -1241 
L -159 -1241 
z
M 1594 97 
Q 1816 97 2006 280 
Q 2197 463 2316 691 
Q 2403 863 2479 1111 
Q 2556 1359 2612 1640 
Q 2669 1922 2669 2088 
Q 2669 2234 2630 2362 
Q 2591 2491 2502 2577 
Q 2413 2663 2266 2663 
Q 2031 2663 1823 2495 
Q 1616 2328 1447 2081 
L 1447 2059 
L 1094 647 
Q 1138 419 1263 258 
Q 1388 97 1594 97 
z
" transform="scale(0.015625)"/>
      </defs>
      <use xlink:href="#Cmmi10-78" transform="translate(0 0.703125)"/>
      <use xlink:href="#Cmmi10-68" transform="translate(57.080078 -16.303125)scale(0.7)"/>
      <use xlink:href="#Cmr10-2b" transform="translate(121.348047 0.703125)"/>
      <use xlink:href="#Cmmi10-78" transform="translate(216.592187 0.703125)"/>
      <use xlink:href="#Cmmi10-70" transform="translate(273.672266 -16.303125)scale(0.7)"/>
     </g>
    </g>
    <g id="line2d_53">
     <path d="M 389.047854 57.196875 
L 383.547854 57.196875 
" style="fill: none; stroke: #ff0000; stroke-linecap: square"/>
    </g>
    <g id="text_14">
     <!-- $x_p$ -->
     <g transform="translate(391.547854 60.696875)scale(0.1 -0.1)">
      <use xlink:href="#Cmmi10-78" transform="translate(0 0.8125)"/>
      <use xlink:href="#Cmmi10-70" transform="translate(57.080078 -16.19375)scale(0.7)"/>
     </g>
    </g>
   </g>
  </g>
 </g>
 <defs>
  <clipPath id="pcac0b0f466">
   <rect x="108.538277" y="31.2" width="325.609577" height="303.501762"/>
  </clipPath>
 </defs>
</svg>
