<?xml version="1.0" encoding="utf-8" standalone="no"?>
<!DOCTYPE svg PUBLIC "-//W3C//DTD SVG 1.1//EN"
  "http://www.w3.org/Graphics/SVG/1.1/DTD/svg11.dtd">
<svg xmlns:xlink="http://www.w3.org/1999/xlink" width="455.621487pt" height="338.4pt" viewBox="0 0 455.621487 338.4" xmlns="http://www.w3.org/2000/svg" version="1.1">
 <metadata>
  <rdf:RDF xmlns:dc="http://purl.org/dc/elements/1.1/" xmlns:cc="http://creativecommons.org/ns#" xmlns:rdf="http://www.w3.org/1999/02/22-rdf-syntax-ns#">
   <cc:Work>
    <dc:type rdf:resource="http://purl.org/dc/dcmitype/StillImage"/>
    <dc:date>2023-04-11T10:17:21.888207</dc:date>
    <dc:format>image/svg+xml</dc:format>
    <dc:creator>
     <cc:Agent>
      <dc:title>Matplotlib v3.5.1, https://matplotlib.org/</dc:title>
     </cc:Agent>
    </dc:creator>
   </cc:Work>
  </rdf:RDF>
 </metadata>
 <defs>
  <style type="text/css">*{stroke-linejoin: round; stroke-linecap: butt}</style>
 </defs>
 <g id="figure_1">
  <g id="patch_1">
   <path d="M 0 338.4 
L 455.621487 338.4 
L 455.621487 0 
L 0 0 
z
" style="fill: #ffffff"/>
  </g>
  <g id="axes_1">
   <g id="patch_2">
    <path d="M 35.691294 331.2 
L 433.391487 331.2 
L 433.391487 7.2 
L 35.691294 7.2 
z
" style="fill: #ffffff"/>
   </g>
   <g id="matplotlib.axis_1">
    <g id="xtick_1">
     <g id="line2d_1">
      <defs>
       <path id="m9d88af4621" d="M 0 0 
L 0 3.5 
" style="stroke: #000000; stroke-width: 0.8"/>
      </defs>
      <g>
       <use xlink:href="#m9d88af4621" x="43.339375" y="207.132152" style="stroke: #000000; stroke-width: 0.8"/>
      </g>
     </g>
    </g>
    <g id="xtick_2">
     <g id="line2d_2">
      <g>
       <use xlink:href="#m9d88af4621" x="119.820181" y="207.132152" style="stroke: #000000; stroke-width: 0.8"/>
      </g>
     </g>
     <g id="text_1">
      <!-- 2 -->
      <g transform="translate(116.002681 223.250277)scale(0.12 -0.12)">
       <defs>
        <path id="DejaVuSans-32" d="M 1228 531 
L 3431 531 
L 3431 0 
L 469 0 
L 469 531 
Q 828 903 1448 1529 
Q 2069 2156 2228 2338 
Q 2531 2678 2651 2914 
Q 2772 3150 2772 3378 
Q 2772 3750 2511 3984 
Q 2250 4219 1831 4219 
Q 1534 4219 1204 4116 
Q 875 4013 500 3803 
L 500 4441 
Q 881 4594 1212 4672 
Q 1544 4750 1819 4750 
Q 2544 4750 2975 4387 
Q 3406 4025 3406 3419 
Q 3406 3131 3298 2873 
Q 3191 2616 2906 2266 
Q 2828 2175 2409 1742 
Q 1991 1309 1228 531 
z
" transform="scale(0.015625)"/>
       </defs>
       <use xlink:href="#DejaVuSans-32"/>
      </g>
     </g>
    </g>
    <g id="xtick_3">
     <g id="line2d_3">
      <g>
       <use xlink:href="#m9d88af4621" x="196.300987" y="207.132152" style="stroke: #000000; stroke-width: 0.8"/>
      </g>
     </g>
     <g id="text_2">
      <!-- 4 -->
      <g transform="translate(192.483487 223.250277)scale(0.12 -0.12)">
       <defs>
        <path id="DejaVuSans-34" d="M 2419 4116 
L 825 1625 
L 2419 1625 
L 2419 4116 
z
M 2253 4666 
L 3047 4666 
L 3047 1625 
L 3713 1625 
L 3713 1100 
L 3047 1100 
L 3047 0 
L 2419 0 
L 2419 1100 
L 313 1100 
L 313 1709 
L 2253 4666 
z
" transform="scale(0.015625)"/>
       </defs>
       <use xlink:href="#DejaVuSans-34"/>
      </g>
     </g>
    </g>
    <g id="xtick_4">
     <g id="line2d_4">
      <g>
       <use xlink:href="#m9d88af4621" x="272.781794" y="207.132152" style="stroke: #000000; stroke-width: 0.8"/>
      </g>
     </g>
     <g id="text_3">
      <!-- 6 -->
      <g transform="translate(268.964294 223.250277)scale(0.12 -0.12)">
       <defs>
        <path id="DejaVuSans-36" d="M 2113 2584 
Q 1688 2584 1439 2293 
Q 1191 2003 1191 1497 
Q 1191 994 1439 701 
Q 1688 409 2113 409 
Q 2538 409 2786 701 
Q 3034 994 3034 1497 
Q 3034 2003 2786 2293 
Q 2538 2584 2113 2584 
z
M 3366 4563 
L 3366 3988 
Q 3128 4100 2886 4159 
Q 2644 4219 2406 4219 
Q 1781 4219 1451 3797 
Q 1122 3375 1075 2522 
Q 1259 2794 1537 2939 
Q 1816 3084 2150 3084 
Q 2853 3084 3261 2657 
Q 3669 2231 3669 1497 
Q 3669 778 3244 343 
Q 2819 -91 2113 -91 
Q 1303 -91 875 529 
Q 447 1150 447 2328 
Q 447 3434 972 4092 
Q 1497 4750 2381 4750 
Q 2619 4750 2861 4703 
Q 3103 4656 3366 4563 
z
" transform="scale(0.015625)"/>
       </defs>
       <use xlink:href="#DejaVuSans-36"/>
      </g>
     </g>
    </g>
    <g id="xtick_5">
     <g id="line2d_5">
      <g>
       <use xlink:href="#m9d88af4621" x="349.2626" y="207.132152" style="stroke: #000000; stroke-width: 0.8"/>
      </g>
     </g>
     <g id="text_4">
      <!-- 8 -->
      <g transform="translate(345.4451 223.250277)scale(0.12 -0.12)">
       <defs>
        <path id="DejaVuSans-38" d="M 2034 2216 
Q 1584 2216 1326 1975 
Q 1069 1734 1069 1313 
Q 1069 891 1326 650 
Q 1584 409 2034 409 
Q 2484 409 2743 651 
Q 3003 894 3003 1313 
Q 3003 1734 2745 1975 
Q 2488 2216 2034 2216 
z
M 1403 2484 
Q 997 2584 770 2862 
Q 544 3141 544 3541 
Q 544 4100 942 4425 
Q 1341 4750 2034 4750 
Q 2731 4750 3128 4425 
Q 3525 4100 3525 3541 
Q 3525 3141 3298 2862 
Q 3072 2584 2669 2484 
Q 3125 2378 3379 2068 
Q 3634 1759 3634 1313 
Q 3634 634 3220 271 
Q 2806 -91 2034 -91 
Q 1263 -91 848 271 
Q 434 634 434 1313 
Q 434 1759 690 2068 
Q 947 2378 1403 2484 
z
M 1172 3481 
Q 1172 3119 1398 2916 
Q 1625 2713 2034 2713 
Q 2441 2713 2670 2916 
Q 2900 3119 2900 3481 
Q 2900 3844 2670 4047 
Q 2441 4250 2034 4250 
Q 1625 4250 1398 4047 
Q 1172 3844 1172 3481 
z
" transform="scale(0.015625)"/>
       </defs>
       <use xlink:href="#DejaVuSans-38"/>
      </g>
     </g>
    </g>
    <g id="xtick_6">
     <g id="line2d_6">
      <g>
       <use xlink:href="#m9d88af4621" x="425.743406" y="207.132152" style="stroke: #000000; stroke-width: 0.8"/>
      </g>
     </g>
     <g id="text_5">
      <!-- 10 -->
      <g transform="translate(418.108406 223.250277)scale(0.12 -0.12)">
       <defs>
        <path id="DejaVuSans-31" d="M 794 531 
L 1825 531 
L 1825 4091 
L 703 3866 
L 703 4441 
L 1819 4666 
L 2450 4666 
L 2450 531 
L 3481 531 
L 3481 0 
L 794 0 
L 794 531 
z
" transform="scale(0.015625)"/>
        <path id="DejaVuSans-30" d="M 2034 4250 
Q 1547 4250 1301 3770 
Q 1056 3291 1056 2328 
Q 1056 1369 1301 889 
Q 1547 409 2034 409 
Q 2525 409 2770 889 
Q 3016 1369 3016 2328 
Q 3016 3291 2770 3770 
Q 2525 4250 2034 4250 
z
M 2034 4750 
Q 2819 4750 3233 4129 
Q 3647 3509 3647 2328 
Q 3647 1150 3233 529 
Q 2819 -91 2034 -91 
Q 1250 -91 836 529 
Q 422 1150 422 2328 
Q 422 3509 836 4129 
Q 1250 4750 2034 4750 
z
" transform="scale(0.015625)"/>
       </defs>
       <use xlink:href="#DejaVuSans-31"/>
       <use xlink:href="#DejaVuSans-30" x="63.623047"/>
      </g>
     </g>
    </g>
    <g id="xtick_7">
     <g id="line2d_7">
      <defs>
       <path id="mb1ec9545e9" d="M 0 0 
L 0 2 
" style="stroke: #000000; stroke-width: 0.6"/>
      </defs>
      <g>
       <use xlink:href="#mb1ec9545e9" x="62.459577" y="207.132152" style="stroke: #000000; stroke-width: 0.6"/>
      </g>
     </g>
    </g>
    <g id="xtick_8">
     <g id="line2d_8">
      <g>
       <use xlink:href="#mb1ec9545e9" x="81.579778" y="207.132152" style="stroke: #000000; stroke-width: 0.6"/>
      </g>
     </g>
    </g>
    <g id="xtick_9">
     <g id="line2d_9">
      <g>
       <use xlink:href="#mb1ec9545e9" x="100.69998" y="207.132152" style="stroke: #000000; stroke-width: 0.6"/>
      </g>
     </g>
    </g>
    <g id="xtick_10">
     <g id="line2d_10">
      <g>
       <use xlink:href="#mb1ec9545e9" x="138.940383" y="207.132152" style="stroke: #000000; stroke-width: 0.6"/>
      </g>
     </g>
    </g>
    <g id="xtick_11">
     <g id="line2d_11">
      <g>
       <use xlink:href="#mb1ec9545e9" x="158.060584" y="207.132152" style="stroke: #000000; stroke-width: 0.6"/>
      </g>
     </g>
    </g>
    <g id="xtick_12">
     <g id="line2d_12">
      <g>
       <use xlink:href="#mb1ec9545e9" x="177.180786" y="207.132152" style="stroke: #000000; stroke-width: 0.6"/>
      </g>
     </g>
    </g>
    <g id="xtick_13">
     <g id="line2d_13">
      <g>
       <use xlink:href="#mb1ec9545e9" x="215.421189" y="207.132152" style="stroke: #000000; stroke-width: 0.6"/>
      </g>
     </g>
    </g>
    <g id="xtick_14">
     <g id="line2d_14">
      <g>
       <use xlink:href="#mb1ec9545e9" x="234.541391" y="207.132152" style="stroke: #000000; stroke-width: 0.6"/>
      </g>
     </g>
    </g>
    <g id="xtick_15">
     <g id="line2d_15">
      <g>
       <use xlink:href="#mb1ec9545e9" x="253.661592" y="207.132152" style="stroke: #000000; stroke-width: 0.6"/>
      </g>
     </g>
    </g>
    <g id="xtick_16">
     <g id="line2d_16">
      <g>
       <use xlink:href="#mb1ec9545e9" x="291.901995" y="207.132152" style="stroke: #000000; stroke-width: 0.6"/>
      </g>
     </g>
    </g>
    <g id="xtick_17">
     <g id="line2d_17">
      <g>
       <use xlink:href="#mb1ec9545e9" x="311.022197" y="207.132152" style="stroke: #000000; stroke-width: 0.6"/>
      </g>
     </g>
    </g>
    <g id="xtick_18">
     <g id="line2d_18">
      <g>
       <use xlink:href="#mb1ec9545e9" x="330.142398" y="207.132152" style="stroke: #000000; stroke-width: 0.6"/>
      </g>
     </g>
    </g>
    <g id="xtick_19">
     <g id="line2d_19">
      <g>
       <use xlink:href="#mb1ec9545e9" x="368.382801" y="207.132152" style="stroke: #000000; stroke-width: 0.6"/>
      </g>
     </g>
    </g>
    <g id="xtick_20">
     <g id="line2d_20">
      <g>
       <use xlink:href="#mb1ec9545e9" x="387.503003" y="207.132152" style="stroke: #000000; stroke-width: 0.6"/>
      </g>
     </g>
    </g>
    <g id="xtick_21">
     <g id="line2d_21">
      <g>
       <use xlink:href="#mb1ec9545e9" x="406.623205" y="207.132152" style="stroke: #000000; stroke-width: 0.6"/>
      </g>
     </g>
    </g>
    <g id="text_6">
     <!-- $t$ -->
     <g transform="translate(441.391487 207.132152)scale(0.19 -0.19)">
      <defs>
       <path id="Cmmi10-74" d="M 397 519 
Q 397 613 416 697 
L 878 2534 
L 206 2534 
Q 141 2534 141 2619 
Q 166 2759 225 2759 
L 934 2759 
L 1191 3803 
Q 1216 3888 1291 3947 
Q 1366 4006 1459 4006 
Q 1541 4006 1595 3957 
Q 1650 3909 1650 3828 
Q 1650 3809 1648 3798 
Q 1647 3788 1644 3775 
L 1388 2759 
L 2047 2759 
Q 2113 2759 2113 2675 
Q 2109 2659 2100 2621 
Q 2091 2584 2075 2559 
Q 2059 2534 2028 2534 
L 1331 2534 
L 872 684 
Q 825 503 825 372 
Q 825 97 1013 97 
Q 1294 97 1511 361 
Q 1728 625 1844 941 
Q 1869 978 1894 978 
L 1972 978 
Q 1997 978 2012 961 
Q 2028 944 2028 922 
Q 2028 909 2022 903 
Q 1881 516 1612 222 
Q 1344 -72 997 -72 
Q 744 -72 570 93 
Q 397 259 397 519 
z
" transform="scale(0.015625)"/>
      </defs>
      <use xlink:href="#Cmmi10-74" transform="translate(0 0.40625)"/>
     </g>
    </g>
   </g>
   <g id="matplotlib.axis_2">
    <g id="ytick_1">
     <g id="line2d_22">
      <defs>
       <path id="m6f58a1b1f6" d="M 0 0 
L -3.5 0 
" style="stroke: #000000; stroke-width: 0.8"/>
      </defs>
      <g>
       <use xlink:href="#m6f58a1b1f6" x="43.339375" y="315.516393" style="stroke: #000000; stroke-width: 0.8"/>
      </g>
     </g>
     <g id="text_7">
      <!-- −1.5 -->
      <g transform="translate(7.2 320.075455)scale(0.12 -0.12)">
       <defs>
        <path id="DejaVuSans-2212" d="M 678 2272 
L 4684 2272 
L 4684 1741 
L 678 1741 
L 678 2272 
z
" transform="scale(0.015625)"/>
        <path id="DejaVuSans-2e" d="M 684 794 
L 1344 794 
L 1344 0 
L 684 0 
L 684 794 
z
" transform="scale(0.015625)"/>
        <path id="DejaVuSans-35" d="M 691 4666 
L 3169 4666 
L 3169 4134 
L 1269 4134 
L 1269 2991 
Q 1406 3038 1543 3061 
Q 1681 3084 1819 3084 
Q 2600 3084 3056 2656 
Q 3513 2228 3513 1497 
Q 3513 744 3044 326 
Q 2575 -91 1722 -91 
Q 1428 -91 1123 -41 
Q 819 9 494 109 
L 494 744 
Q 775 591 1075 516 
Q 1375 441 1709 441 
Q 2250 441 2565 725 
Q 2881 1009 2881 1497 
Q 2881 1984 2565 2268 
Q 2250 2553 1709 2553 
Q 1456 2553 1204 2497 
Q 953 2441 691 2322 
L 691 4666 
z
" transform="scale(0.015625)"/>
       </defs>
       <use xlink:href="#DejaVuSans-2212"/>
       <use xlink:href="#DejaVuSans-31" x="83.789062"/>
       <use xlink:href="#DejaVuSans-2e" x="147.412109"/>
       <use xlink:href="#DejaVuSans-35" x="179.199219"/>
      </g>
     </g>
    </g>
    <g id="ytick_2">
     <g id="line2d_23">
      <g>
       <use xlink:href="#m6f58a1b1f6" x="43.339375" y="279.388313" style="stroke: #000000; stroke-width: 0.8"/>
      </g>
     </g>
     <g id="text_8">
      <!-- −1.0 -->
      <g transform="translate(7.2 283.947375)scale(0.12 -0.12)">
       <use xlink:href="#DejaVuSans-2212"/>
       <use xlink:href="#DejaVuSans-31" x="83.789062"/>
       <use xlink:href="#DejaVuSans-2e" x="147.412109"/>
       <use xlink:href="#DejaVuSans-30" x="179.199219"/>
      </g>
     </g>
    </g>
    <g id="ytick_3">
     <g id="line2d_24">
      <g>
       <use xlink:href="#m6f58a1b1f6" x="43.339375" y="243.260232" style="stroke: #000000; stroke-width: 0.8"/>
      </g>
     </g>
     <g id="text_9">
      <!-- −0.5 -->
      <g transform="translate(7.2 247.819295)scale(0.12 -0.12)">
       <use xlink:href="#DejaVuSans-2212"/>
       <use xlink:href="#DejaVuSans-30" x="83.789062"/>
       <use xlink:href="#DejaVuSans-2e" x="147.412109"/>
       <use xlink:href="#DejaVuSans-35" x="179.199219"/>
      </g>
     </g>
    </g>
    <g id="ytick_4">
     <g id="line2d_25">
      <g>
       <use xlink:href="#m6f58a1b1f6" x="43.339375" y="207.132152" style="stroke: #000000; stroke-width: 0.8"/>
      </g>
     </g>
    </g>
    <g id="ytick_5">
     <g id="line2d_26">
      <g>
       <use xlink:href="#m6f58a1b1f6" x="43.339375" y="171.004072" style="stroke: #000000; stroke-width: 0.8"/>
      </g>
     </g>
     <g id="text_10">
      <!-- 0.5 -->
      <g transform="translate(17.255625 175.563134)scale(0.12 -0.12)">
       <use xlink:href="#DejaVuSans-30"/>
       <use xlink:href="#DejaVuSans-2e" x="63.623047"/>
       <use xlink:href="#DejaVuSans-35" x="95.410156"/>
      </g>
     </g>
    </g>
    <g id="ytick_6">
     <g id="line2d_27">
      <g>
       <use xlink:href="#m6f58a1b1f6" x="43.339375" y="134.875992" style="stroke: #000000; stroke-width: 0.8"/>
      </g>
     </g>
     <g id="text_11">
      <!-- 1.0 -->
      <g transform="translate(17.255625 139.435054)scale(0.12 -0.12)">
       <use xlink:href="#DejaVuSans-31"/>
       <use xlink:href="#DejaVuSans-2e" x="63.623047"/>
       <use xlink:href="#DejaVuSans-30" x="95.410156"/>
      </g>
     </g>
    </g>
    <g id="ytick_7">
     <g id="line2d_28">
      <g>
       <use xlink:href="#m6f58a1b1f6" x="43.339375" y="98.747911" style="stroke: #000000; stroke-width: 0.8"/>
      </g>
     </g>
     <g id="text_12">
      <!-- 1.5 -->
      <g transform="translate(17.255625 103.306974)scale(0.12 -0.12)">
       <use xlink:href="#DejaVuSans-31"/>
       <use xlink:href="#DejaVuSans-2e" x="63.623047"/>
       <use xlink:href="#DejaVuSans-35" x="95.410156"/>
      </g>
     </g>
    </g>
    <g id="ytick_8">
     <g id="line2d_29">
      <g>
       <use xlink:href="#m6f58a1b1f6" x="43.339375" y="62.619831" style="stroke: #000000; stroke-width: 0.8"/>
      </g>
     </g>
     <g id="text_13">
      <!-- 2.0 -->
      <g transform="translate(17.255625 67.178894)scale(0.12 -0.12)">
       <use xlink:href="#DejaVuSans-32"/>
       <use xlink:href="#DejaVuSans-2e" x="63.623047"/>
       <use xlink:href="#DejaVuSans-30" x="95.410156"/>
      </g>
     </g>
    </g>
    <g id="ytick_9">
     <g id="line2d_30">
      <g>
       <use xlink:href="#m6f58a1b1f6" x="43.339375" y="26.491751" style="stroke: #000000; stroke-width: 0.8"/>
      </g>
     </g>
     <g id="text_14">
      <!-- 2.5 -->
      <g transform="translate(17.255625 31.050813)scale(0.12 -0.12)">
       <use xlink:href="#DejaVuSans-32"/>
       <use xlink:href="#DejaVuSans-2e" x="63.623047"/>
       <use xlink:href="#DejaVuSans-35" x="95.410156"/>
      </g>
     </g>
    </g>
    <g id="ytick_10">
     <g id="line2d_31">
      <defs>
       <path id="m6bd92fa3bf" d="M 0 0 
L -2 0 
" style="stroke: #000000; stroke-width: 0.6"/>
      </defs>
      <g>
       <use xlink:href="#m6bd92fa3bf" x="43.339375" y="329.967625" style="stroke: #000000; stroke-width: 0.6"/>
      </g>
     </g>
    </g>
    <g id="ytick_11">
     <g id="line2d_32">
      <g>
       <use xlink:href="#m6bd92fa3bf" x="43.339375" y="322.742009" style="stroke: #000000; stroke-width: 0.6"/>
      </g>
     </g>
    </g>
    <g id="ytick_12">
     <g id="line2d_33">
      <g>
       <use xlink:href="#m6bd92fa3bf" x="43.339375" y="308.290777" style="stroke: #000000; stroke-width: 0.6"/>
      </g>
     </g>
    </g>
    <g id="ytick_13">
     <g id="line2d_34">
      <g>
       <use xlink:href="#m6bd92fa3bf" x="43.339375" y="301.065161" style="stroke: #000000; stroke-width: 0.6"/>
      </g>
     </g>
    </g>
    <g id="ytick_14">
     <g id="line2d_35">
      <g>
       <use xlink:href="#m6bd92fa3bf" x="43.339375" y="293.839545" style="stroke: #000000; stroke-width: 0.6"/>
      </g>
     </g>
    </g>
    <g id="ytick_15">
     <g id="line2d_36">
      <g>
       <use xlink:href="#m6bd92fa3bf" x="43.339375" y="286.613929" style="stroke: #000000; stroke-width: 0.6"/>
      </g>
     </g>
    </g>
    <g id="ytick_16">
     <g id="line2d_37">
      <g>
       <use xlink:href="#m6bd92fa3bf" x="43.339375" y="272.162696" style="stroke: #000000; stroke-width: 0.6"/>
      </g>
     </g>
    </g>
    <g id="ytick_17">
     <g id="line2d_38">
      <g>
       <use xlink:href="#m6bd92fa3bf" x="43.339375" y="264.93708" style="stroke: #000000; stroke-width: 0.6"/>
      </g>
     </g>
    </g>
    <g id="ytick_18">
     <g id="line2d_39">
      <g>
       <use xlink:href="#m6bd92fa3bf" x="43.339375" y="257.711464" style="stroke: #000000; stroke-width: 0.6"/>
      </g>
     </g>
    </g>
    <g id="ytick_19">
     <g id="line2d_40">
      <g>
       <use xlink:href="#m6bd92fa3bf" x="43.339375" y="250.485848" style="stroke: #000000; stroke-width: 0.6"/>
      </g>
     </g>
    </g>
    <g id="ytick_20">
     <g id="line2d_41">
      <g>
       <use xlink:href="#m6bd92fa3bf" x="43.339375" y="236.034616" style="stroke: #000000; stroke-width: 0.6"/>
      </g>
     </g>
    </g>
    <g id="ytick_21">
     <g id="line2d_42">
      <g>
       <use xlink:href="#m6bd92fa3bf" x="43.339375" y="228.809" style="stroke: #000000; stroke-width: 0.6"/>
      </g>
     </g>
    </g>
    <g id="ytick_22">
     <g id="line2d_43">
      <g>
       <use xlink:href="#m6bd92fa3bf" x="43.339375" y="221.583384" style="stroke: #000000; stroke-width: 0.6"/>
      </g>
     </g>
    </g>
    <g id="ytick_23">
     <g id="line2d_44">
      <g>
       <use xlink:href="#m6bd92fa3bf" x="43.339375" y="214.357768" style="stroke: #000000; stroke-width: 0.6"/>
      </g>
     </g>
    </g>
    <g id="ytick_24">
     <g id="line2d_45">
      <g>
       <use xlink:href="#m6bd92fa3bf" x="43.339375" y="199.906536" style="stroke: #000000; stroke-width: 0.6"/>
      </g>
     </g>
    </g>
    <g id="ytick_25">
     <g id="line2d_46">
      <g>
       <use xlink:href="#m6bd92fa3bf" x="43.339375" y="192.68092" style="stroke: #000000; stroke-width: 0.6"/>
      </g>
     </g>
    </g>
    <g id="ytick_26">
     <g id="line2d_47">
      <g>
       <use xlink:href="#m6bd92fa3bf" x="43.339375" y="185.455304" style="stroke: #000000; stroke-width: 0.6"/>
      </g>
     </g>
    </g>
    <g id="ytick_27">
     <g id="line2d_48">
      <g>
       <use xlink:href="#m6bd92fa3bf" x="43.339375" y="178.229688" style="stroke: #000000; stroke-width: 0.6"/>
      </g>
     </g>
    </g>
    <g id="ytick_28">
     <g id="line2d_49">
      <g>
       <use xlink:href="#m6bd92fa3bf" x="43.339375" y="163.778456" style="stroke: #000000; stroke-width: 0.6"/>
      </g>
     </g>
    </g>
    <g id="ytick_29">
     <g id="line2d_50">
      <g>
       <use xlink:href="#m6bd92fa3bf" x="43.339375" y="156.55284" style="stroke: #000000; stroke-width: 0.6"/>
      </g>
     </g>
    </g>
    <g id="ytick_30">
     <g id="line2d_51">
      <g>
       <use xlink:href="#m6bd92fa3bf" x="43.339375" y="149.327224" style="stroke: #000000; stroke-width: 0.6"/>
      </g>
     </g>
    </g>
    <g id="ytick_31">
     <g id="line2d_52">
      <g>
       <use xlink:href="#m6bd92fa3bf" x="43.339375" y="142.101608" style="stroke: #000000; stroke-width: 0.6"/>
      </g>
     </g>
    </g>
    <g id="ytick_32">
     <g id="line2d_53">
      <g>
       <use xlink:href="#m6bd92fa3bf" x="43.339375" y="127.650376" style="stroke: #000000; stroke-width: 0.6"/>
      </g>
     </g>
    </g>
    <g id="ytick_33">
     <g id="line2d_54">
      <g>
       <use xlink:href="#m6bd92fa3bf" x="43.339375" y="120.42476" style="stroke: #000000; stroke-width: 0.6"/>
      </g>
     </g>
    </g>
    <g id="ytick_34">
     <g id="line2d_55">
      <g>
       <use xlink:href="#m6bd92fa3bf" x="43.339375" y="113.199143" style="stroke: #000000; stroke-width: 0.6"/>
      </g>
     </g>
    </g>
    <g id="ytick_35">
     <g id="line2d_56">
      <g>
       <use xlink:href="#m6bd92fa3bf" x="43.339375" y="105.973527" style="stroke: #000000; stroke-width: 0.6"/>
      </g>
     </g>
    </g>
    <g id="ytick_36">
     <g id="line2d_57">
      <g>
       <use xlink:href="#m6bd92fa3bf" x="43.339375" y="91.522295" style="stroke: #000000; stroke-width: 0.6"/>
      </g>
     </g>
    </g>
    <g id="ytick_37">
     <g id="line2d_58">
      <g>
       <use xlink:href="#m6bd92fa3bf" x="43.339375" y="84.296679" style="stroke: #000000; stroke-width: 0.6"/>
      </g>
     </g>
    </g>
    <g id="ytick_38">
     <g id="line2d_59">
      <g>
       <use xlink:href="#m6bd92fa3bf" x="43.339375" y="77.071063" style="stroke: #000000; stroke-width: 0.6"/>
      </g>
     </g>
    </g>
    <g id="ytick_39">
     <g id="line2d_60">
      <g>
       <use xlink:href="#m6bd92fa3bf" x="43.339375" y="69.845447" style="stroke: #000000; stroke-width: 0.6"/>
      </g>
     </g>
    </g>
    <g id="ytick_40">
     <g id="line2d_61">
      <g>
       <use xlink:href="#m6bd92fa3bf" x="43.339375" y="55.394215" style="stroke: #000000; stroke-width: 0.6"/>
      </g>
     </g>
    </g>
    <g id="ytick_41">
     <g id="line2d_62">
      <g>
       <use xlink:href="#m6bd92fa3bf" x="43.339375" y="48.168599" style="stroke: #000000; stroke-width: 0.6"/>
      </g>
     </g>
    </g>
    <g id="ytick_42">
     <g id="line2d_63">
      <g>
       <use xlink:href="#m6bd92fa3bf" x="43.339375" y="40.942983" style="stroke: #000000; stroke-width: 0.6"/>
      </g>
     </g>
    </g>
    <g id="ytick_43">
     <g id="line2d_64">
      <g>
       <use xlink:href="#m6bd92fa3bf" x="43.339375" y="33.717367" style="stroke: #000000; stroke-width: 0.6"/>
      </g>
     </g>
    </g>
    <g id="ytick_44">
     <g id="line2d_65">
      <g>
       <use xlink:href="#m6bd92fa3bf" x="43.339375" y="19.266135" style="stroke: #000000; stroke-width: 0.6"/>
      </g>
     </g>
    </g>
    <g id="ytick_45">
     <g id="line2d_66">
      <g>
       <use xlink:href="#m6bd92fa3bf" x="43.339375" y="12.040519" style="stroke: #000000; stroke-width: 0.6"/>
      </g>
     </g>
    </g>
   </g>
   <g id="line2d_67">
    <path d="M 43.339375 171.004072 
L 45.162543 169.55216 
L 46.716375 168.696262 
L 48.616344 168.048182 
L 50.125824 167.796471 
L 51.92462 167.749821 
L 54.628705 168.097978 
L 56.591264 168.598208 
L 60.348246 169.975022 
L 64.157935 171.749097 
L 67.708652 173.601519 
L 86.328592 183.690274 
L 93.078318 186.919809 
L 99.434221 189.64541 
L 106.06055 192.158797 
L 113.325328 194.548942 
L 117.877343 195.866373 
L 125.225169 197.728352 
L 131.332383 199.052905 
L 137.405392 200.193491 
L 144.54613 201.337879 
L 152.387189 202.384548 
L 160.69302 203.292447 
L 171.332955 204.210674 
L 183.563533 205.00147 
L 197.532571 205.648463 
L 214.573527 206.179347 
L 233.56118 206.55113 
L 261.085824 206.848844 
L 302.409663 207.035911 
L 381.604083 207.120014 
L 425.743406 207.128325 
L 425.743406 207.128325 
" clip-path="url(#pb8e0789678)" style="fill: none; stroke: #0000ff; stroke-linecap: square"/>
   </g>
   <g id="line2d_68">
    <path d="M 43.339375 171.004072 
L 44.881668 180.448089 
L 46.421397 188.508274 
L 48.135388 196.100079 
L 49.812967 202.325803 
L 51.523487 207.629442 
L 53.090213 211.695978 
L 54.620365 215.040037 
L 55.905874 217.431932 
L 57.218107 219.528242 
L 57.887585 220.476516 
L 59.226541 222.151682 
L 61.328594 224.257536 
L 63.437621 225.829589 
L 64.451979 226.422366 
L 66.114793 227.197085 
L 67.471852 227.669863 
L 68.828912 228.018166 
L 71.333054 228.384663 
L 74.090493 228.454292 
L 75.420235 228.387908 
L 79.095777 227.945788 
L 82.758337 227.228572 
L 88.169163 225.864263 
L 95.154739 223.855973 
L 108.567628 220.00767 
L 116.70301 217.929543 
L 125.113195 216.053377 
L 133.405825 214.475209 
L 141.299982 213.205712 
L 150.25104 212.009932 
L 161.083616 210.857006 
L 171.174188 210.020437 
L 182.76579 209.282625 
L 196.764159 208.633887 
L 212.9691 208.120506 
L 231.730028 207.739685 
L 257.953213 207.439125 
L 296.493317 207.244423 
L 367.772497 207.149577 
L 425.743406 207.135979 
L 425.743406 207.135979 
" clip-path="url(#pb8e0789678)" style="fill: none; stroke: #ff0000; stroke-linecap: square"/>
   </g>
   <g id="line2d_69">
    <path d="M 43.339375 134.875992 
L 44.382476 133.111987 
L 45.425577 131.731213 
L 46.198069 130.930456 
L 46.970561 130.300778 
L 47.740344 129.829081 
L 48.510126 129.499612 
L 49.279909 129.300135 
L 50.049692 129.219349 
L 51.2653 129.308412 
L 52.416086 129.608061 
L 54.235193 130.4411 
L 56.322886 131.834446 
L 59.220052 134.338225 
L 63.437808 138.736514 
L 68.879697 145.025728 
L 75.463257 152.735146 
L 81.376037 159.302782 
L 87.116423 165.165939 
L 91.137461 168.9355 
L 95.553527 172.74963 
L 98.893319 175.412264 
L 103.753063 178.95975 
L 109.013456 182.389535 
L 113.810844 185.175275 
L 119.745576 188.212854 
L 123.766303 190.038429 
L 128.957015 192.146129 
L 135.396057 194.413217 
L 141.174679 196.160966 
L 148.161212 197.962376 
L 155.223226 199.487338 
L 161.779726 200.677978 
L 169.339497 201.824797 
L 178.055457 202.898439 
L 186.413023 203.724623 
L 197.178316 204.55693 
L 209.779138 205.277528 
L 225.38962 205.897802 
L 243.760157 206.368035 
L 265.576768 206.699997 
L 298.80953 206.950849 
L 351.612602 207.086567 
L 425.743406 207.125591 
L 425.743406 207.125591 
" clip-path="url(#pb8e0789678)" style="fill: none; stroke: #0000ff; stroke-linecap: square"/>
   </g>
   <g id="line2d_70">
    <path d="M 43.339375 134.875992 
L 44.743996 154.528399 
L 46.148617 171.3081 
L 47.566322 185.72524 
L 48.903602 197.314867 
L 50.246079 207.245874 
L 51.684326 216.242261 
L 53.296623 224.59115 
L 54.600256 230.18824 
L 56.240221 235.979453 
L 57.815414 240.42196 
L 58.989506 243.121861 
L 60.43055 245.820276 
L 61.957278 248.040432 
L 63.465315 249.683962 
L 64.973352 250.864359 
L 66.283305 251.56906 
L 67.882524 252.086411 
L 69.728643 252.291573 
L 71.365868 252.184606 
L 72.762466 251.916586 
L 74.159064 251.512776 
L 77.645153 250.048934 
L 80.989221 248.2216 
L 85.106001 245.649963 
L 100.461488 235.569105 
L 105.510457 232.551887 
L 111.121573 229.478971 
L 115.353113 227.364125 
L 120.164128 225.168059 
L 124.449071 223.391316 
L 129.529098 221.49045 
L 135.989746 219.36895 
L 141.414229 217.81851 
L 147.759872 216.241616 
L 154.267183 214.857587 
L 161.680524 213.528336 
L 168.270216 212.535822 
L 177.859263 211.355599 
L 186.64801 210.498818 
L 198.088827 209.636 
L 210.137664 208.963644 
L 225.104703 208.373026 
L 243.69151 207.896624 
L 266.206549 207.556941 
L 299.287989 207.311146 
L 352.062206 207.177201 
L 425.743406 207.138713 
L 425.743406 207.138713 
" clip-path="url(#pb8e0789678)" style="fill: none; stroke: #ff0000; stroke-linecap: square"/>
   </g>
   <g id="line2d_71">
    <path d="M 43.339375 98.747911 
L 44.371448 96.139111 
L 45.403521 94.115465 
L 46.44139 92.603975 
L 47.479258 91.557477 
L 48.363317 90.99224 
L 49.247376 90.69511 
L 50.18495 90.642435 
L 51.122523 90.830835 
L 52.181508 91.299947 
L 53.240492 92.007569 
L 54.33809 92.959507 
L 56.47826 95.34268 
L 58.595317 98.231659 
L 59.852314 100.134746 
L 63.23881 105.735517 
L 68.588993 115.287205 
L 76.360794 129.132149 
L 79.315305 134.12494 
L 84.73042 142.713996 
L 88.823933 148.67952 
L 93.525593 154.958555 
L 97.278504 159.540729 
L 102.004677 164.794189 
L 106.229195 169.032052 
L 109.99717 172.473226 
L 115.47789 176.956022 
L 121.579759 181.29186 
L 125.500192 183.752658 
L 130.118624 186.359864 
L 135.33425 188.96332 
L 140.415712 191.190924 
L 145.319711 193.085076 
L 150.335852 194.792748 
L 156.689882 196.664113 
L 162.32027 198.085795 
L 168.677789 199.462021 
L 174.53375 200.544776 
L 181.917441 201.695946 
L 189.950336 202.721966 
L 198.167312 203.572076 
L 208.205155 204.392031 
L 219.928835 205.114266 
L 234.340931 205.747128 
L 250.629808 206.227158 
L 271.155837 206.602887 
L 300.988387 206.889506 
L 344.276681 207.053915 
L 425.743406 207.122858 
L 425.743406 207.122858 
" clip-path="url(#pb8e0789678)" style="fill: none; stroke: #0000ff; stroke-linecap: square"/>
   </g>
   <g id="line2d_72">
    <path d="M 43.339375 98.747911 
L 44.847547 131.462153 
L 46.115536 154.879192 
L 47.630277 178.642219 
L 48.983235 196.514825 
L 50.491943 213.24728 
L 51.887679 226.143524 
L 53.357115 237.423364 
L 54.483441 244.685824 
L 55.941904 252.546777 
L 57.177549 258.018851 
L 58.301784 262.173261 
L 59.42602 265.635912 
L 60.603521 268.608379 
L 61.6789 270.806795 
L 62.822741 272.668505 
L 64.035043 274.170086 
L 64.641194 274.758335 
L 65.584259 275.479784 
L 67.210444 276.233338 
L 68.576686 276.455085 
L 69.676957 276.40213 
L 70.701373 276.191954 
L 71.725789 275.845823 
L 73.059887 275.218683 
L 75.648467 273.543502 
L 78.493766 271.192719 
L 80.92743 268.901261 
L 85.464465 264.252254 
L 95.999565 253.211122 
L 100.419401 248.883651 
L 105.349535 244.394904 
L 109.708029 240.746922 
L 115.698104 236.226115 
L 119.869679 233.402558 
L 125.545059 229.961058 
L 131.140629 226.982479 
L 135.984009 224.704634 
L 141.056697 222.587702 
L 144.902661 221.148673 
L 151.198157 219.068905 
L 156.379016 217.585724 
L 162.422201 216.08263 
L 168.395282 214.806235 
L 176.216191 213.402741 
L 183.330861 212.348037 
L 191.738591 211.32617 
L 200.763353 210.44963 
L 211.039002 209.671376 
L 222.031226 209.039115 
L 236.046277 208.45532 
L 252.054004 208.003429 
L 273.919377 207.624324 
L 302.851569 207.363216 
L 348.054619 207.203025 
L 425.743406 207.141446 
L 425.743406 207.141446 
" clip-path="url(#pb8e0789678)" style="fill: none; stroke: #ff0000; stroke-linecap: square"/>
   </g>
   <g id="line2d_73">
    <path d="M 43.339375 62.619831 
L 43.955123 60.448422 
L 45.186618 56.975151 
L 46.167564 54.951781 
L 46.897962 53.826215 
L 47.26316 53.375657 
L 47.948871 52.717828 
L 48.634581 52.288894 
L 49.320291 52.070367 
L 50.006001 52.045067 
L 50.851593 52.256332 
L 51.58705 52.637797 
L 52.322507 53.185648 
L 53.793421 54.720073 
L 55.081436 56.473916 
L 56.987067 59.632585 
L 59.680553 64.952823 
L 63.074957 72.57083 
L 68.714517 86.198627 
L 74.045688 99.087859 
L 78.997759 110.477303 
L 82.263189 117.548022 
L 86.005005 125.168241 
L 90.405672 133.449326 
L 94.346995 140.245945 
L 98.562531 146.890603 
L 102.719262 152.844447 
L 106.696017 158.021461 
L 110.855249 162.933386 
L 114.406976 166.75216 
L 117.515966 169.832029 
L 122.014291 173.888345 
L 126.08185 177.183811 
L 129.184534 179.480547 
L 133.449192 182.357607 
L 138.456925 185.361611 
L 140.475287 186.468147 
L 144.227557 188.379674 
L 149.889168 190.9377 
L 154.781297 192.867574 
L 159.006777 194.349674 
L 164.85274 196.151228 
L 170.759442 197.715084 
L 175.391138 198.78462 
L 183.116621 200.306152 
L 191.527342 201.650007 
L 198.816957 202.599242 
L 209.110386 203.667053 
L 219.406375 204.483846 
L 232.904573 205.270723 
L 246.245981 205.818587 
L 264.393658 206.314704 
L 285.957467 206.666952 
L 315.688923 206.918337 
L 363.12623 207.070304 
L 425.743406 207.120124 
L 425.743406 207.120124 
" clip-path="url(#pb8e0789678)" style="fill: none; stroke: #0000ff; stroke-linecap: square"/>
   </g>
   <g id="line2d_74">
    <path d="M 43.339375 62.619831 
L 44.740944 104.174277 
L 46.275958 142.503044 
L 47.792369 174.067344 
L 49.15481 197.861069 
L 50.633333 219.494786 
L 52.071583 236.949506 
L 53.508983 251.368407 
L 54.636792 260.849368 
L 55.764601 268.921398 
L 57.188176 277.350447 
L 58.333115 282.885332 
L 59.443514 287.328536 
L 60.519371 290.866341 
L 61.786122 294.181433 
L 63.152248 296.860617 
L 64.426857 298.638527 
L 65.669771 299.795348 
L 66.564849 300.320196 
L 67.459927 300.616556 
L 68.355005 300.708037 
L 69.250084 300.61611 
L 70.444761 300.241199 
L 71.907237 299.44491 
L 74.164832 297.628309 
L 75.078619 296.729742 
L 76.906194 294.712037 
L 79.058351 292.043898 
L 82.220195 287.746695 
L 98.016185 265.299793 
L 100.910644 261.547708 
L 105.469403 256.005535 
L 108.626666 252.43953 
L 112.592021 248.275694 
L 117.501599 243.59083 
L 122.403867 239.402777 
L 126.281412 236.412188 
L 129.169541 234.356728 
L 133.848003 231.315928 
L 137.605045 229.112841 
L 141.350393 227.1103 
L 144.510974 225.559246 
L 149.971289 223.151829 
L 155.176441 221.144961 
L 159.910929 219.535351 
L 163.599025 218.408962 
L 171.038166 216.43534 
L 178.056707 214.888257 
L 183.062228 213.943499 
L 191.027733 212.670166 
L 198.268903 211.719382 
L 208.628143 210.634778 
L 219.849054 209.74648 
L 231.790665 209.046651 
L 244.668991 208.500014 
L 260.239834 208.042925 
L 282.402943 207.642521 
L 311.488723 207.370757 
L 356.555447 207.205592 
L 425.743406 207.14418 
L 425.743406 207.14418 
" clip-path="url(#pb8e0789678)" style="fill: none; stroke: #ff0000; stroke-linecap: square"/>
   </g>
   <g id="line2d_75">
    <path d="M 43.339375 26.491751 
L 44.343919 22.262187 
L 45.348463 18.987003 
L 46.018158 17.280592 
L 46.634494 16.017952 
L 47.25083 15.028672 
L 47.892167 14.268303 
L 48.939289 13.563738 
L 49.750858 13.430769 
L 50.621342 13.645592 
L 51.550741 14.240194 
L 52.48014 15.169682 
L 52.944839 15.747623 
L 54.590895 18.323838 
L 55.813227 20.693826 
L 58.082896 25.89712 
L 60.075728 31.109434 
L 63.326332 40.435421 
L 68.129624 55.080238 
L 73.951698 72.803264 
L 78.538787 86.075257 
L 82.594335 97.068957 
L 85.807861 105.23078 
L 90.486565 116.219712 
L 94.401508 124.610275 
L 98.130529 131.947313 
L 101.832887 138.632512 
L 104.891587 143.730842 
L 108.645582 149.496576 
L 112.111171 154.370803 
L 115.435561 158.67111 
L 119.186335 163.114912 
L 122.618793 166.831701 
L 126.096541 170.283792 
L 129.417525 173.308558 
L 132.932044 176.243561 
L 137.754573 179.865956 
L 141.336972 182.281951 
L 144.812485 184.423019 
L 150.168365 187.36979 
L 153.934839 189.211635 
L 158.013288 191.01416 
L 164.805478 193.624706 
L 169.273997 195.108104 
L 175.727468 196.9687 
L 182.443953 198.600977 
L 189.850367 200.099488 
L 196.704495 201.25116 
L 206.326848 202.557424 
L 216.02276 203.580732 
L 227.597184 204.50739 
L 238.465175 205.156278 
L 252.136004 205.749896 
L 267.582535 206.209089 
L 288.350845 206.595832 
L 317.962512 206.884884 
L 362.544421 207.055083 
L 425.743406 207.11739 
L 425.743406 207.11739 
" clip-path="url(#pb8e0789678)" style="fill: none; stroke: #0000ff; stroke-linecap: square"/>
   </g>
   <g id="line2d_76">
    <path d="M 43.339375 26.491751 
L 44.624769 74.98373 
L 45.996745 119.248636 
L 47.368721 156.806506 
L 48.862409 191.137257 
L 50.234805 217.499936 
L 51.6076 239.607805 
L 52.964424 257.845169 
L 54.081468 270.514858 
L 55.362144 282.768048 
L 56.64282 292.899204 
L 58.065674 302.006128 
L 59.131997 307.542398 
L 60.126504 311.832884 
L 61.245293 315.766441 
L 62.488365 319.16084 
L 63.547358 321.342182 
L 64.422274 322.70889 
L 65.404913 323.825174 
L 66.495278 324.602825 
L 67.04046 324.828137 
L 67.69991 324.968126 
L 68.407437 324.969231 
L 69.114964 324.828871 
L 70.530018 324.171747 
L 71.652255 323.340694 
L 73.441552 321.548721 
L 75.039289 319.555848 
L 76.637026 317.273966 
L 79.390021 312.848852 
L 83.074152 306.329794 
L 94.477223 285.462922 
L 99.180266 277.470049 
L 103.563149 270.55615 
L 107.626573 264.638676 
L 111.46666 259.483275 
L 115.746676 254.222738 
L 118.110858 251.527304 
L 123.06677 246.334711 
L 126.85465 242.757149 
L 129.940392 240.074709 
L 133.106198 237.524562 
L 138.377279 233.695956 
L 140.400539 232.354441 
L 144.564948 229.797952 
L 149.218391 227.240748 
L 153.942698 224.934864 
L 158.718864 222.868737 
L 164.27228 220.762591 
L 169.748693 218.959294 
L 176.006496 217.186636 
L 182.340093 215.661149 
L 189.209831 214.265676 
L 195.067628 213.256831 
L 202.240397 212.213017 
L 211.595853 211.113396 
L 221.547234 210.203112 
L 231.247275 209.516208 
L 243.00815 208.885778 
L 258.342112 208.306947 
L 276.644306 207.860331 
L 300.899518 207.518407 
L 334.002267 207.294705 
L 388.731993 207.171009 
L 425.743406 207.146914 
L 425.743406 207.146914 
" clip-path="url(#pb8e0789678)" style="fill: none; stroke: #ff0000; stroke-linecap: square"/>
   </g>
   <g id="patch_3">
    <path d="M 43.339375 331.2 
L 43.339375 7.2 
" style="fill: none; stroke: #000000; stroke-width: 0.8; stroke-linejoin: miter; stroke-linecap: square"/>
   </g>
   <g id="patch_4">
    <path d="M 35.691294 207.132152 
L 433.391487 207.132152 
" style="fill: none; stroke: #000000; stroke-width: 0.8; stroke-linejoin: miter; stroke-linecap: square"/>
   </g>
   <g id="legend_1">
    <g id="patch_5">
     <path d="M 388.091487 46.596875 
L 430.391487 46.596875 
L 430.391487 14.2 
L 388.091487 14.2 
z
" style="fill: #4c4c4c; opacity: 0.5; stroke: #4c4c4c; stroke-linejoin: miter"/>
    </g>
    <g id="patch_6">
     <path d="M 386.091487 44.596875 
L 428.391487 44.596875 
L 428.391487 12.2 
L 386.091487 12.2 
z
" style="fill: #ffffff; stroke: #cccccc; stroke-linejoin: miter"/>
    </g>
    <g id="line2d_77">
     <path d="M 395.091487 22.298438 
L 389.591487 22.298438 
" style="fill: none; stroke: #0000ff; stroke-linecap: square"/>
    </g>
    <g id="text_15">
     <!-- $x(t)$ -->
     <g transform="translate(397.591487 25.798438)scale(0.1 -0.1)">
      <defs>
       <path id="Cmmi10-78" d="M 500 184 
Q 613 97 819 97 
Q 1019 97 1172 289 
Q 1325 481 1381 709 
L 1672 1844 
Q 1741 2153 1741 2266 
Q 1741 2425 1652 2544 
Q 1563 2663 1403 2663 
Q 1200 2663 1022 2536 
Q 844 2409 722 2214 
Q 600 2019 550 1819 
Q 538 1778 500 1778 
L 422 1778 
Q 372 1778 372 1838 
L 372 1856 
Q 434 2094 584 2320 
Q 734 2547 951 2687 
Q 1169 2828 1416 2828 
Q 1650 2828 1839 2703 
Q 2028 2578 2106 2363 
Q 2216 2559 2386 2693 
Q 2556 2828 2759 2828 
Q 2897 2828 3040 2779 
Q 3184 2731 3275 2631 
Q 3366 2531 3366 2381 
Q 3366 2219 3261 2101 
Q 3156 1984 2994 1984 
Q 2891 1984 2822 2050 
Q 2753 2116 2753 2216 
Q 2753 2350 2845 2451 
Q 2938 2553 3066 2572 
Q 2950 2663 2747 2663 
Q 2541 2663 2389 2472 
Q 2238 2281 2175 2047 
L 1894 916 
Q 1825 659 1825 494 
Q 1825 331 1917 214 
Q 2009 97 2163 97 
Q 2463 97 2698 361 
Q 2934 625 3009 941 
Q 3022 978 3059 978 
L 3138 978 
Q 3163 978 3178 961 
Q 3194 944 3194 922 
Q 3194 916 3188 903 
Q 3097 522 2806 225 
Q 2516 -72 2150 -72 
Q 1916 -72 1727 54 
Q 1538 181 1459 397 
Q 1359 209 1182 68 
Q 1006 -72 806 -72 
Q 669 -72 523 -23 
Q 378 25 287 125 
Q 197 225 197 378 
Q 197 528 301 651 
Q 406 775 563 775 
Q 669 775 741 711 
Q 813 647 813 544 
Q 813 409 723 309 
Q 634 209 500 184 
z
" transform="scale(0.015625)"/>
       <path id="Cmr10-28" d="M 1984 -1588 
Q 1628 -1306 1370 -942 
Q 1113 -578 948 -165 
Q 784 247 703 697 
Q 622 1147 622 1600 
Q 622 2059 703 2509 
Q 784 2959 951 3375 
Q 1119 3791 1378 4153 
Q 1638 4516 1984 4788 
Q 1984 4800 2016 4800 
L 2075 4800 
Q 2094 4800 2109 4783 
Q 2125 4766 2125 4744 
Q 2125 4716 2113 4703 
Q 1800 4397 1592 4047 
Q 1384 3697 1257 3301 
Q 1131 2906 1075 2482 
Q 1019 2059 1019 1600 
Q 1019 -434 2106 -1491 
Q 2125 -1509 2125 -1544 
Q 2125 -1559 2108 -1579 
Q 2091 -1600 2075 -1600 
L 2016 -1600 
Q 1984 -1600 1984 -1588 
z
" transform="scale(0.015625)"/>
       <path id="Cmr10-29" d="M 416 -1600 
Q 359 -1600 359 -1544 
Q 359 -1516 372 -1503 
Q 1466 -434 1466 1600 
Q 1466 3634 384 4691 
Q 359 4706 359 4744 
Q 359 4766 376 4783 
Q 394 4800 416 4800 
L 475 4800 
Q 494 4800 506 4788 
Q 966 4425 1272 3906 
Q 1578 3388 1720 2800 
Q 1863 2213 1863 1600 
Q 1863 1147 1786 708 
Q 1709 269 1542 -157 
Q 1375 -584 1119 -945 
Q 863 -1306 506 -1588 
Q 494 -1600 475 -1600 
L 416 -1600 
z
" transform="scale(0.015625)"/>
      </defs>
      <use xlink:href="#Cmmi10-78"/>
      <use xlink:href="#Cmr10-28" transform="translate(57.080078 0)"/>
      <use xlink:href="#Cmmi10-74" transform="translate(95.898438 0)"/>
      <use xlink:href="#Cmr10-29" transform="translate(131.982422 0)"/>
     </g>
    </g>
    <g id="line2d_78">
     <path d="M 395.091487 32.596875 
L 389.591487 32.596875 
" style="fill: none; stroke: #ff0000; stroke-linecap: square"/>
    </g>
    <g id="text_16">
     <!-- $dx/dt$ -->
     <g transform="translate(397.591487 36.096875)scale(0.1 -0.1)">
      <defs>
       <path id="Cmmi10-64" d="M 1113 -72 
Q 709 -72 476 233 
Q 244 538 244 953 
Q 244 1363 456 1803 
Q 669 2244 1030 2536 
Q 1391 2828 1806 2828 
Q 1994 2828 2145 2723 
Q 2297 2619 2381 2444 
L 2741 3872 
Q 2766 3981 2772 4044 
Q 2772 4147 2356 4147 
Q 2291 4147 2291 4231 
Q 2294 4247 2305 4287 
Q 2316 4328 2333 4350 
Q 2350 4372 2381 4372 
L 3244 4441 
Q 3322 4441 3322 4359 
L 2400 678 
Q 2356 572 2356 372 
Q 2356 97 2541 97 
Q 2741 97 2845 351 
Q 2950 606 3022 941 
Q 3034 978 3072 978 
L 3150 978 
Q 3175 978 3190 956 
Q 3206 934 3206 916 
Q 3094 469 2961 198 
Q 2828 -72 2528 -72 
Q 2313 -72 2147 54 
Q 1981 181 1941 391 
Q 1528 -72 1113 -72 
z
M 1119 97 
Q 1350 97 1567 270 
Q 1784 444 1941 678 
Q 1947 684 1947 703 
L 2297 2113 
Q 2259 2338 2131 2500 
Q 2003 2663 1791 2663 
Q 1575 2663 1389 2486 
Q 1203 2309 1075 2069 
Q 950 1813 836 1366 
Q 722 919 722 672 
Q 722 450 817 273 
Q 913 97 1119 97 
z
" transform="scale(0.015625)"/>
       <path id="Cmmi10-3d" d="M 359 -1472 
Q 359 -1453 366 -1447 
L 2591 4722 
Q 2603 4759 2634 4779 
Q 2666 4800 2706 4800 
Q 2763 4800 2798 4765 
Q 2834 4731 2834 4672 
L 2834 4647 
L 609 -1522 
Q 572 -1600 488 -1600 
Q 434 -1600 396 -1562 
Q 359 -1525 359 -1472 
z
" transform="scale(0.015625)"/>
      </defs>
      <use xlink:href="#Cmmi10-64"/>
      <use xlink:href="#Cmmi10-78" transform="translate(52.001953 0)"/>
      <use xlink:href="#Cmmi10-3d" transform="translate(109.082031 0)"/>
      <use xlink:href="#Cmmi10-64" transform="translate(159.082031 0)"/>
      <use xlink:href="#Cmmi10-74" transform="translate(211.083984 0)"/>
     </g>
    </g>
   </g>
  </g>
 </g>
 <defs>
  <clipPath id="pb8e0789678">
   <rect x="35.691294" y="7.2" width="397.700192" height="324"/>
  </clipPath>
 </defs>
</svg>
