<?xml version="1.0" encoding="utf-8" standalone="no"?>
<!DOCTYPE svg PUBLIC "-//W3C//DTD SVG 1.1//EN"
  "http://www.w3.org/Graphics/SVG/1.1/DTD/svg11.dtd">
<svg xmlns:xlink="http://www.w3.org/1999/xlink" width="453.915739pt" height="344.32pt" viewBox="0 0 453.915739 344.32" xmlns="http://www.w3.org/2000/svg" version="1.1">
 <metadata>
  <rdf:RDF xmlns:dc="http://purl.org/dc/elements/1.1/" xmlns:cc="http://creativecommons.org/ns#" xmlns:rdf="http://www.w3.org/1999/02/22-rdf-syntax-ns#">
   <cc:Work>
    <dc:type rdf:resource="http://purl.org/dc/dcmitype/StillImage"/>
    <dc:date>2022-06-16T22:08:34.932719</dc:date>
    <dc:format>image/svg+xml</dc:format>
    <dc:creator>
     <cc:Agent>
      <dc:title>Matplotlib v3.5.1, https://matplotlib.org/</dc:title>
     </cc:Agent>
    </dc:creator>
   </cc:Work>
  </rdf:RDF>
 </metadata>
 <defs>
  <style type="text/css">*{stroke-linejoin: round; stroke-linecap: butt}</style>
 </defs>
 <g id="figure_1">
  <g id="patch_1">
   <path d="M 0 344.32 
L 453.915739 344.32 
L 453.915739 -0 
L 0 -0 
z
" style="fill: #ffffff"/>
  </g>
  <g id="axes_1">
   <g id="patch_2">
    <path d="M 26.996162 337.12 
L 432.795739 337.12 
L 432.795739 31.2 
L 26.996162 31.2 
z
" style="fill: #ffffff"/>
   </g>
   <g id="matplotlib.axis_1">
    <g id="xtick_1">
     <g id="line2d_1">
      <defs>
       <path id="m7be8dbb9da" d="M 0 0 
L 0 3.5 
" style="stroke: #000000; stroke-width: 0.8"/>
      </defs>
      <g>
       <use xlink:href="#m7be8dbb9da" x="34.8" y="182.596358" style="stroke: #000000; stroke-width: 0.8"/>
      </g>
     </g>
    </g>
    <g id="xtick_2">
     <g id="line2d_2">
      <g>
       <use xlink:href="#m7be8dbb9da" x="132.347975" y="182.596358" style="stroke: #000000; stroke-width: 0.8"/>
      </g>
     </g>
     <g id="text_1">
      <!-- $\pi$ -->
      <g transform="translate(129.497975 197.194796)scale(0.1 -0.1)">
       <defs>
        <path id="Cmmi10-bc" d="M 647 109 
Q 647 144 672 213 
Q 850 584 1004 942 
Q 1159 1300 1282 1639 
Q 1406 1978 1509 2363 
L 1100 2363 
Q 866 2363 662 2216 
Q 459 2069 325 1844 
Q 313 1819 288 1819 
L 213 1819 
Q 153 1819 153 1881 
Q 153 1894 166 1919 
Q 375 2275 614 2517 
Q 853 2759 1153 2759 
L 3475 2759 
Q 3541 2759 3587 2715 
Q 3634 2672 3634 2597 
Q 3634 2503 3567 2433 
Q 3500 2363 3406 2363 
L 2591 2363 
Q 2488 1859 2478 1381 
Q 2478 766 2694 269 
Q 2713 231 2713 191 
Q 2713 122 2672 62 
Q 2631 3 2567 -34 
Q 2503 -72 2431 -72 
Q 2263 -72 2200 203 
Q 2138 478 2138 738 
Q 2138 1103 2200 1442 
Q 2263 1781 2400 2363 
L 1703 2363 
Q 1197 313 1094 103 
Q 1003 -72 844 -72 
Q 766 -72 706 -20 
Q 647 31 647 109 
z
" transform="scale(0.015625)"/>
       </defs>
       <use xlink:href="#Cmmi10-bc" transform="translate(0 0.890625)"/>
      </g>
     </g>
    </g>
    <g id="xtick_3">
     <g id="line2d_3">
      <g>
       <use xlink:href="#m7be8dbb9da" x="229.895951" y="182.596358" style="stroke: #000000; stroke-width: 0.8"/>
      </g>
     </g>
     <g id="text_2">
      <!-- $2 \, \pi$ -->
      <g transform="translate(223.795951 197.194796)scale(0.1 -0.1)">
       <defs>
        <path id="Cmr10-32" d="M 319 0 
L 319 172 
Q 319 188 331 206 
L 1325 1306 
Q 1550 1550 1690 1715 
Q 1831 1881 1968 2097 
Q 2106 2313 2186 2536 
Q 2266 2759 2266 3009 
Q 2266 3272 2169 3511 
Q 2072 3750 1880 3894 
Q 1688 4038 1416 4038 
Q 1138 4038 916 3870 
Q 694 3703 603 3438 
Q 628 3444 672 3444 
Q 816 3444 917 3347 
Q 1019 3250 1019 3097 
Q 1019 2950 917 2848 
Q 816 2747 672 2747 
Q 522 2747 420 2851 
Q 319 2956 319 3097 
Q 319 3338 409 3548 
Q 500 3759 670 3923 
Q 841 4088 1055 4175 
Q 1269 4263 1509 4263 
Q 1875 4263 2190 4108 
Q 2506 3953 2690 3670 
Q 2875 3388 2875 3009 
Q 2875 2731 2753 2481 
Q 2631 2231 2440 2026 
Q 2250 1822 1953 1562 
Q 1656 1303 1563 1216 
L 838 519 
L 1453 519 
Q 1906 519 2211 526 
Q 2516 534 2534 550 
Q 2609 631 2688 1141 
L 2875 1141 
L 2694 0 
L 319 0 
z
" transform="scale(0.015625)"/>
       </defs>
       <use xlink:href="#Cmr10-32" transform="translate(0 0.390625)"/>
       <use xlink:href="#Cmmi10-bc" transform="translate(64.632454 0.390625)"/>
      </g>
     </g>
    </g>
    <g id="xtick_4">
     <g id="line2d_4">
      <g>
       <use xlink:href="#m7be8dbb9da" x="327.443926" y="182.596358" style="stroke: #000000; stroke-width: 0.8"/>
      </g>
     </g>
     <g id="text_3">
      <!-- $3 \, \pi$ -->
      <g transform="translate(321.343926 197.194796)scale(0.1 -0.1)">
       <defs>
        <path id="Cmr10-33" d="M 609 494 
Q 759 275 1012 169 
Q 1266 63 1556 63 
Q 1928 63 2084 380 
Q 2241 697 2241 1100 
Q 2241 1281 2208 1462 
Q 2175 1644 2097 1800 
Q 2019 1956 1883 2050 
Q 1747 2144 1550 2144 
L 1125 2144 
Q 1069 2144 1069 2203 
L 1069 2259 
Q 1069 2309 1125 2309 
L 1478 2338 
Q 1703 2338 1851 2506 
Q 2000 2675 2069 2917 
Q 2138 3159 2138 3378 
Q 2138 3684 1994 3881 
Q 1850 4078 1556 4078 
Q 1313 4078 1091 3986 
Q 869 3894 738 3706 
Q 750 3709 759 3711 
Q 769 3713 781 3713 
Q 925 3713 1022 3613 
Q 1119 3513 1119 3372 
Q 1119 3234 1022 3134 
Q 925 3034 781 3034 
Q 641 3034 541 3134 
Q 441 3234 441 3372 
Q 441 3647 606 3850 
Q 772 4053 1033 4158 
Q 1294 4263 1556 4263 
Q 1750 4263 1965 4205 
Q 2181 4147 2356 4039 
Q 2531 3931 2642 3762 
Q 2753 3594 2753 3378 
Q 2753 3109 2633 2881 
Q 2513 2653 2303 2487 
Q 2094 2322 1844 2241 
Q 2122 2188 2372 2031 
Q 2622 1875 2773 1631 
Q 2925 1388 2925 1106 
Q 2925 753 2731 467 
Q 2538 181 2222 20 
Q 1906 -141 1556 -141 
Q 1256 -141 954 -26 
Q 653 88 461 316 
Q 269 544 269 863 
Q 269 1022 375 1128 
Q 481 1234 641 1234 
Q 744 1234 830 1186 
Q 916 1138 964 1050 
Q 1013 963 1013 863 
Q 1013 706 903 600 
Q 794 494 641 494 
L 609 494 
z
" transform="scale(0.015625)"/>
       </defs>
       <use xlink:href="#Cmr10-33" transform="translate(0 0.390625)"/>
       <use xlink:href="#Cmmi10-bc" transform="translate(64.632454 0.390625)"/>
      </g>
     </g>
    </g>
    <g id="xtick_5">
     <g id="line2d_5">
      <g>
       <use xlink:href="#m7be8dbb9da" x="424.991901" y="182.596358" style="stroke: #000000; stroke-width: 0.8"/>
      </g>
     </g>
     <g id="text_4">
      <!-- $4 \, \pi$ -->
      <g transform="translate(418.891901 197.194796)scale(0.1 -0.1)">
       <defs>
        <path id="Cmr10-34" d="M 178 1056 
L 178 1281 
L 2156 4231 
Q 2178 4263 2222 4263 
L 2316 4263 
Q 2388 4263 2388 4191 
L 2388 1281 
L 3016 1281 
L 3016 1056 
L 2388 1056 
L 2388 428 
Q 2388 297 2575 261 
Q 2763 225 3009 225 
L 3009 0 
L 1247 0 
L 1247 225 
Q 1494 225 1681 261 
Q 1869 297 1869 428 
L 1869 1056 
L 178 1056 
z
M 391 1281 
L 1906 1281 
L 1906 3547 
L 391 1281 
z
" transform="scale(0.015625)"/>
       </defs>
       <use xlink:href="#Cmr10-34" transform="translate(0 0.390625)"/>
       <use xlink:href="#Cmmi10-bc" transform="translate(64.632454 0.390625)"/>
      </g>
     </g>
    </g>
    <g id="xtick_6">
     <g id="line2d_6">
      <defs>
       <path id="mb2e356dd5f" d="M 0 0 
L 0 2 
" style="stroke: #000000; stroke-width: 0.6"/>
      </defs>
      <g>
       <use xlink:href="#mb2e356dd5f" x="59.186994" y="182.596358" style="stroke: #000000; stroke-width: 0.6"/>
      </g>
     </g>
    </g>
    <g id="xtick_7">
     <g id="line2d_7">
      <g>
       <use xlink:href="#mb2e356dd5f" x="83.573988" y="182.596358" style="stroke: #000000; stroke-width: 0.6"/>
      </g>
     </g>
    </g>
    <g id="xtick_8">
     <g id="line2d_8">
      <g>
       <use xlink:href="#mb2e356dd5f" x="107.960981" y="182.596358" style="stroke: #000000; stroke-width: 0.6"/>
      </g>
     </g>
    </g>
    <g id="xtick_9">
     <g id="line2d_9">
      <g>
       <use xlink:href="#mb2e356dd5f" x="156.734969" y="182.596358" style="stroke: #000000; stroke-width: 0.6"/>
      </g>
     </g>
    </g>
    <g id="xtick_10">
     <g id="line2d_10">
      <g>
       <use xlink:href="#mb2e356dd5f" x="181.121963" y="182.596358" style="stroke: #000000; stroke-width: 0.6"/>
      </g>
     </g>
    </g>
    <g id="xtick_11">
     <g id="line2d_11">
      <g>
       <use xlink:href="#mb2e356dd5f" x="205.508957" y="182.596358" style="stroke: #000000; stroke-width: 0.6"/>
      </g>
     </g>
    </g>
    <g id="xtick_12">
     <g id="line2d_12">
      <g>
       <use xlink:href="#mb2e356dd5f" x="254.282944" y="182.596358" style="stroke: #000000; stroke-width: 0.6"/>
      </g>
     </g>
    </g>
    <g id="xtick_13">
     <g id="line2d_13">
      <g>
       <use xlink:href="#mb2e356dd5f" x="278.669938" y="182.596358" style="stroke: #000000; stroke-width: 0.6"/>
      </g>
     </g>
    </g>
    <g id="xtick_14">
     <g id="line2d_14">
      <g>
       <use xlink:href="#mb2e356dd5f" x="303.056932" y="182.596358" style="stroke: #000000; stroke-width: 0.6"/>
      </g>
     </g>
    </g>
    <g id="xtick_15">
     <g id="line2d_15">
      <g>
       <use xlink:href="#mb2e356dd5f" x="351.83092" y="182.596358" style="stroke: #000000; stroke-width: 0.6"/>
      </g>
     </g>
    </g>
    <g id="xtick_16">
     <g id="line2d_16">
      <g>
       <use xlink:href="#mb2e356dd5f" x="376.217913" y="182.596358" style="stroke: #000000; stroke-width: 0.6"/>
      </g>
     </g>
    </g>
    <g id="xtick_17">
     <g id="line2d_17">
      <g>
       <use xlink:href="#mb2e356dd5f" x="400.604907" y="182.596358" style="stroke: #000000; stroke-width: 0.6"/>
      </g>
     </g>
    </g>
    <g id="text_5">
     <!-- $t$ -->
     <g transform="translate(440.795739 182.596358)scale(0.16 -0.16)">
      <defs>
       <path id="Cmmi10-74" d="M 397 519 
Q 397 613 416 697 
L 878 2534 
L 206 2534 
Q 141 2534 141 2619 
Q 166 2759 225 2759 
L 934 2759 
L 1191 3803 
Q 1216 3888 1291 3947 
Q 1366 4006 1459 4006 
Q 1541 4006 1595 3957 
Q 1650 3909 1650 3828 
Q 1650 3809 1648 3798 
Q 1647 3788 1644 3775 
L 1388 2759 
L 2047 2759 
Q 2113 2759 2113 2675 
Q 2109 2659 2100 2621 
Q 2091 2584 2075 2559 
Q 2059 2534 2028 2534 
L 1331 2534 
L 872 684 
Q 825 503 825 372 
Q 825 97 1013 97 
Q 1294 97 1511 361 
Q 1728 625 1844 941 
Q 1869 978 1894 978 
L 1972 978 
Q 1997 978 2012 961 
Q 2028 944 2028 922 
Q 2028 909 2022 903 
Q 1881 516 1612 222 
Q 1344 -72 997 -72 
Q 744 -72 570 93 
Q 397 259 397 519 
z
" transform="scale(0.015625)"/>
      </defs>
      <use xlink:href="#Cmmi10-74" transform="translate(0 0.40625)"/>
     </g>
    </g>
   </g>
   <g id="matplotlib.axis_2">
    <g id="ytick_1">
     <g id="line2d_18">
      <defs>
       <path id="mff8e13c58a" d="M 0 0 
L -3.5 0 
" style="stroke: #000000; stroke-width: 0.8"/>
      </defs>
      <g>
       <use xlink:href="#mff8e13c58a" x="34.8" y="326.03449" style="stroke: #000000; stroke-width: 0.8"/>
      </g>
     </g>
     <g id="text_6">
      <!-- $-2.0$ -->
      <g transform="translate(7.2 329.833708)scale(0.1 -0.1)">
       <defs>
        <path id="Cmsy10-a1" d="M 653 1472 
Q 600 1472 565 1512 
Q 531 1553 531 1600 
Q 531 1647 565 1687 
Q 600 1728 653 1728 
L 4325 1728 
Q 4375 1728 4408 1687 
Q 4441 1647 4441 1600 
Q 4441 1553 4408 1512 
Q 4375 1472 4325 1472 
L 653 1472 
z
" transform="scale(0.015625)"/>
        <path id="Cmmi10-3a" d="M 538 353 
Q 538 497 644 600 
Q 750 703 891 703 
Q 978 703 1062 656 
Q 1147 609 1194 525 
Q 1241 441 1241 353 
Q 1241 213 1137 106 
Q 1034 0 891 0 
Q 750 0 644 106 
Q 538 213 538 353 
z
" transform="scale(0.015625)"/>
        <path id="Cmr10-30" d="M 1600 -141 
Q 816 -141 533 504 
Q 250 1150 250 2041 
Q 250 2597 351 3087 
Q 453 3578 754 3920 
Q 1056 4263 1600 4263 
Q 2022 4263 2290 4056 
Q 2559 3850 2700 3523 
Q 2841 3197 2892 2823 
Q 2944 2450 2944 2041 
Q 2944 1491 2842 1011 
Q 2741 531 2444 195 
Q 2147 -141 1600 -141 
z
M 1600 25 
Q 1956 25 2131 390 
Q 2306 756 2347 1200 
Q 2388 1644 2388 2144 
Q 2388 2625 2347 3031 
Q 2306 3438 2132 3767 
Q 1959 4097 1600 4097 
Q 1238 4097 1063 3765 
Q 888 3434 847 3029 
Q 806 2625 806 2144 
Q 806 1788 823 1472 
Q 841 1156 916 820 
Q 991 484 1158 254 
Q 1325 25 1600 25 
z
" transform="scale(0.015625)"/>
       </defs>
       <use xlink:href="#Cmsy10-a1" transform="translate(0 0.390625)"/>
       <use xlink:href="#Cmr10-32" transform="translate(77.685547 0.390625)"/>
       <use xlink:href="#Cmmi10-3a" transform="translate(127.685547 0.390625)"/>
       <use xlink:href="#Cmr10-30" transform="translate(155.371094 0.390625)"/>
      </g>
     </g>
    </g>
    <g id="ytick_2">
     <g id="line2d_19">
      <g>
       <use xlink:href="#mff8e13c58a" x="34.8" y="290.174957" style="stroke: #000000; stroke-width: 0.8"/>
      </g>
     </g>
     <g id="text_7">
      <!-- $-1.5$ -->
      <g transform="translate(7.2 293.974176)scale(0.1 -0.1)">
       <defs>
        <path id="Cmr10-31" d="M 594 0 
L 594 225 
Q 1394 225 1394 428 
L 1394 3788 
Q 1063 3628 556 3628 
L 556 3853 
Q 1341 3853 1741 4263 
L 1831 4263 
Q 1853 4263 1873 4245 
Q 1894 4228 1894 4206 
L 1894 428 
Q 1894 225 2694 225 
L 2694 0 
L 594 0 
z
" transform="scale(0.015625)"/>
        <path id="Cmr10-35" d="M 556 728 
Q 622 541 758 387 
Q 894 234 1080 148 
Q 1266 63 1466 63 
Q 1928 63 2103 422 
Q 2278 781 2278 1294 
Q 2278 1516 2270 1667 
Q 2263 1819 2228 1959 
Q 2169 2184 2020 2353 
Q 1872 2522 1656 2522 
Q 1441 2522 1286 2456 
Q 1131 2391 1034 2303 
Q 938 2216 863 2119 
Q 788 2022 769 2016 
L 697 2016 
Q 681 2016 657 2036 
Q 634 2056 634 2075 
L 634 4213 
Q 634 4228 654 4245 
Q 675 4263 697 4263 
L 716 4263 
Q 1147 4056 1631 4056 
Q 2106 4056 2547 4263 
L 2566 4263 
Q 2588 4263 2606 4247 
Q 2625 4231 2625 4213 
L 2625 4153 
Q 2625 4122 2613 4122 
Q 2394 3831 2064 3668 
Q 1734 3506 1381 3506 
Q 1125 3506 856 3578 
L 856 2369 
Q 1069 2541 1236 2614 
Q 1403 2688 1663 2688 
Q 2016 2688 2295 2484 
Q 2575 2281 2725 1954 
Q 2875 1628 2875 1288 
Q 2875 903 2686 575 
Q 2497 247 2172 53 
Q 1847 -141 1466 -141 
Q 1150 -141 886 21 
Q 622 184 470 459 
Q 319 734 319 1044 
Q 319 1188 412 1278 
Q 506 1369 647 1369 
Q 788 1369 883 1276 
Q 978 1184 978 1044 
Q 978 906 883 811 
Q 788 716 647 716 
Q 625 716 597 720 
Q 569 725 556 728 
z
" transform="scale(0.015625)"/>
       </defs>
       <use xlink:href="#Cmsy10-a1" transform="translate(0 0.390625)"/>
       <use xlink:href="#Cmr10-31" transform="translate(77.685547 0.390625)"/>
       <use xlink:href="#Cmmi10-3a" transform="translate(127.685547 0.390625)"/>
       <use xlink:href="#Cmr10-35" transform="translate(155.371094 0.390625)"/>
      </g>
     </g>
    </g>
    <g id="ytick_3">
     <g id="line2d_20">
      <g>
       <use xlink:href="#mff8e13c58a" x="34.8" y="254.315424" style="stroke: #000000; stroke-width: 0.8"/>
      </g>
     </g>
     <g id="text_8">
      <!-- $-1.0$ -->
      <g transform="translate(7.2 258.114643)scale(0.1 -0.1)">
       <use xlink:href="#Cmsy10-a1" transform="translate(0 0.390625)"/>
       <use xlink:href="#Cmr10-31" transform="translate(77.685547 0.390625)"/>
       <use xlink:href="#Cmmi10-3a" transform="translate(127.685547 0.390625)"/>
       <use xlink:href="#Cmr10-30" transform="translate(155.371094 0.390625)"/>
      </g>
     </g>
    </g>
    <g id="ytick_4">
     <g id="line2d_21">
      <g>
       <use xlink:href="#mff8e13c58a" x="34.8" y="218.455891" style="stroke: #000000; stroke-width: 0.8"/>
      </g>
     </g>
     <g id="text_9">
      <!-- $-0.5$ -->
      <g transform="translate(7.2 222.25511)scale(0.1 -0.1)">
       <use xlink:href="#Cmsy10-a1" transform="translate(0 0.390625)"/>
       <use xlink:href="#Cmr10-30" transform="translate(77.685547 0.390625)"/>
       <use xlink:href="#Cmmi10-3a" transform="translate(127.685547 0.390625)"/>
       <use xlink:href="#Cmr10-35" transform="translate(155.371094 0.390625)"/>
      </g>
     </g>
    </g>
    <g id="ytick_5">
     <g id="line2d_22">
      <g>
       <use xlink:href="#mff8e13c58a" x="34.8" y="182.596358" style="stroke: #000000; stroke-width: 0.8"/>
      </g>
     </g>
    </g>
    <g id="ytick_6">
     <g id="line2d_23">
      <g>
       <use xlink:href="#mff8e13c58a" x="34.8" y="146.736825" style="stroke: #000000; stroke-width: 0.8"/>
      </g>
     </g>
     <g id="text_10">
      <!-- $0.5$ -->
      <g transform="translate(15 150.536044)scale(0.1 -0.1)">
       <use xlink:href="#Cmr10-30" transform="translate(0 0.390625)"/>
       <use xlink:href="#Cmmi10-3a" transform="translate(50 0.390625)"/>
       <use xlink:href="#Cmr10-35" transform="translate(77.685547 0.390625)"/>
      </g>
     </g>
    </g>
    <g id="ytick_7">
     <g id="line2d_24">
      <g>
       <use xlink:href="#mff8e13c58a" x="34.8" y="110.877292" style="stroke: #000000; stroke-width: 0.8"/>
      </g>
     </g>
     <g id="text_11">
      <!-- $1.0$ -->
      <g transform="translate(15 114.676511)scale(0.1 -0.1)">
       <use xlink:href="#Cmr10-31" transform="translate(0 0.390625)"/>
       <use xlink:href="#Cmmi10-3a" transform="translate(50 0.390625)"/>
       <use xlink:href="#Cmr10-30" transform="translate(77.685547 0.390625)"/>
      </g>
     </g>
    </g>
    <g id="ytick_8">
     <g id="line2d_25">
      <g>
       <use xlink:href="#mff8e13c58a" x="34.8" y="75.017759" style="stroke: #000000; stroke-width: 0.8"/>
      </g>
     </g>
     <g id="text_12">
      <!-- $1.5$ -->
      <g transform="translate(15 78.816978)scale(0.1 -0.1)">
       <use xlink:href="#Cmr10-31" transform="translate(0 0.390625)"/>
       <use xlink:href="#Cmmi10-3a" transform="translate(50 0.390625)"/>
       <use xlink:href="#Cmr10-35" transform="translate(77.685547 0.390625)"/>
      </g>
     </g>
    </g>
    <g id="ytick_9">
     <g id="line2d_26">
      <g>
       <use xlink:href="#mff8e13c58a" x="34.8" y="39.158226" style="stroke: #000000; stroke-width: 0.8"/>
      </g>
     </g>
     <g id="text_13">
      <!-- $2.0$ -->
      <g transform="translate(15 42.957445)scale(0.1 -0.1)">
       <use xlink:href="#Cmr10-32" transform="translate(0 0.390625)"/>
       <use xlink:href="#Cmmi10-3a" transform="translate(50 0.390625)"/>
       <use xlink:href="#Cmr10-30" transform="translate(77.685547 0.390625)"/>
      </g>
     </g>
    </g>
    <g id="ytick_10">
     <g id="line2d_27">
      <defs>
       <path id="m527ca749e5" d="M 0 0 
L -2 0 
" style="stroke: #000000; stroke-width: 0.6"/>
      </defs>
      <g>
       <use xlink:href="#m527ca749e5" x="34.8" y="333.206396" style="stroke: #000000; stroke-width: 0.6"/>
      </g>
     </g>
    </g>
    <g id="ytick_11">
     <g id="line2d_28">
      <g>
       <use xlink:href="#m527ca749e5" x="34.8" y="318.862583" style="stroke: #000000; stroke-width: 0.6"/>
      </g>
     </g>
    </g>
    <g id="ytick_12">
     <g id="line2d_29">
      <g>
       <use xlink:href="#m527ca749e5" x="34.8" y="311.690677" style="stroke: #000000; stroke-width: 0.6"/>
      </g>
     </g>
    </g>
    <g id="ytick_13">
     <g id="line2d_30">
      <g>
       <use xlink:href="#m527ca749e5" x="34.8" y="304.51877" style="stroke: #000000; stroke-width: 0.6"/>
      </g>
     </g>
    </g>
    <g id="ytick_14">
     <g id="line2d_31">
      <g>
       <use xlink:href="#m527ca749e5" x="34.8" y="297.346863" style="stroke: #000000; stroke-width: 0.6"/>
      </g>
     </g>
    </g>
    <g id="ytick_15">
     <g id="line2d_32">
      <g>
       <use xlink:href="#m527ca749e5" x="34.8" y="283.00305" style="stroke: #000000; stroke-width: 0.6"/>
      </g>
     </g>
    </g>
    <g id="ytick_16">
     <g id="line2d_33">
      <g>
       <use xlink:href="#m527ca749e5" x="34.8" y="275.831144" style="stroke: #000000; stroke-width: 0.6"/>
      </g>
     </g>
    </g>
    <g id="ytick_17">
     <g id="line2d_34">
      <g>
       <use xlink:href="#m527ca749e5" x="34.8" y="268.659237" style="stroke: #000000; stroke-width: 0.6"/>
      </g>
     </g>
    </g>
    <g id="ytick_18">
     <g id="line2d_35">
      <g>
       <use xlink:href="#m527ca749e5" x="34.8" y="261.48733" style="stroke: #000000; stroke-width: 0.6"/>
      </g>
     </g>
    </g>
    <g id="ytick_19">
     <g id="line2d_36">
      <g>
       <use xlink:href="#m527ca749e5" x="34.8" y="247.143517" style="stroke: #000000; stroke-width: 0.6"/>
      </g>
     </g>
    </g>
    <g id="ytick_20">
     <g id="line2d_37">
      <g>
       <use xlink:href="#m527ca749e5" x="34.8" y="239.971611" style="stroke: #000000; stroke-width: 0.6"/>
      </g>
     </g>
    </g>
    <g id="ytick_21">
     <g id="line2d_38">
      <g>
       <use xlink:href="#m527ca749e5" x="34.8" y="232.799704" style="stroke: #000000; stroke-width: 0.6"/>
      </g>
     </g>
    </g>
    <g id="ytick_22">
     <g id="line2d_39">
      <g>
       <use xlink:href="#m527ca749e5" x="34.8" y="225.627798" style="stroke: #000000; stroke-width: 0.6"/>
      </g>
     </g>
    </g>
    <g id="ytick_23">
     <g id="line2d_40">
      <g>
       <use xlink:href="#m527ca749e5" x="34.8" y="211.283984" style="stroke: #000000; stroke-width: 0.6"/>
      </g>
     </g>
    </g>
    <g id="ytick_24">
     <g id="line2d_41">
      <g>
       <use xlink:href="#m527ca749e5" x="34.8" y="204.112078" style="stroke: #000000; stroke-width: 0.6"/>
      </g>
     </g>
    </g>
    <g id="ytick_25">
     <g id="line2d_42">
      <g>
       <use xlink:href="#m527ca749e5" x="34.8" y="196.940171" style="stroke: #000000; stroke-width: 0.6"/>
      </g>
     </g>
    </g>
    <g id="ytick_26">
     <g id="line2d_43">
      <g>
       <use xlink:href="#m527ca749e5" x="34.8" y="189.768265" style="stroke: #000000; stroke-width: 0.6"/>
      </g>
     </g>
    </g>
    <g id="ytick_27">
     <g id="line2d_44">
      <g>
       <use xlink:href="#m527ca749e5" x="34.8" y="175.424451" style="stroke: #000000; stroke-width: 0.6"/>
      </g>
     </g>
    </g>
    <g id="ytick_28">
     <g id="line2d_45">
      <g>
       <use xlink:href="#m527ca749e5" x="34.8" y="168.252545" style="stroke: #000000; stroke-width: 0.6"/>
      </g>
     </g>
    </g>
    <g id="ytick_29">
     <g id="line2d_46">
      <g>
       <use xlink:href="#m527ca749e5" x="34.8" y="161.080638" style="stroke: #000000; stroke-width: 0.6"/>
      </g>
     </g>
    </g>
    <g id="ytick_30">
     <g id="line2d_47">
      <g>
       <use xlink:href="#m527ca749e5" x="34.8" y="153.908732" style="stroke: #000000; stroke-width: 0.6"/>
      </g>
     </g>
    </g>
    <g id="ytick_31">
     <g id="line2d_48">
      <g>
       <use xlink:href="#m527ca749e5" x="34.8" y="139.564919" style="stroke: #000000; stroke-width: 0.6"/>
      </g>
     </g>
    </g>
    <g id="ytick_32">
     <g id="line2d_49">
      <g>
       <use xlink:href="#m527ca749e5" x="34.8" y="132.393012" style="stroke: #000000; stroke-width: 0.6"/>
      </g>
     </g>
    </g>
    <g id="ytick_33">
     <g id="line2d_50">
      <g>
       <use xlink:href="#m527ca749e5" x="34.8" y="125.221105" style="stroke: #000000; stroke-width: 0.6"/>
      </g>
     </g>
    </g>
    <g id="ytick_34">
     <g id="line2d_51">
      <g>
       <use xlink:href="#m527ca749e5" x="34.8" y="118.049199" style="stroke: #000000; stroke-width: 0.6"/>
      </g>
     </g>
    </g>
    <g id="ytick_35">
     <g id="line2d_52">
      <g>
       <use xlink:href="#m527ca749e5" x="34.8" y="103.705386" style="stroke: #000000; stroke-width: 0.6"/>
      </g>
     </g>
    </g>
    <g id="ytick_36">
     <g id="line2d_53">
      <g>
       <use xlink:href="#m527ca749e5" x="34.8" y="96.533479" style="stroke: #000000; stroke-width: 0.6"/>
      </g>
     </g>
    </g>
    <g id="ytick_37">
     <g id="line2d_54">
      <g>
       <use xlink:href="#m527ca749e5" x="34.8" y="89.361572" style="stroke: #000000; stroke-width: 0.6"/>
      </g>
     </g>
    </g>
    <g id="ytick_38">
     <g id="line2d_55">
      <g>
       <use xlink:href="#m527ca749e5" x="34.8" y="82.189666" style="stroke: #000000; stroke-width: 0.6"/>
      </g>
     </g>
    </g>
    <g id="ytick_39">
     <g id="line2d_56">
      <g>
       <use xlink:href="#m527ca749e5" x="34.8" y="67.845853" style="stroke: #000000; stroke-width: 0.6"/>
      </g>
     </g>
    </g>
    <g id="ytick_40">
     <g id="line2d_57">
      <g>
       <use xlink:href="#m527ca749e5" x="34.8" y="60.673946" style="stroke: #000000; stroke-width: 0.6"/>
      </g>
     </g>
    </g>
    <g id="ytick_41">
     <g id="line2d_58">
      <g>
       <use xlink:href="#m527ca749e5" x="34.8" y="53.50204" style="stroke: #000000; stroke-width: 0.6"/>
      </g>
     </g>
    </g>
    <g id="ytick_42">
     <g id="line2d_59">
      <g>
       <use xlink:href="#m527ca749e5" x="34.8" y="46.330133" style="stroke: #000000; stroke-width: 0.6"/>
      </g>
     </g>
    </g>
    <g id="ytick_43">
     <g id="line2d_60">
      <g>
       <use xlink:href="#m527ca749e5" x="34.8" y="31.98632" style="stroke: #000000; stroke-width: 0.6"/>
      </g>
     </g>
    </g>
    <g id="text_14">
     <!-- $x(t)$ -->
     <g transform="translate(21.12 19.2)scale(0.16 -0.16)">
      <defs>
       <path id="Cmmi10-78" d="M 500 184 
Q 613 97 819 97 
Q 1019 97 1172 289 
Q 1325 481 1381 709 
L 1672 1844 
Q 1741 2153 1741 2266 
Q 1741 2425 1652 2544 
Q 1563 2663 1403 2663 
Q 1200 2663 1022 2536 
Q 844 2409 722 2214 
Q 600 2019 550 1819 
Q 538 1778 500 1778 
L 422 1778 
Q 372 1778 372 1838 
L 372 1856 
Q 434 2094 584 2320 
Q 734 2547 951 2687 
Q 1169 2828 1416 2828 
Q 1650 2828 1839 2703 
Q 2028 2578 2106 2363 
Q 2216 2559 2386 2693 
Q 2556 2828 2759 2828 
Q 2897 2828 3040 2779 
Q 3184 2731 3275 2631 
Q 3366 2531 3366 2381 
Q 3366 2219 3261 2101 
Q 3156 1984 2994 1984 
Q 2891 1984 2822 2050 
Q 2753 2116 2753 2216 
Q 2753 2350 2845 2451 
Q 2938 2553 3066 2572 
Q 2950 2663 2747 2663 
Q 2541 2663 2389 2472 
Q 2238 2281 2175 2047 
L 1894 916 
Q 1825 659 1825 494 
Q 1825 331 1917 214 
Q 2009 97 2163 97 
Q 2463 97 2698 361 
Q 2934 625 3009 941 
Q 3022 978 3059 978 
L 3138 978 
Q 3163 978 3178 961 
Q 3194 944 3194 922 
Q 3194 916 3188 903 
Q 3097 522 2806 225 
Q 2516 -72 2150 -72 
Q 1916 -72 1727 54 
Q 1538 181 1459 397 
Q 1359 209 1182 68 
Q 1006 -72 806 -72 
Q 669 -72 523 -23 
Q 378 25 287 125 
Q 197 225 197 378 
Q 197 528 301 651 
Q 406 775 563 775 
Q 669 775 741 711 
Q 813 647 813 544 
Q 813 409 723 309 
Q 634 209 500 184 
z
" transform="scale(0.015625)"/>
       <path id="Cmr10-28" d="M 1984 -1588 
Q 1628 -1306 1370 -942 
Q 1113 -578 948 -165 
Q 784 247 703 697 
Q 622 1147 622 1600 
Q 622 2059 703 2509 
Q 784 2959 951 3375 
Q 1119 3791 1378 4153 
Q 1638 4516 1984 4788 
Q 1984 4800 2016 4800 
L 2075 4800 
Q 2094 4800 2109 4783 
Q 2125 4766 2125 4744 
Q 2125 4716 2113 4703 
Q 1800 4397 1592 4047 
Q 1384 3697 1257 3301 
Q 1131 2906 1075 2482 
Q 1019 2059 1019 1600 
Q 1019 -434 2106 -1491 
Q 2125 -1509 2125 -1544 
Q 2125 -1559 2108 -1579 
Q 2091 -1600 2075 -1600 
L 2016 -1600 
Q 1984 -1600 1984 -1588 
z
" transform="scale(0.015625)"/>
       <path id="Cmr10-29" d="M 416 -1600 
Q 359 -1600 359 -1544 
Q 359 -1516 372 -1503 
Q 1466 -434 1466 1600 
Q 1466 3634 384 4691 
Q 359 4706 359 4744 
Q 359 4766 376 4783 
Q 394 4800 416 4800 
L 475 4800 
Q 494 4800 506 4788 
Q 966 4425 1272 3906 
Q 1578 3388 1720 2800 
Q 1863 2213 1863 1600 
Q 1863 1147 1786 708 
Q 1709 269 1542 -157 
Q 1375 -584 1119 -945 
Q 863 -1306 506 -1588 
Q 494 -1600 475 -1600 
L 416 -1600 
z
" transform="scale(0.015625)"/>
      </defs>
      <use xlink:href="#Cmmi10-78"/>
      <use xlink:href="#Cmr10-28" transform="translate(57.080078 0)"/>
      <use xlink:href="#Cmmi10-74" transform="translate(95.898438 0)"/>
      <use xlink:href="#Cmr10-29" transform="translate(131.982422 0)"/>
     </g>
    </g>
   </g>
   <g id="line2d_61">
    <path d="M 34.8 182.596358 
L 35.521333 182.519946 
L 36.242666 182.302511 
L 39.27152 180.896256 
L 39.867551 180.790304 
L 40.481182 180.8225 
L 41.094813 181.018913 
L 41.708444 181.387881 
L 42.322076 181.923367 
L 43.937534 183.932941 
L 45.506049 186.055337 
L 46.439662 186.974908 
L 47.26121 187.367766 
L 47.671984 187.382175 
L 48.082758 187.263265 
L 48.493532 187.006557 
L 49.31508 186.081911 
L 50.185911 184.555007 
L 51.056742 182.599391 
L 53.511396 176.744945 
L 54.468925 175.26487 
L 54.94769 174.858006 
L 55.426455 174.710732 
L 55.817781 174.795707 
L 56.209108 175.070809 
L 56.600434 175.536215 
L 57.383088 177.014771 
L 58.165741 179.137709 
L 58.557067 180.391847 
L 61.143565 189.554508 
L 62.046384 191.967971 
L 62.648263 193.026805 
L 62.949203 193.358796 
L 63.389929 193.586574 
L 63.793446 193.51374 
L 64.196964 193.165908 
L 64.600481 192.544312 
L 65.407516 190.520036 
L 66.214551 187.59008 
L 67.315229 182.600048 
L 69.151539 173.98277 
L 69.864679 171.348567 
L 70.577819 169.480726 
L 70.934389 168.892299 
L 71.290959 168.557226 
L 71.64753 168.487025 
L 72.0041 168.688215 
L 72.325103 169.102658 
L 72.967108 170.580236 
L 73.609114 172.863602 
L 74.572123 177.528944 
L 77.982234 196.40726 
L 78.765925 198.827435 
L 79.15777 199.514793 
L 79.603418 199.832495 
L 79.826242 199.799924 
L 80.27189 199.346835 
L 80.717538 198.381033 
L 81.163186 196.921705 
L 81.831658 193.887011 
L 82.722954 188.555172 
L 85.634718 168.607302 
L 86.400502 164.962718 
L 86.998051 163.114572 
L 87.396417 162.437408 
L 87.794783 162.232721 
L 87.993966 162.311777 
L 88.287632 162.650357 
L 88.581298 163.251933 
L 89.16863 165.220746 
L 89.755962 168.137679 
L 90.73543 174.730927 
L 94.069774 200.675467 
L 94.747281 203.90303 
L 95.255411 205.414993 
L 95.594165 205.947165 
L 95.932918 206.08197 
L 96.102295 205.997977 
L 96.359986 205.675886 
L 96.875368 204.335744 
L 97.390749 202.103407 
L 98.163822 197.255052 
L 99.229698 188.317569 
L 101.828316 164.605767 
L 102.487537 160.307747 
L 103.146758 157.382336 
L 103.586239 156.306552 
L 103.80598 156.048101 
L 104.180165 156.04816 
L 104.489055 156.469318 
L 104.8505 157.44197 
L 105.264501 159.173995 
L 105.885503 162.925802 
L 106.713506 169.760817 
L 107.95551 182.536812 
L 109.670161 200.279943 
L 110.619773 207.581706 
L 111.252847 210.72527 
L 111.795733 212.119833 
L 112.067176 212.337226 
L 112.338619 212.227274 
L 112.610062 211.788895 
L 113.152947 209.940737 
L 113.72897 206.630673 
L 114.338129 201.778623 
L 115.251867 192.45338 
L 118.263086 158.674587 
L 118.888075 154.026024 
L 119.529813 150.924685 
L 119.97997 149.880068 
L 120.205048 149.725156 
L 120.430127 149.819101 
L 120.655205 150.162497 
L 121.105362 151.590541 
L 121.644644 154.557146 
L 122.399116 160.786543 
L 123.259871 170.261039 
L 126.535498 210.154746 
L 127.238799 215.320517 
L 127.801439 217.778692 
L 128.082759 218.398453 
L 128.364079 218.597261 
L 128.50474 218.53708 
L 128.86225 217.904457 
L 129.21976 216.59047 
L 129.756026 213.389282 
L 130.210413 209.603022 
L 131.037308 200.56979 
L 132.139835 185.607332 
L 133.922647 160.781851 
L 134.847427 150.914835 
L 135.508446 146.169862 
L 135.972446 144.210877 
L 136.239427 143.633586 
L 136.506409 143.469311 
L 136.77339 143.721984 
L 137.040372 144.391091 
L 137.440844 146.163475 
L 137.974807 149.90083 
L 138.524632 155.247009 
L 139.34937 165.60721 
L 140.927395 189.672221 
L 142.245648 208.718169 
L 142.998936 217.063927 
L 143.645434 222.01013 
L 144.105331 224.078159 
L 144.335279 224.62919 
L 144.565227 224.849739 
L 144.795175 224.73667 
L 145.025123 224.289482 
L 145.485019 222.403983 
L 145.944916 219.241955 
L 146.63476 212.312097 
L 147.507308 200.47012 
L 148.786231 179.54194 
L 150.364694 154.633554 
L 151.214157 144.694072 
L 151.780466 140.201304 
L 152.205197 138.128808 
L 152.488352 137.403283 
L 152.629929 137.242181 
L 152.837298 137.251194 
L 153.044667 137.552112 
L 153.459405 139.024124 
L 153.846708 141.422206 
L 154.427661 146.761601 
L 155.202265 156.718979 
L 156.170521 172.484866 
L 158.553041 213.382381 
L 159.39477 223.664499 
L 159.955923 228.238681 
L 160.376788 230.294786 
L 160.657364 230.973295 
L 160.933349 231.087602 
L 161.204742 230.661418 
L 161.476135 229.703552 
L 161.883225 227.289568 
L 162.426011 222.33574 
L 163.131316 213.259542 
L 163.949628 199.801266 
L 167.089852 143.994584 
L 167.749797 136.634745 
L 168.244755 133.008445 
L 168.574728 131.57899 
L 168.9047 130.973664 
L 169.032649 130.964111 
L 169.288548 131.324213 
L 169.544447 132.188074 
L 169.928295 134.412734 
L 170.468833 139.353476 
L 171.18955 148.894253 
L 172.090446 164.533657 
L 175.16085 222.753011 
L 175.821079 230.80348 
L 176.316251 234.854487 
L 176.646365 236.513744 
L 176.97648 237.301734 
L 177.141537 237.363157 
L 177.306594 237.201543 
L 177.636709 236.210679 
L 177.98529 234.211117 
L 178.508161 229.449022 
L 179.205323 220.109656 
L 180.076775 204.577159 
L 181.715687 169.732746 
L 182.952026 145.539299 
L 183.758254 133.768849 
L 184.29574 128.422781 
L 184.767235 125.621113 
L 185.081564 124.791582 
L 185.238729 124.695362 
L 185.395894 124.812835 
L 185.553059 125.144013 
L 185.93994 126.863013 
L 186.326821 129.838371 
L 186.907144 136.517926 
L 187.665551 148.754248 
L 188.513 165.948125 
L 191.241362 224.486606 
L 192.03096 235.817897 
L 192.51884 240.456996 
L 193.00672 243.066513 
L 193.331974 243.623497 
L 193.4946 243.540996 
L 193.819854 242.653173 
L 194.145107 240.811592 
L 194.624742 236.41274 
L 195.234696 228.133013 
L 195.968746 214.781371 
L 197.143225 188.306105 
L 199.124856 143.098653 
L 199.892135 130.140372 
L 200.534285 122.701884 
L 201.020794 119.463883 
L 201.324453 118.560126 
L 201.526892 118.445833 
L 201.729331 118.724386 
L 202.032989 119.876494 
L 202.437867 122.76042 
L 202.943965 128.43594 
L 203.551282 138.003784 
L 204.480687 157.316441 
L 207.809337 234.309537 
L 208.455997 243.309208 
L 208.973325 247.850726 
L 209.361321 249.569683 
L 209.619984 249.884083 
L 209.749316 249.789264 
L 209.986091 249.180197 
L 210.341253 247.219415 
L 210.814802 242.705996 
L 211.406738 234.220918 
L 212.147523 219.782295 
L 213.155543 195.322989 
L 215.304069 140.882191 
L 216.109153 125.618859 
L 216.780056 116.945614 
L 217.182598 113.79866 
L 217.551293 112.364532 
L 217.79709 112.19701 
L 218.042887 112.664921 
L 218.288684 113.765744 
L 218.65738 116.584092 
L 219.148974 122.432875 
L 219.786716 133.263905 
L 220.688484 153.62691 
L 224.173388 241.035697 
L 224.82808 250.318167 
L 225.275756 254.237363 
L 225.636746 255.85288 
L 225.877405 256.141811 
L 225.997735 256.047803 
L 226.238395 255.382856 
L 226.599385 253.20348 
L 227.080705 248.156149 
L 227.606651 240.026206 
L 228.307913 225.497932 
L 229.18449 202.91311 
L 231.865146 130.27673 
L 232.635045 116.212385 
L 233.184972 109.630305 
L 233.554884 107.021698 
L 233.81481 106.105048 
L 233.944773 105.935103 
L 234.074736 105.958479 
L 234.334662 106.585482 
L 234.594588 107.981742 
L 234.984477 111.489915 
L 235.51683 118.889545 
L 236.22915 132.998089 
L 237.083934 154.896992 
L 240.257277 242.676435 
L 240.938056 254.223683 
L 241.482679 259.98325 
L 241.902428 262.114243 
L 242.09149 262.395152 
L 242.280552 262.250219 
L 242.469615 261.679444 
L 242.753208 260.030423 
L 243.131332 256.381469 
L 243.655065 248.723376 
L 244.252264 236.66253 
L 245.097506 214.738397 
L 248.463619 118.545713 
L 249.160716 106.875237 
L 249.683538 101.636167 
L 250.032087 99.955529 
L 250.206361 99.674548 
L 250.380635 99.769532 
L 250.554909 100.240658 
L 250.816321 101.648798 
L 251.155314 104.708244 
L 251.659028 111.721603 
L 252.285405 124.194664 
L 253.159285 147.229429 
L 254.812762 199.817542 
L 256.109841 237.873006 
L 256.895128 254.976806 
L 257.484093 263.593102 
L 257.876737 267.054863 
L 258.171219 268.385877 
L 258.367541 268.6582 
L 258.563863 268.435252 
L 258.760184 267.717448 
L 259.068488 265.600271 
L 259.488774 260.813719 
L 260.014132 251.922762 
L 260.662903 236.994199 
L 261.526801 211.874255 
L 264.527785 118.075517 
L 265.248761 103.68219 
L 265.761326 97.059539 
L 266.205581 94.002207 
L 266.48754 93.40687 
L 266.675513 93.597727 
L 266.863485 94.25886 
L 267.145444 96.125678 
L 267.521388 100.214577 
L 267.99132 107.777056 
L 268.649223 122.490223 
L 269.591365 150.166334 
L 272.817171 253.198664 
L 273.533245 266.721346 
L 274.022858 272.363163 
L 274.390067 274.509513 
L 274.634873 274.917086 
L 274.757277 274.811187 
L 275.019572 273.889276 
L 275.299358 271.869549 
L 275.719036 266.883266 
L 276.260355 257.176934 
L 276.914188 241.096614 
L 277.829555 212.450344 
L 280.66066 116.753912 
L 281.41173 99.796792 
L 281.975033 91.51256 
L 282.350568 88.346178 
L 282.63222 87.265435 
L 282.726104 87.155356 
L 282.877369 87.242292 
L 283.028635 87.655381 
L 283.331166 89.454845 
L 283.706699 93.462322 
L 284.176116 101.115728 
L 284.8333 116.309935 
L 285.772133 145.255709 
L 289.164636 260.160291 
L 289.83938 273.18711 
L 290.367876 279.18084 
L 290.632124 280.688102 
L 290.896372 281.17509 
L 291.028496 281.033317 
L 291.292744 279.979759 
L 291.691303 276.470582 
L 292.090957 270.70506 
L 292.623828 259.750915 
L 293.289916 241.465246 
L 294.159266 211.821873 
L 296.928502 112.121991 
L 297.62756 95.170627 
L 298.241363 85.424442 
L 298.609645 82.149585 
L 298.855166 81.088827 
L 298.977926 80.900167 
L 299.100687 80.94034 
L 299.346208 81.707159 
L 299.683725 84.244331 
L 300.113238 89.894069 
L 300.65013 100.548147 
L 301.342045 119.463241 
L 302.272188 151.845559 
L 305.125033 257.193298 
L 305.871024 274.998793 
L 306.430517 283.457523 
L 306.834039 286.673168 
L 307.035799 287.338719 
L 307.13668 287.433116 
L 307.23756 287.368166 
L 307.439321 286.760387 
L 307.741962 284.661001 
L 308.145483 279.689533 
L 308.649885 270.154097 
L 309.255167 254.318214 
L 310.081197 226.478392 
L 311.63137 164.341205 
L 312.903291 116.644161 
L 313.745934 92.85933 
L 314.290012 82.330673 
L 314.698071 77.292643 
L 315.10613 74.857612 
L 315.242149 74.638055 
L 315.378169 74.716733 
L 315.650208 75.768257 
L 316.016096 79.044569 
L 316.475833 86.096614 
L 317.050504 99.190159 
L 317.83795 123.725328 
L 318.901819 165.209551 
L 320.940749 247.343174 
L 321.812848 273.446103 
L 322.437574 286.070415 
L 322.937354 291.902672 
L 323.187244 293.307687 
L 323.432327 293.684881 
L 323.552464 293.505889 
L 323.792739 292.430624 
L 324.153152 289.042781 
L 324.58077 282.341582 
L 325.195732 267.958443 
L 325.964434 243.24926 
L 327.059559 199.247498 
L 329.160014 112.832804 
L 329.944845 89.097687 
L 330.505438 77.207074 
L 330.953912 71.196993 
L 331.290268 68.865042 
L 331.514505 68.37362 
L 331.626624 68.449342 
L 331.865518 69.325446 
L 332.223858 72.448903 
L 332.701645 79.89516 
L 333.298879 94.115477 
L 334.041262 118.320629 
L 335.127713 162.801872 
L 337.234129 252.311561 
L 338.020446 277.264338 
L 338.675709 291.589015 
L 339.19992 298.106964 
L 339.508436 299.751039 
L 339.714113 299.924376 
L 339.919791 299.356421 
L 340.228307 297.121508 
L 340.639661 291.610342 
L 341.186808 280.022515 
L 341.869747 259.476579 
L 342.723422 226.361736 
L 345.983312 90.138954 
L 346.684071 72.885007 
L 347.20964 65.10481 
L 347.55239 62.611007 
L 347.761453 62.119111 
L 347.865984 62.167854 
L 348.075046 62.854979 
L 348.38864 65.350919 
L 348.806764 71.355779 
L 349.32942 82.941433 
L 349.956607 102.201181 
L 350.688326 130.627076 
L 352.354463 207.162194 
L 353.668513 262.625699 
L 354.406066 285.807461 
L 354.974471 298.125919 
L 355.448142 304.193349 
L 355.769987 306.011643 
L 355.984551 306.166038 
L 356.199114 305.470781 
L 356.520959 302.844368 
L 356.950086 296.451417 
L 357.486495 284.064184 
L 358.130185 263.458411 
L 359.006287 227.559121 
L 362.256774 84.826496 
L 362.895884 68.116204 
L 363.375216 60.068478 
L 363.77466 56.543933 
L 364.014327 55.863155 
L 364.094215 55.877555 
L 364.253993 56.268785 
L 364.493659 57.758924 
L 364.767878 60.779364 
L 365.225642 68.858206 
L 365.835597 85.125391 
L 366.457738 107.336505 
L 367.524266 154.86704 
L 369.913123 266.19561 
L 370.7191 292.548033 
L 371.256418 304.413534 
L 371.704183 310.341118 
L 371.972843 312.078303 
L 372.176301 312.467474 
L 372.290205 312.334898 
L 372.518015 311.315607 
L 372.85973 307.917236 
L 373.31535 299.991615 
L 373.884875 284.980292 
L 374.541736 261.516238 
L 375.461341 220.396657 
L 378.225397 90.012425 
L 378.897505 68.657055 
L 379.412622 57.359152 
L 379.835364 51.74917 
L 380.165731 49.779706 
L 380.330915 49.604334 
L 380.496098 49.970912 
L 380.743873 51.534195 
L 381.07424 55.487814 
L 381.487199 63.343052 
L 382.065342 79.412516 
L 382.826661 108.332744 
L 383.795117 154.163042 
L 386.058 265.638728 
L 386.881298 295.118535 
L 387.480059 309.663777 
L 387.927615 316.166976 
L 388.225783 318.301001 
L 388.449408 318.722361 
L 388.598492 318.438602 
L 388.822118 317.167368 
L 389.120286 313.908681 
L 389.567538 305.76055 
L 390.09633 291.383837 
L 390.720657 268.574291 
L 391.657148 225.343563 
L 394.535533 83.643206 
L 395.222334 61.463709 
L 395.779482 49.599384 
L 396.16493 44.947566 
L 396.421896 43.532579 
L 396.550379 43.338165 
L 396.678861 43.487047 
L 396.935827 44.813365 
L 397.321275 49.347029 
L 397.723386 57.233896 
L 398.270643 72.808237 
L 398.954715 99.132328 
L 399.922753 145.968902 
L 402.540439 278.887381 
L 403.319132 305.57976 
L 403.83826 317.395055 
L 404.270867 323.143924 
L 404.530431 324.722341 
L 404.703474 324.981855 
L 404.876517 324.604695 
L 405.136081 322.84836 
L 405.476829 318.400921 
L 405.896092 309.698438 
L 406.483061 291.947508 
L 407.225948 261.498555 
L 408.261277 208.710483 
L 410.463986 92.948765 
L 411.294569 61.457587 
L 411.881821 46.447621 
L 412.358781 39.344253 
L 412.699468 37.226714 
L 412.835742 37.083077 
L 412.972016 37.343031 
L 413.176428 38.48845 
L 413.448977 41.414858 
L 413.8578 48.734762 
L 414.328072 61.288434 
L 414.972946 84.954849 
L 415.802069 124.135184 
L 419.294405 302.100349 
L 419.907041 319.468984 
L 420.365982 327.543612 
L 420.710167 330.632884 
L 420.88226 331.199755 
L 420.968306 331.236923 
L 421.140399 330.818151 
L 421.398538 328.960961 
L 421.742723 324.219993 
L 422.172955 314.773436 
L 422.775279 295.456868 
L 423.458504 266.161784 
L 424.480769 212.036644 
L 424.991901 182.596358 
L 424.991901 182.596358 
" clip-path="url(#p53d076e6e7)" style="fill: none; stroke: #0000ff; stroke-linecap: square"/>
   </g>
   <g id="patch_3">
    <path d="M 34.8 337.12 
L 34.8 31.2 
" style="fill: none; stroke: #000000; stroke-width: 0.8; stroke-linejoin: miter; stroke-linecap: square"/>
   </g>
   <g id="patch_4">
    <path d="M 26.996162 182.596358 
L 432.795739 182.596358 
" style="fill: none; stroke: #000000; stroke-width: 0.8; stroke-linejoin: miter; stroke-linecap: square"/>
   </g>
  </g>
 </g>
 <defs>
  <clipPath id="p53d076e6e7">
   <rect x="26.996162" y="31.2" width="405.799577" height="305.92"/>
  </clipPath>
 </defs>
</svg>
