<?xml version="1.0" encoding="utf-8" standalone="no"?>
<!DOCTYPE svg PUBLIC "-//W3C//DTD SVG 1.1//EN"
  "http://www.w3.org/Graphics/SVG/1.1/DTD/svg11.dtd">
<svg xmlns:xlink="http://www.w3.org/1999/xlink" width="455.621487pt" height="338.4pt" viewBox="0 0 455.621487 338.4" xmlns="http://www.w3.org/2000/svg" version="1.1">
 <metadata>
  <rdf:RDF xmlns:dc="http://purl.org/dc/elements/1.1/" xmlns:cc="http://creativecommons.org/ns#" xmlns:rdf="http://www.w3.org/1999/02/22-rdf-syntax-ns#">
   <cc:Work>
    <dc:type rdf:resource="http://purl.org/dc/dcmitype/StillImage"/>
    <dc:date>2022-06-16T22:06:19.119313</dc:date>
    <dc:format>image/svg+xml</dc:format>
    <dc:creator>
     <cc:Agent>
      <dc:title>Matplotlib v3.5.1, https://matplotlib.org/</dc:title>
     </cc:Agent>
    </dc:creator>
   </cc:Work>
  </rdf:RDF>
 </metadata>
 <defs>
  <style type="text/css">*{stroke-linejoin: round; stroke-linecap: butt}</style>
 </defs>
 <g id="figure_1">
  <g id="patch_1">
   <path d="M 0 338.4 
L 455.621487 338.4 
L 455.621487 0 
L 0 0 
z
" style="fill: #ffffff"/>
  </g>
  <g id="axes_1">
   <g id="patch_2">
    <path d="M 35.691294 331.2 
L 433.391487 331.2 
L 433.391487 7.2 
L 35.691294 7.2 
z
" style="fill: #ffffff"/>
   </g>
   <g id="matplotlib.axis_1">
    <g id="xtick_1">
     <g id="line2d_1">
      <defs>
       <path id="ma2ccfedc66" d="M 0 0 
L 0 3.5 
" style="stroke: #000000; stroke-width: 0.8"/>
      </defs>
      <g>
       <use xlink:href="#ma2ccfedc66" x="43.339375" y="207.125155" style="stroke: #000000; stroke-width: 0.8"/>
      </g>
     </g>
    </g>
    <g id="xtick_2">
     <g id="line2d_2">
      <g>
       <use xlink:href="#ma2ccfedc66" x="119.820181" y="207.125155" style="stroke: #000000; stroke-width: 0.8"/>
      </g>
     </g>
     <g id="text_1">
      <!-- 2 -->
      <g transform="translate(116.002681 223.24328)scale(0.12 -0.12)">
       <defs>
        <path id="DejaVuSans-32" d="M 1228 531 
L 3431 531 
L 3431 0 
L 469 0 
L 469 531 
Q 828 903 1448 1529 
Q 2069 2156 2228 2338 
Q 2531 2678 2651 2914 
Q 2772 3150 2772 3378 
Q 2772 3750 2511 3984 
Q 2250 4219 1831 4219 
Q 1534 4219 1204 4116 
Q 875 4013 500 3803 
L 500 4441 
Q 881 4594 1212 4672 
Q 1544 4750 1819 4750 
Q 2544 4750 2975 4387 
Q 3406 4025 3406 3419 
Q 3406 3131 3298 2873 
Q 3191 2616 2906 2266 
Q 2828 2175 2409 1742 
Q 1991 1309 1228 531 
z
" transform="scale(0.015625)"/>
       </defs>
       <use xlink:href="#DejaVuSans-32"/>
      </g>
     </g>
    </g>
    <g id="xtick_3">
     <g id="line2d_3">
      <g>
       <use xlink:href="#ma2ccfedc66" x="196.300987" y="207.125155" style="stroke: #000000; stroke-width: 0.8"/>
      </g>
     </g>
     <g id="text_2">
      <!-- 4 -->
      <g transform="translate(192.483487 223.24328)scale(0.12 -0.12)">
       <defs>
        <path id="DejaVuSans-34" d="M 2419 4116 
L 825 1625 
L 2419 1625 
L 2419 4116 
z
M 2253 4666 
L 3047 4666 
L 3047 1625 
L 3713 1625 
L 3713 1100 
L 3047 1100 
L 3047 0 
L 2419 0 
L 2419 1100 
L 313 1100 
L 313 1709 
L 2253 4666 
z
" transform="scale(0.015625)"/>
       </defs>
       <use xlink:href="#DejaVuSans-34"/>
      </g>
     </g>
    </g>
    <g id="xtick_4">
     <g id="line2d_4">
      <g>
       <use xlink:href="#ma2ccfedc66" x="272.781794" y="207.125155" style="stroke: #000000; stroke-width: 0.8"/>
      </g>
     </g>
     <g id="text_3">
      <!-- 6 -->
      <g transform="translate(268.964294 223.24328)scale(0.12 -0.12)">
       <defs>
        <path id="DejaVuSans-36" d="M 2113 2584 
Q 1688 2584 1439 2293 
Q 1191 2003 1191 1497 
Q 1191 994 1439 701 
Q 1688 409 2113 409 
Q 2538 409 2786 701 
Q 3034 994 3034 1497 
Q 3034 2003 2786 2293 
Q 2538 2584 2113 2584 
z
M 3366 4563 
L 3366 3988 
Q 3128 4100 2886 4159 
Q 2644 4219 2406 4219 
Q 1781 4219 1451 3797 
Q 1122 3375 1075 2522 
Q 1259 2794 1537 2939 
Q 1816 3084 2150 3084 
Q 2853 3084 3261 2657 
Q 3669 2231 3669 1497 
Q 3669 778 3244 343 
Q 2819 -91 2113 -91 
Q 1303 -91 875 529 
Q 447 1150 447 2328 
Q 447 3434 972 4092 
Q 1497 4750 2381 4750 
Q 2619 4750 2861 4703 
Q 3103 4656 3366 4563 
z
" transform="scale(0.015625)"/>
       </defs>
       <use xlink:href="#DejaVuSans-36"/>
      </g>
     </g>
    </g>
    <g id="xtick_5">
     <g id="line2d_5">
      <g>
       <use xlink:href="#ma2ccfedc66" x="349.2626" y="207.125155" style="stroke: #000000; stroke-width: 0.8"/>
      </g>
     </g>
     <g id="text_4">
      <!-- 8 -->
      <g transform="translate(345.4451 223.24328)scale(0.12 -0.12)">
       <defs>
        <path id="DejaVuSans-38" d="M 2034 2216 
Q 1584 2216 1326 1975 
Q 1069 1734 1069 1313 
Q 1069 891 1326 650 
Q 1584 409 2034 409 
Q 2484 409 2743 651 
Q 3003 894 3003 1313 
Q 3003 1734 2745 1975 
Q 2488 2216 2034 2216 
z
M 1403 2484 
Q 997 2584 770 2862 
Q 544 3141 544 3541 
Q 544 4100 942 4425 
Q 1341 4750 2034 4750 
Q 2731 4750 3128 4425 
Q 3525 4100 3525 3541 
Q 3525 3141 3298 2862 
Q 3072 2584 2669 2484 
Q 3125 2378 3379 2068 
Q 3634 1759 3634 1313 
Q 3634 634 3220 271 
Q 2806 -91 2034 -91 
Q 1263 -91 848 271 
Q 434 634 434 1313 
Q 434 1759 690 2068 
Q 947 2378 1403 2484 
z
M 1172 3481 
Q 1172 3119 1398 2916 
Q 1625 2713 2034 2713 
Q 2441 2713 2670 2916 
Q 2900 3119 2900 3481 
Q 2900 3844 2670 4047 
Q 2441 4250 2034 4250 
Q 1625 4250 1398 4047 
Q 1172 3844 1172 3481 
z
" transform="scale(0.015625)"/>
       </defs>
       <use xlink:href="#DejaVuSans-38"/>
      </g>
     </g>
    </g>
    <g id="xtick_6">
     <g id="line2d_6">
      <g>
       <use xlink:href="#ma2ccfedc66" x="425.743406" y="207.125155" style="stroke: #000000; stroke-width: 0.8"/>
      </g>
     </g>
     <g id="text_5">
      <!-- 10 -->
      <g transform="translate(418.108406 223.24328)scale(0.12 -0.12)">
       <defs>
        <path id="DejaVuSans-31" d="M 794 531 
L 1825 531 
L 1825 4091 
L 703 3866 
L 703 4441 
L 1819 4666 
L 2450 4666 
L 2450 531 
L 3481 531 
L 3481 0 
L 794 0 
L 794 531 
z
" transform="scale(0.015625)"/>
        <path id="DejaVuSans-30" d="M 2034 4250 
Q 1547 4250 1301 3770 
Q 1056 3291 1056 2328 
Q 1056 1369 1301 889 
Q 1547 409 2034 409 
Q 2525 409 2770 889 
Q 3016 1369 3016 2328 
Q 3016 3291 2770 3770 
Q 2525 4250 2034 4250 
z
M 2034 4750 
Q 2819 4750 3233 4129 
Q 3647 3509 3647 2328 
Q 3647 1150 3233 529 
Q 2819 -91 2034 -91 
Q 1250 -91 836 529 
Q 422 1150 422 2328 
Q 422 3509 836 4129 
Q 1250 4750 2034 4750 
z
" transform="scale(0.015625)"/>
       </defs>
       <use xlink:href="#DejaVuSans-31"/>
       <use xlink:href="#DejaVuSans-30" x="63.623047"/>
      </g>
     </g>
    </g>
    <g id="xtick_7">
     <g id="line2d_7">
      <defs>
       <path id="m64b9da087a" d="M 0 0 
L 0 2 
" style="stroke: #000000; stroke-width: 0.6"/>
      </defs>
      <g>
       <use xlink:href="#m64b9da087a" x="62.459577" y="207.125155" style="stroke: #000000; stroke-width: 0.6"/>
      </g>
     </g>
    </g>
    <g id="xtick_8">
     <g id="line2d_8">
      <g>
       <use xlink:href="#m64b9da087a" x="81.579778" y="207.125155" style="stroke: #000000; stroke-width: 0.6"/>
      </g>
     </g>
    </g>
    <g id="xtick_9">
     <g id="line2d_9">
      <g>
       <use xlink:href="#m64b9da087a" x="100.69998" y="207.125155" style="stroke: #000000; stroke-width: 0.6"/>
      </g>
     </g>
    </g>
    <g id="xtick_10">
     <g id="line2d_10">
      <g>
       <use xlink:href="#m64b9da087a" x="138.940383" y="207.125155" style="stroke: #000000; stroke-width: 0.6"/>
      </g>
     </g>
    </g>
    <g id="xtick_11">
     <g id="line2d_11">
      <g>
       <use xlink:href="#m64b9da087a" x="158.060584" y="207.125155" style="stroke: #000000; stroke-width: 0.6"/>
      </g>
     </g>
    </g>
    <g id="xtick_12">
     <g id="line2d_12">
      <g>
       <use xlink:href="#m64b9da087a" x="177.180786" y="207.125155" style="stroke: #000000; stroke-width: 0.6"/>
      </g>
     </g>
    </g>
    <g id="xtick_13">
     <g id="line2d_13">
      <g>
       <use xlink:href="#m64b9da087a" x="215.421189" y="207.125155" style="stroke: #000000; stroke-width: 0.6"/>
      </g>
     </g>
    </g>
    <g id="xtick_14">
     <g id="line2d_14">
      <g>
       <use xlink:href="#m64b9da087a" x="234.541391" y="207.125155" style="stroke: #000000; stroke-width: 0.6"/>
      </g>
     </g>
    </g>
    <g id="xtick_15">
     <g id="line2d_15">
      <g>
       <use xlink:href="#m64b9da087a" x="253.661592" y="207.125155" style="stroke: #000000; stroke-width: 0.6"/>
      </g>
     </g>
    </g>
    <g id="xtick_16">
     <g id="line2d_16">
      <g>
       <use xlink:href="#m64b9da087a" x="291.901995" y="207.125155" style="stroke: #000000; stroke-width: 0.6"/>
      </g>
     </g>
    </g>
    <g id="xtick_17">
     <g id="line2d_17">
      <g>
       <use xlink:href="#m64b9da087a" x="311.022197" y="207.125155" style="stroke: #000000; stroke-width: 0.6"/>
      </g>
     </g>
    </g>
    <g id="xtick_18">
     <g id="line2d_18">
      <g>
       <use xlink:href="#m64b9da087a" x="330.142398" y="207.125155" style="stroke: #000000; stroke-width: 0.6"/>
      </g>
     </g>
    </g>
    <g id="xtick_19">
     <g id="line2d_19">
      <g>
       <use xlink:href="#m64b9da087a" x="368.382801" y="207.125155" style="stroke: #000000; stroke-width: 0.6"/>
      </g>
     </g>
    </g>
    <g id="xtick_20">
     <g id="line2d_20">
      <g>
       <use xlink:href="#m64b9da087a" x="387.503003" y="207.125155" style="stroke: #000000; stroke-width: 0.6"/>
      </g>
     </g>
    </g>
    <g id="xtick_21">
     <g id="line2d_21">
      <g>
       <use xlink:href="#m64b9da087a" x="406.623205" y="207.125155" style="stroke: #000000; stroke-width: 0.6"/>
      </g>
     </g>
    </g>
    <g id="text_6">
     <!-- $t$ -->
     <g transform="translate(441.391487 207.125155)scale(0.19 -0.19)">
      <defs>
       <path id="Cmmi10-74" d="M 397 519 
Q 397 613 416 697 
L 878 2534 
L 206 2534 
Q 141 2534 141 2619 
Q 166 2759 225 2759 
L 934 2759 
L 1191 3803 
Q 1216 3888 1291 3947 
Q 1366 4006 1459 4006 
Q 1541 4006 1595 3957 
Q 1650 3909 1650 3828 
Q 1650 3809 1648 3798 
Q 1647 3788 1644 3775 
L 1388 2759 
L 2047 2759 
Q 2113 2759 2113 2675 
Q 2109 2659 2100 2621 
Q 2091 2584 2075 2559 
Q 2059 2534 2028 2534 
L 1331 2534 
L 872 684 
Q 825 503 825 372 
Q 825 97 1013 97 
Q 1294 97 1511 361 
Q 1728 625 1844 941 
Q 1869 978 1894 978 
L 1972 978 
Q 1997 978 2012 961 
Q 2028 944 2028 922 
Q 2028 909 2022 903 
Q 1881 516 1612 222 
Q 1344 -72 997 -72 
Q 744 -72 570 93 
Q 397 259 397 519 
z
" transform="scale(0.015625)"/>
      </defs>
      <use xlink:href="#Cmmi10-74" transform="translate(0 0.40625)"/>
     </g>
    </g>
   </g>
   <g id="matplotlib.axis_2">
    <g id="ytick_1">
     <g id="line2d_22">
      <defs>
       <path id="m3499ded2f1" d="M 0 0 
L -3.5 0 
" style="stroke: #000000; stroke-width: 0.8"/>
      </defs>
      <g>
       <use xlink:href="#m3499ded2f1" x="43.339375" y="315.505964" style="stroke: #000000; stroke-width: 0.8"/>
      </g>
     </g>
     <g id="text_7">
      <!-- −1.5 -->
      <g transform="translate(7.2 320.065026)scale(0.12 -0.12)">
       <defs>
        <path id="DejaVuSans-2212" d="M 678 2272 
L 4684 2272 
L 4684 1741 
L 678 1741 
L 678 2272 
z
" transform="scale(0.015625)"/>
        <path id="DejaVuSans-2e" d="M 684 794 
L 1344 794 
L 1344 0 
L 684 0 
L 684 794 
z
" transform="scale(0.015625)"/>
        <path id="DejaVuSans-35" d="M 691 4666 
L 3169 4666 
L 3169 4134 
L 1269 4134 
L 1269 2991 
Q 1406 3038 1543 3061 
Q 1681 3084 1819 3084 
Q 2600 3084 3056 2656 
Q 3513 2228 3513 1497 
Q 3513 744 3044 326 
Q 2575 -91 1722 -91 
Q 1428 -91 1123 -41 
Q 819 9 494 109 
L 494 744 
Q 775 591 1075 516 
Q 1375 441 1709 441 
Q 2250 441 2565 725 
Q 2881 1009 2881 1497 
Q 2881 1984 2565 2268 
Q 2250 2553 1709 2553 
Q 1456 2553 1204 2497 
Q 953 2441 691 2322 
L 691 4666 
z
" transform="scale(0.015625)"/>
       </defs>
       <use xlink:href="#DejaVuSans-2212"/>
       <use xlink:href="#DejaVuSans-31" x="83.789062"/>
       <use xlink:href="#DejaVuSans-2e" x="147.412109"/>
       <use xlink:href="#DejaVuSans-35" x="179.199219"/>
      </g>
     </g>
    </g>
    <g id="ytick_2">
     <g id="line2d_23">
      <g>
       <use xlink:href="#m3499ded2f1" x="43.339375" y="279.379028" style="stroke: #000000; stroke-width: 0.8"/>
      </g>
     </g>
     <g id="text_8">
      <!-- −1.0 -->
      <g transform="translate(7.2 283.93809)scale(0.12 -0.12)">
       <use xlink:href="#DejaVuSans-2212"/>
       <use xlink:href="#DejaVuSans-31" x="83.789062"/>
       <use xlink:href="#DejaVuSans-2e" x="147.412109"/>
       <use xlink:href="#DejaVuSans-30" x="179.199219"/>
      </g>
     </g>
    </g>
    <g id="ytick_3">
     <g id="line2d_24">
      <g>
       <use xlink:href="#m3499ded2f1" x="43.339375" y="243.252092" style="stroke: #000000; stroke-width: 0.8"/>
      </g>
     </g>
     <g id="text_9">
      <!-- −0.5 -->
      <g transform="translate(7.2 247.811154)scale(0.12 -0.12)">
       <use xlink:href="#DejaVuSans-2212"/>
       <use xlink:href="#DejaVuSans-30" x="83.789062"/>
       <use xlink:href="#DejaVuSans-2e" x="147.412109"/>
       <use xlink:href="#DejaVuSans-35" x="179.199219"/>
      </g>
     </g>
    </g>
    <g id="ytick_4">
     <g id="line2d_25">
      <g>
       <use xlink:href="#m3499ded2f1" x="43.339375" y="207.125155" style="stroke: #000000; stroke-width: 0.8"/>
      </g>
     </g>
    </g>
    <g id="ytick_5">
     <g id="line2d_26">
      <g>
       <use xlink:href="#m3499ded2f1" x="43.339375" y="170.998219" style="stroke: #000000; stroke-width: 0.8"/>
      </g>
     </g>
     <g id="text_10">
      <!-- 0.5 -->
      <g transform="translate(17.255625 175.557282)scale(0.12 -0.12)">
       <use xlink:href="#DejaVuSans-30"/>
       <use xlink:href="#DejaVuSans-2e" x="63.623047"/>
       <use xlink:href="#DejaVuSans-35" x="95.410156"/>
      </g>
     </g>
    </g>
    <g id="ytick_6">
     <g id="line2d_27">
      <g>
       <use xlink:href="#m3499ded2f1" x="43.339375" y="134.871283" style="stroke: #000000; stroke-width: 0.8"/>
      </g>
     </g>
     <g id="text_11">
      <!-- 1.0 -->
      <g transform="translate(17.255625 139.430346)scale(0.12 -0.12)">
       <use xlink:href="#DejaVuSans-31"/>
       <use xlink:href="#DejaVuSans-2e" x="63.623047"/>
       <use xlink:href="#DejaVuSans-30" x="95.410156"/>
      </g>
     </g>
    </g>
    <g id="ytick_7">
     <g id="line2d_28">
      <g>
       <use xlink:href="#m3499ded2f1" x="43.339375" y="98.744347" style="stroke: #000000; stroke-width: 0.8"/>
      </g>
     </g>
     <g id="text_12">
      <!-- 1.5 -->
      <g transform="translate(17.255625 103.30341)scale(0.12 -0.12)">
       <use xlink:href="#DejaVuSans-31"/>
       <use xlink:href="#DejaVuSans-2e" x="63.623047"/>
       <use xlink:href="#DejaVuSans-35" x="95.410156"/>
      </g>
     </g>
    </g>
    <g id="ytick_8">
     <g id="line2d_29">
      <g>
       <use xlink:href="#m3499ded2f1" x="43.339375" y="62.617411" style="stroke: #000000; stroke-width: 0.8"/>
      </g>
     </g>
     <g id="text_13">
      <!-- 2.0 -->
      <g transform="translate(17.255625 67.176473)scale(0.12 -0.12)">
       <use xlink:href="#DejaVuSans-32"/>
       <use xlink:href="#DejaVuSans-2e" x="63.623047"/>
       <use xlink:href="#DejaVuSans-30" x="95.410156"/>
      </g>
     </g>
    </g>
    <g id="ytick_9">
     <g id="line2d_30">
      <g>
       <use xlink:href="#m3499ded2f1" x="43.339375" y="26.490475" style="stroke: #000000; stroke-width: 0.8"/>
      </g>
     </g>
     <g id="text_14">
      <!-- 2.5 -->
      <g transform="translate(17.255625 31.049537)scale(0.12 -0.12)">
       <use xlink:href="#DejaVuSans-32"/>
       <use xlink:href="#DejaVuSans-2e" x="63.623047"/>
       <use xlink:href="#DejaVuSans-35" x="95.410156"/>
      </g>
     </g>
    </g>
    <g id="ytick_10">
     <g id="line2d_31">
      <defs>
       <path id="mce9c829849" d="M 0 0 
L -2 0 
" style="stroke: #000000; stroke-width: 0.6"/>
      </defs>
      <g>
       <use xlink:href="#mce9c829849" x="43.339375" y="329.956738" style="stroke: #000000; stroke-width: 0.6"/>
      </g>
     </g>
    </g>
    <g id="ytick_11">
     <g id="line2d_32">
      <g>
       <use xlink:href="#mce9c829849" x="43.339375" y="322.731351" style="stroke: #000000; stroke-width: 0.6"/>
      </g>
     </g>
    </g>
    <g id="ytick_12">
     <g id="line2d_33">
      <g>
       <use xlink:href="#mce9c829849" x="43.339375" y="308.280577" style="stroke: #000000; stroke-width: 0.6"/>
      </g>
     </g>
    </g>
    <g id="ytick_13">
     <g id="line2d_34">
      <g>
       <use xlink:href="#mce9c829849" x="43.339375" y="301.055189" style="stroke: #000000; stroke-width: 0.6"/>
      </g>
     </g>
    </g>
    <g id="ytick_14">
     <g id="line2d_35">
      <g>
       <use xlink:href="#mce9c829849" x="43.339375" y="293.829802" style="stroke: #000000; stroke-width: 0.6"/>
      </g>
     </g>
    </g>
    <g id="ytick_15">
     <g id="line2d_36">
      <g>
       <use xlink:href="#mce9c829849" x="43.339375" y="286.604415" style="stroke: #000000; stroke-width: 0.6"/>
      </g>
     </g>
    </g>
    <g id="ytick_16">
     <g id="line2d_37">
      <g>
       <use xlink:href="#mce9c829849" x="43.339375" y="272.15364" style="stroke: #000000; stroke-width: 0.6"/>
      </g>
     </g>
    </g>
    <g id="ytick_17">
     <g id="line2d_38">
      <g>
       <use xlink:href="#mce9c829849" x="43.339375" y="264.928253" style="stroke: #000000; stroke-width: 0.6"/>
      </g>
     </g>
    </g>
    <g id="ytick_18">
     <g id="line2d_39">
      <g>
       <use xlink:href="#mce9c829849" x="43.339375" y="257.702866" style="stroke: #000000; stroke-width: 0.6"/>
      </g>
     </g>
    </g>
    <g id="ytick_19">
     <g id="line2d_40">
      <g>
       <use xlink:href="#mce9c829849" x="43.339375" y="250.477479" style="stroke: #000000; stroke-width: 0.6"/>
      </g>
     </g>
    </g>
    <g id="ytick_20">
     <g id="line2d_41">
      <g>
       <use xlink:href="#mce9c829849" x="43.339375" y="236.026704" style="stroke: #000000; stroke-width: 0.6"/>
      </g>
     </g>
    </g>
    <g id="ytick_21">
     <g id="line2d_42">
      <g>
       <use xlink:href="#mce9c829849" x="43.339375" y="228.801317" style="stroke: #000000; stroke-width: 0.6"/>
      </g>
     </g>
    </g>
    <g id="ytick_22">
     <g id="line2d_43">
      <g>
       <use xlink:href="#mce9c829849" x="43.339375" y="221.57593" style="stroke: #000000; stroke-width: 0.6"/>
      </g>
     </g>
    </g>
    <g id="ytick_23">
     <g id="line2d_44">
      <g>
       <use xlink:href="#mce9c829849" x="43.339375" y="214.350543" style="stroke: #000000; stroke-width: 0.6"/>
      </g>
     </g>
    </g>
    <g id="ytick_24">
     <g id="line2d_45">
      <g>
       <use xlink:href="#mce9c829849" x="43.339375" y="199.899768" style="stroke: #000000; stroke-width: 0.6"/>
      </g>
     </g>
    </g>
    <g id="ytick_25">
     <g id="line2d_46">
      <g>
       <use xlink:href="#mce9c829849" x="43.339375" y="192.674381" style="stroke: #000000; stroke-width: 0.6"/>
      </g>
     </g>
    </g>
    <g id="ytick_26">
     <g id="line2d_47">
      <g>
       <use xlink:href="#mce9c829849" x="43.339375" y="185.448994" style="stroke: #000000; stroke-width: 0.6"/>
      </g>
     </g>
    </g>
    <g id="ytick_27">
     <g id="line2d_48">
      <g>
       <use xlink:href="#mce9c829849" x="43.339375" y="178.223606" style="stroke: #000000; stroke-width: 0.6"/>
      </g>
     </g>
    </g>
    <g id="ytick_28">
     <g id="line2d_49">
      <g>
       <use xlink:href="#mce9c829849" x="43.339375" y="163.772832" style="stroke: #000000; stroke-width: 0.6"/>
      </g>
     </g>
    </g>
    <g id="ytick_29">
     <g id="line2d_50">
      <g>
       <use xlink:href="#mce9c829849" x="43.339375" y="156.547445" style="stroke: #000000; stroke-width: 0.6"/>
      </g>
     </g>
    </g>
    <g id="ytick_30">
     <g id="line2d_51">
      <g>
       <use xlink:href="#mce9c829849" x="43.339375" y="149.322058" style="stroke: #000000; stroke-width: 0.6"/>
      </g>
     </g>
    </g>
    <g id="ytick_31">
     <g id="line2d_52">
      <g>
       <use xlink:href="#mce9c829849" x="43.339375" y="142.09667" style="stroke: #000000; stroke-width: 0.6"/>
      </g>
     </g>
    </g>
    <g id="ytick_32">
     <g id="line2d_53">
      <g>
       <use xlink:href="#mce9c829849" x="43.339375" y="127.645896" style="stroke: #000000; stroke-width: 0.6"/>
      </g>
     </g>
    </g>
    <g id="ytick_33">
     <g id="line2d_54">
      <g>
       <use xlink:href="#mce9c829849" x="43.339375" y="120.420509" style="stroke: #000000; stroke-width: 0.6"/>
      </g>
     </g>
    </g>
    <g id="ytick_34">
     <g id="line2d_55">
      <g>
       <use xlink:href="#mce9c829849" x="43.339375" y="113.195121" style="stroke: #000000; stroke-width: 0.6"/>
      </g>
     </g>
    </g>
    <g id="ytick_35">
     <g id="line2d_56">
      <g>
       <use xlink:href="#mce9c829849" x="43.339375" y="105.969734" style="stroke: #000000; stroke-width: 0.6"/>
      </g>
     </g>
    </g>
    <g id="ytick_36">
     <g id="line2d_57">
      <g>
       <use xlink:href="#mce9c829849" x="43.339375" y="91.51896" style="stroke: #000000; stroke-width: 0.6"/>
      </g>
     </g>
    </g>
    <g id="ytick_37">
     <g id="line2d_58">
      <g>
       <use xlink:href="#mce9c829849" x="43.339375" y="84.293573" style="stroke: #000000; stroke-width: 0.6"/>
      </g>
     </g>
    </g>
    <g id="ytick_38">
     <g id="line2d_59">
      <g>
       <use xlink:href="#mce9c829849" x="43.339375" y="77.068185" style="stroke: #000000; stroke-width: 0.6"/>
      </g>
     </g>
    </g>
    <g id="ytick_39">
     <g id="line2d_60">
      <g>
       <use xlink:href="#mce9c829849" x="43.339375" y="69.842798" style="stroke: #000000; stroke-width: 0.6"/>
      </g>
     </g>
    </g>
    <g id="ytick_40">
     <g id="line2d_61">
      <g>
       <use xlink:href="#mce9c829849" x="43.339375" y="55.392024" style="stroke: #000000; stroke-width: 0.6"/>
      </g>
     </g>
    </g>
    <g id="ytick_41">
     <g id="line2d_62">
      <g>
       <use xlink:href="#mce9c829849" x="43.339375" y="48.166636" style="stroke: #000000; stroke-width: 0.6"/>
      </g>
     </g>
    </g>
    <g id="ytick_42">
     <g id="line2d_63">
      <g>
       <use xlink:href="#mce9c829849" x="43.339375" y="40.941249" style="stroke: #000000; stroke-width: 0.6"/>
      </g>
     </g>
    </g>
    <g id="ytick_43">
     <g id="line2d_64">
      <g>
       <use xlink:href="#mce9c829849" x="43.339375" y="33.715862" style="stroke: #000000; stroke-width: 0.6"/>
      </g>
     </g>
    </g>
    <g id="ytick_44">
     <g id="line2d_65">
      <g>
       <use xlink:href="#mce9c829849" x="43.339375" y="19.265088" style="stroke: #000000; stroke-width: 0.6"/>
      </g>
     </g>
    </g>
    <g id="ytick_45">
     <g id="line2d_66">
      <g>
       <use xlink:href="#mce9c829849" x="43.339375" y="12.0397" style="stroke: #000000; stroke-width: 0.6"/>
      </g>
     </g>
    </g>
   </g>
   <g id="line2d_67">
    <path d="M 43.339375 170.998219 
L 44.756033 169.825399 
L 47.023791 168.55779 
L 48.794898 168.001371 
L 50.25128 167.779049 
L 51.871174 167.741928 
L 53.491068 167.89182 
L 56.309136 168.50974 
L 59.307127 169.542404 
L 62.764288 171.061578 
L 67.996821 173.75117 
L 85.118496 183.070736 
L 90.74847 185.836768 
L 96.955878 188.613256 
L 101.246654 190.359257 
L 107.412145 192.625036 
L 112.454248 194.274913 
L 118.351111 195.989356 
L 124.462921 197.542719 
L 130.784363 198.934911 
L 139.005164 200.460556 
L 146.485986 201.609081 
L 154.924696 202.675241 
L 165.068378 203.693146 
L 176.130055 204.543534 
L 189.434369 205.294889 
L 201.90328 205.80066 
L 220.020948 206.298344 
L 243.742365 206.67965 
L 275.196268 206.929187 
L 325.369257 207.072348 
L 425.743406 207.121328 
L 425.743406 207.121328 
" clip-path="url(#p6935327cb0)" style="fill: none; stroke: #0000ff; stroke-linecap: square"/>
   </g>
   <g id="line2d_68">
    <path d="M 43.339375 170.998219 
L 45.116654 181.755425 
L 46.456776 188.67253 
L 47.78997 194.670073 
L 49.123163 199.891323 
L 50.806669 205.51772 
L 52.475494 210.176143 
L 54.164589 214.096348 
L 55.462414 216.639438 
L 57.047474 219.266539 
L 58.793303 221.632932 
L 59.688865 222.659179 
L 60.87077 223.840941 
L 63.07729 225.587314 
L 65.125819 226.756618 
L 66.149732 227.203325 
L 67.803467 227.758195 
L 69.400439 228.123726 
L 70.997411 228.346363 
L 73.406589 228.457234 
L 75.496709 228.374713 
L 77.533653 228.166929 
L 79.774989 227.822622 
L 84.240702 226.8755 
L 90.47593 225.210971 
L 111.18646 219.304484 
L 118.450021 217.509235 
L 125.943884 215.876071 
L 133.640545 214.427073 
L 142.068752 213.086138 
L 150.151549 212.014778 
L 161.209186 210.838182 
L 171.131533 210.016472 
L 182.859092 209.27044 
L 196.735281 208.627959 
L 214.655942 208.071248 
L 235.78299 207.671919 
L 263.284653 207.392281 
L 305.880687 207.213007 
L 390.00449 207.134899 
L 425.743406 207.128982 
L 425.743406 207.128982 
" clip-path="url(#p6935327cb0)" style="fill: none; stroke: #ff0000; stroke-linecap: square"/>
   </g>
   <g id="line2d_69">
    <path d="M 43.339375 134.871283 
L 44.517089 132.908559 
L 45.694802 131.42716 
L 46.494401 130.664923 
L 47.293999 130.079878 
L 48.253702 129.589798 
L 49.687653 129.238711 
L 51.121604 129.280526 
L 52.167468 129.522551 
L 53.213332 129.918787 
L 54.319241 130.484349 
L 56.681637 132.108032 
L 59.330665 134.439329 
L 62.977194 138.222139 
L 68.355898 144.403224 
L 75.579033 152.862709 
L 79.795364 157.589249 
L 85.656696 163.7221 
L 90.053707 167.941684 
L 92.691027 170.310152 
L 97.216824 174.093208 
L 100.433602 176.571696 
L 106.505413 180.799198 
L 111.54689 183.893165 
L 115.833029 186.252445 
L 121.995925 189.249991 
L 127.086258 191.410649 
L 133.867814 193.900794 
L 139.031487 195.535353 
L 145.304726 197.257225 
L 152.044944 198.827942 
L 160.021803 200.371224 
L 167.004453 201.487138 
L 175.161865 202.561472 
L 185.026967 203.592743 
L 196.582765 204.509781 
L 208.462301 205.205832 
L 221.613626 205.763047 
L 238.694482 206.252997 
L 259.996376 206.625177 
L 288.615029 206.888493 
L 335.422795 207.055547 
L 425.743406 207.118595 
L 425.743406 207.118595 
" clip-path="url(#p6935327cb0)" style="fill: none; stroke: #0000ff; stroke-linecap: square"/>
   </g>
   <g id="line2d_70">
    <path d="M 43.339375 134.871283 
L 44.859678 156.00786 
L 46.243614 172.343295 
L 47.828638 188.13721 
L 48.922783 197.461526 
L 50.612803 209.684681 
L 52.279062 219.513364 
L 53.848995 227.07171 
L 55.011505 231.755777 
L 56.377003 236.398109 
L 57.854852 240.51259 
L 58.808771 242.729137 
L 59.762689 244.640092 
L 60.697628 246.244973 
L 62.335496 248.49214 
L 63.741355 249.924071 
L 64.444284 250.489945 
L 65.638404 251.248059 
L 67.449244 251.971708 
L 69.273216 252.267269 
L 71.097188 252.210108 
L 72.116684 252.050427 
L 74.818898 251.272779 
L 77.521157 250.101644 
L 80.947559 248.237859 
L 86.125635 244.973649 
L 98.888936 236.54538 
L 104.249179 233.276232 
L 108.344515 230.953983 
L 114.45244 227.792063 
L 119.667069 225.377339 
L 125.673926 222.905651 
L 131.624523 220.760135 
L 136.752902 219.131299 
L 142.777294 217.451934 
L 150.483101 215.62831 
L 157.848887 214.177711 
L 166.292585 212.809529 
L 174.48542 211.731568 
L 183.077666 210.816846 
L 193.768435 209.925436 
L 205.520129 209.189937 
L 219.02387 208.578769 
L 235.423936 208.073494 
L 256.50249 207.672402 
L 282.802933 207.400515 
L 325.133936 207.216236 
L 408.177348 207.135541 
L 425.743406 207.131716 
L 425.743406 207.131716 
" clip-path="url(#p6935327cb0)" style="fill: none; stroke: #ff0000; stroke-linecap: square"/>
   </g>
   <g id="line2d_71">
    <path d="M 43.339375 98.744347 
L 44.504022 95.844396 
L 45.668669 93.678483 
L 46.763808 92.228367 
L 47.689319 91.394002 
L 48.152074 91.098518 
L 49.077585 90.729381 
L 50.003096 90.629617 
L 51.438661 90.940595 
L 52.034615 91.216554 
L 53.226524 91.993471 
L 54.4823 93.096083 
L 56.769436 95.708941 
L 58.046678 97.437626 
L 61.272622 102.409593 
L 64.980935 108.787612 
L 77.410606 130.924094 
L 83.1842 140.335722 
L 88.231808 147.840274 
L 91.186664 151.905762 
L 96.097815 158.133896 
L 99.171725 161.707041 
L 102.27502 165.072313 
L 106.836446 169.601768 
L 111.749368 173.965296 
L 116.568011 177.772825 
L 121.193316 181.029948 
L 126.142001 184.126921 
L 130.810647 186.718883 
L 136.034533 189.281134 
L 141.486693 191.618447 
L 145.56934 193.168766 
L 151.653059 195.199461 
L 156.539376 196.616554 
L 162.62398 198.150077 
L 169.942239 199.703103 
L 177.208054 200.980521 
L 184.651033 202.062492 
L 192.380622 202.985681 
L 202.620262 203.955434 
L 211.880713 204.635682 
L 225.762609 205.392404 
L 239.46495 205.913678 
L 258.371812 206.385944 
L 281.509789 206.721401 
L 314.458927 206.954546 
L 369.482324 207.084684 
L 425.743406 207.115861 
L 425.743406 207.115861 
" clip-path="url(#p6935327cb0)" style="fill: none; stroke: #0000ff; stroke-linecap: square"/>
   </g>
   <g id="line2d_72">
    <path d="M 43.339375 98.744347 
L 44.663243 127.757607 
L 45.987111 152.656849 
L 47.464475 176.238709 
L 48.767379 193.8497 
L 50.064191 208.810058 
L 51.563731 223.344446 
L 52.837788 233.676359 
L 53.980607 241.573002 
L 55.076883 248.073457 
L 56.257856 254.03462 
L 57.394892 258.871403 
L 58.487993 262.78355 
L 59.90427 266.910337 
L 60.726642 268.874909 
L 61.549014 270.556423 
L 62.371386 271.979711 
L 63.601221 273.675429 
L 64.481337 274.603932 
L 65.361454 275.320394 
L 66.241571 275.845353 
L 67.475385 276.294327 
L 68.652914 276.448496 
L 69.830443 276.37082 
L 71.656041 275.864177 
L 72.86435 275.312785 
L 74.072658 274.61863 
L 76.802661 272.633703 
L 77.794706 271.799826 
L 80.889749 268.929222 
L 86.243001 263.420509 
L 94.952411 254.264721 
L 100.403388 248.890515 
L 104.407311 245.215253 
L 109.882044 240.599538 
L 111.691443 239.179471 
L 116.22404 235.847884 
L 120.580204 232.939264 
L 124.662064 230.45988 
L 127.098057 229.087201 
L 131.476504 226.808255 
L 134.911675 225.178841 
L 139.808614 223.077087 
L 144.557303 221.264963 
L 148.355906 219.960386 
L 154.552583 218.079458 
L 158.326733 217.068775 
L 165.465449 215.400936 
L 172.756455 213.982045 
L 179.771948 212.84444 
L 186.542131 211.924326 
L 194.221867 211.05717 
L 205.101267 210.088614 
L 217.286745 209.283005 
L 231.90061 208.599399 
L 248.994819 208.068849 
L 270.009499 207.670245 
L 297.249766 207.392647 
L 339.301777 207.214252 
L 421.815595 207.135455 
L 425.743406 207.134449 
L 425.743406 207.134449 
" clip-path="url(#p6935327cb0)" style="fill: none; stroke: #ff0000; stroke-linecap: square"/>
   </g>
   <g id="line2d_73">
    <path d="M 43.339375 62.617411 
L 44.312593 59.322967 
L 45.341179 56.612728 
L 46.397449 54.561954 
L 46.749539 54.028065 
L 47.453719 53.166641 
L 48.117939 52.589443 
L 48.782159 52.22261 
L 49.533241 52.040509 
L 50.284323 52.08415 
L 50.881157 52.266158 
L 52.074826 52.981429 
L 52.67166 53.497357 
L 53.497624 54.366268 
L 54.323588 55.397622 
L 55.540313 57.175952 
L 56.757039 59.21822 
L 58.201469 61.924659 
L 59.645898 64.876945 
L 62.967746 72.317158 
L 67.782358 83.914724 
L 75.081352 101.524648 
L 79.107744 110.717598 
L 82.98452 119.053689 
L 87.719469 128.477764 
L 90.171286 133.022183 
L 93.562238 138.933703 
L 97.560283 145.362588 
L 100.225663 149.336709 
L 104.099927 154.692094 
L 108.836404 160.60527 
L 111.957506 164.148561 
L 116.370629 168.719046 
L 119.946374 172.074029 
L 124.257186 175.740981 
L 129.003023 179.344959 
L 133.713918 182.519942 
L 137.207122 184.641048 
L 141.965471 187.24294 
L 146.935119 189.642912 
L 152.004003 191.795321 
L 157.805361 193.937982 
L 163.999627 195.898324 
L 169.894615 197.494082 
L 176.31641 198.976586 
L 181.127289 199.936249 
L 190.010594 201.422036 
L 197.320183 202.411895 
L 207.212806 203.484219 
L 216.938106 204.300621 
L 227.06422 204.95699 
L 240.669542 205.605578 
L 255.682474 206.098719 
L 276.719841 206.5329 
L 301.762228 206.817427 
L 340.745111 207.014114 
L 413.689794 207.108671 
L 425.743406 207.113128 
L 425.743406 207.113128 
" clip-path="url(#p6935327cb0)" style="fill: none; stroke: #0000ff; stroke-linecap: square"/>
   </g>
   <g id="line2d_74">
    <path d="M 43.339375 62.617411 
L 44.743565 104.242057 
L 46.110224 138.687321 
L 47.477134 167.967113 
L 48.844547 192.782418 
L 50.302533 214.992888 
L 51.616764 231.771919 
L 52.930994 245.896475 
L 54.308938 258.237636 
L 55.721857 268.630202 
L 56.950048 276.056844 
L 58.091369 281.792004 
L 59.232691 286.540273 
L 60.345662 290.332854 
L 61.074369 292.415416 
L 62.531785 295.740569 
L 63.975025 298.071543 
L 65.235407 299.440732 
L 66.327105 300.194155 
L 66.872955 300.436806 
L 67.895083 300.675286 
L 69.253809 300.605415 
L 70.612534 300.157649 
L 71.723034 299.553592 
L 73.698376 298.043938 
L 75.027031 296.772782 
L 77.000655 294.591091 
L 80.743046 289.787281 
L 83.28721 286.22301 
L 95.251882 269.029648 
L 98.270274 264.95468 
L 102.163994 259.969573 
L 107.739661 253.410296 
L 112.485963 248.374261 
L 115.71433 245.229427 
L 119.939815 241.440827 
L 124.884562 237.450213 
L 128.074913 235.111231 
L 133.212478 231.701244 
L 138.399853 228.664579 
L 143.147162 226.206003 
L 146.202807 224.77029 
L 152.456405 222.153321 
L 157.689884 220.259013 
L 164.0461 218.272121 
L 169.402396 216.830403 
L 176.710316 215.156586 
L 183.398089 213.877151 
L 189.117243 212.944961 
L 198.237828 211.715951 
L 206.95723 210.78351 
L 215.884304 210.024135 
L 227.37278 209.273529 
L 241.11974 208.625799 
L 256.870343 208.119704 
L 276.343638 207.72308 
L 303.283788 207.420837 
L 341.581044 207.23379 
L 415.708827 207.140792 
L 425.743406 207.137183 
L 425.743406 207.137183 
" clip-path="url(#p6935327cb0)" style="fill: none; stroke: #ff0000; stroke-linecap: square"/>
   </g>
   <g id="line2d_75">
    <path d="M 43.339375 26.490475 
L 44.264312 22.559917 
L 45.189248 19.445906 
L 46.15864 16.966699 
L 47.128032 15.204011 
L 48.066957 14.105059 
L 49.005882 13.539003 
L 49.563429 13.430769 
L 50.120976 13.478279 
L 50.678523 13.67085 
L 51.23607 13.998426 
L 52.001979 14.651262 
L 52.767888 15.518207 
L 54.228889 17.691073 
L 55.775013 20.613516 
L 57.321138 24.048927 
L 59.677126 30.027219 
L 61.907789 36.268799 
L 66.520496 50.123856 
L 75.055782 76.066477 
L 79.585393 88.980433 
L 83.809764 100.210772 
L 87.855583 110.166869 
L 91.07227 117.51688 
L 94.614075 125.040996 
L 97.627902 130.98989 
L 101.980106 138.881664 
L 106.139845 145.701396 
L 109.85257 151.23612 
L 113.920464 156.749671 
L 117.378318 161.019172 
L 120.952224 165.06141 
L 125.24933 169.464747 
L 129.147542 173.06614 
L 133.708876 176.851575 
L 138.554758 180.418841 
L 142.495761 183.010911 
L 146.559675 185.422969 
L 150.664045 187.616145 
L 154.636429 189.528945 
L 159.771473 191.727998 
L 166.303049 194.134516 
L 172.171149 195.975359 
L 179.054135 197.80605 
L 186.734991 199.49738 
L 194.861741 200.954639 
L 203.499068 202.200066 
L 211.250374 203.102455 
L 221.492153 204.046628 
L 232.326185 204.805548 
L 244.572474 205.44082 
L 260.653799 206.018839 
L 278.867799 206.43795 
L 304.723321 206.775616 
L 341.541281 206.991684 
L 405.649655 207.100191 
L 425.743406 207.110394 
L 425.743406 207.110394 
" clip-path="url(#p6935327cb0)" style="fill: none; stroke: #0000ff; stroke-linecap: square"/>
   </g>
   <g id="line2d_76">
    <path d="M 43.339375 26.490475 
L 44.829904 82.065185 
L 46.214381 125.62446 
L 47.598859 162.51064 
L 48.90539 192.027501 
L 50.376648 219.963591 
L 51.68606 240.747077 
L 53.18253 260.46721 
L 54.576204 275.510226 
L 55.949132 287.647663 
L 57.419231 298.11818 
L 58.542692 304.599654 
L 59.780074 310.417623 
L 60.782661 314.237086 
L 61.763466 317.288058 
L 62.965339 320.208329 
L 63.766589 321.709172 
L 64.567838 322.890411 
L 65.631273 324.013877 
L 66.294083 324.482423 
L 66.961522 324.791119 
L 67.62896 324.948982 
L 68.278263 324.969231 
L 69.57687 324.656063 
L 70.836918 323.958966 
L 71.447664 323.499904 
L 72.441498 322.60425 
L 74.215276 320.613746 
L 74.995221 319.60446 
L 76.555109 317.38642 
L 78.464016 314.383546 
L 81.659751 308.876688 
L 96.527524 281.900982 
L 100.592782 275.173648 
L 104.857124 268.610923 
L 109.312223 262.31513 
L 113.312963 257.143929 
L 117.521142 252.177615 
L 121.06081 248.355749 
L 124.857873 244.594413 
L 128.923632 240.928415 
L 133.903071 236.905335 
L 138.482152 233.61691 
L 143.164972 230.620032 
L 147.437492 228.176453 
L 151.952879 225.864924 
L 156.314485 223.869913 
L 162.368757 221.443626 
L 166.525371 219.982488 
L 172.608737 218.106298 
L 179.402648 216.330442 
L 185.936014 214.892597 
L 192.461222 213.679664 
L 199.728641 212.549486 
L 208.273084 211.466591 
L 216.963708 210.586131 
L 226.024479 209.857364 
L 237.578865 209.145864 
L 250.455945 208.568703 
L 265.683977 208.094835 
L 286.296198 207.690947 
L 314.020339 207.399238 
L 355.669093 207.217398 
L 425.743406 207.139917 
L 425.743406 207.139917 
" clip-path="url(#p6935327cb0)" style="fill: none; stroke: #ff0000; stroke-linecap: square"/>
   </g>
   <g id="patch_3">
    <path d="M 43.339375 331.2 
L 43.339375 7.2 
" style="fill: none; stroke: #000000; stroke-width: 0.8; stroke-linejoin: miter; stroke-linecap: square"/>
   </g>
   <g id="patch_4">
    <path d="M 35.691294 207.125155 
L 433.391487 207.125155 
" style="fill: none; stroke: #000000; stroke-width: 0.8; stroke-linejoin: miter; stroke-linecap: square"/>
   </g>
   <g id="legend_1">
    <g id="patch_5">
     <path d="M 388.091487 46.596875 
L 430.391487 46.596875 
L 430.391487 14.2 
L 388.091487 14.2 
z
" style="fill: #4c4c4c; opacity: 0.5; stroke: #4c4c4c; stroke-linejoin: miter"/>
    </g>
    <g id="patch_6">
     <path d="M 386.091487 44.596875 
L 428.391487 44.596875 
L 428.391487 12.2 
L 386.091487 12.2 
z
" style="fill: #ffffff; stroke: #cccccc; stroke-linejoin: miter"/>
    </g>
    <g id="line2d_77">
     <path d="M 395.091487 22.298438 
L 389.591487 22.298438 
" style="fill: none; stroke: #0000ff; stroke-linecap: square"/>
    </g>
    <g id="text_15">
     <!-- $x(t)$ -->
     <g transform="translate(397.591487 25.798438)scale(0.1 -0.1)">
      <defs>
       <path id="Cmmi10-78" d="M 500 184 
Q 613 97 819 97 
Q 1019 97 1172 289 
Q 1325 481 1381 709 
L 1672 1844 
Q 1741 2153 1741 2266 
Q 1741 2425 1652 2544 
Q 1563 2663 1403 2663 
Q 1200 2663 1022 2536 
Q 844 2409 722 2214 
Q 600 2019 550 1819 
Q 538 1778 500 1778 
L 422 1778 
Q 372 1778 372 1838 
L 372 1856 
Q 434 2094 584 2320 
Q 734 2547 951 2687 
Q 1169 2828 1416 2828 
Q 1650 2828 1839 2703 
Q 2028 2578 2106 2363 
Q 2216 2559 2386 2693 
Q 2556 2828 2759 2828 
Q 2897 2828 3040 2779 
Q 3184 2731 3275 2631 
Q 3366 2531 3366 2381 
Q 3366 2219 3261 2101 
Q 3156 1984 2994 1984 
Q 2891 1984 2822 2050 
Q 2753 2116 2753 2216 
Q 2753 2350 2845 2451 
Q 2938 2553 3066 2572 
Q 2950 2663 2747 2663 
Q 2541 2663 2389 2472 
Q 2238 2281 2175 2047 
L 1894 916 
Q 1825 659 1825 494 
Q 1825 331 1917 214 
Q 2009 97 2163 97 
Q 2463 97 2698 361 
Q 2934 625 3009 941 
Q 3022 978 3059 978 
L 3138 978 
Q 3163 978 3178 961 
Q 3194 944 3194 922 
Q 3194 916 3188 903 
Q 3097 522 2806 225 
Q 2516 -72 2150 -72 
Q 1916 -72 1727 54 
Q 1538 181 1459 397 
Q 1359 209 1182 68 
Q 1006 -72 806 -72 
Q 669 -72 523 -23 
Q 378 25 287 125 
Q 197 225 197 378 
Q 197 528 301 651 
Q 406 775 563 775 
Q 669 775 741 711 
Q 813 647 813 544 
Q 813 409 723 309 
Q 634 209 500 184 
z
" transform="scale(0.015625)"/>
       <path id="Cmr10-28" d="M 1984 -1588 
Q 1628 -1306 1370 -942 
Q 1113 -578 948 -165 
Q 784 247 703 697 
Q 622 1147 622 1600 
Q 622 2059 703 2509 
Q 784 2959 951 3375 
Q 1119 3791 1378 4153 
Q 1638 4516 1984 4788 
Q 1984 4800 2016 4800 
L 2075 4800 
Q 2094 4800 2109 4783 
Q 2125 4766 2125 4744 
Q 2125 4716 2113 4703 
Q 1800 4397 1592 4047 
Q 1384 3697 1257 3301 
Q 1131 2906 1075 2482 
Q 1019 2059 1019 1600 
Q 1019 -434 2106 -1491 
Q 2125 -1509 2125 -1544 
Q 2125 -1559 2108 -1579 
Q 2091 -1600 2075 -1600 
L 2016 -1600 
Q 1984 -1600 1984 -1588 
z
" transform="scale(0.015625)"/>
       <path id="Cmr10-29" d="M 416 -1600 
Q 359 -1600 359 -1544 
Q 359 -1516 372 -1503 
Q 1466 -434 1466 1600 
Q 1466 3634 384 4691 
Q 359 4706 359 4744 
Q 359 4766 376 4783 
Q 394 4800 416 4800 
L 475 4800 
Q 494 4800 506 4788 
Q 966 4425 1272 3906 
Q 1578 3388 1720 2800 
Q 1863 2213 1863 1600 
Q 1863 1147 1786 708 
Q 1709 269 1542 -157 
Q 1375 -584 1119 -945 
Q 863 -1306 506 -1588 
Q 494 -1600 475 -1600 
L 416 -1600 
z
" transform="scale(0.015625)"/>
      </defs>
      <use xlink:href="#Cmmi10-78"/>
      <use xlink:href="#Cmr10-28" transform="translate(57.080078 0)"/>
      <use xlink:href="#Cmmi10-74" transform="translate(95.898438 0)"/>
      <use xlink:href="#Cmr10-29" transform="translate(131.982422 0)"/>
     </g>
    </g>
    <g id="line2d_78">
     <path d="M 395.091487 32.596875 
L 389.591487 32.596875 
" style="fill: none; stroke: #ff0000; stroke-linecap: square"/>
    </g>
    <g id="text_16">
     <!-- $dx/dt$ -->
     <g transform="translate(397.591487 36.096875)scale(0.1 -0.1)">
      <defs>
       <path id="Cmmi10-64" d="M 1113 -72 
Q 709 -72 476 233 
Q 244 538 244 953 
Q 244 1363 456 1803 
Q 669 2244 1030 2536 
Q 1391 2828 1806 2828 
Q 1994 2828 2145 2723 
Q 2297 2619 2381 2444 
L 2741 3872 
Q 2766 3981 2772 4044 
Q 2772 4147 2356 4147 
Q 2291 4147 2291 4231 
Q 2294 4247 2305 4287 
Q 2316 4328 2333 4350 
Q 2350 4372 2381 4372 
L 3244 4441 
Q 3322 4441 3322 4359 
L 2400 678 
Q 2356 572 2356 372 
Q 2356 97 2541 97 
Q 2741 97 2845 351 
Q 2950 606 3022 941 
Q 3034 978 3072 978 
L 3150 978 
Q 3175 978 3190 956 
Q 3206 934 3206 916 
Q 3094 469 2961 198 
Q 2828 -72 2528 -72 
Q 2313 -72 2147 54 
Q 1981 181 1941 391 
Q 1528 -72 1113 -72 
z
M 1119 97 
Q 1350 97 1567 270 
Q 1784 444 1941 678 
Q 1947 684 1947 703 
L 2297 2113 
Q 2259 2338 2131 2500 
Q 2003 2663 1791 2663 
Q 1575 2663 1389 2486 
Q 1203 2309 1075 2069 
Q 950 1813 836 1366 
Q 722 919 722 672 
Q 722 450 817 273 
Q 913 97 1119 97 
z
" transform="scale(0.015625)"/>
       <path id="Cmmi10-3d" d="M 359 -1472 
Q 359 -1453 366 -1447 
L 2591 4722 
Q 2603 4759 2634 4779 
Q 2666 4800 2706 4800 
Q 2763 4800 2798 4765 
Q 2834 4731 2834 4672 
L 2834 4647 
L 609 -1522 
Q 572 -1600 488 -1600 
Q 434 -1600 396 -1562 
Q 359 -1525 359 -1472 
z
" transform="scale(0.015625)"/>
      </defs>
      <use xlink:href="#Cmmi10-64"/>
      <use xlink:href="#Cmmi10-78" transform="translate(52.001953 0)"/>
      <use xlink:href="#Cmmi10-3d" transform="translate(109.082031 0)"/>
      <use xlink:href="#Cmmi10-64" transform="translate(159.082031 0)"/>
      <use xlink:href="#Cmmi10-74" transform="translate(211.083984 0)"/>
     </g>
    </g>
   </g>
  </g>
 </g>
 <defs>
  <clipPath id="p6935327cb0">
   <rect x="35.691294" y="7.2" width="397.700192" height="324"/>
  </clipPath>
 </defs>
</svg>
