<?xml version="1.0" encoding="utf-8" standalone="no"?>
<!DOCTYPE svg PUBLIC "-//W3C//DTD SVG 1.1//EN"
  "http://www.w3.org/Graphics/SVG/1.1/DTD/svg11.dtd">
<!-- Created with matplotlib (http://matplotlib.org/) -->
<svg height="420pt" version="1.1" viewBox="0 0 562 420" width="562pt" xmlns="http://www.w3.org/2000/svg" xmlns:xlink="http://www.w3.org/1999/xlink">
 <defs>
  <style type="text/css">
*{stroke-linecap:butt;stroke-linejoin:round;stroke-miterlimit:100000;}
  </style>
 </defs>
 <g id="figure_1">
  <g id="patch_1">
   <path d="M 0 420.48 
L 562.016642 420.48 
L 562.016642 0 
L 0 0 
z
" style="fill:#ffffff;"/>
  </g>
  <g id="axes_1">
   <g id="patch_2">
    <path d="M 13.034527 413.28 
L 539.786642 413.28 
L 539.786642 7.2 
L 13.034527 7.2 
z
" style="fill:#ffffff;"/>
   </g>
   <g id="line2d_1">
    <path clip-path="url(#p3fa20e57ef)" d="M 23.164375 222.879413 
L 25.231975 221.131527 
L 26.949977 219.93524 
L 29.560345 218.490867 
L 31.428241 217.690629 
L 33.296136 217.054085 
L 35.050318 216.584927 
L 37.170127 216.160887 
L 39.289936 215.87084 
L 43.138175 215.624747 
L 45.518515 215.621135 
L 50.048098 215.862897 
L 53.045923 216.171503 
L 58.226418 216.933924 
L 60.243959 217.300404 
L 65.849269 218.502908 
L 71.56714 219.992302 
L 76.463267 221.471279 
L 82.366614 223.502328 
L 88.774415 226.013815 
L 96.000897 229.227618 
L 103.624611 233.045764 
L 108.799547 235.875925 
L 113.703839 238.724203 
L 120.994574 243.229278 
L 126.357549 246.723503 
L 136.597749 253.723168 
L 151.927574 264.625549 
L 162.870514 272.351195 
L 173.021025 279.186531 
L 180.505984 283.884187 
L 185.550379 286.83558 
L 191.544043 290.077459 
L 197.018564 292.75561 
L 200.255181 294.200312 
L 203.352541 295.480458 
L 209.407929 297.678216 
L 213.356019 298.88341 
L 216.314543 299.664094 
L 219.561917 300.397277 
L 223.475585 301.105468 
L 228.828883 301.758104 
L 230.695404 301.898884 
L 234.486834 302.045973 
L 239.163593 301.971019 
L 243.537314 301.646156 
L 248.693826 300.951441 
L 252.602469 300.204933 
L 257.761944 298.938304 
L 262.729119 297.428807 
L 263.930684 297.022606 
L 269.007228 295.138166 
L 274.581064 292.77388 
L 280.948587 289.731789 
L 285.499857 287.36042 
L 291.717111 283.895204 
L 299.726422 279.126325 
L 307.024263 274.5766 
L 329.968957 260.095781 
L 337.515512 255.633826 
L 345.00188 251.523428 
L 351.144691 248.449574 
L 356.372196 246.082852 
L 361.297531 244.086752 
L 366.151268 242.3605 
L 371.00047 240.890595 
L 376.740208 239.498236 
L 382.594657 238.483624 
L 387.029606 237.996176 
L 388.935008 237.862369 
L 392.971376 237.730208 
L 397.74675 237.840031 
L 403.677703 238.376414 
L 406.597585 238.801362 
L 412.767371 240.040462 
L 417.474882 241.287978 
L 421.755663 242.639612 
L 424.901685 243.759128 
L 429.146148 245.430484 
L 432.336532 246.802073 
L 437.560831 249.246166 
L 444.552933 252.861592 
L 450.722493 256.328781 
L 459.639568 261.690355 
L 467.668483 266.749232 
L 486.160561 278.521927 
L 495.436396 284.110743 
L 503.678387 288.69347 
L 510.306507 292.030868 
L 514.012099 293.737877 
L 519.494274 296.030415 
L 525.693194 298.25811 
L 529.656794 299.464839 
L 529.656794 299.464839 
" style="fill:none;stroke:#0000ff;stroke-linecap:square;"/>
   </g>
   <g id="line2d_2">
    <path clip-path="url(#p3fa20e57ef)" d="M 23.164375 222.879413 
L 23.919163 226.302201 
L 24.673952 229.517464 
L 26.183529 235.375678 
L 28.417945 242.811256 
L 30.724162 249.182009 
L 32.989902 254.379908 
L 35.111854 258.462986 
L 36.121175 260.178109 
L 37.575026 262.424349 
L 39.028877 264.43522 
L 40.438695 266.188113 
L 42.485265 268.435839 
L 44.531835 270.38764 
L 47.910961 273.100114 
L 50.0989 274.593311 
L 52.993174 276.331998 
L 55.132966 277.484292 
L 58.206439 278.994385 
L 64.155369 281.608488 
L 76.235076 286.442237 
L 101.289556 296.191737 
L 109.041734 298.95178 
L 116.410128 301.303944 
L 122.93562 303.094806 
L 128.629058 304.387854 
L 133.899427 305.3315 
L 139.332672 306.025621 
L 145.126631 306.432241 
L 150.275171 306.490161 
L 154.27188 306.332154 
L 160.970229 305.662298 
L 166.032941 304.817785 
L 170.732843 303.77532 
L 175.329258 302.519671 
L 180.273629 300.916012 
L 182.567291 300.085988 
L 187.820135 297.988554 
L 190.15743 296.971003 
L 196.904582 293.763432 
L 203.141333 290.475416 
L 209.990237 286.561334 
L 215.974753 282.930802 
L 225.749455 276.70677 
L 247.964682 262.269735 
L 255.672527 257.535366 
L 261.14364 254.361005 
L 266.366004 251.512854 
L 273.378565 248.019717 
L 276.483844 246.609503 
L 282.700322 244.06555 
L 289.341246 241.793627 
L 294.890008 240.275362 
L 297.773993 239.629426 
L 302.327566 238.815178 
L 308.098844 238.153271 
L 310.993048 237.979526 
L 315.152335 237.91631 
L 320.883203 238.18948 
L 322.320091 238.323099 
L 325.910374 238.769945 
L 330.752938 239.624607 
L 336.061759 240.885114 
L 341.306703 242.449359 
L 347.237022 244.578291 
L 351.791682 246.455408 
L 358.381043 249.509355 
L 365.093441 252.982911 
L 370.83091 256.1963 
L 377.098146 259.912457 
L 387.297409 266.275024 
L 408.207442 279.543639 
L 416.965206 284.763696 
L 424.371621 288.847737 
L 432.430496 292.839165 
L 439.349204 295.814996 
L 444.722049 297.800484 
L 450.989855 299.724488 
L 455.918922 300.922548 
L 460.696752 301.807229 
L 466.258468 302.483606 
L 470.100552 302.72463 
L 473.396527 302.782724 
L 477.524081 302.661468 
L 483.364266 302.123179 
L 488.013944 301.391691 
L 490.461136 300.900972 
L 495.554914 299.651848 
L 498.4778 298.800103 
L 504.984343 296.567714 
L 509.548041 294.740894 
L 513.572624 292.964642 
L 520.030411 289.820343 
L 525.436079 286.94204 
L 529.656794 284.561055 
L 529.656794 284.561055 
" style="fill:none;stroke:#ff0000;stroke-linecap:square;"/>
   </g>
   <g id="line2d_3">
    <path clip-path="url(#p3fa20e57ef)" d="M 23.164375 175.490664 
L 24.353043 173.442892 
L 26.298098 170.787645 
L 27.810871 169.243155 
L 28.567258 168.621441 
L 29.767274 167.820579 
L 30.967291 167.226609 
L 32.334358 166.774709 
L 33.701425 166.534886 
L 35.615003 166.507492 
L 37.599344 166.80087 
L 39.583685 167.36531 
L 43.075829 168.874529 
L 46.607147 170.894321 
L 50.232868 173.321013 
L 55.81295 177.487943 
L 64.594424 184.553229 
L 91.189234 206.571973 
L 109.015851 221.533516 
L 125.020327 235.277639 
L 148.132331 255.214675 
L 156.799643 262.448857 
L 166.735853 270.365996 
L 173.032919 275.097463 
L 180.091225 280.069346 
L 186.213646 284.050933 
L 192.636936 287.852617 
L 197.870095 290.637058 
L 204.201491 293.599119 
L 208.84882 295.47271 
L 213.517115 297.086466 
L 218.146211 298.41244 
L 223.913425 299.672287 
L 229.177801 300.435613 
L 234.533339 300.830072 
L 238.807275 300.868566 
L 244.503183 300.542339 
L 248.702571 300.030304 
L 255.440466 298.741986 
L 258.911501 297.861942 
L 264.542989 296.136943 
L 268.982626 294.531705 
L 275.329844 291.890571 
L 280.39594 289.517198 
L 285.928015 286.688696 
L 290.474533 284.20333 
L 298.774265 279.365571 
L 309.325451 272.839499 
L 329.968358 259.911296 
L 336.050264 256.314206 
L 342.350312 252.792661 
L 349.050794 249.336957 
L 353.880649 247.065163 
L 359.094994 244.84601 
L 363.781618 243.077525 
L 368.131256 241.641726 
L 375.52871 239.684694 
L 378.830492 239.017704 
L 385.100826 238.115789 
L 388.526921 237.829011 
L 393.67906 237.675726 
L 399.330996 237.893106 
L 401.6858 238.102288 
L 406.031445 238.66959 
L 411.523078 239.716925 
L 418.066811 241.430304 
L 422.083406 242.721355 
L 427.248576 244.633942 
L 429.604302 245.595672 
L 437.165272 249.030695 
L 444.171519 252.6358 
L 450.735411 256.319242 
L 459.733004 261.733974 
L 472.91111 270.09699 
L 486.847497 278.939306 
L 493.256519 282.824917 
L 501.746714 287.65261 
L 507.382957 290.595877 
L 513.062771 293.3072 
L 515.868836 294.5418 
L 522.328391 297.094744 
L 525.988697 298.35023 
L 529.656794 299.461253 
L 529.656794 299.461253 
" style="fill:none;stroke:#0000ff;stroke-linecap:square;"/>
   </g>
   <g id="line2d_4">
    <path clip-path="url(#p3fa20e57ef)" d="M 23.164375 175.490664 
L 24.847142 195.983544 
L 26.452657 212.894001 
L 28.060056 227.566542 
L 29.577374 239.5987 
L 31.094692 250.079301 
L 32.613186 259.200513 
L 34.616065 269.415026 
L 35.955258 275.240805 
L 37.664875 281.666318 
L 39.278739 286.821627 
L 40.796851 290.97029 
L 42.303636 294.501951 
L 43.799095 297.502369 
L 44.546825 298.834222 
L 45.927892 301.02985 
L 47.908561 303.650534 
L 49.938365 305.790094 
L 51.59741 307.196279 
L 53.256455 308.343791 
L 55.194869 309.409642 
L 57.041685 310.196656 
L 58.888501 310.801358 
L 61.980271 311.496239 
L 65.733184 311.96049 
L 70.284207 312.186941 
L 78.219724 312.223724 
L 87.324766 312.267285 
L 96.352295 312.558274 
L 108.821531 313.28749 
L 121.962744 314.02577 
L 129.312095 314.208554 
L 135.615666 314.141148 
L 140.871465 313.887453 
L 146.353398 313.402853 
L 151.478665 312.726686 
L 154.335085 312.250649 
L 160.924625 310.869657 
L 164.867861 309.849822 
L 170.900656 308.005652 
L 175.44292 306.391604 
L 181.683834 303.865305 
L 188.099505 300.912153 
L 192.89959 298.481887 
L 200.963502 294.016291 
L 205.69756 291.198212 
L 214.546791 285.617341 
L 222.197624 280.552294 
L 248.798029 262.663721 
L 256.837612 257.62797 
L 264.133937 253.384581 
L 269.733019 250.391989 
L 276.053829 247.335388 
L 280.332832 245.481319 
L 285.67917 243.430359 
L 286.919484 242.998798 
L 293.218878 241.07682 
L 297.848402 239.962607 
L 302.46691 239.112438 
L 307.464808 238.49376 
L 310.7504 238.260158 
L 315.252932 238.164678 
L 318.004698 238.234299 
L 324.025088 238.723123 
L 325.089841 238.857211 
L 331.184433 239.895042 
L 336.938619 241.286067 
L 341.602497 242.693599 
L 346.48211 244.42038 
L 350.475059 246.015494 
L 356.120129 248.529265 
L 362.866613 251.89016 
L 365.99914 253.567129 
L 373.575726 257.87861 
L 382.142808 263.088458 
L 394.47507 270.918478 
L 407.964221 279.433626 
L 414.550669 283.395937 
L 422.594578 287.930461 
L 427.623355 290.547511 
L 434.734172 293.902917 
L 440.341004 296.224723 
L 445.093881 297.945725 
L 447.596029 298.754985 
L 454.513352 300.625822 
L 458.811214 301.505717 
L 463.008722 302.14845 
L 464.90144 302.366991 
L 470.941255 302.763945 
L 476.013265 302.741203 
L 478.631046 302.602152 
L 484.21328 302.01827 
L 488.4257 301.32227 
L 490.555974 300.888268 
L 495.426176 299.694182 
L 502.042854 297.639165 
L 505.86208 296.238232 
L 511.593989 293.861648 
L 517.758957 290.969768 
L 524.401782 287.512453 
L 529.656794 284.564641 
L 529.656794 284.564641 
" style="fill:none;stroke:#ff0000;stroke-linecap:square;"/>
   </g>
   <g id="line2d_5">
    <path clip-path="url(#p3fa20e57ef)" d="M 23.164375 128.101915 
L 24.045337 125.789829 
L 24.926298 123.782846 
L 25.80726 122.057906 
L 27.306237 119.711029 
L 28.542269 118.275603 
L 29.160285 117.710712 
L 30.266348 116.931866 
L 31.372412 116.425855 
L 32.372365 116.180651 
L 33.372318 116.118046 
L 35.075255 116.384641 
L 36.778192 117.05853 
L 37.88369 117.683313 
L 40.194973 119.389391 
L 42.255996 121.286834 
L 44.420988 123.579581 
L 48.206133 128.127792 
L 52.925239 134.406438 
L 61.141815 145.993099 
L 70.640783 159.352456 
L 78.198217 169.566457 
L 85.766673 179.350222 
L 90.961597 185.821556 
L 99.777146 196.409662 
L 108.921806 206.962226 
L 119.912913 219.185146 
L 130.605355 230.658666 
L 140.450623 240.851199 
L 149.19966 249.560442 
L 157.62184 257.568074 
L 165.602809 264.744842 
L 172.854836 270.856024 
L 177.958567 274.890439 
L 182.938565 278.592869 
L 190.039708 283.435991 
L 193.056723 285.327593 
L 200.297361 289.435284 
L 203.217122 290.911425 
L 208.836803 293.447684 
L 211.078963 294.344739 
L 216.91675 296.364727 
L 220.868166 297.4685 
L 226.514438 298.670615 
L 229.523223 299.129656 
L 235.478574 299.665604 
L 239.091038 299.750622 
L 244.224673 299.563529 
L 249.484842 299.00433 
L 254.178117 298.200694 
L 259.250805 297.0215 
L 261.831171 296.30273 
L 267.008675 294.630428 
L 273.252092 292.231382 
L 278.195795 290.061294 
L 283.849012 287.319089 
L 288.13549 285.076436 
L 296.588293 280.31458 
L 305.107734 275.180742 
L 333.725723 257.497384 
L 340.336839 253.741495 
L 345.41201 251.036632 
L 350.65379 248.438346 
L 357.657747 245.325121 
L 363.463184 243.095149 
L 368.170568 241.542741 
L 374.54727 239.83129 
L 380.671812 238.634894 
L 385.585446 238.004662 
L 390.353108 237.680254 
L 391.779683 237.638692 
L 397.79448 237.745696 
L 398.589099 237.793923 
L 405.515138 238.54838 
L 410.103149 239.373308 
L 416.045058 240.81454 
L 420.266121 242.084259 
L 424.654306 243.610329 
L 429.650149 245.589096 
L 435.976831 248.434716 
L 442.453852 251.69809 
L 447.342146 254.363748 
L 455.072498 258.869292 
L 464.456016 264.6814 
L 493.001301 282.666235 
L 498.207508 285.685284 
L 504.73846 289.238236 
L 510.691477 292.203361 
L 515.94423 294.56926 
L 521.477649 296.778403 
L 524.021801 297.689407 
L 529.656794 299.457667 
L 529.656794 299.457667 
" style="fill:none;stroke:#0000ff;stroke-linecap:square;"/>
   </g>
   <g id="line2d_6">
    <path clip-path="url(#p3fa20e57ef)" d="M 23.164375 128.101915 
L 24.872204 162.203622 
L 26.580034 191.473387 
L 28.150099 214.664725 
L 29.728289 234.83729 
L 31.180149 250.94867 
L 32.632009 264.990789 
L 34.438563 279.930185 
L 36.031957 291.072907 
L 37.54145 300.099414 
L 38.948161 307.333877 
L 40.252091 313.141531 
L 41.746888 318.858266 
L 43.432552 324.247157 
L 44.947463 328.257695 
L 46.291622 331.240566 
L 47.486662 333.490729 
L 48.971101 335.820339 
L 50.45554 337.69685 
L 51.744456 339.005093 
L 53.033373 340.051528 
L 55.081033 341.251177 
L 56.201905 341.700819 
L 58.443648 342.235655 
L 60.555536 342.373783 
L 62.436917 342.260564 
L 64.318298 341.971168 
L 67.418828 341.206836 
L 70.778804 340.106131 
L 80.367188 336.368308 
L 88.082251 333.453363 
L 94.245369 331.416413 
L 98.95077 330.058289 
L 105.569937 328.411792 
L 111.186372 327.210555 
L 123.599462 324.913925 
L 133.915591 323.03211 
L 143.233709 321.076721 
L 150.059422 319.379293 
L 157.375268 317.241225 
L 165.148458 314.557081 
L 171.809359 311.894356 
L 177.539986 309.329591 
L 182.842839 306.733081 
L 187.914907 304.055618 
L 194.533918 300.293686 
L 201.096215 296.293206 
L 209.604123 290.769601 
L 217.142571 285.63348 
L 233.33672 274.235049 
L 245.853636 265.553536 
L 252.628741 261.075025 
L 258.873622 257.161066 
L 266.250836 252.874289 
L 271.905803 249.882337 
L 277.852311 247.051199 
L 283.220294 244.800988 
L 285.247786 244.031409 
L 291.50134 241.950332 
L 295.253929 240.922053 
L 301.315219 239.625093 
L 305.131913 239.045036 
L 310.386741 238.551312 
L 315.403448 238.412415 
L 318.606733 238.493779 
L 323.16273 238.836387 
L 325.057693 239.056623 
L 330.589022 239.956212 
L 333.584358 240.599769 
L 340.284344 242.421914 
L 345.149299 244.060783 
L 348.804762 245.456448 
L 352.994325 247.218671 
L 358.706254 249.879292 
L 364.811729 253.016365 
L 371.770569 256.902983 
L 378.699135 261.030955 
L 388.594152 267.217415 
L 408.127245 279.573328 
L 414.154071 283.197984 
L 418.982149 285.97402 
L 425.54298 289.515548 
L 430.050544 291.766637 
L 434.306096 293.736973 
L 440.872661 296.449543 
L 442.587341 297.08749 
L 447.697405 298.804409 
L 454.069581 300.538373 
L 459.544483 301.647889 
L 459.901636 301.707689 
L 465.572654 302.446462 
L 468.106942 302.646969 
L 474.628023 302.790373 
L 477.567878 302.679083 
L 480.195089 302.487392 
L 486.079039 301.74528 
L 491.39886 300.709191 
L 496.328089 299.449791 
L 500.409352 298.197711 
L 506.220541 296.104739 
L 513.553293 292.983381 
L 519.706352 289.994866 
L 526.012576 286.630994 
L 529.656794 284.568227 
L 529.656794 284.568227 
" style="fill:none;stroke:#ff0000;stroke-linecap:square;"/>
   </g>
   <g id="line2d_7">
    <path clip-path="url(#p3fa20e57ef)" d="M 23.164375 80.713167 
L 23.939158 77.986955 
L 24.71394 75.59204 
L 26.033276 72.213842 
L 27.352611 69.631705 
L 28.476955 67.991356 
L 29.6013 66.812747 
L 30.725645 66.049797 
L 31.849989 65.660532 
L 32.395272 65.594773 
L 33.580508 65.70457 
L 34.765745 66.129156 
L 35.950982 66.833388 
L 37.136218 67.785481 
L 38.365568 69.00417 
L 40.564248 71.682398 
L 42.094897 73.861511 
L 44.941937 78.447498 
L 47.732313 83.442055 
L 53.312307 94.308313 
L 68.775242 125.533346 
L 73.446793 134.524638 
L 78.792222 144.40552 
L 83.162867 152.152134 
L 90.276413 164.143572 
L 95.394105 172.332512 
L 99.186675 178.186049 
L 106.374561 188.828626 
L 113.263607 198.536948 
L 120.581563 208.388561 
L 126.481511 216.019028 
L 131.855731 222.742405 
L 140.821691 233.491954 
L 148.300007 242.007176 
L 152.479403 246.580276 
L 158.350093 252.766607 
L 165.4862 259.88833 
L 170.725309 264.817853 
L 176.392924 269.843868 
L 180.907247 273.604811 
L 184.932522 276.767192 
L 190.30832 280.695607 
L 196.609969 284.849188 
L 200.167174 286.969273 
L 207.001156 290.568995 
L 212.460184 292.983082 
L 215.693203 294.214841 
L 218.233265 295.077923 
L 225.017601 296.927174 
L 228.189736 297.562947 
L 234.438665 298.388798 
L 239.639517 298.647914 
L 241.010521 298.652189 
L 246.906645 298.37138 
L 251.747438 297.786116 
L 257.030715 296.796137 
L 262.161848 295.499928 
L 267.085736 293.963551 
L 271.405887 292.39472 
L 278.000176 289.635657 
L 282.484056 287.532784 
L 288.651339 284.380069 
L 296.57279 279.966249 
L 304.282835 275.38138 
L 317.663268 267.090456 
L 330.480154 259.236446 
L 337.539546 255.142525 
L 345.570296 250.819277 
L 352.730751 247.352103 
L 355.314193 246.205766 
L 362.036531 243.513647 
L 366.043237 242.124174 
L 370.589312 240.75632 
L 376.944292 239.236532 
L 381.866146 238.388015 
L 383.928163 238.120208 
L 389.565279 237.657201 
L 393.949283 237.572409 
L 400.043664 237.856403 
L 404.431598 238.34857 
L 409.786796 239.27003 
L 411.660889 239.674181 
L 417.70036 241.255993 
L 422.423363 242.779089 
L 426.799915 244.402332 
L 429.30165 245.417079 
L 437.012081 248.911482 
L 443.52482 252.248599 
L 449.798604 255.743095 
L 459.457496 261.534637 
L 469.005427 267.567997 
L 486.751907 278.863412 
L 494.478613 283.530492 
L 502.017711 287.786978 
L 506.877364 290.330367 
L 510.931954 292.311844 
L 517.693168 295.295628 
L 522.247488 297.057085 
L 526.049076 298.362027 
L 529.656794 299.454082 
L 529.656794 299.454082 
" style="fill:none;stroke:#0000ff;stroke-linecap:square;"/>
   </g>
   <g id="line2d_8">
    <path clip-path="url(#p3fa20e57ef)" d="M 23.164375 80.713167 
L 24.618319 121.540884 
L 26.072264 157.370471 
L 27.827664 194.765483 
L 29.345334 222.555771 
L 30.61006 242.877661 
L 32.204513 265.242488 
L 33.369858 279.535574 
L 34.913507 296.102495 
L 36.515136 310.766124 
L 37.667913 319.911371 
L 39.022674 329.318509 
L 40.377434 337.429026 
L 41.987972 345.581751 
L 43.59851 352.318937 
L 44.672202 356.117861 
L 45.921679 359.918564 
L 47.171156 363.120105 
L 49.014406 366.884173 
L 50.759245 369.540023 
L 52.410762 371.364798 
L 53.189859 372.022385 
L 54.246919 372.728805 
L 55.303979 373.240888 
L 56.361039 373.578372 
L 58.089682 373.800525 
L 60.079778 373.628001 
L 62.82921 372.795065 
L 64.45073 372.05202 
L 66.07225 371.164076 
L 68.673756 369.507218 
L 72.850281 366.456864 
L 86.467427 355.814254 
L 91.305923 352.34028 
L 97.07721 348.565439 
L 98.931815 347.440109 
L 103.460857 344.864796 
L 108.955192 342.04354 
L 115.883325 338.881938 
L 121.345094 336.627001 
L 130.265289 333.223475 
L 146.868506 327.06605 
L 154.928212 323.849887 
L 162.787692 320.432998 
L 167.894577 318.033738 
L 174.920606 314.479661 
L 182.543356 310.280531 
L 187.804984 307.175892 
L 196.485206 301.709118 
L 203.848264 296.773905 
L 213.131537 290.245639 
L 230.171754 277.797952 
L 241.718177 269.433184 
L 249.548456 263.98951 
L 256.83744 259.194507 
L 262.377321 255.777199 
L 268.824989 252.09637 
L 272.271916 250.275828 
L 279.055358 247.025873 
L 285.511605 244.379259 
L 289.361922 243.023604 
L 295.357349 241.262215 
L 300.534602 240.096961 
L 305.14545 239.345069 
L 309.731864 238.869081 
L 313.608632 238.680052 
L 318.673126 238.727894 
L 319.955503 238.792797 
L 325.451983 239.310228 
L 331.560673 240.332236 
L 335.15104 241.145979 
L 337.593422 241.78689 
L 343.964483 243.77837 
L 345.819443 244.441543 
L 351.03666 246.49626 
L 356.669106 249.007115 
L 362.940333 252.121638 
L 369.148441 255.489131 
L 376.76745 259.931987 
L 387.502959 266.5839 
L 409.088688 280.200311 
L 416.733299 284.730355 
L 425.255443 289.394794 
L 431.546176 292.501919 
L 437.359749 295.07227 
L 441.956068 296.876404 
L 448.882299 299.179457 
L 452.180383 300.089511 
L 455.496948 300.877702 
L 461.596337 301.983879 
L 464.836269 302.385997 
L 467.978814 302.650888 
L 473.514002 302.814846 
L 477.550918 302.69007 
L 480.234264 302.493391 
L 485.705966 301.813589 
L 491.555511 300.681146 
L 498.04321 298.952908 
L 504.266107 296.853907 
L 508.794673 295.072799 
L 513.385417 293.065364 
L 520.401961 289.64218 
L 526.628753 286.291674 
L 529.656794 284.571812 
L 529.656794 284.571812 
" style="fill:none;stroke:#ff0000;stroke-linecap:square;"/>
   </g>
   <g id="line2d_9">
    <path clip-path="url(#p3fa20e57ef)" d="M 23.164375 33.324418 
L 24.526038 27.628899 
L 25.616522 23.972197 
L 26.889714 20.612616 
L 28.036241 18.340945 
L 29.056102 16.860023 
L 30.075963 15.839246 
L 30.585894 15.488053 
L 31.605755 15.079246 
L 32.279615 15.009231 
L 32.953475 15.086629 
L 33.627335 15.30198 
L 34.301194 15.646344 
L 35.397359 16.460516 
L 36.440895 17.501276 
L 37.484432 18.774094 
L 39.571505 21.920603 
L 40.822591 24.133886 
L 42.41209 27.238633 
L 45.763621 34.624442 
L 49.614363 44.067668 
L 54.753026 57.494139 
L 65.835474 86.79577 
L 72.393808 103.291733 
L 77.789939 116.147888 
L 82.751665 127.366491 
L 85.553469 133.449648 
L 88.476925 139.609354 
L 94.35582 151.444961 
L 98.650513 159.656805 
L 104.086777 169.571905 
L 109.417546 178.821047 
L 115.38495 188.67372 
L 120.673285 197.004172 
L 127.342792 207.021165 
L 132.781578 214.814897 
L 139.191916 223.592906 
L 146.04119 232.500406 
L 151.725332 239.526746 
L 157.605698 246.442986 
L 163.930358 253.471389 
L 169.688456 259.486912 
L 176.980939 266.556587 
L 182.520472 271.497267 
L 187.512115 275.617019 
L 194.305397 280.69635 
L 198.702887 283.648556 
L 203.872824 286.771081 
L 205.440422 287.642123 
L 211.184212 290.527178 
L 212.923325 291.304735 
L 218.85757 293.618035 
L 221.003033 294.324221 
L 225.983533 295.69598 
L 231.135111 296.721605 
L 235.251238 297.255357 
L 240.032945 297.560483 
L 243.433952 297.574671 
L 248.638763 297.277273 
L 253.611398 296.643188 
L 257.62947 295.890471 
L 261.206585 295.046905 
L 263.907992 294.305741 
L 267.398058 293.221059 
L 272.838545 291.260357 
L 279.636478 288.388898 
L 284.523895 286.067985 
L 289.716972 283.398888 
L 294.467473 280.800985 
L 302.84981 275.934089 
L 314.949017 268.535224 
L 327.636037 260.750305 
L 337.037846 255.264703 
L 343.768179 251.612166 
L 350.943723 248.056657 
L 357.049533 245.361237 
L 362.064656 243.405229 
L 366.375026 241.926622 
L 370.975999 240.568305 
L 373.339402 239.962693 
L 380.192888 238.575029 
L 383.839534 238.066831 
L 388.44196 237.659538 
L 391.019113 237.546904 
L 397.141937 237.613887 
L 402.98193 238.115805 
L 407.551586 238.803084 
L 410.139461 239.30492 
L 415.82037 240.684705 
L 419.699983 241.839592 
L 425.115779 243.726088 
L 431.682065 246.413697 
L 437.678847 249.215891 
L 442.833485 251.859444 
L 450.776813 256.292225 
L 455.919208 259.349975 
L 465.317685 265.202123 
L 489.380466 280.471281 
L 495.347144 284.030648 
L 502.323943 287.946121 
L 507.07524 290.424564 
L 510.690516 292.192477 
L 517.367309 295.157085 
L 521.15734 296.650432 
L 524.644387 297.893966 
L 529.656794 299.450496 
L 529.656794 299.450496 
" style="fill:none;stroke:#0000ff;stroke-linecap:square;"/>
   </g>
   <g id="line2d_10">
    <path clip-path="url(#p3fa20e57ef)" d="M 23.164375 33.324418 
L 24.831584 92.73867 
L 26.389232 140.726235 
L 27.94688 182.338918 
L 29.417226 216.462852 
L 30.745901 243.47987 
L 32.423021 273.008231 
L 33.949688 295.975117 
L 35.325904 313.868073 
L 37.007981 332.556435 
L 38.333273 345.104048 
L 39.729133 356.490703 
L 40.79367 364.043588 
L 42.183963 372.589405 
L 43.574256 379.800145 
L 45.139636 386.51288 
L 46.705017 391.92362 
L 47.973775 395.472666 
L 49.157796 398.187355 
L 50.341818 400.38674 
L 51.417196 401.983467 
L 52.492575 403.236993 
L 53.567953 404.18119 
L 54.643332 404.84703 
L 55.65641 405.245085 
L 56.669489 405.442919 
L 58.271195 405.395068 
L 59.786683 404.998175 
L 61.302171 404.312737 
L 63.50918 402.891601 
L 66.239598 400.597958 
L 69.272553 397.562088 
L 71.240038 395.407917 
L 78.525548 386.860053 
L 84.015987 380.389579 
L 88.583411 375.247635 
L 94.151927 369.408944 
L 96.397984 367.202081 
L 102.43072 361.702089 
L 107.279104 357.713344 
L 112.246578 353.986007 
L 117.011929 350.707878 
L 123.110856 346.862341 
L 128.664768 343.625298 
L 136.422582 339.387729 
L 165.041328 324.188202 
L 172.516789 319.867527 
L 180.202533 315.163807 
L 188.24512 309.942617 
L 196.012063 304.620055 
L 204.800043 298.306766 
L 215.29642 290.464878 
L 241.41517 270.71055 
L 250.490605 264.240852 
L 256.861107 259.962309 
L 261.465967 257.039012 
L 269.214041 252.498929 
L 276.397419 248.776778 
L 281.667431 246.380099 
L 287.260347 244.171864 
L 293.130868 242.248126 
L 295.102356 241.696174 
L 301.055229 240.3256 
L 305.617922 239.582407 
L 311.178029 239.043547 
L 315.262585 238.906122 
L 319.898065 239.014945 
L 322.727373 239.218725 
L 327.684526 239.823281 
L 330.843722 240.370079 
L 335.283989 241.345499 
L 338.134536 242.09559 
L 344.916287 244.251712 
L 349.106691 245.831127 
L 353.700559 247.763414 
L 355.876098 248.747187 
L 363.248825 252.378531 
L 370.505688 256.34101 
L 376.031859 259.565109 
L 385.889612 265.626217 
L 408.980152 280.173006 
L 417.927473 285.443898 
L 425.392563 289.493905 
L 429.52044 291.56213 
L 436.214835 294.613388 
L 441.537545 296.741351 
L 447.021949 298.630362 
L 452.581824 300.208183 
L 457.223833 301.251527 
L 462.429505 302.113236 
L 467.786719 302.650418 
L 471.566427 302.812611 
L 475.997983 302.772792 
L 481.429488 302.385988 
L 485.733644 301.817743 
L 491.499167 300.701628 
L 495.435467 299.712782 
L 502.174331 297.611986 
L 507.052743 295.787738 
L 513.798825 292.880065 
L 519.695212 290.009284 
L 524.414626 287.517392 
L 529.656794 284.575398 
L 529.656794 284.575398 
" style="fill:none;stroke:#ff0000;stroke-linecap:square;"/>
   </g>
   <g id="patch_3">
    <path d="M 13.034527 270.268161 
L 539.786642 270.268161 
" style="fill:none;stroke:#000000;stroke-linecap:square;stroke-linejoin:miter;stroke-width:0.8;"/>
   </g>
   <g id="patch_4">
    <path d="M 23.164375 413.28 
L 23.164375 7.2 
" style="fill:none;stroke:#000000;stroke-linecap:square;stroke-linejoin:miter;stroke-width:0.8;"/>
   </g>
   <g id="matplotlib.axis_1">
    <g id="xtick_1">
     <g id="line2d_11">
      <defs>
       <path d="M 0 0 
L 0 -4 
" id="mb51e08fba1" style="stroke:#000000;stroke-width:0.5;"/>
      </defs>
      <g>
       <use style="stroke:#000000;stroke-width:0.5;" x="23.164375" xlink:href="#mb51e08fba1" y="270.268161263"/>
      </g>
     </g>
    </g>
    <g id="xtick_2">
     <g id="line2d_12">
      <g>
       <use style="stroke:#000000;stroke-width:0.5;" x="124.462858728" xlink:href="#mb51e08fba1" y="270.268161263"/>
      </g>
     </g>
     <g id="text_1">
      <!-- 2 -->
      <defs>
       <path d="M 19.1875 8.296875 
L 53.609375 8.296875 
L 53.609375 0 
L 7.328125 0 
L 7.328125 8.296875 
Q 12.9375 14.109375 22.625 23.890625 
Q 32.328125 33.6875 34.8125 36.53125 
Q 39.546875 41.84375 41.421875 45.53125 
Q 43.3125 49.21875 43.3125 52.78125 
Q 43.3125 58.59375 39.234375 62.25 
Q 35.15625 65.921875 28.609375 65.921875 
Q 23.96875 65.921875 18.8125 64.3125 
Q 13.671875 62.703125 7.8125 59.421875 
L 7.8125 69.390625 
Q 13.765625 71.78125 18.9375 73 
Q 24.125 74.21875 28.421875 74.21875 
Q 39.75 74.21875 46.484375 68.546875 
Q 53.21875 62.890625 53.21875 53.421875 
Q 53.21875 48.921875 51.53125 44.890625 
Q 49.859375 40.875 45.40625 35.40625 
Q 44.1875 33.984375 37.640625 27.21875 
Q 31.109375 20.453125 19.1875 8.296875 
" id="BitstreamVeraSans-Roman-32"/>
      </defs>
      <g transform="translate(120.645358728 283.386286263)scale(0.12 -0.12)">
       <use xlink:href="#BitstreamVeraSans-Roman-32"/>
      </g>
     </g>
    </g>
    <g id="xtick_3">
     <g id="line2d_13">
      <g>
       <use style="stroke:#000000;stroke-width:0.5;" x="225.761342456" xlink:href="#mb51e08fba1" y="270.268161263"/>
      </g>
     </g>
     <g id="text_2">
      <!-- 4 -->
      <defs>
       <path d="M 37.796875 64.3125 
L 12.890625 25.390625 
L 37.796875 25.390625 
z
M 35.203125 72.90625 
L 47.609375 72.90625 
L 47.609375 25.390625 
L 58.015625 25.390625 
L 58.015625 17.1875 
L 47.609375 17.1875 
L 47.609375 0 
L 37.796875 0 
L 37.796875 17.1875 
L 4.890625 17.1875 
L 4.890625 26.703125 
z
" id="BitstreamVeraSans-Roman-34"/>
      </defs>
      <g transform="translate(221.943842456 283.386286263)scale(0.12 -0.12)">
       <use xlink:href="#BitstreamVeraSans-Roman-34"/>
      </g>
     </g>
    </g>
    <g id="xtick_4">
     <g id="line2d_14">
      <g>
       <use style="stroke:#000000;stroke-width:0.5;" x="327.059826183" xlink:href="#mb51e08fba1" y="270.268161263"/>
      </g>
     </g>
     <g id="text_3">
      <!-- 6 -->
      <defs>
       <path d="M 33.015625 40.375 
Q 26.375 40.375 22.484375 35.828125 
Q 18.609375 31.296875 18.609375 23.390625 
Q 18.609375 15.53125 22.484375 10.953125 
Q 26.375 6.390625 33.015625 6.390625 
Q 39.65625 6.390625 43.53125 10.953125 
Q 47.40625 15.53125 47.40625 23.390625 
Q 47.40625 31.296875 43.53125 35.828125 
Q 39.65625 40.375 33.015625 40.375 
M 52.59375 71.296875 
L 52.59375 62.3125 
Q 48.875 64.0625 45.09375 64.984375 
Q 41.3125 65.921875 37.59375 65.921875 
Q 27.828125 65.921875 22.671875 59.328125 
Q 17.53125 52.734375 16.796875 39.40625 
Q 19.671875 43.65625 24.015625 45.921875 
Q 28.375 48.1875 33.59375 48.1875 
Q 44.578125 48.1875 50.953125 41.515625 
Q 57.328125 34.859375 57.328125 23.390625 
Q 57.328125 12.15625 50.6875 5.359375 
Q 44.046875 -1.421875 33.015625 -1.421875 
Q 20.359375 -1.421875 13.671875 8.265625 
Q 6.984375 17.96875 6.984375 36.375 
Q 6.984375 53.65625 15.1875 63.9375 
Q 23.390625 74.21875 37.203125 74.21875 
Q 40.921875 74.21875 44.703125 73.484375 
Q 48.484375 72.75 52.59375 71.296875 
" id="BitstreamVeraSans-Roman-36"/>
      </defs>
      <g transform="translate(323.242326183 283.386286263)scale(0.12 -0.12)">
       <use xlink:href="#BitstreamVeraSans-Roman-36"/>
      </g>
     </g>
    </g>
    <g id="xtick_5">
     <g id="line2d_15">
      <g>
       <use style="stroke:#000000;stroke-width:0.5;" x="428.358309911" xlink:href="#mb51e08fba1" y="270.268161263"/>
      </g>
     </g>
     <g id="text_4">
      <!-- 8 -->
      <defs>
       <path d="M 31.78125 34.625 
Q 24.75 34.625 20.71875 30.859375 
Q 16.703125 27.09375 16.703125 20.515625 
Q 16.703125 13.921875 20.71875 10.15625 
Q 24.75 6.390625 31.78125 6.390625 
Q 38.8125 6.390625 42.859375 10.171875 
Q 46.921875 13.96875 46.921875 20.515625 
Q 46.921875 27.09375 42.890625 30.859375 
Q 38.875 34.625 31.78125 34.625 
M 21.921875 38.8125 
Q 15.578125 40.375 12.03125 44.71875 
Q 8.5 49.078125 8.5 55.328125 
Q 8.5 64.0625 14.71875 69.140625 
Q 20.953125 74.21875 31.78125 74.21875 
Q 42.671875 74.21875 48.875 69.140625 
Q 55.078125 64.0625 55.078125 55.328125 
Q 55.078125 49.078125 51.53125 44.71875 
Q 48 40.375 41.703125 38.8125 
Q 48.828125 37.15625 52.796875 32.3125 
Q 56.78125 27.484375 56.78125 20.515625 
Q 56.78125 9.90625 50.3125 4.234375 
Q 43.84375 -1.421875 31.78125 -1.421875 
Q 19.734375 -1.421875 13.25 4.234375 
Q 6.78125 9.90625 6.78125 20.515625 
Q 6.78125 27.484375 10.78125 32.3125 
Q 14.796875 37.15625 21.921875 38.8125 
M 18.3125 54.390625 
Q 18.3125 48.734375 21.84375 45.5625 
Q 25.390625 42.390625 31.78125 42.390625 
Q 38.140625 42.390625 41.71875 45.5625 
Q 45.3125 48.734375 45.3125 54.390625 
Q 45.3125 60.0625 41.71875 63.234375 
Q 38.140625 66.40625 31.78125 66.40625 
Q 25.390625 66.40625 21.84375 63.234375 
Q 18.3125 60.0625 18.3125 54.390625 
" id="BitstreamVeraSans-Roman-38"/>
      </defs>
      <g transform="translate(424.540809911 283.386286263)scale(0.12 -0.12)">
       <use xlink:href="#BitstreamVeraSans-Roman-38"/>
      </g>
     </g>
    </g>
    <g id="xtick_6">
     <g id="line2d_16">
      <g>
       <use style="stroke:#000000;stroke-width:0.5;" x="529.656793639" xlink:href="#mb51e08fba1" y="270.268161263"/>
      </g>
     </g>
     <g id="text_5">
      <!-- 10 -->
      <defs>
       <path d="M 31.78125 66.40625 
Q 24.171875 66.40625 20.328125 58.90625 
Q 16.5 51.421875 16.5 36.375 
Q 16.5 21.390625 20.328125 13.890625 
Q 24.171875 6.390625 31.78125 6.390625 
Q 39.453125 6.390625 43.28125 13.890625 
Q 47.125 21.390625 47.125 36.375 
Q 47.125 51.421875 43.28125 58.90625 
Q 39.453125 66.40625 31.78125 66.40625 
M 31.78125 74.21875 
Q 44.046875 74.21875 50.515625 64.515625 
Q 56.984375 54.828125 56.984375 36.375 
Q 56.984375 17.96875 50.515625 8.265625 
Q 44.046875 -1.421875 31.78125 -1.421875 
Q 19.53125 -1.421875 13.0625 8.265625 
Q 6.59375 17.96875 6.59375 36.375 
Q 6.59375 54.828125 13.0625 64.515625 
Q 19.53125 74.21875 31.78125 74.21875 
" id="BitstreamVeraSans-Roman-30"/>
       <path d="M 12.40625 8.296875 
L 28.515625 8.296875 
L 28.515625 63.921875 
L 10.984375 60.40625 
L 10.984375 69.390625 
L 28.421875 72.90625 
L 38.28125 72.90625 
L 38.28125 8.296875 
L 54.390625 8.296875 
L 54.390625 0 
L 12.40625 0 
z
" id="BitstreamVeraSans-Roman-31"/>
      </defs>
      <g transform="translate(522.021793639 283.386286263)scale(0.12 -0.12)">
       <use xlink:href="#BitstreamVeraSans-Roman-31"/>
       <use x="63.623046875" xlink:href="#BitstreamVeraSans-Roman-30"/>
      </g>
     </g>
    </g>
    <g id="xtick_7">
     <g id="line2d_17">
      <defs>
       <path d="M 0 0 
L 0 -2 
" id="m6e7c0e40d8" style="stroke:#000000;stroke-width:0.5;"/>
      </defs>
      <g>
       <use style="stroke:#000000;stroke-width:0.5;" x="48.488995932" xlink:href="#m6e7c0e40d8" y="270.268161263"/>
      </g>
     </g>
    </g>
    <g id="xtick_8">
     <g id="line2d_18">
      <g>
       <use style="stroke:#000000;stroke-width:0.5;" x="73.8136168639" xlink:href="#m6e7c0e40d8" y="270.268161263"/>
      </g>
     </g>
    </g>
    <g id="xtick_9">
     <g id="line2d_19">
      <g>
       <use style="stroke:#000000;stroke-width:0.5;" x="99.1382377959" xlink:href="#m6e7c0e40d8" y="270.268161263"/>
      </g>
     </g>
    </g>
    <g id="xtick_10">
     <g id="line2d_20">
      <g>
       <use style="stroke:#000000;stroke-width:0.5;" x="149.78747966" xlink:href="#m6e7c0e40d8" y="270.268161263"/>
      </g>
     </g>
    </g>
    <g id="xtick_11">
     <g id="line2d_21">
      <g>
       <use style="stroke:#000000;stroke-width:0.5;" x="175.112100592" xlink:href="#m6e7c0e40d8" y="270.268161263"/>
      </g>
     </g>
    </g>
    <g id="xtick_12">
     <g id="line2d_22">
      <g>
       <use style="stroke:#000000;stroke-width:0.5;" x="200.436721524" xlink:href="#m6e7c0e40d8" y="270.268161263"/>
      </g>
     </g>
    </g>
    <g id="xtick_13">
     <g id="line2d_23">
      <g>
       <use style="stroke:#000000;stroke-width:0.5;" x="251.085963388" xlink:href="#m6e7c0e40d8" y="270.268161263"/>
      </g>
     </g>
    </g>
    <g id="xtick_14">
     <g id="line2d_24">
      <g>
       <use style="stroke:#000000;stroke-width:0.5;" x="276.41058432" xlink:href="#m6e7c0e40d8" y="270.268161263"/>
      </g>
     </g>
    </g>
    <g id="xtick_15">
     <g id="line2d_25">
      <g>
       <use style="stroke:#000000;stroke-width:0.5;" x="301.735205251" xlink:href="#m6e7c0e40d8" y="270.268161263"/>
      </g>
     </g>
    </g>
    <g id="xtick_16">
     <g id="line2d_26">
      <g>
       <use style="stroke:#000000;stroke-width:0.5;" x="352.384447115" xlink:href="#m6e7c0e40d8" y="270.268161263"/>
      </g>
     </g>
    </g>
    <g id="xtick_17">
     <g id="line2d_27">
      <g>
       <use style="stroke:#000000;stroke-width:0.5;" x="377.709068047" xlink:href="#m6e7c0e40d8" y="270.268161263"/>
      </g>
     </g>
    </g>
    <g id="xtick_18">
     <g id="line2d_28">
      <g>
       <use style="stroke:#000000;stroke-width:0.5;" x="403.033688979" xlink:href="#m6e7c0e40d8" y="270.268161263"/>
      </g>
     </g>
    </g>
    <g id="xtick_19">
     <g id="line2d_29">
      <g>
       <use style="stroke:#000000;stroke-width:0.5;" x="453.682930843" xlink:href="#m6e7c0e40d8" y="270.268161263"/>
      </g>
     </g>
    </g>
    <g id="xtick_20">
     <g id="line2d_30">
      <g>
       <use style="stroke:#000000;stroke-width:0.5;" x="479.007551775" xlink:href="#m6e7c0e40d8" y="270.268161263"/>
      </g>
     </g>
    </g>
    <g id="xtick_21">
     <g id="line2d_31">
      <g>
       <use style="stroke:#000000;stroke-width:0.5;" x="504.332172707" xlink:href="#m6e7c0e40d8" y="270.268161263"/>
      </g>
     </g>
    </g>
    <g id="text_6">
     <!-- $t$ -->
     <defs>
      <path d="M 6.203125 8.109375 
Q 6.203125 9.578125 6.5 10.890625 
L 13.71875 39.59375 
L 3.21875 39.59375 
Q 2.203125 39.59375 2.203125 40.921875 
Q 2.59375 43.109375 3.515625 43.109375 
L 14.59375 43.109375 
L 18.609375 59.421875 
Q 19 60.75 20.171875 61.671875 
Q 21.34375 62.59375 22.796875 62.59375 
Q 24.078125 62.59375 24.921875 61.828125 
Q 25.78125 61.078125 25.78125 59.8125 
Q 25.78125 59.515625 25.75 59.34375 
Q 25.734375 59.1875 25.6875 58.984375 
L 21.6875 43.109375 
L 31.984375 43.109375 
Q 33.015625 43.109375 33.015625 41.796875 
Q 32.953125 41.546875 32.8125 40.953125 
Q 32.671875 40.375 32.421875 39.984375 
Q 32.171875 39.59375 31.6875 39.59375 
L 20.796875 39.59375 
L 13.625 10.6875 
Q 12.890625 7.859375 12.890625 5.8125 
Q 12.890625 1.515625 15.828125 1.515625 
Q 20.21875 1.515625 23.609375 5.640625 
Q 27 9.765625 28.8125 14.703125 
Q 29.203125 15.28125 29.59375 15.28125 
L 30.8125 15.28125 
Q 31.203125 15.28125 31.4375 15.015625 
Q 31.6875 14.75 31.6875 14.40625 
Q 31.6875 14.203125 31.59375 14.109375 
Q 29.390625 8.0625 25.1875 3.46875 
Q 21 -1.125 15.578125 -1.125 
Q 11.625 -1.125 8.90625 1.453125 
Q 6.203125 4.046875 6.203125 8.109375 
" id="Cmmi10-74"/>
     </defs>
     <g transform="translate(547.786642012 270.268161263)scale(0.19 -0.19)">
      <use transform="translate(0.0 0.40625)" xlink:href="#Cmmi10-74"/>
     </g>
    </g>
   </g>
   <g id="matplotlib.axis_2">
    <g id="ytick_1">
     <g id="line2d_32">
      <defs>
       <path d="M 0 0 
L 4 0 
" id="m10bc721cef" style="stroke:#000000;stroke-width:0.5;"/>
      </defs>
      <g>
       <use style="stroke:#000000;stroke-width:0.5;" x="23.164375" xlink:href="#m10bc721cef" y="365.045658476"/>
      </g>
     </g>
     <g id="text_7">
      <!-- -1 -->
      <defs>
       <path d="M 4.890625 31.390625 
L 31.203125 31.390625 
L 31.203125 23.390625 
L 4.890625 23.390625 
z
" id="BitstreamVeraSans-Roman-2d"/>
      </defs>
      <g transform="translate(7.2 368.356908476)scale(0.12 -0.12)">
       <use xlink:href="#BitstreamVeraSans-Roman-2d"/>
       <use x="36.083984375" xlink:href="#BitstreamVeraSans-Roman-31"/>
      </g>
     </g>
    </g>
    <g id="ytick_2">
     <g id="line2d_33">
      <g>
       <use style="stroke:#000000;stroke-width:0.5;" x="23.164375" xlink:href="#m10bc721cef" y="270.268161263"/>
      </g>
     </g>
    </g>
    <g id="ytick_3">
     <g id="line2d_34">
      <g>
       <use style="stroke:#000000;stroke-width:0.5;" x="23.164375" xlink:href="#m10bc721cef" y="175.490664049"/>
      </g>
     </g>
     <g id="text_8">
      <!-- 1 -->
      <g transform="translate(11.529375 178.801914049)scale(0.12 -0.12)">
       <use xlink:href="#BitstreamVeraSans-Roman-31"/>
      </g>
     </g>
    </g>
    <g id="ytick_4">
     <g id="line2d_35">
      <g>
       <use style="stroke:#000000;stroke-width:0.5;" x="23.164375" xlink:href="#m10bc721cef" y="80.7131668362"/>
      </g>
     </g>
     <g id="text_9">
      <!-- 2 -->
      <g transform="translate(11.529375 84.0244168362)scale(0.12 -0.12)">
       <use xlink:href="#BitstreamVeraSans-Roman-32"/>
      </g>
     </g>
    </g>
    <g id="ytick_5">
     <g id="line2d_36">
      <defs>
       <path d="M 0 0 
L 2 0 
" id="ma7228b44b7" style="stroke:#000000;stroke-width:0.5;"/>
      </defs>
      <g>
       <use style="stroke:#000000;stroke-width:0.5;" x="23.164375" xlink:href="#ma7228b44b7" y="402.956657361"/>
      </g>
     </g>
    </g>
    <g id="ytick_6">
     <g id="line2d_37">
      <g>
       <use style="stroke:#000000;stroke-width:0.5;" x="23.164375" xlink:href="#ma7228b44b7" y="384.001157918"/>
      </g>
     </g>
    </g>
    <g id="ytick_7">
     <g id="line2d_38">
      <g>
       <use style="stroke:#000000;stroke-width:0.5;" x="23.164375" xlink:href="#ma7228b44b7" y="346.090159033"/>
      </g>
     </g>
    </g>
    <g id="ytick_8">
     <g id="line2d_39">
      <g>
       <use style="stroke:#000000;stroke-width:0.5;" x="23.164375" xlink:href="#ma7228b44b7" y="327.13465959"/>
      </g>
     </g>
    </g>
    <g id="ytick_9">
     <g id="line2d_40">
      <g>
       <use style="stroke:#000000;stroke-width:0.5;" x="23.164375" xlink:href="#ma7228b44b7" y="308.179160148"/>
      </g>
     </g>
    </g>
    <g id="ytick_10">
     <g id="line2d_41">
      <g>
       <use style="stroke:#000000;stroke-width:0.5;" x="23.164375" xlink:href="#ma7228b44b7" y="289.223660705"/>
      </g>
     </g>
    </g>
    <g id="ytick_11">
     <g id="line2d_42">
      <g>
       <use style="stroke:#000000;stroke-width:0.5;" x="23.164375" xlink:href="#ma7228b44b7" y="270.268161263"/>
      </g>
     </g>
    </g>
    <g id="ytick_12">
     <g id="line2d_43">
      <g>
       <use style="stroke:#000000;stroke-width:0.5;" x="23.164375" xlink:href="#ma7228b44b7" y="251.31266182"/>
      </g>
     </g>
    </g>
    <g id="ytick_13">
     <g id="line2d_44">
      <g>
       <use style="stroke:#000000;stroke-width:0.5;" x="23.164375" xlink:href="#ma7228b44b7" y="232.357162377"/>
      </g>
     </g>
    </g>
    <g id="ytick_14">
     <g id="line2d_45">
      <g>
       <use style="stroke:#000000;stroke-width:0.5;" x="23.164375" xlink:href="#ma7228b44b7" y="213.401662935"/>
      </g>
     </g>
    </g>
    <g id="ytick_15">
     <g id="line2d_46">
      <g>
       <use style="stroke:#000000;stroke-width:0.5;" x="23.164375" xlink:href="#ma7228b44b7" y="194.446163492"/>
      </g>
     </g>
    </g>
    <g id="ytick_16">
     <g id="line2d_47">
      <g>
       <use style="stroke:#000000;stroke-width:0.5;" x="23.164375" xlink:href="#ma7228b44b7" y="175.490664049"/>
      </g>
     </g>
    </g>
    <g id="ytick_17">
     <g id="line2d_48">
      <g>
       <use style="stroke:#000000;stroke-width:0.5;" x="23.164375" xlink:href="#ma7228b44b7" y="156.535164607"/>
      </g>
     </g>
    </g>
    <g id="ytick_18">
     <g id="line2d_49">
      <g>
       <use style="stroke:#000000;stroke-width:0.5;" x="23.164375" xlink:href="#ma7228b44b7" y="137.579665164"/>
      </g>
     </g>
    </g>
    <g id="ytick_19">
     <g id="line2d_50">
      <g>
       <use style="stroke:#000000;stroke-width:0.5;" x="23.164375" xlink:href="#ma7228b44b7" y="118.624165721"/>
      </g>
     </g>
    </g>
    <g id="ytick_20">
     <g id="line2d_51">
      <g>
       <use style="stroke:#000000;stroke-width:0.5;" x="23.164375" xlink:href="#ma7228b44b7" y="99.6686662788"/>
      </g>
     </g>
    </g>
    <g id="ytick_21">
     <g id="line2d_52">
      <g>
       <use style="stroke:#000000;stroke-width:0.5;" x="23.164375" xlink:href="#ma7228b44b7" y="80.7131668362"/>
      </g>
     </g>
    </g>
    <g id="ytick_22">
     <g id="line2d_53">
      <g>
       <use style="stroke:#000000;stroke-width:0.5;" x="23.164375" xlink:href="#ma7228b44b7" y="61.7576673935"/>
      </g>
     </g>
    </g>
    <g id="ytick_23">
     <g id="line2d_54">
      <g>
       <use style="stroke:#000000;stroke-width:0.5;" x="23.164375" xlink:href="#ma7228b44b7" y="42.8021679509"/>
      </g>
     </g>
    </g>
    <g id="ytick_24">
     <g id="line2d_55">
      <g>
       <use style="stroke:#000000;stroke-width:0.5;" x="23.164375" xlink:href="#ma7228b44b7" y="23.8466685083"/>
      </g>
     </g>
    </g>
   </g>
   <g id="legend_1">
    <g id="patch_5">
     <path d="M 485.026642 54.07625 
L 535.786642 54.07625 
L 535.786642 15.2 
L 485.026642 15.2 
z
" style="fill:#4c4c4c;opacity:0.5;stroke:#4c4c4c;stroke-linejoin:miter;"/>
    </g>
    <g id="patch_6">
     <path d="M 483.026642 52.07625 
L 533.786642 52.07625 
L 533.786642 13.2 
L 483.026642 13.2 
z
" style="fill:#ffffff;stroke:#000000;stroke-linejoin:miter;"/>
    </g>
    <g id="line2d_56">
     <path d="M 493.826642 25.318125 
L 487.226642 25.318125 
" style="fill:none;stroke:#0000ff;stroke-linecap:square;"/>
    </g>
    <g id="line2d_57"/>
    <g id="text_10">
     <!-- $x(t)$ -->
     <defs>
      <path d="M 31 -24.8125 
Q 25.4375 -20.40625 21.40625 -14.71875 
Q 17.390625 -9.03125 14.8125 -2.578125 
Q 12.25 3.859375 10.984375 10.890625 
Q 9.71875 17.921875 9.71875 25 
Q 9.71875 32.171875 10.984375 39.203125 
Q 12.25 46.234375 14.859375 52.734375 
Q 17.484375 59.234375 21.53125 64.890625 
Q 25.59375 70.5625 31 74.8125 
Q 31 75 31.5 75 
L 32.421875 75 
Q 32.71875 75 32.953125 74.734375 
Q 33.203125 74.46875 33.203125 74.125 
Q 33.203125 73.6875 33.015625 73.484375 
Q 28.125 68.703125 24.875 63.234375 
Q 21.625 57.765625 19.640625 51.578125 
Q 17.671875 45.40625 16.796875 38.78125 
Q 15.921875 32.171875 15.921875 25 
Q 15.921875 -6.78125 32.90625 -23.296875 
Q 33.203125 -23.578125 33.203125 -24.125 
Q 33.203125 -24.359375 32.9375 -24.671875 
Q 32.671875 -25 32.421875 -25 
L 31.5 -25 
Q 31 -25 31 -24.8125 
" id="Cmr10-28"/>
      <path d="M 6.5 -25 
Q 5.609375 -25 5.609375 -24.125 
Q 5.609375 -23.6875 5.8125 -23.484375 
Q 22.90625 -6.78125 22.90625 25 
Q 22.90625 56.78125 6 73.296875 
Q 5.609375 73.53125 5.609375 74.125 
Q 5.609375 74.46875 5.875 74.734375 
Q 6.15625 75 6.5 75 
L 7.421875 75 
Q 7.71875 75 7.90625 74.8125 
Q 15.09375 69.140625 19.875 61.03125 
Q 24.65625 52.9375 26.875 43.75 
Q 29.109375 34.578125 29.109375 25 
Q 29.109375 17.921875 27.90625 11.0625 
Q 26.703125 4.203125 24.09375 -2.453125 
Q 21.484375 -9.125 17.484375 -14.765625 
Q 13.484375 -20.40625 7.90625 -24.8125 
Q 7.71875 -25 7.421875 -25 
z
" id="Cmr10-29"/>
      <path d="M 7.8125 2.875 
Q 9.578125 1.515625 12.796875 1.515625 
Q 15.921875 1.515625 18.3125 4.515625 
Q 20.703125 7.515625 21.578125 11.078125 
L 26.125 28.8125 
Q 27.203125 33.640625 27.203125 35.40625 
Q 27.203125 37.890625 25.8125 39.75 
Q 24.421875 41.609375 21.921875 41.609375 
Q 18.75 41.609375 15.96875 39.625 
Q 13.1875 37.640625 11.28125 34.59375 
Q 9.375 31.546875 8.59375 28.421875 
Q 8.40625 27.78125 7.8125 27.78125 
L 6.59375 27.78125 
Q 5.8125 27.78125 5.8125 28.71875 
L 5.8125 29 
Q 6.78125 32.71875 9.125 36.25 
Q 11.46875 39.796875 14.859375 41.984375 
Q 18.265625 44.1875 22.125 44.1875 
Q 25.78125 44.1875 28.734375 42.234375 
Q 31.6875 40.28125 32.90625 36.921875 
Q 34.625 39.984375 37.28125 42.078125 
Q 39.9375 44.1875 43.109375 44.1875 
Q 45.265625 44.1875 47.5 43.421875 
Q 49.75 42.671875 51.171875 41.109375 
Q 52.59375 39.546875 52.59375 37.203125 
Q 52.59375 34.671875 50.953125 32.828125 
Q 49.3125 31 46.78125 31 
Q 45.171875 31 44.09375 32.03125 
Q 43.015625 33.0625 43.015625 34.625 
Q 43.015625 36.71875 44.453125 38.296875 
Q 45.90625 39.890625 47.90625 40.1875 
Q 46.09375 41.609375 42.921875 41.609375 
Q 39.703125 41.609375 37.328125 38.625 
Q 34.96875 35.640625 33.984375 31.984375 
L 29.59375 14.3125 
Q 28.515625 10.296875 28.515625 7.71875 
Q 28.515625 5.171875 29.953125 3.34375 
Q 31.390625 1.515625 33.796875 1.515625 
Q 38.484375 1.515625 42.15625 5.640625 
Q 45.84375 9.765625 47.015625 14.703125 
Q 47.21875 15.28125 47.796875 15.28125 
L 49.03125 15.28125 
Q 49.421875 15.28125 49.65625 15.015625 
Q 49.90625 14.75 49.90625 14.40625 
Q 49.90625 14.3125 49.8125 14.109375 
Q 48.390625 8.15625 43.84375 3.515625 
Q 39.3125 -1.125 33.59375 -1.125 
Q 29.9375 -1.125 26.984375 0.84375 
Q 24.03125 2.828125 22.796875 6.203125 
Q 21.234375 3.265625 18.46875 1.0625 
Q 15.71875 -1.125 12.59375 -1.125 
Q 10.453125 -1.125 8.171875 -0.359375 
Q 5.90625 0.390625 4.484375 1.953125 
Q 3.078125 3.515625 3.078125 5.90625 
Q 3.078125 8.25 4.703125 10.171875 
Q 6.34375 12.109375 8.796875 12.109375 
Q 10.453125 12.109375 11.578125 11.109375 
Q 12.703125 10.109375 12.703125 8.5 
Q 12.703125 6.390625 11.296875 4.828125 
Q 9.90625 3.265625 7.8125 2.875 
" id="Cmmi10-78"/>
     </defs>
     <g transform="translate(496.826642012 29.518125)scale(0.12 -0.12)">
      <use xlink:href="#Cmmi10-78"/>
      <use transform="translate(57.080078125 0.0)" xlink:href="#Cmr10-28"/>
      <use transform="translate(95.8984375 0.0)" xlink:href="#Cmmi10-74"/>
      <use transform="translate(131.982421875 0.0)" xlink:href="#Cmr10-29"/>
     </g>
    </g>
    <g id="line2d_58">
     <path d="M 493.826642 37.67625 
L 487.226642 37.67625 
" style="fill:none;stroke:#ff0000;stroke-linecap:square;"/>
    </g>
    <g id="line2d_59"/>
    <g id="text_11">
     <!-- $dx/dt$ -->
     <defs>
      <path d="M 5.609375 -23 
Q 5.609375 -22.703125 5.71875 -22.609375 
L 40.484375 73.78125 
Q 40.671875 74.359375 41.15625 74.671875 
Q 41.65625 75 42.28125 75 
Q 43.171875 75 43.71875 74.453125 
Q 44.28125 73.921875 44.28125 73 
L 44.28125 72.609375 
L 9.515625 -23.78125 
Q 8.9375 -25 7.625 -25 
Q 6.78125 -25 6.1875 -24.40625 
Q 5.609375 -23.828125 5.609375 -23 
" id="Cmmi10-3d"/>
      <path d="M 17.390625 -1.125 
Q 11.078125 -1.125 7.4375 3.640625 
Q 3.8125 8.40625 3.8125 14.890625 
Q 3.8125 21.296875 7.125 28.171875 
Q 10.453125 35.0625 16.09375 39.625 
Q 21.734375 44.1875 28.21875 44.1875 
Q 31.15625 44.1875 33.515625 42.546875 
Q 35.890625 40.921875 37.203125 38.1875 
L 42.828125 60.5 
Q 43.21875 62.203125 43.3125 63.1875 
Q 43.3125 64.796875 36.8125 64.796875 
Q 35.796875 64.796875 35.796875 66.109375 
Q 35.84375 66.359375 36.015625 66.984375 
Q 36.1875 67.625 36.453125 67.96875 
Q 36.71875 68.3125 37.203125 68.3125 
L 50.6875 69.390625 
Q 51.90625 69.390625 51.90625 68.109375 
L 37.5 10.59375 
Q 36.8125 8.9375 36.8125 5.8125 
Q 36.8125 1.515625 39.703125 1.515625 
Q 42.828125 1.515625 44.453125 5.484375 
Q 46.09375 9.46875 47.21875 14.703125 
Q 47.40625 15.28125 48 15.28125 
L 49.21875 15.28125 
Q 49.609375 15.28125 49.84375 14.9375 
Q 50.09375 14.59375 50.09375 14.3125 
Q 48.34375 7.328125 46.265625 3.09375 
Q 44.1875 -1.125 39.5 -1.125 
Q 36.140625 -1.125 33.546875 0.84375 
Q 30.953125 2.828125 30.328125 6.109375 
Q 23.875 -1.125 17.390625 -1.125 
M 17.484375 1.515625 
Q 21.09375 1.515625 24.484375 4.21875 
Q 27.875 6.9375 30.328125 10.59375 
Q 30.421875 10.6875 30.421875 10.984375 
L 35.890625 33.015625 
Q 35.296875 36.53125 33.296875 39.0625 
Q 31.296875 41.609375 27.984375 41.609375 
Q 24.609375 41.609375 21.703125 38.84375 
Q 18.796875 36.078125 16.796875 32.328125 
Q 14.84375 28.328125 13.0625 21.34375 
Q 11.28125 14.359375 11.28125 10.5 
Q 11.28125 7.03125 12.765625 4.265625 
Q 14.265625 1.515625 17.484375 1.515625 
" id="Cmmi10-64"/>
     </defs>
     <g transform="translate(496.826642012 41.87625)scale(0.12 -0.12)">
      <use xlink:href="#Cmmi10-64"/>
      <use transform="translate(52.001953125 0.0)" xlink:href="#Cmmi10-78"/>
      <use transform="translate(109.08203125 0.0)" xlink:href="#Cmmi10-3d"/>
      <use transform="translate(159.08203125 0.0)" xlink:href="#Cmmi10-64"/>
      <use transform="translate(211.083984375 0.0)" xlink:href="#Cmmi10-74"/>
     </g>
    </g>
   </g>
  </g>
 </g>
 <defs>
  <clipPath id="p3fa20e57ef">
   <rect height="406.08" width="526.752115385" x="13.0345266272" y="7.2"/>
  </clipPath>
 </defs>
</svg>
