<?xml version="1.0" encoding="utf-8" standalone="no"?>
<!DOCTYPE svg PUBLIC "-//W3C//DTD SVG 1.1//EN"
  "http://www.w3.org/Graphics/SVG/1.1/DTD/svg11.dtd">
<svg xmlns:xlink="http://www.w3.org/1999/xlink" width="368.805285pt" height="347.068438pt" viewBox="0 0 368.805285 347.068438" xmlns="http://www.w3.org/2000/svg" version="1.1">
 <metadata>
  <rdf:RDF xmlns:dc="http://purl.org/dc/elements/1.1/" xmlns:cc="http://creativecommons.org/ns#" xmlns:rdf="http://www.w3.org/1999/02/22-rdf-syntax-ns#">
   <cc:Work>
    <dc:type rdf:resource="http://purl.org/dc/dcmitype/StillImage"/>
    <dc:date>2022-06-16T22:05:20.838146</dc:date>
    <dc:format>image/svg+xml</dc:format>
    <dc:creator>
     <cc:Agent>
      <dc:title>Matplotlib v3.5.1, https://matplotlib.org/</dc:title>
     </cc:Agent>
    </dc:creator>
   </cc:Work>
  </rdf:RDF>
 </metadata>
 <defs>
  <style type="text/css">*{stroke-linejoin: round; stroke-linecap: butt}</style>
 </defs>
 <g id="figure_1">
  <g id="patch_1">
   <path d="M 0 347.068438 
L 368.805285 347.068438 
L 368.805285 0 
L 0 0 
z
" style="fill: #ffffff"/>
  </g>
  <g id="axes_1">
   <g id="patch_2">
    <path d="M 7.2 339.868438 
L 342.585285 339.868438 
L 342.585285 33.588437 
L 7.2 33.588437 
z
" style="fill: #ffffff"/>
   </g>
   <g id="matplotlib.axis_1">
    <g id="xtick_1">
     <g id="line2d_1">
      <defs>
       <path id="mfccc744991" d="M 0 0 
L 0 3.5 
" style="stroke: #000000; stroke-width: 0.8"/>
      </defs>
      <g>
       <use xlink:href="#mfccc744991" x="22.385398" y="139.277129" style="stroke: #000000; stroke-width: 0.8"/>
      </g>
     </g>
     <g id="text_1">
      <!-- −1.0 -->
      <g transform="translate(7.815711 155.395254)scale(0.12 -0.12)">
       <defs>
        <path id="DejaVuSans-2212" d="M 678 2272 
L 4684 2272 
L 4684 1741 
L 678 1741 
L 678 2272 
z
" transform="scale(0.015625)"/>
        <path id="DejaVuSans-31" d="M 794 531 
L 1825 531 
L 1825 4091 
L 703 3866 
L 703 4441 
L 1819 4666 
L 2450 4666 
L 2450 531 
L 3481 531 
L 3481 0 
L 794 0 
L 794 531 
z
" transform="scale(0.015625)"/>
        <path id="DejaVuSans-2e" d="M 684 794 
L 1344 794 
L 1344 0 
L 684 0 
L 684 794 
z
" transform="scale(0.015625)"/>
        <path id="DejaVuSans-30" d="M 2034 4250 
Q 1547 4250 1301 3770 
Q 1056 3291 1056 2328 
Q 1056 1369 1301 889 
Q 1547 409 2034 409 
Q 2525 409 2770 889 
Q 3016 1369 3016 2328 
Q 3016 3291 2770 3770 
Q 2525 4250 2034 4250 
z
M 2034 4750 
Q 2819 4750 3233 4129 
Q 3647 3509 3647 2328 
Q 3647 1150 3233 529 
Q 2819 -91 2034 -91 
Q 1250 -91 836 529 
Q 422 1150 422 2328 
Q 422 3509 836 4129 
Q 1250 4750 2034 4750 
z
" transform="scale(0.015625)"/>
       </defs>
       <use xlink:href="#DejaVuSans-2212"/>
       <use xlink:href="#DejaVuSans-31" x="83.789062"/>
       <use xlink:href="#DejaVuSans-2e" x="147.412109"/>
       <use xlink:href="#DejaVuSans-30" x="179.199219"/>
      </g>
     </g>
    </g>
    <g id="xtick_2">
     <g id="line2d_2">
      <g>
       <use xlink:href="#mfccc744991" x="73.757248" y="139.277129" style="stroke: #000000; stroke-width: 0.8"/>
      </g>
     </g>
     <g id="text_2">
      <!-- −0.5 -->
      <g transform="translate(59.187561 155.395254)scale(0.12 -0.12)">
       <defs>
        <path id="DejaVuSans-35" d="M 691 4666 
L 3169 4666 
L 3169 4134 
L 1269 4134 
L 1269 2991 
Q 1406 3038 1543 3061 
Q 1681 3084 1819 3084 
Q 2600 3084 3056 2656 
Q 3513 2228 3513 1497 
Q 3513 744 3044 326 
Q 2575 -91 1722 -91 
Q 1428 -91 1123 -41 
Q 819 9 494 109 
L 494 744 
Q 775 591 1075 516 
Q 1375 441 1709 441 
Q 2250 441 2565 725 
Q 2881 1009 2881 1497 
Q 2881 1984 2565 2268 
Q 2250 2553 1709 2553 
Q 1456 2553 1204 2497 
Q 953 2441 691 2322 
L 691 4666 
z
" transform="scale(0.015625)"/>
       </defs>
       <use xlink:href="#DejaVuSans-2212"/>
       <use xlink:href="#DejaVuSans-30" x="83.789062"/>
       <use xlink:href="#DejaVuSans-2e" x="147.412109"/>
       <use xlink:href="#DejaVuSans-35" x="179.199219"/>
      </g>
     </g>
    </g>
    <g id="xtick_3">
     <g id="line2d_3">
      <g>
       <use xlink:href="#mfccc744991" x="125.129098" y="139.277129" style="stroke: #000000; stroke-width: 0.8"/>
      </g>
     </g>
    </g>
    <g id="xtick_4">
     <g id="line2d_4">
      <g>
       <use xlink:href="#mfccc744991" x="176.500948" y="139.277129" style="stroke: #000000; stroke-width: 0.8"/>
      </g>
     </g>
     <g id="text_3">
      <!-- 0.5 -->
      <g transform="translate(166.959073 155.395254)scale(0.12 -0.12)">
       <use xlink:href="#DejaVuSans-30"/>
       <use xlink:href="#DejaVuSans-2e" x="63.623047"/>
       <use xlink:href="#DejaVuSans-35" x="95.410156"/>
      </g>
     </g>
    </g>
    <g id="xtick_5">
     <g id="line2d_5">
      <g>
       <use xlink:href="#mfccc744991" x="227.872798" y="139.277129" style="stroke: #000000; stroke-width: 0.8"/>
      </g>
     </g>
     <g id="text_4">
      <!-- 1.0 -->
      <g transform="translate(218.330923 155.395254)scale(0.12 -0.12)">
       <use xlink:href="#DejaVuSans-31"/>
       <use xlink:href="#DejaVuSans-2e" x="63.623047"/>
       <use xlink:href="#DejaVuSans-30" x="95.410156"/>
      </g>
     </g>
    </g>
    <g id="xtick_6">
     <g id="line2d_6">
      <g>
       <use xlink:href="#mfccc744991" x="279.244648" y="139.277129" style="stroke: #000000; stroke-width: 0.8"/>
      </g>
     </g>
     <g id="text_5">
      <!-- 1.5 -->
      <g transform="translate(269.702773 155.395254)scale(0.12 -0.12)">
       <use xlink:href="#DejaVuSans-31"/>
       <use xlink:href="#DejaVuSans-2e" x="63.623047"/>
       <use xlink:href="#DejaVuSans-35" x="95.410156"/>
      </g>
     </g>
    </g>
    <g id="xtick_7">
     <g id="line2d_7">
      <g>
       <use xlink:href="#mfccc744991" x="330.616498" y="139.277129" style="stroke: #000000; stroke-width: 0.8"/>
      </g>
     </g>
     <g id="text_6">
      <!-- 2.0 -->
      <g transform="translate(321.074623 155.395254)scale(0.12 -0.12)">
       <defs>
        <path id="DejaVuSans-32" d="M 1228 531 
L 3431 531 
L 3431 0 
L 469 0 
L 469 531 
Q 828 903 1448 1529 
Q 2069 2156 2228 2338 
Q 2531 2678 2651 2914 
Q 2772 3150 2772 3378 
Q 2772 3750 2511 3984 
Q 2250 4219 1831 4219 
Q 1534 4219 1204 4116 
Q 875 4013 500 3803 
L 500 4441 
Q 881 4594 1212 4672 
Q 1544 4750 1819 4750 
Q 2544 4750 2975 4387 
Q 3406 4025 3406 3419 
Q 3406 3131 3298 2873 
Q 3191 2616 2906 2266 
Q 2828 2175 2409 1742 
Q 1991 1309 1228 531 
z
" transform="scale(0.015625)"/>
       </defs>
       <use xlink:href="#DejaVuSans-32"/>
       <use xlink:href="#DejaVuSans-2e" x="63.623047"/>
       <use xlink:href="#DejaVuSans-30" x="95.410156"/>
      </g>
     </g>
    </g>
    <g id="xtick_8">
     <g id="line2d_8">
      <defs>
       <path id="m5ed30960d7" d="M 0 0 
L 0 2 
" style="stroke: #000000; stroke-width: 0.6"/>
      </defs>
      <g>
       <use xlink:href="#m5ed30960d7" x="12.111028" y="139.277129" style="stroke: #000000; stroke-width: 0.6"/>
      </g>
     </g>
    </g>
    <g id="xtick_9">
     <g id="line2d_9">
      <g>
       <use xlink:href="#m5ed30960d7" x="32.659768" y="139.277129" style="stroke: #000000; stroke-width: 0.6"/>
      </g>
     </g>
    </g>
    <g id="xtick_10">
     <g id="line2d_10">
      <g>
       <use xlink:href="#m5ed30960d7" x="42.934138" y="139.277129" style="stroke: #000000; stroke-width: 0.6"/>
      </g>
     </g>
    </g>
    <g id="xtick_11">
     <g id="line2d_11">
      <g>
       <use xlink:href="#m5ed30960d7" x="53.208508" y="139.277129" style="stroke: #000000; stroke-width: 0.6"/>
      </g>
     </g>
    </g>
    <g id="xtick_12">
     <g id="line2d_12">
      <g>
       <use xlink:href="#m5ed30960d7" x="63.482878" y="139.277129" style="stroke: #000000; stroke-width: 0.6"/>
      </g>
     </g>
    </g>
    <g id="xtick_13">
     <g id="line2d_13">
      <g>
       <use xlink:href="#m5ed30960d7" x="84.031618" y="139.277129" style="stroke: #000000; stroke-width: 0.6"/>
      </g>
     </g>
    </g>
    <g id="xtick_14">
     <g id="line2d_14">
      <g>
       <use xlink:href="#m5ed30960d7" x="94.305988" y="139.277129" style="stroke: #000000; stroke-width: 0.6"/>
      </g>
     </g>
    </g>
    <g id="xtick_15">
     <g id="line2d_15">
      <g>
       <use xlink:href="#m5ed30960d7" x="104.580358" y="139.277129" style="stroke: #000000; stroke-width: 0.6"/>
      </g>
     </g>
    </g>
    <g id="xtick_16">
     <g id="line2d_16">
      <g>
       <use xlink:href="#m5ed30960d7" x="114.854728" y="139.277129" style="stroke: #000000; stroke-width: 0.6"/>
      </g>
     </g>
    </g>
    <g id="xtick_17">
     <g id="line2d_17">
      <g>
       <use xlink:href="#m5ed30960d7" x="135.403468" y="139.277129" style="stroke: #000000; stroke-width: 0.6"/>
      </g>
     </g>
    </g>
    <g id="xtick_18">
     <g id="line2d_18">
      <g>
       <use xlink:href="#m5ed30960d7" x="145.677838" y="139.277129" style="stroke: #000000; stroke-width: 0.6"/>
      </g>
     </g>
    </g>
    <g id="xtick_19">
     <g id="line2d_19">
      <g>
       <use xlink:href="#m5ed30960d7" x="155.952208" y="139.277129" style="stroke: #000000; stroke-width: 0.6"/>
      </g>
     </g>
    </g>
    <g id="xtick_20">
     <g id="line2d_20">
      <g>
       <use xlink:href="#m5ed30960d7" x="166.226578" y="139.277129" style="stroke: #000000; stroke-width: 0.6"/>
      </g>
     </g>
    </g>
    <g id="xtick_21">
     <g id="line2d_21">
      <g>
       <use xlink:href="#m5ed30960d7" x="186.775318" y="139.277129" style="stroke: #000000; stroke-width: 0.6"/>
      </g>
     </g>
    </g>
    <g id="xtick_22">
     <g id="line2d_22">
      <g>
       <use xlink:href="#m5ed30960d7" x="197.049688" y="139.277129" style="stroke: #000000; stroke-width: 0.6"/>
      </g>
     </g>
    </g>
    <g id="xtick_23">
     <g id="line2d_23">
      <g>
       <use xlink:href="#m5ed30960d7" x="207.324058" y="139.277129" style="stroke: #000000; stroke-width: 0.6"/>
      </g>
     </g>
    </g>
    <g id="xtick_24">
     <g id="line2d_24">
      <g>
       <use xlink:href="#m5ed30960d7" x="217.598428" y="139.277129" style="stroke: #000000; stroke-width: 0.6"/>
      </g>
     </g>
    </g>
    <g id="xtick_25">
     <g id="line2d_25">
      <g>
       <use xlink:href="#m5ed30960d7" x="238.147168" y="139.277129" style="stroke: #000000; stroke-width: 0.6"/>
      </g>
     </g>
    </g>
    <g id="xtick_26">
     <g id="line2d_26">
      <g>
       <use xlink:href="#m5ed30960d7" x="248.421538" y="139.277129" style="stroke: #000000; stroke-width: 0.6"/>
      </g>
     </g>
    </g>
    <g id="xtick_27">
     <g id="line2d_27">
      <g>
       <use xlink:href="#m5ed30960d7" x="258.695908" y="139.277129" style="stroke: #000000; stroke-width: 0.6"/>
      </g>
     </g>
    </g>
    <g id="xtick_28">
     <g id="line2d_28">
      <g>
       <use xlink:href="#m5ed30960d7" x="268.970278" y="139.277129" style="stroke: #000000; stroke-width: 0.6"/>
      </g>
     </g>
    </g>
    <g id="xtick_29">
     <g id="line2d_29">
      <g>
       <use xlink:href="#m5ed30960d7" x="289.519018" y="139.277129" style="stroke: #000000; stroke-width: 0.6"/>
      </g>
     </g>
    </g>
    <g id="xtick_30">
     <g id="line2d_30">
      <g>
       <use xlink:href="#m5ed30960d7" x="299.793388" y="139.277129" style="stroke: #000000; stroke-width: 0.6"/>
      </g>
     </g>
    </g>
    <g id="xtick_31">
     <g id="line2d_31">
      <g>
       <use xlink:href="#m5ed30960d7" x="310.067758" y="139.277129" style="stroke: #000000; stroke-width: 0.6"/>
      </g>
     </g>
    </g>
    <g id="xtick_32">
     <g id="line2d_32">
      <g>
       <use xlink:href="#m5ed30960d7" x="320.342128" y="139.277129" style="stroke: #000000; stroke-width: 0.6"/>
      </g>
     </g>
    </g>
    <g id="xtick_33">
     <g id="line2d_33">
      <g>
       <use xlink:href="#m5ed30960d7" x="340.890868" y="139.277129" style="stroke: #000000; stroke-width: 0.6"/>
      </g>
     </g>
    </g>
    <g id="text_7">
     <!-- $x$ -->
     <g transform="translate(350.585285 139.277129)scale(0.19 -0.19)">
      <defs>
       <path id="Cmmi10-78" d="M 500 184 
Q 613 97 819 97 
Q 1019 97 1172 289 
Q 1325 481 1381 709 
L 1672 1844 
Q 1741 2153 1741 2266 
Q 1741 2425 1652 2544 
Q 1563 2663 1403 2663 
Q 1200 2663 1022 2536 
Q 844 2409 722 2214 
Q 600 2019 550 1819 
Q 538 1778 500 1778 
L 422 1778 
Q 372 1778 372 1838 
L 372 1856 
Q 434 2094 584 2320 
Q 734 2547 951 2687 
Q 1169 2828 1416 2828 
Q 1650 2828 1839 2703 
Q 2028 2578 2106 2363 
Q 2216 2559 2386 2693 
Q 2556 2828 2759 2828 
Q 2897 2828 3040 2779 
Q 3184 2731 3275 2631 
Q 3366 2531 3366 2381 
Q 3366 2219 3261 2101 
Q 3156 1984 2994 1984 
Q 2891 1984 2822 2050 
Q 2753 2116 2753 2216 
Q 2753 2350 2845 2451 
Q 2938 2553 3066 2572 
Q 2950 2663 2747 2663 
Q 2541 2663 2389 2472 
Q 2238 2281 2175 2047 
L 1894 916 
Q 1825 659 1825 494 
Q 1825 331 1917 214 
Q 2009 97 2163 97 
Q 2463 97 2698 361 
Q 2934 625 3009 941 
Q 3022 978 3059 978 
L 3138 978 
Q 3163 978 3178 961 
Q 3194 944 3194 922 
Q 3194 916 3188 903 
Q 3097 522 2806 225 
Q 2516 -72 2150 -72 
Q 1916 -72 1727 54 
Q 1538 181 1459 397 
Q 1359 209 1182 68 
Q 1006 -72 806 -72 
Q 669 -72 523 -23 
Q 378 25 287 125 
Q 197 225 197 378 
Q 197 528 301 651 
Q 406 775 563 775 
Q 669 775 741 711 
Q 813 647 813 544 
Q 813 409 723 309 
Q 634 209 500 184 
z
" transform="scale(0.015625)"/>
      </defs>
      <use xlink:href="#Cmmi10-78" transform="translate(0 0.8125)"/>
     </g>
    </g>
   </g>
   <g id="matplotlib.axis_2">
    <g id="ytick_1">
     <g id="line2d_34">
      <defs>
       <path id="m8ad864454e" d="M 0 0 
L -3.5 0 
" style="stroke: #000000; stroke-width: 0.8"/>
      </defs>
      <g>
       <use xlink:href="#m8ad864454e" x="125.129098" y="324.215789" style="stroke: #000000; stroke-width: 0.8"/>
      </g>
     </g>
     <g id="text_8">
      <!-- −6 -->
      <g transform="translate(100.438473 328.774851)scale(0.12 -0.12)">
       <defs>
        <path id="DejaVuSans-36" d="M 2113 2584 
Q 1688 2584 1439 2293 
Q 1191 2003 1191 1497 
Q 1191 994 1439 701 
Q 1688 409 2113 409 
Q 2538 409 2786 701 
Q 3034 994 3034 1497 
Q 3034 2003 2786 2293 
Q 2538 2584 2113 2584 
z
M 3366 4563 
L 3366 3988 
Q 3128 4100 2886 4159 
Q 2644 4219 2406 4219 
Q 1781 4219 1451 3797 
Q 1122 3375 1075 2522 
Q 1259 2794 1537 2939 
Q 1816 3084 2150 3084 
Q 2853 3084 3261 2657 
Q 3669 2231 3669 1497 
Q 3669 778 3244 343 
Q 2819 -91 2113 -91 
Q 1303 -91 875 529 
Q 447 1150 447 2328 
Q 447 3434 972 4092 
Q 1497 4750 2381 4750 
Q 2619 4750 2861 4703 
Q 3103 4656 3366 4563 
z
" transform="scale(0.015625)"/>
       </defs>
       <use xlink:href="#DejaVuSans-2212"/>
       <use xlink:href="#DejaVuSans-36" x="83.789062"/>
      </g>
     </g>
    </g>
    <g id="ytick_2">
     <g id="line2d_35">
      <g>
       <use xlink:href="#m8ad864454e" x="125.129098" y="262.569569" style="stroke: #000000; stroke-width: 0.8"/>
      </g>
     </g>
     <g id="text_9">
      <!-- −4 -->
      <g transform="translate(100.438473 267.128631)scale(0.12 -0.12)">
       <defs>
        <path id="DejaVuSans-34" d="M 2419 4116 
L 825 1625 
L 2419 1625 
L 2419 4116 
z
M 2253 4666 
L 3047 4666 
L 3047 1625 
L 3713 1625 
L 3713 1100 
L 3047 1100 
L 3047 0 
L 2419 0 
L 2419 1100 
L 313 1100 
L 313 1709 
L 2253 4666 
z
" transform="scale(0.015625)"/>
       </defs>
       <use xlink:href="#DejaVuSans-2212"/>
       <use xlink:href="#DejaVuSans-34" x="83.789062"/>
      </g>
     </g>
    </g>
    <g id="ytick_3">
     <g id="line2d_36">
      <g>
       <use xlink:href="#m8ad864454e" x="125.129098" y="200.923349" style="stroke: #000000; stroke-width: 0.8"/>
      </g>
     </g>
     <g id="text_10">
      <!-- −2 -->
      <g transform="translate(100.438473 205.482411)scale(0.12 -0.12)">
       <use xlink:href="#DejaVuSans-2212"/>
       <use xlink:href="#DejaVuSans-32" x="83.789062"/>
      </g>
     </g>
    </g>
    <g id="ytick_4">
     <g id="line2d_37">
      <g>
       <use xlink:href="#m8ad864454e" x="125.129098" y="139.277129" style="stroke: #000000; stroke-width: 0.8"/>
      </g>
     </g>
    </g>
    <g id="ytick_5">
     <g id="line2d_38">
      <g>
       <use xlink:href="#m8ad864454e" x="125.129098" y="77.630909" style="stroke: #000000; stroke-width: 0.8"/>
      </g>
     </g>
     <g id="text_11">
      <!-- 2 -->
      <g transform="translate(110.494098 82.189972)scale(0.12 -0.12)">
       <use xlink:href="#DejaVuSans-32"/>
      </g>
     </g>
    </g>
    <g id="ytick_6">
     <g id="line2d_39">
      <defs>
       <path id="m4748fe57b1" d="M 0 0 
L -2 0 
" style="stroke: #000000; stroke-width: 0.6"/>
      </defs>
      <g>
       <use xlink:href="#m4748fe57b1" x="125.129098" y="339.627344" style="stroke: #000000; stroke-width: 0.6"/>
      </g>
     </g>
    </g>
    <g id="ytick_7">
     <g id="line2d_40">
      <g>
       <use xlink:href="#m4748fe57b1" x="125.129098" y="308.804234" style="stroke: #000000; stroke-width: 0.6"/>
      </g>
     </g>
    </g>
    <g id="ytick_8">
     <g id="line2d_41">
      <g>
       <use xlink:href="#m4748fe57b1" x="125.129098" y="293.392679" style="stroke: #000000; stroke-width: 0.6"/>
      </g>
     </g>
    </g>
    <g id="ytick_9">
     <g id="line2d_42">
      <g>
       <use xlink:href="#m4748fe57b1" x="125.129098" y="277.981124" style="stroke: #000000; stroke-width: 0.6"/>
      </g>
     </g>
    </g>
    <g id="ytick_10">
     <g id="line2d_43">
      <g>
       <use xlink:href="#m4748fe57b1" x="125.129098" y="247.158014" style="stroke: #000000; stroke-width: 0.6"/>
      </g>
     </g>
    </g>
    <g id="ytick_11">
     <g id="line2d_44">
      <g>
       <use xlink:href="#m4748fe57b1" x="125.129098" y="231.746459" style="stroke: #000000; stroke-width: 0.6"/>
      </g>
     </g>
    </g>
    <g id="ytick_12">
     <g id="line2d_45">
      <g>
       <use xlink:href="#m4748fe57b1" x="125.129098" y="216.334904" style="stroke: #000000; stroke-width: 0.6"/>
      </g>
     </g>
    </g>
    <g id="ytick_13">
     <g id="line2d_46">
      <g>
       <use xlink:href="#m4748fe57b1" x="125.129098" y="185.511794" style="stroke: #000000; stroke-width: 0.6"/>
      </g>
     </g>
    </g>
    <g id="ytick_14">
     <g id="line2d_47">
      <g>
       <use xlink:href="#m4748fe57b1" x="125.129098" y="170.100239" style="stroke: #000000; stroke-width: 0.6"/>
      </g>
     </g>
    </g>
    <g id="ytick_15">
     <g id="line2d_48">
      <g>
       <use xlink:href="#m4748fe57b1" x="125.129098" y="154.688684" style="stroke: #000000; stroke-width: 0.6"/>
      </g>
     </g>
    </g>
    <g id="ytick_16">
     <g id="line2d_49">
      <g>
       <use xlink:href="#m4748fe57b1" x="125.129098" y="123.865574" style="stroke: #000000; stroke-width: 0.6"/>
      </g>
     </g>
    </g>
    <g id="ytick_17">
     <g id="line2d_50">
      <g>
       <use xlink:href="#m4748fe57b1" x="125.129098" y="108.454019" style="stroke: #000000; stroke-width: 0.6"/>
      </g>
     </g>
    </g>
    <g id="ytick_18">
     <g id="line2d_51">
      <g>
       <use xlink:href="#m4748fe57b1" x="125.129098" y="93.042464" style="stroke: #000000; stroke-width: 0.6"/>
      </g>
     </g>
    </g>
    <g id="ytick_19">
     <g id="line2d_52">
      <g>
       <use xlink:href="#m4748fe57b1" x="125.129098" y="62.219354" style="stroke: #000000; stroke-width: 0.6"/>
      </g>
     </g>
    </g>
    <g id="ytick_20">
     <g id="line2d_53">
      <g>
       <use xlink:href="#m4748fe57b1" x="125.129098" y="46.807799" style="stroke: #000000; stroke-width: 0.6"/>
      </g>
     </g>
    </g>
    <g id="text_12">
     <!-- $y$ -->
     <g transform="translate(120.379098 21.598437)scale(0.19 -0.19)">
      <defs>
       <path id="Cmmi10-79" d="M 538 -916 
Q 672 -1147 1006 -1147 
Q 1309 -1147 1531 -934 
Q 1753 -722 1889 -420 
Q 2025 -119 2100 197 
Q 1816 -72 1484 -72 
Q 1231 -72 1053 15 
Q 875 103 776 276 
Q 678 450 678 697 
Q 678 906 734 1126 
Q 791 1347 892 1617 
Q 994 1888 1069 2088 
Q 1153 2322 1153 2472 
Q 1153 2663 1013 2663 
Q 759 2663 595 2402 
Q 431 2141 353 1819 
Q 341 1778 300 1778 
L 225 1778 
Q 172 1778 172 1838 
L 172 1856 
Q 275 2238 487 2533 
Q 700 2828 1025 2828 
Q 1253 2828 1411 2678 
Q 1569 2528 1569 2297 
Q 1569 2178 1516 2047 
Q 1488 1969 1388 1706 
Q 1288 1444 1234 1272 
Q 1181 1100 1147 934 
Q 1113 769 1113 603 
Q 1113 391 1203 244 
Q 1294 97 1491 97 
Q 1888 97 2203 581 
L 2688 2553 
Q 2709 2638 2787 2698 
Q 2866 2759 2956 2759 
Q 3034 2759 3092 2709 
Q 3150 2659 3150 2578 
Q 3150 2541 3144 2528 
L 2509 -19 
Q 2425 -347 2200 -647 
Q 1975 -947 1658 -1130 
Q 1341 -1313 997 -1313 
Q 831 -1313 668 -1248 
Q 506 -1184 406 -1056 
Q 306 -928 306 -756 
Q 306 -581 409 -453 
Q 513 -325 684 -325 
Q 788 -325 858 -389 
Q 928 -453 928 -556 
Q 928 -703 818 -812 
Q 709 -922 563 -922 
Q 556 -919 550 -917 
Q 544 -916 538 -916 
z
" transform="scale(0.015625)"/>
      </defs>
      <use xlink:href="#Cmmi10-79" transform="translate(0 0.8125)"/>
     </g>
    </g>
   </g>
   <g id="line2d_54">
    <path d="M 330.616498 77.630909 
L 332.067331 86.509894 
L 333.293855 95.316942 
L 334.297992 104.044529 
L 335.081851 112.685317 
L 335.647723 121.232157 
L 335.99808 129.678095 
L 336.135568 138.016376 
L 336.063 146.240445 
L 335.725113 155.521988 
L 335.1197 164.635783 
L 334.251771 173.572959 
L 333.126585 182.325018 
L 331.78855 190.664033 
L 330.216965 198.812552 
L 328.417324 206.763759 
L 326.39531 214.511183 
L 324.156783 222.048703 
L 321.707772 229.370549 
L 319.054463 236.471304 
L 316.203193 243.345901 
L 313.622972 249.020262 
L 310.907865 254.524366 
L 308.062011 259.855687 
L 305.08961 265.011884 
L 301.994912 269.990803 
L 298.782221 274.790471 
L 295.455884 279.4091 
L 292.02029 283.845083 
L 286.255316 290.616699 
L 280.235983 296.903748 
L 273.981245 302.702426 
L 267.510181 308.010111 
L 261.230494 312.56175 
L 254.791736 316.675664 
L 248.209969 320.352445 
L 241.501217 323.593552 
L 231.548162 327.535407 
L 221.408853 330.570505 
L 200.762958 333.978438 
L 168.726941 332.601462 
L 159.254817 330.7213 
L 149.890959 328.206565 
L 139.087757 324.483641 
L 128.522578 319.967928 
L 117.561571 314.327957 
L 106.972622 307.898165 
L 101.832432 304.406336 
L 96.802492 300.740406 
L 91.88804 296.908402 
L 87.094066 292.918441 
L 78.986183 285.559128 
L 75.084323 281.72049 
L 71.287552 277.783378 
L 67.197275 273.302415 
L 63.243113 268.714753 
L 59.428154 264.028174 
L 55.755248 259.250459 
L 49.927961 251.064199 
L 47.169981 246.894717 
L 44.517393 242.680369 
L 39.532568 234.135044 
L 34.980709 225.463873 
L 32.286689 219.841484 
L 29.774814 214.190815 
L 27.445851 208.520922 
L 25.300277 202.840722 
L 23.338284 197.158989 
L 21.559781 191.484337 
L 19.964401 185.825212 
L 18.551511 180.189883 
L 17.430281 175.121397 
L 16.456685 170.084817 
L 15.659962 165.28487 
L 14.99733 160.524509 
L 14.46761 155.808535 
L 14.069491 151.141621 
L 13.801533 146.52831 
L 13.662171 141.973012 
L 13.649717 137.479998 
L 13.762366 133.053405 
L 14.172513 126.417503 
L 14.863692 119.960086 
L 15.631262 114.827036 
L 16.576449 109.82825 
L 17.694437 104.969953 
L 18.980197 100.258001 
L 20.428501 95.697872 
L 22.033937 91.294667 
L 23.790918 87.053109 
L 25.6937 82.977538 
L 28.1636 78.307253 
L 30.824888 73.888277 
L 33.056151 70.577747 
L 35.394869 67.429795 
L 40.372834 61.629312 
L 45.714557 56.499231 
L 51.375141 52.04728 
L 59.075453 47.31026 
L 67.133888 43.702851 
L 77.715987 40.727698 
L 93.560672 39.478437 
L 103.059373 40.400137 
L 112.413829 42.485024 
L 120.258966 45.142088 
L 127.85523 48.535536 
L 132.897854 51.259565 
L 137.778399 54.279115 
L 142.480825 57.571911 
L 148.482058 62.377037 
L 152.757088 66.263126 
L 156.804715 70.349272 
L 160.614225 74.611179 
L 164.17629 79.024576 
L 167.212552 83.175797 
L 170.029807 87.415342 
L 172.623921 91.725111 
L 174.991694 96.087303 
L 177.351706 100.968621 
L 179.428347 105.869771 
L 181.627393 111.99714 
L 183.383788 118.07792 
L 184.363181 122.337637 
L 185.125164 126.54007 
L 185.673014 130.672235 
L 186.010661 134.72181 
L 186.144694 139.054304 
L 186.038168 143.259092 
L 185.698659 147.322845 
L 185.134464 151.233302 
L 184.483064 154.43626 
L 183.680883 157.513482 
L 182.734097 160.459265 
L 181.649141 163.26849 
L 180.37668 166.049836 
L 178.668874 169.183017 
L 176.779426 172.081264 
L 174.722647 174.739478 
L 172.513109 177.153926 
L 169.004208 180.267284 
L 165.242522 182.842073 
L 160.459037 185.226997 
L 155.461546 186.856041 
L 151.068646 187.670091 
L 145.98435 187.971879 
L 136.796817 186.930597 
L 130.240825 184.989931 
L 124.018064 182.200034 
L 120.495824 180.180041 
L 116.722883 177.623523 
L 113.205054 174.826137 
L 110.550549 172.40858 
L 108.087079 169.88599 
L 105.904635 167.382387 
L 103.910458 164.823405 
L 102.368248 162.622647 
L 100.965381 160.407445 
L 99.702421 158.188744 
L 98.579256 155.976974 
L 97.481859 153.509351 
L 95.924387 149.099468 
L 95.405214 147.161058 
L 94.880465 144.605071 
L 94.555305 142.143567 
L 94.419223 138.938902 
L 94.656528 135.690561 
L 95.264583 132.736743 
L 96.168093 130.183579 
L 97.398351 127.849818 
L 98.888251 125.841304 
L 100.465907 124.26883 
L 102.595956 122.719559 
L 105.057137 121.490487 
L 107.665137 120.661218 
L 110.698145 120.163026 
L 112.945649 120.057571 
L 117.577439 120.426591 
L 121.625913 121.308139 
L 125.686438 122.66717 
L 127.803606 123.562233 
L 130.872415 125.101722 
L 132.468527 126.02923 
L 134.585904 127.421656 
L 136.120524 128.575732 
L 137.665586 129.906102 
L 139.342274 131.640903 
L 140.292825 132.849094 
L 141.079043 134.072949 
L 141.96875 136.005843 
L 142.290648 137.116067 
L 142.536388 139.240289 
L 142.487629 140.249278 
L 142.236923 141.691341 
L 141.763248 143.160538 
L 140.856174 144.993965 
L 139.786807 146.557725 
L 138.971845 147.527671 
L 137.237081 149.207564 
L 135.415523 150.592933 
L 132.490071 152.264348 
L 129.062415 153.569858 
L 125.081018 154.352855 
L 123.556749 154.456176 
L 121.5403 154.423655 
L 118.312033 153.943752 
L 114.275985 152.461121 
L 112.169541 151.164135 
L 110.701668 149.952031 
L 109.405763 148.576343 
L 108.298128 147.049086 
L 107.634755 145.879632 
L 107.082079 144.649906 
L 106.652052 143.391227 
L 106.338017 142.090283 
L 106.149161 140.812406 
L 106.104626 138.257921 
L 106.404924 136.085675 
L 107.091339 133.722269 
L 108.009253 131.682305 
L 108.755042 130.406957 
L 109.614124 129.181548 
L 111.435095 127.125733 
L 112.95426 125.786291 
L 114.623517 124.592885 
L 118.736477 122.556489 
L 123.852619 121.371141 
L 126.378533 121.253842 
L 128.794718 121.421601 
L 133.342154 122.526244 
L 135.08324 123.25886 
L 136.846119 124.212091 
L 138.491394 125.332576 
L 139.735832 126.364332 
L 140.854269 127.464841 
L 142.245085 129.146269 
L 143.413696 130.970784 
L 144.323379 132.864068 
L 144.960869 134.726469 
L 145.446827 137.123387 
L 145.582097 139.565458 
L 145.484547 141.116018 
L 145.245238 142.656087 
L 144.920958 143.985403 
L 144.319501 145.732245 
L 143.53304 147.418995 
L 142.533233 149.082086 
L 141.158902 150.874056 
L 139.944704 152.152728 
L 138.608812 153.326792 
L 136.982035 154.505245 
L 135.232945 155.528085 
L 133.16081 156.471999 
L 128.594293 157.71762 
L 126.698434 157.940005 
L 123.953211 157.976692 
L 119.507789 157.315506 
L 117.273751 156.621219 
L 114.179162 155.188061 
L 111.962519 153.7445 
L 109.566658 151.638759 
L 108.373023 150.283745 
L 106.875869 148.116353 
L 105.406816 144.966895 
L 104.922542 143.342009 
L 104.601196 141.685134 
L 104.431156 139.036071 
L 104.609294 136.814637 
L 105.077724 134.629897 
L 106.044581 132.032024 
L 106.245517 131.614462 
L 107.500585 129.475037 
L 109.051146 127.502451 
L 111.001409 125.618917 
L 113.13644 124.051617 
L 114.3511 123.332489 
L 116.865916 122.161175 
L 119.534389 121.312369 
L 121.369301 120.9343 
L 125.577283 120.64361 
L 126.657968 120.694472 
L 131.283765 121.50752 
L 133.801893 122.393094 
L 136.484765 123.75065 
L 138.7444 125.313566 
L 140.31166 126.70055 
L 142.242096 128.914328 
L 143.560516 130.954857 
L 144.581635 133.127707 
L 145.222608 135.126616 
L 145.544662 136.700999 
L 145.74332 139.124643 
L 145.588963 141.549254 
L 145.296229 143.124064 
L 144.706112 145.090351 
L 143.880109 146.985591 
L 143.110666 148.348425 
L 142.219086 149.649112 
L 140.135919 151.990161 
L 137.989723 153.765782 
L 135.586329 155.250031 
L 134.109027 155.958713 
L 132.58396 156.552954 
L 128.402968 157.565156 
L 125.29899 157.793976 
L 122.897938 157.68081 
L 119.231623 157.006444 
L 116.676521 156.144209 
L 113.582179 154.582308 
L 111.959204 153.479549 
L 110.465152 152.238355 
L 109.439656 151.225592 
L 107.838064 149.275639 
L 106.348529 146.790736 
L 105.421641 144.527844 
L 104.686778 141.19715 
L 104.576206 139.143631 
L 104.719717 137.091993 
L 104.999383 135.542348 
L 105.424187 134.019732 
L 106.209748 132.052985 
L 107.114491 130.37648 
L 108.202286 128.79051 
L 110.710179 126.103003 
L 112.541637 124.663336 
L 114.549373 123.428423 
L 117.796392 122.00824 
L 120.201425 121.331294 
L 122.677169 120.924594 
L 125.054926 120.793179 
L 129.601951 121.237277 
L 132.616468 122.06556 
L 133.939593 122.580479 
L 136.082843 123.641166 
L 138.070781 124.923486 
L 139.437615 126.01536 
L 141.466543 128.07271 
L 142.426247 129.306781 
L 143.271086 130.607071 
L 143.271086 130.607071 
" clip-path="url(#p3806d48804)" style="fill: none; stroke: #0000ff; stroke-linecap: square"/>
   </g>
   <g id="patch_3">
    <path d="M 125.129098 339.868438 
L 125.129098 33.588437 
" style="fill: none; stroke: #000000; stroke-width: 0.8; stroke-linejoin: miter; stroke-linecap: square"/>
   </g>
   <g id="patch_4">
    <path d="M 7.2 139.277129 
L 342.585285 139.277129 
" style="fill: none; stroke: #000000; stroke-width: 0.8; stroke-linejoin: miter; stroke-linecap: square"/>
   </g>
  </g>
 </g>
 <defs>
  <clipPath id="p3806d48804">
   <rect x="7.2" y="33.588437" width="335.385285" height="306.28"/>
  </clipPath>
 </defs>
</svg>
