<?xml version="1.0" encoding="utf-8" standalone="no"?>
<!DOCTYPE svg PUBLIC "-//W3C//DTD SVG 1.1//EN"
  "http://www.w3.org/Graphics/SVG/1.1/DTD/svg11.dtd">
<svg xmlns:xlink="http://www.w3.org/1999/xlink" width="455.621487pt" height="338.4pt" viewBox="0 0 455.621487 338.4" xmlns="http://www.w3.org/2000/svg" version="1.1">
 <metadata>
  <rdf:RDF xmlns:dc="http://purl.org/dc/elements/1.1/" xmlns:cc="http://creativecommons.org/ns#" xmlns:rdf="http://www.w3.org/1999/02/22-rdf-syntax-ns#">
   <cc:Work>
    <dc:type rdf:resource="http://purl.org/dc/dcmitype/StillImage"/>
    <dc:date>2022-06-15T19:55:17.620860</dc:date>
    <dc:format>image/svg+xml</dc:format>
    <dc:creator>
     <cc:Agent>
      <dc:title>Matplotlib v3.5.1, https://matplotlib.org/</dc:title>
     </cc:Agent>
    </dc:creator>
   </cc:Work>
  </rdf:RDF>
 </metadata>
 <defs>
  <style type="text/css">*{stroke-linejoin: round; stroke-linecap: butt}</style>
 </defs>
 <g id="figure_1">
  <g id="patch_1">
   <path d="M 0 338.4 
L 455.621487 338.4 
L 455.621487 0 
L 0 0 
z
" style="fill: #ffffff"/>
  </g>
  <g id="axes_1">
   <g id="patch_2">
    <path d="M 35.691294 331.2 
L 433.391487 331.2 
L 433.391487 7.2 
L 35.691294 7.2 
z
" style="fill: #ffffff"/>
   </g>
   <g id="matplotlib.axis_1">
    <g id="xtick_1">
     <g id="line2d_1">
      <defs>
       <path id="m57bdb4fe9d" d="M 0 0 
L 0 3.5 
" style="stroke: #000000; stroke-width: 0.8"/>
      </defs>
      <g>
       <use xlink:href="#m57bdb4fe9d" x="43.339375" y="207.122101" style="stroke: #000000; stroke-width: 0.8"/>
      </g>
     </g>
    </g>
    <g id="xtick_2">
     <g id="line2d_2">
      <g>
       <use xlink:href="#m57bdb4fe9d" x="119.820181" y="207.122101" style="stroke: #000000; stroke-width: 0.8"/>
      </g>
     </g>
     <g id="text_1">
      <!-- 2 -->
      <g transform="translate(116.002681 223.240226)scale(0.12 -0.12)">
       <defs>
        <path id="DejaVuSans-32" d="M 1228 531 
L 3431 531 
L 3431 0 
L 469 0 
L 469 531 
Q 828 903 1448 1529 
Q 2069 2156 2228 2338 
Q 2531 2678 2651 2914 
Q 2772 3150 2772 3378 
Q 2772 3750 2511 3984 
Q 2250 4219 1831 4219 
Q 1534 4219 1204 4116 
Q 875 4013 500 3803 
L 500 4441 
Q 881 4594 1212 4672 
Q 1544 4750 1819 4750 
Q 2544 4750 2975 4387 
Q 3406 4025 3406 3419 
Q 3406 3131 3298 2873 
Q 3191 2616 2906 2266 
Q 2828 2175 2409 1742 
Q 1991 1309 1228 531 
z
" transform="scale(0.015625)"/>
       </defs>
       <use xlink:href="#DejaVuSans-32"/>
      </g>
     </g>
    </g>
    <g id="xtick_3">
     <g id="line2d_3">
      <g>
       <use xlink:href="#m57bdb4fe9d" x="196.300987" y="207.122101" style="stroke: #000000; stroke-width: 0.8"/>
      </g>
     </g>
     <g id="text_2">
      <!-- 4 -->
      <g transform="translate(192.483487 223.240226)scale(0.12 -0.12)">
       <defs>
        <path id="DejaVuSans-34" d="M 2419 4116 
L 825 1625 
L 2419 1625 
L 2419 4116 
z
M 2253 4666 
L 3047 4666 
L 3047 1625 
L 3713 1625 
L 3713 1100 
L 3047 1100 
L 3047 0 
L 2419 0 
L 2419 1100 
L 313 1100 
L 313 1709 
L 2253 4666 
z
" transform="scale(0.015625)"/>
       </defs>
       <use xlink:href="#DejaVuSans-34"/>
      </g>
     </g>
    </g>
    <g id="xtick_4">
     <g id="line2d_4">
      <g>
       <use xlink:href="#m57bdb4fe9d" x="272.781794" y="207.122101" style="stroke: #000000; stroke-width: 0.8"/>
      </g>
     </g>
     <g id="text_3">
      <!-- 6 -->
      <g transform="translate(268.964294 223.240226)scale(0.12 -0.12)">
       <defs>
        <path id="DejaVuSans-36" d="M 2113 2584 
Q 1688 2584 1439 2293 
Q 1191 2003 1191 1497 
Q 1191 994 1439 701 
Q 1688 409 2113 409 
Q 2538 409 2786 701 
Q 3034 994 3034 1497 
Q 3034 2003 2786 2293 
Q 2538 2584 2113 2584 
z
M 3366 4563 
L 3366 3988 
Q 3128 4100 2886 4159 
Q 2644 4219 2406 4219 
Q 1781 4219 1451 3797 
Q 1122 3375 1075 2522 
Q 1259 2794 1537 2939 
Q 1816 3084 2150 3084 
Q 2853 3084 3261 2657 
Q 3669 2231 3669 1497 
Q 3669 778 3244 343 
Q 2819 -91 2113 -91 
Q 1303 -91 875 529 
Q 447 1150 447 2328 
Q 447 3434 972 4092 
Q 1497 4750 2381 4750 
Q 2619 4750 2861 4703 
Q 3103 4656 3366 4563 
z
" transform="scale(0.015625)"/>
       </defs>
       <use xlink:href="#DejaVuSans-36"/>
      </g>
     </g>
    </g>
    <g id="xtick_5">
     <g id="line2d_5">
      <g>
       <use xlink:href="#m57bdb4fe9d" x="349.2626" y="207.122101" style="stroke: #000000; stroke-width: 0.8"/>
      </g>
     </g>
     <g id="text_4">
      <!-- 8 -->
      <g transform="translate(345.4451 223.240226)scale(0.12 -0.12)">
       <defs>
        <path id="DejaVuSans-38" d="M 2034 2216 
Q 1584 2216 1326 1975 
Q 1069 1734 1069 1313 
Q 1069 891 1326 650 
Q 1584 409 2034 409 
Q 2484 409 2743 651 
Q 3003 894 3003 1313 
Q 3003 1734 2745 1975 
Q 2488 2216 2034 2216 
z
M 1403 2484 
Q 997 2584 770 2862 
Q 544 3141 544 3541 
Q 544 4100 942 4425 
Q 1341 4750 2034 4750 
Q 2731 4750 3128 4425 
Q 3525 4100 3525 3541 
Q 3525 3141 3298 2862 
Q 3072 2584 2669 2484 
Q 3125 2378 3379 2068 
Q 3634 1759 3634 1313 
Q 3634 634 3220 271 
Q 2806 -91 2034 -91 
Q 1263 -91 848 271 
Q 434 634 434 1313 
Q 434 1759 690 2068 
Q 947 2378 1403 2484 
z
M 1172 3481 
Q 1172 3119 1398 2916 
Q 1625 2713 2034 2713 
Q 2441 2713 2670 2916 
Q 2900 3119 2900 3481 
Q 2900 3844 2670 4047 
Q 2441 4250 2034 4250 
Q 1625 4250 1398 4047 
Q 1172 3844 1172 3481 
z
" transform="scale(0.015625)"/>
       </defs>
       <use xlink:href="#DejaVuSans-38"/>
      </g>
     </g>
    </g>
    <g id="xtick_6">
     <g id="line2d_6">
      <g>
       <use xlink:href="#m57bdb4fe9d" x="425.743406" y="207.122101" style="stroke: #000000; stroke-width: 0.8"/>
      </g>
     </g>
     <g id="text_5">
      <!-- 10 -->
      <g transform="translate(418.108406 223.240226)scale(0.12 -0.12)">
       <defs>
        <path id="DejaVuSans-31" d="M 794 531 
L 1825 531 
L 1825 4091 
L 703 3866 
L 703 4441 
L 1819 4666 
L 2450 4666 
L 2450 531 
L 3481 531 
L 3481 0 
L 794 0 
L 794 531 
z
" transform="scale(0.015625)"/>
        <path id="DejaVuSans-30" d="M 2034 4250 
Q 1547 4250 1301 3770 
Q 1056 3291 1056 2328 
Q 1056 1369 1301 889 
Q 1547 409 2034 409 
Q 2525 409 2770 889 
Q 3016 1369 3016 2328 
Q 3016 3291 2770 3770 
Q 2525 4250 2034 4250 
z
M 2034 4750 
Q 2819 4750 3233 4129 
Q 3647 3509 3647 2328 
Q 3647 1150 3233 529 
Q 2819 -91 2034 -91 
Q 1250 -91 836 529 
Q 422 1150 422 2328 
Q 422 3509 836 4129 
Q 1250 4750 2034 4750 
z
" transform="scale(0.015625)"/>
       </defs>
       <use xlink:href="#DejaVuSans-31"/>
       <use xlink:href="#DejaVuSans-30" x="63.623047"/>
      </g>
     </g>
    </g>
    <g id="xtick_7">
     <g id="line2d_7">
      <defs>
       <path id="me2e3d0e74b" d="M 0 0 
L 0 2 
" style="stroke: #000000; stroke-width: 0.6"/>
      </defs>
      <g>
       <use xlink:href="#me2e3d0e74b" x="62.459577" y="207.122101" style="stroke: #000000; stroke-width: 0.6"/>
      </g>
     </g>
    </g>
    <g id="xtick_8">
     <g id="line2d_8">
      <g>
       <use xlink:href="#me2e3d0e74b" x="81.579778" y="207.122101" style="stroke: #000000; stroke-width: 0.6"/>
      </g>
     </g>
    </g>
    <g id="xtick_9">
     <g id="line2d_9">
      <g>
       <use xlink:href="#me2e3d0e74b" x="100.69998" y="207.122101" style="stroke: #000000; stroke-width: 0.6"/>
      </g>
     </g>
    </g>
    <g id="xtick_10">
     <g id="line2d_10">
      <g>
       <use xlink:href="#me2e3d0e74b" x="138.940383" y="207.122101" style="stroke: #000000; stroke-width: 0.6"/>
      </g>
     </g>
    </g>
    <g id="xtick_11">
     <g id="line2d_11">
      <g>
       <use xlink:href="#me2e3d0e74b" x="158.060584" y="207.122101" style="stroke: #000000; stroke-width: 0.6"/>
      </g>
     </g>
    </g>
    <g id="xtick_12">
     <g id="line2d_12">
      <g>
       <use xlink:href="#me2e3d0e74b" x="177.180786" y="207.122101" style="stroke: #000000; stroke-width: 0.6"/>
      </g>
     </g>
    </g>
    <g id="xtick_13">
     <g id="line2d_13">
      <g>
       <use xlink:href="#me2e3d0e74b" x="215.421189" y="207.122101" style="stroke: #000000; stroke-width: 0.6"/>
      </g>
     </g>
    </g>
    <g id="xtick_14">
     <g id="line2d_14">
      <g>
       <use xlink:href="#me2e3d0e74b" x="234.541391" y="207.122101" style="stroke: #000000; stroke-width: 0.6"/>
      </g>
     </g>
    </g>
    <g id="xtick_15">
     <g id="line2d_15">
      <g>
       <use xlink:href="#me2e3d0e74b" x="253.661592" y="207.122101" style="stroke: #000000; stroke-width: 0.6"/>
      </g>
     </g>
    </g>
    <g id="xtick_16">
     <g id="line2d_16">
      <g>
       <use xlink:href="#me2e3d0e74b" x="291.901995" y="207.122101" style="stroke: #000000; stroke-width: 0.6"/>
      </g>
     </g>
    </g>
    <g id="xtick_17">
     <g id="line2d_17">
      <g>
       <use xlink:href="#me2e3d0e74b" x="311.022197" y="207.122101" style="stroke: #000000; stroke-width: 0.6"/>
      </g>
     </g>
    </g>
    <g id="xtick_18">
     <g id="line2d_18">
      <g>
       <use xlink:href="#me2e3d0e74b" x="330.142398" y="207.122101" style="stroke: #000000; stroke-width: 0.6"/>
      </g>
     </g>
    </g>
    <g id="xtick_19">
     <g id="line2d_19">
      <g>
       <use xlink:href="#me2e3d0e74b" x="368.382801" y="207.122101" style="stroke: #000000; stroke-width: 0.6"/>
      </g>
     </g>
    </g>
    <g id="xtick_20">
     <g id="line2d_20">
      <g>
       <use xlink:href="#me2e3d0e74b" x="387.503003" y="207.122101" style="stroke: #000000; stroke-width: 0.6"/>
      </g>
     </g>
    </g>
    <g id="xtick_21">
     <g id="line2d_21">
      <g>
       <use xlink:href="#me2e3d0e74b" x="406.623205" y="207.122101" style="stroke: #000000; stroke-width: 0.6"/>
      </g>
     </g>
    </g>
    <g id="text_6">
     <!-- $t$ -->
     <g transform="translate(441.391487 207.122101)scale(0.19 -0.19)">
      <defs>
       <path id="Cmmi10-74" d="M 397 519 
Q 397 613 416 697 
L 878 2534 
L 206 2534 
Q 141 2534 141 2619 
Q 166 2759 225 2759 
L 934 2759 
L 1191 3803 
Q 1216 3888 1291 3947 
Q 1366 4006 1459 4006 
Q 1541 4006 1595 3957 
Q 1650 3909 1650 3828 
Q 1650 3809 1648 3798 
Q 1647 3788 1644 3775 
L 1388 2759 
L 2047 2759 
Q 2113 2759 2113 2675 
Q 2109 2659 2100 2621 
Q 2091 2584 2075 2559 
Q 2059 2534 2028 2534 
L 1331 2534 
L 872 684 
Q 825 503 825 372 
Q 825 97 1013 97 
Q 1294 97 1511 361 
Q 1728 625 1844 941 
Q 1869 978 1894 978 
L 1972 978 
Q 1997 978 2012 961 
Q 2028 944 2028 922 
Q 2028 909 2022 903 
Q 1881 516 1612 222 
Q 1344 -72 997 -72 
Q 744 -72 570 93 
Q 397 259 397 519 
z
" transform="scale(0.015625)"/>
      </defs>
      <use xlink:href="#Cmmi10-74" transform="translate(0 0.40625)"/>
     </g>
    </g>
   </g>
   <g id="matplotlib.axis_2">
    <g id="ytick_1">
     <g id="line2d_22">
      <defs>
       <path id="m650a2abb33" d="M 0 0 
L -3.5 0 
" style="stroke: #000000; stroke-width: 0.8"/>
      </defs>
      <g>
       <use xlink:href="#m650a2abb33" x="43.339375" y="315.512261" style="stroke: #000000; stroke-width: 0.8"/>
      </g>
     </g>
     <g id="text_7">
      <!-- −1.5 -->
      <g transform="translate(7.2 320.071324)scale(0.12 -0.12)">
       <defs>
        <path id="DejaVuSans-2212" d="M 678 2272 
L 4684 2272 
L 4684 1741 
L 678 1741 
L 678 2272 
z
" transform="scale(0.015625)"/>
        <path id="DejaVuSans-2e" d="M 684 794 
L 1344 794 
L 1344 0 
L 684 0 
L 684 794 
z
" transform="scale(0.015625)"/>
        <path id="DejaVuSans-35" d="M 691 4666 
L 3169 4666 
L 3169 4134 
L 1269 4134 
L 1269 2991 
Q 1406 3038 1543 3061 
Q 1681 3084 1819 3084 
Q 2600 3084 3056 2656 
Q 3513 2228 3513 1497 
Q 3513 744 3044 326 
Q 2575 -91 1722 -91 
Q 1428 -91 1123 -41 
Q 819 9 494 109 
L 494 744 
Q 775 591 1075 516 
Q 1375 441 1709 441 
Q 2250 441 2565 725 
Q 2881 1009 2881 1497 
Q 2881 1984 2565 2268 
Q 2250 2553 1709 2553 
Q 1456 2553 1204 2497 
Q 953 2441 691 2322 
L 691 4666 
z
" transform="scale(0.015625)"/>
       </defs>
       <use xlink:href="#DejaVuSans-2212"/>
       <use xlink:href="#DejaVuSans-31" x="83.789062"/>
       <use xlink:href="#DejaVuSans-2e" x="147.412109"/>
       <use xlink:href="#DejaVuSans-35" x="179.199219"/>
      </g>
     </g>
    </g>
    <g id="ytick_2">
     <g id="line2d_23">
      <g>
       <use xlink:href="#m650a2abb33" x="43.339375" y="279.382208" style="stroke: #000000; stroke-width: 0.8"/>
      </g>
     </g>
     <g id="text_8">
      <!-- −1.0 -->
      <g transform="translate(7.2 283.94127)scale(0.12 -0.12)">
       <use xlink:href="#DejaVuSans-2212"/>
       <use xlink:href="#DejaVuSans-31" x="83.789062"/>
       <use xlink:href="#DejaVuSans-2e" x="147.412109"/>
       <use xlink:href="#DejaVuSans-30" x="179.199219"/>
      </g>
     </g>
    </g>
    <g id="ytick_3">
     <g id="line2d_24">
      <g>
       <use xlink:href="#m650a2abb33" x="43.339375" y="243.252155" style="stroke: #000000; stroke-width: 0.8"/>
      </g>
     </g>
     <g id="text_9">
      <!-- −0.5 -->
      <g transform="translate(7.2 247.811217)scale(0.12 -0.12)">
       <use xlink:href="#DejaVuSans-2212"/>
       <use xlink:href="#DejaVuSans-30" x="83.789062"/>
       <use xlink:href="#DejaVuSans-2e" x="147.412109"/>
       <use xlink:href="#DejaVuSans-35" x="179.199219"/>
      </g>
     </g>
    </g>
    <g id="ytick_4">
     <g id="line2d_25">
      <g>
       <use xlink:href="#m650a2abb33" x="43.339375" y="207.122101" style="stroke: #000000; stroke-width: 0.8"/>
      </g>
     </g>
    </g>
    <g id="ytick_5">
     <g id="line2d_26">
      <g>
       <use xlink:href="#m650a2abb33" x="43.339375" y="170.992048" style="stroke: #000000; stroke-width: 0.8"/>
      </g>
     </g>
     <g id="text_10">
      <!-- 0.5 -->
      <g transform="translate(17.255625 175.551111)scale(0.12 -0.12)">
       <use xlink:href="#DejaVuSans-30"/>
       <use xlink:href="#DejaVuSans-2e" x="63.623047"/>
       <use xlink:href="#DejaVuSans-35" x="95.410156"/>
      </g>
     </g>
    </g>
    <g id="ytick_6">
     <g id="line2d_27">
      <g>
       <use xlink:href="#m650a2abb33" x="43.339375" y="134.861995" style="stroke: #000000; stroke-width: 0.8"/>
      </g>
     </g>
     <g id="text_11">
      <!-- 1.0 -->
      <g transform="translate(17.255625 139.421057)scale(0.12 -0.12)">
       <use xlink:href="#DejaVuSans-31"/>
       <use xlink:href="#DejaVuSans-2e" x="63.623047"/>
       <use xlink:href="#DejaVuSans-30" x="95.410156"/>
      </g>
     </g>
    </g>
    <g id="ytick_7">
     <g id="line2d_28">
      <g>
       <use xlink:href="#m650a2abb33" x="43.339375" y="98.731942" style="stroke: #000000; stroke-width: 0.8"/>
      </g>
     </g>
     <g id="text_12">
      <!-- 1.5 -->
      <g transform="translate(17.255625 103.291004)scale(0.12 -0.12)">
       <use xlink:href="#DejaVuSans-31"/>
       <use xlink:href="#DejaVuSans-2e" x="63.623047"/>
       <use xlink:href="#DejaVuSans-35" x="95.410156"/>
      </g>
     </g>
    </g>
    <g id="ytick_8">
     <g id="line2d_29">
      <g>
       <use xlink:href="#m650a2abb33" x="43.339375" y="62.601889" style="stroke: #000000; stroke-width: 0.8"/>
      </g>
     </g>
     <g id="text_13">
      <!-- 2.0 -->
      <g transform="translate(17.255625 67.160951)scale(0.12 -0.12)">
       <use xlink:href="#DejaVuSans-32"/>
       <use xlink:href="#DejaVuSans-2e" x="63.623047"/>
       <use xlink:href="#DejaVuSans-30" x="95.410156"/>
      </g>
     </g>
    </g>
    <g id="ytick_9">
     <g id="line2d_30">
      <g>
       <use xlink:href="#m650a2abb33" x="43.339375" y="26.471835" style="stroke: #000000; stroke-width: 0.8"/>
      </g>
     </g>
     <g id="text_14">
      <!-- 2.5 -->
      <g transform="translate(17.255625 31.030898)scale(0.12 -0.12)">
       <use xlink:href="#DejaVuSans-32"/>
       <use xlink:href="#DejaVuSans-2e" x="63.623047"/>
       <use xlink:href="#DejaVuSans-35" x="95.410156"/>
      </g>
     </g>
    </g>
    <g id="ytick_10">
     <g id="line2d_31">
      <defs>
       <path id="md041547bc3" d="M 0 0 
L -2 0 
" style="stroke: #000000; stroke-width: 0.6"/>
      </defs>
      <g>
       <use xlink:href="#md041547bc3" x="43.339375" y="329.964282" style="stroke: #000000; stroke-width: 0.6"/>
      </g>
     </g>
    </g>
    <g id="ytick_11">
     <g id="line2d_32">
      <g>
       <use xlink:href="#md041547bc3" x="43.339375" y="322.738272" style="stroke: #000000; stroke-width: 0.6"/>
      </g>
     </g>
    </g>
    <g id="ytick_12">
     <g id="line2d_33">
      <g>
       <use xlink:href="#md041547bc3" x="43.339375" y="308.28625" style="stroke: #000000; stroke-width: 0.6"/>
      </g>
     </g>
    </g>
    <g id="ytick_13">
     <g id="line2d_34">
      <g>
       <use xlink:href="#md041547bc3" x="43.339375" y="301.06024" style="stroke: #000000; stroke-width: 0.6"/>
      </g>
     </g>
    </g>
    <g id="ytick_14">
     <g id="line2d_35">
      <g>
       <use xlink:href="#md041547bc3" x="43.339375" y="293.834229" style="stroke: #000000; stroke-width: 0.6"/>
      </g>
     </g>
    </g>
    <g id="ytick_15">
     <g id="line2d_36">
      <g>
       <use xlink:href="#md041547bc3" x="43.339375" y="286.608218" style="stroke: #000000; stroke-width: 0.6"/>
      </g>
     </g>
    </g>
    <g id="ytick_16">
     <g id="line2d_37">
      <g>
       <use xlink:href="#md041547bc3" x="43.339375" y="272.156197" style="stroke: #000000; stroke-width: 0.6"/>
      </g>
     </g>
    </g>
    <g id="ytick_17">
     <g id="line2d_38">
      <g>
       <use xlink:href="#md041547bc3" x="43.339375" y="264.930187" style="stroke: #000000; stroke-width: 0.6"/>
      </g>
     </g>
    </g>
    <g id="ytick_18">
     <g id="line2d_39">
      <g>
       <use xlink:href="#md041547bc3" x="43.339375" y="257.704176" style="stroke: #000000; stroke-width: 0.6"/>
      </g>
     </g>
    </g>
    <g id="ytick_19">
     <g id="line2d_40">
      <g>
       <use xlink:href="#md041547bc3" x="43.339375" y="250.478165" style="stroke: #000000; stroke-width: 0.6"/>
      </g>
     </g>
    </g>
    <g id="ytick_20">
     <g id="line2d_41">
      <g>
       <use xlink:href="#md041547bc3" x="43.339375" y="236.026144" style="stroke: #000000; stroke-width: 0.6"/>
      </g>
     </g>
    </g>
    <g id="ytick_21">
     <g id="line2d_42">
      <g>
       <use xlink:href="#md041547bc3" x="43.339375" y="228.800133" style="stroke: #000000; stroke-width: 0.6"/>
      </g>
     </g>
    </g>
    <g id="ytick_22">
     <g id="line2d_43">
      <g>
       <use xlink:href="#md041547bc3" x="43.339375" y="221.574123" style="stroke: #000000; stroke-width: 0.6"/>
      </g>
     </g>
    </g>
    <g id="ytick_23">
     <g id="line2d_44">
      <g>
       <use xlink:href="#md041547bc3" x="43.339375" y="214.348112" style="stroke: #000000; stroke-width: 0.6"/>
      </g>
     </g>
    </g>
    <g id="ytick_24">
     <g id="line2d_45">
      <g>
       <use xlink:href="#md041547bc3" x="43.339375" y="199.896091" style="stroke: #000000; stroke-width: 0.6"/>
      </g>
     </g>
    </g>
    <g id="ytick_25">
     <g id="line2d_46">
      <g>
       <use xlink:href="#md041547bc3" x="43.339375" y="192.67008" style="stroke: #000000; stroke-width: 0.6"/>
      </g>
     </g>
    </g>
    <g id="ytick_26">
     <g id="line2d_47">
      <g>
       <use xlink:href="#md041547bc3" x="43.339375" y="185.444069" style="stroke: #000000; stroke-width: 0.6"/>
      </g>
     </g>
    </g>
    <g id="ytick_27">
     <g id="line2d_48">
      <g>
       <use xlink:href="#md041547bc3" x="43.339375" y="178.218059" style="stroke: #000000; stroke-width: 0.6"/>
      </g>
     </g>
    </g>
    <g id="ytick_28">
     <g id="line2d_49">
      <g>
       <use xlink:href="#md041547bc3" x="43.339375" y="163.766038" style="stroke: #000000; stroke-width: 0.6"/>
      </g>
     </g>
    </g>
    <g id="ytick_29">
     <g id="line2d_50">
      <g>
       <use xlink:href="#md041547bc3" x="43.339375" y="156.540027" style="stroke: #000000; stroke-width: 0.6"/>
      </g>
     </g>
    </g>
    <g id="ytick_30">
     <g id="line2d_51">
      <g>
       <use xlink:href="#md041547bc3" x="43.339375" y="149.314016" style="stroke: #000000; stroke-width: 0.6"/>
      </g>
     </g>
    </g>
    <g id="ytick_31">
     <g id="line2d_52">
      <g>
       <use xlink:href="#md041547bc3" x="43.339375" y="142.088006" style="stroke: #000000; stroke-width: 0.6"/>
      </g>
     </g>
    </g>
    <g id="ytick_32">
     <g id="line2d_53">
      <g>
       <use xlink:href="#md041547bc3" x="43.339375" y="127.635984" style="stroke: #000000; stroke-width: 0.6"/>
      </g>
     </g>
    </g>
    <g id="ytick_33">
     <g id="line2d_54">
      <g>
       <use xlink:href="#md041547bc3" x="43.339375" y="120.409974" style="stroke: #000000; stroke-width: 0.6"/>
      </g>
     </g>
    </g>
    <g id="ytick_34">
     <g id="line2d_55">
      <g>
       <use xlink:href="#md041547bc3" x="43.339375" y="113.183963" style="stroke: #000000; stroke-width: 0.6"/>
      </g>
     </g>
    </g>
    <g id="ytick_35">
     <g id="line2d_56">
      <g>
       <use xlink:href="#md041547bc3" x="43.339375" y="105.957952" style="stroke: #000000; stroke-width: 0.6"/>
      </g>
     </g>
    </g>
    <g id="ytick_36">
     <g id="line2d_57">
      <g>
       <use xlink:href="#md041547bc3" x="43.339375" y="91.505931" style="stroke: #000000; stroke-width: 0.6"/>
      </g>
     </g>
    </g>
    <g id="ytick_37">
     <g id="line2d_58">
      <g>
       <use xlink:href="#md041547bc3" x="43.339375" y="84.27992" style="stroke: #000000; stroke-width: 0.6"/>
      </g>
     </g>
    </g>
    <g id="ytick_38">
     <g id="line2d_59">
      <g>
       <use xlink:href="#md041547bc3" x="43.339375" y="77.05391" style="stroke: #000000; stroke-width: 0.6"/>
      </g>
     </g>
    </g>
    <g id="ytick_39">
     <g id="line2d_60">
      <g>
       <use xlink:href="#md041547bc3" x="43.339375" y="69.827899" style="stroke: #000000; stroke-width: 0.6"/>
      </g>
     </g>
    </g>
    <g id="ytick_40">
     <g id="line2d_61">
      <g>
       <use xlink:href="#md041547bc3" x="43.339375" y="55.375878" style="stroke: #000000; stroke-width: 0.6"/>
      </g>
     </g>
    </g>
    <g id="ytick_41">
     <g id="line2d_62">
      <g>
       <use xlink:href="#md041547bc3" x="43.339375" y="48.149867" style="stroke: #000000; stroke-width: 0.6"/>
      </g>
     </g>
    </g>
    <g id="ytick_42">
     <g id="line2d_63">
      <g>
       <use xlink:href="#md041547bc3" x="43.339375" y="40.923857" style="stroke: #000000; stroke-width: 0.6"/>
      </g>
     </g>
    </g>
    <g id="ytick_43">
     <g id="line2d_64">
      <g>
       <use xlink:href="#md041547bc3" x="43.339375" y="33.697846" style="stroke: #000000; stroke-width: 0.6"/>
      </g>
     </g>
    </g>
    <g id="ytick_44">
     <g id="line2d_65">
      <g>
       <use xlink:href="#md041547bc3" x="43.339375" y="19.245825" style="stroke: #000000; stroke-width: 0.6"/>
      </g>
     </g>
    </g>
    <g id="ytick_45">
     <g id="line2d_66">
      <g>
       <use xlink:href="#md041547bc3" x="43.339375" y="12.019814" style="stroke: #000000; stroke-width: 0.6"/>
      </g>
     </g>
    </g>
   </g>
   <g id="line2d_67">
    <path d="M 43.339375 170.992048 
L 44.439112 170.05382 
L 46.293681 168.885576 
L 47.048514 168.541228 
L 48.310112 168.113914 
L 49.57171 167.852231 
L 51.789624 167.732598 
L 53.918158 167.952107 
L 56.597552 168.587934 
L 57.997355 169.045455 
L 61.119135 170.297309 
L 63.550113 171.435874 
L 70.017642 174.850473 
L 83.91319 182.445166 
L 89.633772 185.302279 
L 94.695594 187.631758 
L 101.165518 190.323044 
L 107.93408 192.799794 
L 114.200455 194.801846 
L 120.881612 196.654824 
L 125.938146 197.882336 
L 131.495817 199.075317 
L 140.310616 200.672703 
L 146.875179 201.659759 
L 153.976046 202.562747 
L 162.317681 203.438793 
L 174.047147 204.397786 
L 184.652851 205.0505 
L 198.546886 205.676881 
L 216.769802 206.222182 
L 238.029553 206.604957 
L 265.437636 206.869214 
L 309.024457 207.041137 
L 398.505413 207.114299 
L 425.743406 207.118274 
L 425.743406 207.118274 
" clip-path="url(#pf2274b32db)" style="fill: none; stroke: #0000ff; stroke-linecap: square"/>
   </g>
   <g id="line2d_68">
    <path d="M 43.339375 170.992048 
L 44.807149 180.01341 
L 46.081706 186.826455 
L 47.916561 195.193584 
L 49.597453 201.575898 
L 51.190536 206.661957 
L 52.834399 211.069079 
L 54.404321 214.592541 
L 55.189282 216.133013 
L 56.372504 218.205729 
L 58.48588 221.250802 
L 60.416914 223.407552 
L 61.621401 224.496645 
L 62.787678 225.387551 
L 63.953956 226.134491 
L 65.652387 226.995552 
L 67.903594 227.784481 
L 69.421584 228.126316 
L 71.049341 228.350227 
L 72.677097 228.447998 
L 74.754208 228.419474 
L 77.799552 228.130647 
L 81.484098 227.493702 
L 86.859995 226.208389 
L 96.011436 223.594031 
L 108.03508 220.142725 
L 116.197918 218.041746 
L 123.789265 216.320457 
L 131.374507 214.828062 
L 139.404269 213.481414 
L 148.031743 212.274424 
L 156.292387 211.32113 
L 165.739523 210.435721 
L 175.166338 209.732283 
L 189.185937 208.946749 
L 204.925883 208.338955 
L 221.721243 207.909962 
L 244.161182 207.561812 
L 275.243324 207.317651 
L 325.250021 207.175064 
L 425.743406 207.125929 
L 425.743406 207.125929 
" clip-path="url(#pf2274b32db)" style="fill: none; stroke: #ff0000; stroke-linecap: square"/>
   </g>
   <g id="line2d_69">
    <path d="M 43.339375 134.861995 
L 44.557932 132.840031 
L 45.776488 131.331092 
L 47.189068 130.137423 
L 48.014114 129.681985 
L 49.475169 129.254532 
L 50.111178 129.203391 
L 50.982661 129.251318 
L 52.725627 129.706358 
L 54.552213 130.611158 
L 56.512665 131.966191 
L 58.263519 133.437493 
L 61.443032 136.560287 
L 63.728658 139.047204 
L 71.983724 148.673838 
L 77.223585 154.725713 
L 82.830089 160.827071 
L 88.660721 166.634908 
L 93.620951 171.110129 
L 96.437758 173.461016 
L 100.67198 176.742929 
L 105.059384 179.838459 
L 109.886201 182.908347 
L 113.64799 185.07449 
L 119.425411 188.048641 
L 123.32808 189.836979 
L 127.599293 191.609504 
L 130.839225 192.835688 
L 136.905704 194.883674 
L 142.868228 196.616489 
L 148.616727 198.058632 
L 155.291469 199.490315 
L 162.792259 200.834348 
L 170.058065 201.912349 
L 177.999189 202.881969 
L 187.960482 203.848756 
L 198.390372 204.626736 
L 210.694345 205.3111 
L 225.585482 205.893977 
L 242.917356 206.340937 
L 267.174609 206.707596 
L 297.966772 206.936749 
L 351.593572 207.076491 
L 425.743406 207.11554 
L 425.743406 207.11554 
" clip-path="url(#pf2274b32db)" style="fill: none; stroke: #0000ff; stroke-linecap: square"/>
   </g>
   <g id="line2d_70">
    <path d="M 43.339375 134.861995 
L 44.916304 156.720251 
L 46.273834 172.666078 
L 47.631363 186.320571 
L 49.290166 200.328759 
L 50.898193 211.511434 
L 52.243511 219.322159 
L 53.867423 227.150359 
L 55.160988 232.306294 
L 56.735335 237.476955 
L 57.816369 240.416123 
L 58.928873 242.985953 
L 59.729211 244.578042 
L 60.669637 246.200846 
L 61.610062 247.580156 
L 62.550488 248.739413 
L 64.20038 250.304848 
L 64.909847 250.815359 
L 66.647647 251.710412 
L 67.396297 251.95788 
L 68.893597 252.238169 
L 70.152658 252.280065 
L 72.462236 251.978871 
L 75.005243 251.203821 
L 76.16526 250.730803 
L 79.258022 249.199528 
L 81.377475 247.983173 
L 86.181496 244.93703 
L 99.919491 235.897626 
L 105.066797 232.799089 
L 109.771964 230.181389 
L 114.443809 227.795004 
L 119.814387 225.311347 
L 123.673269 223.691756 
L 130.428414 221.166686 
L 136.796937 219.116118 
L 144.01171 217.134357 
L 150.170061 215.693634 
L 158.690427 214.025658 
L 165.43765 212.932773 
L 174.681627 211.705723 
L 184.348641 210.694955 
L 195.667403 209.788228 
L 207.990091 209.058779 
L 222.359838 208.454961 
L 239.343103 207.978411 
L 261.296575 207.605017 
L 290.854884 207.345238 
L 337.184987 207.188573 
L 425.743406 207.128662 
L 425.743406 207.128662 
" clip-path="url(#pf2274b32db)" style="fill: none; stroke: #ff0000; stroke-linecap: square"/>
   </g>
   <g id="line2d_71">
    <path d="M 43.339375 98.731942 
L 44.60655 95.613015 
L 45.656746 93.684417 
L 46.912357 92.058503 
L 47.540163 91.492967 
L 48.371503 90.97191 
L 49.202843 90.687692 
L 50.402869 90.649337 
L 51.08676 90.803154 
L 52.454541 91.444512 
L 53.861295 92.504366 
L 54.584159 93.184012 
L 55.935495 94.664138 
L 57.958266 97.300239 
L 60.985898 101.928053 
L 65.210099 109.183608 
L 77.337447 130.790035 
L 82.122174 138.659333 
L 84.911734 142.974482 
L 89.488914 149.591467 
L 93.363312 154.739011 
L 97.013973 159.217247 
L 100.493481 163.162616 
L 104.161274 166.997318 
L 109.219165 171.77571 
L 111.949534 174.126544 
L 115.767588 177.165148 
L 119.339333 179.763195 
L 123.958694 182.802129 
L 127.424066 184.864091 
L 131.130321 186.880728 
L 136.086811 189.300518 
L 141.923126 191.78758 
L 146.683292 193.56032 
L 152.705029 195.515642 
L 158.341661 197.092106 
L 164.576706 198.589722 
L 171.881987 200.064259 
L 179.541403 201.338851 
L 188.565017 202.549618 
L 197.304627 203.480857 
L 206.865815 204.284394 
L 218.338446 205.018564 
L 232.17599 205.656426 
L 246.107734 206.103548 
L 267.759071 206.543665 
L 294.966794 206.838068 
L 335.527292 207.023747 
L 412.938394 207.10911 
L 425.743406 207.112806 
L 425.743406 207.112806 
" clip-path="url(#pf2274b32db)" style="fill: none; stroke: #0000ff; stroke-linecap: square"/>
   </g>
   <g id="line2d_72">
    <path d="M 43.339375 98.731942 
L 44.839103 131.280154 
L 46.208232 156.445981 
L 47.577362 177.870581 
L 48.984902 196.524455 
L 50.214933 210.395569 
L 51.444963 222.289772 
L 52.684138 232.518884 
L 54.155747 242.67883 
L 55.7206 251.449194 
L 57.142389 257.869531 
L 58.184802 261.767618 
L 59.581214 266.057353 
L 60.977625 269.419243 
L 62.212797 271.726761 
L 63.370671 273.397063 
L 64.528545 274.650324 
L 65.633493 275.505042 
L 66.738441 276.067182 
L 67.695099 276.345172 
L 68.651757 276.451391 
L 69.678753 276.395624 
L 70.705749 276.184473 
L 72.512083 275.49216 
L 74.139849 274.579055 
L 75.080945 273.948587 
L 76.781983 272.653131 
L 79.629356 270.142198 
L 83.019103 266.793187 
L 98.216309 250.999801 
L 102.084884 247.317468 
L 106.32118 243.547228 
L 111.877217 239.036313 
L 116.326927 235.77535 
L 119.470675 233.652926 
L 123.63331 231.062189 
L 128.532414 228.313399 
L 133.321255 225.915178 
L 137.65659 223.968507 
L 143.391788 221.688583 
L 146.393739 220.617074 
L 150.860104 219.163124 
L 155.878836 217.711201 
L 163.72264 215.778486 
L 169.426649 214.595124 
L 175.659212 213.483997 
L 183.121698 212.366614 
L 190.862524 211.412812 
L 201.141025 210.407343 
L 212.443384 209.570287 
L 224.120084 208.928108 
L 239.685139 208.325481 
L 256.332103 207.901327 
L 277.71817 207.567792 
L 310.221109 207.312687 
L 362.790179 207.170315 
L 425.743406 207.131396 
L 425.743406 207.131396 
" clip-path="url(#pf2274b32db)" style="fill: none; stroke: #ff0000; stroke-linecap: square"/>
   </g>
   <g id="line2d_73">
    <path d="M 43.339375 62.601889 
L 44.375053 59.120863 
L 45.410731 56.439796 
L 46.208281 54.862456 
L 47.005831 53.667176 
L 47.617461 52.987522 
L 48.22909 52.49747 
L 48.84072 52.183377 
L 49.452349 52.032462 
L 50.469806 52.110864 
L 51.487264 52.557436 
L 52.751825 53.557746 
L 54.042945 55.013924 
L 55.136903 56.538695 
L 56.970624 59.584769 
L 59.189914 63.906471 
L 61.816857 69.644262 
L 64.447265 75.80588 
L 75.465207 102.409877 
L 80.092254 112.874106 
L 84.309929 121.766885 
L 88.278419 129.524166 
L 91.753417 135.824599 
L 95.070896 141.418427 
L 98.834435 147.284479 
L 102.816051 152.963313 
L 105.964391 157.092635 
L 110.637287 162.675599 
L 114.595128 166.933091 
L 115.668672 168.018403 
L 121.391855 173.341899 
L 125.056553 176.372824 
L 129.823379 179.920005 
L 134.691613 183.127579 
L 136.648467 184.309333 
L 140.649512 186.549844 
L 145.139313 188.80605 
L 150.362522 191.124289 
L 155.143157 192.990086 
L 159.738334 194.579539 
L 167.083297 196.75941 
L 172.000964 198.003925 
L 178.496551 199.42262 
L 185.146219 200.6474 
L 192.489606 201.775515 
L 200.045011 202.731883 
L 209.710263 203.710653 
L 221.474082 204.612872 
L 235.146919 205.366493 
L 250.395655 205.943471 
L 267.531434 206.368984 
L 291.422718 206.718819 
L 322.94894 206.945246 
L 377.009373 207.07908 
L 425.743406 207.110073 
L 425.743406 207.110073 
" clip-path="url(#pf2274b32db)" style="fill: none; stroke: #0000ff; stroke-linecap: square"/>
   </g>
   <g id="line2d_74">
    <path d="M 43.339375 62.601889 
L 44.792566 105.563413 
L 46.274044 142.445879 
L 47.592037 170.209311 
L 48.913712 193.925871 
L 50.122977 212.470162 
L 51.620262 231.811954 
L 52.981414 246.390716 
L 54.367835 258.715611 
L 55.699041 268.481055 
L 56.857795 275.549095 
L 58.210991 282.33725 
L 59.503661 287.53972 
L 60.715046 291.430173 
L 61.88579 294.401422 
L 63.056533 296.695203 
L 64.142826 298.292264 
L 65.229119 299.440197 
L 66.017112 300.022772 
L 66.805106 300.416203 
L 67.641702 300.646043 
L 68.478297 300.700867 
L 69.228906 300.615306 
L 70.656708 300.142433 
L 71.3339 299.79242 
L 72.762641 298.826776 
L 75.173201 296.627002 
L 77.576359 293.905184 
L 80.377297 290.288593 
L 84.98906 283.773432 
L 92.494834 272.892441 
L 98.294863 264.92414 
L 102.026348 260.141776 
L 103.967193 257.773535 
L 108.34585 252.740077 
L 113.038046 247.821092 
L 117.199048 243.856932 
L 121.449949 240.172837 
L 125.778314 236.776502 
L 129.276467 234.274757 
L 133.497857 231.523032 
L 137.218797 229.321243 
L 140.972279 227.295202 
L 146.295531 224.726877 
L 151.617401 222.479254 
L 156.692314 220.599117 
L 161.800685 218.935591 
L 169.280235 216.858918 
L 175.794603 215.347186 
L 183.573776 213.843947 
L 191.843774 212.544147 
L 200.282994 211.475284 
L 209.68237 210.530008 
L 220.78324 209.673643 
L 232.842095 208.984879 
L 247.902201 208.379278 
L 265.10729 207.924154 
L 286.577207 207.579742 
L 317.605398 207.325455 
L 367.104092 207.177841 
L 425.743406 207.13413 
L 425.743406 207.13413 
" clip-path="url(#pf2274b32db)" style="fill: none; stroke: #ff0000; stroke-linecap: square"/>
   </g>
   <g id="line2d_75">
    <path d="M 43.339375 26.471835 
L 44.266124 22.534068 
L 45.192872 19.415949 
L 45.964233 17.384344 
L 46.735594 15.816977 
L 47.667473 14.4842 
L 48.599353 13.702836 
L 49.367192 13.430769 
L 50.135031 13.461632 
L 50.90287 13.767238 
L 52.21063 14.847492 
L 53.290473 16.202218 
L 54.612727 18.342663 
L 56.034929 21.139296 
L 57.795209 25.16888 
L 60.519556 32.312615 
L 63.06218 39.63187 
L 69.78053 60.143919 
L 75.995766 78.799242 
L 80.78762 92.247945 
L 83.793587 100.157093 
L 87.057934 108.255287 
L 90.443549 116.108472 
L 93.853812 123.464951 
L 97.438234 130.617811 
L 100.546783 136.361802 
L 103.666398 141.719624 
L 107.411431 147.645335 
L 110.662768 152.370914 
L 114.928304 158.02489 
L 119.302202 163.233219 
L 121.455644 165.595613 
L 125.418834 169.622557 
L 129.77974 173.611433 
L 133.212683 176.455073 
L 137.236277 179.486141 
L 140.510868 181.732891 
L 145.121729 184.593148 
L 149.616013 187.073188 
L 153.886487 189.178075 
L 158.569499 191.234678 
L 164.227939 193.409345 
L 169.117539 195.048305 
L 175.174303 196.810529 
L 180.518331 198.151211 
L 187.177303 199.581166 
L 193.485042 200.725339 
L 201.692478 201.958729 
L 210.220507 202.989391 
L 217.381757 203.694344 
L 228.066634 204.529195 
L 238.693661 205.157883 
L 253.982651 205.804908 
L 271.98898 206.299431 
L 295.043797 206.671856 
L 325.235171 206.917644 
L 374.211103 207.065294 
L 425.743406 207.107339 
L 425.743406 207.107339 
" clip-path="url(#pf2274b32db)" style="fill: none; stroke: #0000ff; stroke-linecap: square"/>
   </g>
   <g id="line2d_76">
    <path d="M 43.339375 26.471835 
L 44.785341 80.526778 
L 46.230529 126.081185 
L 47.683021 164.552071 
L 49.014513 194.278442 
L 50.357875 219.637154 
L 51.651786 240.247169 
L 52.977026 257.992059 
L 54.265582 272.412262 
L 55.517486 284.098223 
L 56.659433 293.012596 
L 57.515893 298.729479 
L 58.933481 306.583784 
L 59.943644 311.098467 
L 60.972644 314.884856 
L 62.001645 317.941545 
L 63.070218 320.430772 
L 64.217938 322.418862 
L 65.207687 323.630675 
L 66.197437 324.431536 
L 66.92156 324.784103 
L 67.645684 324.958219 
L 68.369807 324.969231 
L 69.09393 324.831343 
L 69.819647 324.556957 
L 70.620565 324.110527 
L 72.222399 322.823474 
L 73.023316 322.009501 
L 75.059541 319.52467 
L 76.614902 317.303195 
L 79.945428 311.895578 
L 85.230333 302.354045 
L 93.61051 286.987767 
L 98.40465 278.743014 
L 102.227177 272.599454 
L 104.290802 269.454695 
L 108.319532 263.670234 
L 110.049208 261.330277 
L 115.104984 254.972296 
L 118.31547 251.293193 
L 121.308469 248.100465 
L 123.935437 245.477458 
L 127.30633 242.343737 
L 132.087412 238.315387 
L 135.450186 235.751748 
L 140.596032 232.219692 
L 145.829643 229.064168 
L 151.076597 226.291691 
L 156.300883 223.874188 
L 160.868186 222.008718 
L 164.893391 220.535788 
L 169.961257 218.884874 
L 175.018873 217.43829 
L 181.83207 215.764944 
L 188.68997 214.353168 
L 195.731732 213.142103 
L 203.657369 212.019036 
L 209.915847 211.281866 
L 219.481875 210.363281 
L 229.394177 209.624465 
L 240.730377 208.983319 
L 254.639913 208.416285 
L 272.495661 207.933721 
L 292.380686 207.604735 
L 323.199425 207.337722 
L 370.910582 207.184029 
L 425.743406 207.136864 
L 425.743406 207.136864 
" clip-path="url(#pf2274b32db)" style="fill: none; stroke: #ff0000; stroke-linecap: square"/>
   </g>
   <g id="patch_3">
    <path d="M 43.339375 331.2 
L 43.339375 7.2 
" style="fill: none; stroke: #000000; stroke-width: 0.8; stroke-linejoin: miter; stroke-linecap: square"/>
   </g>
   <g id="patch_4">
    <path d="M 35.691294 207.122101 
L 433.391487 207.122101 
" style="fill: none; stroke: #000000; stroke-width: 0.8; stroke-linejoin: miter; stroke-linecap: square"/>
   </g>
   <g id="legend_1">
    <g id="patch_5">
     <path d="M 388.091487 46.596875 
L 430.391487 46.596875 
L 430.391487 14.2 
L 388.091487 14.2 
z
" style="fill: #4c4c4c; opacity: 0.5; stroke: #4c4c4c; stroke-linejoin: miter"/>
    </g>
    <g id="patch_6">
     <path d="M 386.091487 44.596875 
L 428.391487 44.596875 
L 428.391487 12.2 
L 386.091487 12.2 
z
" style="fill: #ffffff; stroke: #cccccc; stroke-linejoin: miter"/>
    </g>
    <g id="line2d_77">
     <path d="M 395.091487 22.298438 
L 389.591487 22.298438 
" style="fill: none; stroke: #0000ff; stroke-linecap: square"/>
    </g>
    <g id="text_15">
     <!-- $x(t)$ -->
     <g transform="translate(397.591487 25.798438)scale(0.1 -0.1)">
      <defs>
       <path id="Cmmi10-78" d="M 500 184 
Q 613 97 819 97 
Q 1019 97 1172 289 
Q 1325 481 1381 709 
L 1672 1844 
Q 1741 2153 1741 2266 
Q 1741 2425 1652 2544 
Q 1563 2663 1403 2663 
Q 1200 2663 1022 2536 
Q 844 2409 722 2214 
Q 600 2019 550 1819 
Q 538 1778 500 1778 
L 422 1778 
Q 372 1778 372 1838 
L 372 1856 
Q 434 2094 584 2320 
Q 734 2547 951 2687 
Q 1169 2828 1416 2828 
Q 1650 2828 1839 2703 
Q 2028 2578 2106 2363 
Q 2216 2559 2386 2693 
Q 2556 2828 2759 2828 
Q 2897 2828 3040 2779 
Q 3184 2731 3275 2631 
Q 3366 2531 3366 2381 
Q 3366 2219 3261 2101 
Q 3156 1984 2994 1984 
Q 2891 1984 2822 2050 
Q 2753 2116 2753 2216 
Q 2753 2350 2845 2451 
Q 2938 2553 3066 2572 
Q 2950 2663 2747 2663 
Q 2541 2663 2389 2472 
Q 2238 2281 2175 2047 
L 1894 916 
Q 1825 659 1825 494 
Q 1825 331 1917 214 
Q 2009 97 2163 97 
Q 2463 97 2698 361 
Q 2934 625 3009 941 
Q 3022 978 3059 978 
L 3138 978 
Q 3163 978 3178 961 
Q 3194 944 3194 922 
Q 3194 916 3188 903 
Q 3097 522 2806 225 
Q 2516 -72 2150 -72 
Q 1916 -72 1727 54 
Q 1538 181 1459 397 
Q 1359 209 1182 68 
Q 1006 -72 806 -72 
Q 669 -72 523 -23 
Q 378 25 287 125 
Q 197 225 197 378 
Q 197 528 301 651 
Q 406 775 563 775 
Q 669 775 741 711 
Q 813 647 813 544 
Q 813 409 723 309 
Q 634 209 500 184 
z
" transform="scale(0.015625)"/>
       <path id="Cmr10-28" d="M 1984 -1588 
Q 1628 -1306 1370 -942 
Q 1113 -578 948 -165 
Q 784 247 703 697 
Q 622 1147 622 1600 
Q 622 2059 703 2509 
Q 784 2959 951 3375 
Q 1119 3791 1378 4153 
Q 1638 4516 1984 4788 
Q 1984 4800 2016 4800 
L 2075 4800 
Q 2094 4800 2109 4783 
Q 2125 4766 2125 4744 
Q 2125 4716 2113 4703 
Q 1800 4397 1592 4047 
Q 1384 3697 1257 3301 
Q 1131 2906 1075 2482 
Q 1019 2059 1019 1600 
Q 1019 -434 2106 -1491 
Q 2125 -1509 2125 -1544 
Q 2125 -1559 2108 -1579 
Q 2091 -1600 2075 -1600 
L 2016 -1600 
Q 1984 -1600 1984 -1588 
z
" transform="scale(0.015625)"/>
       <path id="Cmr10-29" d="M 416 -1600 
Q 359 -1600 359 -1544 
Q 359 -1516 372 -1503 
Q 1466 -434 1466 1600 
Q 1466 3634 384 4691 
Q 359 4706 359 4744 
Q 359 4766 376 4783 
Q 394 4800 416 4800 
L 475 4800 
Q 494 4800 506 4788 
Q 966 4425 1272 3906 
Q 1578 3388 1720 2800 
Q 1863 2213 1863 1600 
Q 1863 1147 1786 708 
Q 1709 269 1542 -157 
Q 1375 -584 1119 -945 
Q 863 -1306 506 -1588 
Q 494 -1600 475 -1600 
L 416 -1600 
z
" transform="scale(0.015625)"/>
      </defs>
      <use xlink:href="#Cmmi10-78"/>
      <use xlink:href="#Cmr10-28" transform="translate(57.080078 0)"/>
      <use xlink:href="#Cmmi10-74" transform="translate(95.898438 0)"/>
      <use xlink:href="#Cmr10-29" transform="translate(131.982422 0)"/>
     </g>
    </g>
    <g id="line2d_78">
     <path d="M 395.091487 32.596875 
L 389.591487 32.596875 
" style="fill: none; stroke: #ff0000; stroke-linecap: square"/>
    </g>
    <g id="text_16">
     <!-- $dx/dt$ -->
     <g transform="translate(397.591487 36.096875)scale(0.1 -0.1)">
      <defs>
       <path id="Cmmi10-64" d="M 1113 -72 
Q 709 -72 476 233 
Q 244 538 244 953 
Q 244 1363 456 1803 
Q 669 2244 1030 2536 
Q 1391 2828 1806 2828 
Q 1994 2828 2145 2723 
Q 2297 2619 2381 2444 
L 2741 3872 
Q 2766 3981 2772 4044 
Q 2772 4147 2356 4147 
Q 2291 4147 2291 4231 
Q 2294 4247 2305 4287 
Q 2316 4328 2333 4350 
Q 2350 4372 2381 4372 
L 3244 4441 
Q 3322 4441 3322 4359 
L 2400 678 
Q 2356 572 2356 372 
Q 2356 97 2541 97 
Q 2741 97 2845 351 
Q 2950 606 3022 941 
Q 3034 978 3072 978 
L 3150 978 
Q 3175 978 3190 956 
Q 3206 934 3206 916 
Q 3094 469 2961 198 
Q 2828 -72 2528 -72 
Q 2313 -72 2147 54 
Q 1981 181 1941 391 
Q 1528 -72 1113 -72 
z
M 1119 97 
Q 1350 97 1567 270 
Q 1784 444 1941 678 
Q 1947 684 1947 703 
L 2297 2113 
Q 2259 2338 2131 2500 
Q 2003 2663 1791 2663 
Q 1575 2663 1389 2486 
Q 1203 2309 1075 2069 
Q 950 1813 836 1366 
Q 722 919 722 672 
Q 722 450 817 273 
Q 913 97 1119 97 
z
" transform="scale(0.015625)"/>
       <path id="Cmmi10-3d" d="M 359 -1472 
Q 359 -1453 366 -1447 
L 2591 4722 
Q 2603 4759 2634 4779 
Q 2666 4800 2706 4800 
Q 2763 4800 2798 4765 
Q 2834 4731 2834 4672 
L 2834 4647 
L 609 -1522 
Q 572 -1600 488 -1600 
Q 434 -1600 396 -1562 
Q 359 -1525 359 -1472 
z
" transform="scale(0.015625)"/>
      </defs>
      <use xlink:href="#Cmmi10-64"/>
      <use xlink:href="#Cmmi10-78" transform="translate(52.001953 0)"/>
      <use xlink:href="#Cmmi10-3d" transform="translate(109.082031 0)"/>
      <use xlink:href="#Cmmi10-64" transform="translate(159.082031 0)"/>
      <use xlink:href="#Cmmi10-74" transform="translate(211.083984 0)"/>
     </g>
    </g>
   </g>
  </g>
 </g>
 <defs>
  <clipPath id="pf2274b32db">
   <rect x="35.691294" y="7.2" width="397.700192" height="324"/>
  </clipPath>
 </defs>
</svg>
