<?xml version="1.0" encoding="utf-8" standalone="no"?>
<!DOCTYPE svg PUBLIC "-//W3C//DTD SVG 1.1//EN"
  "http://www.w3.org/Graphics/SVG/1.1/DTD/svg11.dtd">
<svg xmlns:xlink="http://www.w3.org/1999/xlink" width="455.267854pt" height="343.560892pt" viewBox="0 0 455.267854 343.560892" xmlns="http://www.w3.org/2000/svg" version="1.1">
 <metadata>
  <rdf:RDF xmlns:dc="http://purl.org/dc/elements/1.1/" xmlns:cc="http://creativecommons.org/ns#" xmlns:rdf="http://www.w3.org/1999/02/22-rdf-syntax-ns#">
   <cc:Work>
    <dc:type rdf:resource="http://purl.org/dc/dcmitype/StillImage"/>
    <dc:date>2022-06-16T22:07:08.165935</dc:date>
    <dc:format>image/svg+xml</dc:format>
    <dc:creator>
     <cc:Agent>
      <dc:title>Matplotlib v3.5.1, https://matplotlib.org/</dc:title>
     </cc:Agent>
    </dc:creator>
   </cc:Work>
  </rdf:RDF>
 </metadata>
 <defs>
  <style type="text/css">*{stroke-linejoin: round; stroke-linecap: butt}</style>
 </defs>
 <g id="figure_1">
  <g id="patch_1">
   <path d="M 0 343.560892 
L 455.267854 343.560892 
L 455.267854 0 
L 0 0 
z
" style="fill: #ffffff"/>
  </g>
  <g id="axes_1">
   <g id="patch_2">
    <path d="M 108.538277 334.688171 
L 434.147854 334.688171 
L 434.147854 31.2 
L 108.538277 31.2 
z
" style="fill: #ffffff"/>
   </g>
   <g id="matplotlib.axis_1">
    <g id="xtick_1">
     <g id="line2d_1">
      <defs>
       <path id="m203aaf732b" d="M 0 0 
L 0 3.5 
" style="stroke: #000000; stroke-width: 0.8"/>
      </defs>
      <g>
       <use xlink:href="#m203aaf732b" x="114.8" y="247.083597" style="stroke: #000000; stroke-width: 0.8"/>
      </g>
     </g>
    </g>
    <g id="xtick_2">
     <g id="line2d_2">
      <g>
       <use xlink:href="#m203aaf732b" x="219.162044" y="247.083597" style="stroke: #000000; stroke-width: 0.8"/>
      </g>
     </g>
     <g id="text_1">
      <!-- $\pi$ -->
      <g transform="translate(216.312044 261.682035)scale(0.1 -0.1)">
       <defs>
        <path id="Cmmi10-bc" d="M 647 109 
Q 647 144 672 213 
Q 850 584 1004 942 
Q 1159 1300 1282 1639 
Q 1406 1978 1509 2363 
L 1100 2363 
Q 866 2363 662 2216 
Q 459 2069 325 1844 
Q 313 1819 288 1819 
L 213 1819 
Q 153 1819 153 1881 
Q 153 1894 166 1919 
Q 375 2275 614 2517 
Q 853 2759 1153 2759 
L 3475 2759 
Q 3541 2759 3587 2715 
Q 3634 2672 3634 2597 
Q 3634 2503 3567 2433 
Q 3500 2363 3406 2363 
L 2591 2363 
Q 2488 1859 2478 1381 
Q 2478 766 2694 269 
Q 2713 231 2713 191 
Q 2713 122 2672 62 
Q 2631 3 2567 -34 
Q 2503 -72 2431 -72 
Q 2263 -72 2200 203 
Q 2138 478 2138 738 
Q 2138 1103 2200 1442 
Q 2263 1781 2400 2363 
L 1703 2363 
Q 1197 313 1094 103 
Q 1003 -72 844 -72 
Q 766 -72 706 -20 
Q 647 31 647 109 
z
" transform="scale(0.015625)"/>
       </defs>
       <use xlink:href="#Cmmi10-bc" transform="translate(0 0.890625)"/>
      </g>
     </g>
    </g>
    <g id="xtick_3">
     <g id="line2d_3">
      <g>
       <use xlink:href="#m203aaf732b" x="323.524088" y="247.083597" style="stroke: #000000; stroke-width: 0.8"/>
      </g>
     </g>
     <g id="text_2">
      <!-- $2 \, \pi$ -->
      <g transform="translate(317.424088 261.682035)scale(0.1 -0.1)">
       <defs>
        <path id="Cmr10-32" d="M 319 0 
L 319 172 
Q 319 188 331 206 
L 1325 1306 
Q 1550 1550 1690 1715 
Q 1831 1881 1968 2097 
Q 2106 2313 2186 2536 
Q 2266 2759 2266 3009 
Q 2266 3272 2169 3511 
Q 2072 3750 1880 3894 
Q 1688 4038 1416 4038 
Q 1138 4038 916 3870 
Q 694 3703 603 3438 
Q 628 3444 672 3444 
Q 816 3444 917 3347 
Q 1019 3250 1019 3097 
Q 1019 2950 917 2848 
Q 816 2747 672 2747 
Q 522 2747 420 2851 
Q 319 2956 319 3097 
Q 319 3338 409 3548 
Q 500 3759 670 3923 
Q 841 4088 1055 4175 
Q 1269 4263 1509 4263 
Q 1875 4263 2190 4108 
Q 2506 3953 2690 3670 
Q 2875 3388 2875 3009 
Q 2875 2731 2753 2481 
Q 2631 2231 2440 2026 
Q 2250 1822 1953 1562 
Q 1656 1303 1563 1216 
L 838 519 
L 1453 519 
Q 1906 519 2211 526 
Q 2516 534 2534 550 
Q 2609 631 2688 1141 
L 2875 1141 
L 2694 0 
L 319 0 
z
" transform="scale(0.015625)"/>
       </defs>
       <use xlink:href="#Cmr10-32" transform="translate(0 0.390625)"/>
       <use xlink:href="#Cmmi10-bc" transform="translate(64.632454 0.390625)"/>
      </g>
     </g>
    </g>
    <g id="xtick_4">
     <g id="line2d_4">
      <g>
       <use xlink:href="#m203aaf732b" x="427.886132" y="247.083597" style="stroke: #000000; stroke-width: 0.8"/>
      </g>
     </g>
     <g id="text_3">
      <!-- $3 \, \pi$ -->
      <g transform="translate(421.786132 261.682035)scale(0.1 -0.1)">
       <defs>
        <path id="Cmr10-33" d="M 609 494 
Q 759 275 1012 169 
Q 1266 63 1556 63 
Q 1928 63 2084 380 
Q 2241 697 2241 1100 
Q 2241 1281 2208 1462 
Q 2175 1644 2097 1800 
Q 2019 1956 1883 2050 
Q 1747 2144 1550 2144 
L 1125 2144 
Q 1069 2144 1069 2203 
L 1069 2259 
Q 1069 2309 1125 2309 
L 1478 2338 
Q 1703 2338 1851 2506 
Q 2000 2675 2069 2917 
Q 2138 3159 2138 3378 
Q 2138 3684 1994 3881 
Q 1850 4078 1556 4078 
Q 1313 4078 1091 3986 
Q 869 3894 738 3706 
Q 750 3709 759 3711 
Q 769 3713 781 3713 
Q 925 3713 1022 3613 
Q 1119 3513 1119 3372 
Q 1119 3234 1022 3134 
Q 925 3034 781 3034 
Q 641 3034 541 3134 
Q 441 3234 441 3372 
Q 441 3647 606 3850 
Q 772 4053 1033 4158 
Q 1294 4263 1556 4263 
Q 1750 4263 1965 4205 
Q 2181 4147 2356 4039 
Q 2531 3931 2642 3762 
Q 2753 3594 2753 3378 
Q 2753 3109 2633 2881 
Q 2513 2653 2303 2487 
Q 2094 2322 1844 2241 
Q 2122 2188 2372 2031 
Q 2622 1875 2773 1631 
Q 2925 1388 2925 1106 
Q 2925 753 2731 467 
Q 2538 181 2222 20 
Q 1906 -141 1556 -141 
Q 1256 -141 954 -26 
Q 653 88 461 316 
Q 269 544 269 863 
Q 269 1022 375 1128 
Q 481 1234 641 1234 
Q 744 1234 830 1186 
Q 916 1138 964 1050 
Q 1013 963 1013 863 
Q 1013 706 903 600 
Q 794 494 641 494 
L 609 494 
z
" transform="scale(0.015625)"/>
       </defs>
       <use xlink:href="#Cmr10-33" transform="translate(0 0.390625)"/>
       <use xlink:href="#Cmmi10-bc" transform="translate(64.632454 0.390625)"/>
      </g>
     </g>
    </g>
    <g id="xtick_5">
     <g id="line2d_5">
      <defs>
       <path id="m331b87f02d" d="M 0 0 
L 0 2 
" style="stroke: #000000; stroke-width: 0.6"/>
      </defs>
      <g>
       <use xlink:href="#m331b87f02d" x="140.890511" y="247.083597" style="stroke: #000000; stroke-width: 0.6"/>
      </g>
     </g>
    </g>
    <g id="xtick_6">
     <g id="line2d_6">
      <g>
       <use xlink:href="#m331b87f02d" x="166.981022" y="247.083597" style="stroke: #000000; stroke-width: 0.6"/>
      </g>
     </g>
    </g>
    <g id="xtick_7">
     <g id="line2d_7">
      <g>
       <use xlink:href="#m331b87f02d" x="193.071533" y="247.083597" style="stroke: #000000; stroke-width: 0.6"/>
      </g>
     </g>
    </g>
    <g id="xtick_8">
     <g id="line2d_8">
      <g>
       <use xlink:href="#m331b87f02d" x="245.252555" y="247.083597" style="stroke: #000000; stroke-width: 0.6"/>
      </g>
     </g>
    </g>
    <g id="xtick_9">
     <g id="line2d_9">
      <g>
       <use xlink:href="#m331b87f02d" x="271.343066" y="247.083597" style="stroke: #000000; stroke-width: 0.6"/>
      </g>
     </g>
    </g>
    <g id="xtick_10">
     <g id="line2d_10">
      <g>
       <use xlink:href="#m331b87f02d" x="297.433577" y="247.083597" style="stroke: #000000; stroke-width: 0.6"/>
      </g>
     </g>
    </g>
    <g id="xtick_11">
     <g id="line2d_11">
      <g>
       <use xlink:href="#m331b87f02d" x="349.614599" y="247.083597" style="stroke: #000000; stroke-width: 0.6"/>
      </g>
     </g>
    </g>
    <g id="xtick_12">
     <g id="line2d_12">
      <g>
       <use xlink:href="#m331b87f02d" x="375.70511" y="247.083597" style="stroke: #000000; stroke-width: 0.6"/>
      </g>
     </g>
    </g>
    <g id="xtick_13">
     <g id="line2d_13">
      <g>
       <use xlink:href="#m331b87f02d" x="401.795621" y="247.083597" style="stroke: #000000; stroke-width: 0.6"/>
      </g>
     </g>
    </g>
    <g id="text_4">
     <!-- $t$ -->
     <g transform="translate(442.147854 247.083597)scale(0.16 -0.16)">
      <defs>
       <path id="Cmmi10-74" d="M 397 519 
Q 397 613 416 697 
L 878 2534 
L 206 2534 
Q 141 2534 141 2619 
Q 166 2759 225 2759 
L 934 2759 
L 1191 3803 
Q 1216 3888 1291 3947 
Q 1366 4006 1459 4006 
Q 1541 4006 1595 3957 
Q 1650 3909 1650 3828 
Q 1650 3809 1648 3798 
Q 1647 3788 1644 3775 
L 1388 2759 
L 2047 2759 
Q 2113 2759 2113 2675 
Q 2109 2659 2100 2621 
Q 2091 2584 2075 2559 
Q 2059 2534 2028 2534 
L 1331 2534 
L 872 684 
Q 825 503 825 372 
Q 825 97 1013 97 
Q 1294 97 1511 361 
Q 1728 625 1844 941 
Q 1869 978 1894 978 
L 1972 978 
Q 1997 978 2012 961 
Q 2028 944 2028 922 
Q 2028 909 2022 903 
Q 1881 516 1612 222 
Q 1344 -72 997 -72 
Q 744 -72 570 93 
Q 397 259 397 519 
z
" transform="scale(0.015625)"/>
      </defs>
      <use xlink:href="#Cmmi10-74" transform="translate(0 0.40625)"/>
     </g>
    </g>
   </g>
   <g id="matplotlib.axis_2">
    <g id="ytick_1">
     <g id="line2d_14">
      <defs>
       <path id="m34a17ab1b5" d="M 0 0 
L -3.5 0 
" style="stroke: #000000; stroke-width: 0.8"/>
      </defs>
      <g>
       <use xlink:href="#m34a17ab1b5" x="114.8" y="330.481986" style="stroke: #000000; stroke-width: 0.8"/>
      </g>
     </g>
     <g id="text_5">
      <!-- $-0.20000000000000004$ -->
      <g transform="translate(7.2 334.281205)scale(0.1 -0.1)">
       <defs>
        <path id="Cmsy10-a1" d="M 653 1472 
Q 600 1472 565 1512 
Q 531 1553 531 1600 
Q 531 1647 565 1687 
Q 600 1728 653 1728 
L 4325 1728 
Q 4375 1728 4408 1687 
Q 4441 1647 4441 1600 
Q 4441 1553 4408 1512 
Q 4375 1472 4325 1472 
L 653 1472 
z
" transform="scale(0.015625)"/>
        <path id="Cmr10-30" d="M 1600 -141 
Q 816 -141 533 504 
Q 250 1150 250 2041 
Q 250 2597 351 3087 
Q 453 3578 754 3920 
Q 1056 4263 1600 4263 
Q 2022 4263 2290 4056 
Q 2559 3850 2700 3523 
Q 2841 3197 2892 2823 
Q 2944 2450 2944 2041 
Q 2944 1491 2842 1011 
Q 2741 531 2444 195 
Q 2147 -141 1600 -141 
z
M 1600 25 
Q 1956 25 2131 390 
Q 2306 756 2347 1200 
Q 2388 1644 2388 2144 
Q 2388 2625 2347 3031 
Q 2306 3438 2132 3767 
Q 1959 4097 1600 4097 
Q 1238 4097 1063 3765 
Q 888 3434 847 3029 
Q 806 2625 806 2144 
Q 806 1788 823 1472 
Q 841 1156 916 820 
Q 991 484 1158 254 
Q 1325 25 1600 25 
z
" transform="scale(0.015625)"/>
        <path id="Cmmi10-3a" d="M 538 353 
Q 538 497 644 600 
Q 750 703 891 703 
Q 978 703 1062 656 
Q 1147 609 1194 525 
Q 1241 441 1241 353 
Q 1241 213 1137 106 
Q 1034 0 891 0 
Q 750 0 644 106 
Q 538 213 538 353 
z
" transform="scale(0.015625)"/>
        <path id="Cmr10-34" d="M 178 1056 
L 178 1281 
L 2156 4231 
Q 2178 4263 2222 4263 
L 2316 4263 
Q 2388 4263 2388 4191 
L 2388 1281 
L 3016 1281 
L 3016 1056 
L 2388 1056 
L 2388 428 
Q 2388 297 2575 261 
Q 2763 225 3009 225 
L 3009 0 
L 1247 0 
L 1247 225 
Q 1494 225 1681 261 
Q 1869 297 1869 428 
L 1869 1056 
L 178 1056 
z
M 391 1281 
L 1906 1281 
L 1906 3547 
L 391 1281 
z
" transform="scale(0.015625)"/>
       </defs>
       <use xlink:href="#Cmsy10-a1" transform="translate(0 0.390625)"/>
       <use xlink:href="#Cmr10-30" transform="translate(77.685547 0.390625)"/>
       <use xlink:href="#Cmmi10-3a" transform="translate(127.685547 0.390625)"/>
       <use xlink:href="#Cmr10-32" transform="translate(155.371094 0.390625)"/>
       <use xlink:href="#Cmr10-30" transform="translate(205.371094 0.390625)"/>
       <use xlink:href="#Cmr10-30" transform="translate(255.371094 0.390625)"/>
       <use xlink:href="#Cmr10-30" transform="translate(305.371094 0.390625)"/>
       <use xlink:href="#Cmr10-30" transform="translate(355.371094 0.390625)"/>
       <use xlink:href="#Cmr10-30" transform="translate(405.371094 0.390625)"/>
       <use xlink:href="#Cmr10-30" transform="translate(455.371094 0.390625)"/>
       <use xlink:href="#Cmr10-30" transform="translate(505.371094 0.390625)"/>
       <use xlink:href="#Cmr10-30" transform="translate(555.371094 0.390625)"/>
       <use xlink:href="#Cmr10-30" transform="translate(605.371094 0.390625)"/>
       <use xlink:href="#Cmr10-30" transform="translate(655.371094 0.390625)"/>
       <use xlink:href="#Cmr10-30" transform="translate(705.371094 0.390625)"/>
       <use xlink:href="#Cmr10-30" transform="translate(755.371094 0.390625)"/>
       <use xlink:href="#Cmr10-30" transform="translate(805.371094 0.390625)"/>
       <use xlink:href="#Cmr10-30" transform="translate(855.371094 0.390625)"/>
       <use xlink:href="#Cmr10-30" transform="translate(905.371094 0.390625)"/>
       <use xlink:href="#Cmr10-34" transform="translate(955.371094 0.390625)"/>
      </g>
     </g>
    </g>
    <g id="ytick_2">
     <g id="line2d_15">
      <g>
       <use xlink:href="#m34a17ab1b5" x="114.8" y="288.782792" style="stroke: #000000; stroke-width: 0.8"/>
      </g>
     </g>
     <g id="text_6">
      <!-- $-0.10000000000000003$ -->
      <g transform="translate(7.2 292.58201)scale(0.1 -0.1)">
       <defs>
        <path id="Cmr10-31" d="M 594 0 
L 594 225 
Q 1394 225 1394 428 
L 1394 3788 
Q 1063 3628 556 3628 
L 556 3853 
Q 1341 3853 1741 4263 
L 1831 4263 
Q 1853 4263 1873 4245 
Q 1894 4228 1894 4206 
L 1894 428 
Q 1894 225 2694 225 
L 2694 0 
L 594 0 
z
" transform="scale(0.015625)"/>
       </defs>
       <use xlink:href="#Cmsy10-a1" transform="translate(0 0.390625)"/>
       <use xlink:href="#Cmr10-30" transform="translate(77.685547 0.390625)"/>
       <use xlink:href="#Cmmi10-3a" transform="translate(127.685547 0.390625)"/>
       <use xlink:href="#Cmr10-31" transform="translate(155.371094 0.390625)"/>
       <use xlink:href="#Cmr10-30" transform="translate(205.371094 0.390625)"/>
       <use xlink:href="#Cmr10-30" transform="translate(255.371094 0.390625)"/>
       <use xlink:href="#Cmr10-30" transform="translate(305.371094 0.390625)"/>
       <use xlink:href="#Cmr10-30" transform="translate(355.371094 0.390625)"/>
       <use xlink:href="#Cmr10-30" transform="translate(405.371094 0.390625)"/>
       <use xlink:href="#Cmr10-30" transform="translate(455.371094 0.390625)"/>
       <use xlink:href="#Cmr10-30" transform="translate(505.371094 0.390625)"/>
       <use xlink:href="#Cmr10-30" transform="translate(555.371094 0.390625)"/>
       <use xlink:href="#Cmr10-30" transform="translate(605.371094 0.390625)"/>
       <use xlink:href="#Cmr10-30" transform="translate(655.371094 0.390625)"/>
       <use xlink:href="#Cmr10-30" transform="translate(705.371094 0.390625)"/>
       <use xlink:href="#Cmr10-30" transform="translate(755.371094 0.390625)"/>
       <use xlink:href="#Cmr10-30" transform="translate(805.371094 0.390625)"/>
       <use xlink:href="#Cmr10-30" transform="translate(855.371094 0.390625)"/>
       <use xlink:href="#Cmr10-30" transform="translate(905.371094 0.390625)"/>
       <use xlink:href="#Cmr10-33" transform="translate(955.371094 0.390625)"/>
      </g>
     </g>
    </g>
    <g id="ytick_3">
     <g id="line2d_16">
      <g>
       <use xlink:href="#m34a17ab1b5" x="114.8" y="247.083597" style="stroke: #000000; stroke-width: 0.8"/>
      </g>
     </g>
    </g>
    <g id="ytick_4">
     <g id="line2d_17">
      <g>
       <use xlink:href="#m34a17ab1b5" x="114.8" y="205.384403" style="stroke: #000000; stroke-width: 0.8"/>
      </g>
     </g>
     <g id="text_7">
      <!-- $0.09999999999999998$ -->
      <g transform="translate(15 209.183622)scale(0.1 -0.1)">
       <defs>
        <path id="Cmr10-39" d="M 722 269 
Q 897 63 1331 63 
Q 1575 63 1786 228 
Q 1997 394 2113 634 
Q 2247 906 2284 1214 
Q 2322 1522 2322 1978 
Q 2213 1719 2008 1553 
Q 1803 1388 1538 1388 
Q 1166 1388 873 1589 
Q 581 1791 425 2120 
Q 269 2450 269 2822 
Q 269 3206 444 3539 
Q 619 3872 928 4067 
Q 1238 4263 1631 4263 
Q 2019 4263 2280 4052 
Q 2541 3841 2678 3508 
Q 2816 3175 2870 2803 
Q 2925 2431 2925 2069 
Q 2925 1575 2744 1061 
Q 2563 547 2202 203 
Q 1841 -141 1331 -141 
Q 953 -141 690 37 
Q 428 216 428 575 
Q 428 706 517 795 
Q 606 884 738 884 
Q 866 884 955 795 
Q 1044 706 1044 575 
Q 1044 450 953 359 
Q 863 269 738 269 
L 722 269 
z
M 1563 1556 
Q 1825 1556 1992 1732 
Q 2159 1909 2234 2171 
Q 2309 2434 2309 2694 
L 2309 2816 
L 2309 2841 
Q 2309 3322 2168 3700 
Q 2028 4078 1631 4078 
Q 1378 4078 1220 3967 
Q 1063 3856 988 3672 
Q 913 3488 892 3278 
Q 872 3069 872 2822 
Q 872 2459 906 2203 
Q 941 1947 1094 1751 
Q 1247 1556 1563 1556 
z
" transform="scale(0.015625)"/>
        <path id="Cmr10-38" d="M 269 972 
Q 269 1356 522 1651 
Q 775 1947 1172 2144 
L 934 2297 
Q 716 2441 578 2680 
Q 441 2919 441 3181 
Q 441 3488 602 3734 
Q 763 3981 1030 4122 
Q 1297 4263 1600 4263 
Q 1884 4263 2148 4147 
Q 2413 4031 2583 3815 
Q 2753 3600 2753 3303 
Q 2753 3088 2651 2903 
Q 2550 2719 2373 2572 
Q 2197 2425 1997 2322 
L 2363 2088 
Q 2616 1922 2770 1653 
Q 2925 1384 2925 1088 
Q 2925 741 2739 456 
Q 2553 172 2247 15 
Q 1941 -141 1600 -141 
Q 1269 -141 961 -6 
Q 653 128 461 383 
Q 269 638 269 972 
z
M 616 972 
Q 616 719 755 509 
Q 894 300 1122 181 
Q 1350 63 1600 63 
Q 1972 63 2275 280 
Q 2578 497 2578 856 
Q 2578 978 2529 1098 
Q 2481 1219 2395 1317 
Q 2309 1416 2203 1478 
L 1344 2034 
Q 1144 1928 976 1765 
Q 809 1603 712 1400 
Q 616 1197 616 972 
z
M 1056 2925 
L 1831 2425 
Q 2100 2581 2272 2803 
Q 2444 3025 2444 3303 
Q 2444 3519 2323 3698 
Q 2203 3878 2009 3978 
Q 1816 4078 1594 4078 
Q 1400 4078 1203 4003 
Q 1006 3928 878 3779 
Q 750 3631 750 3431 
Q 750 3131 1056 2925 
z
" transform="scale(0.015625)"/>
       </defs>
       <use xlink:href="#Cmr10-30" transform="translate(0 0.390625)"/>
       <use xlink:href="#Cmmi10-3a" transform="translate(50 0.390625)"/>
       <use xlink:href="#Cmr10-30" transform="translate(77.685547 0.390625)"/>
       <use xlink:href="#Cmr10-39" transform="translate(127.685547 0.390625)"/>
       <use xlink:href="#Cmr10-39" transform="translate(177.685547 0.390625)"/>
       <use xlink:href="#Cmr10-39" transform="translate(227.685547 0.390625)"/>
       <use xlink:href="#Cmr10-39" transform="translate(277.685547 0.390625)"/>
       <use xlink:href="#Cmr10-39" transform="translate(327.685547 0.390625)"/>
       <use xlink:href="#Cmr10-39" transform="translate(377.685547 0.390625)"/>
       <use xlink:href="#Cmr10-39" transform="translate(427.685547 0.390625)"/>
       <use xlink:href="#Cmr10-39" transform="translate(477.685547 0.390625)"/>
       <use xlink:href="#Cmr10-39" transform="translate(527.685547 0.390625)"/>
       <use xlink:href="#Cmr10-39" transform="translate(577.685547 0.390625)"/>
       <use xlink:href="#Cmr10-39" transform="translate(627.685547 0.390625)"/>
       <use xlink:href="#Cmr10-39" transform="translate(677.685547 0.390625)"/>
       <use xlink:href="#Cmr10-39" transform="translate(727.685547 0.390625)"/>
       <use xlink:href="#Cmr10-39" transform="translate(777.685547 0.390625)"/>
       <use xlink:href="#Cmr10-39" transform="translate(827.685547 0.390625)"/>
       <use xlink:href="#Cmr10-38" transform="translate(877.685547 0.390625)"/>
      </g>
     </g>
    </g>
    <g id="ytick_5">
     <g id="line2d_18">
      <g>
       <use xlink:href="#m34a17ab1b5" x="114.8" y="163.685209" style="stroke: #000000; stroke-width: 0.8"/>
      </g>
     </g>
     <g id="text_8">
      <!-- $0.19999999999999996$ -->
      <g transform="translate(15 167.484427)scale(0.1 -0.1)">
       <defs>
        <path id="Cmr10-36" d="M 1600 -141 
Q 1203 -141 937 70 
Q 672 281 526 617 
Q 381 953 325 1322 
Q 269 1691 269 2069 
Q 269 2575 466 3084 
Q 663 3594 1045 3928 
Q 1428 4263 1953 4263 
Q 2172 4263 2361 4180 
Q 2550 4097 2658 3936 
Q 2766 3775 2766 3547 
Q 2766 3416 2677 3327 
Q 2588 3238 2456 3238 
Q 2331 3238 2240 3328 
Q 2150 3419 2150 3547 
Q 2150 3672 2240 3762 
Q 2331 3853 2456 3853 
L 2491 3853 
Q 2409 3969 2261 4023 
Q 2113 4078 1953 4078 
Q 1759 4078 1595 3993 
Q 1431 3909 1300 3765 
Q 1169 3622 1081 3448 
Q 994 3275 945 3053 
Q 897 2831 884 2637 
Q 872 2444 872 2150 
Q 984 2413 1190 2580 
Q 1397 2747 1656 2747 
Q 1941 2747 2175 2631 
Q 2409 2516 2578 2311 
Q 2747 2106 2836 1843 
Q 2925 1581 2925 1313 
Q 2925 938 2758 598 
Q 2591 259 2287 59 
Q 1984 -141 1600 -141 
z
M 1600 63 
Q 1847 63 1997 175 
Q 2147 288 2217 473 
Q 2288 659 2305 848 
Q 2322 1038 2322 1313 
Q 2322 1675 2287 1931 
Q 2253 2188 2100 2383 
Q 1947 2578 1631 2578 
Q 1372 2578 1205 2403 
Q 1038 2228 961 1961 
Q 884 1694 884 1447 
Q 884 1363 891 1319 
Q 891 1309 889 1303 
Q 888 1297 884 1288 
Q 884 1013 940 731 
Q 997 450 1156 256 
Q 1316 63 1600 63 
z
" transform="scale(0.015625)"/>
       </defs>
       <use xlink:href="#Cmr10-30" transform="translate(0 0.390625)"/>
       <use xlink:href="#Cmmi10-3a" transform="translate(50 0.390625)"/>
       <use xlink:href="#Cmr10-31" transform="translate(77.685547 0.390625)"/>
       <use xlink:href="#Cmr10-39" transform="translate(127.685547 0.390625)"/>
       <use xlink:href="#Cmr10-39" transform="translate(177.685547 0.390625)"/>
       <use xlink:href="#Cmr10-39" transform="translate(227.685547 0.390625)"/>
       <use xlink:href="#Cmr10-39" transform="translate(277.685547 0.390625)"/>
       <use xlink:href="#Cmr10-39" transform="translate(327.685547 0.390625)"/>
       <use xlink:href="#Cmr10-39" transform="translate(377.685547 0.390625)"/>
       <use xlink:href="#Cmr10-39" transform="translate(427.685547 0.390625)"/>
       <use xlink:href="#Cmr10-39" transform="translate(477.685547 0.390625)"/>
       <use xlink:href="#Cmr10-39" transform="translate(527.685547 0.390625)"/>
       <use xlink:href="#Cmr10-39" transform="translate(577.685547 0.390625)"/>
       <use xlink:href="#Cmr10-39" transform="translate(627.685547 0.390625)"/>
       <use xlink:href="#Cmr10-39" transform="translate(677.685547 0.390625)"/>
       <use xlink:href="#Cmr10-39" transform="translate(727.685547 0.390625)"/>
       <use xlink:href="#Cmr10-39" transform="translate(777.685547 0.390625)"/>
       <use xlink:href="#Cmr10-39" transform="translate(827.685547 0.390625)"/>
       <use xlink:href="#Cmr10-36" transform="translate(877.685547 0.390625)"/>
      </g>
     </g>
    </g>
    <g id="ytick_6">
     <g id="line2d_19">
      <g>
       <use xlink:href="#m34a17ab1b5" x="114.8" y="121.986014" style="stroke: #000000; stroke-width: 0.8"/>
      </g>
     </g>
     <g id="text_9">
      <!-- $0.30000000000000004$ -->
      <g transform="translate(15 125.785233)scale(0.1 -0.1)">
       <use xlink:href="#Cmr10-30" transform="translate(0 0.390625)"/>
       <use xlink:href="#Cmmi10-3a" transform="translate(50 0.390625)"/>
       <use xlink:href="#Cmr10-33" transform="translate(77.685547 0.390625)"/>
       <use xlink:href="#Cmr10-30" transform="translate(127.685547 0.390625)"/>
       <use xlink:href="#Cmr10-30" transform="translate(177.685547 0.390625)"/>
       <use xlink:href="#Cmr10-30" transform="translate(227.685547 0.390625)"/>
       <use xlink:href="#Cmr10-30" transform="translate(277.685547 0.390625)"/>
       <use xlink:href="#Cmr10-30" transform="translate(327.685547 0.390625)"/>
       <use xlink:href="#Cmr10-30" transform="translate(377.685547 0.390625)"/>
       <use xlink:href="#Cmr10-30" transform="translate(427.685547 0.390625)"/>
       <use xlink:href="#Cmr10-30" transform="translate(477.685547 0.390625)"/>
       <use xlink:href="#Cmr10-30" transform="translate(527.685547 0.390625)"/>
       <use xlink:href="#Cmr10-30" transform="translate(577.685547 0.390625)"/>
       <use xlink:href="#Cmr10-30" transform="translate(627.685547 0.390625)"/>
       <use xlink:href="#Cmr10-30" transform="translate(677.685547 0.390625)"/>
       <use xlink:href="#Cmr10-30" transform="translate(727.685547 0.390625)"/>
       <use xlink:href="#Cmr10-30" transform="translate(777.685547 0.390625)"/>
       <use xlink:href="#Cmr10-30" transform="translate(827.685547 0.390625)"/>
       <use xlink:href="#Cmr10-34" transform="translate(877.685547 0.390625)"/>
      </g>
     </g>
    </g>
    <g id="ytick_7">
     <g id="line2d_20">
      <g>
       <use xlink:href="#m34a17ab1b5" x="114.8" y="80.28682" style="stroke: #000000; stroke-width: 0.8"/>
      </g>
     </g>
     <g id="text_10">
      <!-- $0.4$ -->
      <g transform="translate(95 84.086039)scale(0.1 -0.1)">
       <use xlink:href="#Cmr10-30" transform="translate(0 0.390625)"/>
       <use xlink:href="#Cmmi10-3a" transform="translate(50 0.390625)"/>
       <use xlink:href="#Cmr10-34" transform="translate(77.685547 0.390625)"/>
      </g>
     </g>
    </g>
    <g id="ytick_8">
     <g id="line2d_21">
      <g>
       <use xlink:href="#m34a17ab1b5" x="114.8" y="38.587626" style="stroke: #000000; stroke-width: 0.8"/>
      </g>
     </g>
     <g id="text_11">
      <!-- $0.5$ -->
      <g transform="translate(95 42.386844)scale(0.1 -0.1)">
       <defs>
        <path id="Cmr10-35" d="M 556 728 
Q 622 541 758 387 
Q 894 234 1080 148 
Q 1266 63 1466 63 
Q 1928 63 2103 422 
Q 2278 781 2278 1294 
Q 2278 1516 2270 1667 
Q 2263 1819 2228 1959 
Q 2169 2184 2020 2353 
Q 1872 2522 1656 2522 
Q 1441 2522 1286 2456 
Q 1131 2391 1034 2303 
Q 938 2216 863 2119 
Q 788 2022 769 2016 
L 697 2016 
Q 681 2016 657 2036 
Q 634 2056 634 2075 
L 634 4213 
Q 634 4228 654 4245 
Q 675 4263 697 4263 
L 716 4263 
Q 1147 4056 1631 4056 
Q 2106 4056 2547 4263 
L 2566 4263 
Q 2588 4263 2606 4247 
Q 2625 4231 2625 4213 
L 2625 4153 
Q 2625 4122 2613 4122 
Q 2394 3831 2064 3668 
Q 1734 3506 1381 3506 
Q 1125 3506 856 3578 
L 856 2369 
Q 1069 2541 1236 2614 
Q 1403 2688 1663 2688 
Q 2016 2688 2295 2484 
Q 2575 2281 2725 1954 
Q 2875 1628 2875 1288 
Q 2875 903 2686 575 
Q 2497 247 2172 53 
Q 1847 -141 1466 -141 
Q 1150 -141 886 21 
Q 622 184 470 459 
Q 319 734 319 1044 
Q 319 1188 412 1278 
Q 506 1369 647 1369 
Q 788 1369 883 1276 
Q 978 1184 978 1044 
Q 978 906 883 811 
Q 788 716 647 716 
Q 625 716 597 720 
Q 569 725 556 728 
z
" transform="scale(0.015625)"/>
       </defs>
       <use xlink:href="#Cmr10-30" transform="translate(0 0.390625)"/>
       <use xlink:href="#Cmmi10-3a" transform="translate(50 0.390625)"/>
       <use xlink:href="#Cmr10-35" transform="translate(77.685547 0.390625)"/>
      </g>
     </g>
    </g>
    <g id="ytick_9">
     <g id="line2d_22">
      <defs>
       <path id="mdd97089503" d="M 0 0 
L -2 0 
" style="stroke: #000000; stroke-width: 0.6"/>
      </defs>
      <g>
       <use xlink:href="#mdd97089503" x="114.8" y="322.142147" style="stroke: #000000; stroke-width: 0.6"/>
      </g>
     </g>
    </g>
    <g id="ytick_10">
     <g id="line2d_23">
      <g>
       <use xlink:href="#mdd97089503" x="114.8" y="313.802308" style="stroke: #000000; stroke-width: 0.6"/>
      </g>
     </g>
    </g>
    <g id="ytick_11">
     <g id="line2d_24">
      <g>
       <use xlink:href="#mdd97089503" x="114.8" y="305.462469" style="stroke: #000000; stroke-width: 0.6"/>
      </g>
     </g>
    </g>
    <g id="ytick_12">
     <g id="line2d_25">
      <g>
       <use xlink:href="#mdd97089503" x="114.8" y="297.122631" style="stroke: #000000; stroke-width: 0.6"/>
      </g>
     </g>
    </g>
    <g id="ytick_13">
     <g id="line2d_26">
      <g>
       <use xlink:href="#mdd97089503" x="114.8" y="280.442953" style="stroke: #000000; stroke-width: 0.6"/>
      </g>
     </g>
    </g>
    <g id="ytick_14">
     <g id="line2d_27">
      <g>
       <use xlink:href="#mdd97089503" x="114.8" y="272.103114" style="stroke: #000000; stroke-width: 0.6"/>
      </g>
     </g>
    </g>
    <g id="ytick_15">
     <g id="line2d_28">
      <g>
       <use xlink:href="#mdd97089503" x="114.8" y="263.763275" style="stroke: #000000; stroke-width: 0.6"/>
      </g>
     </g>
    </g>
    <g id="ytick_16">
     <g id="line2d_29">
      <g>
       <use xlink:href="#mdd97089503" x="114.8" y="255.423436" style="stroke: #000000; stroke-width: 0.6"/>
      </g>
     </g>
    </g>
    <g id="ytick_17">
     <g id="line2d_30">
      <g>
       <use xlink:href="#mdd97089503" x="114.8" y="238.743759" style="stroke: #000000; stroke-width: 0.6"/>
      </g>
     </g>
    </g>
    <g id="ytick_18">
     <g id="line2d_31">
      <g>
       <use xlink:href="#mdd97089503" x="114.8" y="230.40392" style="stroke: #000000; stroke-width: 0.6"/>
      </g>
     </g>
    </g>
    <g id="ytick_19">
     <g id="line2d_32">
      <g>
       <use xlink:href="#mdd97089503" x="114.8" y="222.064081" style="stroke: #000000; stroke-width: 0.6"/>
      </g>
     </g>
    </g>
    <g id="ytick_20">
     <g id="line2d_33">
      <g>
       <use xlink:href="#mdd97089503" x="114.8" y="213.724242" style="stroke: #000000; stroke-width: 0.6"/>
      </g>
     </g>
    </g>
    <g id="ytick_21">
     <g id="line2d_34">
      <g>
       <use xlink:href="#mdd97089503" x="114.8" y="197.044564" style="stroke: #000000; stroke-width: 0.6"/>
      </g>
     </g>
    </g>
    <g id="ytick_22">
     <g id="line2d_35">
      <g>
       <use xlink:href="#mdd97089503" x="114.8" y="188.704725" style="stroke: #000000; stroke-width: 0.6"/>
      </g>
     </g>
    </g>
    <g id="ytick_23">
     <g id="line2d_36">
      <g>
       <use xlink:href="#mdd97089503" x="114.8" y="180.364886" style="stroke: #000000; stroke-width: 0.6"/>
      </g>
     </g>
    </g>
    <g id="ytick_24">
     <g id="line2d_37">
      <g>
       <use xlink:href="#mdd97089503" x="114.8" y="172.025048" style="stroke: #000000; stroke-width: 0.6"/>
      </g>
     </g>
    </g>
    <g id="ytick_25">
     <g id="line2d_38">
      <g>
       <use xlink:href="#mdd97089503" x="114.8" y="155.34537" style="stroke: #000000; stroke-width: 0.6"/>
      </g>
     </g>
    </g>
    <g id="ytick_26">
     <g id="line2d_39">
      <g>
       <use xlink:href="#mdd97089503" x="114.8" y="147.005531" style="stroke: #000000; stroke-width: 0.6"/>
      </g>
     </g>
    </g>
    <g id="ytick_27">
     <g id="line2d_40">
      <g>
       <use xlink:href="#mdd97089503" x="114.8" y="138.665692" style="stroke: #000000; stroke-width: 0.6"/>
      </g>
     </g>
    </g>
    <g id="ytick_28">
     <g id="line2d_41">
      <g>
       <use xlink:href="#mdd97089503" x="114.8" y="130.325853" style="stroke: #000000; stroke-width: 0.6"/>
      </g>
     </g>
    </g>
    <g id="ytick_29">
     <g id="line2d_42">
      <g>
       <use xlink:href="#mdd97089503" x="114.8" y="113.646176" style="stroke: #000000; stroke-width: 0.6"/>
      </g>
     </g>
    </g>
    <g id="ytick_30">
     <g id="line2d_43">
      <g>
       <use xlink:href="#mdd97089503" x="114.8" y="105.306337" style="stroke: #000000; stroke-width: 0.6"/>
      </g>
     </g>
    </g>
    <g id="ytick_31">
     <g id="line2d_44">
      <g>
       <use xlink:href="#mdd97089503" x="114.8" y="96.966498" style="stroke: #000000; stroke-width: 0.6"/>
      </g>
     </g>
    </g>
    <g id="ytick_32">
     <g id="line2d_45">
      <g>
       <use xlink:href="#mdd97089503" x="114.8" y="88.626659" style="stroke: #000000; stroke-width: 0.6"/>
      </g>
     </g>
    </g>
    <g id="ytick_33">
     <g id="line2d_46">
      <g>
       <use xlink:href="#mdd97089503" x="114.8" y="71.946981" style="stroke: #000000; stroke-width: 0.6"/>
      </g>
     </g>
    </g>
    <g id="ytick_34">
     <g id="line2d_47">
      <g>
       <use xlink:href="#mdd97089503" x="114.8" y="63.607142" style="stroke: #000000; stroke-width: 0.6"/>
      </g>
     </g>
    </g>
    <g id="ytick_35">
     <g id="line2d_48">
      <g>
       <use xlink:href="#mdd97089503" x="114.8" y="55.267303" style="stroke: #000000; stroke-width: 0.6"/>
      </g>
     </g>
    </g>
    <g id="ytick_36">
     <g id="line2d_49">
      <g>
       <use xlink:href="#mdd97089503" x="114.8" y="46.927465" style="stroke: #000000; stroke-width: 0.6"/>
      </g>
     </g>
    </g>
    <g id="text_12">
     <!-- $x(t)$ -->
     <g transform="translate(101.12 19.2)scale(0.16 -0.16)">
      <defs>
       <path id="Cmmi10-78" d="M 500 184 
Q 613 97 819 97 
Q 1019 97 1172 289 
Q 1325 481 1381 709 
L 1672 1844 
Q 1741 2153 1741 2266 
Q 1741 2425 1652 2544 
Q 1563 2663 1403 2663 
Q 1200 2663 1022 2536 
Q 844 2409 722 2214 
Q 600 2019 550 1819 
Q 538 1778 500 1778 
L 422 1778 
Q 372 1778 372 1838 
L 372 1856 
Q 434 2094 584 2320 
Q 734 2547 951 2687 
Q 1169 2828 1416 2828 
Q 1650 2828 1839 2703 
Q 2028 2578 2106 2363 
Q 2216 2559 2386 2693 
Q 2556 2828 2759 2828 
Q 2897 2828 3040 2779 
Q 3184 2731 3275 2631 
Q 3366 2531 3366 2381 
Q 3366 2219 3261 2101 
Q 3156 1984 2994 1984 
Q 2891 1984 2822 2050 
Q 2753 2116 2753 2216 
Q 2753 2350 2845 2451 
Q 2938 2553 3066 2572 
Q 2950 2663 2747 2663 
Q 2541 2663 2389 2472 
Q 2238 2281 2175 2047 
L 1894 916 
Q 1825 659 1825 494 
Q 1825 331 1917 214 
Q 2009 97 2163 97 
Q 2463 97 2698 361 
Q 2934 625 3009 941 
Q 3022 978 3059 978 
L 3138 978 
Q 3163 978 3178 961 
Q 3194 944 3194 922 
Q 3194 916 3188 903 
Q 3097 522 2806 225 
Q 2516 -72 2150 -72 
Q 1916 -72 1727 54 
Q 1538 181 1459 397 
Q 1359 209 1182 68 
Q 1006 -72 806 -72 
Q 669 -72 523 -23 
Q 378 25 287 125 
Q 197 225 197 378 
Q 197 528 301 651 
Q 406 775 563 775 
Q 669 775 741 711 
Q 813 647 813 544 
Q 813 409 723 309 
Q 634 209 500 184 
z
" transform="scale(0.015625)"/>
       <path id="Cmr10-28" d="M 1984 -1588 
Q 1628 -1306 1370 -942 
Q 1113 -578 948 -165 
Q 784 247 703 697 
Q 622 1147 622 1600 
Q 622 2059 703 2509 
Q 784 2959 951 3375 
Q 1119 3791 1378 4153 
Q 1638 4516 1984 4788 
Q 1984 4800 2016 4800 
L 2075 4800 
Q 2094 4800 2109 4783 
Q 2125 4766 2125 4744 
Q 2125 4716 2113 4703 
Q 1800 4397 1592 4047 
Q 1384 3697 1257 3301 
Q 1131 2906 1075 2482 
Q 1019 2059 1019 1600 
Q 1019 -434 2106 -1491 
Q 2125 -1509 2125 -1544 
Q 2125 -1559 2108 -1579 
Q 2091 -1600 2075 -1600 
L 2016 -1600 
Q 1984 -1600 1984 -1588 
z
" transform="scale(0.015625)"/>
       <path id="Cmr10-29" d="M 416 -1600 
Q 359 -1600 359 -1544 
Q 359 -1516 372 -1503 
Q 1466 -434 1466 1600 
Q 1466 3634 384 4691 
Q 359 4706 359 4744 
Q 359 4766 376 4783 
Q 394 4800 416 4800 
L 475 4800 
Q 494 4800 506 4788 
Q 966 4425 1272 3906 
Q 1578 3388 1720 2800 
Q 1863 2213 1863 1600 
Q 1863 1147 1786 708 
Q 1709 269 1542 -157 
Q 1375 -584 1119 -945 
Q 863 -1306 506 -1588 
Q 494 -1600 475 -1600 
L 416 -1600 
z
" transform="scale(0.015625)"/>
      </defs>
      <use xlink:href="#Cmmi10-78"/>
      <use xlink:href="#Cmr10-28" transform="translate(57.080078 0)"/>
      <use xlink:href="#Cmmi10-74" transform="translate(95.898438 0)"/>
      <use xlink:href="#Cmr10-29" transform="translate(131.982422 0)"/>
     </g>
    </g>
   </g>
   <g id="line2d_50">
    <path d="M 114.8 314.443834 
L 124.282724 151.833359 
L 126.754924 115.276875 
L 128.146057 97.068701 
L 129.599109 80.238565 
L 130.983208 66.530999 
L 132.228622 56.300164 
L 133.314396 49.09799 
L 134.45061 43.335369 
L 135.043938 41.060403 
L 135.651018 39.258195 
L 136.258098 37.98813 
L 136.865178 37.248716 
L 137.472258 37.036311 
L 137.830529 37.155982 
L 138.469036 37.814426 
L 139.107542 39.033766 
L 139.746048 40.80068 
L 140.384554 43.099337 
L 141.070792 46.141752 
L 141.75703 49.751528 
L 142.653923 55.276658 
L 144.013699 65.246014 
L 145.412875 77.24195 
L 146.81205 90.66089 
L 149.178207 115.543474 
L 153.421031 161.659705 
L 155.437634 181.694453 
L 157.334763 198.162602 
L 158.983473 210.049373 
L 160.570965 219.019588 
L 161.34945 222.461489 
L 162.127935 225.249812 
L 162.845353 227.231885 
L 163.569536 228.65752 
L 164.293719 229.506433 
L 165.017902 229.784263 
L 165.742085 229.501128 
L 166.976452 227.768971 
L 167.882537 225.544959 
L 168.788622 222.570837 
L 169.844451 218.239485 
L 170.855577 213.314632 
L 171.997962 206.973247 
L 174.517125 190.913675 
L 178.745344 162.339438 
L 180.729554 150.565045 
L 182.195911 143.319907 
L 183.011372 139.96567 
L 183.826833 137.156896 
L 184.519401 135.232267 
L 185.211969 133.755692 
L 185.844816 132.815253 
L 186.477663 132.278461 
L 187.649479 132.383522 
L 188.821294 133.949385 
L 189.579125 135.747218 
L 190.336955 138.158737 
L 191.21726 141.718797 
L 192.097565 146.072775 
L 193.525856 154.741287 
L 195.235364 167.488316 
L 197.299418 185.74064 
L 199.991726 212.767642 
L 204.040671 255.225016 
L 206.795768 281.437394 
L 208.603289 295.991855 
L 210.516056 308.320688 
L 211.153645 311.629905 
L 212.040619 315.517067 
L 213.383426 319.746889 
L 214.0712 321.118132 
L 214.758975 321.942128 
L 215.834344 322.130214 
L 216.909713 320.986878 
L 217.90645 318.765593 
L 218.903187 315.469165 
L 219.515942 312.932862 
L 220.978141 305.421552 
L 222.440341 296.069301 
L 224.238213 282.512735 
L 226.656095 261.838948 
L 230.537406 227.117074 
L 231.934074 215.429983 
L 234.109537 199.300513 
L 235.702239 189.663298 
L 236.516146 185.588504 
L 237.375751 181.96995 
L 238.235357 179.094572 
L 238.897505 177.406954 
L 239.559653 176.190858 
L 240.329056 175.380824 
L 241.098459 175.226183 
L 241.848599 175.708357 
L 242.502685 176.63631 
L 243.156771 178.031499 
L 243.810857 179.885577 
L 244.464943 182.187315 
L 245.622667 187.313909 
L 246.993573 195.002599 
L 248.627547 206.178516 
L 251.112499 226.418236 
L 258.655675 293.533932 
L 260.477227 306.652175 
L 261.645358 313.716393 
L 262.757734 319.306766 
L 263.70627 323.119275 
L 264.871986 326.522887 
L 266.037703 328.449583 
L 266.639347 328.85186 
L 267.240991 328.847199 
L 268.116654 328.11321 
L 268.992317 326.524285 
L 269.988834 323.697683 
L 270.98535 319.825088 
L 272.490337 312.118251 
L 273.411607 306.389645 
L 274.682452 297.378133 
L 276.999903 278.288641 
L 280.9906 241.249517 
L 282.89078 223.784628 
L 285.666662 200.930625 
L 287.318623 189.739097 
L 288.259211 184.39154 
L 289.1998 179.874235 
L 290.131931 176.272551 
L 291.064061 173.586382 
L 291.937282 171.929833 
L 292.536367 171.284179 
L 293.135452 171.041828 
L 293.734538 171.203788 
L 294.333623 171.768965 
L 294.974107 172.815526 
L 295.61459 174.312769 
L 296.276814 176.324923 
L 296.939038 178.795923 
L 297.707589 182.217631 
L 298.476139 186.205915 
L 299.648345 193.300351 
L 301.697337 208.230122 
L 304.190595 229.556719 
L 309.786078 280.302168 
L 311.989903 297.503427 
L 313.151573 305.231977 
L 314.535803 312.958409 
L 315.227918 316.152625 
L 316.298362 320.146788 
L 317.506638 323.202788 
L 318.280896 324.321383 
L 319.055154 324.771356 
L 319.701124 324.631987 
L 320.347093 324.024946 
L 320.993063 322.953781 
L 321.639033 321.424849 
L 322.312038 319.354901 
L 323.395832 315.033238 
L 324.675992 308.449083 
L 326.719393 295.004363 
L 327.97648 285.240443 
L 330.041194 267.421843 
L 335.984945 213.227338 
L 337.539876 200.791431 
L 338.683558 192.651555 
L 339.82724 185.539268 
L 340.980753 179.543282 
L 341.74528 176.278029 
L 342.509808 173.610825 
L 343.666214 170.761574 
L 344.822619 169.3859 
L 345.780089 169.381822 
L 346.737558 170.406633 
L 347.186052 171.237166 
L 347.858918 172.895864 
L 348.531783 175.039875 
L 349.204648 177.655121 
L 350.094986 181.810284 
L 351.479285 189.733931 
L 353.503652 204.100727 
L 355.531383 221.025271 
L 363.597382 292.700482 
L 364.574926 299.738306 
L 365.799589 307.512356 
L 367.024251 313.970387 
L 368.055691 318.284692 
L 369.17968 321.732006 
L 370.303668 323.810613 
L 371.043366 324.412384 
L 371.920579 324.329494 
L 372.797792 323.383597 
L 373.692567 321.540695 
L 374.587341 318.832348 
L 375.853982 313.581901 
L 376.804165 308.619245 
L 377.955976 301.528868 
L 379.963913 286.753106 
L 382.479884 265.086 
L 388.510254 210.453357 
L 390.208083 197.325826 
L 391.914021 186.219424 
L 392.560046 182.658565 
L 393.719261 177.257355 
L 394.878475 173.212696 
L 395.921932 170.797733 
L 396.96539 169.58423 
L 397.750671 169.475638 
L 398.67819 170.239376 
L 399.605709 171.959758 
L 400.49436 174.485719 
L 401.383011 177.841398 
L 402.200615 181.628846 
L 403.820551 190.962205 
L 405.301759 201.367815 
L 407.910528 222.98707 
L 410.539456 247.1489 
L 414.084931 279.272277 
L 415.885138 293.701839 
L 417.418892 304.297062 
L 418.224889 309.105007 
L 419.17637 314.026136 
L 420.127851 318.069315 
L 421.081027 321.186239 
L 421.695768 322.681197 
L 422.310509 323.762061 
L 422.925249 324.422914 
L 423.53999 324.660144 
L 424.296332 324.369073 
L 425.052674 323.437358 
L 425.823616 321.836375 
L 426.594558 319.591619 
L 427.240345 317.229709 
L 427.886132 314.443834 
L 427.886132 314.443834 
" clip-path="url(#pa28020f5c5)" style="fill: none; stroke: #0000ff; stroke-linecap: square"/>
   </g>
   <g id="line2d_51">
    <path d="M 114.8 314.443834 
L 115.768181 309.509426 
L 116.982476 302.131847 
L 119.219952 285.594819 
L 121.243162 268.212081 
L 127.054793 215.167966 
L 129.256961 197.751618 
L 130.962538 186.577404 
L 131.961109 181.189591 
L 132.952448 176.781835 
L 133.943788 173.374609 
L 134.548771 171.80824 
L 135.153754 170.641156 
L 136.181704 169.590161 
L 137.209654 169.724903 
L 138.090995 170.783484 
L 138.972335 172.700563 
L 139.855163 175.459909 
L 140.737991 179.027855 
L 141.53723 182.921897 
L 142.411448 187.859752 
L 144.047282 198.812573 
L 145.858859 213.100336 
L 147.689529 229.172201 
L 153.396561 281.123675 
L 154.305661 288.536186 
L 155.756959 299.306821 
L 157.392175 309.521699 
L 158.74482 316.162366 
L 159.421142 318.806167 
L 160.119958 321.038341 
L 160.818773 322.747193 
L 161.666508 324.100622 
L 162.579574 324.661268 
L 163.49264 324.285135 
L 164.22076 323.316467 
L 164.948881 321.762194 
L 166.117094 318.076624 
L 167.591306 311.43603 
L 168.66052 305.339876 
L 169.729735 298.279434 
L 172.128979 279.550695 
L 174.692551 256.609474 
L 178.479955 221.727103 
L 180.427367 205.384969 
L 182.151537 192.795215 
L 183.63468 183.813225 
L 184.505347 179.462166 
L 185.376015 175.853656 
L 186.399537 172.614302 
L 187.423059 170.50463 
L 188.235445 169.65613 
L 189.047831 169.54793 
L 189.72826 170.027963 
L 190.417394 171.041041 
L 191.106529 172.577418 
L 191.795663 174.626521 
L 192.484798 177.17425 
L 193.134386 180.0166 
L 194.40395 186.737497 
L 195.673514 194.865889 
L 197.832919 211.373021 
L 199.272591 223.788204 
L 205.641246 281.657092 
L 207.367198 295.243411 
L 208.651413 304.036884 
L 209.935629 311.47122 
L 211.362636 317.923363 
L 212.465477 321.488199 
L 213.271989 323.268455 
L 214.078501 324.330779 
L 215.131681 324.621395 
L 215.740886 324.220471 
L 216.35009 323.404662 
L 217.554077 320.591345 
L 218.758063 316.235794 
L 220.093659 309.711642 
L 221.200026 303.074635 
L 222.467206 294.261736 
L 223.734386 284.352589 
L 225.862674 265.888003 
L 231.357267 215.67601 
L 232.328248 207.615146 
L 234.480162 191.818793 
L 235.910974 183.302333 
L 237.296475 176.853188 
L 238.559045 172.670912 
L 239.234925 171.132894 
L 239.910806 170.097643 
L 240.586686 169.572011 
L 241.262567 169.559479 
L 241.652765 169.786035 
L 242.804544 171.446147 
L 243.956324 174.558752 
L 244.952478 178.376826 
L 245.948631 183.182237 
L 247.519387 192.593472 
L 248.289477 197.941137 
L 249.534773 207.460759 
L 252.195693 230.484806 
L 257.967145 282.863354 
L 259.007684 291.185363 
L 261.146596 305.98852 
L 262.372727 312.774945 
L 263.57077 318.026258 
L 264.372501 320.722788 
L 265.174232 322.733572 
L 265.894723 323.939994 
L 266.615214 324.568321 
L 267.335705 324.613827 
L 268.20318 323.895151 
L 269.230412 321.962525 
L 270.257644 318.885763 
L 271.175464 315.206871 
L 272.093283 310.696785 
L 273.61525 301.538124 
L 274.761373 293.418296 
L 277.209689 273.339348 
L 283.750192 213.876338 
L 285.034073 203.475964 
L 286.488749 192.961181 
L 287.483921 186.704392 
L 288.479094 181.313566 
L 289.690306 176.031619 
L 290.404938 173.616961 
L 291.119569 171.745956 
L 291.980642 170.233067 
L 292.841714 169.545593 
L 293.552206 169.605373 
L 294.262697 170.23187 
L 295.388922 172.373402 
L 296.025993 174.195852 
L 296.663064 176.447 
L 298.055715 182.793081 
L 299.448365 190.942792 
L 301.165018 203.127506 
L 303.342311 221.198361 
L 310.676554 287.167808 
L 312.213391 298.705482 
L 313.472312 306.859211 
L 314.314671 311.559675 
L 315.595083 317.421104 
L 316.300802 319.945738 
L 317.006521 321.94455 
L 317.712241 323.403115 
L 318.41796 324.310906 
L 319.201039 324.665749 
L 320.134039 324.188835 
L 321.110661 322.64851 
L 322.087282 320.064409 
L 322.928053 317.030571 
L 323.768824 313.280446 
L 325.039099 306.34319 
L 326.971893 293.196982 
L 328.359366 282.179957 
L 332.072026 248.819878 
L 334.941324 222.449605 
L 337.458238 201.616294 
L 339.405469 188.255712 
L 340.82931 180.48893 
L 341.619017 177.010778 
L 342.408724 174.16575 
L 343.5237 171.275481 
L 344.638675 169.749571 
L 345.622575 169.558745 
L 346.606475 170.454769 
L 347.649137 172.576227 
L 348.378004 174.758471 
L 349.106871 177.497442 
L 349.920247 181.185282 
L 350.733624 185.504726 
L 352.015872 193.494572 
L 354.09078 209.029251 
L 356.576512 230.656173 
L 361.11399 272.444131 
L 362.534448 284.553651 
L 364.685543 300.703594 
L 365.416179 305.422765 
L 366.680814 312.505398 
L 367.859128 317.744841 
L 368.958688 321.354933 
L 369.661672 322.98475 
L 370.364656 324.071048 
L 371.067639 324.606049 
L 371.770623 324.585921 
L 372.207177 324.293911 
L 373.083103 323.066081 
L 373.959029 320.993789 
L 374.673142 318.695143 
L 375.387256 315.867339 
L 376.358535 311.210059 
L 377.329815 305.676655 
L 379.547376 290.182701 
L 381.430032 274.581094 
L 383.949616 251.651973 
L 387.70622 217.342557 
L 389.412813 203.347045 
L 391.568554 188.365091 
L 392.910353 180.972897 
L 394.018569 176.158934 
L 395.126784 172.606031 
L 396.082222 170.604194 
L 397.037659 169.613481 
L 397.812912 169.56214 
L 398.588165 170.185837 
L 399.286426 171.321025 
L 400.495896 174.547166 
L 401.705366 179.309031 
L 402.490575 183.176292 
L 404.019146 192.306235 
L 405.558328 203.368493 
L 407.193775 216.753694 
L 410.403045 245.902922 
L 413.222187 271.800229 
L 415.806261 293.127945 
L 417.017417 301.713173 
L 418.332857 309.718364 
L 419.353007 314.855887 
L 420.355386 318.909488 
L 421.357766 321.918002 
L 422.331008 323.797514 
L 423.30425 324.624693 
L 424.318976 324.354471 
L 425.359072 322.881927 
L 426.399167 320.22205 
L 427.142649 317.615392 
L 427.886132 314.443834 
L 427.886132 314.443834 
" clip-path="url(#pa28020f5c5)" style="fill: none; stroke: #ff0000; stroke-linecap: square"/>
   </g>
   <g id="patch_3">
    <path d="M 114.8 334.688171 
L 114.8 31.2 
" style="fill: none; stroke: #000000; stroke-width: 0.8; stroke-linejoin: miter; stroke-linecap: square"/>
   </g>
   <g id="patch_4">
    <path d="M 108.538277 247.083597 
L 434.147854 247.083597 
" style="fill: none; stroke: #000000; stroke-width: 0.8; stroke-linejoin: miter; stroke-linecap: square"/>
   </g>
   <g id="legend_1">
    <g id="patch_5">
     <path d="M 382.047854 71.796875 
L 431.147854 71.796875 
L 431.147854 38.2 
L 382.047854 38.2 
z
" style="fill: #4c4c4c; opacity: 0.5; stroke: #4c4c4c; stroke-linejoin: miter"/>
    </g>
    <g id="patch_6">
     <path d="M 380.047854 69.796875 
L 429.147854 69.796875 
L 429.147854 36.2 
L 380.047854 36.2 
z
" style="fill: #ffffff; stroke: #cccccc; stroke-linejoin: miter"/>
    </g>
    <g id="line2d_52">
     <path d="M 389.047854 46.298437 
L 383.547854 46.298437 
" style="fill: none; stroke: #0000ff; stroke-linecap: square"/>
    </g>
    <g id="text_13">
     <!-- $x_h + x_p$ -->
     <g transform="translate(391.547854 49.798437)scale(0.1 -0.1)">
      <defs>
       <path id="Cmmi10-68" d="M 341 116 
Q 341 153 347 172 
L 1275 3872 
Q 1300 3981 1306 4044 
Q 1306 4147 891 4147 
Q 825 4147 825 4231 
Q 828 4247 839 4287 
Q 850 4328 867 4350 
Q 884 4372 916 4372 
L 1778 4441 
L 1797 4441 
Q 1797 4434 1819 4423 
Q 1841 4413 1844 4409 
Q 1856 4378 1856 4359 
L 1356 2363 
Q 1750 2828 2291 2828 
Q 2516 2828 2680 2750 
Q 2844 2672 2936 2514 
Q 3028 2356 3028 2138 
Q 3028 1875 2911 1503 
Q 2794 1131 2619 672 
Q 2528 463 2528 288 
Q 2528 97 2675 97 
Q 2925 97 3092 364 
Q 3259 631 3328 941 
Q 3341 978 3378 978 
L 3456 978 
Q 3481 978 3497 961 
Q 3513 944 3513 922 
Q 3513 916 3506 903 
Q 3450 672 3339 448 
Q 3228 225 3059 76 
Q 2891 -72 2663 -72 
Q 2438 -72 2278 83 
Q 2119 238 2119 459 
Q 2119 578 2169 709 
Q 2350 1191 2470 1569 
Q 2591 1947 2591 2234 
Q 2591 2419 2519 2541 
Q 2447 2663 2278 2663 
Q 1934 2663 1678 2452 
Q 1422 2241 1234 1894 
L 800 147 
Q 775 50 703 -11 
Q 631 -72 538 -72 
Q 456 -72 398 -17 
Q 341 38 341 116 
z
" transform="scale(0.015625)"/>
       <path id="Cmr10-2b" d="M 481 1472 
Q 428 1472 393 1512 
Q 359 1553 359 1600 
Q 359 1647 393 1687 
Q 428 1728 481 1728 
L 2363 1728 
L 2363 3616 
Q 2363 3666 2400 3698 
Q 2438 3731 2491 3731 
Q 2538 3731 2578 3698 
Q 2619 3666 2619 3616 
L 2619 1728 
L 4500 1728 
Q 4547 1728 4581 1687 
Q 4616 1647 4616 1600 
Q 4616 1553 4581 1512 
Q 4547 1472 4500 1472 
L 2619 1472 
L 2619 -416 
Q 2619 -466 2578 -498 
Q 2538 -531 2491 -531 
Q 2438 -531 2400 -498 
Q 2363 -466 2363 -416 
L 2363 1472 
L 481 1472 
z
" transform="scale(0.015625)"/>
       <path id="Cmmi10-70" d="M -159 -1241 
Q -219 -1241 -219 -1159 
Q -197 -1019 -134 -1019 
Q 66 -1019 145 -983 
Q 225 -947 269 -800 
L 991 2081 
Q 1038 2200 1038 2388 
Q 1038 2663 850 2663 
Q 650 2663 553 2423 
Q 456 2184 366 1819 
Q 366 1778 313 1778 
L 238 1778 
Q 222 1778 203 1801 
Q 184 1825 184 1844 
Q 253 2122 317 2315 
Q 381 2509 517 2668 
Q 653 2828 856 2828 
Q 1075 2828 1240 2704 
Q 1406 2581 1453 2369 
Q 1628 2572 1840 2700 
Q 2053 2828 2278 2828 
Q 2547 2828 2745 2684 
Q 2944 2541 3044 2308 
Q 3144 2075 3144 1806 
Q 3144 1394 2933 953 
Q 2722 513 2361 220 
Q 2000 -72 1588 -72 
Q 1400 -72 1248 34 
Q 1097 141 1013 313 
L 722 -825 
Q 706 -919 703 -934 
Q 703 -1019 1125 -1019 
Q 1191 -1019 1191 -1100 
Q 1169 -1184 1155 -1212 
Q 1141 -1241 1081 -1241 
L -159 -1241 
z
M 1594 97 
Q 1816 97 2006 280 
Q 2197 463 2316 691 
Q 2403 863 2479 1111 
Q 2556 1359 2612 1640 
Q 2669 1922 2669 2088 
Q 2669 2234 2630 2362 
Q 2591 2491 2502 2577 
Q 2413 2663 2266 2663 
Q 2031 2663 1823 2495 
Q 1616 2328 1447 2081 
L 1447 2059 
L 1094 647 
Q 1138 419 1263 258 
Q 1388 97 1594 97 
z
" transform="scale(0.015625)"/>
      </defs>
      <use xlink:href="#Cmmi10-78" transform="translate(0 0.703125)"/>
      <use xlink:href="#Cmmi10-68" transform="translate(57.080078 -16.303125)scale(0.7)"/>
      <use xlink:href="#Cmr10-2b" transform="translate(121.348047 0.703125)"/>
      <use xlink:href="#Cmmi10-78" transform="translate(216.592187 0.703125)"/>
      <use xlink:href="#Cmmi10-70" transform="translate(273.672266 -16.303125)scale(0.7)"/>
     </g>
    </g>
    <g id="line2d_53">
     <path d="M 389.047854 57.196875 
L 383.547854 57.196875 
" style="fill: none; stroke: #ff0000; stroke-linecap: square"/>
    </g>
    <g id="text_14">
     <!-- $x_p$ -->
     <g transform="translate(391.547854 60.696875)scale(0.1 -0.1)">
      <use xlink:href="#Cmmi10-78" transform="translate(0 0.8125)"/>
      <use xlink:href="#Cmmi10-70" transform="translate(57.080078 -16.19375)scale(0.7)"/>
     </g>
    </g>
   </g>
  </g>
 </g>
 <defs>
  <clipPath id="pa28020f5c5">
   <rect x="108.538277" y="31.2" width="325.609577" height="303.488171"/>
  </clipPath>
 </defs>
</svg>
