<?xml version="1.0" encoding="utf-8" standalone="no"?>
<!DOCTYPE svg PUBLIC "-//W3C//DTD SVG 1.1//EN"
  "http://www.w3.org/Graphics/SVG/1.1/DTD/svg11.dtd">
<svg xmlns:xlink="http://www.w3.org/1999/xlink" width="455.004702pt" height="343.332646pt" viewBox="0 0 455.004702 343.332646" xmlns="http://www.w3.org/2000/svg" version="1.1">
 <metadata>
  <rdf:RDF xmlns:dc="http://purl.org/dc/elements/1.1/" xmlns:cc="http://creativecommons.org/ns#" xmlns:rdf="http://www.w3.org/1999/02/22-rdf-syntax-ns#">
   <cc:Work>
    <dc:type rdf:resource="http://purl.org/dc/dcmitype/StillImage"/>
    <dc:date>2022-06-16T22:07:14.978419</dc:date>
    <dc:format>image/svg+xml</dc:format>
    <dc:creator>
     <cc:Agent>
      <dc:title>Matplotlib v3.5.1, https://matplotlib.org/</dc:title>
     </cc:Agent>
    </dc:creator>
   </cc:Work>
  </rdf:RDF>
 </metadata>
 <defs>
  <style type="text/css">*{stroke-linejoin: round; stroke-linecap: butt}</style>
 </defs>
 <g id="figure_1">
  <g id="patch_1">
   <path d="M 0 343.332646 
L 455.004702 343.332646 
L 455.004702 0 
L 0 0 
z
" style="fill: #ffffff"/>
  </g>
  <g id="axes_1">
   <g id="patch_2">
    <path d="M 29.748143 336.117538 
L 433.884702 336.117538 
L 433.884702 31.2 
L 29.748143 31.2 
z
" style="fill: #ffffff"/>
   </g>
   <g id="matplotlib.axis_1">
    <g id="xtick_1">
     <g id="line2d_1">
      <defs>
       <path id="m4c02fd29c6" d="M 0 0 
L 0 3.5 
" style="stroke: #000000; stroke-width: 0.8"/>
      </defs>
      <g>
       <use xlink:href="#m4c02fd29c6" x="37.52" y="183.658769" style="stroke: #000000; stroke-width: 0.8"/>
      </g>
     </g>
    </g>
    <g id="xtick_2">
     <g id="line2d_2">
      <g>
       <use xlink:href="#m4c02fd29c6" x="115.238569" y="183.658769" style="stroke: #000000; stroke-width: 0.8"/>
      </g>
     </g>
     <g id="text_1">
      <!-- 1 -->
      <g transform="translate(112.057319 198.257207)scale(0.1 -0.1)">
       <defs>
        <path id="DejaVuSans-31" d="M 794 531 
L 1825 531 
L 1825 4091 
L 703 3866 
L 703 4441 
L 1819 4666 
L 2450 4666 
L 2450 531 
L 3481 531 
L 3481 0 
L 794 0 
L 794 531 
z
" transform="scale(0.015625)"/>
       </defs>
       <use xlink:href="#DejaVuSans-31"/>
      </g>
     </g>
    </g>
    <g id="xtick_3">
     <g id="line2d_3">
      <g>
       <use xlink:href="#m4c02fd29c6" x="192.957138" y="183.658769" style="stroke: #000000; stroke-width: 0.8"/>
      </g>
     </g>
     <g id="text_2">
      <!-- 2 -->
      <g transform="translate(189.775888 198.257207)scale(0.1 -0.1)">
       <defs>
        <path id="DejaVuSans-32" d="M 1228 531 
L 3431 531 
L 3431 0 
L 469 0 
L 469 531 
Q 828 903 1448 1529 
Q 2069 2156 2228 2338 
Q 2531 2678 2651 2914 
Q 2772 3150 2772 3378 
Q 2772 3750 2511 3984 
Q 2250 4219 1831 4219 
Q 1534 4219 1204 4116 
Q 875 4013 500 3803 
L 500 4441 
Q 881 4594 1212 4672 
Q 1544 4750 1819 4750 
Q 2544 4750 2975 4387 
Q 3406 4025 3406 3419 
Q 3406 3131 3298 2873 
Q 3191 2616 2906 2266 
Q 2828 2175 2409 1742 
Q 1991 1309 1228 531 
z
" transform="scale(0.015625)"/>
       </defs>
       <use xlink:href="#DejaVuSans-32"/>
      </g>
     </g>
    </g>
    <g id="xtick_4">
     <g id="line2d_4">
      <g>
       <use xlink:href="#m4c02fd29c6" x="270.675707" y="183.658769" style="stroke: #000000; stroke-width: 0.8"/>
      </g>
     </g>
     <g id="text_3">
      <!-- 3 -->
      <g transform="translate(267.494457 198.257207)scale(0.1 -0.1)">
       <defs>
        <path id="DejaVuSans-33" d="M 2597 2516 
Q 3050 2419 3304 2112 
Q 3559 1806 3559 1356 
Q 3559 666 3084 287 
Q 2609 -91 1734 -91 
Q 1441 -91 1130 -33 
Q 819 25 488 141 
L 488 750 
Q 750 597 1062 519 
Q 1375 441 1716 441 
Q 2309 441 2620 675 
Q 2931 909 2931 1356 
Q 2931 1769 2642 2001 
Q 2353 2234 1838 2234 
L 1294 2234 
L 1294 2753 
L 1863 2753 
Q 2328 2753 2575 2939 
Q 2822 3125 2822 3475 
Q 2822 3834 2567 4026 
Q 2313 4219 1838 4219 
Q 1578 4219 1281 4162 
Q 984 4106 628 3988 
L 628 4550 
Q 988 4650 1302 4700 
Q 1616 4750 1894 4750 
Q 2613 4750 3031 4423 
Q 3450 4097 3450 3541 
Q 3450 3153 3228 2886 
Q 3006 2619 2597 2516 
z
" transform="scale(0.015625)"/>
       </defs>
       <use xlink:href="#DejaVuSans-33"/>
      </g>
     </g>
    </g>
    <g id="xtick_5">
     <g id="line2d_5">
      <g>
       <use xlink:href="#m4c02fd29c6" x="348.394276" y="183.658769" style="stroke: #000000; stroke-width: 0.8"/>
      </g>
     </g>
     <g id="text_4">
      <!-- 4 -->
      <g transform="translate(345.213026 198.257207)scale(0.1 -0.1)">
       <defs>
        <path id="DejaVuSans-34" d="M 2419 4116 
L 825 1625 
L 2419 1625 
L 2419 4116 
z
M 2253 4666 
L 3047 4666 
L 3047 1625 
L 3713 1625 
L 3713 1100 
L 3047 1100 
L 3047 0 
L 2419 0 
L 2419 1100 
L 313 1100 
L 313 1709 
L 2253 4666 
z
" transform="scale(0.015625)"/>
       </defs>
       <use xlink:href="#DejaVuSans-34"/>
      </g>
     </g>
    </g>
    <g id="xtick_6">
     <g id="line2d_6">
      <g>
       <use xlink:href="#m4c02fd29c6" x="426.112845" y="183.658769" style="stroke: #000000; stroke-width: 0.8"/>
      </g>
     </g>
     <g id="text_5">
      <!-- 5 -->
      <g transform="translate(422.931595 198.257207)scale(0.1 -0.1)">
       <defs>
        <path id="DejaVuSans-35" d="M 691 4666 
L 3169 4666 
L 3169 4134 
L 1269 4134 
L 1269 2991 
Q 1406 3038 1543 3061 
Q 1681 3084 1819 3084 
Q 2600 3084 3056 2656 
Q 3513 2228 3513 1497 
Q 3513 744 3044 326 
Q 2575 -91 1722 -91 
Q 1428 -91 1123 -41 
Q 819 9 494 109 
L 494 744 
Q 775 591 1075 516 
Q 1375 441 1709 441 
Q 2250 441 2565 725 
Q 2881 1009 2881 1497 
Q 2881 1984 2565 2268 
Q 2250 2553 1709 2553 
Q 1456 2553 1204 2497 
Q 953 2441 691 2322 
L 691 4666 
z
" transform="scale(0.015625)"/>
       </defs>
       <use xlink:href="#DejaVuSans-35"/>
      </g>
     </g>
    </g>
    <g id="xtick_7">
     <g id="line2d_7">
      <defs>
       <path id="md08adce31f" d="M 0 0 
L 0 2 
" style="stroke: #000000; stroke-width: 0.6"/>
      </defs>
      <g>
       <use xlink:href="#md08adce31f" x="53.063714" y="183.658769" style="stroke: #000000; stroke-width: 0.6"/>
      </g>
     </g>
    </g>
    <g id="xtick_8">
     <g id="line2d_8">
      <g>
       <use xlink:href="#md08adce31f" x="68.607428" y="183.658769" style="stroke: #000000; stroke-width: 0.6"/>
      </g>
     </g>
    </g>
    <g id="xtick_9">
     <g id="line2d_9">
      <g>
       <use xlink:href="#md08adce31f" x="84.151141" y="183.658769" style="stroke: #000000; stroke-width: 0.6"/>
      </g>
     </g>
    </g>
    <g id="xtick_10">
     <g id="line2d_10">
      <g>
       <use xlink:href="#md08adce31f" x="99.694855" y="183.658769" style="stroke: #000000; stroke-width: 0.6"/>
      </g>
     </g>
    </g>
    <g id="xtick_11">
     <g id="line2d_11">
      <g>
       <use xlink:href="#md08adce31f" x="130.782283" y="183.658769" style="stroke: #000000; stroke-width: 0.6"/>
      </g>
     </g>
    </g>
    <g id="xtick_12">
     <g id="line2d_12">
      <g>
       <use xlink:href="#md08adce31f" x="146.325997" y="183.658769" style="stroke: #000000; stroke-width: 0.6"/>
      </g>
     </g>
    </g>
    <g id="xtick_13">
     <g id="line2d_13">
      <g>
       <use xlink:href="#md08adce31f" x="161.86971" y="183.658769" style="stroke: #000000; stroke-width: 0.6"/>
      </g>
     </g>
    </g>
    <g id="xtick_14">
     <g id="line2d_14">
      <g>
       <use xlink:href="#md08adce31f" x="177.413424" y="183.658769" style="stroke: #000000; stroke-width: 0.6"/>
      </g>
     </g>
    </g>
    <g id="xtick_15">
     <g id="line2d_15">
      <g>
       <use xlink:href="#md08adce31f" x="208.500852" y="183.658769" style="stroke: #000000; stroke-width: 0.6"/>
      </g>
     </g>
    </g>
    <g id="xtick_16">
     <g id="line2d_16">
      <g>
       <use xlink:href="#md08adce31f" x="224.044565" y="183.658769" style="stroke: #000000; stroke-width: 0.6"/>
      </g>
     </g>
    </g>
    <g id="xtick_17">
     <g id="line2d_17">
      <g>
       <use xlink:href="#md08adce31f" x="239.588279" y="183.658769" style="stroke: #000000; stroke-width: 0.6"/>
      </g>
     </g>
    </g>
    <g id="xtick_18">
     <g id="line2d_18">
      <g>
       <use xlink:href="#md08adce31f" x="255.131993" y="183.658769" style="stroke: #000000; stroke-width: 0.6"/>
      </g>
     </g>
    </g>
    <g id="xtick_19">
     <g id="line2d_19">
      <g>
       <use xlink:href="#md08adce31f" x="286.219421" y="183.658769" style="stroke: #000000; stroke-width: 0.6"/>
      </g>
     </g>
    </g>
    <g id="xtick_20">
     <g id="line2d_20">
      <g>
       <use xlink:href="#md08adce31f" x="301.763134" y="183.658769" style="stroke: #000000; stroke-width: 0.6"/>
      </g>
     </g>
    </g>
    <g id="xtick_21">
     <g id="line2d_21">
      <g>
       <use xlink:href="#md08adce31f" x="317.306848" y="183.658769" style="stroke: #000000; stroke-width: 0.6"/>
      </g>
     </g>
    </g>
    <g id="xtick_22">
     <g id="line2d_22">
      <g>
       <use xlink:href="#md08adce31f" x="332.850562" y="183.658769" style="stroke: #000000; stroke-width: 0.6"/>
      </g>
     </g>
    </g>
    <g id="xtick_23">
     <g id="line2d_23">
      <g>
       <use xlink:href="#md08adce31f" x="363.93799" y="183.658769" style="stroke: #000000; stroke-width: 0.6"/>
      </g>
     </g>
    </g>
    <g id="xtick_24">
     <g id="line2d_24">
      <g>
       <use xlink:href="#md08adce31f" x="379.481703" y="183.658769" style="stroke: #000000; stroke-width: 0.6"/>
      </g>
     </g>
    </g>
    <g id="xtick_25">
     <g id="line2d_25">
      <g>
       <use xlink:href="#md08adce31f" x="395.025417" y="183.658769" style="stroke: #000000; stroke-width: 0.6"/>
      </g>
     </g>
    </g>
    <g id="xtick_26">
     <g id="line2d_26">
      <g>
       <use xlink:href="#md08adce31f" x="410.569131" y="183.658769" style="stroke: #000000; stroke-width: 0.6"/>
      </g>
     </g>
    </g>
    <g id="text_6">
     <!-- $t$ -->
     <g transform="translate(441.884702 183.658769)scale(0.16 -0.16)">
      <defs>
       <path id="Cmmi10-74" d="M 397 519 
Q 397 613 416 697 
L 878 2534 
L 206 2534 
Q 141 2534 141 2619 
Q 166 2759 225 2759 
L 934 2759 
L 1191 3803 
Q 1216 3888 1291 3947 
Q 1366 4006 1459 4006 
Q 1541 4006 1595 3957 
Q 1650 3909 1650 3828 
Q 1650 3809 1648 3798 
Q 1647 3788 1644 3775 
L 1388 2759 
L 2047 2759 
Q 2113 2759 2113 2675 
Q 2109 2659 2100 2621 
Q 2091 2584 2075 2559 
Q 2059 2534 2028 2534 
L 1331 2534 
L 872 684 
Q 825 503 825 372 
Q 825 97 1013 97 
Q 1294 97 1511 361 
Q 1728 625 1844 941 
Q 1869 978 1894 978 
L 1972 978 
Q 1997 978 2012 961 
Q 2028 944 2028 922 
Q 2028 909 2022 903 
Q 1881 516 1612 222 
Q 1344 -72 997 -72 
Q 744 -72 570 93 
Q 397 259 397 519 
z
" transform="scale(0.015625)"/>
      </defs>
      <use xlink:href="#Cmmi10-74" transform="translate(0 0.40625)"/>
     </g>
    </g>
   </g>
   <g id="matplotlib.axis_2">
    <g id="ytick_1">
     <g id="line2d_27">
      <defs>
       <path id="m1d868620f7" d="M 0 0 
L -3.5 0 
" style="stroke: #000000; stroke-width: 0.8"/>
      </defs>
      <g>
       <use xlink:href="#m1d868620f7" x="37.52" y="330.25374" style="stroke: #000000; stroke-width: 0.8"/>
      </g>
     </g>
     <g id="text_7">
      <!-- −6 -->
      <g transform="translate(15.777813 334.052958)scale(0.1 -0.1)">
       <defs>
        <path id="DejaVuSans-2212" d="M 678 2272 
L 4684 2272 
L 4684 1741 
L 678 1741 
L 678 2272 
z
" transform="scale(0.015625)"/>
        <path id="DejaVuSans-36" d="M 2113 2584 
Q 1688 2584 1439 2293 
Q 1191 2003 1191 1497 
Q 1191 994 1439 701 
Q 1688 409 2113 409 
Q 2538 409 2786 701 
Q 3034 994 3034 1497 
Q 3034 2003 2786 2293 
Q 2538 2584 2113 2584 
z
M 3366 4563 
L 3366 3988 
Q 3128 4100 2886 4159 
Q 2644 4219 2406 4219 
Q 1781 4219 1451 3797 
Q 1122 3375 1075 2522 
Q 1259 2794 1537 2939 
Q 1816 3084 2150 3084 
Q 2853 3084 3261 2657 
Q 3669 2231 3669 1497 
Q 3669 778 3244 343 
Q 2819 -91 2113 -91 
Q 1303 -91 875 529 
Q 447 1150 447 2328 
Q 447 3434 972 4092 
Q 1497 4750 2381 4750 
Q 2619 4750 2861 4703 
Q 3103 4656 3366 4563 
z
" transform="scale(0.015625)"/>
       </defs>
       <use xlink:href="#DejaVuSans-2212"/>
       <use xlink:href="#DejaVuSans-36" x="83.789062"/>
      </g>
     </g>
    </g>
    <g id="ytick_2">
     <g id="line2d_28">
      <g>
       <use xlink:href="#m1d868620f7" x="37.52" y="281.38875" style="stroke: #000000; stroke-width: 0.8"/>
      </g>
     </g>
     <g id="text_8">
      <!-- −4 -->
      <g transform="translate(15.777813 285.187968)scale(0.1 -0.1)">
       <use xlink:href="#DejaVuSans-2212"/>
       <use xlink:href="#DejaVuSans-34" x="83.789062"/>
      </g>
     </g>
    </g>
    <g id="ytick_3">
     <g id="line2d_29">
      <g>
       <use xlink:href="#m1d868620f7" x="37.52" y="232.523759" style="stroke: #000000; stroke-width: 0.8"/>
      </g>
     </g>
     <g id="text_9">
      <!-- −2 -->
      <g transform="translate(15.777813 236.322978)scale(0.1 -0.1)">
       <use xlink:href="#DejaVuSans-2212"/>
       <use xlink:href="#DejaVuSans-32" x="83.789062"/>
      </g>
     </g>
    </g>
    <g id="ytick_4">
     <g id="line2d_30">
      <g>
       <use xlink:href="#m1d868620f7" x="37.52" y="183.658769" style="stroke: #000000; stroke-width: 0.8"/>
      </g>
     </g>
    </g>
    <g id="ytick_5">
     <g id="line2d_31">
      <g>
       <use xlink:href="#m1d868620f7" x="37.52" y="134.793779" style="stroke: #000000; stroke-width: 0.8"/>
      </g>
     </g>
     <g id="text_10">
      <!-- 2 -->
      <g transform="translate(24.1575 138.592998)scale(0.1 -0.1)">
       <use xlink:href="#DejaVuSans-32"/>
      </g>
     </g>
    </g>
    <g id="ytick_6">
     <g id="line2d_32">
      <g>
       <use xlink:href="#m1d868620f7" x="37.52" y="85.928789" style="stroke: #000000; stroke-width: 0.8"/>
      </g>
     </g>
     <g id="text_11">
      <!-- 4 -->
      <g transform="translate(24.1575 89.728008)scale(0.1 -0.1)">
       <use xlink:href="#DejaVuSans-34"/>
      </g>
     </g>
    </g>
    <g id="ytick_7">
     <g id="line2d_33">
      <g>
       <use xlink:href="#m1d868620f7" x="37.52" y="37.063799" style="stroke: #000000; stroke-width: 0.8"/>
      </g>
     </g>
     <g id="text_12">
      <!-- 6 -->
      <g transform="translate(24.1575 40.863018)scale(0.1 -0.1)">
       <use xlink:href="#DejaVuSans-36"/>
      </g>
     </g>
    </g>
    <g id="ytick_8">
     <g id="line2d_34">
      <defs>
       <path id="mf3910afe84" d="M 0 0 
L -2 0 
" style="stroke: #000000; stroke-width: 0.6"/>
      </defs>
      <g>
       <use xlink:href="#mf3910afe84" x="37.52" y="318.037492" style="stroke: #000000; stroke-width: 0.6"/>
      </g>
     </g>
    </g>
    <g id="ytick_9">
     <g id="line2d_35">
      <g>
       <use xlink:href="#mf3910afe84" x="37.52" y="305.821245" style="stroke: #000000; stroke-width: 0.6"/>
      </g>
     </g>
    </g>
    <g id="ytick_10">
     <g id="line2d_36">
      <g>
       <use xlink:href="#mf3910afe84" x="37.52" y="293.604997" style="stroke: #000000; stroke-width: 0.6"/>
      </g>
     </g>
    </g>
    <g id="ytick_11">
     <g id="line2d_37">
      <g>
       <use xlink:href="#mf3910afe84" x="37.52" y="269.172502" style="stroke: #000000; stroke-width: 0.6"/>
      </g>
     </g>
    </g>
    <g id="ytick_12">
     <g id="line2d_38">
      <g>
       <use xlink:href="#mf3910afe84" x="37.52" y="256.956254" style="stroke: #000000; stroke-width: 0.6"/>
      </g>
     </g>
    </g>
    <g id="ytick_13">
     <g id="line2d_39">
      <g>
       <use xlink:href="#mf3910afe84" x="37.52" y="244.740007" style="stroke: #000000; stroke-width: 0.6"/>
      </g>
     </g>
    </g>
    <g id="ytick_14">
     <g id="line2d_40">
      <g>
       <use xlink:href="#mf3910afe84" x="37.52" y="220.307512" style="stroke: #000000; stroke-width: 0.6"/>
      </g>
     </g>
    </g>
    <g id="ytick_15">
     <g id="line2d_41">
      <g>
       <use xlink:href="#mf3910afe84" x="37.52" y="208.091264" style="stroke: #000000; stroke-width: 0.6"/>
      </g>
     </g>
    </g>
    <g id="ytick_16">
     <g id="line2d_42">
      <g>
       <use xlink:href="#mf3910afe84" x="37.52" y="195.875017" style="stroke: #000000; stroke-width: 0.6"/>
      </g>
     </g>
    </g>
    <g id="ytick_17">
     <g id="line2d_43">
      <g>
       <use xlink:href="#mf3910afe84" x="37.52" y="171.442522" style="stroke: #000000; stroke-width: 0.6"/>
      </g>
     </g>
    </g>
    <g id="ytick_18">
     <g id="line2d_44">
      <g>
       <use xlink:href="#mf3910afe84" x="37.52" y="159.226274" style="stroke: #000000; stroke-width: 0.6"/>
      </g>
     </g>
    </g>
    <g id="ytick_19">
     <g id="line2d_45">
      <g>
       <use xlink:href="#mf3910afe84" x="37.52" y="147.010027" style="stroke: #000000; stroke-width: 0.6"/>
      </g>
     </g>
    </g>
    <g id="ytick_20">
     <g id="line2d_46">
      <g>
       <use xlink:href="#mf3910afe84" x="37.52" y="122.577532" style="stroke: #000000; stroke-width: 0.6"/>
      </g>
     </g>
    </g>
    <g id="ytick_21">
     <g id="line2d_47">
      <g>
       <use xlink:href="#mf3910afe84" x="37.52" y="110.361284" style="stroke: #000000; stroke-width: 0.6"/>
      </g>
     </g>
    </g>
    <g id="ytick_22">
     <g id="line2d_48">
      <g>
       <use xlink:href="#mf3910afe84" x="37.52" y="98.145036" style="stroke: #000000; stroke-width: 0.6"/>
      </g>
     </g>
    </g>
    <g id="ytick_23">
     <g id="line2d_49">
      <g>
       <use xlink:href="#mf3910afe84" x="37.52" y="73.712541" style="stroke: #000000; stroke-width: 0.6"/>
      </g>
     </g>
    </g>
    <g id="ytick_24">
     <g id="line2d_50">
      <g>
       <use xlink:href="#mf3910afe84" x="37.52" y="61.496294" style="stroke: #000000; stroke-width: 0.6"/>
      </g>
     </g>
    </g>
    <g id="ytick_25">
     <g id="line2d_51">
      <g>
       <use xlink:href="#mf3910afe84" x="37.52" y="49.280046" style="stroke: #000000; stroke-width: 0.6"/>
      </g>
     </g>
    </g>
    <g id="text_13">
     <!-- $x(t), v(t)$ -->
     <g transform="translate(7.2 19.2)scale(0.16 -0.16)">
      <defs>
       <path id="Cmmi10-78" d="M 500 184 
Q 613 97 819 97 
Q 1019 97 1172 289 
Q 1325 481 1381 709 
L 1672 1844 
Q 1741 2153 1741 2266 
Q 1741 2425 1652 2544 
Q 1563 2663 1403 2663 
Q 1200 2663 1022 2536 
Q 844 2409 722 2214 
Q 600 2019 550 1819 
Q 538 1778 500 1778 
L 422 1778 
Q 372 1778 372 1838 
L 372 1856 
Q 434 2094 584 2320 
Q 734 2547 951 2687 
Q 1169 2828 1416 2828 
Q 1650 2828 1839 2703 
Q 2028 2578 2106 2363 
Q 2216 2559 2386 2693 
Q 2556 2828 2759 2828 
Q 2897 2828 3040 2779 
Q 3184 2731 3275 2631 
Q 3366 2531 3366 2381 
Q 3366 2219 3261 2101 
Q 3156 1984 2994 1984 
Q 2891 1984 2822 2050 
Q 2753 2116 2753 2216 
Q 2753 2350 2845 2451 
Q 2938 2553 3066 2572 
Q 2950 2663 2747 2663 
Q 2541 2663 2389 2472 
Q 2238 2281 2175 2047 
L 1894 916 
Q 1825 659 1825 494 
Q 1825 331 1917 214 
Q 2009 97 2163 97 
Q 2463 97 2698 361 
Q 2934 625 3009 941 
Q 3022 978 3059 978 
L 3138 978 
Q 3163 978 3178 961 
Q 3194 944 3194 922 
Q 3194 916 3188 903 
Q 3097 522 2806 225 
Q 2516 -72 2150 -72 
Q 1916 -72 1727 54 
Q 1538 181 1459 397 
Q 1359 209 1182 68 
Q 1006 -72 806 -72 
Q 669 -72 523 -23 
Q 378 25 287 125 
Q 197 225 197 378 
Q 197 528 301 651 
Q 406 775 563 775 
Q 669 775 741 711 
Q 813 647 813 544 
Q 813 409 723 309 
Q 634 209 500 184 
z
" transform="scale(0.015625)"/>
       <path id="Cmr10-28" d="M 1984 -1588 
Q 1628 -1306 1370 -942 
Q 1113 -578 948 -165 
Q 784 247 703 697 
Q 622 1147 622 1600 
Q 622 2059 703 2509 
Q 784 2959 951 3375 
Q 1119 3791 1378 4153 
Q 1638 4516 1984 4788 
Q 1984 4800 2016 4800 
L 2075 4800 
Q 2094 4800 2109 4783 
Q 2125 4766 2125 4744 
Q 2125 4716 2113 4703 
Q 1800 4397 1592 4047 
Q 1384 3697 1257 3301 
Q 1131 2906 1075 2482 
Q 1019 2059 1019 1600 
Q 1019 -434 2106 -1491 
Q 2125 -1509 2125 -1544 
Q 2125 -1559 2108 -1579 
Q 2091 -1600 2075 -1600 
L 2016 -1600 
Q 1984 -1600 1984 -1588 
z
" transform="scale(0.015625)"/>
       <path id="Cmr10-29" d="M 416 -1600 
Q 359 -1600 359 -1544 
Q 359 -1516 372 -1503 
Q 1466 -434 1466 1600 
Q 1466 3634 384 4691 
Q 359 4706 359 4744 
Q 359 4766 376 4783 
Q 394 4800 416 4800 
L 475 4800 
Q 494 4800 506 4788 
Q 966 4425 1272 3906 
Q 1578 3388 1720 2800 
Q 1863 2213 1863 1600 
Q 1863 1147 1786 708 
Q 1709 269 1542 -157 
Q 1375 -584 1119 -945 
Q 863 -1306 506 -1588 
Q 494 -1600 475 -1600 
L 416 -1600 
z
" transform="scale(0.015625)"/>
       <path id="Cmmi10-3b" d="M 634 -1153 
Q 634 -1125 659 -1100 
Q 891 -878 1019 -587 
Q 1147 -297 1147 25 
L 1147 103 
Q 1044 0 891 0 
Q 744 0 641 103 
Q 538 206 538 353 
Q 538 503 641 603 
Q 744 703 891 703 
Q 1119 703 1216 492 
Q 1313 281 1313 25 
Q 1313 -331 1170 -651 
Q 1028 -972 769 -1228 
Q 744 -1241 728 -1241 
Q 697 -1241 665 -1212 
Q 634 -1184 634 -1153 
z
" transform="scale(0.015625)"/>
       <path id="Cmmi10-76" d="M 684 722 
Q 684 866 718 1037 
Q 753 1209 787 1320 
Q 822 1431 944 1753 
Q 1066 2075 1069 2088 
Q 1153 2322 1153 2472 
Q 1153 2663 1013 2663 
Q 759 2663 595 2402 
Q 431 2141 353 1819 
Q 341 1778 300 1778 
L 225 1778 
Q 172 1778 172 1838 
L 172 1856 
Q 275 2238 487 2533 
Q 700 2828 1025 2828 
Q 1253 2828 1411 2678 
Q 1569 2528 1569 2297 
Q 1569 2178 1516 2047 
Q 1391 1722 1319 1526 
Q 1247 1331 1186 1089 
Q 1125 847 1125 641 
Q 1125 400 1236 248 
Q 1347 97 1581 97 
Q 2025 97 2381 781 
Q 2494 1003 2594 1303 
Q 2694 1603 2694 1791 
Q 2694 1984 2631 2092 
Q 2569 2200 2469 2317 
Q 2369 2434 2369 2503 
Q 2369 2628 2472 2731 
Q 2575 2834 2700 2834 
Q 2853 2834 2920 2693 
Q 2988 2553 2988 2375 
Q 2988 2163 2927 1869 
Q 2866 1575 2758 1259 
Q 2650 944 2559 763 
Q 2138 -72 1575 -72 
Q 1172 -72 928 129 
Q 684 331 684 722 
z
" transform="scale(0.015625)"/>
      </defs>
      <use xlink:href="#Cmmi10-78"/>
      <use xlink:href="#Cmr10-28" transform="translate(57.080078 0)"/>
      <use xlink:href="#Cmmi10-74" transform="translate(95.898438 0)"/>
      <use xlink:href="#Cmr10-29" transform="translate(131.982422 0)"/>
      <use xlink:href="#Cmmi10-3b" transform="translate(170.800781 0)"/>
      <use xlink:href="#Cmmi10-76" transform="translate(216.044922 0)"/>
      <use xlink:href="#Cmr10-28" transform="translate(264.433594 0)"/>
      <use xlink:href="#Cmmi10-74" transform="translate(303.251953 0)"/>
      <use xlink:href="#Cmr10-29" transform="translate(339.335938 0)"/>
     </g>
    </g>
   </g>
   <g id="line2d_52">
    <path d="M 37.52 134.793779 
L 39.457285 134.321886 
L 41.350143 134.127162 
L 42.838197 134.159647 
L 44.980933 134.493098 
L 46.853048 135.059728 
L 48.516961 135.776398 
L 50.58482 136.94183 
L 52.770155 138.496614 
L 54.987492 140.402372 
L 56.573566 141.960763 
L 59.205686 144.888654 
L 61.833953 148.211278 
L 64.980205 152.664901 
L 68.161653 157.632354 
L 71.857187 163.889264 
L 76.45689 172.222774 
L 82.71235 184.080662 
L 90.326164 198.412844 
L 94.358576 205.565824 
L 97.842874 211.325928 
L 100.748767 215.751802 
L 103.770168 219.925131 
L 106.428001 223.190629 
L 108.637074 225.58974 
L 110.90601 227.73651 
L 112.886358 229.334576 
L 114.949384 230.715521 
L 116.880238 231.737927 
L 118.71731 232.462917 
L 120.450145 232.921989 
L 122.342029 233.171563 
L 124.271146 233.154263 
L 125.843401 232.937207 
L 127.460324 232.524739 
L 129.43154 231.764696 
L 131.368725 230.746524 
L 133.351399 229.431983 
L 135.480586 227.722135 
L 137.696734 225.626692 
L 139.99702 223.127289 
L 142.501057 220.053714 
L 145.469551 215.972404 
L 148.729289 211.004629 
L 152.458642 204.795806 
L 156.752721 197.113686 
L 162.636426 186.032849 
L 171.747608 168.841275 
L 175.931975 161.43207 
L 178.900815 156.515302 
L 181.761536 152.113764 
L 184.950568 147.662289 
L 187.630403 144.340295 
L 190.063928 141.686955 
L 192.280832 139.591396 
L 194.284888 137.974206 
L 196.165605 136.704932 
L 198.142322 135.637589 
L 200.29357 134.793723 
L 202.046631 134.354892 
L 203.96442 134.133361 
L 205.862912 134.181261 
L 207.767426 134.496175 
L 209.875861 135.154451 
L 211.460578 135.860908 
L 213.719753 137.176387 
L 215.704529 138.623999 
L 217.549352 140.206663 
L 219.706162 142.33562 
L 222.126983 145.06535 
L 224.431263 147.976885 
L 226.943193 151.471338 
L 230.166172 156.392986 
L 233.721881 162.308463 
L 237.888157 169.742086 
L 242.981557 179.297705 
L 253.398415 198.95741 
L 257.641247 206.435007 
L 261.041242 211.996286 
L 264.019532 216.470377 
L 266.672576 220.092746 
L 268.835518 222.765053 
L 271.409914 225.58918 
L 273.737222 227.786868 
L 276.135685 229.679197 
L 278.205001 230.99559 
L 280.303575 232.022264 
L 282.311868 232.707824 
L 284.257575 233.091057 
L 286.12269 233.196796 
L 288.144493 233.021526 
L 289.879222 232.631522 
L 291.882802 231.908065 
L 293.603847 231.056108 
L 295.720641 229.721957 
L 297.709791 228.187938 
L 299.936729 226.1597 
L 302.525143 223.408965 
L 305.069786 220.318084 
L 307.784468 216.631836 
L 309.928406 213.462798 
L 313.119711 208.37468 
L 316.533864 202.518623 
L 321.418845 193.59757 
L 337.463345 163.57937 
L 340.840631 157.862552 
L 343.786249 153.230666 
L 346.283372 149.609554 
L 349.012096 146.015157 
L 351.65599 142.93014 
L 354.245866 140.318906 
L 356.315768 138.541995 
L 358.14062 137.21389 
L 360.063641 136.063731 
L 362.187907 135.098136 
L 364.216299 134.480619 
L 365.905169 134.196257 
L 367.809282 134.127698 
L 369.521374 134.294434 
L 371.342581 134.708333 
L 373.177944 135.370086 
L 375.327625 136.452917 
L 377.327657 137.752275 
L 379.436228 139.418116 
L 381.358282 141.192124 
L 383.80685 143.789088 
L 386.486422 147.037988 
L 388.931778 150.345483 
L 391.226548 153.719652 
L 394.109226 158.287563 
L 397.336791 163.771545 
L 401.397047 171.097331 
L 406.960425 181.597817 
L 415.410254 197.565908 
L 419.585271 205.015184 
L 423.135819 210.921965 
L 426.112845 215.48486 
L 426.112845 215.48486 
" clip-path="url(#pf0c3d454d8)" style="fill: none; stroke: #0000ff; stroke-width: 2; stroke-linecap: square"/>
   </g>
   <g id="line2d_53">
    <path d="M 37.52 159.226274 
L 51.70325 239.106178 
L 55.458399 258.441635 
L 58.597006 273.415227 
L 61.341637 285.437872 
L 63.906485 295.643833 
L 66.253049 304.022754 
L 68.466327 311.022463 
L 70.323468 316.18092 
L 72.008676 320.273321 
L 73.689201 323.778882 
L 75.369725 326.695015 
L 76.732718 328.618735 
L 77.742211 329.785187 
L 78.985389 330.916663 
L 80.228567 331.709095 
L 81.434078 332.151998 
L 82.564255 332.275252 
L 83.79591 332.087547 
L 84.840135 331.665619 
L 85.884359 331.003252 
L 87.182905 329.845816 
L 88.312067 328.54074 
L 89.530573 326.823758 
L 91.105592 324.135852 
L 92.582115 321.144418 
L 94.075463 317.664787 
L 95.975613 312.595366 
L 98.002347 306.424802 
L 99.984958 299.661625 
L 102.183913 291.367984 
L 104.506433 281.767441 
L 107.351542 268.941182 
L 110.431788 253.901517 
L 113.828118 236.177642 
L 118.482653 210.487405 
L 133.689594 125.034857 
L 136.973583 108.239837 
L 139.988187 93.8818 
L 142.699081 82.002009 
L 145.188217 72.070493 
L 147.38611 64.154028 
L 149.52988 57.260268 
L 151.462742 51.785102 
L 153.417938 46.993301 
L 155.187599 43.326387 
L 156.554235 40.941744 
L 158.077279 38.752287 
L 159.331167 37.32527 
L 160.42812 36.357844 
L 161.485963 35.675004 
L 162.570373 35.231105 
L 163.734486 35.043997 
L 164.607571 35.100567 
L 165.69349 35.406326 
L 166.866854 36.029434 
L 168.07668 36.988949 
L 169.271987 38.25104 
L 170.467294 39.822632 
L 171.825639 41.980018 
L 173.06642 44.291174 
L 174.701273 47.823437 
L 176.486379 52.297397 
L 178.43633 57.896168 
L 180.26928 63.808996 
L 182.404652 71.451481 
L 184.851527 81.142245 
L 187.579938 93.021474 
L 190.584188 107.258084 
L 194.159349 125.520799 
L 197.686278 144.621954 
L 203.573553 177.933713 
L 211.853932 224.886685 
L 216.134397 247.810121 
L 219.38026 264.059894 
L 222.476406 278.388953 
L 225.21765 289.953622 
L 227.54167 298.831548 
L 229.800044 306.571915 
L 231.819778 312.705232 
L 233.744382 317.820696 
L 235.668986 322.196035 
L 237.304017 325.313473 
L 238.597735 327.380944 
L 240.003355 329.220918 
L 241.118284 330.375913 
L 242.233213 331.2592 
L 243.438984 331.90676 
L 244.544815 332.218393 
L 245.509837 332.269204 
L 246.474858 332.113825 
L 247.488134 331.729004 
L 248.50141 331.117687 
L 249.484081 330.309378 
L 250.829816 328.860405 
L 251.847994 327.503556 
L 253.054121 325.608962 
L 254.662292 322.605099 
L 256.449705 318.638934 
L 258.293404 313.875144 
L 260.180604 308.3164 
L 262.153037 301.800415 
L 264.155428 294.485474 
L 266.402775 285.489778 
L 268.986519 274.205627 
L 271.82127 260.794373 
L 275.101585 244.134623 
L 278.904136 223.62931 
L 284.616429 191.3542 
L 293.300356 142.10176 
L 297.562055 119.295527 
L 300.741996 103.378102 
L 303.748914 89.434247 
L 306.422904 78.093981 
L 308.908479 68.558126 
L 311.127561 60.936783 
L 313.120726 54.857007 
L 315.02153 49.768394 
L 316.538917 46.222173 
L 318.074829 43.112742 
L 319.607284 40.502512 
L 321.034848 38.521324 
L 322.178865 37.251431 
L 323.347489 36.248978 
L 324.279323 35.664483 
L 325.203614 35.273855 
L 326.127905 35.072093 
L 327.215007 35.076823 
L 328.210681 35.310686 
L 329.16064 35.738067 
L 330.110599 36.364325 
L 331.224359 37.35069 
L 332.338118 38.607436 
L 333.697286 40.503989 
L 335.209411 43.076657 
L 336.465932 45.579134 
L 338.164622 49.477321 
L 340.01626 54.382798 
L 341.847608 59.88395 
L 343.92141 66.858293 
L 346.09212 74.959058 
L 348.717052 85.76804 
L 351.228198 97.049881 
L 354.241787 111.652618 
L 357.419137 128.098868 
L 361.554349 150.714385 
L 366.839799 180.759867 
L 374.938192 226.597062 
L 379.201065 249.323616 
L 382.440036 265.436692 
L 385.288131 278.558297 
L 388.10692 290.417161 
L 390.507359 299.525577 
L 392.710691 307.012815 
L 394.789116 313.259104 
L 396.478077 317.722573 
L 398.013476 321.286379 
L 399.575037 324.415125 
L 401.136598 327.032605 
L 402.47018 328.855981 
L 403.966745 330.443939 
L 405.248628 331.414879 
L 406.406417 331.981004 
L 407.380408 332.227885 
L 408.349089 332.265154 
L 409.316 332.095174 
L 410.291279 331.714277 
L 411.391604 331.032697 
L 412.49193 330.085296 
L 413.841019 328.563491 
L 415.190108 326.648807 
L 416.744314 323.962805 
L 418.218914 320.947493 
L 419.985464 316.750672 
L 421.799779 311.796635 
L 423.90508 305.262401 
L 426.112845 297.548767 
L 426.112845 297.548767 
" clip-path="url(#pf0c3d454d8)" style="fill: none; stroke: #ff0000; stroke-width: 2; stroke-linecap: square"/>
   </g>
   <g id="patch_3">
    <path d="M 37.52 336.117538 
L 37.52 31.2 
" style="fill: none; stroke: #000000; stroke-width: 0.8; stroke-linejoin: miter; stroke-linecap: square"/>
   </g>
   <g id="patch_4">
    <path d="M 29.748143 183.658769 
L 433.884702 183.658769 
" style="fill: none; stroke: #000000; stroke-width: 0.8; stroke-linejoin: miter; stroke-linecap: square"/>
   </g>
   <g id="legend_1">
    <g id="patch_5">
     <path d="M 396.284702 70.596875 
L 430.884702 70.596875 
L 430.884702 38.2 
L 396.284702 38.2 
z
" style="fill: #4c4c4c; opacity: 0.5; stroke: #4c4c4c; stroke-linejoin: miter"/>
    </g>
    <g id="patch_6">
     <path d="M 394.284702 68.596875 
L 428.884702 68.596875 
L 428.884702 36.2 
L 394.284702 36.2 
z
" style="fill: #ffffff; stroke: #cccccc; stroke-linejoin: miter"/>
    </g>
    <g id="line2d_54">
     <path d="M 403.284702 46.298437 
L 397.784702 46.298437 
" style="fill: none; stroke: #0000ff; stroke-width: 2; stroke-linecap: square"/>
    </g>
    <g id="text_14">
     <!-- $x(t)$ -->
     <g transform="translate(405.784702 49.798437)scale(0.1 -0.1)">
      <use xlink:href="#Cmmi10-78"/>
      <use xlink:href="#Cmr10-28" transform="translate(57.080078 0)"/>
      <use xlink:href="#Cmmi10-74" transform="translate(95.898438 0)"/>
      <use xlink:href="#Cmr10-29" transform="translate(131.982422 0)"/>
     </g>
    </g>
    <g id="line2d_55">
     <path d="M 403.284702 56.596875 
L 397.784702 56.596875 
" style="fill: none; stroke: #ff0000; stroke-width: 2; stroke-linecap: square"/>
    </g>
    <g id="text_15">
     <!-- $v(t)$ -->
     <g transform="translate(405.784702 60.096875)scale(0.1 -0.1)">
      <use xlink:href="#Cmmi10-76"/>
      <use xlink:href="#Cmr10-28" transform="translate(48.388672 0)"/>
      <use xlink:href="#Cmmi10-74" transform="translate(87.207031 0)"/>
      <use xlink:href="#Cmr10-29" transform="translate(123.291016 0)"/>
     </g>
    </g>
   </g>
  </g>
 </g>
 <defs>
  <clipPath id="pf0c3d454d8">
   <rect x="29.748143" y="31.2" width="404.136559" height="304.917538"/>
  </clipPath>
 </defs>
</svg>
