<?xml version="1.0" encoding="utf-8" standalone="no"?>
<!DOCTYPE svg PUBLIC "-//W3C//DTD SVG 1.1//EN"
  "http://www.w3.org/Graphics/SVG/1.1/DTD/svg11.dtd">
<svg xmlns:xlink="http://www.w3.org/1999/xlink" width="455.621487pt" height="338.866151pt" viewBox="0 0 455.621487 338.866151" xmlns="http://www.w3.org/2000/svg" version="1.1">
 <metadata>
  <rdf:RDF xmlns:dc="http://purl.org/dc/elements/1.1/" xmlns:cc="http://creativecommons.org/ns#" xmlns:rdf="http://www.w3.org/1999/02/22-rdf-syntax-ns#">
   <cc:Work>
    <dc:type rdf:resource="http://purl.org/dc/dcmitype/StillImage"/>
    <dc:date>2022-06-15T19:56:15.831156</dc:date>
    <dc:format>image/svg+xml</dc:format>
    <dc:creator>
     <cc:Agent>
      <dc:title>Matplotlib v3.5.1, https://matplotlib.org/</dc:title>
     </cc:Agent>
    </dc:creator>
   </cc:Work>
  </rdf:RDF>
 </metadata>
 <defs>
  <style type="text/css">*{stroke-linejoin: round; stroke-linecap: butt}</style>
 </defs>
 <g id="figure_1">
  <g id="patch_1">
   <path d="M 0 338.866151 
L 455.621487 338.866151 
L 455.621487 0 
L 0 0 
z
" style="fill: #ffffff"/>
  </g>
  <g id="axes_1">
   <g id="patch_2">
    <path d="M 35.691294 325.275825 
L 433.391487 325.275825 
L 433.391487 7.2 
L 35.691294 7.2 
z
" style="fill: #ffffff"/>
   </g>
   <g id="matplotlib.axis_1">
    <g id="xtick_1">
     <g id="line2d_1">
      <defs>
       <path id="m6e2421c76e" d="M 0 0 
L 0 3.5 
" style="stroke: #000000; stroke-width: 0.8"/>
      </defs>
      <g>
       <use xlink:href="#m6e2421c76e" x="43.339375" y="213.254141" style="stroke: #000000; stroke-width: 0.8"/>
      </g>
     </g>
    </g>
    <g id="xtick_2">
     <g id="line2d_2">
      <g>
       <use xlink:href="#m6e2421c76e" x="119.820181" y="213.254141" style="stroke: #000000; stroke-width: 0.8"/>
      </g>
     </g>
     <g id="text_1">
      <!-- 2 -->
      <g transform="translate(116.002681 229.372266)scale(0.12 -0.12)">
       <defs>
        <path id="DejaVuSans-32" d="M 1228 531 
L 3431 531 
L 3431 0 
L 469 0 
L 469 531 
Q 828 903 1448 1529 
Q 2069 2156 2228 2338 
Q 2531 2678 2651 2914 
Q 2772 3150 2772 3378 
Q 2772 3750 2511 3984 
Q 2250 4219 1831 4219 
Q 1534 4219 1204 4116 
Q 875 4013 500 3803 
L 500 4441 
Q 881 4594 1212 4672 
Q 1544 4750 1819 4750 
Q 2544 4750 2975 4387 
Q 3406 4025 3406 3419 
Q 3406 3131 3298 2873 
Q 3191 2616 2906 2266 
Q 2828 2175 2409 1742 
Q 1991 1309 1228 531 
z
" transform="scale(0.015625)"/>
       </defs>
       <use xlink:href="#DejaVuSans-32"/>
      </g>
     </g>
    </g>
    <g id="xtick_3">
     <g id="line2d_3">
      <g>
       <use xlink:href="#m6e2421c76e" x="196.300987" y="213.254141" style="stroke: #000000; stroke-width: 0.8"/>
      </g>
     </g>
     <g id="text_2">
      <!-- 4 -->
      <g transform="translate(192.483487 229.372266)scale(0.12 -0.12)">
       <defs>
        <path id="DejaVuSans-34" d="M 2419 4116 
L 825 1625 
L 2419 1625 
L 2419 4116 
z
M 2253 4666 
L 3047 4666 
L 3047 1625 
L 3713 1625 
L 3713 1100 
L 3047 1100 
L 3047 0 
L 2419 0 
L 2419 1100 
L 313 1100 
L 313 1709 
L 2253 4666 
z
" transform="scale(0.015625)"/>
       </defs>
       <use xlink:href="#DejaVuSans-34"/>
      </g>
     </g>
    </g>
    <g id="xtick_4">
     <g id="line2d_4">
      <g>
       <use xlink:href="#m6e2421c76e" x="272.781794" y="213.254141" style="stroke: #000000; stroke-width: 0.8"/>
      </g>
     </g>
     <g id="text_3">
      <!-- 6 -->
      <g transform="translate(268.964294 229.372266)scale(0.12 -0.12)">
       <defs>
        <path id="DejaVuSans-36" d="M 2113 2584 
Q 1688 2584 1439 2293 
Q 1191 2003 1191 1497 
Q 1191 994 1439 701 
Q 1688 409 2113 409 
Q 2538 409 2786 701 
Q 3034 994 3034 1497 
Q 3034 2003 2786 2293 
Q 2538 2584 2113 2584 
z
M 3366 4563 
L 3366 3988 
Q 3128 4100 2886 4159 
Q 2644 4219 2406 4219 
Q 1781 4219 1451 3797 
Q 1122 3375 1075 2522 
Q 1259 2794 1537 2939 
Q 1816 3084 2150 3084 
Q 2853 3084 3261 2657 
Q 3669 2231 3669 1497 
Q 3669 778 3244 343 
Q 2819 -91 2113 -91 
Q 1303 -91 875 529 
Q 447 1150 447 2328 
Q 447 3434 972 4092 
Q 1497 4750 2381 4750 
Q 2619 4750 2861 4703 
Q 3103 4656 3366 4563 
z
" transform="scale(0.015625)"/>
       </defs>
       <use xlink:href="#DejaVuSans-36"/>
      </g>
     </g>
    </g>
    <g id="xtick_5">
     <g id="line2d_5">
      <g>
       <use xlink:href="#m6e2421c76e" x="349.2626" y="213.254141" style="stroke: #000000; stroke-width: 0.8"/>
      </g>
     </g>
     <g id="text_4">
      <!-- 8 -->
      <g transform="translate(345.4451 229.372266)scale(0.12 -0.12)">
       <defs>
        <path id="DejaVuSans-38" d="M 2034 2216 
Q 1584 2216 1326 1975 
Q 1069 1734 1069 1313 
Q 1069 891 1326 650 
Q 1584 409 2034 409 
Q 2484 409 2743 651 
Q 3003 894 3003 1313 
Q 3003 1734 2745 1975 
Q 2488 2216 2034 2216 
z
M 1403 2484 
Q 997 2584 770 2862 
Q 544 3141 544 3541 
Q 544 4100 942 4425 
Q 1341 4750 2034 4750 
Q 2731 4750 3128 4425 
Q 3525 4100 3525 3541 
Q 3525 3141 3298 2862 
Q 3072 2584 2669 2484 
Q 3125 2378 3379 2068 
Q 3634 1759 3634 1313 
Q 3634 634 3220 271 
Q 2806 -91 2034 -91 
Q 1263 -91 848 271 
Q 434 634 434 1313 
Q 434 1759 690 2068 
Q 947 2378 1403 2484 
z
M 1172 3481 
Q 1172 3119 1398 2916 
Q 1625 2713 2034 2713 
Q 2441 2713 2670 2916 
Q 2900 3119 2900 3481 
Q 2900 3844 2670 4047 
Q 2441 4250 2034 4250 
Q 1625 4250 1398 4047 
Q 1172 3844 1172 3481 
z
" transform="scale(0.015625)"/>
       </defs>
       <use xlink:href="#DejaVuSans-38"/>
      </g>
     </g>
    </g>
    <g id="xtick_6">
     <g id="line2d_6">
      <g>
       <use xlink:href="#m6e2421c76e" x="425.743406" y="213.254141" style="stroke: #000000; stroke-width: 0.8"/>
      </g>
     </g>
     <g id="text_5">
      <!-- 10 -->
      <g transform="translate(418.108406 229.372266)scale(0.12 -0.12)">
       <defs>
        <path id="DejaVuSans-31" d="M 794 531 
L 1825 531 
L 1825 4091 
L 703 3866 
L 703 4441 
L 1819 4666 
L 2450 4666 
L 2450 531 
L 3481 531 
L 3481 0 
L 794 0 
L 794 531 
z
" transform="scale(0.015625)"/>
        <path id="DejaVuSans-30" d="M 2034 4250 
Q 1547 4250 1301 3770 
Q 1056 3291 1056 2328 
Q 1056 1369 1301 889 
Q 1547 409 2034 409 
Q 2525 409 2770 889 
Q 3016 1369 3016 2328 
Q 3016 3291 2770 3770 
Q 2525 4250 2034 4250 
z
M 2034 4750 
Q 2819 4750 3233 4129 
Q 3647 3509 3647 2328 
Q 3647 1150 3233 529 
Q 2819 -91 2034 -91 
Q 1250 -91 836 529 
Q 422 1150 422 2328 
Q 422 3509 836 4129 
Q 1250 4750 2034 4750 
z
" transform="scale(0.015625)"/>
       </defs>
       <use xlink:href="#DejaVuSans-31"/>
       <use xlink:href="#DejaVuSans-30" x="63.623047"/>
      </g>
     </g>
    </g>
    <g id="xtick_7">
     <g id="line2d_7">
      <defs>
       <path id="m0adca511be" d="M 0 0 
L 0 2 
" style="stroke: #000000; stroke-width: 0.6"/>
      </defs>
      <g>
       <use xlink:href="#m0adca511be" x="62.459577" y="213.254141" style="stroke: #000000; stroke-width: 0.6"/>
      </g>
     </g>
    </g>
    <g id="xtick_8">
     <g id="line2d_8">
      <g>
       <use xlink:href="#m0adca511be" x="81.579778" y="213.254141" style="stroke: #000000; stroke-width: 0.6"/>
      </g>
     </g>
    </g>
    <g id="xtick_9">
     <g id="line2d_9">
      <g>
       <use xlink:href="#m0adca511be" x="100.69998" y="213.254141" style="stroke: #000000; stroke-width: 0.6"/>
      </g>
     </g>
    </g>
    <g id="xtick_10">
     <g id="line2d_10">
      <g>
       <use xlink:href="#m0adca511be" x="138.940383" y="213.254141" style="stroke: #000000; stroke-width: 0.6"/>
      </g>
     </g>
    </g>
    <g id="xtick_11">
     <g id="line2d_11">
      <g>
       <use xlink:href="#m0adca511be" x="158.060584" y="213.254141" style="stroke: #000000; stroke-width: 0.6"/>
      </g>
     </g>
    </g>
    <g id="xtick_12">
     <g id="line2d_12">
      <g>
       <use xlink:href="#m0adca511be" x="177.180786" y="213.254141" style="stroke: #000000; stroke-width: 0.6"/>
      </g>
     </g>
    </g>
    <g id="xtick_13">
     <g id="line2d_13">
      <g>
       <use xlink:href="#m0adca511be" x="215.421189" y="213.254141" style="stroke: #000000; stroke-width: 0.6"/>
      </g>
     </g>
    </g>
    <g id="xtick_14">
     <g id="line2d_14">
      <g>
       <use xlink:href="#m0adca511be" x="234.541391" y="213.254141" style="stroke: #000000; stroke-width: 0.6"/>
      </g>
     </g>
    </g>
    <g id="xtick_15">
     <g id="line2d_15">
      <g>
       <use xlink:href="#m0adca511be" x="253.661592" y="213.254141" style="stroke: #000000; stroke-width: 0.6"/>
      </g>
     </g>
    </g>
    <g id="xtick_16">
     <g id="line2d_16">
      <g>
       <use xlink:href="#m0adca511be" x="291.901995" y="213.254141" style="stroke: #000000; stroke-width: 0.6"/>
      </g>
     </g>
    </g>
    <g id="xtick_17">
     <g id="line2d_17">
      <g>
       <use xlink:href="#m0adca511be" x="311.022197" y="213.254141" style="stroke: #000000; stroke-width: 0.6"/>
      </g>
     </g>
    </g>
    <g id="xtick_18">
     <g id="line2d_18">
      <g>
       <use xlink:href="#m0adca511be" x="330.142398" y="213.254141" style="stroke: #000000; stroke-width: 0.6"/>
      </g>
     </g>
    </g>
    <g id="xtick_19">
     <g id="line2d_19">
      <g>
       <use xlink:href="#m0adca511be" x="368.382801" y="213.254141" style="stroke: #000000; stroke-width: 0.6"/>
      </g>
     </g>
    </g>
    <g id="xtick_20">
     <g id="line2d_20">
      <g>
       <use xlink:href="#m0adca511be" x="387.503003" y="213.254141" style="stroke: #000000; stroke-width: 0.6"/>
      </g>
     </g>
    </g>
    <g id="xtick_21">
     <g id="line2d_21">
      <g>
       <use xlink:href="#m0adca511be" x="406.623205" y="213.254141" style="stroke: #000000; stroke-width: 0.6"/>
      </g>
     </g>
    </g>
    <g id="text_6">
     <!-- $t$ -->
     <g transform="translate(441.391487 213.254141)scale(0.19 -0.19)">
      <defs>
       <path id="Cmmi10-74" d="M 397 519 
Q 397 613 416 697 
L 878 2534 
L 206 2534 
Q 141 2534 141 2619 
Q 166 2759 225 2759 
L 934 2759 
L 1191 3803 
Q 1216 3888 1291 3947 
Q 1366 4006 1459 4006 
Q 1541 4006 1595 3957 
Q 1650 3909 1650 3828 
Q 1650 3809 1648 3798 
Q 1647 3788 1644 3775 
L 1388 2759 
L 2047 2759 
Q 2113 2759 2113 2675 
Q 2109 2659 2100 2621 
Q 2091 2584 2075 2559 
Q 2059 2534 2028 2534 
L 1331 2534 
L 872 684 
Q 825 503 825 372 
Q 825 97 1013 97 
Q 1294 97 1511 361 
Q 1728 625 1844 941 
Q 1869 978 1894 978 
L 1972 978 
Q 1997 978 2012 961 
Q 2028 944 2028 922 
Q 2028 909 2022 903 
Q 1881 516 1612 222 
Q 1344 -72 997 -72 
Q 744 -72 570 93 
Q 397 259 397 519 
z
" transform="scale(0.015625)"/>
      </defs>
      <use xlink:href="#Cmmi10-74" transform="translate(0 0.40625)"/>
     </g>
    </g>
   </g>
   <g id="matplotlib.axis_2">
    <g id="ytick_1">
     <g id="line2d_22">
      <defs>
       <path id="mdf4e1d3a04" d="M 0 0 
L -3.5 0 
" style="stroke: #000000; stroke-width: 0.8"/>
      </defs>
      <g>
       <use xlink:href="#mdf4e1d3a04" x="43.339375" y="324.611464" style="stroke: #000000; stroke-width: 0.8"/>
      </g>
     </g>
     <g id="text_7">
      <!-- −1.5 -->
      <g transform="translate(7.2 329.170526)scale(0.12 -0.12)">
       <defs>
        <path id="DejaVuSans-2212" d="M 678 2272 
L 4684 2272 
L 4684 1741 
L 678 1741 
L 678 2272 
z
" transform="scale(0.015625)"/>
        <path id="DejaVuSans-2e" d="M 684 794 
L 1344 794 
L 1344 0 
L 684 0 
L 684 794 
z
" transform="scale(0.015625)"/>
        <path id="DejaVuSans-35" d="M 691 4666 
L 3169 4666 
L 3169 4134 
L 1269 4134 
L 1269 2991 
Q 1406 3038 1543 3061 
Q 1681 3084 1819 3084 
Q 2600 3084 3056 2656 
Q 3513 2228 3513 1497 
Q 3513 744 3044 326 
Q 2575 -91 1722 -91 
Q 1428 -91 1123 -41 
Q 819 9 494 109 
L 494 744 
Q 775 591 1075 516 
Q 1375 441 1709 441 
Q 2250 441 2565 725 
Q 2881 1009 2881 1497 
Q 2881 1984 2565 2268 
Q 2250 2553 1709 2553 
Q 1456 2553 1204 2497 
Q 953 2441 691 2322 
L 691 4666 
z
" transform="scale(0.015625)"/>
       </defs>
       <use xlink:href="#DejaVuSans-2212"/>
       <use xlink:href="#DejaVuSans-31" x="83.789062"/>
       <use xlink:href="#DejaVuSans-2e" x="147.412109"/>
       <use xlink:href="#DejaVuSans-35" x="179.199219"/>
      </g>
     </g>
    </g>
    <g id="ytick_2">
     <g id="line2d_23">
      <g>
       <use xlink:href="#mdf4e1d3a04" x="43.339375" y="287.492356" style="stroke: #000000; stroke-width: 0.8"/>
      </g>
     </g>
     <g id="text_8">
      <!-- −1.0 -->
      <g transform="translate(7.2 292.051419)scale(0.12 -0.12)">
       <use xlink:href="#DejaVuSans-2212"/>
       <use xlink:href="#DejaVuSans-31" x="83.789062"/>
       <use xlink:href="#DejaVuSans-2e" x="147.412109"/>
       <use xlink:href="#DejaVuSans-30" x="179.199219"/>
      </g>
     </g>
    </g>
    <g id="ytick_3">
     <g id="line2d_24">
      <g>
       <use xlink:href="#mdf4e1d3a04" x="43.339375" y="250.373249" style="stroke: #000000; stroke-width: 0.8"/>
      </g>
     </g>
     <g id="text_9">
      <!-- −0.5 -->
      <g transform="translate(7.2 254.932311)scale(0.12 -0.12)">
       <use xlink:href="#DejaVuSans-2212"/>
       <use xlink:href="#DejaVuSans-30" x="83.789062"/>
       <use xlink:href="#DejaVuSans-2e" x="147.412109"/>
       <use xlink:href="#DejaVuSans-35" x="179.199219"/>
      </g>
     </g>
    </g>
    <g id="ytick_4">
     <g id="line2d_25">
      <g>
       <use xlink:href="#mdf4e1d3a04" x="43.339375" y="213.254141" style="stroke: #000000; stroke-width: 0.8"/>
      </g>
     </g>
    </g>
    <g id="ytick_5">
     <g id="line2d_26">
      <g>
       <use xlink:href="#mdf4e1d3a04" x="43.339375" y="176.135033" style="stroke: #000000; stroke-width: 0.8"/>
      </g>
     </g>
     <g id="text_10">
      <!-- 0.5 -->
      <g transform="translate(17.255625 180.694096)scale(0.12 -0.12)">
       <use xlink:href="#DejaVuSans-30"/>
       <use xlink:href="#DejaVuSans-2e" x="63.623047"/>
       <use xlink:href="#DejaVuSans-35" x="95.410156"/>
      </g>
     </g>
    </g>
    <g id="ytick_6">
     <g id="line2d_27">
      <g>
       <use xlink:href="#mdf4e1d3a04" x="43.339375" y="139.015926" style="stroke: #000000; stroke-width: 0.8"/>
      </g>
     </g>
     <g id="text_11">
      <!-- 1.0 -->
      <g transform="translate(17.255625 143.574988)scale(0.12 -0.12)">
       <use xlink:href="#DejaVuSans-31"/>
       <use xlink:href="#DejaVuSans-2e" x="63.623047"/>
       <use xlink:href="#DejaVuSans-30" x="95.410156"/>
      </g>
     </g>
    </g>
    <g id="ytick_7">
     <g id="line2d_28">
      <g>
       <use xlink:href="#mdf4e1d3a04" x="43.339375" y="101.896818" style="stroke: #000000; stroke-width: 0.8"/>
      </g>
     </g>
     <g id="text_12">
      <!-- 1.5 -->
      <g transform="translate(17.255625 106.45588)scale(0.12 -0.12)">
       <use xlink:href="#DejaVuSans-31"/>
       <use xlink:href="#DejaVuSans-2e" x="63.623047"/>
       <use xlink:href="#DejaVuSans-35" x="95.410156"/>
      </g>
     </g>
    </g>
    <g id="ytick_8">
     <g id="line2d_29">
      <g>
       <use xlink:href="#mdf4e1d3a04" x="43.339375" y="64.77771" style="stroke: #000000; stroke-width: 0.8"/>
      </g>
     </g>
     <g id="text_13">
      <!-- 2.0 -->
      <g transform="translate(17.255625 69.336773)scale(0.12 -0.12)">
       <use xlink:href="#DejaVuSans-32"/>
       <use xlink:href="#DejaVuSans-2e" x="63.623047"/>
       <use xlink:href="#DejaVuSans-30" x="95.410156"/>
      </g>
     </g>
    </g>
    <g id="ytick_9">
     <g id="line2d_30">
      <g>
       <use xlink:href="#mdf4e1d3a04" x="43.339375" y="27.658603" style="stroke: #000000; stroke-width: 0.8"/>
      </g>
     </g>
     <g id="text_14">
      <!-- 2.5 -->
      <g transform="translate(17.255625 32.217665)scale(0.12 -0.12)">
       <use xlink:href="#DejaVuSans-32"/>
       <use xlink:href="#DejaVuSans-2e" x="63.623047"/>
       <use xlink:href="#DejaVuSans-35" x="95.410156"/>
      </g>
     </g>
    </g>
    <g id="ytick_10">
     <g id="line2d_31">
      <defs>
       <path id="ma2a2f0edb1" d="M 0 0 
L -2 0 
" style="stroke: #000000; stroke-width: 0.6"/>
      </defs>
      <g>
       <use xlink:href="#ma2a2f0edb1" x="43.339375" y="317.187642" style="stroke: #000000; stroke-width: 0.6"/>
      </g>
     </g>
    </g>
    <g id="ytick_11">
     <g id="line2d_32">
      <g>
       <use xlink:href="#ma2a2f0edb1" x="43.339375" y="309.763821" style="stroke: #000000; stroke-width: 0.6"/>
      </g>
     </g>
    </g>
    <g id="ytick_12">
     <g id="line2d_33">
      <g>
       <use xlink:href="#ma2a2f0edb1" x="43.339375" y="302.339999" style="stroke: #000000; stroke-width: 0.6"/>
      </g>
     </g>
    </g>
    <g id="ytick_13">
     <g id="line2d_34">
      <g>
       <use xlink:href="#ma2a2f0edb1" x="43.339375" y="294.916178" style="stroke: #000000; stroke-width: 0.6"/>
      </g>
     </g>
    </g>
    <g id="ytick_14">
     <g id="line2d_35">
      <g>
       <use xlink:href="#ma2a2f0edb1" x="43.339375" y="280.068535" style="stroke: #000000; stroke-width: 0.6"/>
      </g>
     </g>
    </g>
    <g id="ytick_15">
     <g id="line2d_36">
      <g>
       <use xlink:href="#ma2a2f0edb1" x="43.339375" y="272.644713" style="stroke: #000000; stroke-width: 0.6"/>
      </g>
     </g>
    </g>
    <g id="ytick_16">
     <g id="line2d_37">
      <g>
       <use xlink:href="#ma2a2f0edb1" x="43.339375" y="265.220892" style="stroke: #000000; stroke-width: 0.6"/>
      </g>
     </g>
    </g>
    <g id="ytick_17">
     <g id="line2d_38">
      <g>
       <use xlink:href="#ma2a2f0edb1" x="43.339375" y="257.79707" style="stroke: #000000; stroke-width: 0.6"/>
      </g>
     </g>
    </g>
    <g id="ytick_18">
     <g id="line2d_39">
      <g>
       <use xlink:href="#ma2a2f0edb1" x="43.339375" y="242.949427" style="stroke: #000000; stroke-width: 0.6"/>
      </g>
     </g>
    </g>
    <g id="ytick_19">
     <g id="line2d_40">
      <g>
       <use xlink:href="#ma2a2f0edb1" x="43.339375" y="235.525605" style="stroke: #000000; stroke-width: 0.6"/>
      </g>
     </g>
    </g>
    <g id="ytick_20">
     <g id="line2d_41">
      <g>
       <use xlink:href="#ma2a2f0edb1" x="43.339375" y="228.101784" style="stroke: #000000; stroke-width: 0.6"/>
      </g>
     </g>
    </g>
    <g id="ytick_21">
     <g id="line2d_42">
      <g>
       <use xlink:href="#ma2a2f0edb1" x="43.339375" y="220.677962" style="stroke: #000000; stroke-width: 0.6"/>
      </g>
     </g>
    </g>
    <g id="ytick_22">
     <g id="line2d_43">
      <g>
       <use xlink:href="#ma2a2f0edb1" x="43.339375" y="205.830319" style="stroke: #000000; stroke-width: 0.6"/>
      </g>
     </g>
    </g>
    <g id="ytick_23">
     <g id="line2d_44">
      <g>
       <use xlink:href="#ma2a2f0edb1" x="43.339375" y="198.406498" style="stroke: #000000; stroke-width: 0.6"/>
      </g>
     </g>
    </g>
    <g id="ytick_24">
     <g id="line2d_45">
      <g>
       <use xlink:href="#ma2a2f0edb1" x="43.339375" y="190.982676" style="stroke: #000000; stroke-width: 0.6"/>
      </g>
     </g>
    </g>
    <g id="ytick_25">
     <g id="line2d_46">
      <g>
       <use xlink:href="#ma2a2f0edb1" x="43.339375" y="183.558855" style="stroke: #000000; stroke-width: 0.6"/>
      </g>
     </g>
    </g>
    <g id="ytick_26">
     <g id="line2d_47">
      <g>
       <use xlink:href="#ma2a2f0edb1" x="43.339375" y="168.711212" style="stroke: #000000; stroke-width: 0.6"/>
      </g>
     </g>
    </g>
    <g id="ytick_27">
     <g id="line2d_48">
      <g>
       <use xlink:href="#ma2a2f0edb1" x="43.339375" y="161.28739" style="stroke: #000000; stroke-width: 0.6"/>
      </g>
     </g>
    </g>
    <g id="ytick_28">
     <g id="line2d_49">
      <g>
       <use xlink:href="#ma2a2f0edb1" x="43.339375" y="153.863569" style="stroke: #000000; stroke-width: 0.6"/>
      </g>
     </g>
    </g>
    <g id="ytick_29">
     <g id="line2d_50">
      <g>
       <use xlink:href="#ma2a2f0edb1" x="43.339375" y="146.439747" style="stroke: #000000; stroke-width: 0.6"/>
      </g>
     </g>
    </g>
    <g id="ytick_30">
     <g id="line2d_51">
      <g>
       <use xlink:href="#ma2a2f0edb1" x="43.339375" y="131.592104" style="stroke: #000000; stroke-width: 0.6"/>
      </g>
     </g>
    </g>
    <g id="ytick_31">
     <g id="line2d_52">
      <g>
       <use xlink:href="#ma2a2f0edb1" x="43.339375" y="124.168283" style="stroke: #000000; stroke-width: 0.6"/>
      </g>
     </g>
    </g>
    <g id="ytick_32">
     <g id="line2d_53">
      <g>
       <use xlink:href="#ma2a2f0edb1" x="43.339375" y="116.744461" style="stroke: #000000; stroke-width: 0.6"/>
      </g>
     </g>
    </g>
    <g id="ytick_33">
     <g id="line2d_54">
      <g>
       <use xlink:href="#ma2a2f0edb1" x="43.339375" y="109.32064" style="stroke: #000000; stroke-width: 0.6"/>
      </g>
     </g>
    </g>
    <g id="ytick_34">
     <g id="line2d_55">
      <g>
       <use xlink:href="#ma2a2f0edb1" x="43.339375" y="94.472996" style="stroke: #000000; stroke-width: 0.6"/>
      </g>
     </g>
    </g>
    <g id="ytick_35">
     <g id="line2d_56">
      <g>
       <use xlink:href="#ma2a2f0edb1" x="43.339375" y="87.049175" style="stroke: #000000; stroke-width: 0.6"/>
      </g>
     </g>
    </g>
    <g id="ytick_36">
     <g id="line2d_57">
      <g>
       <use xlink:href="#ma2a2f0edb1" x="43.339375" y="79.625353" style="stroke: #000000; stroke-width: 0.6"/>
      </g>
     </g>
    </g>
    <g id="ytick_37">
     <g id="line2d_58">
      <g>
       <use xlink:href="#ma2a2f0edb1" x="43.339375" y="72.201532" style="stroke: #000000; stroke-width: 0.6"/>
      </g>
     </g>
    </g>
    <g id="ytick_38">
     <g id="line2d_59">
      <g>
       <use xlink:href="#ma2a2f0edb1" x="43.339375" y="57.353889" style="stroke: #000000; stroke-width: 0.6"/>
      </g>
     </g>
    </g>
    <g id="ytick_39">
     <g id="line2d_60">
      <g>
       <use xlink:href="#ma2a2f0edb1" x="43.339375" y="49.930067" style="stroke: #000000; stroke-width: 0.6"/>
      </g>
     </g>
    </g>
    <g id="ytick_40">
     <g id="line2d_61">
      <g>
       <use xlink:href="#ma2a2f0edb1" x="43.339375" y="42.506246" style="stroke: #000000; stroke-width: 0.6"/>
      </g>
     </g>
    </g>
    <g id="ytick_41">
     <g id="line2d_62">
      <g>
       <use xlink:href="#ma2a2f0edb1" x="43.339375" y="35.082424" style="stroke: #000000; stroke-width: 0.6"/>
      </g>
     </g>
    </g>
    <g id="ytick_42">
     <g id="line2d_63">
      <g>
       <use xlink:href="#ma2a2f0edb1" x="43.339375" y="20.234781" style="stroke: #000000; stroke-width: 0.6"/>
      </g>
     </g>
    </g>
    <g id="ytick_43">
     <g id="line2d_64">
      <g>
       <use xlink:href="#ma2a2f0edb1" x="43.339375" y="12.81096" style="stroke: #000000; stroke-width: 0.6"/>
      </g>
     </g>
    </g>
   </g>
   <g id="line2d_65">
    <path d="M 43.339375 176.135033 
L 45.620922 174.22479 
L 47.90433 172.830782 
L 49.740117 172.007483 
L 51.690356 171.366211 
L 54.00648 170.856624 
L 57.962704 170.466383 
L 62.216754 170.532469 
L 67.178746 171.052549 
L 69.29241 171.386857 
L 73.567759 172.236397 
L 79.51878 173.767171 
L 84.730773 175.422397 
L 90.310362 177.516064 
L 94.550088 179.329424 
L 100.581686 182.236636 
L 106.09156 185.217256 
L 112.00869 188.739322 
L 117.975743 192.589593 
L 125.614984 197.871966 
L 135.093713 204.782814 
L 149.79342 215.585057 
L 156.150004 220.01572 
L 161.873721 223.756783 
L 168.402949 227.642215 
L 172.50377 229.832302 
L 176.091296 231.568868 
L 179.032821 232.857959 
L 183.34334 234.51305 
L 187.705412 235.888499 
L 189.030387 236.24425 
L 192.565722 237.047891 
L 197.454764 237.802422 
L 200.398312 238.053377 
L 203.835015 238.151367 
L 209.424502 237.862958 
L 211.639713 237.596839 
L 215.440484 236.943602 
L 217.607504 236.462283 
L 223.502548 234.768962 
L 228.590173 232.882688 
L 233.320756 230.807425 
L 238.105045 228.427835 
L 243.942028 225.197865 
L 250.268762 221.375511 
L 260.406411 214.816162 
L 273.58331 206.171263 
L 279.330261 202.596842 
L 284.373961 199.652278 
L 289.748665 196.773081 
L 294.758545 194.378838 
L 297.989188 193.003158 
L 302.497912 191.325567 
L 306.405992 190.11612 
L 311.052744 188.992133 
L 313.635533 188.520814 
L 317.203177 188.055155 
L 321.475354 187.785471 
L 324.035449 187.775661 
L 327.02272 187.908226 
L 331.007169 188.324961 
L 335.723527 189.166611 
L 338.442813 189.818998 
L 340.277124 190.326103 
L 345.442693 192.032918 
L 348.465596 193.21314 
L 352.362831 194.918061 
L 358.100019 197.768158 
L 363.477588 200.756417 
L 368.383719 203.699248 
L 375.190387 208.030943 
L 399.026352 223.563523 
L 405.020388 227.071973 
L 410.115293 229.790809 
L 415.709866 232.436877 
L 421.09386 234.596853 
L 425.743406 236.123591 
L 425.743406 236.123591 
" clip-path="url(#pdf5655a490)" style="fill: none; stroke: #0000ff; stroke-linecap: square"/>
   </g>
   <g id="line2d_66">
    <path d="M 43.339375 176.135033 
L 44.766257 182.545153 
L 46.193139 188.027373 
L 47.682952 192.909414 
L 49.361008 197.541746 
L 50.896792 201.108621 
L 52.226755 203.761688 
L 53.556718 206.071454 
L 55.412448 208.81409 
L 57.540587 211.402421 
L 59.675233 213.533926 
L 61.983039 215.442185 
L 64.163375 216.962804 
L 65.705336 217.91314 
L 70.135548 220.253355 
L 75.585951 222.693125 
L 87.097912 227.430331 
L 102.57981 233.657892 
L 109.249968 236.095406 
L 114.423222 237.772559 
L 120.032632 239.311381 
L 123.72308 240.135729 
L 128.214998 240.911688 
L 131.836218 241.340438 
L 135.093583 241.566896 
L 139.383759 241.62507 
L 144.025061 241.370937 
L 147.947954 240.894635 
L 151.954493 240.160334 
L 157.088242 238.858302 
L 161.624636 237.380444 
L 166.625806 235.413739 
L 171.263613 233.296142 
L 175.477257 231.14952 
L 179.878996 228.706042 
L 184.723996 225.813268 
L 192.846069 220.60144 
L 217.909985 203.886309 
L 223.109634 200.738831 
L 229.896333 197.005096 
L 232.668183 195.626137 
L 236.827924 193.737685 
L 240.679369 192.199423 
L 242.801736 191.443915 
L 247.119785 190.120148 
L 250.273741 189.341582 
L 255.320059 188.440427 
L 259.095528 188.051157 
L 262.615074 187.911622 
L 263.561058 187.911045 
L 269.124885 188.223666 
L 271.714238 188.551845 
L 275.493523 189.235055 
L 278.771602 190.019159 
L 284.456095 191.782036 
L 288.316111 193.253638 
L 292.75217 195.196825 
L 298.406603 198.023868 
L 305.077947 201.784177 
L 311.548052 205.767151 
L 319.850007 211.177281 
L 332.7156 219.665038 
L 341.012318 224.817324 
L 346.595245 227.993911 
L 350.432056 229.999327 
L 355.394054 232.340721 
L 357.667831 233.308722 
L 362.041287 234.968766 
L 366.196667 236.283695 
L 370.008076 237.2514 
L 373.727076 237.966243 
L 375.405221 238.212702 
L 380.183156 238.650117 
L 384.082377 238.713915 
L 387.590443 238.545353 
L 391.546378 238.100348 
L 394.332806 237.627097 
L 396.476039 237.174949 
L 401.627602 235.784169 
L 405.256911 234.557506 
L 409.188809 233.012628 
L 413.50409 231.077631 
L 418.674053 228.463279 
L 424.571566 225.145165 
L 425.743406 224.449614 
L 425.743406 224.449614 
" clip-path="url(#pdf5655a490)" style="fill: none; stroke: #ff0000; stroke-linecap: square"/>
   </g>
   <g id="line2d_67">
    <path d="M 43.339375 139.015926 
L 44.24344 137.401096 
L 45.755298 135.272176 
L 46.363091 134.595395 
L 47.376589 133.668636 
L 49.055006 132.621109 
L 49.719926 132.352903 
L 51.049765 132.031629 
L 52.370159 131.960465 
L 53.980767 132.15363 
L 55.859108 132.695969 
L 58.266407 133.777668 
L 61.928036 136.007599 
L 65.995172 138.997015 
L 71.900243 143.811935 
L 84.038467 154.194597 
L 107.054134 174.10922 
L 122.102423 187.519915 
L 139.57617 203.114294 
L 147.065279 209.513149 
L 152.032392 213.567098 
L 158.179454 218.302853 
L 163.725752 222.248384 
L 169.633857 226.045686 
L 174.451269 228.790379 
L 177.742425 230.467002 
L 183.199862 232.866521 
L 186.536312 234.087599 
L 192.090333 235.687303 
L 195.664114 236.422595 
L 200.381561 237.03397 
L 204.275204 237.228904 
L 208.187597 237.14391 
L 212.185821 236.770232 
L 216.619147 236.025404 
L 220.61514 235.067072 
L 223.648266 234.166013 
L 228.225894 232.538373 
L 232.044959 230.950782 
L 236.609168 228.805072 
L 241.888827 226.026848 
L 246.247771 223.531505 
L 254.435481 218.47742 
L 267.865656 209.70763 
L 277.177981 203.775323 
L 282.616212 200.53589 
L 287.885851 197.633908 
L 292.963342 195.111358 
L 297.431113 193.1503 
L 301.672419 191.538628 
L 305.283061 190.373961 
L 308.173064 189.586817 
L 312.135066 188.726265 
L 315.876058 188.153321 
L 319.821848 187.807542 
L 325.186713 187.769451 
L 329.428667 188.092398 
L 333.764415 188.740652 
L 337.490687 189.548699 
L 342.067383 190.84678 
L 346.872176 192.552868 
L 350.519662 194.066833 
L 355.691871 196.50811 
L 361.670869 199.706913 
L 367.729082 203.283623 
L 374.074339 207.294845 
L 385.60476 214.920721 
L 394.849207 220.957275 
L 400.981675 224.734775 
L 404.474887 226.760559 
L 409.571446 229.509476 
L 414.920676 232.083508 
L 417.611475 233.242042 
L 422.056412 234.936513 
L 425.743406 236.120782 
L 425.743406 236.120782 
" clip-path="url(#pdf5655a490)" style="fill: none; stroke: #0000ff; stroke-linecap: square"/>
   </g>
   <g id="line2d_68">
    <path d="M 43.339375 139.015926 
L 44.822885 157.533923 
L 46.319948 173.229635 
L 47.640403 184.942824 
L 49.035406 195.459193 
L 50.39842 204.148599 
L 51.681779 211.097914 
L 52.925287 216.846336 
L 54.208597 221.898608 
L 55.423924 225.968723 
L 56.556502 229.217808 
L 57.674317 231.974985 
L 58.898712 234.547969 
L 60.229686 236.886725 
L 61.800105 239.126406 
L 63.699705 241.217879 
L 65.065844 242.381231 
L 66.431983 243.311571 
L 68.550842 244.382883 
L 69.975172 244.900768 
L 71.810536 245.383651 
L 74.518749 245.816512 
L 78.011395 246.061082 
L 84.331832 246.119416 
L 93.30408 246.184168 
L 100.996328 246.505357 
L 119.940998 247.602251 
L 125.561326 247.671852 
L 129.870737 247.556137 
L 133.46154 247.325217 
L 138.975355 246.700619 
L 142.342084 246.144487 
L 147.573326 245.000656 
L 152.022112 243.751621 
L 156.262805 242.322207 
L 159.827857 240.942103 
L 163.540462 239.336176 
L 167.880162 237.250164 
L 171.360254 235.424343 
L 176.982596 232.21343 
L 183.861249 227.910901 
L 191.518773 222.761183 
L 204.70242 213.494569 
L 212.249044 208.270606 
L 218.601415 204.088129 
L 223.701264 200.948574 
L 229.650219 197.605631 
L 235.237386 194.84231 
L 240.138457 192.762734 
L 242.286421 191.961567 
L 246.301828 190.654864 
L 250.33511 189.60386 
L 253.966887 188.890543 
L 258.923088 188.283878 
L 262.048663 188.122498 
L 265.596253 188.147893 
L 269.371547 188.417618 
L 274.822258 189.241617 
L 277.0111 189.713587 
L 281.018088 190.779757 
L 285.977615 192.445226 
L 289.759546 193.955813 
L 292.725934 195.275615 
L 298.466869 198.134256 
L 302.341581 200.263404 
L 308.512027 203.924421 
L 315.362392 208.274293 
L 337.550931 222.748283 
L 344.153986 226.663261 
L 347.930326 228.731069 
L 352.858714 231.200962 
L 355.843286 232.554896 
L 360.911307 234.58151 
L 364.448787 235.776802 
L 368.669855 236.950797 
L 372.360051 237.741646 
L 376.584817 238.367376 
L 380.61746 238.67945 
L 384.457749 238.714362 
L 388.666145 238.458365 
L 392.481679 237.962785 
L 396.668046 237.136762 
L 400.535465 236.119502 
L 405.526489 234.463362 
L 409.425434 232.917128 
L 414.743681 230.482473 
L 419.173172 228.198726 
L 425.743406 224.452423 
L 425.743406 224.452423 
" clip-path="url(#pdf5655a490)" style="fill: none; stroke: #ff0000; stroke-linecap: square"/>
   </g>
   <g id="line2d_69">
    <path d="M 43.339375 101.896818 
L 44.297735 99.364375 
L 45.256094 97.311459 
L 46.042546 95.948639 
L 47.35407 94.24738 
L 48.404215 93.338888 
L 49.611629 92.725158 
L 50.293969 92.558623 
L 51.099849 92.511577 
L 51.905729 92.611499 
L 52.71161 92.843803 
L 54.332049 93.65889 
L 55.962776 94.870511 
L 58.131162 96.954124 
L 60.139923 99.246159 
L 63.293549 103.321116 
L 65.941869 107.025023 
L 84.781692 134.226698 
L 91.831268 143.64054 
L 97.799508 151.231087 
L 104.294407 159.165152 
L 112.068489 168.305867 
L 121.497492 178.96954 
L 131.049485 189.323553 
L 139.896635 198.441858 
L 145.955481 204.357736 
L 151.161236 209.1806 
L 156.244629 213.620312 
L 162.424225 218.605703 
L 166.301124 221.475756 
L 170.202768 224.144899 
L 175.095976 227.159078 
L 177.620449 228.561076 
L 182.291449 230.866754 
L 185.333868 232.16016 
L 189.286566 233.587189 
L 193.493659 234.784403 
L 196.195241 235.375686 
L 200.635459 236.043543 
L 202.89869 236.238436 
L 206.574765 236.346725 
L 211.517962 236.091449 
L 214.225384 235.760969 
L 217.561394 235.173628 
L 221.714787 234.174346 
L 226.284513 232.749424 
L 229.078207 231.720642 
L 232.832908 230.163023 
L 237.106948 228.16617 
L 241.529982 225.877479 
L 246.63924 222.995938 
L 252.705246 219.317424 
L 261.782905 213.496296 
L 274.428802 205.339869 
L 279.943775 201.973544 
L 286.562014 198.230836 
L 291.438955 195.743484 
L 296.561395 193.429295 
L 301.331364 191.586029 
L 305.104158 190.361137 
L 308.946172 189.339233 
L 312.848709 188.545007 
L 313.653483 188.412604 
L 317.855317 187.89922 
L 321.393741 187.701634 
L 325.20719 187.731333 
L 327.00316 187.832566 
L 332.17832 188.43418 
L 336.394353 189.258258 
L 338.997682 189.912478 
L 342.251248 190.880813 
L 346.4248 192.357478 
L 351.744842 194.595653 
L 357.029494 197.174065 
L 362.672212 200.262461 
L 365.965645 202.19933 
L 373.703658 207.043992 
L 386.060821 215.215838 
L 395.266277 221.215359 
L 402.264297 225.485455 
L 407.938867 228.653615 
L 413.750619 231.546447 
L 419.248367 233.895409 
L 424.775433 235.827143 
L 425.743406 236.117974 
L 425.743406 236.117974 
" clip-path="url(#pdf5655a490)" style="fill: none; stroke: #0000ff; stroke-linecap: square"/>
   </g>
   <g id="line2d_70">
    <path d="M 43.339375 101.896818 
L 44.726858 130.478283 
L 46.111432 154.676042 
L 47.49164 175.101317 
L 48.67106 190.024291 
L 50.04892 204.901974 
L 51.472361 217.774178 
L 52.773299 227.633038 
L 54.302794 237.239353 
L 55.518274 243.561092 
L 56.87047 249.426365 
L 58.243146 254.29993 
L 59.615822 258.24581 
L 60.454939 260.261718 
L 61.345392 262.110744 
L 63.026497 264.891482 
L 63.817149 265.919857 
L 64.747226 266.931323 
L 65.677303 267.751326 
L 66.803196 268.518829 
L 68.704682 269.344512 
L 69.480276 269.538702 
L 71.031465 269.724248 
L 72.152435 269.716134 
L 74.700794 269.357846 
L 77.685761 268.522432 
L 83.353315 266.343839 
L 91.50758 263.060174 
L 95.659435 261.588945 
L 100.872449 259.999294 
L 104.908455 258.952349 
L 112.118028 257.385289 
L 131.647512 253.593721 
L 138.453262 251.913244 
L 143.788938 250.333479 
L 147.563963 249.054153 
L 153.238735 246.858343 
L 156.706139 245.349821 
L 162.418053 242.587461 
L 167.481724 239.858003 
L 173.074083 236.558106 
L 179.084363 232.715877 
L 186.511254 227.627748 
L 197.378806 219.766945 
L 210.615796 210.16238 
L 217.476465 205.46058 
L 223.727679 201.485996 
L 227.324549 199.370507 
L 232.723851 196.473666 
L 237.052439 194.423 
L 240.885708 192.829269 
L 245.625426 191.169069 
L 250.500344 189.841173 
L 255.360484 188.918641 
L 258.44767 188.546564 
L 262.900073 188.306933 
L 266.910503 188.392299 
L 269.396887 188.587809 
L 273.509606 189.147397 
L 277.075114 189.865644 
L 280.706596 190.812354 
L 284.507947 192.02608 
L 286.62843 192.797606 
L 290.855934 194.525879 
L 295.019896 196.457755 
L 299.936857 198.999997 
L 306.311592 202.649157 
L 314.448981 207.733229 
L 328.066031 216.703035 
L 335.508731 221.504858 
L 341.777155 225.319067 
L 346.802267 228.150346 
L 351.395648 230.516563 
L 356.375856 232.801632 
L 361.131454 234.676535 
L 364.989184 235.956463 
L 369.086284 237.063574 
L 373.119675 237.88753 
L 376.790277 238.400159 
L 380.770759 238.694863 
L 386.090208 238.659427 
L 388.647328 238.467601 
L 392.156473 238.021443 
L 396.089849 237.274211 
L 399.847309 236.323446 
L 402.01126 235.674351 
L 406.360234 234.155372 
L 410.576463 232.425036 
L 415.720075 230.001517 
L 420.840758 227.288551 
L 425.743406 224.455231 
L 425.743406 224.455231 
" clip-path="url(#pdf5655a490)" style="fill: none; stroke: #ff0000; stroke-linecap: square"/>
   </g>
   <g id="line2d_71">
    <path d="M 43.339375 64.77771 
L 44.526296 60.715595 
L 45.663285 57.760047 
L 46.404634 56.269083 
L 47.145983 55.087753 
L 47.887332 54.189236 
L 48.523507 53.624832 
L 49.312064 53.167363 
L 50.100621 52.954153 
L 51.25176 53.033513 
L 52.402898 53.518589 
L 53.710092 54.488811 
L 55.017286 55.834907 
L 56.23526 57.371605 
L 57.983672 59.964394 
L 60.180038 63.71765 
L 63.634467 70.36063 
L 69.885703 83.411289 
L 77.816538 99.967656 
L 82.21145 108.700614 
L 86.003841 115.909211 
L 91.273986 125.416751 
L 94.373187 130.743747 
L 100.374334 140.554689 
L 106.143823 149.434056 
L 112.362923 158.488276 
L 118.20618 166.572663 
L 123.703494 173.84363 
L 129.200855 180.809251 
L 133.928836 186.559061 
L 138.475441 191.873498 
L 145.212377 199.339242 
L 148.783983 203.08531 
L 153.856854 208.132662 
L 158.644293 212.579746 
L 162.678423 216.07061 
L 166.954227 219.497398 
L 172.244119 223.323235 
L 176.340906 225.954203 
L 180.267599 228.191299 
L 184.653118 230.348764 
L 187.232277 231.445327 
L 190.515596 232.653349 
L 195.263401 234.023247 
L 196.757767 234.361585 
L 201.165928 235.100289 
L 204.37923 235.395625 
L 205.952195 235.466066 
L 209.720525 235.439113 
L 213.56424 235.132452 
L 217.388357 234.55609 
L 222.752835 233.312461 
L 227.514449 231.809778 
L 232.77289 229.752847 
L 237.351784 227.657794 
L 242.84518 224.822677 
L 249.113879 221.239414 
L 256.07592 216.949102 
L 278.36217 202.786958 
L 284.187282 199.415996 
L 290.044648 196.330486 
L 292.617546 195.091089 
L 298.114605 192.715401 
L 303.14279 190.901955 
L 305.893326 190.067778 
L 311.283274 188.777456 
L 313.335477 188.410524 
L 317.563309 187.877616 
L 322.626639 187.64201 
L 326.135629 187.738708 
L 329.154176 187.991897 
L 333.474676 188.624722 
L 337.738534 189.554383 
L 341.198668 190.523948 
L 345.259713 191.896526 
L 349.364502 193.526469 
L 352.253495 194.809975 
L 356.951417 197.11665 
L 360.532883 199.039292 
L 366.97627 202.797627 
L 371.594678 205.678577 
L 381.030565 211.857015 
L 394.440931 220.684906 
L 401.301596 224.91391 
L 405.993141 227.597416 
L 410.959339 230.201734 
L 415.403827 232.29121 
L 420.804135 234.48144 
L 422.915993 235.225011 
L 425.743406 236.115165 
L 425.743406 236.115165 
" clip-path="url(#pdf5655a490)" style="fill: none; stroke: #0000ff; stroke-linecap: square"/>
   </g>
   <g id="line2d_72">
    <path d="M 43.339375 64.77771 
L 44.750054 105.137197 
L 46.068769 137.191751 
L 47.397897 164.71206 
L 48.880707 190.534711 
L 50.297967 211.096081 
L 51.701539 228.073385 
L 53.099818 242.122687 
L 54.294225 252.174848 
L 55.69161 261.974728 
L 56.739649 268.116978 
L 57.979728 274.224454 
L 59.057373 278.635611 
L 60.385944 283.079468 
L 61.590412 286.285844 
L 62.72796 288.694832 
L 63.922689 290.66452 
L 65.317442 292.341808 
L 66.800396 293.506651 
L 68.171528 294.112497 
L 68.857094 294.270759 
L 69.966242 294.350383 
L 71.07539 294.23988 
L 72.116473 293.988683 
L 74.137017 293.171204 
L 75.791324 292.250507 
L 77.47078 291.147404 
L 81.609855 287.989917 
L 91.115461 280.275404 
L 96.834598 276.110205 
L 100.589293 273.674232 
L 104.341157 271.473448 
L 109.033528 269.01571 
L 114.348867 266.554694 
L 120.041983 264.188697 
L 130.820432 260.045716 
L 139.65079 256.56115 
L 144.386499 254.54183 
L 152.067595 250.940596 
L 157.072179 248.34318 
L 163.367953 244.775703 
L 169.562672 240.943429 
L 175.979007 236.664014 
L 183.196939 231.534139 
L 192.175615 224.831212 
L 210.397121 211.100473 
L 215.672432 207.350062 
L 222.209345 202.994325 
L 227.868659 199.559117 
L 231.835745 197.372776 
L 235.843955 195.372472 
L 239.13134 193.90143 
L 242.905257 192.413659 
L 247.76435 190.832824 
L 250.014164 190.233892 
L 252.597913 189.652972 
L 256.767586 188.961349 
L 259.618569 188.665814 
L 264.237855 188.495457 
L 267.369465 188.596875 
L 271.49952 188.996002 
L 276.079255 189.784314 
L 281.124887 191.058246 
L 285.776137 192.588767 
L 290.550465 194.489209 
L 295.281381 196.671289 
L 301.468787 199.916012 
L 306.622903 202.899296 
L 313.681897 207.291711 
L 325.274236 214.898918 
L 335.750376 221.686148 
L 342.132709 225.551765 
L 347.751233 228.67942 
L 352.55028 231.092775 
L 356.049422 232.67893 
L 361.464927 234.811032 
L 366.998966 236.545889 
L 370.5221 237.399586 
L 374.660122 238.141223 
L 378.697498 238.585141 
L 382.729845 238.747705 
L 387.620588 238.565814 
L 391.889438 238.069576 
L 396.483778 237.19129 
L 399.906176 236.312275 
L 405.473757 234.492344 
L 408.632638 233.257404 
L 413.531253 231.076303 
L 417.390047 229.150906 
L 422.444252 226.388056 
L 425.743406 224.45804 
L 425.743406 224.45804 
" clip-path="url(#pdf5655a490)" style="fill: none; stroke: #ff0000; stroke-linecap: square"/>
   </g>
   <g id="line2d_73">
    <path d="M 43.339375 27.658603 
L 44.225129 23.754063 
L 45.453928 19.539647 
L 46.483066 16.958462 
L 47.37807 15.332157 
L 48.273075 14.218329 
L 49.168079 13.562896 
L 50.063083 13.316843 
L 50.686567 13.363599 
L 51.310051 13.573591 
L 52.033192 14.004671 
L 53.332669 15.22939 
L 54.58485 16.880979 
L 55.936539 19.095865 
L 57.885086 22.920544 
L 60.365024 28.587403 
L 63.119557 35.574106 
L 68.267701 49.571334 
L 75.123049 68.380142 
L 79.238182 79.218075 
L 83.938082 90.97746 
L 88.869841 102.554531 
L 93.704541 113.162825 
L 98.625686 123.263286 
L 103.75279 133.114318 
L 106.15897 137.523781 
L 110.547903 145.248507 
L 115.55153 153.598953 
L 121.241434 162.565798 
L 126.159469 169.903498 
L 129.756062 175.042192 
L 134.72999 181.843492 
L 139.596467 188.159685 
L 142.650938 191.952571 
L 148.230532 198.532422 
L 153.709083 204.539321 
L 157.032954 207.954969 
L 160.222678 211.06377 
L 164.091841 214.604701 
L 169.433537 219.061456 
L 174.598066 222.872676 
L 177.013655 224.481219 
L 178.94566 225.686023 
L 182.930806 227.937724 
L 187.668328 230.197876 
L 192.466749 232.017912 
L 196.835245 233.260535 
L 198.886753 233.70767 
L 201.939417 234.212286 
L 205.723804 234.573212 
L 210.019803 234.633738 
L 214.095738 234.356816 
L 217.718261 233.846831 
L 222.394389 232.8381 
L 225.809385 231.865239 
L 229.985236 230.423065 
L 233.445823 229.03282 
L 236.701335 227.577306 
L 242.995885 224.406362 
L 248.626998 221.240361 
L 254.578342 217.645557 
L 266.450626 210.090706 
L 275.437955 204.424494 
L 281.306275 200.927737 
L 287.519258 197.514109 
L 293.346649 194.664469 
L 297.61634 192.834363 
L 300.246437 191.827638 
L 303.885688 190.597324 
L 309.400657 189.116199 
L 313.322798 188.359456 
L 316.996486 187.883179 
L 321.616118 187.610918 
L 323.345177 187.60359 
L 327.204132 187.773462 
L 330.90032 188.176055 
L 333.367862 188.573836 
L 336.427237 189.207777 
L 341.396455 190.559532 
L 344.498194 191.596948 
L 349.150905 193.415109 
L 353.454171 195.355963 
L 358.450558 197.888971 
L 362.457175 200.109781 
L 369.395154 204.278038 
L 378.756384 210.336573 
L 394.963613 221.011027 
L 400.281924 224.300495 
L 406.064823 227.63214 
L 411.614336 230.520707 
L 417.145827 233.037933 
L 421.241865 234.637803 
L 425.743406 236.112356 
L 425.743406 236.112356 
" clip-path="url(#pdf5655a490)" style="fill: none; stroke: #0000ff; stroke-linecap: square"/>
   </g>
   <g id="line2d_74">
    <path d="M 43.339375 27.658603 
L 44.664481 76.462287 
L 46.021417 119.031654 
L 47.426097 156.290658 
L 48.795895 186.886045 
L 49.992783 209.609577 
L 51.512182 233.820567 
L 52.745917 250.18367 
L 54.085902 265.084014 
L 55.388515 277.090736 
L 56.691129 286.993969 
L 57.873137 294.405806 
L 58.798294 299.291365 
L 59.860602 304.025024 
L 61.136835 308.622589 
L 62.292313 311.893051 
L 63.523508 314.573639 
L 64.286204 315.868777 
L 65.0489 316.914888 
L 65.811595 317.734975 
L 66.574291 318.350188 
L 67.862261 318.977496 
L 69.15023 319.158982 
L 69.916638 319.085572 
L 71.461111 318.590616 
L 73.187396 317.586439 
L 75.410357 315.765866 
L 78.085535 313.034579 
L 82.335399 308.038909 
L 91.308197 297.118223 
L 92.602008 295.630004 
L 96.739956 291.113558 
L 100.395108 287.455529 
L 104.087684 284.076709 
L 108.013124 280.811862 
L 112.54743 277.411366 
L 118.089867 273.696392 
L 124.047519 270.100287 
L 130.662944 266.400621 
L 147.283506 257.315899 
L 152.062996 254.544856 
L 159.973175 249.670425 
L 166.718397 245.197343 
L 173.166184 240.651087 
L 180.37397 235.293432 
L 189.203879 228.441229 
L 209.304196 212.704413 
L 214.385082 208.954614 
L 219.733628 205.213995 
L 225.661427 201.38311 
L 231.098791 198.220067 
L 236.013922 195.693668 
L 239.153073 194.261723 
L 243.93228 192.373573 
L 246.872546 191.395789 
L 251.097489 190.246653 
L 254.19606 189.60105 
L 259.007167 188.936823 
L 261.449992 188.758808 
L 263.763109 188.689491 
L 268.299349 188.832967 
L 272.454806 189.285429 
L 277.272641 190.184341 
L 281.646356 191.334885 
L 286.192021 192.849436 
L 289.629836 194.196851 
L 294.04137 196.160398 
L 298.275835 198.26938 
L 302.816231 200.743754 
L 308.704501 204.222932 
L 316.249696 209.000425 
L 336.436325 222.143572 
L 343.137966 226.156943 
L 347.609695 228.62607 
L 352.480304 231.078576 
L 355.870447 232.619071 
L 360.395419 234.438262 
L 363.926283 235.654551 
L 369.6283 237.214251 
L 373.219152 237.926616 
L 374.947845 238.192681 
L 378.846113 238.605709 
L 383.176886 238.756885 
L 387.450034 238.586781 
L 391.457251 238.14086 
L 395.345762 237.447729 
L 399.425497 236.452622 
L 403.545588 235.180588 
L 406.100278 234.263348 
L 412.135104 231.733308 
L 415.215214 230.260919 
L 421.44772 226.955632 
L 425.743406 224.460849 
L 425.743406 224.460849 
" clip-path="url(#pdf5655a490)" style="fill: none; stroke: #ff0000; stroke-linecap: square"/>
   </g>
   <g id="patch_3">
    <path d="M 43.339375 325.275825 
L 43.339375 7.2 
" style="fill: none; stroke: #000000; stroke-width: 0.8; stroke-linejoin: miter; stroke-linecap: square"/>
   </g>
   <g id="patch_4">
    <path d="M 35.691294 213.254141 
L 433.391487 213.254141 
" style="fill: none; stroke: #000000; stroke-width: 0.8; stroke-linejoin: miter; stroke-linecap: square"/>
   </g>
   <g id="legend_1">
    <g id="patch_5">
     <path d="M 388.091487 46.596875 
L 430.391487 46.596875 
L 430.391487 14.2 
L 388.091487 14.2 
z
" style="fill: #4c4c4c; opacity: 0.5; stroke: #4c4c4c; stroke-linejoin: miter"/>
    </g>
    <g id="patch_6">
     <path d="M 386.091487 44.596875 
L 428.391487 44.596875 
L 428.391487 12.2 
L 386.091487 12.2 
z
" style="fill: #ffffff; stroke: #cccccc; stroke-linejoin: miter"/>
    </g>
    <g id="line2d_75">
     <path d="M 395.091487 22.298438 
L 389.591487 22.298438 
" style="fill: none; stroke: #0000ff; stroke-linecap: square"/>
    </g>
    <g id="text_15">
     <!-- $x(t)$ -->
     <g transform="translate(397.591487 25.798438)scale(0.1 -0.1)">
      <defs>
       <path id="Cmmi10-78" d="M 500 184 
Q 613 97 819 97 
Q 1019 97 1172 289 
Q 1325 481 1381 709 
L 1672 1844 
Q 1741 2153 1741 2266 
Q 1741 2425 1652 2544 
Q 1563 2663 1403 2663 
Q 1200 2663 1022 2536 
Q 844 2409 722 2214 
Q 600 2019 550 1819 
Q 538 1778 500 1778 
L 422 1778 
Q 372 1778 372 1838 
L 372 1856 
Q 434 2094 584 2320 
Q 734 2547 951 2687 
Q 1169 2828 1416 2828 
Q 1650 2828 1839 2703 
Q 2028 2578 2106 2363 
Q 2216 2559 2386 2693 
Q 2556 2828 2759 2828 
Q 2897 2828 3040 2779 
Q 3184 2731 3275 2631 
Q 3366 2531 3366 2381 
Q 3366 2219 3261 2101 
Q 3156 1984 2994 1984 
Q 2891 1984 2822 2050 
Q 2753 2116 2753 2216 
Q 2753 2350 2845 2451 
Q 2938 2553 3066 2572 
Q 2950 2663 2747 2663 
Q 2541 2663 2389 2472 
Q 2238 2281 2175 2047 
L 1894 916 
Q 1825 659 1825 494 
Q 1825 331 1917 214 
Q 2009 97 2163 97 
Q 2463 97 2698 361 
Q 2934 625 3009 941 
Q 3022 978 3059 978 
L 3138 978 
Q 3163 978 3178 961 
Q 3194 944 3194 922 
Q 3194 916 3188 903 
Q 3097 522 2806 225 
Q 2516 -72 2150 -72 
Q 1916 -72 1727 54 
Q 1538 181 1459 397 
Q 1359 209 1182 68 
Q 1006 -72 806 -72 
Q 669 -72 523 -23 
Q 378 25 287 125 
Q 197 225 197 378 
Q 197 528 301 651 
Q 406 775 563 775 
Q 669 775 741 711 
Q 813 647 813 544 
Q 813 409 723 309 
Q 634 209 500 184 
z
" transform="scale(0.015625)"/>
       <path id="Cmr10-28" d="M 1984 -1588 
Q 1628 -1306 1370 -942 
Q 1113 -578 948 -165 
Q 784 247 703 697 
Q 622 1147 622 1600 
Q 622 2059 703 2509 
Q 784 2959 951 3375 
Q 1119 3791 1378 4153 
Q 1638 4516 1984 4788 
Q 1984 4800 2016 4800 
L 2075 4800 
Q 2094 4800 2109 4783 
Q 2125 4766 2125 4744 
Q 2125 4716 2113 4703 
Q 1800 4397 1592 4047 
Q 1384 3697 1257 3301 
Q 1131 2906 1075 2482 
Q 1019 2059 1019 1600 
Q 1019 -434 2106 -1491 
Q 2125 -1509 2125 -1544 
Q 2125 -1559 2108 -1579 
Q 2091 -1600 2075 -1600 
L 2016 -1600 
Q 1984 -1600 1984 -1588 
z
" transform="scale(0.015625)"/>
       <path id="Cmr10-29" d="M 416 -1600 
Q 359 -1600 359 -1544 
Q 359 -1516 372 -1503 
Q 1466 -434 1466 1600 
Q 1466 3634 384 4691 
Q 359 4706 359 4744 
Q 359 4766 376 4783 
Q 394 4800 416 4800 
L 475 4800 
Q 494 4800 506 4788 
Q 966 4425 1272 3906 
Q 1578 3388 1720 2800 
Q 1863 2213 1863 1600 
Q 1863 1147 1786 708 
Q 1709 269 1542 -157 
Q 1375 -584 1119 -945 
Q 863 -1306 506 -1588 
Q 494 -1600 475 -1600 
L 416 -1600 
z
" transform="scale(0.015625)"/>
      </defs>
      <use xlink:href="#Cmmi10-78"/>
      <use xlink:href="#Cmr10-28" transform="translate(57.080078 0)"/>
      <use xlink:href="#Cmmi10-74" transform="translate(95.898438 0)"/>
      <use xlink:href="#Cmr10-29" transform="translate(131.982422 0)"/>
     </g>
    </g>
    <g id="line2d_76">
     <path d="M 395.091487 32.596875 
L 389.591487 32.596875 
" style="fill: none; stroke: #ff0000; stroke-linecap: square"/>
    </g>
    <g id="text_16">
     <!-- $dx/dt$ -->
     <g transform="translate(397.591487 36.096875)scale(0.1 -0.1)">
      <defs>
       <path id="Cmmi10-64" d="M 1113 -72 
Q 709 -72 476 233 
Q 244 538 244 953 
Q 244 1363 456 1803 
Q 669 2244 1030 2536 
Q 1391 2828 1806 2828 
Q 1994 2828 2145 2723 
Q 2297 2619 2381 2444 
L 2741 3872 
Q 2766 3981 2772 4044 
Q 2772 4147 2356 4147 
Q 2291 4147 2291 4231 
Q 2294 4247 2305 4287 
Q 2316 4328 2333 4350 
Q 2350 4372 2381 4372 
L 3244 4441 
Q 3322 4441 3322 4359 
L 2400 678 
Q 2356 572 2356 372 
Q 2356 97 2541 97 
Q 2741 97 2845 351 
Q 2950 606 3022 941 
Q 3034 978 3072 978 
L 3150 978 
Q 3175 978 3190 956 
Q 3206 934 3206 916 
Q 3094 469 2961 198 
Q 2828 -72 2528 -72 
Q 2313 -72 2147 54 
Q 1981 181 1941 391 
Q 1528 -72 1113 -72 
z
M 1119 97 
Q 1350 97 1567 270 
Q 1784 444 1941 678 
Q 1947 684 1947 703 
L 2297 2113 
Q 2259 2338 2131 2500 
Q 2003 2663 1791 2663 
Q 1575 2663 1389 2486 
Q 1203 2309 1075 2069 
Q 950 1813 836 1366 
Q 722 919 722 672 
Q 722 450 817 273 
Q 913 97 1119 97 
z
" transform="scale(0.015625)"/>
       <path id="Cmmi10-3d" d="M 359 -1472 
Q 359 -1453 366 -1447 
L 2591 4722 
Q 2603 4759 2634 4779 
Q 2666 4800 2706 4800 
Q 2763 4800 2798 4765 
Q 2834 4731 2834 4672 
L 2834 4647 
L 609 -1522 
Q 572 -1600 488 -1600 
Q 434 -1600 396 -1562 
Q 359 -1525 359 -1472 
z
" transform="scale(0.015625)"/>
      </defs>
      <use xlink:href="#Cmmi10-64"/>
      <use xlink:href="#Cmmi10-78" transform="translate(52.001953 0)"/>
      <use xlink:href="#Cmmi10-3d" transform="translate(109.082031 0)"/>
      <use xlink:href="#Cmmi10-64" transform="translate(159.082031 0)"/>
      <use xlink:href="#Cmmi10-74" transform="translate(211.083984 0)"/>
     </g>
    </g>
   </g>
  </g>
 </g>
 <defs>
  <clipPath id="pdf5655a490">
   <rect x="35.691294" y="7.2" width="397.700192" height="318.075825"/>
  </clipPath>
 </defs>
</svg>
