<?xml version="1.0" encoding="utf-8" standalone="no"?>
<!DOCTYPE svg PUBLIC "-//W3C//DTD SVG 1.1//EN"
  "http://www.w3.org/Graphics/SVG/1.1/DTD/svg11.dtd">
<!-- Created with matplotlib (http://matplotlib.org/) -->
<svg height="416pt" version="1.1" viewBox="0 0 560 416" width="560pt" xmlns="http://www.w3.org/2000/svg" xmlns:xlink="http://www.w3.org/1999/xlink">
 <defs>
  <style type="text/css">
*{stroke-linecap:butt;stroke-linejoin:round;stroke-miterlimit:100000;}
  </style>
 </defs>
 <g id="figure_1">
  <g id="patch_1">
   <path d="M 0 416.033125 
L 560.52933 416.033125 
L 560.52933 0 
L 0 0 
z
" style="fill:#ffffff;"/>
  </g>
  <g id="axes_1">
   <g id="patch_2">
    <path d="M 23.580209 408.833125 
L 539.40933 408.833125 
L 539.40933 31.2 
L 23.580209 31.2 
z
" style="fill:#ffffff;"/>
   </g>
   <g id="line2d_1">
    <path clip-path="url(#p8cbd68a297)" d="M 33.5 218.096637 
L 34.339752 218.017347 
L 35.179504 217.789757 
L 39.469389 215.930984 
L 40.254492 215.859929 
L 41.039595 215.980146 
L 41.824698 216.312059 
L 42.915404 217.127153 
L 44.006111 218.303137 
L 47.86545 223.151336 
L 48.425767 223.592277 
L 48.986084 223.886449 
L 49.5464 224.013297 
L 50.280821 223.900623 
L 51.015242 223.453601 
L 51.541143 222.926407 
L 52.592943 221.382406 
L 53.926555 218.652643 
L 57.36763 210.71902 
L 58.385568 209.175701 
L 58.889013 208.690583 
L 59.392459 208.417683 
L 59.895904 208.372144 
L 60.399349 208.563768 
L 60.788579 208.877245 
L 61.567038 209.932391 
L 62.345498 211.528476 
L 62.734727 212.509908 
L 63.513187 214.782442 
L 65.93454 223.221635 
L 67.441726 227.994099 
L 68.195319 229.793271 
L 68.696937 230.688987 
L 69.198555 231.308934 
L 69.700173 231.630247 
L 70.201791 231.636802 
L 70.595059 231.415844 
L 70.988327 230.994923 
L 71.774863 229.564464 
L 72.561399 227.398023 
L 73.347936 224.594825 
L 74.572489 219.309109 
L 77.18393 207.389856 
L 78.263999 203.635473 
L 78.984045 201.89454 
L 79.704091 200.891476 
L 80.064114 200.690882 
L 80.583418 200.770444 
L 81.102723 201.291802 
L 81.622027 202.251301 
L 82.141332 203.633885 
L 83.179941 207.552329 
L 84.21855 212.711993 
L 88.063362 233.832844 
L 88.808642 236.596306 
L 89.570055 238.499663 
L 89.950761 239.060457 
L 90.404262 239.36661 
L 90.857763 239.268029 
L 91.311264 238.760189 
L 91.764765 237.846476 
L 92.218266 236.538238 
L 93.125269 232.82263 
L 94.124986 227.290342 
L 95.763637 216.22352 
L 97.510358 204.355285 
L 98.383718 199.44404 
L 99.257078 195.730631 
L 99.827863 194.097644 
L 100.398648 193.167014 
L 100.661732 192.98655 
L 100.924817 192.966631 
L 101.187901 193.10864 
L 101.714069 193.878752 
L 102.240238 195.28695 
L 102.841193 197.640873 
L 103.516934 201.156719 
L 104.530546 207.862152 
L 105.206288 213.028801 
L 107.874915 234.279889 
L 109.021804 241.38564 
L 109.793844 244.729564 
L 110.308537 246.184173 
L 110.823229 246.964897 
L 111.239998 247.083293 
L 111.656766 246.734022 
L 112.073535 245.917745 
L 112.490303 244.642734 
L 113.078123 242.096712 
L 113.959852 236.786788 
L 114.841582 230.004911 
L 115.909924 220.482952 
L 118.313695 198.823283 
L 119.342206 191.695429 
L 120.023967 188.270005 
L 120.705729 186.080849 
L 120.932983 185.647243 
L 121.292391 185.275563 
L 121.6518 185.295037 
L 122.011209 185.708632 
L 122.370618 186.514578 
L 123.089435 189.272726 
L 123.808252 193.461425 
L 124.548107 199.07749 
L 125.62028 209.014076 
L 129.211163 244.378682 
L 130.159656 250.51798 
L 130.737326 253.016091 
L 131.260335 254.371071 
L 131.521839 254.710052 
L 131.783344 254.81839 
L 132.044849 254.694166 
L 132.306353 254.336934 
L 132.793266 253.0556 
L 133.244082 251.170628 
L 133.920306 247.152762 
L 134.821937 239.824716 
L 136.174385 225.71094 
L 138.963004 194.292263 
L 139.967311 185.637622 
L 140.60366 181.596352 
L 141.256893 178.826589 
L 141.692381 177.820361 
L 141.910125 177.579157 
L 142.127869 177.515173 
L 142.345614 177.629402 
L 142.781102 178.392554 
L 143.21659 179.860858 
L 143.652079 182.014038 
L 144.437574 187.517573 
L 145.223069 194.850711 
L 146.493072 209.535557 
L 149.171674 242.882436 
L 150.275823 253.508409 
L 151.103935 259.042205 
L 151.656009 261.345745 
L 152.007292 262.189389 
L 152.358574 262.533321 
L 152.587816 262.484776 
L 152.817057 262.219766 
L 153.27554 261.043248 
L 153.734023 259.020112 
L 154.421748 254.474695 
L 155.109473 248.281288 
L 156.026439 237.907224 
L 157.271577 221.271053 
L 159.628409 189.63725 
L 160.62508 179.410529 
L 161.372583 173.925899 
L 161.870918 171.490197 
L 162.369253 170.108879 
L 162.618421 169.827094 
L 162.867588 169.82199 
L 163.116756 170.094664 
L 163.580038 171.337148 
L 164.008266 173.321908 
L 164.650608 177.738491 
L 165.331541 184.149197 
L 166.342358 196.384289 
L 167.605879 214.675227 
L 169.841454 247.35656 
L 170.652684 256.891386 
L 171.509855 264.509809 
L 172.081303 267.913524 
L 172.60608 269.737935 
L 172.845134 270.138752 
L 173.084187 270.265384 
L 173.323241 270.116219 
L 173.562294 269.691105 
L 174.040401 268.019728 
L 174.518508 265.27921 
L 175.235669 259.281061 
L 175.952829 251.259704 
L 176.927514 237.778223 
L 178.57659 211.304233 
L 180.225665 185.914205 
L 181.050202 175.662567 
L 181.876141 167.955368 
L 182.427233 164.501402 
L 182.978326 162.529861 
L 183.345721 162.073674 
L 183.529419 162.107254 
L 183.713116 162.315894 
L 184.080511 163.256915 
L 184.476808 165.045567 
L 185.114606 169.551185 
L 185.752404 175.923913 
L 186.570861 186.469553 
L 187.580625 202.258309 
L 190.702026 254.616491 
L 191.742493 267.454708 
L 192.392464 273.123338 
L 192.990858 276.484503 
L 193.439653 277.755929 
L 193.73885 277.99015 
L 193.888448 277.92144 
L 194.187645 277.411936 
L 194.486842 276.40873 
L 194.935637 273.99353 
L 195.384432 270.522033 
L 195.982826 264.354872 
L 196.835262 252.900333 
L 197.993361 233.569128 
L 201.203282 176.677833 
L 202.146111 164.760507 
L 202.846011 158.615649 
L 203.370936 155.730985 
L 203.720886 154.67843 
L 204.070835 154.340771 
L 204.24581 154.442463 
L 204.59576 155.187297 
L 204.97611 156.809012 
L 205.386858 159.489753 
L 206.00298 165.236092 
L 206.824477 175.80889 
L 207.645973 189.120981 
L 209.363205 222.097099 
L 211.02251 253.653096 
L 212.080972 269.860112 
L 212.8285 278.281818 
L 213.389146 282.622609 
L 213.76291 284.494907 
L 214.136674 285.516149 
L 214.323556 285.701956 
L 214.510438 285.669587 
L 214.69732 285.418695 
L 215.071084 284.263493 
L 215.574298 281.352687 
L 216.077512 276.942953 
L 216.748465 268.900961 
L 217.419417 258.684022 
L 218.490751 238.90888 
L 221.839589 172.064012 
L 222.695538 159.638707 
L 223.359979 152.607391 
L 223.928666 148.665393 
L 224.307791 147.173096 
L 224.686916 146.618551 
L 224.876478 146.696899 
L 225.06604 147.01287 
L 225.445165 148.354567 
L 225.82429 150.629531 
L 226.26428 154.403974 
L 227.015562 163.482416 
L 227.766845 175.481297 
L 228.799403 195.607341 
L 232.359746 269.819655 
L 233.262462 282.650385 
L 233.995675 289.618591 
L 234.418457 292.060985 
L 234.841239 293.290076 
L 235.123094 293.422007 
L 235.404949 293.000446 
L 235.686803 292.026947 
L 236.163165 289.144603 
L 236.746686 283.570322 
L 237.524714 272.917881 
L 238.497249 255.259764 
L 239.615748 230.843214 
L 242.285406 171.1368 
L 243.23055 155.106203 
L 243.99632 145.768104 
L 244.565784 141.298584 
L 244.982094 139.467769 
L 245.259634 138.942513 
L 245.398404 138.890798 
L 245.537175 138.980144 
L 245.814715 139.581869 
L 246.231025 141.534878 
L 246.647335 144.723438 
L 247.202416 150.813963 
L 247.757496 158.853793 
L 248.590117 174.07518 
L 249.866593 202.725016 
L 252.576701 266.535314 
L 253.583653 284.493094 
L 254.358395 294.269293 
L 254.978189 299.118838 
L 255.443035 300.891841 
L 255.693525 301.16545 
L 255.81877 301.121677 
L 256.06926 300.672618 
L 256.444995 299.09941 
L 256.820731 296.462734 
L 257.196466 292.793464 
L 257.712852 286.149791 
L 258.51054 272.596662 
L 259.574125 249.556534 
L 263.559607 154.605326 
L 264.295751 143.070545 
L 264.884667 136.471055 
L 265.336612 133.149929 
L 265.793685 131.410585 
L 266.098401 131.176768 
L 266.250759 131.339665 
L 266.555475 132.224543 
L 266.860191 133.849488 
L 267.317265 137.646491 
L 267.921387 145.058119 
L 268.599033 156.335172 
L 269.502561 175.452721 
L 270.631972 203.880819 
L 273.279134 271.905146 
L 274.220628 290.243313 
L 275.005207 301.183004 
L 275.63287 306.608672 
L 276.043329 308.437629 
L 276.316968 308.879332 
L 276.453787 308.864823 
L 276.727426 308.364324 
L 277.001065 307.237348 
L 277.411524 304.387424 
L 277.973656 298.298286 
L 278.580349 289.07241 
L 279.338716 274.123308 
L 280.248757 252.214744 
L 284.315347 147.181454 
L 285.150583 133.762101 
L 285.651724 128.229783 
L 286.22759 124.428445 
L 286.57311 123.512924 
L 286.71351 123.438317 
L 286.85391 123.53623 
L 287.13471 124.249357 
L 287.415509 125.64863 
L 287.836709 129.013694 
L 288.398308 135.779472 
L 289.100308 147.625135 
L 289.942707 166.103746 
L 291.065906 195.986831 
L 294.139654 281.085715 
L 295.105442 300.212544 
L 295.772387 309.463136 
L 296.305943 314.208426 
L 296.70611 316.124987 
L 296.972888 316.600482 
L 297.106277 316.595505 
L 297.373054 316.099323 
L 297.639832 314.956913 
L 298.039999 312.046377 
L 298.573555 305.997171 
L 299.279484 294.434373 
L 300.153408 275.239045 
L 301.204261 246.801283 
L 304.510553 151.717441 
L 305.299303 135.193992 
L 306.000164 124.400214 
L 306.584214 118.593575 
L 307.051455 116.182682 
L 307.285075 115.743744 
L 307.401885 115.717679 
L 307.635505 116.053073 
L 307.869126 116.904215 
L 308.219556 119.139769 
L 308.686796 123.872039 
L 309.239114 131.93037 
L 309.964959 146.220205 
L 310.984215 172.127137 
L 312.411174 215.467339 
L 314.418055 276.087757 
L 315.417105 299.913804 
L 316.216345 313.768963 
L 316.815775 320.545807 
L 317.215395 323.200222 
L 317.615016 324.309941 
L 317.724921 324.340994 
L 317.944732 324.047099 
L 318.164544 323.279238 
L 318.49426 321.245246 
L 318.933883 316.917231 
L 319.593316 307.120188 
L 320.25275 293.702316 
L 321.131995 271.100995 
L 322.607453 225.31378 
L 324.724766 158.708523 
L 325.729864 133.714442 
L 326.585162 118.415655 
L 327.226635 111.253083 
L 327.654284 108.705016 
L 327.97502 108.001542 
L 328.081932 107.999324 
L 328.295757 108.343999 
L 328.616493 109.731406 
L 328.955149 112.318237 
L 329.418635 117.679758 
L 329.997993 127.194197 
L 330.787775 144.695411 
L 331.839897 174.510414 
L 333.524529 230.491246 
L 335.209573 283.91621 
L 336.05457 305.276117 
L 336.902042 321.052706 
L 337.497636 328.160504 
L 337.841351 330.644704 
L 338.185067 331.904905 
L 338.356924 332.070312 
L 338.528782 331.924572 
L 338.872497 330.700688 
L 339.216213 328.243826 
L 339.731786 322.30299 
L 340.266043 313.427156 
L 341.028213 296.428577 
L 341.980925 269.284086 
L 343.124179 231.066239 
L 345.433331 153.232709 
L 346.475899 125.947263 
L 347.257825 111.289622 
L 347.779109 104.784545 
L 348.170072 101.752147 
L 348.561035 100.356489 
L 348.712366 100.261497 
L 348.863697 100.415984 
L 349.166359 101.472519 
L 349.469021 103.519055 
L 349.923014 108.409063 
L 350.528337 118.180975 
L 351.177665 132.453261 
L 352.154338 160.101739 
L 353.455912 204.644289 
L 355.675788 282.306097 
L 356.722965 311.282246 
L 357.508348 327.100554 
L 358.031937 334.286779 
L 358.555525 338.552763 
L 358.871585 339.661925 
L 359.029615 339.796579 
L 359.187645 339.650288 
L 359.503706 338.515783 
L 359.819766 336.266711 
L 360.293856 330.846802 
L 360.925976 319.977571 
L 361.678256 302.129477 
L 362.510205 277.231612 
L 363.677797 236.118168 
L 366.166923 146.819111 
L 367.198302 118.547217 
L 367.982311 103.336771 
L 368.560044 96.209655 
L 368.945199 93.522711 
L 369.137777 92.815981 
L 369.330354 92.538117 
L 369.522932 92.690562 
L 369.71551 93.273289 
L 370.100665 95.72209 
L 370.595635 101.334885 
L 371.144708 110.666242 
L 371.808734 125.959653 
L 372.697526 152.262993 
L 374.022972 199.972402 
L 376.475405 290.79381 
L 377.48523 319.616228 
L 378.206534 334.604644 
L 378.738815 342.150431 
L 379.130972 345.655563 
L 379.525199 347.359239 
L 379.656608 347.515938 
L 379.788017 347.46609 
L 380.050834 346.746772 
L 380.313652 345.204624 
L 380.707879 341.368846 
L 381.233514 333.498382 
L 381.890558 319.513812 
L 382.679011 297.386657 
L 383.758196 259.864229 
L 387.382451 125.304851 
L 388.199798 104.697483 
L 388.914976 92.282578 
L 389.425818 86.994836 
L 389.732323 85.326635 
L 389.93666 84.853025 
L 390.038828 84.808869 
L 390.243165 85.106435 
L 390.447502 85.917833 
L 390.731956 87.89774 
L 391.158637 92.693869 
L 391.727546 102.370897 
L 392.438682 119.33293 
L 393.338478 147.375177 
L 394.364047 185.803187 
L 397.124387 294.582216 
L 398.083897 323.953932 
L 398.832195 340.846372 
L 399.451677 350.115737 
L 399.919597 354.049463 
L 400.270536 355.203806 
L 400.387516 355.242449 
L 400.504496 355.107576 
L 400.738455 354.317738 
L 401.089394 351.840235 
L 401.557314 346.167597 
L 402.142212 335.430201 
L 402.844091 317.644169 
L 403.80662 285.980501 
L 405.089993 235.041079 
L 407.536412 136.670239 
L 408.567924 105.257952 
L 409.289983 89.588613 
L 409.80574 82.109734 
L 410.218345 78.511485 
L 410.527799 77.246959 
L 410.734101 77.095234 
L 410.946578 77.51887 
L 411.274555 79.324646 
L 411.711857 83.879363 
L 412.258485 92.910563 
L 412.939563 108.997589 
L 413.822317 136.760025 
L 415.058172 185.127149 
L 418.005416 306.557875 
L 418.947287 335.24945 
L 419.700784 351.506407 
L 420.265906 359.191292 
L 420.642655 362.024797 
L 420.925216 362.915587 
L 421.019403 362.975413 
L 421.141475 362.876166 
L 421.385619 362.079294 
L 421.751835 359.396449 
L 422.240123 353.09479 
L 422.850484 341.035079 
L 423.580525 321.052046 
L 424.492479 289.011034 
L 425.706784 238.166743 
L 428.135922 134.636556 
L 429.073959 103.504808 
L 429.855656 84.450243 
L 430.499807 74.314468 
L 430.850072 71.082953 
L 431.200336 69.51306 
L 431.375469 69.358445 
L 431.550601 69.625527 
L 431.900866 71.422042 
L 432.251131 74.885192 
L 432.776529 83.120253 
L 433.307017 94.948154 
L 434.028736 116.158941 
L 434.933991 149.652458 
L 436.020297 196.610646 
L 438.505837 305.141477 
L 439.497775 338.30925 
L 440.278409 356.996818 
L 440.863884 365.981751 
L 441.254201 369.398056 
L 441.546939 370.568187 
L 441.742097 370.678386 
L 441.937256 370.251349 
L 442.202351 368.812841 
L 442.537382 365.592961 
L 443.039929 357.897628 
L 443.709992 342.574761 
L 444.54757 316.191555 
L 445.648623 272.024229 
L 449.479925 105.7424 
L 450.368685 80.820916 
L 450.999391 69.046536 
L 451.452345 63.926785 
L 451.814708 61.924206 
L 451.99589 61.631592 
L 452.111569 61.693019 
L 452.342928 62.396326 
L 452.689966 64.8957 
L 453.152684 70.880643 
L 453.731081 82.457193 
L 454.425157 101.882116 
L 455.234913 131.080884 
L 456.535268 188.342988 
L 459.151913 308.779139 
L 460.075937 341.749929 
L 460.867958 362.470784 
L 461.395972 371.746644 
L 461.791982 376.131932 
L 462.187992 378.234827 
L 462.319996 378.421632 
L 462.451999 378.350246 
L 462.716006 377.433141 
L 463.002897 375.271468 
L 463.467559 369.237125 
L 463.932221 360.174704 
L 464.639685 340.971906 
L 465.468549 311.25595 
L 466.581035 262.316084 
L 469.842689 111.13653 
L 470.693555 82.921095 
L 471.366975 66.827533 
L 471.898583 58.532959 
L 472.332054 54.830259 
L 472.548789 54.036707 
L 472.657157 53.906698 
L 472.765524 53.954903 
L 472.982259 54.585907 
L 473.307362 56.863624 
L 473.740833 62.350538 
L 474.282671 73.011962 
L 474.932877 91.000516 
L 475.717672 119.309623 
L 476.771646 165.973951 
L 480.359896 334.520169 
L 481.260521 362.875713 
L 481.860938 375.938958 
L 482.31125 382.330362 
L 482.623338 384.967459 
L 482.947306 386.119305 
L 483.10929 386.084788 
L 483.271274 385.642703 
L 483.595241 383.539929 
L 483.919209 379.829044 
L 484.405161 371.325405 
L 485.053096 354.8005 
L 485.889006 325.701897 
L 486.892098 281.69457 
L 488.778502 186.12801 
L 490.302044 114.448335 
L 491.267358 79.319385 
L 491.974958 60.893532 
L 492.505658 51.765366 
L 492.947907 47.440043 
L 493.213257 46.318053 
L 493.390157 46.190308 
L 493.567057 46.559848 
L 493.832407 48.044671 
L 494.193773 51.84691 
L 494.648633 59.486051 
L 495.194465 72.658493 
L 495.922241 96.417221 
L 496.831961 134.415656 
L 498.211073 203.370207 
L 500.394668 313.616778 
L 501.371235 352.463449 
L 502.099168 374.014251 
L 502.723111 386.507221 
L 503.139073 391.512704 
L 503.451044 393.456134 
L 503.659025 393.877362 
L 503.763016 393.824531 
L 503.970997 393.191855 
L 504.282968 390.930202 
L 504.594939 387.110661 
L 505.028812 379.271957 
L 505.607309 364.466954 
L 506.33043 339.616242 
L 507.285035 297.953248 
L 508.41336 240.169744 
L 510.757841 119.095592 
L 511.679343 81.643751 
L 512.485656 57.418887 
L 513.058187 45.946748 
L 513.51553 40.493746 
L 513.820426 38.755008 
L 513.972873 38.462175 
L 514.125321 38.555141 
L 514.277769 39.033951 
L 514.582664 41.145134 
L 515.040007 47.159293 
L 515.620467 59.54438 
L 516.200927 76.890943 
L 516.932348 104.982894 
L 518.029479 157.23591 
L 521.832902 350.802832 
L 522.590663 376.174621 
L 523.237344 391.313531 
L 523.722354 398.331183 
L 524.147732 401.2773 
L 524.279586 401.57095 
L 524.41144 401.569842 
L 524.543294 401.273822 
L 524.807002 399.798784 
L 525.202564 395.397683 
L 525.72998 385.546436 
L 526.38925 367.193179 
L 527.180374 337.293414 
L 528.103352 293.743506 
L 529.489539 218.096637 
L 529.489539 218.096637 
" style="fill:none;stroke:#0000ff;stroke-linecap:square;"/>
   </g>
   <g id="patch_3">
    <path d="M 23.580209 218.096637 
L 539.40933 218.096637 
" style="fill:none;stroke:#000000;stroke-linecap:square;stroke-linejoin:miter;stroke-width:0.8;"/>
   </g>
   <g id="patch_4">
    <path d="M 33.5 408.833125 
L 33.5 31.2 
" style="fill:none;stroke:#000000;stroke-linecap:square;stroke-linejoin:miter;stroke-width:0.8;"/>
   </g>
   <g id="matplotlib.axis_1">
    <g id="xtick_1">
     <g id="line2d_2">
      <defs>
       <path d="M 0 0 
L 0 -4 
" id="m5a0bb98914" style="stroke:#000000;stroke-width:0.5;"/>
      </defs>
      <g>
       <use style="stroke:#000000;stroke-width:0.5;" x="33.5" xlink:href="#m5a0bb98914" y="218.096636803"/>
      </g>
     </g>
    </g>
    <g id="xtick_2">
     <g id="line2d_3">
      <g>
       <use style="stroke:#000000;stroke-width:0.5;" x="157.497384782" xlink:href="#m5a0bb98914" y="218.096636803"/>
      </g>
     </g>
     <g id="text_1">
      <!-- $\pi$ -->
      <defs>
       <path d="M 10.109375 1.703125 
Q 10.109375 2.25 10.5 3.328125 
Q 13.28125 9.125 15.6875 14.71875 
Q 18.109375 20.3125 20.03125 25.609375 
Q 21.96875 30.90625 23.578125 36.921875 
L 17.1875 36.921875 
Q 13.53125 36.921875 10.34375 34.625 
Q 7.171875 32.328125 5.078125 28.8125 
Q 4.890625 28.421875 4.5 28.421875 
L 3.328125 28.421875 
Q 2.390625 28.421875 2.390625 29.390625 
Q 2.390625 29.59375 2.59375 29.984375 
Q 5.859375 35.546875 9.59375 39.328125 
Q 13.328125 43.109375 18.015625 43.109375 
L 54.296875 43.109375 
Q 55.328125 43.109375 56.046875 42.421875 
Q 56.78125 41.75 56.78125 40.578125 
Q 56.78125 39.109375 55.734375 38.015625 
Q 54.6875 36.921875 53.21875 36.921875 
L 40.484375 36.921875 
Q 38.875 29.046875 38.71875 21.578125 
Q 38.71875 11.96875 42.09375 4.203125 
Q 42.390625 3.609375 42.390625 2.984375 
Q 42.390625 1.90625 41.75 0.96875 
Q 41.109375 0.046875 40.109375 -0.53125 
Q 39.109375 -1.125 37.984375 -1.125 
Q 35.359375 -1.125 34.375 3.171875 
Q 33.40625 7.46875 33.40625 11.53125 
Q 33.40625 17.234375 34.375 22.53125 
Q 35.359375 27.828125 37.5 36.921875 
L 26.609375 36.921875 
Q 18.703125 4.890625 17.09375 1.609375 
Q 15.671875 -1.125 13.1875 -1.125 
Q 11.96875 -1.125 11.03125 -0.3125 
Q 10.109375 0.484375 10.109375 1.703125 
" id="Cmmi10-bc"/>
      </defs>
      <g transform="translate(154.647384782 229.695074303)scale(0.1 -0.1)">
       <use transform="translate(0.0 0.890625)" xlink:href="#Cmmi10-bc"/>
      </g>
     </g>
    </g>
    <g id="xtick_3">
     <g id="line2d_4">
      <g>
       <use style="stroke:#000000;stroke-width:0.5;" x="281.494769565" xlink:href="#m5a0bb98914" y="218.096636803"/>
      </g>
     </g>
     <g id="text_2">
      <!-- $2 \, \pi$ -->
      <defs>
       <path d="M 4.984375 0 
L 4.984375 2.6875 
Q 4.984375 2.9375 5.171875 3.21875 
L 20.703125 20.40625 
Q 24.21875 24.21875 26.40625 26.796875 
Q 28.609375 29.390625 30.75 32.765625 
Q 32.90625 36.140625 34.15625 39.625 
Q 35.40625 43.109375 35.40625 47.015625 
Q 35.40625 51.125 33.890625 54.859375 
Q 32.375 58.59375 29.375 60.84375 
Q 26.375 63.09375 22.125 63.09375 
Q 17.78125 63.09375 14.3125 60.46875 
Q 10.84375 57.859375 9.421875 53.71875 
Q 9.8125 53.8125 10.5 53.8125 
Q 12.75 53.8125 14.328125 52.296875 
Q 15.921875 50.78125 15.921875 48.390625 
Q 15.921875 46.09375 14.328125 44.5 
Q 12.75 42.921875 10.5 42.921875 
Q 8.15625 42.921875 6.5625 44.546875 
Q 4.984375 46.1875 4.984375 48.390625 
Q 4.984375 52.15625 6.390625 55.4375 
Q 7.8125 58.734375 10.46875 61.296875 
Q 13.140625 63.875 16.484375 65.234375 
Q 19.828125 66.609375 23.578125 66.609375 
Q 29.296875 66.609375 34.21875 64.1875 
Q 39.15625 61.765625 42.03125 57.34375 
Q 44.921875 52.9375 44.921875 47.015625 
Q 44.921875 42.671875 43.015625 38.765625 
Q 41.109375 34.859375 38.125 31.65625 
Q 35.15625 28.46875 30.515625 24.40625 
Q 25.875 20.359375 24.421875 19 
L 13.09375 8.109375 
L 22.703125 8.109375 
Q 29.78125 8.109375 34.546875 8.21875 
Q 39.3125 8.34375 39.59375 8.59375 
Q 40.765625 9.859375 42 17.828125 
L 44.921875 17.828125 
L 42.09375 0 
z
" id="Cmr10-32"/>
      </defs>
      <g transform="translate(275.394769565 229.695074303)scale(0.1 -0.1)">
       <use transform="translate(0.0 0.390625)" xlink:href="#Cmr10-32"/>
       <use transform="translate(64.6324541016 0.390625)" xlink:href="#Cmmi10-bc"/>
      </g>
     </g>
    </g>
    <g id="xtick_4">
     <g id="line2d_5">
      <g>
       <use style="stroke:#000000;stroke-width:0.5;" x="405.492154347" xlink:href="#m5a0bb98914" y="218.096636803"/>
      </g>
     </g>
     <g id="text_3">
      <!-- $3 \, \pi$ -->
      <defs>
       <path d="M 9.515625 7.71875 
Q 11.859375 4.296875 15.8125 2.640625 
Q 19.78125 0.984375 24.3125 0.984375 
Q 30.125 0.984375 32.5625 5.9375 
Q 35.015625 10.890625 35.015625 17.1875 
Q 35.015625 20.015625 34.5 22.84375 
Q 33.984375 25.6875 32.765625 28.125 
Q 31.546875 30.5625 29.421875 32.03125 
Q 27.296875 33.5 24.21875 33.5 
L 17.578125 33.5 
Q 16.703125 33.5 16.703125 34.421875 
L 16.703125 35.296875 
Q 16.703125 36.078125 17.578125 36.078125 
L 23.09375 36.53125 
Q 26.609375 36.53125 28.921875 39.15625 
Q 31.25 41.796875 32.328125 45.578125 
Q 33.40625 49.359375 33.40625 52.78125 
Q 33.40625 57.5625 31.15625 60.640625 
Q 28.90625 63.71875 24.3125 63.71875 
Q 20.515625 63.71875 17.046875 62.28125 
Q 13.578125 60.84375 11.53125 57.90625 
Q 11.71875 57.953125 11.859375 57.984375 
Q 12.015625 58.015625 12.203125 58.015625 
Q 14.453125 58.015625 15.96875 56.453125 
Q 17.484375 54.890625 17.484375 52.6875 
Q 17.484375 50.53125 15.96875 48.96875 
Q 14.453125 47.40625 12.203125 47.40625 
Q 10.015625 47.40625 8.453125 48.96875 
Q 6.890625 50.53125 6.890625 52.6875 
Q 6.890625 56.984375 9.46875 60.15625 
Q 12.0625 63.328125 16.140625 64.96875 
Q 20.21875 66.609375 24.3125 66.609375 
Q 27.34375 66.609375 30.703125 65.703125 
Q 34.078125 64.796875 36.8125 63.109375 
Q 39.546875 61.421875 41.28125 58.78125 
Q 43.015625 56.15625 43.015625 52.78125 
Q 43.015625 48.578125 41.140625 45.015625 
Q 39.265625 41.453125 35.984375 38.859375 
Q 32.71875 36.28125 28.8125 35.015625 
Q 33.15625 34.1875 37.0625 31.734375 
Q 40.96875 29.296875 43.328125 25.484375 
Q 45.703125 21.6875 45.703125 17.28125 
Q 45.703125 11.765625 42.671875 7.296875 
Q 39.65625 2.828125 34.71875 0.3125 
Q 29.78125 -2.203125 24.3125 -2.203125 
Q 19.625 -2.203125 14.90625 -0.40625 
Q 10.203125 1.375 7.203125 4.9375 
Q 4.203125 8.5 4.203125 13.484375 
Q 4.203125 15.96875 5.859375 17.625 
Q 7.515625 19.28125 10.015625 19.28125 
Q 11.625 19.28125 12.96875 18.53125 
Q 14.3125 17.78125 15.0625 16.40625 
Q 15.828125 15.046875 15.828125 13.484375 
Q 15.828125 11.03125 14.109375 9.375 
Q 12.40625 7.71875 10.015625 7.71875 
z
" id="Cmr10-33"/>
      </defs>
      <g transform="translate(399.392154347 229.695074303)scale(0.1 -0.1)">
       <use transform="translate(0.0 0.390625)" xlink:href="#Cmr10-33"/>
       <use transform="translate(64.6324541016 0.390625)" xlink:href="#Cmmi10-bc"/>
      </g>
     </g>
    </g>
    <g id="xtick_5">
     <g id="line2d_6">
      <g>
       <use style="stroke:#000000;stroke-width:0.5;" x="529.489539129" xlink:href="#m5a0bb98914" y="218.096636803"/>
      </g>
     </g>
     <g id="text_4">
      <!-- $4 \, \pi$ -->
      <defs>
       <path d="M 2.78125 16.5 
L 2.78125 20.015625 
L 33.6875 66.109375 
Q 34.03125 66.609375 34.71875 66.609375 
L 36.1875 66.609375 
Q 37.3125 66.609375 37.3125 65.484375 
L 37.3125 20.015625 
L 47.125 20.015625 
L 47.125 16.5 
L 37.3125 16.5 
L 37.3125 6.6875 
Q 37.3125 4.640625 40.234375 4.078125 
Q 43.171875 3.515625 47.015625 3.515625 
L 47.015625 0 
L 19.484375 0 
L 19.484375 3.515625 
Q 23.34375 3.515625 26.265625 4.078125 
Q 29.203125 4.640625 29.203125 6.6875 
L 29.203125 16.5 
z
M 6.109375 20.015625 
L 29.78125 20.015625 
L 29.78125 55.421875 
z
" id="Cmr10-34"/>
      </defs>
      <g transform="translate(523.389539129 229.695074303)scale(0.1 -0.1)">
       <use transform="translate(0.0 0.390625)" xlink:href="#Cmr10-34"/>
       <use transform="translate(64.6324541016 0.390625)" xlink:href="#Cmmi10-bc"/>
      </g>
     </g>
    </g>
    <g id="xtick_6">
     <g id="line2d_7">
      <defs>
       <path d="M 0 0 
L 0 -2 
" id="mb166a65f45" style="stroke:#000000;stroke-width:0.5;"/>
      </defs>
      <g>
       <use style="stroke:#000000;stroke-width:0.5;" x="64.4993461956" xlink:href="#mb166a65f45" y="218.096636803"/>
      </g>
     </g>
    </g>
    <g id="xtick_7">
     <g id="line2d_8">
      <g>
       <use style="stroke:#000000;stroke-width:0.5;" x="95.4986923912" xlink:href="#mb166a65f45" y="218.096636803"/>
      </g>
     </g>
    </g>
    <g id="xtick_8">
     <g id="line2d_9">
      <g>
       <use style="stroke:#000000;stroke-width:0.5;" x="126.498038587" xlink:href="#mb166a65f45" y="218.096636803"/>
      </g>
     </g>
    </g>
    <g id="xtick_9">
     <g id="line2d_10">
      <g>
       <use style="stroke:#000000;stroke-width:0.5;" x="188.496730978" xlink:href="#mb166a65f45" y="218.096636803"/>
      </g>
     </g>
    </g>
    <g id="xtick_10">
     <g id="line2d_11">
      <g>
       <use style="stroke:#000000;stroke-width:0.5;" x="219.496077174" xlink:href="#mb166a65f45" y="218.096636803"/>
      </g>
     </g>
    </g>
    <g id="xtick_11">
     <g id="line2d_12">
      <g>
       <use style="stroke:#000000;stroke-width:0.5;" x="250.495423369" xlink:href="#mb166a65f45" y="218.096636803"/>
      </g>
     </g>
    </g>
    <g id="xtick_12">
     <g id="line2d_13">
      <g>
       <use style="stroke:#000000;stroke-width:0.5;" x="312.49411576" xlink:href="#mb166a65f45" y="218.096636803"/>
      </g>
     </g>
    </g>
    <g id="xtick_13">
     <g id="line2d_14">
      <g>
       <use style="stroke:#000000;stroke-width:0.5;" x="343.493461956" xlink:href="#mb166a65f45" y="218.096636803"/>
      </g>
     </g>
    </g>
    <g id="xtick_14">
     <g id="line2d_15">
      <g>
       <use style="stroke:#000000;stroke-width:0.5;" x="374.492808152" xlink:href="#mb166a65f45" y="218.096636803"/>
      </g>
     </g>
    </g>
    <g id="xtick_15">
     <g id="line2d_16">
      <g>
       <use style="stroke:#000000;stroke-width:0.5;" x="436.491500543" xlink:href="#mb166a65f45" y="218.096636803"/>
      </g>
     </g>
    </g>
    <g id="xtick_16">
     <g id="line2d_17">
      <g>
       <use style="stroke:#000000;stroke-width:0.5;" x="467.490846738" xlink:href="#mb166a65f45" y="218.096636803"/>
      </g>
     </g>
    </g>
    <g id="xtick_17">
     <g id="line2d_18">
      <g>
       <use style="stroke:#000000;stroke-width:0.5;" x="498.490192934" xlink:href="#mb166a65f45" y="218.096636803"/>
      </g>
     </g>
    </g>
    <g id="text_5">
     <!-- $t$ -->
     <defs>
      <path d="M 6.203125 8.109375 
Q 6.203125 9.578125 6.5 10.890625 
L 13.71875 39.59375 
L 3.21875 39.59375 
Q 2.203125 39.59375 2.203125 40.921875 
Q 2.59375 43.109375 3.515625 43.109375 
L 14.59375 43.109375 
L 18.609375 59.421875 
Q 19 60.75 20.171875 61.671875 
Q 21.34375 62.59375 22.796875 62.59375 
Q 24.078125 62.59375 24.921875 61.828125 
Q 25.78125 61.078125 25.78125 59.8125 
Q 25.78125 59.515625 25.75 59.34375 
Q 25.734375 59.1875 25.6875 58.984375 
L 21.6875 43.109375 
L 31.984375 43.109375 
Q 33.015625 43.109375 33.015625 41.796875 
Q 32.953125 41.546875 32.8125 40.953125 
Q 32.671875 40.375 32.421875 39.984375 
Q 32.171875 39.59375 31.6875 39.59375 
L 20.796875 39.59375 
L 13.625 10.6875 
Q 12.890625 7.859375 12.890625 5.8125 
Q 12.890625 1.515625 15.828125 1.515625 
Q 20.21875 1.515625 23.609375 5.640625 
Q 27 9.765625 28.8125 14.703125 
Q 29.203125 15.28125 29.59375 15.28125 
L 30.8125 15.28125 
Q 31.203125 15.28125 31.4375 15.015625 
Q 31.6875 14.75 31.6875 14.40625 
Q 31.6875 14.203125 31.59375 14.109375 
Q 29.390625 8.0625 25.1875 3.46875 
Q 21 -1.125 15.578125 -1.125 
Q 11.625 -1.125 8.90625 1.453125 
Q 6.203125 4.046875 6.203125 8.109375 
" id="Cmmi10-74"/>
     </defs>
     <g transform="translate(547.409329912 218.096636803)scale(0.16 -0.16)">
      <use transform="translate(0.0 0.40625)" xlink:href="#Cmmi10-74"/>
     </g>
    </g>
   </g>
   <g id="matplotlib.axis_2">
    <g id="ytick_1">
     <g id="line2d_19">
      <defs>
       <path d="M 0 0 
L 4 0 
" id="m4f1ea2466e" style="stroke:#000000;stroke-width:0.5;"/>
      </defs>
      <g>
       <use style="stroke:#000000;stroke-width:0.5;" x="33.5" xlink:href="#m4f1ea2466e" y="395.177029892"/>
      </g>
     </g>
     <g id="text_6">
      <!-- $-2.0$ -->
      <defs>
       <path d="M 10.203125 23 
Q 9.375 23 8.828125 23.625 
Q 8.296875 24.265625 8.296875 25 
Q 8.296875 25.734375 8.828125 26.359375 
Q 9.375 27 10.203125 27 
L 67.578125 27 
Q 68.359375 27 68.875 26.359375 
Q 69.390625 25.734375 69.390625 25 
Q 69.390625 24.265625 68.875 23.625 
Q 68.359375 23 67.578125 23 
z
" id="Cmsy10-a1"/>
       <path d="M 25 -2.203125 
Q 12.75 -2.203125 8.328125 7.875 
Q 3.90625 17.96875 3.90625 31.890625 
Q 3.90625 40.578125 5.484375 48.234375 
Q 7.078125 55.90625 11.78125 61.25 
Q 16.5 66.609375 25 66.609375 
Q 31.59375 66.609375 35.78125 63.375 
Q 39.984375 60.15625 42.1875 55.046875 
Q 44.390625 49.953125 45.1875 44.109375 
Q 46 38.28125 46 31.890625 
Q 46 23.296875 44.40625 15.796875 
Q 42.828125 8.296875 38.1875 3.046875 
Q 33.546875 -2.203125 25 -2.203125 
M 25 0.390625 
Q 30.5625 0.390625 33.296875 6.09375 
Q 36.03125 11.8125 36.671875 18.75 
Q 37.3125 25.6875 37.3125 33.5 
Q 37.3125 41.015625 36.671875 47.359375 
Q 36.03125 53.71875 33.3125 58.859375 
Q 30.609375 64.015625 25 64.015625 
Q 19.34375 64.015625 16.609375 58.828125 
Q 13.875 53.65625 13.234375 47.328125 
Q 12.59375 41.015625 12.59375 33.5 
Q 12.59375 27.9375 12.859375 23 
Q 13.140625 18.0625 14.3125 12.8125 
Q 15.484375 7.5625 18.09375 3.96875 
Q 20.703125 0.390625 25 0.390625 
" id="Cmr10-30"/>
       <path d="M 8.40625 5.515625 
Q 8.40625 7.765625 10.0625 9.375 
Q 11.71875 10.984375 13.921875 10.984375 
Q 15.28125 10.984375 16.59375 10.25 
Q 17.921875 9.515625 18.65625 8.203125 
Q 19.390625 6.890625 19.390625 5.515625 
Q 19.390625 3.328125 17.765625 1.65625 
Q 16.15625 0 13.921875 0 
Q 11.71875 0 10.0625 1.65625 
Q 8.40625 3.328125 8.40625 5.515625 
" id="Cmmi10-3a"/>
      </defs>
      <g transform="translate(7.2 397.936404892)scale(0.1 -0.1)">
       <use transform="translate(0.0 0.390625)" xlink:href="#Cmsy10-a1"/>
       <use transform="translate(77.685546875 0.390625)" xlink:href="#Cmr10-32"/>
       <use transform="translate(127.685546875 0.390625)" xlink:href="#Cmmi10-3a"/>
       <use transform="translate(172.9296875 0.390625)" xlink:href="#Cmr10-30"/>
      </g>
     </g>
    </g>
    <g id="ytick_2">
     <g id="line2d_20">
      <g>
       <use style="stroke:#000000;stroke-width:0.5;" x="33.5" xlink:href="#m4f1ea2466e" y="306.636833348"/>
      </g>
     </g>
     <g id="text_7">
      <!-- $-1.0$ -->
      <defs>
       <path d="M 9.28125 0 
L 9.28125 3.515625 
Q 21.78125 3.515625 21.78125 6.6875 
L 21.78125 59.1875 
Q 16.609375 56.6875 8.6875 56.6875 
L 8.6875 60.203125 
Q 20.953125 60.203125 27.203125 66.609375 
L 28.609375 66.609375 
Q 28.953125 66.609375 29.265625 66.328125 
Q 29.59375 66.0625 29.59375 65.71875 
L 29.59375 6.6875 
Q 29.59375 3.515625 42.09375 3.515625 
L 42.09375 0 
z
" id="Cmr10-31"/>
      </defs>
      <g transform="translate(7.2 309.396208348)scale(0.1 -0.1)">
       <use transform="translate(0.0 0.390625)" xlink:href="#Cmsy10-a1"/>
       <use transform="translate(77.685546875 0.390625)" xlink:href="#Cmr10-31"/>
       <use transform="translate(127.685546875 0.390625)" xlink:href="#Cmmi10-3a"/>
       <use transform="translate(172.9296875 0.390625)" xlink:href="#Cmr10-30"/>
      </g>
     </g>
    </g>
    <g id="ytick_3">
     <g id="line2d_21">
      <g>
       <use style="stroke:#000000;stroke-width:0.5;" x="33.5" xlink:href="#m4f1ea2466e" y="218.096636803"/>
      </g>
     </g>
    </g>
    <g id="ytick_4">
     <g id="line2d_22">
      <g>
       <use style="stroke:#000000;stroke-width:0.5;" x="33.5" xlink:href="#m4f1ea2466e" y="129.556440258"/>
      </g>
     </g>
     <g id="text_8">
      <!-- $1.0$ -->
      <g transform="translate(14.9 132.315815258)scale(0.1 -0.1)">
       <use transform="translate(0.0 0.390625)" xlink:href="#Cmr10-31"/>
       <use transform="translate(50.0 0.390625)" xlink:href="#Cmmi10-3a"/>
       <use transform="translate(95.244140625 0.390625)" xlink:href="#Cmr10-30"/>
      </g>
     </g>
    </g>
    <g id="ytick_5">
     <g id="line2d_23">
      <g>
       <use style="stroke:#000000;stroke-width:0.5;" x="33.5" xlink:href="#m4f1ea2466e" y="41.016243713"/>
      </g>
     </g>
     <g id="text_9">
      <!-- $2.0$ -->
      <g transform="translate(14.9 43.775618713)scale(0.1 -0.1)">
       <use transform="translate(0.0 0.390625)" xlink:href="#Cmr10-32"/>
       <use transform="translate(50.0 0.390625)" xlink:href="#Cmmi10-3a"/>
       <use transform="translate(95.244140625 0.390625)" xlink:href="#Cmr10-30"/>
      </g>
     </g>
    </g>
    <g id="ytick_6">
     <g id="line2d_24">
      <defs>
       <path d="M 0 0 
L 2 0 
" id="m2ee54bc288" style="stroke:#000000;stroke-width:0.5;"/>
      </defs>
      <g>
       <use style="stroke:#000000;stroke-width:0.5;" x="33.5" xlink:href="#m2ee54bc288" y="377.468990583"/>
      </g>
     </g>
    </g>
    <g id="ytick_7">
     <g id="line2d_25">
      <g>
       <use style="stroke:#000000;stroke-width:0.5;" x="33.5" xlink:href="#m2ee54bc288" y="359.760951275"/>
      </g>
     </g>
    </g>
    <g id="ytick_8">
     <g id="line2d_26">
      <g>
       <use style="stroke:#000000;stroke-width:0.5;" x="33.5" xlink:href="#m2ee54bc288" y="342.052911966"/>
      </g>
     </g>
    </g>
    <g id="ytick_9">
     <g id="line2d_27">
      <g>
       <use style="stroke:#000000;stroke-width:0.5;" x="33.5" xlink:href="#m2ee54bc288" y="324.344872657"/>
      </g>
     </g>
    </g>
    <g id="ytick_10">
     <g id="line2d_28">
      <g>
       <use style="stroke:#000000;stroke-width:0.5;" x="33.5" xlink:href="#m2ee54bc288" y="306.636833348"/>
      </g>
     </g>
    </g>
    <g id="ytick_11">
     <g id="line2d_29">
      <g>
       <use style="stroke:#000000;stroke-width:0.5;" x="33.5" xlink:href="#m2ee54bc288" y="288.928794039"/>
      </g>
     </g>
    </g>
    <g id="ytick_12">
     <g id="line2d_30">
      <g>
       <use style="stroke:#000000;stroke-width:0.5;" x="33.5" xlink:href="#m2ee54bc288" y="271.22075473"/>
      </g>
     </g>
    </g>
    <g id="ytick_13">
     <g id="line2d_31">
      <g>
       <use style="stroke:#000000;stroke-width:0.5;" x="33.5" xlink:href="#m2ee54bc288" y="253.512715421"/>
      </g>
     </g>
    </g>
    <g id="ytick_14">
     <g id="line2d_32">
      <g>
       <use style="stroke:#000000;stroke-width:0.5;" x="33.5" xlink:href="#m2ee54bc288" y="235.804676112"/>
      </g>
     </g>
    </g>
    <g id="ytick_15">
     <g id="line2d_33">
      <g>
       <use style="stroke:#000000;stroke-width:0.5;" x="33.5" xlink:href="#m2ee54bc288" y="218.096636803"/>
      </g>
     </g>
    </g>
    <g id="ytick_16">
     <g id="line2d_34">
      <g>
       <use style="stroke:#000000;stroke-width:0.5;" x="33.5" xlink:href="#m2ee54bc288" y="200.388597494"/>
      </g>
     </g>
    </g>
    <g id="ytick_17">
     <g id="line2d_35">
      <g>
       <use style="stroke:#000000;stroke-width:0.5;" x="33.5" xlink:href="#m2ee54bc288" y="182.680558185"/>
      </g>
     </g>
    </g>
    <g id="ytick_18">
     <g id="line2d_36">
      <g>
       <use style="stroke:#000000;stroke-width:0.5;" x="33.5" xlink:href="#m2ee54bc288" y="164.972518876"/>
      </g>
     </g>
    </g>
    <g id="ytick_19">
     <g id="line2d_37">
      <g>
       <use style="stroke:#000000;stroke-width:0.5;" x="33.5" xlink:href="#m2ee54bc288" y="147.264479567"/>
      </g>
     </g>
    </g>
    <g id="ytick_20">
     <g id="line2d_38">
      <g>
       <use style="stroke:#000000;stroke-width:0.5;" x="33.5" xlink:href="#m2ee54bc288" y="129.556440258"/>
      </g>
     </g>
    </g>
    <g id="ytick_21">
     <g id="line2d_39">
      <g>
       <use style="stroke:#000000;stroke-width:0.5;" x="33.5" xlink:href="#m2ee54bc288" y="111.848400949"/>
      </g>
     </g>
    </g>
    <g id="ytick_22">
     <g id="line2d_40">
      <g>
       <use style="stroke:#000000;stroke-width:0.5;" x="33.5" xlink:href="#m2ee54bc288" y="94.1403616399"/>
      </g>
     </g>
    </g>
    <g id="ytick_23">
     <g id="line2d_41">
      <g>
       <use style="stroke:#000000;stroke-width:0.5;" x="33.5" xlink:href="#m2ee54bc288" y="76.432322331"/>
      </g>
     </g>
    </g>
    <g id="ytick_24">
     <g id="line2d_42">
      <g>
       <use style="stroke:#000000;stroke-width:0.5;" x="33.5" xlink:href="#m2ee54bc288" y="58.724283022"/>
      </g>
     </g>
    </g>
    <g id="ytick_25">
     <g id="line2d_43">
      <g>
       <use style="stroke:#000000;stroke-width:0.5;" x="33.5" xlink:href="#m2ee54bc288" y="41.016243713"/>
      </g>
     </g>
    </g>
    <g id="text_10">
     <!-- $x(t)$ -->
     <defs>
      <path d="M 31 -24.8125 
Q 25.4375 -20.40625 21.40625 -14.71875 
Q 17.390625 -9.03125 14.8125 -2.578125 
Q 12.25 3.859375 10.984375 10.890625 
Q 9.71875 17.921875 9.71875 25 
Q 9.71875 32.171875 10.984375 39.203125 
Q 12.25 46.234375 14.859375 52.734375 
Q 17.484375 59.234375 21.53125 64.890625 
Q 25.59375 70.5625 31 74.8125 
Q 31 75 31.5 75 
L 32.421875 75 
Q 32.71875 75 32.953125 74.734375 
Q 33.203125 74.46875 33.203125 74.125 
Q 33.203125 73.6875 33.015625 73.484375 
Q 28.125 68.703125 24.875 63.234375 
Q 21.625 57.765625 19.640625 51.578125 
Q 17.671875 45.40625 16.796875 38.78125 
Q 15.921875 32.171875 15.921875 25 
Q 15.921875 -6.78125 32.90625 -23.296875 
Q 33.203125 -23.578125 33.203125 -24.125 
Q 33.203125 -24.359375 32.9375 -24.671875 
Q 32.671875 -25 32.421875 -25 
L 31.5 -25 
Q 31 -25 31 -24.8125 
" id="Cmr10-28"/>
      <path d="M 6.5 -25 
Q 5.609375 -25 5.609375 -24.125 
Q 5.609375 -23.6875 5.8125 -23.484375 
Q 22.90625 -6.78125 22.90625 25 
Q 22.90625 56.78125 6 73.296875 
Q 5.609375 73.53125 5.609375 74.125 
Q 5.609375 74.46875 5.875 74.734375 
Q 6.15625 75 6.5 75 
L 7.421875 75 
Q 7.71875 75 7.90625 74.8125 
Q 15.09375 69.140625 19.875 61.03125 
Q 24.65625 52.9375 26.875 43.75 
Q 29.109375 34.578125 29.109375 25 
Q 29.109375 17.921875 27.90625 11.0625 
Q 26.703125 4.203125 24.09375 -2.453125 
Q 21.484375 -9.125 17.484375 -14.765625 
Q 13.484375 -20.40625 7.90625 -24.8125 
Q 7.71875 -25 7.421875 -25 
z
" id="Cmr10-29"/>
      <path d="M 7.8125 2.875 
Q 9.578125 1.515625 12.796875 1.515625 
Q 15.921875 1.515625 18.3125 4.515625 
Q 20.703125 7.515625 21.578125 11.078125 
L 26.125 28.8125 
Q 27.203125 33.640625 27.203125 35.40625 
Q 27.203125 37.890625 25.8125 39.75 
Q 24.421875 41.609375 21.921875 41.609375 
Q 18.75 41.609375 15.96875 39.625 
Q 13.1875 37.640625 11.28125 34.59375 
Q 9.375 31.546875 8.59375 28.421875 
Q 8.40625 27.78125 7.8125 27.78125 
L 6.59375 27.78125 
Q 5.8125 27.78125 5.8125 28.71875 
L 5.8125 29 
Q 6.78125 32.71875 9.125 36.25 
Q 11.46875 39.796875 14.859375 41.984375 
Q 18.265625 44.1875 22.125 44.1875 
Q 25.78125 44.1875 28.734375 42.234375 
Q 31.6875 40.28125 32.90625 36.921875 
Q 34.625 39.984375 37.28125 42.078125 
Q 39.9375 44.1875 43.109375 44.1875 
Q 45.265625 44.1875 47.5 43.421875 
Q 49.75 42.671875 51.171875 41.109375 
Q 52.59375 39.546875 52.59375 37.203125 
Q 52.59375 34.671875 50.953125 32.828125 
Q 49.3125 31 46.78125 31 
Q 45.171875 31 44.09375 32.03125 
Q 43.015625 33.0625 43.015625 34.625 
Q 43.015625 36.71875 44.453125 38.296875 
Q 45.90625 39.890625 47.90625 40.1875 
Q 46.09375 41.609375 42.921875 41.609375 
Q 39.703125 41.609375 37.328125 38.625 
Q 34.96875 35.640625 33.984375 31.984375 
L 29.59375 14.3125 
Q 28.515625 10.296875 28.515625 7.71875 
Q 28.515625 5.171875 29.953125 3.34375 
Q 31.390625 1.515625 33.796875 1.515625 
Q 38.484375 1.515625 42.15625 5.640625 
Q 45.84375 9.765625 47.015625 14.703125 
Q 47.21875 15.28125 47.796875 15.28125 
L 49.03125 15.28125 
Q 49.421875 15.28125 49.65625 15.015625 
Q 49.90625 14.75 49.90625 14.40625 
Q 49.90625 14.3125 49.8125 14.109375 
Q 48.390625 8.15625 43.84375 3.515625 
Q 39.3125 -1.125 33.59375 -1.125 
Q 29.9375 -1.125 26.984375 0.84375 
Q 24.03125 2.828125 22.796875 6.203125 
Q 21.234375 3.265625 18.46875 1.0625 
Q 15.71875 -1.125 12.59375 -1.125 
Q 10.453125 -1.125 8.171875 -0.359375 
Q 5.90625 0.390625 4.484375 1.953125 
Q 3.078125 3.515625 3.078125 5.90625 
Q 3.078125 8.25 4.703125 10.171875 
Q 6.34375 12.109375 8.796875 12.109375 
Q 10.453125 12.109375 11.578125 11.109375 
Q 12.703125 10.109375 12.703125 8.5 
Q 12.703125 6.390625 11.296875 4.828125 
Q 9.90625 3.265625 7.8125 2.875 
" id="Cmmi10-78"/>
     </defs>
     <g transform="translate(19.82 19.2)scale(0.16 -0.16)">
      <use xlink:href="#Cmmi10-78"/>
      <use transform="translate(57.080078125 0.0)" xlink:href="#Cmr10-28"/>
      <use transform="translate(95.8984375 0.0)" xlink:href="#Cmmi10-74"/>
      <use transform="translate(131.982421875 0.0)" xlink:href="#Cmr10-29"/>
     </g>
    </g>
   </g>
  </g>
 </g>
 <defs>
  <clipPath id="p8cbd68a297">
   <rect height="377.633125" width="515.829120695" x="23.5802092174" y="31.2"/>
  </clipPath>
 </defs>
</svg>
