<?xml version="1.0" encoding="utf-8" standalone="no"?>
<!DOCTYPE svg PUBLIC "-//W3C//DTD SVG 1.1//EN"
  "http://www.w3.org/Graphics/SVG/1.1/DTD/svg11.dtd">
<!-- Created with matplotlib (http://matplotlib.org/) -->
<svg height="272pt" version="1.1" viewBox="0 0 561 272" width="561pt" xmlns="http://www.w3.org/2000/svg" xmlns:xlink="http://www.w3.org/1999/xlink">
 <defs>
  <style type="text/css">
*{stroke-linecap:butt;stroke-linejoin:round;}
  </style>
 </defs>
 <g id="figure_1">
  <g id="patch_1">
   <path d="M 0 272.311343 
L 561.870849 272.311343 
L 561.870849 0 
L 0 0 
z
" style="fill:#ffffff;"/>
  </g>
  <g id="axes_1">
   <g id="patch_2">
    <path d="M 27.652728 264.763894 
L 540.750849 264.763894 
L 540.750849 31.2 
L 27.652728 31.2 
z
" style="fill:#ffffff;"/>
   </g>
   <g id="line2d_1">
    <path clip-path="url(#p342b8c3dfd)" d="M 37.52 110.551836 
L 39.83839 110.205422 
L 42.702878 110.036622 
L 45.1327 110.118915 
L 47.665531 110.424542 
L 50.624095 111.063218 
L 53.148445 111.844436 
L 55.442048 112.738868 
L 58.274422 114.079258 
L 60.77856 115.473945 
L 63.991439 117.537968 
L 67.153843 119.853136 
L 70.270985 122.389562 
L 74.437655 126.134412 
L 77.907266 129.522679 
L 82.965876 134.819561 
L 87.3086 139.619642 
L 98.440915 152.383914 
L 105.331793 160.126387 
L 110.376853 165.476577 
L 114.506846 169.55593 
L 118.566636 173.235179 
L 122.142526 176.159309 
L 125.176882 178.380906 
L 128.633084 180.59543 
L 131.280172 182.049366 
L 134.395856 183.477498 
L 137.324558 184.52992 
L 139.74265 185.180898 
L 141.981943 185.604572 
L 144.930671 185.896352 
L 147.467344 185.903709 
L 150.067089 185.677329 
L 153.08083 185.12048 
L 155.544069 184.43364 
L 157.9914 183.54885 
L 160.632744 182.37324 
L 163.455386 180.87214 
L 166.693084 178.852968 
L 169.82155 176.617746 
L 173.516912 173.645716 
L 176.954392 170.589718 
L 180.518231 167.161359 
L 184.834027 162.712462 
L 190.160654 156.881008 
L 197.482208 148.517734 
L 207.270186 137.368789 
L 212.392085 131.846783 
L 217.064549 127.146666 
L 221.202145 123.332192 
L 224.860858 120.281949 
L 227.982159 117.949052 
L 231.177654 115.840838 
L 233.696144 114.391992 
L 236.998867 112.791508 
L 239.34962 111.867514 
L 242.370559 110.951395 
L 244.962984 110.413892 
L 247.279366 110.130886 
L 250.175502 110.041112 
L 252.699905 110.202692 
L 255.699825 110.683778 
L 258.576193 111.4363 
L 261.26354 112.391902 
L 264.068123 113.642295 
L 266.639082 115.007997 
L 269.326255 116.650509 
L 272.247603 118.672893 
L 275.716504 121.373008 
L 278.506378 123.76066 
L 282.737367 127.707997 
L 286.772695 131.785927 
L 291.864815 137.271262 
L 299.30593 145.709902 
L 310.774716 158.788468 
L 316.213284 164.628391 
L 320.155198 168.586056 
L 323.820467 172.001895 
L 327.721805 175.30942 
L 331.495336 178.143669 
L 334.234308 179.954419 
L 336.846355 181.474998 
L 339.726473 182.906556 
L 342.531332 184.043561 
L 345.183643 184.877745 
L 347.92672 185.488182 
L 350.614634 185.833452 
L 353.347205 185.925472 
L 355.913692 185.773519 
L 358.633757 185.361476 
L 361.386857 184.684272 
L 364.10358 183.76406 
L 367.302143 182.368487 
L 370.039686 180.91541 
L 372.829463 179.200103 
L 375.71472 177.190141 
L 379.159448 174.497687 
L 382.596707 171.521413 
L 385.781003 168.53423 
L 390.604667 163.65219 
L 395.095089 158.802766 
L 401.158328 151.952586 
L 413.734958 137.584836 
L 418.780932 132.130104 
L 423.231028 127.624527 
L 427.525219 123.628704 
L 431.346357 120.419661 
L 434.764714 117.862594 
L 437.540017 116.02447 
L 440.378999 114.379546 
L 443.259408 112.96637 
L 445.930882 111.895377 
L 448.169428 111.180919 
L 450.96876 110.527572 
L 453.614947 110.159211 
L 456.02695 110.03658 
L 458.519045 110.124118 
L 461.033678 110.432632 
L 463.59496 110.972369 
L 466.457172 111.840715 
L 469.390797 113.014494 
L 472.405963 114.510481 
L 475.387178 116.266035 
L 478.738239 118.549428 
L 481.710104 120.830658 
L 485.398558 123.967774 
L 488.854664 127.181852 
L 493.473497 131.828873 
L 498.754976 137.526649 
L 505.193394 144.821331 
L 517.457203 158.813719 
L 522.081573 163.803192 
L 526.683324 168.458466 
L 530.883577 172.360426 
L 530.883577 172.360426 
" style="fill:none;stroke:#0000ff;stroke-linecap:square;stroke-width:2;"/>
   </g>
   <g id="line2d_2">
    <path clip-path="url(#p342b8c3dfd)" d="M 37.52 129.266891 
L 54.748351 187.941159 
L 58.831092 200.831446 
L 62.462957 211.620562 
L 65.938858 221.222093 
L 68.859184 228.661393 
L 71.451054 234.733313 
L 74.177768 240.539297 
L 76.160121 244.363313 
L 78.515943 248.451585 
L 80.871765 252.024649 
L 83.073598 254.882122 
L 85.031839 257.02147 
L 86.555268 258.418902 
L 88.173037 259.643475 
L 89.790806 260.597965 
L 91.509798 261.313645 
L 93.178132 261.712302 
L 94.889695 261.817268 
L 96.430298 261.648191 
L 97.999257 261.219747 
L 99.683331 260.47324 
L 100.972803 259.702209 
L 102.463569 258.596919 
L 103.954336 257.26443 
L 105.684788 255.436414 
L 107.381229 253.355632 
L 109.300898 250.663369 
L 111.503061 247.144878 
L 113.749613 243.097699 
L 115.891104 238.82655 
L 118.639502 232.783548 
L 120.960477 227.217628 
L 124.181909 218.845031 
L 127.36091 209.916475 
L 131.144095 198.544865 
L 135.278398 185.3593 
L 140.215768 168.85808 
L 159.247838 104.258062 
L 163.220575 91.912023 
L 167.07759 80.705684 
L 170.487555 71.563193 
L 173.351059 64.515944 
L 175.94957 58.666704 
L 178.36136 53.735611 
L 180.612467 49.58958 
L 182.909854 45.833456 
L 185.139102 42.664802 
L 186.88616 40.518894 
L 188.893018 38.428292 
L 190.728872 36.872762 
L 192.260187 35.839816 
L 193.791502 35.049904 
L 195.142081 34.556301 
L 196.713821 34.222664 
L 198.209216 34.146336 
L 199.861815 34.335643 
L 201.140566 34.679025 
L 202.604806 35.282476 
L 204.134155 36.151168 
L 205.548793 37.169974 
L 207.416378 38.828523 
L 209.229811 40.775713 
L 211.023768 43.022591 
L 213.164471 46.111635 
L 215.05864 49.205108 
L 217.520484 53.713461 
L 219.868683 58.505977 
L 222.570179 64.581832 
L 225.263772 71.199802 
L 228.305433 79.289241 
L 231.629418 88.798255 
L 235.285898 99.952103 
L 239.520076 113.599636 
L 245.270172 132.999556 
L 260.357977 184.518362 
L 265.025279 199.399304 
L 268.875343 210.909168 
L 272.397841 220.689023 
L 275.284158 228.086308 
L 278.252745 235.050831 
L 280.630866 240.121264 
L 283.017944 244.726565 
L 285.325557 248.694593 
L 287.586449 252.101805 
L 289.664151 254.799665 
L 291.553451 256.883241 
L 293.149932 258.364107 
L 294.600005 259.483911 
L 296.050077 260.387025 
L 297.845821 261.202507 
L 299.404993 261.636959 
L 300.927888 261.814794 
L 302.416247 261.752839 
L 303.906347 261.457476 
L 305.123995 261.043183 
L 306.541786 260.365613 
L 307.959577 259.479253 
L 309.832799 257.990856 
L 311.610863 256.247972 
L 313.55808 253.976601 
L 315.724634 251.013275 
L 317.591299 248.101214 
L 319.793019 244.252855 
L 322.060397 239.839221 
L 324.588943 234.403586 
L 326.813836 229.197355 
L 329.476228 222.481313 
L 332.680684 213.755092 
L 336.247084 203.313618 
L 340.483009 190.078054 
L 345.179443 174.598205 
L 351.79816 151.937924 
L 361.502439 118.684533 
L 366.483565 102.423931 
L 370.627264 89.676468 
L 374.204927 79.406733 
L 377.386456 70.951457 
L 380.3713 63.672282 
L 383.191635 57.430905 
L 385.843458 52.168618 
L 388.143431 48.107497 
L 390.277702 44.775253 
L 392.301979 42.015948 
L 394.354352 39.628035 
L 396.336324 37.722251 
L 398.109602 36.356213 
L 399.767717 35.372297 
L 401.190413 34.756077 
L 402.538861 34.367523 
L 404.028021 34.160301 
L 405.517182 34.186362 
L 407.127118 34.476894 
L 408.920776 35.120728 
L 410.584828 36.018159 
L 412.24888 37.202118 
L 413.765403 38.528114 
L 415.281926 40.086759 
L 417.281168 42.49138 
L 419.449479 45.539487 
L 421.414019 48.685822 
L 423.694004 52.780543 
L 425.751942 56.86972 
L 428.310076 62.447968 
L 431.009533 68.894453 
L 433.899789 76.385589 
L 437.100378 85.323175 
L 440.463791 95.352681 
L 444.582031 108.370692 
L 449.434743 124.490207 
L 457.142821 150.9984 
L 465.279859 178.773597 
L 469.915288 193.862945 
L 473.982397 206.362639 
L 477.655697 216.890828 
L 480.934796 225.567596 
L 483.686833 232.258363 
L 486.174467 237.80011 
L 488.455238 242.430481 
L 490.691258 246.529428 
L 492.96834 250.235642 
L 495.124422 253.293628 
L 496.963372 255.544818 
L 498.744473 257.404796 
L 500.295364 258.763257 
L 501.846255 259.875456 
L 503.625135 260.844761 
L 505.218929 261.432947 
L 506.797058 261.752929 
L 508.528943 261.802695 
L 510.064587 261.5829 
L 511.600231 261.115516 
L 513.054854 260.445368 
L 514.521936 259.546718 
L 515.989019 258.426139 
L 517.809009 256.730965 
L 519.737775 254.571275 
L 521.795733 251.86306 
L 523.939817 248.609249 
L 525.828182 245.388988 
L 528.235161 240.820521 
L 530.883577 235.220587 
L 530.883577 235.220587 
" style="fill:none;stroke:#ff0000;stroke-linecap:square;stroke-width:2;"/>
   </g>
   <g id="patch_3">
    <path d="M 37.52 264.763894 
L 37.52 31.2 
" style="fill:none;stroke:#000000;stroke-linecap:square;stroke-linejoin:miter;stroke-width:0.8;"/>
   </g>
   <g id="patch_4">
    <path d="M 27.652728 147.981947 
L 540.750849 147.981947 
" style="fill:none;stroke:#000000;stroke-linecap:square;stroke-linejoin:miter;stroke-width:0.8;"/>
   </g>
   <g id="matplotlib.axis_1">
    <g id="xtick_1">
     <g id="line2d_3">
      <defs>
       <path d="M 0 0 
L 0 -4 
" id="me0e2fab9a9" style="stroke:#000000;stroke-width:0.5;"/>
      </defs>
      <g>
       <use style="stroke:#000000;stroke-width:0.5;" x="37.52" xlink:href="#me0e2fab9a9" y="147.981947"/>
      </g>
     </g>
    </g>
    <g id="xtick_2">
     <g id="line2d_4">
      <g>
       <use style="stroke:#000000;stroke-width:0.5;" x="136.192715" xlink:href="#me0e2fab9a9" y="147.981947"/>
      </g>
     </g>
     <g id="text_1">
      <!-- 1 -->
      <defs>
       <path d="M 12.40625 8.296875 
L 28.515625 8.296875 
L 28.515625 63.921875 
L 10.984375 60.40625 
L 10.984375 69.390625 
L 28.421875 72.90625 
L 38.28125 72.90625 
L 38.28125 8.296875 
L 54.390625 8.296875 
L 54.390625 0 
L 12.40625 0 
z
" id="DejaVuSans-31"/>
      </defs>
      <g transform="translate(133.011465 159.580385)scale(0.1 -0.1)">
       <use xlink:href="#DejaVuSans-31"/>
      </g>
     </g>
    </g>
    <g id="xtick_3">
     <g id="line2d_5">
      <g>
       <use style="stroke:#000000;stroke-width:0.5;" x="234.865431" xlink:href="#me0e2fab9a9" y="147.981947"/>
      </g>
     </g>
     <g id="text_2">
      <!-- 2 -->
      <defs>
       <path d="M 19.1875 8.296875 
L 53.609375 8.296875 
L 53.609375 0 
L 7.328125 0 
L 7.328125 8.296875 
Q 12.9375 14.109375 22.625 23.890625 
Q 32.328125 33.6875 34.8125 36.53125 
Q 39.546875 41.84375 41.421875 45.53125 
Q 43.3125 49.21875 43.3125 52.78125 
Q 43.3125 58.59375 39.234375 62.25 
Q 35.15625 65.921875 28.609375 65.921875 
Q 23.96875 65.921875 18.8125 64.3125 
Q 13.671875 62.703125 7.8125 59.421875 
L 7.8125 69.390625 
Q 13.765625 71.78125 18.9375 73 
Q 24.125 74.21875 28.421875 74.21875 
Q 39.75 74.21875 46.484375 68.546875 
Q 53.21875 62.890625 53.21875 53.421875 
Q 53.21875 48.921875 51.53125 44.890625 
Q 49.859375 40.875 45.40625 35.40625 
Q 44.1875 33.984375 37.640625 27.21875 
Q 31.109375 20.453125 19.1875 8.296875 
z
" id="DejaVuSans-32"/>
      </defs>
      <g transform="translate(231.684181 159.580385)scale(0.1 -0.1)">
       <use xlink:href="#DejaVuSans-32"/>
      </g>
     </g>
    </g>
    <g id="xtick_4">
     <g id="line2d_6">
      <g>
       <use style="stroke:#000000;stroke-width:0.5;" x="333.538146" xlink:href="#me0e2fab9a9" y="147.981947"/>
      </g>
     </g>
     <g id="text_3">
      <!-- 3 -->
      <defs>
       <path d="M 40.578125 39.3125 
Q 47.65625 37.796875 51.625 33 
Q 55.609375 28.21875 55.609375 21.1875 
Q 55.609375 10.40625 48.1875 4.484375 
Q 40.765625 -1.421875 27.09375 -1.421875 
Q 22.515625 -1.421875 17.65625 -0.515625 
Q 12.796875 0.390625 7.625 2.203125 
L 7.625 11.71875 
Q 11.71875 9.328125 16.59375 8.109375 
Q 21.484375 6.890625 26.8125 6.890625 
Q 36.078125 6.890625 40.9375 10.546875 
Q 45.796875 14.203125 45.796875 21.1875 
Q 45.796875 27.640625 41.28125 31.265625 
Q 36.765625 34.90625 28.71875 34.90625 
L 20.21875 34.90625 
L 20.21875 43.015625 
L 29.109375 43.015625 
Q 36.375 43.015625 40.234375 45.921875 
Q 44.09375 48.828125 44.09375 54.296875 
Q 44.09375 59.90625 40.109375 62.90625 
Q 36.140625 65.921875 28.71875 65.921875 
Q 24.65625 65.921875 20.015625 65.03125 
Q 15.375 64.15625 9.8125 62.3125 
L 9.8125 71.09375 
Q 15.4375 72.65625 20.34375 73.4375 
Q 25.25 74.21875 29.59375 74.21875 
Q 40.828125 74.21875 47.359375 69.109375 
Q 53.90625 64.015625 53.90625 55.328125 
Q 53.90625 49.265625 50.4375 45.09375 
Q 46.96875 40.921875 40.578125 39.3125 
z
" id="DejaVuSans-33"/>
      </defs>
      <g transform="translate(330.356896 159.580385)scale(0.1 -0.1)">
       <use xlink:href="#DejaVuSans-33"/>
      </g>
     </g>
    </g>
    <g id="xtick_5">
     <g id="line2d_7">
      <g>
       <use style="stroke:#000000;stroke-width:0.5;" x="432.210862" xlink:href="#me0e2fab9a9" y="147.981947"/>
      </g>
     </g>
     <g id="text_4">
      <!-- 4 -->
      <defs>
       <path d="M 37.796875 64.3125 
L 12.890625 25.390625 
L 37.796875 25.390625 
z
M 35.203125 72.90625 
L 47.609375 72.90625 
L 47.609375 25.390625 
L 58.015625 25.390625 
L 58.015625 17.1875 
L 47.609375 17.1875 
L 47.609375 0 
L 37.796875 0 
L 37.796875 17.1875 
L 4.890625 17.1875 
L 4.890625 26.703125 
z
" id="DejaVuSans-34"/>
      </defs>
      <g transform="translate(429.029612 159.580385)scale(0.1 -0.1)">
       <use xlink:href="#DejaVuSans-34"/>
      </g>
     </g>
    </g>
    <g id="xtick_6">
     <g id="line2d_8">
      <g>
       <use style="stroke:#000000;stroke-width:0.5;" x="530.883577" xlink:href="#me0e2fab9a9" y="147.981947"/>
      </g>
     </g>
     <g id="text_5">
      <!-- 5 -->
      <defs>
       <path d="M 10.796875 72.90625 
L 49.515625 72.90625 
L 49.515625 64.59375 
L 19.828125 64.59375 
L 19.828125 46.734375 
Q 21.96875 47.46875 24.109375 47.828125 
Q 26.265625 48.1875 28.421875 48.1875 
Q 40.625 48.1875 47.75 41.5 
Q 54.890625 34.8125 54.890625 23.390625 
Q 54.890625 11.625 47.5625 5.09375 
Q 40.234375 -1.421875 26.90625 -1.421875 
Q 22.3125 -1.421875 17.546875 -0.640625 
Q 12.796875 0.140625 7.71875 1.703125 
L 7.71875 11.625 
Q 12.109375 9.234375 16.796875 8.0625 
Q 21.484375 6.890625 26.703125 6.890625 
Q 35.15625 6.890625 40.078125 11.328125 
Q 45.015625 15.765625 45.015625 23.390625 
Q 45.015625 31 40.078125 35.4375 
Q 35.15625 39.890625 26.703125 39.890625 
Q 22.75 39.890625 18.8125 39.015625 
Q 14.890625 38.140625 10.796875 36.28125 
z
" id="DejaVuSans-35"/>
      </defs>
      <g transform="translate(527.702327 159.580385)scale(0.1 -0.1)">
       <use xlink:href="#DejaVuSans-35"/>
      </g>
     </g>
    </g>
    <g id="xtick_7">
     <g id="line2d_9">
      <defs>
       <path d="M 0 0 
L 0 -2 
" id="mb6332affbe" style="stroke:#000000;stroke-width:0.5;"/>
      </defs>
      <g>
       <use style="stroke:#000000;stroke-width:0.5;" x="57.254543" xlink:href="#mb6332affbe" y="147.981947"/>
      </g>
     </g>
    </g>
    <g id="xtick_8">
     <g id="line2d_10">
      <g>
       <use style="stroke:#000000;stroke-width:0.5;" x="76.989086" xlink:href="#mb6332affbe" y="147.981947"/>
      </g>
     </g>
    </g>
    <g id="xtick_9">
     <g id="line2d_11">
      <g>
       <use style="stroke:#000000;stroke-width:0.5;" x="96.723629" xlink:href="#mb6332affbe" y="147.981947"/>
      </g>
     </g>
    </g>
    <g id="xtick_10">
     <g id="line2d_12">
      <g>
       <use style="stroke:#000000;stroke-width:0.5;" x="116.458172" xlink:href="#mb6332affbe" y="147.981947"/>
      </g>
     </g>
    </g>
    <g id="xtick_11">
     <g id="line2d_13">
      <g>
       <use style="stroke:#000000;stroke-width:0.5;" x="136.192715" xlink:href="#mb6332affbe" y="147.981947"/>
      </g>
     </g>
    </g>
    <g id="xtick_12">
     <g id="line2d_14">
      <g>
       <use style="stroke:#000000;stroke-width:0.5;" x="155.927259" xlink:href="#mb6332affbe" y="147.981947"/>
      </g>
     </g>
    </g>
    <g id="xtick_13">
     <g id="line2d_15">
      <g>
       <use style="stroke:#000000;stroke-width:0.5;" x="175.661802" xlink:href="#mb6332affbe" y="147.981947"/>
      </g>
     </g>
    </g>
    <g id="xtick_14">
     <g id="line2d_16">
      <g>
       <use style="stroke:#000000;stroke-width:0.5;" x="195.396345" xlink:href="#mb6332affbe" y="147.981947"/>
      </g>
     </g>
    </g>
    <g id="xtick_15">
     <g id="line2d_17">
      <g>
       <use style="stroke:#000000;stroke-width:0.5;" x="215.130888" xlink:href="#mb6332affbe" y="147.981947"/>
      </g>
     </g>
    </g>
    <g id="xtick_16">
     <g id="line2d_18">
      <g>
       <use style="stroke:#000000;stroke-width:0.5;" x="234.865431" xlink:href="#mb6332affbe" y="147.981947"/>
      </g>
     </g>
    </g>
    <g id="xtick_17">
     <g id="line2d_19">
      <g>
       <use style="stroke:#000000;stroke-width:0.5;" x="254.599974" xlink:href="#mb6332affbe" y="147.981947"/>
      </g>
     </g>
    </g>
    <g id="xtick_18">
     <g id="line2d_20">
      <g>
       <use style="stroke:#000000;stroke-width:0.5;" x="274.334517" xlink:href="#mb6332affbe" y="147.981947"/>
      </g>
     </g>
    </g>
    <g id="xtick_19">
     <g id="line2d_21">
      <g>
       <use style="stroke:#000000;stroke-width:0.5;" x="294.06906" xlink:href="#mb6332affbe" y="147.981947"/>
      </g>
     </g>
    </g>
    <g id="xtick_20">
     <g id="line2d_22">
      <g>
       <use style="stroke:#000000;stroke-width:0.5;" x="313.803603" xlink:href="#mb6332affbe" y="147.981947"/>
      </g>
     </g>
    </g>
    <g id="xtick_21">
     <g id="line2d_23">
      <g>
       <use style="stroke:#000000;stroke-width:0.5;" x="333.538146" xlink:href="#mb6332affbe" y="147.981947"/>
      </g>
     </g>
    </g>
    <g id="xtick_22">
     <g id="line2d_24">
      <g>
       <use style="stroke:#000000;stroke-width:0.5;" x="353.272689" xlink:href="#mb6332affbe" y="147.981947"/>
      </g>
     </g>
    </g>
    <g id="xtick_23">
     <g id="line2d_25">
      <g>
       <use style="stroke:#000000;stroke-width:0.5;" x="373.007232" xlink:href="#mb6332affbe" y="147.981947"/>
      </g>
     </g>
    </g>
    <g id="xtick_24">
     <g id="line2d_26">
      <g>
       <use style="stroke:#000000;stroke-width:0.5;" x="392.741776" xlink:href="#mb6332affbe" y="147.981947"/>
      </g>
     </g>
    </g>
    <g id="xtick_25">
     <g id="line2d_27">
      <g>
       <use style="stroke:#000000;stroke-width:0.5;" x="412.476319" xlink:href="#mb6332affbe" y="147.981947"/>
      </g>
     </g>
    </g>
    <g id="xtick_26">
     <g id="line2d_28">
      <g>
       <use style="stroke:#000000;stroke-width:0.5;" x="432.210862" xlink:href="#mb6332affbe" y="147.981947"/>
      </g>
     </g>
    </g>
    <g id="xtick_27">
     <g id="line2d_29">
      <g>
       <use style="stroke:#000000;stroke-width:0.5;" x="451.945405" xlink:href="#mb6332affbe" y="147.981947"/>
      </g>
     </g>
    </g>
    <g id="xtick_28">
     <g id="line2d_30">
      <g>
       <use style="stroke:#000000;stroke-width:0.5;" x="471.679948" xlink:href="#mb6332affbe" y="147.981947"/>
      </g>
     </g>
    </g>
    <g id="xtick_29">
     <g id="line2d_31">
      <g>
       <use style="stroke:#000000;stroke-width:0.5;" x="491.414491" xlink:href="#mb6332affbe" y="147.981947"/>
      </g>
     </g>
    </g>
    <g id="xtick_30">
     <g id="line2d_32">
      <g>
       <use style="stroke:#000000;stroke-width:0.5;" x="511.149034" xlink:href="#mb6332affbe" y="147.981947"/>
      </g>
     </g>
    </g>
    <g id="xtick_31">
     <g id="line2d_33">
      <g>
       <use style="stroke:#000000;stroke-width:0.5;" x="530.883577" xlink:href="#mb6332affbe" y="147.981947"/>
      </g>
     </g>
    </g>
    <g id="text_6">
     <!-- $t$ -->
     <defs>
      <path d="M 6.203125 8.109375 
Q 6.203125 9.578125 6.5 10.890625 
L 13.71875 39.59375 
L 3.21875 39.59375 
Q 2.203125 39.59375 2.203125 40.921875 
Q 2.59375 43.109375 3.515625 43.109375 
L 14.59375 43.109375 
L 18.609375 59.421875 
Q 19 60.75 20.171875 61.671875 
Q 21.34375 62.59375 22.796875 62.59375 
Q 24.078125 62.59375 24.921875 61.828125 
Q 25.78125 61.078125 25.78125 59.8125 
Q 25.78125 59.515625 25.75 59.34375 
Q 25.734375 59.1875 25.6875 58.984375 
L 21.6875 43.109375 
L 31.984375 43.109375 
Q 33.015625 43.109375 33.015625 41.796875 
Q 32.953125 41.546875 32.8125 40.953125 
Q 32.671875 40.375 32.421875 39.984375 
Q 32.171875 39.59375 31.6875 39.59375 
L 20.796875 39.59375 
L 13.625 10.6875 
Q 12.890625 7.859375 12.890625 5.8125 
Q 12.890625 1.515625 15.828125 1.515625 
Q 20.21875 1.515625 23.609375 5.640625 
Q 27 9.765625 28.8125 14.703125 
Q 29.203125 15.28125 29.59375 15.28125 
L 30.8125 15.28125 
Q 31.203125 15.28125 31.4375 15.015625 
Q 31.6875 14.75 31.6875 14.40625 
Q 31.6875 14.203125 31.59375 14.109375 
Q 29.390625 8.0625 25.1875 3.46875 
Q 21 -1.125 15.578125 -1.125 
Q 11.625 -1.125 8.90625 1.453125 
Q 6.203125 4.046875 6.203125 8.109375 
z
" id="Cmmi10-74"/>
     </defs>
     <g transform="translate(548.750849 147.981947)scale(0.16 -0.16)">
      <use transform="translate(0 0.40625)" xlink:href="#Cmmi10-74"/>
     </g>
    </g>
   </g>
   <g id="matplotlib.axis_2">
    <g id="ytick_1">
     <g id="line2d_34">
      <defs>
       <path d="M 0 0 
L 4 0 
" id="m119463e332" style="stroke:#000000;stroke-width:0.5;"/>
      </defs>
      <g>
       <use style="stroke:#000000;stroke-width:0.5;" x="37.52" xlink:href="#m119463e332" y="260.272281"/>
      </g>
     </g>
     <g id="text_7">
      <!-- -6 -->
      <defs>
       <path d="M 4.890625 31.390625 
L 31.203125 31.390625 
L 31.203125 23.390625 
L 4.890625 23.390625 
z
" id="DejaVuSans-2d"/>
       <path d="M 33.015625 40.375 
Q 26.375 40.375 22.484375 35.828125 
Q 18.609375 31.296875 18.609375 23.390625 
Q 18.609375 15.53125 22.484375 10.953125 
Q 26.375 6.390625 33.015625 6.390625 
Q 39.65625 6.390625 43.53125 10.953125 
Q 47.40625 15.53125 47.40625 23.390625 
Q 47.40625 31.296875 43.53125 35.828125 
Q 39.65625 40.375 33.015625 40.375 
z
M 52.59375 71.296875 
L 52.59375 62.3125 
Q 48.875 64.0625 45.09375 64.984375 
Q 41.3125 65.921875 37.59375 65.921875 
Q 27.828125 65.921875 22.671875 59.328125 
Q 17.53125 52.734375 16.796875 39.40625 
Q 19.671875 43.65625 24.015625 45.921875 
Q 28.375 48.1875 33.59375 48.1875 
Q 44.578125 48.1875 50.953125 41.515625 
Q 57.328125 34.859375 57.328125 23.390625 
Q 57.328125 12.15625 50.6875 5.359375 
Q 44.046875 -1.421875 33.015625 -1.421875 
Q 20.359375 -1.421875 13.671875 8.265625 
Q 6.984375 17.96875 6.984375 36.375 
Q 6.984375 53.65625 15.1875 63.9375 
Q 23.390625 74.21875 37.203125 74.21875 
Q 40.921875 74.21875 44.703125 73.484375 
Q 48.484375 72.75 52.59375 71.296875 
z
" id="DejaVuSans-36"/>
      </defs>
      <g transform="translate(23.549688 263.031656)scale(0.1 -0.1)">
       <use xlink:href="#DejaVuSans-2d"/>
       <use x="36.083984" xlink:href="#DejaVuSans-36"/>
      </g>
     </g>
    </g>
    <g id="ytick_2">
     <g id="line2d_35">
      <g>
       <use style="stroke:#000000;stroke-width:0.5;" x="37.52" xlink:href="#m119463e332" y="222.84217"/>
      </g>
     </g>
     <g id="text_8">
      <!-- -4 -->
      <g transform="translate(23.549688 225.601545)scale(0.1 -0.1)">
       <use xlink:href="#DejaVuSans-2d"/>
       <use x="36.083984" xlink:href="#DejaVuSans-34"/>
      </g>
     </g>
    </g>
    <g id="ytick_3">
     <g id="line2d_36">
      <g>
       <use style="stroke:#000000;stroke-width:0.5;" x="37.52" xlink:href="#m119463e332" y="185.412058"/>
      </g>
     </g>
     <g id="text_9">
      <!-- -2 -->
      <g transform="translate(23.549688 188.171433)scale(0.1 -0.1)">
       <use xlink:href="#DejaVuSans-2d"/>
       <use x="36.083984" xlink:href="#DejaVuSans-32"/>
      </g>
     </g>
    </g>
    <g id="ytick_4">
     <g id="line2d_37">
      <g>
       <use style="stroke:#000000;stroke-width:0.5;" x="37.52" xlink:href="#m119463e332" y="147.981947"/>
      </g>
     </g>
    </g>
    <g id="ytick_5">
     <g id="line2d_38">
      <g>
       <use style="stroke:#000000;stroke-width:0.5;" x="37.52" xlink:href="#m119463e332" y="110.551836"/>
      </g>
     </g>
     <g id="text_10">
      <!-- 2 -->
      <g transform="translate(27.1575 113.311211)scale(0.1 -0.1)">
       <use xlink:href="#DejaVuSans-32"/>
      </g>
     </g>
    </g>
    <g id="ytick_6">
     <g id="line2d_39">
      <g>
       <use style="stroke:#000000;stroke-width:0.5;" x="37.52" xlink:href="#m119463e332" y="73.121725"/>
      </g>
     </g>
     <g id="text_11">
      <!-- 4 -->
      <g transform="translate(27.1575 75.8811)scale(0.1 -0.1)">
       <use xlink:href="#DejaVuSans-34"/>
      </g>
     </g>
    </g>
    <g id="ytick_7">
     <g id="line2d_40">
      <g>
       <use style="stroke:#000000;stroke-width:0.5;" x="37.52" xlink:href="#m119463e332" y="35.691613"/>
      </g>
     </g>
     <g id="text_12">
      <!-- 6 -->
      <g transform="translate(27.1575 38.450988)scale(0.1 -0.1)">
       <use xlink:href="#DejaVuSans-36"/>
      </g>
     </g>
    </g>
    <g id="ytick_8">
     <g id="line2d_41">
      <defs>
       <path d="M 0 0 
L 2 0 
" id="m7f6222508f" style="stroke:#000000;stroke-width:0.5;"/>
      </defs>
      <g>
       <use style="stroke:#000000;stroke-width:0.5;" x="37.52" xlink:href="#m7f6222508f" y="250.914753"/>
      </g>
     </g>
    </g>
    <g id="ytick_9">
     <g id="line2d_42">
      <g>
       <use style="stroke:#000000;stroke-width:0.5;" x="37.52" xlink:href="#m7f6222508f" y="241.557225"/>
      </g>
     </g>
    </g>
    <g id="ytick_10">
     <g id="line2d_43">
      <g>
       <use style="stroke:#000000;stroke-width:0.5;" x="37.52" xlink:href="#m7f6222508f" y="232.199697"/>
      </g>
     </g>
    </g>
    <g id="ytick_11">
     <g id="line2d_44">
      <g>
       <use style="stroke:#000000;stroke-width:0.5;" x="37.52" xlink:href="#m7f6222508f" y="213.484642"/>
      </g>
     </g>
    </g>
    <g id="ytick_12">
     <g id="line2d_45">
      <g>
       <use style="stroke:#000000;stroke-width:0.5;" x="37.52" xlink:href="#m7f6222508f" y="204.127114"/>
      </g>
     </g>
    </g>
    <g id="ytick_13">
     <g id="line2d_46">
      <g>
       <use style="stroke:#000000;stroke-width:0.5;" x="37.52" xlink:href="#m7f6222508f" y="194.769586"/>
      </g>
     </g>
    </g>
    <g id="ytick_14">
     <g id="line2d_47">
      <g>
       <use style="stroke:#000000;stroke-width:0.5;" x="37.52" xlink:href="#m7f6222508f" y="176.054531"/>
      </g>
     </g>
    </g>
    <g id="ytick_15">
     <g id="line2d_48">
      <g>
       <use style="stroke:#000000;stroke-width:0.5;" x="37.52" xlink:href="#m7f6222508f" y="166.697003"/>
      </g>
     </g>
    </g>
    <g id="ytick_16">
     <g id="line2d_49">
      <g>
       <use style="stroke:#000000;stroke-width:0.5;" x="37.52" xlink:href="#m7f6222508f" y="157.339475"/>
      </g>
     </g>
    </g>
    <g id="ytick_17">
     <g id="line2d_50">
      <g>
       <use style="stroke:#000000;stroke-width:0.5;" x="37.52" xlink:href="#m7f6222508f" y="138.624419"/>
      </g>
     </g>
    </g>
    <g id="ytick_18">
     <g id="line2d_51">
      <g>
       <use style="stroke:#000000;stroke-width:0.5;" x="37.52" xlink:href="#m7f6222508f" y="129.266891"/>
      </g>
     </g>
    </g>
    <g id="ytick_19">
     <g id="line2d_52">
      <g>
       <use style="stroke:#000000;stroke-width:0.5;" x="37.52" xlink:href="#m7f6222508f" y="119.909364"/>
      </g>
     </g>
    </g>
    <g id="ytick_20">
     <g id="line2d_53">
      <g>
       <use style="stroke:#000000;stroke-width:0.5;" x="37.52" xlink:href="#m7f6222508f" y="101.194308"/>
      </g>
     </g>
    </g>
    <g id="ytick_21">
     <g id="line2d_54">
      <g>
       <use style="stroke:#000000;stroke-width:0.5;" x="37.52" xlink:href="#m7f6222508f" y="91.83678"/>
      </g>
     </g>
    </g>
    <g id="ytick_22">
     <g id="line2d_55">
      <g>
       <use style="stroke:#000000;stroke-width:0.5;" x="37.52" xlink:href="#m7f6222508f" y="82.479252"/>
      </g>
     </g>
    </g>
    <g id="ytick_23">
     <g id="line2d_56">
      <g>
       <use style="stroke:#000000;stroke-width:0.5;" x="37.52" xlink:href="#m7f6222508f" y="63.764197"/>
      </g>
     </g>
    </g>
    <g id="ytick_24">
     <g id="line2d_57">
      <g>
       <use style="stroke:#000000;stroke-width:0.5;" x="37.52" xlink:href="#m7f6222508f" y="54.406669"/>
      </g>
     </g>
    </g>
    <g id="ytick_25">
     <g id="line2d_58">
      <g>
       <use style="stroke:#000000;stroke-width:0.5;" x="37.52" xlink:href="#m7f6222508f" y="45.049141"/>
      </g>
     </g>
    </g>
    <g id="text_13">
     <!-- $x(t), v(t)$ -->
     <defs>
      <path d="M 7.8125 2.875 
Q 9.578125 1.515625 12.796875 1.515625 
Q 15.921875 1.515625 18.3125 4.515625 
Q 20.703125 7.515625 21.578125 11.078125 
L 26.125 28.8125 
Q 27.203125 33.640625 27.203125 35.40625 
Q 27.203125 37.890625 25.8125 39.75 
Q 24.421875 41.609375 21.921875 41.609375 
Q 18.75 41.609375 15.96875 39.625 
Q 13.1875 37.640625 11.28125 34.59375 
Q 9.375 31.546875 8.59375 28.421875 
Q 8.40625 27.78125 7.8125 27.78125 
L 6.59375 27.78125 
Q 5.8125 27.78125 5.8125 28.71875 
L 5.8125 29 
Q 6.78125 32.71875 9.125 36.25 
Q 11.46875 39.796875 14.859375 41.984375 
Q 18.265625 44.1875 22.125 44.1875 
Q 25.78125 44.1875 28.734375 42.234375 
Q 31.6875 40.28125 32.90625 36.921875 
Q 34.625 39.984375 37.28125 42.078125 
Q 39.9375 44.1875 43.109375 44.1875 
Q 45.265625 44.1875 47.5 43.421875 
Q 49.75 42.671875 51.171875 41.109375 
Q 52.59375 39.546875 52.59375 37.203125 
Q 52.59375 34.671875 50.953125 32.828125 
Q 49.3125 31 46.78125 31 
Q 45.171875 31 44.09375 32.03125 
Q 43.015625 33.0625 43.015625 34.625 
Q 43.015625 36.71875 44.453125 38.296875 
Q 45.90625 39.890625 47.90625 40.1875 
Q 46.09375 41.609375 42.921875 41.609375 
Q 39.703125 41.609375 37.328125 38.625 
Q 34.96875 35.640625 33.984375 31.984375 
L 29.59375 14.3125 
Q 28.515625 10.296875 28.515625 7.71875 
Q 28.515625 5.171875 29.953125 3.34375 
Q 31.390625 1.515625 33.796875 1.515625 
Q 38.484375 1.515625 42.15625 5.640625 
Q 45.84375 9.765625 47.015625 14.703125 
Q 47.21875 15.28125 47.796875 15.28125 
L 49.03125 15.28125 
Q 49.421875 15.28125 49.65625 15.015625 
Q 49.90625 14.75 49.90625 14.40625 
Q 49.90625 14.3125 49.8125 14.109375 
Q 48.390625 8.15625 43.84375 3.515625 
Q 39.3125 -1.125 33.59375 -1.125 
Q 29.9375 -1.125 26.984375 0.84375 
Q 24.03125 2.828125 22.796875 6.203125 
Q 21.234375 3.265625 18.46875 1.0625 
Q 15.71875 -1.125 12.59375 -1.125 
Q 10.453125 -1.125 8.171875 -0.359375 
Q 5.90625 0.390625 4.484375 1.953125 
Q 3.078125 3.515625 3.078125 5.90625 
Q 3.078125 8.25 4.703125 10.171875 
Q 6.34375 12.109375 8.796875 12.109375 
Q 10.453125 12.109375 11.578125 11.109375 
Q 12.703125 10.109375 12.703125 8.5 
Q 12.703125 6.390625 11.296875 4.828125 
Q 9.90625 3.265625 7.8125 2.875 
z
" id="Cmmi10-78"/>
      <path d="M 31 -24.8125 
Q 25.4375 -20.40625 21.40625 -14.71875 
Q 17.390625 -9.03125 14.8125 -2.578125 
Q 12.25 3.859375 10.984375 10.890625 
Q 9.71875 17.921875 9.71875 25 
Q 9.71875 32.171875 10.984375 39.203125 
Q 12.25 46.234375 14.859375 52.734375 
Q 17.484375 59.234375 21.53125 64.890625 
Q 25.59375 70.5625 31 74.8125 
Q 31 75 31.5 75 
L 32.421875 75 
Q 32.71875 75 32.953125 74.734375 
Q 33.203125 74.46875 33.203125 74.125 
Q 33.203125 73.6875 33.015625 73.484375 
Q 28.125 68.703125 24.875 63.234375 
Q 21.625 57.765625 19.640625 51.578125 
Q 17.671875 45.40625 16.796875 38.78125 
Q 15.921875 32.171875 15.921875 25 
Q 15.921875 -6.78125 32.90625 -23.296875 
Q 33.203125 -23.578125 33.203125 -24.125 
Q 33.203125 -24.359375 32.9375 -24.671875 
Q 32.671875 -25 32.421875 -25 
L 31.5 -25 
Q 31 -25 31 -24.8125 
z
" id="Cmr10-28"/>
      <path d="M 6.5 -25 
Q 5.609375 -25 5.609375 -24.125 
Q 5.609375 -23.6875 5.8125 -23.484375 
Q 22.90625 -6.78125 22.90625 25 
Q 22.90625 56.78125 6 73.296875 
Q 5.609375 73.53125 5.609375 74.125 
Q 5.609375 74.46875 5.875 74.734375 
Q 6.15625 75 6.5 75 
L 7.421875 75 
Q 7.71875 75 7.90625 74.8125 
Q 15.09375 69.140625 19.875 61.03125 
Q 24.65625 52.9375 26.875 43.75 
Q 29.109375 34.578125 29.109375 25 
Q 29.109375 17.921875 27.90625 11.0625 
Q 26.703125 4.203125 24.09375 -2.453125 
Q 21.484375 -9.125 17.484375 -14.765625 
Q 13.484375 -20.40625 7.90625 -24.8125 
Q 7.71875 -25 7.421875 -25 
z
" id="Cmr10-29"/>
      <path d="M 9.90625 -18.015625 
Q 9.90625 -17.578125 10.296875 -17.1875 
Q 13.921875 -13.71875 15.921875 -9.171875 
Q 17.921875 -4.640625 17.921875 0.390625 
L 17.921875 1.609375 
Q 16.3125 0 13.921875 0 
Q 11.625 0 10.015625 1.609375 
Q 8.40625 3.21875 8.40625 5.515625 
Q 8.40625 7.859375 10.015625 9.421875 
Q 11.625 10.984375 13.921875 10.984375 
Q 17.484375 10.984375 19 7.6875 
Q 20.515625 4.390625 20.515625 0.390625 
Q 20.515625 -5.171875 18.28125 -10.171875 
Q 16.0625 -15.1875 12.015625 -19.1875 
Q 11.625 -19.390625 11.375 -19.390625 
Q 10.890625 -19.390625 10.390625 -18.9375 
Q 9.90625 -18.5 9.90625 -18.015625 
z
" id="Cmmi10-3b"/>
      <path d="M 10.6875 11.28125 
Q 10.6875 13.53125 11.21875 16.203125 
Q 11.765625 18.890625 12.296875 20.625 
Q 12.84375 22.359375 14.75 27.390625 
Q 16.65625 32.421875 16.703125 32.625 
Q 18.015625 36.28125 18.015625 38.625 
Q 18.015625 41.609375 15.828125 41.609375 
Q 11.859375 41.609375 9.296875 37.53125 
Q 6.734375 33.453125 5.515625 28.421875 
Q 5.328125 27.78125 4.6875 27.78125 
L 3.515625 27.78125 
Q 2.6875 27.78125 2.6875 28.71875 
L 2.6875 29 
Q 4.296875 34.96875 7.609375 39.578125 
Q 10.9375 44.1875 16.015625 44.1875 
Q 19.578125 44.1875 22.046875 41.84375 
Q 24.515625 39.5 24.515625 35.890625 
Q 24.515625 34.03125 23.6875 31.984375 
Q 21.734375 26.90625 20.609375 23.84375 
Q 19.484375 20.796875 18.53125 17.015625 
Q 17.578125 13.234375 17.578125 10.015625 
Q 17.578125 6.25 19.3125 3.875 
Q 21.046875 1.515625 24.703125 1.515625 
Q 31.640625 1.515625 37.203125 12.203125 
Q 38.96875 15.671875 40.53125 20.359375 
Q 42.09375 25.046875 42.09375 27.984375 
Q 42.09375 31 41.109375 32.6875 
Q 40.140625 34.375 38.578125 36.203125 
Q 37.015625 38.03125 37.015625 39.109375 
Q 37.015625 41.0625 38.625 42.671875 
Q 40.234375 44.28125 42.1875 44.28125 
Q 44.578125 44.28125 45.625 42.078125 
Q 46.6875 39.890625 46.6875 37.109375 
Q 46.6875 33.796875 45.734375 29.203125 
Q 44.78125 24.609375 43.09375 19.671875 
Q 41.40625 14.75 39.984375 11.921875 
Q 33.40625 -1.125 24.609375 -1.125 
Q 18.3125 -1.125 14.5 2.015625 
Q 10.6875 5.171875 10.6875 11.28125 
z
" id="Cmmi10-76"/>
     </defs>
     <g transform="translate(7.2 19.2)scale(0.16 -0.16)">
      <use xlink:href="#Cmmi10-78"/>
      <use transform="translate(57.080078 0)" xlink:href="#Cmr10-28"/>
      <use transform="translate(95.898438 0)" xlink:href="#Cmmi10-74"/>
      <use transform="translate(131.982422 0)" xlink:href="#Cmr10-29"/>
      <use transform="translate(170.800781 0)" xlink:href="#Cmmi10-3b"/>
      <use transform="translate(216.044922 0)" xlink:href="#Cmmi10-76"/>
      <use transform="translate(264.433594 0)" xlink:href="#Cmr10-28"/>
      <use transform="translate(303.251953 0)" xlink:href="#Cmmi10-74"/>
      <use transform="translate(339.335938 0)" xlink:href="#Cmr10-29"/>
     </g>
    </g>
   </g>
   <g id="legend_1">
    <g id="patch_5">
     <path d="M 495.230849 78.07625 
L 536.750849 78.07625 
L 536.750849 39.2 
L 495.230849 39.2 
z
" style="fill:#4c4c4c;opacity:0.5;stroke:#4c4c4c;stroke-linejoin:miter;"/>
    </g>
    <g id="patch_6">
     <path d="M 493.230849 76.07625 
L 534.750849 76.07625 
L 534.750849 37.2 
L 493.230849 37.2 
z
" style="fill:#ffffff;stroke:#000000;stroke-linejoin:miter;"/>
    </g>
    <g id="line2d_59">
     <path d="M 504.030849 49.318125 
L 497.430849 49.318125 
" style="fill:none;stroke:#0000ff;stroke-linecap:square;stroke-width:2;"/>
    </g>
    <g id="line2d_60"/>
    <g id="text_14">
     <!-- $x(t)$ -->
     <g transform="translate(507.030849 53.518125)scale(0.12 -0.12)">
      <use xlink:href="#Cmmi10-78"/>
      <use transform="translate(57.080078 0)" xlink:href="#Cmr10-28"/>
      <use transform="translate(95.898438 0)" xlink:href="#Cmmi10-74"/>
      <use transform="translate(131.982422 0)" xlink:href="#Cmr10-29"/>
     </g>
    </g>
    <g id="line2d_61">
     <path d="M 504.030849 61.67625 
L 497.430849 61.67625 
" style="fill:none;stroke:#ff0000;stroke-linecap:square;stroke-width:2;"/>
    </g>
    <g id="line2d_62"/>
    <g id="text_15">
     <!-- $v(t)$ -->
     <g transform="translate(507.030849 65.87625)scale(0.12 -0.12)">
      <use xlink:href="#Cmmi10-76"/>
      <use transform="translate(48.388672 0)" xlink:href="#Cmr10-28"/>
      <use transform="translate(87.207031 0)" xlink:href="#Cmmi10-74"/>
      <use transform="translate(123.291016 0)" xlink:href="#Cmr10-29"/>
     </g>
    </g>
   </g>
  </g>
 </g>
 <defs>
  <clipPath id="p342b8c3dfd">
   <rect height="233.563894" width="513.09812" x="27.652728" y="31.2"/>
  </clipPath>
 </defs>
</svg>
