<?xml version="1.0" encoding="utf-8" standalone="no"?>
<!DOCTYPE svg PUBLIC "-//W3C//DTD SVG 1.1//EN"
  "http://www.w3.org/Graphics/SVG/1.1/DTD/svg11.dtd">
<svg xmlns:xlink="http://www.w3.org/1999/xlink" width="455.932027pt" height="346.359176pt" viewBox="0 0 455.932027 346.359176" xmlns="http://www.w3.org/2000/svg" version="1.1">
 <metadata>
  <rdf:RDF xmlns:dc="http://purl.org/dc/elements/1.1/" xmlns:cc="http://creativecommons.org/ns#" xmlns:rdf="http://www.w3.org/1999/02/22-rdf-syntax-ns#">
   <cc:Work>
    <dc:type rdf:resource="http://purl.org/dc/dcmitype/StillImage"/>
    <dc:date>2022-06-15T19:56:47.554116</dc:date>
    <dc:format>image/svg+xml</dc:format>
    <dc:creator>
     <cc:Agent>
      <dc:title>Matplotlib v3.5.1, https://matplotlib.org/</dc:title>
     </cc:Agent>
    </dc:creator>
   </cc:Work>
  </rdf:RDF>
 </metadata>
 <defs>
  <style type="text/css">*{stroke-linejoin: round; stroke-linecap: butt}</style>
 </defs>
 <g id="figure_1">
  <g id="patch_1">
   <path d="M 0 346.359176 
L 455.932027 346.359176 
L 455.932027 0 
L 0 0 
z
" style="fill: #ffffff"/>
  </g>
  <g id="axes_1">
   <g id="patch_2">
    <path d="M 38.841529 324.55289 
L 433.702027 324.55289 
L 433.702027 34.2 
L 38.841529 34.2 
z
" style="fill: #ffffff"/>
   </g>
   <g id="matplotlib.axis_1">
    <g id="xtick_1">
     <g id="line2d_1">
      <defs>
       <path id="mb6102cf4df" d="M 0 0 
L 0 3.5 
" style="stroke: #000000; stroke-width: 0.8"/>
      </defs>
      <g>
       <use xlink:href="#mb6102cf4df" x="46.435" y="320.545426" style="stroke: #000000; stroke-width: 0.8"/>
      </g>
     </g>
    </g>
    <g id="xtick_2">
     <g id="line2d_2">
      <g>
       <use xlink:href="#mb6102cf4df" x="122.369711" y="320.545426" style="stroke: #000000; stroke-width: 0.8"/>
      </g>
     </g>
     <g id="text_1">
      <!-- 2 -->
      <g transform="translate(118.552211 336.663551)scale(0.12 -0.12)">
       <defs>
        <path id="DejaVuSans-32" d="M 1228 531 
L 3431 531 
L 3431 0 
L 469 0 
L 469 531 
Q 828 903 1448 1529 
Q 2069 2156 2228 2338 
Q 2531 2678 2651 2914 
Q 2772 3150 2772 3378 
Q 2772 3750 2511 3984 
Q 2250 4219 1831 4219 
Q 1534 4219 1204 4116 
Q 875 4013 500 3803 
L 500 4441 
Q 881 4594 1212 4672 
Q 1544 4750 1819 4750 
Q 2544 4750 2975 4387 
Q 3406 4025 3406 3419 
Q 3406 3131 3298 2873 
Q 3191 2616 2906 2266 
Q 2828 2175 2409 1742 
Q 1991 1309 1228 531 
z
" transform="scale(0.015625)"/>
       </defs>
       <use xlink:href="#DejaVuSans-32"/>
      </g>
     </g>
    </g>
    <g id="xtick_3">
     <g id="line2d_3">
      <g>
       <use xlink:href="#mb6102cf4df" x="198.304422" y="320.545426" style="stroke: #000000; stroke-width: 0.8"/>
      </g>
     </g>
     <g id="text_2">
      <!-- 4 -->
      <g transform="translate(194.486922 336.663551)scale(0.12 -0.12)">
       <defs>
        <path id="DejaVuSans-34" d="M 2419 4116 
L 825 1625 
L 2419 1625 
L 2419 4116 
z
M 2253 4666 
L 3047 4666 
L 3047 1625 
L 3713 1625 
L 3713 1100 
L 3047 1100 
L 3047 0 
L 2419 0 
L 2419 1100 
L 313 1100 
L 313 1709 
L 2253 4666 
z
" transform="scale(0.015625)"/>
       </defs>
       <use xlink:href="#DejaVuSans-34"/>
      </g>
     </g>
    </g>
    <g id="xtick_4">
     <g id="line2d_4">
      <g>
       <use xlink:href="#mb6102cf4df" x="274.239134" y="320.545426" style="stroke: #000000; stroke-width: 0.8"/>
      </g>
     </g>
     <g id="text_3">
      <!-- 6 -->
      <g transform="translate(270.421634 336.663551)scale(0.12 -0.12)">
       <defs>
        <path id="DejaVuSans-36" d="M 2113 2584 
Q 1688 2584 1439 2293 
Q 1191 2003 1191 1497 
Q 1191 994 1439 701 
Q 1688 409 2113 409 
Q 2538 409 2786 701 
Q 3034 994 3034 1497 
Q 3034 2003 2786 2293 
Q 2538 2584 2113 2584 
z
M 3366 4563 
L 3366 3988 
Q 3128 4100 2886 4159 
Q 2644 4219 2406 4219 
Q 1781 4219 1451 3797 
Q 1122 3375 1075 2522 
Q 1259 2794 1537 2939 
Q 1816 3084 2150 3084 
Q 2853 3084 3261 2657 
Q 3669 2231 3669 1497 
Q 3669 778 3244 343 
Q 2819 -91 2113 -91 
Q 1303 -91 875 529 
Q 447 1150 447 2328 
Q 447 3434 972 4092 
Q 1497 4750 2381 4750 
Q 2619 4750 2861 4703 
Q 3103 4656 3366 4563 
z
" transform="scale(0.015625)"/>
       </defs>
       <use xlink:href="#DejaVuSans-36"/>
      </g>
     </g>
    </g>
    <g id="xtick_5">
     <g id="line2d_5">
      <g>
       <use xlink:href="#mb6102cf4df" x="350.173845" y="320.545426" style="stroke: #000000; stroke-width: 0.8"/>
      </g>
     </g>
     <g id="text_4">
      <!-- 8 -->
      <g transform="translate(346.356345 336.663551)scale(0.12 -0.12)">
       <defs>
        <path id="DejaVuSans-38" d="M 2034 2216 
Q 1584 2216 1326 1975 
Q 1069 1734 1069 1313 
Q 1069 891 1326 650 
Q 1584 409 2034 409 
Q 2484 409 2743 651 
Q 3003 894 3003 1313 
Q 3003 1734 2745 1975 
Q 2488 2216 2034 2216 
z
M 1403 2484 
Q 997 2584 770 2862 
Q 544 3141 544 3541 
Q 544 4100 942 4425 
Q 1341 4750 2034 4750 
Q 2731 4750 3128 4425 
Q 3525 4100 3525 3541 
Q 3525 3141 3298 2862 
Q 3072 2584 2669 2484 
Q 3125 2378 3379 2068 
Q 3634 1759 3634 1313 
Q 3634 634 3220 271 
Q 2806 -91 2034 -91 
Q 1263 -91 848 271 
Q 434 634 434 1313 
Q 434 1759 690 2068 
Q 947 2378 1403 2484 
z
M 1172 3481 
Q 1172 3119 1398 2916 
Q 1625 2713 2034 2713 
Q 2441 2713 2670 2916 
Q 2900 3119 2900 3481 
Q 2900 3844 2670 4047 
Q 2441 4250 2034 4250 
Q 1625 4250 1398 4047 
Q 1172 3844 1172 3481 
z
" transform="scale(0.015625)"/>
       </defs>
       <use xlink:href="#DejaVuSans-38"/>
      </g>
     </g>
    </g>
    <g id="xtick_6">
     <g id="line2d_6">
      <g>
       <use xlink:href="#mb6102cf4df" x="426.108556" y="320.545426" style="stroke: #000000; stroke-width: 0.8"/>
      </g>
     </g>
     <g id="text_5">
      <!-- 10 -->
      <g transform="translate(418.473556 336.663551)scale(0.12 -0.12)">
       <defs>
        <path id="DejaVuSans-31" d="M 794 531 
L 1825 531 
L 1825 4091 
L 703 3866 
L 703 4441 
L 1819 4666 
L 2450 4666 
L 2450 531 
L 3481 531 
L 3481 0 
L 794 0 
L 794 531 
z
" transform="scale(0.015625)"/>
        <path id="DejaVuSans-30" d="M 2034 4250 
Q 1547 4250 1301 3770 
Q 1056 3291 1056 2328 
Q 1056 1369 1301 889 
Q 1547 409 2034 409 
Q 2525 409 2770 889 
Q 3016 1369 3016 2328 
Q 3016 3291 2770 3770 
Q 2525 4250 2034 4250 
z
M 2034 4750 
Q 2819 4750 3233 4129 
Q 3647 3509 3647 2328 
Q 3647 1150 3233 529 
Q 2819 -91 2034 -91 
Q 1250 -91 836 529 
Q 422 1150 422 2328 
Q 422 3509 836 4129 
Q 1250 4750 2034 4750 
z
" transform="scale(0.015625)"/>
       </defs>
       <use xlink:href="#DejaVuSans-31"/>
       <use xlink:href="#DejaVuSans-30" x="63.623047"/>
      </g>
     </g>
    </g>
    <g id="xtick_7">
     <g id="line2d_7">
      <defs>
       <path id="me0215c2f39" d="M 0 0 
L 0 2 
" style="stroke: #000000; stroke-width: 0.6"/>
      </defs>
      <g>
       <use xlink:href="#me0215c2f39" x="65.418678" y="320.545426" style="stroke: #000000; stroke-width: 0.6"/>
      </g>
     </g>
    </g>
    <g id="xtick_8">
     <g id="line2d_8">
      <g>
       <use xlink:href="#me0215c2f39" x="84.402356" y="320.545426" style="stroke: #000000; stroke-width: 0.6"/>
      </g>
     </g>
    </g>
    <g id="xtick_9">
     <g id="line2d_9">
      <g>
       <use xlink:href="#me0215c2f39" x="103.386033" y="320.545426" style="stroke: #000000; stroke-width: 0.6"/>
      </g>
     </g>
    </g>
    <g id="xtick_10">
     <g id="line2d_10">
      <g>
       <use xlink:href="#me0215c2f39" x="141.353389" y="320.545426" style="stroke: #000000; stroke-width: 0.6"/>
      </g>
     </g>
    </g>
    <g id="xtick_11">
     <g id="line2d_11">
      <g>
       <use xlink:href="#me0215c2f39" x="160.337067" y="320.545426" style="stroke: #000000; stroke-width: 0.6"/>
      </g>
     </g>
    </g>
    <g id="xtick_12">
     <g id="line2d_12">
      <g>
       <use xlink:href="#me0215c2f39" x="179.320745" y="320.545426" style="stroke: #000000; stroke-width: 0.6"/>
      </g>
     </g>
    </g>
    <g id="xtick_13">
     <g id="line2d_13">
      <g>
       <use xlink:href="#me0215c2f39" x="217.2881" y="320.545426" style="stroke: #000000; stroke-width: 0.6"/>
      </g>
     </g>
    </g>
    <g id="xtick_14">
     <g id="line2d_14">
      <g>
       <use xlink:href="#me0215c2f39" x="236.271778" y="320.545426" style="stroke: #000000; stroke-width: 0.6"/>
      </g>
     </g>
    </g>
    <g id="xtick_15">
     <g id="line2d_15">
      <g>
       <use xlink:href="#me0215c2f39" x="255.255456" y="320.545426" style="stroke: #000000; stroke-width: 0.6"/>
      </g>
     </g>
    </g>
    <g id="xtick_16">
     <g id="line2d_16">
      <g>
       <use xlink:href="#me0215c2f39" x="293.222812" y="320.545426" style="stroke: #000000; stroke-width: 0.6"/>
      </g>
     </g>
    </g>
    <g id="xtick_17">
     <g id="line2d_17">
      <g>
       <use xlink:href="#me0215c2f39" x="312.206489" y="320.545426" style="stroke: #000000; stroke-width: 0.6"/>
      </g>
     </g>
    </g>
    <g id="xtick_18">
     <g id="line2d_18">
      <g>
       <use xlink:href="#me0215c2f39" x="331.190167" y="320.545426" style="stroke: #000000; stroke-width: 0.6"/>
      </g>
     </g>
    </g>
    <g id="xtick_19">
     <g id="line2d_19">
      <g>
       <use xlink:href="#me0215c2f39" x="369.157523" y="320.545426" style="stroke: #000000; stroke-width: 0.6"/>
      </g>
     </g>
    </g>
    <g id="xtick_20">
     <g id="line2d_20">
      <g>
       <use xlink:href="#me0215c2f39" x="388.141201" y="320.545426" style="stroke: #000000; stroke-width: 0.6"/>
      </g>
     </g>
    </g>
    <g id="xtick_21">
     <g id="line2d_21">
      <g>
       <use xlink:href="#me0215c2f39" x="407.124878" y="320.545426" style="stroke: #000000; stroke-width: 0.6"/>
      </g>
     </g>
    </g>
    <g id="text_6">
     <!-- $t$ -->
     <g transform="translate(441.702027 320.545426)scale(0.19 -0.19)">
      <defs>
       <path id="Cmmi10-74" d="M 397 519 
Q 397 613 416 697 
L 878 2534 
L 206 2534 
Q 141 2534 141 2619 
Q 166 2759 225 2759 
L 934 2759 
L 1191 3803 
Q 1216 3888 1291 3947 
Q 1366 4006 1459 4006 
Q 1541 4006 1595 3957 
Q 1650 3909 1650 3828 
Q 1650 3809 1648 3798 
Q 1647 3788 1644 3775 
L 1388 2759 
L 2047 2759 
Q 2113 2759 2113 2675 
Q 2109 2659 2100 2621 
Q 2091 2584 2075 2559 
Q 2059 2534 2028 2534 
L 1331 2534 
L 872 684 
Q 825 503 825 372 
Q 825 97 1013 97 
Q 1294 97 1511 361 
Q 1728 625 1844 941 
Q 1869 978 1894 978 
L 1972 978 
Q 1997 978 2012 961 
Q 2028 944 2028 922 
Q 2028 909 2022 903 
Q 1881 516 1612 222 
Q 1344 -72 997 -72 
Q 744 -72 570 93 
Q 397 259 397 519 
z
" transform="scale(0.015625)"/>
      </defs>
      <use xlink:href="#Cmmi10-74" transform="translate(0 0.40625)"/>
     </g>
    </g>
   </g>
   <g id="matplotlib.axis_2">
    <g id="ytick_1">
     <g id="line2d_22">
      <defs>
       <path id="m81d90a0636" d="M 0 0 
L -3.5 0 
" style="stroke: #000000; stroke-width: 0.8"/>
      </defs>
      <g>
       <use xlink:href="#m81d90a0636" x="46.435" y="320.545426" style="stroke: #000000; stroke-width: 0.8"/>
      </g>
     </g>
    </g>
    <g id="ytick_2">
     <g id="line2d_23">
      <g>
       <use xlink:href="#m81d90a0636" x="46.435" y="282.832883" style="stroke: #000000; stroke-width: 0.8"/>
      </g>
     </g>
     <g id="text_7">
      <!-- 2 -->
      <g transform="translate(31.8 287.391945)scale(0.12 -0.12)">
       <use xlink:href="#DejaVuSans-32"/>
      </g>
     </g>
    </g>
    <g id="ytick_3">
     <g id="line2d_24">
      <g>
       <use xlink:href="#m81d90a0636" x="46.435" y="245.120339" style="stroke: #000000; stroke-width: 0.8"/>
      </g>
     </g>
     <g id="text_8">
      <!-- 4 -->
      <g transform="translate(31.8 249.679402)scale(0.12 -0.12)">
       <use xlink:href="#DejaVuSans-34"/>
      </g>
     </g>
    </g>
    <g id="ytick_4">
     <g id="line2d_25">
      <g>
       <use xlink:href="#m81d90a0636" x="46.435" y="207.407795" style="stroke: #000000; stroke-width: 0.8"/>
      </g>
     </g>
     <g id="text_9">
      <!-- 6 -->
      <g transform="translate(31.8 211.966858)scale(0.12 -0.12)">
       <use xlink:href="#DejaVuSans-36"/>
      </g>
     </g>
    </g>
    <g id="ytick_5">
     <g id="line2d_26">
      <g>
       <use xlink:href="#m81d90a0636" x="46.435" y="169.695252" style="stroke: #000000; stroke-width: 0.8"/>
      </g>
     </g>
     <g id="text_10">
      <!-- 8 -->
      <g transform="translate(31.8 174.254314)scale(0.12 -0.12)">
       <use xlink:href="#DejaVuSans-38"/>
      </g>
     </g>
    </g>
    <g id="ytick_6">
     <g id="line2d_27">
      <g>
       <use xlink:href="#m81d90a0636" x="46.435" y="131.982708" style="stroke: #000000; stroke-width: 0.8"/>
      </g>
     </g>
     <g id="text_11">
      <!-- 10 -->
      <g transform="translate(24.165 136.541771)scale(0.12 -0.12)">
       <use xlink:href="#DejaVuSans-31"/>
       <use xlink:href="#DejaVuSans-30" x="63.623047"/>
      </g>
     </g>
    </g>
    <g id="ytick_7">
     <g id="line2d_28">
      <g>
       <use xlink:href="#m81d90a0636" x="46.435" y="94.270165" style="stroke: #000000; stroke-width: 0.8"/>
      </g>
     </g>
     <g id="text_12">
      <!-- 12 -->
      <g transform="translate(24.165 98.829227)scale(0.12 -0.12)">
       <use xlink:href="#DejaVuSans-31"/>
       <use xlink:href="#DejaVuSans-32" x="63.623047"/>
      </g>
     </g>
    </g>
    <g id="ytick_8">
     <g id="line2d_29">
      <g>
       <use xlink:href="#m81d90a0636" x="46.435" y="56.557621" style="stroke: #000000; stroke-width: 0.8"/>
      </g>
     </g>
     <g id="text_13">
      <!-- 14 -->
      <g transform="translate(24.165 61.116684)scale(0.12 -0.12)">
       <use xlink:href="#DejaVuSans-31"/>
       <use xlink:href="#DejaVuSans-34" x="63.623047"/>
      </g>
     </g>
    </g>
    <g id="ytick_9">
     <g id="line2d_30">
      <defs>
       <path id="mb2fec92286" d="M 0 0 
L -2 0 
" style="stroke: #000000; stroke-width: 0.6"/>
      </defs>
      <g>
       <use xlink:href="#mb2fec92286" x="46.435" y="311.11729" style="stroke: #000000; stroke-width: 0.6"/>
      </g>
     </g>
    </g>
    <g id="ytick_10">
     <g id="line2d_31">
      <g>
       <use xlink:href="#mb2fec92286" x="46.435" y="301.689154" style="stroke: #000000; stroke-width: 0.6"/>
      </g>
     </g>
    </g>
    <g id="ytick_11">
     <g id="line2d_32">
      <g>
       <use xlink:href="#mb2fec92286" x="46.435" y="292.261018" style="stroke: #000000; stroke-width: 0.6"/>
      </g>
     </g>
    </g>
    <g id="ytick_12">
     <g id="line2d_33">
      <g>
       <use xlink:href="#mb2fec92286" x="46.435" y="273.404747" style="stroke: #000000; stroke-width: 0.6"/>
      </g>
     </g>
    </g>
    <g id="ytick_13">
     <g id="line2d_34">
      <g>
       <use xlink:href="#mb2fec92286" x="46.435" y="263.976611" style="stroke: #000000; stroke-width: 0.6"/>
      </g>
     </g>
    </g>
    <g id="ytick_14">
     <g id="line2d_35">
      <g>
       <use xlink:href="#mb2fec92286" x="46.435" y="254.548475" style="stroke: #000000; stroke-width: 0.6"/>
      </g>
     </g>
    </g>
    <g id="ytick_15">
     <g id="line2d_36">
      <g>
       <use xlink:href="#mb2fec92286" x="46.435" y="235.692203" style="stroke: #000000; stroke-width: 0.6"/>
      </g>
     </g>
    </g>
    <g id="ytick_16">
     <g id="line2d_37">
      <g>
       <use xlink:href="#mb2fec92286" x="46.435" y="226.264067" style="stroke: #000000; stroke-width: 0.6"/>
      </g>
     </g>
    </g>
    <g id="ytick_17">
     <g id="line2d_38">
      <g>
       <use xlink:href="#mb2fec92286" x="46.435" y="216.835931" style="stroke: #000000; stroke-width: 0.6"/>
      </g>
     </g>
    </g>
    <g id="ytick_18">
     <g id="line2d_39">
      <g>
       <use xlink:href="#mb2fec92286" x="46.435" y="197.97966" style="stroke: #000000; stroke-width: 0.6"/>
      </g>
     </g>
    </g>
    <g id="ytick_19">
     <g id="line2d_40">
      <g>
       <use xlink:href="#mb2fec92286" x="46.435" y="188.551524" style="stroke: #000000; stroke-width: 0.6"/>
      </g>
     </g>
    </g>
    <g id="ytick_20">
     <g id="line2d_41">
      <g>
       <use xlink:href="#mb2fec92286" x="46.435" y="179.123388" style="stroke: #000000; stroke-width: 0.6"/>
      </g>
     </g>
    </g>
    <g id="ytick_21">
     <g id="line2d_42">
      <g>
       <use xlink:href="#mb2fec92286" x="46.435" y="160.267116" style="stroke: #000000; stroke-width: 0.6"/>
      </g>
     </g>
    </g>
    <g id="ytick_22">
     <g id="line2d_43">
      <g>
       <use xlink:href="#mb2fec92286" x="46.435" y="150.83898" style="stroke: #000000; stroke-width: 0.6"/>
      </g>
     </g>
    </g>
    <g id="ytick_23">
     <g id="line2d_44">
      <g>
       <use xlink:href="#mb2fec92286" x="46.435" y="141.410844" style="stroke: #000000; stroke-width: 0.6"/>
      </g>
     </g>
    </g>
    <g id="ytick_24">
     <g id="line2d_45">
      <g>
       <use xlink:href="#mb2fec92286" x="46.435" y="122.554572" style="stroke: #000000; stroke-width: 0.6"/>
      </g>
     </g>
    </g>
    <g id="ytick_25">
     <g id="line2d_46">
      <g>
       <use xlink:href="#mb2fec92286" x="46.435" y="113.126437" style="stroke: #000000; stroke-width: 0.6"/>
      </g>
     </g>
    </g>
    <g id="ytick_26">
     <g id="line2d_47">
      <g>
       <use xlink:href="#mb2fec92286" x="46.435" y="103.698301" style="stroke: #000000; stroke-width: 0.6"/>
      </g>
     </g>
    </g>
    <g id="ytick_27">
     <g id="line2d_48">
      <g>
       <use xlink:href="#mb2fec92286" x="46.435" y="84.842029" style="stroke: #000000; stroke-width: 0.6"/>
      </g>
     </g>
    </g>
    <g id="ytick_28">
     <g id="line2d_49">
      <g>
       <use xlink:href="#mb2fec92286" x="46.435" y="75.413893" style="stroke: #000000; stroke-width: 0.6"/>
      </g>
     </g>
    </g>
    <g id="ytick_29">
     <g id="line2d_50">
      <g>
       <use xlink:href="#mb2fec92286" x="46.435" y="65.985757" style="stroke: #000000; stroke-width: 0.6"/>
      </g>
     </g>
    </g>
    <g id="ytick_30">
     <g id="line2d_51">
      <g>
       <use xlink:href="#mb2fec92286" x="46.435" y="47.129485" style="stroke: #000000; stroke-width: 0.6"/>
      </g>
     </g>
    </g>
    <g id="ytick_31">
     <g id="line2d_52">
      <g>
       <use xlink:href="#mb2fec92286" x="46.435" y="37.70135" style="stroke: #000000; stroke-width: 0.6"/>
      </g>
     </g>
    </g>
    <g id="text_14">
     <!-- $R(t), F(t)$ -->
     <g transform="translate(7.2 21.45)scale(0.19 -0.19)">
      <defs>
       <path id="Cmmi10-52" d="M 313 0 
Q 250 0 250 84 
Q 253 100 262 139 
Q 272 178 289 201 
Q 306 225 331 225 
Q 722 225 878 269 
Q 959 297 997 441 
L 1875 3956 
Q 1888 4019 1888 4044 
Q 1888 4113 1813 4122 
Q 1691 4147 1350 4147 
Q 1288 4147 1288 4231 
Q 1291 4247 1300 4286 
Q 1309 4325 1326 4348 
Q 1344 4372 1369 4372 
L 3309 4372 
Q 3541 4372 3791 4319 
Q 4041 4266 4250 4152 
Q 4459 4038 4593 3848 
Q 4728 3659 4728 3406 
Q 4728 3084 4515 2831 
Q 4303 2578 3978 2408 
Q 3653 2238 3347 2169 
Q 3597 2078 3756 1879 
Q 3916 1681 3916 1422 
Q 3916 1388 3914 1370 
Q 3913 1353 3909 1331 
L 3859 763 
Q 3853 638 3847 550 
Q 3841 463 3841 409 
Q 3841 234 3892 129 
Q 3944 25 4097 25 
Q 4297 25 4448 211 
Q 4600 397 4647 616 
Q 4675 672 4709 672 
L 4769 672 
Q 4831 672 4831 588 
Q 4784 403 4682 237 
Q 4581 72 4426 -34 
Q 4272 -141 4091 -141 
Q 3716 -141 3452 26 
Q 3188 194 3188 550 
Q 3188 684 3213 788 
L 3353 1356 
Q 3378 1434 3378 1538 
Q 3378 1803 3198 1954 
Q 3019 2106 2747 2106 
L 1959 2106 
L 1538 416 
Q 1522 363 1522 325 
Q 1522 259 1600 250 
Q 1722 225 2059 225 
Q 2125 225 2125 141 
Q 2103 50 2090 25 
Q 2078 0 2016 0 
L 313 0 
z
M 1997 2272 
L 2706 2272 
Q 3403 2272 3756 2625 
Q 3919 2788 4014 3039 
Q 4109 3291 4109 3541 
Q 4109 3778 3970 3912 
Q 3831 4047 3626 4097 
Q 3422 4147 3175 4147 
L 2747 4147 
Q 2572 4147 2515 4117 
Q 2459 4088 2413 3928 
L 1997 2272 
z
" transform="scale(0.015625)"/>
       <path id="Cmr10-28" d="M 1984 -1588 
Q 1628 -1306 1370 -942 
Q 1113 -578 948 -165 
Q 784 247 703 697 
Q 622 1147 622 1600 
Q 622 2059 703 2509 
Q 784 2959 951 3375 
Q 1119 3791 1378 4153 
Q 1638 4516 1984 4788 
Q 1984 4800 2016 4800 
L 2075 4800 
Q 2094 4800 2109 4783 
Q 2125 4766 2125 4744 
Q 2125 4716 2113 4703 
Q 1800 4397 1592 4047 
Q 1384 3697 1257 3301 
Q 1131 2906 1075 2482 
Q 1019 2059 1019 1600 
Q 1019 -434 2106 -1491 
Q 2125 -1509 2125 -1544 
Q 2125 -1559 2108 -1579 
Q 2091 -1600 2075 -1600 
L 2016 -1600 
Q 1984 -1600 1984 -1588 
z
" transform="scale(0.015625)"/>
       <path id="Cmr10-29" d="M 416 -1600 
Q 359 -1600 359 -1544 
Q 359 -1516 372 -1503 
Q 1466 -434 1466 1600 
Q 1466 3634 384 4691 
Q 359 4706 359 4744 
Q 359 4766 376 4783 
Q 394 4800 416 4800 
L 475 4800 
Q 494 4800 506 4788 
Q 966 4425 1272 3906 
Q 1578 3388 1720 2800 
Q 1863 2213 1863 1600 
Q 1863 1147 1786 708 
Q 1709 269 1542 -157 
Q 1375 -584 1119 -945 
Q 863 -1306 506 -1588 
Q 494 -1600 475 -1600 
L 416 -1600 
z
" transform="scale(0.015625)"/>
       <path id="Cmmi10-3b" d="M 634 -1153 
Q 634 -1125 659 -1100 
Q 891 -878 1019 -587 
Q 1147 -297 1147 25 
L 1147 103 
Q 1044 0 891 0 
Q 744 0 641 103 
Q 538 206 538 353 
Q 538 503 641 603 
Q 744 703 891 703 
Q 1119 703 1216 492 
Q 1313 281 1313 25 
Q 1313 -331 1170 -651 
Q 1028 -972 769 -1228 
Q 744 -1241 728 -1241 
Q 697 -1241 665 -1212 
Q 634 -1184 634 -1153 
z
" transform="scale(0.015625)"/>
       <path id="Cmmi10-46" d="M 300 0 
Q 238 0 238 84 
Q 241 100 250 139 
Q 259 178 276 201 
Q 294 225 319 225 
Q 709 225 863 269 
Q 947 297 984 441 
L 1863 3956 
Q 1875 4019 1875 4044 
Q 1875 4113 1797 4122 
Q 1678 4147 1338 4147 
Q 1275 4147 1275 4231 
Q 1278 4247 1287 4286 
Q 1297 4325 1314 4348 
Q 1331 4372 1356 4372 
L 4738 4372 
Q 4800 4372 4800 4288 
L 4647 2963 
Q 4647 2944 4625 2925 
Q 4603 2906 4581 2906 
L 4525 2906 
Q 4459 2906 4459 2988 
Q 4500 3278 4500 3463 
Q 4500 3781 4362 3931 
Q 4225 4081 4015 4114 
Q 3806 4147 3438 4147 
L 2753 4147 
Q 2578 4147 2522 4117 
Q 2466 4088 2419 3928 
L 2009 2297 
L 2491 2297 
Q 2728 2297 2875 2322 
Q 3022 2347 3119 2419 
Q 3216 2491 3280 2627 
Q 3344 2763 3397 2988 
Q 3416 3047 3463 3047 
L 3519 3047 
Q 3584 3047 3584 2963 
L 3194 1381 
Q 3166 1325 3128 1325 
L 3072 1325 
Q 3009 1325 3009 1409 
Q 3025 1475 3034 1519 
Q 3044 1563 3058 1645 
Q 3072 1728 3072 1791 
Q 3072 1975 2909 2025 
Q 2747 2075 2484 2075 
L 1959 2075 
L 1544 416 
Q 1528 353 1528 353 
Q 1528 278 1575 269 
Q 1741 225 2228 225 
Q 2291 225 2291 141 
Q 2269 50 2256 25 
Q 2244 0 2181 0 
L 300 0 
z
" transform="scale(0.015625)"/>
      </defs>
      <use xlink:href="#Cmmi10-52"/>
      <use xlink:href="#Cmr10-28" transform="translate(75.878906 0)"/>
      <use xlink:href="#Cmmi10-74" transform="translate(114.697266 0)"/>
      <use xlink:href="#Cmr10-29" transform="translate(150.78125 0)"/>
      <use xlink:href="#Cmmi10-3b" transform="translate(189.599609 0)"/>
      <use xlink:href="#Cmmi10-46" transform="translate(234.84375 0)"/>
      <use xlink:href="#Cmr10-28" transform="translate(299.150391 0)"/>
      <use xlink:href="#Cmmi10-74" transform="translate(337.96875 0)"/>
      <use xlink:href="#Cmr10-29" transform="translate(374.052734 0)"/>
     </g>
    </g>
   </g>
   <g id="line2d_53">
    <path d="M 46.435 301.689154 
L 48.333368 300.629709 
L 50.231736 299.339376 
L 52.130103 297.816896 
L 54.408145 295.673858 
L 56.686186 293.167007 
L 58.964227 290.268618 
L 61.242269 286.94363 
L 63.52031 283.149848 
L 65.798351 278.837845 
L 68.076393 273.95066 
L 70.354434 268.423363 
L 72.252802 263.275605 
L 74.15117 257.585226 
L 76.049537 251.30037 
L 77.947905 244.364426 
L 79.846273 236.715939 
L 82.124314 226.503642 
L 84.402356 215.04703 
L 86.680397 202.216705 
L 88.958438 187.881689 
L 91.23648 171.920029 
L 93.514521 154.240159 
L 95.792562 134.8241 
L 98.450277 110.186953 
L 103.765707 59.567679 
L 104.904728 50.654823 
L 105.664075 45.797844 
L 106.423422 42.157891 
L 106.803095 40.905311 
L 107.182769 40.09671 
L 107.562443 39.784667 
L 107.942116 40.023457 
L 108.32179 40.867887 
L 108.701463 42.371761 
L 109.081137 44.585962 
L 109.840484 51.320053 
L 110.599831 61.323537 
L 111.359178 74.632462 
L 112.498199 100.141446 
L 114.396567 151.299682 
L 116.294934 200.490317 
L 117.433955 224.656645 
L 118.572976 244.028042 
L 119.711996 259.009067 
L 120.851017 270.36151 
L 121.990038 278.885943 
L 123.129058 285.274779 
L 124.268079 290.073343 
L 125.4071 293.690721 
L 126.54612 296.426379 
L 127.685141 298.497257 
L 128.824162 300.060187 
L 129.963182 301.228871 
L 131.102203 302.086195 
L 132.241224 302.692992 
L 133.380244 303.094218 
L 134.898939 303.365923 
L 136.417633 303.387515 
L 137.936327 303.197676 
L 139.834695 302.702059 
L 141.733063 301.948846 
L 143.63143 300.956036 
L 145.529798 299.731527 
L 147.428166 298.275829 
L 149.706207 296.21617 
L 151.984249 293.798163 
L 154.26229 290.995897 
L 156.540331 287.776029 
L 158.818373 284.098061 
L 161.096414 279.914308 
L 163.374455 275.169638 
L 165.652497 269.801065 
L 167.930538 263.737236 
L 169.828906 258.095315 
L 171.727274 251.863544 
L 173.625641 244.985726 
L 175.524009 237.400819 
L 177.80205 227.272579 
L 180.080092 215.909045 
L 182.358133 203.181172 
L 184.636174 188.957832 
L 186.914216 173.115889 
L 189.192257 155.560529 
L 191.470298 136.266316 
L 194.128013 111.745508 
L 199.823117 57.751558 
L 200.962137 49.161414 
L 201.721484 44.61853 
L 202.480832 41.390526 
L 202.860505 40.385409 
L 203.240179 39.854062 
L 203.619852 39.850154 
L 203.999526 40.428431 
L 204.379199 41.643338 
L 204.758873 43.547271 
L 205.51822 49.608286 
L 206.277567 58.899652 
L 207.036914 71.511332 
L 208.175935 96.150464 
L 209.694629 136.251265 
L 211.972671 196.65866 
L 213.111691 221.500465 
L 214.250712 241.545673 
L 215.389733 257.111018 
L 216.528753 268.931284 
L 217.667774 277.813902 
L 218.806795 284.470891 
L 219.945815 289.468602 
L 221.084836 293.234085 
L 222.223857 296.080723 
L 223.362877 298.235742 
L 224.501898 299.863398 
L 225.640919 301.082699 
L 226.779939 301.980326 
L 227.91896 302.619832 
L 229.057981 303.048138 
L 230.576675 303.349614 
L 232.095369 303.39588 
L 233.614063 303.227251 
L 235.512431 302.754968 
L 237.410799 302.022952 
L 239.309167 301.050241 
L 241.207534 299.845474 
L 243.105902 298.409717 
L 245.383943 296.374864 
L 247.661985 293.983212 
L 249.940026 291.209405 
L 252.218067 288.020614 
L 254.496109 284.376851 
L 256.77415 280.230952 
L 259.052191 275.528327 
L 261.330233 270.206566 
L 263.608274 264.194935 
L 265.506642 258.601096 
L 267.40501 252.422001 
L 269.303377 245.601862 
L 271.201745 238.080054 
L 273.479787 228.035251 
L 275.757828 216.764137 
L 278.035869 204.13805 
L 280.313911 190.025754 
L 282.591952 174.303034 
L 284.869993 156.872025 
L 287.148035 137.700248 
L 289.80575 113.298601 
L 295.880526 55.985209 
L 297.019547 47.748767 
L 297.778894 43.546292 
L 298.538241 40.761055 
L 298.917915 40.020259 
L 299.297588 39.783709 
L 299.677262 40.105838 
L 300.056936 41.04141 
L 300.436609 42.643941 
L 300.816283 44.963712 
L 301.57563 51.925451 
L 302.334977 62.167443 
L 303.094324 75.706898 
L 304.233345 101.496669 
L 306.131712 152.802339 
L 307.650407 192.738823 
L 308.789427 218.244807 
L 309.928448 238.971185 
L 311.067469 255.136435 
L 312.206489 267.441274 
L 313.34551 276.696681 
L 314.484531 283.633367 
L 315.623551 288.838896 
L 316.762572 292.758832 
L 317.901593 295.721051 
L 319.040613 297.963536 
L 320.179634 299.658325 
L 321.318655 300.929999 
L 322.457675 301.869217 
L 323.596696 302.542382 
L 324.735717 302.998475 
L 326.254411 303.330395 
L 327.773105 303.401792 
L 329.291799 303.254683 
L 331.190167 302.805981 
L 333.088535 302.0953 
L 334.986903 301.142751 
L 336.885271 299.957734 
L 338.783638 298.541882 
L 341.06168 296.531749 
L 343.339721 294.166324 
L 345.617762 291.420808 
L 347.895804 288.262891 
L 350.173845 284.653095 
L 352.451886 280.544772 
L 354.729928 275.883875 
L 357.007969 270.60857 
L 359.28601 264.648732 
L 361.184378 259.102602 
L 363.082746 252.975775 
L 364.981114 246.212872 
L 366.879481 238.753687 
L 369.157523 228.791703 
L 371.435564 217.612356 
L 373.713605 205.087384 
L 375.991647 191.085496 
L 378.269688 175.481489 
L 380.547729 158.174639 
L 382.825771 139.125814 
L 385.483486 114.845951 
L 391.937936 54.273794 
L 393.076957 46.423921 
L 393.836304 42.58949 
L 394.215977 41.219542 
L 394.595651 40.279006 
L 394.975325 39.819813 
L 395.354998 39.895856 
L 395.734672 40.56193 
L 396.114345 41.872306 
L 396.494019 43.878919 
L 397.253366 50.163344 
L 398.012713 59.692224 
L 398.77206 72.537932 
L 399.911081 97.472418 
L 401.429775 137.757927 
L 403.707816 197.948596 
L 404.846837 222.565858 
L 405.985858 242.385077 
L 407.124878 257.753473 
L 408.263899 269.415609 
L 409.40292 278.17697 
L 410.54194 284.74312 
L 411.680961 289.673359 
L 412.819982 293.388674 
L 413.959002 296.197737 
L 415.098023 298.324286 
L 416.237044 299.930057 
L 417.376064 301.132258 
L 418.515085 302.016281 
L 419.654106 302.644757 
L 420.793126 303.063939 
L 422.311821 303.355396 
L 423.830515 303.39337 
L 425.349209 303.217622 
L 426.108556 303.058404 
L 426.108556 303.058404 
" clip-path="url(#p9157bdf883)" style="fill: none; stroke: #ff0000; stroke-width: 2; stroke-linecap: square"/>
   </g>
   <g id="line2d_54">
    <path d="M 46.435 301.689154 
L 47.953694 304.46346 
L 49.472388 306.803282 
L 50.991083 308.776472 
L 52.509777 310.440663 
L 54.408145 312.159935 
L 56.306512 313.55088 
L 58.20488 314.67704 
L 60.482922 315.750096 
L 62.760963 316.584294 
L 65.418678 317.325757 
L 68.456066 317.942947 
L 72.252802 318.463445 
L 76.429211 318.803807 
L 80.985294 318.961896 
L 85.541376 318.905037 
L 89.338112 318.634031 
L 91.995827 318.241691 
L 94.273868 317.675808 
L 95.792562 317.110182 
L 97.311257 316.313613 
L 98.450277 315.498977 
L 99.589298 314.42202 
L 100.728319 312.982689 
L 101.867339 311.0381 
L 102.626686 309.363527 
L 103.386033 307.295349 
L 104.145381 304.733153 
L 104.904728 301.552685 
L 105.664075 297.603032 
L 106.423422 292.706039 
L 107.182769 286.660341 
L 107.942116 279.253468 
L 109.081137 265.168617 
L 110.220157 247.201002 
L 111.738852 217.963938 
L 114.016893 172.239685 
L 114.77624 159.963398 
L 115.535587 150.433614 
L 116.294934 144.013161 
L 116.674608 141.994613 
L 117.054281 140.748448 
L 117.433955 140.240158 
L 117.813629 140.424455 
L 118.193302 141.248268 
L 118.572976 142.653523 
L 119.332323 146.965386 
L 120.09167 152.878581 
L 121.230691 163.790914 
L 123.508732 188.805629 
L 126.166447 217.246946 
L 128.064815 235.019627 
L 129.583509 247.408361 
L 131.102203 258.200363 
L 132.620897 267.509696 
L 134.139591 275.484647 
L 135.658286 282.282659 
L 137.17698 288.0567 
L 138.695674 292.948361 
L 140.214368 297.084886 
L 141.733063 300.578422 
L 143.251757 303.526495 
L 144.770451 306.013109 
L 146.289145 308.110107 
L 147.80784 309.878611 
L 149.706207 311.705409 
L 151.604575 313.183055 
L 153.502943 314.37915 
L 155.780984 315.5186 
L 158.059026 316.404303 
L 160.71674 317.191677 
L 163.754129 317.847729 
L 167.171191 318.358166 
L 171.3476 318.746099 
L 175.903683 318.946472 
L 180.459765 318.936207 
L 184.256501 318.724979 
L 187.293889 318.340703 
L 189.571931 317.836445 
L 191.470298 317.180264 
L 192.988993 316.412935 
L 194.128013 315.629459 
L 195.267034 314.595273 
L 196.406055 313.215267 
L 197.545075 311.353657 
L 198.304422 309.752352 
L 199.06377 307.776193 
L 199.823117 305.329414 
L 200.582464 302.29315 
L 201.341811 298.522349 
L 202.101158 293.844558 
L 202.860505 288.062702 
L 203.619852 280.965117 
L 204.379199 272.34699 
L 205.51822 256.24135 
L 206.657241 236.312051 
L 208.555609 197.637786 
L 210.074303 168.484751 
L 210.83365 156.937546 
L 211.592997 148.273646 
L 212.352344 142.763237 
L 212.732018 141.189657 
L 213.111691 140.370235 
L 213.491365 140.263928 
L 213.871038 140.820641 
L 214.250712 141.984122 
L 215.010059 145.890849 
L 215.769406 151.500279 
L 216.908427 162.123475 
L 218.806795 182.730341 
L 221.844183 215.611314 
L 223.742551 233.595489 
L 225.261245 246.159306 
L 226.779939 257.1178 
L 228.298633 266.579188 
L 229.817328 274.689546 
L 231.336022 281.606145 
L 232.854716 287.482852 
L 234.37341 292.462671 
L 235.892105 296.674446 
L 237.410799 300.231935 
L 238.929493 303.234186 
L 240.448187 305.766586 
L 241.966881 307.902214 
L 243.485576 309.703271 
L 245.383943 311.563629 
L 247.282311 313.068336 
L 249.180679 314.286256 
L 251.45872 315.446419 
L 253.736762 316.348183 
L 256.394477 317.149861 
L 259.431865 317.818 
L 262.848927 318.3383 
L 267.025336 318.734958 
L 271.581419 318.942882 
L 276.137502 318.940569 
L 279.934237 318.739113 
L 282.971626 318.368257 
L 285.249667 317.881088 
L 287.148035 317.247841 
L 288.666729 316.508543 
L 289.80575 315.754878 
L 290.94477 314.761546 
L 292.083791 313.438127 
L 293.222812 311.655584 
L 293.982159 310.124062 
L 294.741506 308.235544 
L 295.500853 305.898745 
L 296.2602 303.000038 
L 297.019547 299.400176 
L 297.778894 294.932518 
L 298.538241 289.404724 
L 299.297588 282.606909 
L 300.056936 274.330261 
L 301.195956 258.782419 
L 302.334977 239.370825 
L 303.853671 208.946635 
L 305.752039 171.28245 
L 306.511386 159.183832 
L 307.270733 149.868411 
L 308.03008 143.675822 
L 308.409754 141.769463 
L 308.789427 140.631324 
L 309.169101 140.225169 
L 309.548774 140.504414 
L 309.928448 141.415106 
L 310.308122 142.898668 
L 311.067469 147.340934 
L 311.826816 153.351025 
L 312.965836 164.35425 
L 315.243878 189.413094 
L 317.901593 217.789694 
L 319.79996 235.491261 
L 321.318655 247.8216 
L 322.837349 258.558271 
L 324.356043 267.817184 
L 325.874737 275.747297 
L 327.393432 282.50608 
L 328.912126 288.246181 
L 330.43082 293.108713 
L 331.949514 297.220382 
L 333.468208 300.692799 
L 334.986903 303.622986 
L 336.505597 306.094485 
L 338.024291 308.178732 
L 339.542985 309.936492 
L 341.441353 311.752213 
L 343.339721 313.220929 
L 345.238089 314.40982 
L 347.51613 315.542432 
L 349.794171 316.422833 
L 352.451886 317.205484 
L 355.489275 317.857542 
L 358.906337 318.364717 
L 363.082746 318.749758 
L 367.638829 318.947617 
L 372.194911 318.934679 
L 375.991647 318.720139 
L 379.029035 318.331289 
L 381.307077 317.821186 
L 383.205444 317.157141 
L 384.724139 316.380182 
L 385.863159 315.586452 
L 387.00218 314.538197 
L 388.141201 313.138686 
L 389.280221 311.249803 
L 390.039568 309.62442 
L 390.798915 307.61802 
L 391.558263 305.133305 
L 392.31761 302.049622 
L 393.076957 298.219971 
L 393.836304 293.469975 
L 394.595651 287.601074 
L 395.354998 280.401219 
L 396.114345 271.667297 
L 397.253366 255.374743 
L 398.392387 235.276346 
L 402.189122 161.559099 
L 402.948469 151.607731 
L 403.707816 144.733863 
L 404.08749 142.490479 
L 404.467164 141.026921 
L 404.846837 140.312317 
L 405.226511 140.304144 
L 405.606184 140.951254 
L 405.985858 142.196736 
L 406.745205 146.241291 
L 407.504552 151.954519 
L 408.643573 162.677205 
L 410.54194 183.33922 
L 413.579329 216.159541 
L 415.477697 234.073312 
L 416.996391 246.578601 
L 418.515085 257.481335 
L 420.033779 266.89174 
L 421.552474 274.956664 
L 423.071168 281.833454 
L 424.589862 287.675684 
L 426.108556 292.62589 
L 426.108556 292.62589 
" clip-path="url(#p9157bdf883)" style="fill: none; stroke: #0000ff; stroke-width: 2; stroke-linecap: square"/>
   </g>
   <g id="patch_3">
    <path d="M 46.435 324.55289 
L 46.435 34.2 
" style="fill: none; stroke: #000000; stroke-width: 0.8; stroke-linejoin: miter; stroke-linecap: square"/>
   </g>
   <g id="patch_4">
    <path d="M 38.841529 320.545426 
L 433.702027 320.545426 
" style="fill: none; stroke: #000000; stroke-width: 0.8; stroke-linejoin: miter; stroke-linecap: square"/>
   </g>
   <g id="legend_1">
    <g id="patch_5">
     <path d="M 45.841529 73.596875 
L 82.341529 73.596875 
L 82.341529 41.2 
L 45.841529 41.2 
z
" style="fill: #4c4c4c; opacity: 0.5; stroke: #4c4c4c; stroke-linejoin: miter"/>
    </g>
    <g id="patch_6">
     <path d="M 43.841529 71.596875 
L 80.341529 71.596875 
L 80.341529 39.2 
L 43.841529 39.2 
z
" style="fill: #ffffff; stroke: #cccccc; stroke-linejoin: miter"/>
    </g>
    <g id="line2d_55">
     <path d="M 52.841529 49.298438 
L 47.341529 49.298438 
" style="fill: none; stroke: #ff0000; stroke-width: 2; stroke-linecap: square"/>
    </g>
    <g id="text_15">
     <!-- $R(t)$ -->
     <g style="fill: #ff0000" transform="translate(55.341529 52.798438)scale(0.1 -0.1)">
      <use xlink:href="#Cmmi10-52"/>
      <use xlink:href="#Cmr10-28" transform="translate(75.878906 0)"/>
      <use xlink:href="#Cmmi10-74" transform="translate(114.697266 0)"/>
      <use xlink:href="#Cmr10-29" transform="translate(150.78125 0)"/>
     </g>
    </g>
    <g id="line2d_56">
     <path d="M 52.841529 59.596875 
L 47.341529 59.596875 
" style="fill: none; stroke: #0000ff; stroke-width: 2; stroke-linecap: square"/>
    </g>
    <g id="text_16">
     <!-- $F(t)$ -->
     <g style="fill: #0000ff" transform="translate(55.341529 63.096875)scale(0.1 -0.1)">
      <use xlink:href="#Cmmi10-46"/>
      <use xlink:href="#Cmr10-28" transform="translate(64.306641 0)"/>
      <use xlink:href="#Cmmi10-74" transform="translate(103.125 0)"/>
      <use xlink:href="#Cmr10-29" transform="translate(139.208984 0)"/>
     </g>
    </g>
   </g>
  </g>
 </g>
 <defs>
  <clipPath id="p9157bdf883">
   <rect x="38.841529" y="34.2" width="394.860498" height="290.35289"/>
  </clipPath>
 </defs>
</svg>
