<?xml version="1.0" encoding="utf-8" standalone="no"?>
<!DOCTYPE svg PUBLIC "-//W3C//DTD SVG 1.1//EN"
  "http://www.w3.org/Graphics/SVG/1.1/DTD/svg11.dtd">
<svg xmlns:xlink="http://www.w3.org/1999/xlink" width="455.938823pt" height="345.88pt" viewBox="0 0 455.938823 345.88" xmlns="http://www.w3.org/2000/svg" version="1.1">
 <metadata>
  <rdf:RDF xmlns:dc="http://purl.org/dc/elements/1.1/" xmlns:cc="http://creativecommons.org/ns#" xmlns:rdf="http://www.w3.org/1999/02/22-rdf-syntax-ns#">
   <cc:Work>
    <dc:type rdf:resource="http://purl.org/dc/dcmitype/StillImage"/>
    <dc:date>2022-06-15T19:53:31.944810</dc:date>
    <dc:format>image/svg+xml</dc:format>
    <dc:creator>
     <cc:Agent>
      <dc:title>Matplotlib v3.5.1, https://matplotlib.org/</dc:title>
     </cc:Agent>
    </dc:creator>
   </cc:Work>
  </rdf:RDF>
 </metadata>
 <defs>
  <style type="text/css">*{stroke-linejoin: round; stroke-linecap: butt}</style>
 </defs>
 <g id="figure_1">
  <g id="patch_1">
   <path d="M 0 345.88 
L 455.938823 345.88 
L 455.938823 0 
L 0 0 
z
" style="fill: #ffffff"/>
  </g>
  <g id="axes_1">
   <g id="patch_2">
    <path d="M 37.291592 338.68 
L 433.708823 338.68 
L 433.708823 34.2 
L 37.291592 34.2 
z
" style="fill: #ffffff"/>
   </g>
   <g id="matplotlib.axis_1">
    <g id="xtick_1">
     <g id="line2d_1">
      <defs>
       <path id="m62025d9b35" d="M 0 0 
L 0 3.5 
" style="stroke: #000000; stroke-width: 0.8"/>
      </defs>
      <g>
       <use xlink:href="#m62025d9b35" x="44.915" y="207.372074" style="stroke: #000000; stroke-width: 0.8"/>
      </g>
     </g>
    </g>
    <g id="xtick_2">
     <g id="line2d_2">
      <g>
       <use xlink:href="#m62025d9b35" x="92.561302" y="207.372074" style="stroke: #000000; stroke-width: 0.8"/>
      </g>
     </g>
     <g id="text_1">
      <!-- 10 -->
      <g transform="translate(84.926302 223.490199)scale(0.12 -0.12)">
       <defs>
        <path id="DejaVuSans-31" d="M 794 531 
L 1825 531 
L 1825 4091 
L 703 3866 
L 703 4441 
L 1819 4666 
L 2450 4666 
L 2450 531 
L 3481 531 
L 3481 0 
L 794 0 
L 794 531 
z
" transform="scale(0.015625)"/>
        <path id="DejaVuSans-30" d="M 2034 4250 
Q 1547 4250 1301 3770 
Q 1056 3291 1056 2328 
Q 1056 1369 1301 889 
Q 1547 409 2034 409 
Q 2525 409 2770 889 
Q 3016 1369 3016 2328 
Q 3016 3291 2770 3770 
Q 2525 4250 2034 4250 
z
M 2034 4750 
Q 2819 4750 3233 4129 
Q 3647 3509 3647 2328 
Q 3647 1150 3233 529 
Q 2819 -91 2034 -91 
Q 1250 -91 836 529 
Q 422 1150 422 2328 
Q 422 3509 836 4129 
Q 1250 4750 2034 4750 
z
" transform="scale(0.015625)"/>
       </defs>
       <use xlink:href="#DejaVuSans-31"/>
       <use xlink:href="#DejaVuSans-30" x="63.623047"/>
      </g>
     </g>
    </g>
    <g id="xtick_3">
     <g id="line2d_3">
      <g>
       <use xlink:href="#m62025d9b35" x="140.207604" y="207.372074" style="stroke: #000000; stroke-width: 0.8"/>
      </g>
     </g>
     <g id="text_2">
      <!-- 20 -->
      <g transform="translate(132.572604 223.490199)scale(0.12 -0.12)">
       <defs>
        <path id="DejaVuSans-32" d="M 1228 531 
L 3431 531 
L 3431 0 
L 469 0 
L 469 531 
Q 828 903 1448 1529 
Q 2069 2156 2228 2338 
Q 2531 2678 2651 2914 
Q 2772 3150 2772 3378 
Q 2772 3750 2511 3984 
Q 2250 4219 1831 4219 
Q 1534 4219 1204 4116 
Q 875 4013 500 3803 
L 500 4441 
Q 881 4594 1212 4672 
Q 1544 4750 1819 4750 
Q 2544 4750 2975 4387 
Q 3406 4025 3406 3419 
Q 3406 3131 3298 2873 
Q 3191 2616 2906 2266 
Q 2828 2175 2409 1742 
Q 1991 1309 1228 531 
z
" transform="scale(0.015625)"/>
       </defs>
       <use xlink:href="#DejaVuSans-32"/>
       <use xlink:href="#DejaVuSans-30" x="63.623047"/>
      </g>
     </g>
    </g>
    <g id="xtick_4">
     <g id="line2d_4">
      <g>
       <use xlink:href="#m62025d9b35" x="187.853906" y="207.372074" style="stroke: #000000; stroke-width: 0.8"/>
      </g>
     </g>
     <g id="text_3">
      <!-- 30 -->
      <g transform="translate(180.218906 223.490199)scale(0.12 -0.12)">
       <defs>
        <path id="DejaVuSans-33" d="M 2597 2516 
Q 3050 2419 3304 2112 
Q 3559 1806 3559 1356 
Q 3559 666 3084 287 
Q 2609 -91 1734 -91 
Q 1441 -91 1130 -33 
Q 819 25 488 141 
L 488 750 
Q 750 597 1062 519 
Q 1375 441 1716 441 
Q 2309 441 2620 675 
Q 2931 909 2931 1356 
Q 2931 1769 2642 2001 
Q 2353 2234 1838 2234 
L 1294 2234 
L 1294 2753 
L 1863 2753 
Q 2328 2753 2575 2939 
Q 2822 3125 2822 3475 
Q 2822 3834 2567 4026 
Q 2313 4219 1838 4219 
Q 1578 4219 1281 4162 
Q 984 4106 628 3988 
L 628 4550 
Q 988 4650 1302 4700 
Q 1616 4750 1894 4750 
Q 2613 4750 3031 4423 
Q 3450 4097 3450 3541 
Q 3450 3153 3228 2886 
Q 3006 2619 2597 2516 
z
" transform="scale(0.015625)"/>
       </defs>
       <use xlink:href="#DejaVuSans-33"/>
       <use xlink:href="#DejaVuSans-30" x="63.623047"/>
      </g>
     </g>
    </g>
    <g id="xtick_5">
     <g id="line2d_5">
      <g>
       <use xlink:href="#m62025d9b35" x="235.500207" y="207.372074" style="stroke: #000000; stroke-width: 0.8"/>
      </g>
     </g>
     <g id="text_4">
      <!-- 40 -->
      <g transform="translate(227.865207 223.490199)scale(0.12 -0.12)">
       <defs>
        <path id="DejaVuSans-34" d="M 2419 4116 
L 825 1625 
L 2419 1625 
L 2419 4116 
z
M 2253 4666 
L 3047 4666 
L 3047 1625 
L 3713 1625 
L 3713 1100 
L 3047 1100 
L 3047 0 
L 2419 0 
L 2419 1100 
L 313 1100 
L 313 1709 
L 2253 4666 
z
" transform="scale(0.015625)"/>
       </defs>
       <use xlink:href="#DejaVuSans-34"/>
       <use xlink:href="#DejaVuSans-30" x="63.623047"/>
      </g>
     </g>
    </g>
    <g id="xtick_6">
     <g id="line2d_6">
      <g>
       <use xlink:href="#m62025d9b35" x="283.146509" y="207.372074" style="stroke: #000000; stroke-width: 0.8"/>
      </g>
     </g>
     <g id="text_5">
      <!-- 50 -->
      <g transform="translate(275.511509 223.490199)scale(0.12 -0.12)">
       <defs>
        <path id="DejaVuSans-35" d="M 691 4666 
L 3169 4666 
L 3169 4134 
L 1269 4134 
L 1269 2991 
Q 1406 3038 1543 3061 
Q 1681 3084 1819 3084 
Q 2600 3084 3056 2656 
Q 3513 2228 3513 1497 
Q 3513 744 3044 326 
Q 2575 -91 1722 -91 
Q 1428 -91 1123 -41 
Q 819 9 494 109 
L 494 744 
Q 775 591 1075 516 
Q 1375 441 1709 441 
Q 2250 441 2565 725 
Q 2881 1009 2881 1497 
Q 2881 1984 2565 2268 
Q 2250 2553 1709 2553 
Q 1456 2553 1204 2497 
Q 953 2441 691 2322 
L 691 4666 
z
" transform="scale(0.015625)"/>
       </defs>
       <use xlink:href="#DejaVuSans-35"/>
       <use xlink:href="#DejaVuSans-30" x="63.623047"/>
      </g>
     </g>
    </g>
    <g id="xtick_7">
     <g id="line2d_7">
      <g>
       <use xlink:href="#m62025d9b35" x="330.792811" y="207.372074" style="stroke: #000000; stroke-width: 0.8"/>
      </g>
     </g>
     <g id="text_6">
      <!-- 60 -->
      <g transform="translate(323.157811 223.490199)scale(0.12 -0.12)">
       <defs>
        <path id="DejaVuSans-36" d="M 2113 2584 
Q 1688 2584 1439 2293 
Q 1191 2003 1191 1497 
Q 1191 994 1439 701 
Q 1688 409 2113 409 
Q 2538 409 2786 701 
Q 3034 994 3034 1497 
Q 3034 2003 2786 2293 
Q 2538 2584 2113 2584 
z
M 3366 4563 
L 3366 3988 
Q 3128 4100 2886 4159 
Q 2644 4219 2406 4219 
Q 1781 4219 1451 3797 
Q 1122 3375 1075 2522 
Q 1259 2794 1537 2939 
Q 1816 3084 2150 3084 
Q 2853 3084 3261 2657 
Q 3669 2231 3669 1497 
Q 3669 778 3244 343 
Q 2819 -91 2113 -91 
Q 1303 -91 875 529 
Q 447 1150 447 2328 
Q 447 3434 972 4092 
Q 1497 4750 2381 4750 
Q 2619 4750 2861 4703 
Q 3103 4656 3366 4563 
z
" transform="scale(0.015625)"/>
       </defs>
       <use xlink:href="#DejaVuSans-36"/>
       <use xlink:href="#DejaVuSans-30" x="63.623047"/>
      </g>
     </g>
    </g>
    <g id="xtick_8">
     <g id="line2d_8">
      <g>
       <use xlink:href="#m62025d9b35" x="378.439113" y="207.372074" style="stroke: #000000; stroke-width: 0.8"/>
      </g>
     </g>
     <g id="text_7">
      <!-- 70 -->
      <g transform="translate(370.804113 223.490199)scale(0.12 -0.12)">
       <defs>
        <path id="DejaVuSans-37" d="M 525 4666 
L 3525 4666 
L 3525 4397 
L 1831 0 
L 1172 0 
L 2766 4134 
L 525 4134 
L 525 4666 
z
" transform="scale(0.015625)"/>
       </defs>
       <use xlink:href="#DejaVuSans-37"/>
       <use xlink:href="#DejaVuSans-30" x="63.623047"/>
      </g>
     </g>
    </g>
    <g id="xtick_9">
     <g id="line2d_9">
      <g>
       <use xlink:href="#m62025d9b35" x="426.085415" y="207.372074" style="stroke: #000000; stroke-width: 0.8"/>
      </g>
     </g>
     <g id="text_8">
      <!-- 80 -->
      <g transform="translate(418.450415 223.490199)scale(0.12 -0.12)">
       <defs>
        <path id="DejaVuSans-38" d="M 2034 2216 
Q 1584 2216 1326 1975 
Q 1069 1734 1069 1313 
Q 1069 891 1326 650 
Q 1584 409 2034 409 
Q 2484 409 2743 651 
Q 3003 894 3003 1313 
Q 3003 1734 2745 1975 
Q 2488 2216 2034 2216 
z
M 1403 2484 
Q 997 2584 770 2862 
Q 544 3141 544 3541 
Q 544 4100 942 4425 
Q 1341 4750 2034 4750 
Q 2731 4750 3128 4425 
Q 3525 4100 3525 3541 
Q 3525 3141 3298 2862 
Q 3072 2584 2669 2484 
Q 3125 2378 3379 2068 
Q 3634 1759 3634 1313 
Q 3634 634 3220 271 
Q 2806 -91 2034 -91 
Q 1263 -91 848 271 
Q 434 634 434 1313 
Q 434 1759 690 2068 
Q 947 2378 1403 2484 
z
M 1172 3481 
Q 1172 3119 1398 2916 
Q 1625 2713 2034 2713 
Q 2441 2713 2670 2916 
Q 2900 3119 2900 3481 
Q 2900 3844 2670 4047 
Q 2441 4250 2034 4250 
Q 1625 4250 1398 4047 
Q 1172 3844 1172 3481 
z
" transform="scale(0.015625)"/>
       </defs>
       <use xlink:href="#DejaVuSans-38"/>
       <use xlink:href="#DejaVuSans-30" x="63.623047"/>
      </g>
     </g>
    </g>
    <g id="xtick_10">
     <g id="line2d_10">
      <defs>
       <path id="mbc17de34a4" d="M 0 0 
L 0 2 
" style="stroke: #000000; stroke-width: 0.6"/>
      </defs>
      <g>
       <use xlink:href="#mbc17de34a4" x="54.44426" y="207.372074" style="stroke: #000000; stroke-width: 0.6"/>
      </g>
     </g>
    </g>
    <g id="xtick_11">
     <g id="line2d_11">
      <g>
       <use xlink:href="#mbc17de34a4" x="63.973521" y="207.372074" style="stroke: #000000; stroke-width: 0.6"/>
      </g>
     </g>
    </g>
    <g id="xtick_12">
     <g id="line2d_12">
      <g>
       <use xlink:href="#mbc17de34a4" x="73.502781" y="207.372074" style="stroke: #000000; stroke-width: 0.6"/>
      </g>
     </g>
    </g>
    <g id="xtick_13">
     <g id="line2d_13">
      <g>
       <use xlink:href="#mbc17de34a4" x="83.032041" y="207.372074" style="stroke: #000000; stroke-width: 0.6"/>
      </g>
     </g>
    </g>
    <g id="xtick_14">
     <g id="line2d_14">
      <g>
       <use xlink:href="#mbc17de34a4" x="102.090562" y="207.372074" style="stroke: #000000; stroke-width: 0.6"/>
      </g>
     </g>
    </g>
    <g id="xtick_15">
     <g id="line2d_15">
      <g>
       <use xlink:href="#mbc17de34a4" x="111.619823" y="207.372074" style="stroke: #000000; stroke-width: 0.6"/>
      </g>
     </g>
    </g>
    <g id="xtick_16">
     <g id="line2d_16">
      <g>
       <use xlink:href="#mbc17de34a4" x="121.149083" y="207.372074" style="stroke: #000000; stroke-width: 0.6"/>
      </g>
     </g>
    </g>
    <g id="xtick_17">
     <g id="line2d_17">
      <g>
       <use xlink:href="#mbc17de34a4" x="130.678343" y="207.372074" style="stroke: #000000; stroke-width: 0.6"/>
      </g>
     </g>
    </g>
    <g id="xtick_18">
     <g id="line2d_18">
      <g>
       <use xlink:href="#mbc17de34a4" x="149.736864" y="207.372074" style="stroke: #000000; stroke-width: 0.6"/>
      </g>
     </g>
    </g>
    <g id="xtick_19">
     <g id="line2d_19">
      <g>
       <use xlink:href="#mbc17de34a4" x="159.266124" y="207.372074" style="stroke: #000000; stroke-width: 0.6"/>
      </g>
     </g>
    </g>
    <g id="xtick_20">
     <g id="line2d_20">
      <g>
       <use xlink:href="#mbc17de34a4" x="168.795385" y="207.372074" style="stroke: #000000; stroke-width: 0.6"/>
      </g>
     </g>
    </g>
    <g id="xtick_21">
     <g id="line2d_21">
      <g>
       <use xlink:href="#mbc17de34a4" x="178.324645" y="207.372074" style="stroke: #000000; stroke-width: 0.6"/>
      </g>
     </g>
    </g>
    <g id="xtick_22">
     <g id="line2d_22">
      <g>
       <use xlink:href="#mbc17de34a4" x="197.383166" y="207.372074" style="stroke: #000000; stroke-width: 0.6"/>
      </g>
     </g>
    </g>
    <g id="xtick_23">
     <g id="line2d_23">
      <g>
       <use xlink:href="#mbc17de34a4" x="206.912426" y="207.372074" style="stroke: #000000; stroke-width: 0.6"/>
      </g>
     </g>
    </g>
    <g id="xtick_24">
     <g id="line2d_24">
      <g>
       <use xlink:href="#mbc17de34a4" x="216.441687" y="207.372074" style="stroke: #000000; stroke-width: 0.6"/>
      </g>
     </g>
    </g>
    <g id="xtick_25">
     <g id="line2d_25">
      <g>
       <use xlink:href="#mbc17de34a4" x="225.970947" y="207.372074" style="stroke: #000000; stroke-width: 0.6"/>
      </g>
     </g>
    </g>
    <g id="xtick_26">
     <g id="line2d_26">
      <g>
       <use xlink:href="#mbc17de34a4" x="245.029468" y="207.372074" style="stroke: #000000; stroke-width: 0.6"/>
      </g>
     </g>
    </g>
    <g id="xtick_27">
     <g id="line2d_27">
      <g>
       <use xlink:href="#mbc17de34a4" x="254.558728" y="207.372074" style="stroke: #000000; stroke-width: 0.6"/>
      </g>
     </g>
    </g>
    <g id="xtick_28">
     <g id="line2d_28">
      <g>
       <use xlink:href="#mbc17de34a4" x="264.087989" y="207.372074" style="stroke: #000000; stroke-width: 0.6"/>
      </g>
     </g>
    </g>
    <g id="xtick_29">
     <g id="line2d_29">
      <g>
       <use xlink:href="#mbc17de34a4" x="273.617249" y="207.372074" style="stroke: #000000; stroke-width: 0.6"/>
      </g>
     </g>
    </g>
    <g id="xtick_30">
     <g id="line2d_30">
      <g>
       <use xlink:href="#mbc17de34a4" x="292.67577" y="207.372074" style="stroke: #000000; stroke-width: 0.6"/>
      </g>
     </g>
    </g>
    <g id="xtick_31">
     <g id="line2d_31">
      <g>
       <use xlink:href="#mbc17de34a4" x="302.20503" y="207.372074" style="stroke: #000000; stroke-width: 0.6"/>
      </g>
     </g>
    </g>
    <g id="xtick_32">
     <g id="line2d_32">
      <g>
       <use xlink:href="#mbc17de34a4" x="311.73429" y="207.372074" style="stroke: #000000; stroke-width: 0.6"/>
      </g>
     </g>
    </g>
    <g id="xtick_33">
     <g id="line2d_33">
      <g>
       <use xlink:href="#mbc17de34a4" x="321.263551" y="207.372074" style="stroke: #000000; stroke-width: 0.6"/>
      </g>
     </g>
    </g>
    <g id="xtick_34">
     <g id="line2d_34">
      <g>
       <use xlink:href="#mbc17de34a4" x="340.322072" y="207.372074" style="stroke: #000000; stroke-width: 0.6"/>
      </g>
     </g>
    </g>
    <g id="xtick_35">
     <g id="line2d_35">
      <g>
       <use xlink:href="#mbc17de34a4" x="349.851332" y="207.372074" style="stroke: #000000; stroke-width: 0.6"/>
      </g>
     </g>
    </g>
    <g id="xtick_36">
     <g id="line2d_36">
      <g>
       <use xlink:href="#mbc17de34a4" x="359.380592" y="207.372074" style="stroke: #000000; stroke-width: 0.6"/>
      </g>
     </g>
    </g>
    <g id="xtick_37">
     <g id="line2d_37">
      <g>
       <use xlink:href="#mbc17de34a4" x="368.909853" y="207.372074" style="stroke: #000000; stroke-width: 0.6"/>
      </g>
     </g>
    </g>
    <g id="xtick_38">
     <g id="line2d_38">
      <g>
       <use xlink:href="#mbc17de34a4" x="387.968373" y="207.372074" style="stroke: #000000; stroke-width: 0.6"/>
      </g>
     </g>
    </g>
    <g id="xtick_39">
     <g id="line2d_39">
      <g>
       <use xlink:href="#mbc17de34a4" x="397.497634" y="207.372074" style="stroke: #000000; stroke-width: 0.6"/>
      </g>
     </g>
    </g>
    <g id="xtick_40">
     <g id="line2d_40">
      <g>
       <use xlink:href="#mbc17de34a4" x="407.026894" y="207.372074" style="stroke: #000000; stroke-width: 0.6"/>
      </g>
     </g>
    </g>
    <g id="xtick_41">
     <g id="line2d_41">
      <g>
       <use xlink:href="#mbc17de34a4" x="416.556155" y="207.372074" style="stroke: #000000; stroke-width: 0.6"/>
      </g>
     </g>
    </g>
    <g id="text_9">
     <!-- $t$ -->
     <g transform="translate(441.708823 207.372074)scale(0.19 -0.19)">
      <defs>
       <path id="Cmmi10-74" d="M 397 519 
Q 397 613 416 697 
L 878 2534 
L 206 2534 
Q 141 2534 141 2619 
Q 166 2759 225 2759 
L 934 2759 
L 1191 3803 
Q 1216 3888 1291 3947 
Q 1366 4006 1459 4006 
Q 1541 4006 1595 3957 
Q 1650 3909 1650 3828 
Q 1650 3809 1648 3798 
Q 1647 3788 1644 3775 
L 1388 2759 
L 2047 2759 
Q 2113 2759 2113 2675 
Q 2109 2659 2100 2621 
Q 2091 2584 2075 2559 
Q 2059 2534 2028 2534 
L 1331 2534 
L 872 684 
Q 825 503 825 372 
Q 825 97 1013 97 
Q 1294 97 1511 361 
Q 1728 625 1844 941 
Q 1869 978 1894 978 
L 1972 978 
Q 1997 978 2012 961 
Q 2028 944 2028 922 
Q 2028 909 2022 903 
Q 1881 516 1612 222 
Q 1344 -72 997 -72 
Q 744 -72 570 93 
Q 397 259 397 519 
z
" transform="scale(0.015625)"/>
      </defs>
      <use xlink:href="#Cmmi10-74" transform="translate(0 0.40625)"/>
     </g>
    </g>
   </g>
   <g id="matplotlib.axis_2">
    <g id="ytick_1">
     <g id="line2d_42">
      <defs>
       <path id="m243eab94b5" d="M 0 0 
L -3.5 0 
" style="stroke: #000000; stroke-width: 0.8"/>
      </defs>
      <g>
       <use xlink:href="#m243eab94b5" x="44.915" y="316.032599" style="stroke: #000000; stroke-width: 0.8"/>
      </g>
     </g>
     <g id="text_10">
      <!-- −2 -->
      <g transform="translate(20.224375 320.591661)scale(0.12 -0.12)">
       <defs>
        <path id="DejaVuSans-2212" d="M 678 2272 
L 4684 2272 
L 4684 1741 
L 678 1741 
L 678 2272 
z
" transform="scale(0.015625)"/>
       </defs>
       <use xlink:href="#DejaVuSans-2212"/>
       <use xlink:href="#DejaVuSans-32" x="83.789062"/>
      </g>
     </g>
    </g>
    <g id="ytick_2">
     <g id="line2d_43">
      <g>
       <use xlink:href="#m243eab94b5" x="44.915" y="261.702336" style="stroke: #000000; stroke-width: 0.8"/>
      </g>
     </g>
     <g id="text_11">
      <!-- −1 -->
      <g transform="translate(20.224375 266.261399)scale(0.12 -0.12)">
       <use xlink:href="#DejaVuSans-2212"/>
       <use xlink:href="#DejaVuSans-31" x="83.789062"/>
      </g>
     </g>
    </g>
    <g id="ytick_3">
     <g id="line2d_44">
      <g>
       <use xlink:href="#m243eab94b5" x="44.915" y="207.372074" style="stroke: #000000; stroke-width: 0.8"/>
      </g>
     </g>
    </g>
    <g id="ytick_4">
     <g id="line2d_45">
      <g>
       <use xlink:href="#m243eab94b5" x="44.915" y="153.041812" style="stroke: #000000; stroke-width: 0.8"/>
      </g>
     </g>
     <g id="text_12">
      <!-- 1 -->
      <g transform="translate(30.28 157.600874)scale(0.12 -0.12)">
       <use xlink:href="#DejaVuSans-31"/>
      </g>
     </g>
    </g>
    <g id="ytick_5">
     <g id="line2d_46">
      <g>
       <use xlink:href="#m243eab94b5" x="44.915" y="98.711549" style="stroke: #000000; stroke-width: 0.8"/>
      </g>
     </g>
     <g id="text_13">
      <!-- 2 -->
      <g transform="translate(30.28 103.270612)scale(0.12 -0.12)">
       <use xlink:href="#DejaVuSans-32"/>
      </g>
     </g>
    </g>
    <g id="ytick_6">
     <g id="line2d_47">
      <g>
       <use xlink:href="#m243eab94b5" x="44.915" y="44.381287" style="stroke: #000000; stroke-width: 0.8"/>
      </g>
     </g>
     <g id="text_14">
      <!-- 3 -->
      <g transform="translate(30.28 48.940349)scale(0.12 -0.12)">
       <use xlink:href="#DejaVuSans-33"/>
      </g>
     </g>
    </g>
    <g id="ytick_7">
     <g id="line2d_48">
      <defs>
       <path id="m9bc2c96c1e" d="M 0 0 
L -2 0 
" style="stroke: #000000; stroke-width: 0.6"/>
      </defs>
      <g>
       <use xlink:href="#m9bc2c96c1e" x="44.915" y="337.764704" style="stroke: #000000; stroke-width: 0.6"/>
      </g>
     </g>
    </g>
    <g id="ytick_8">
     <g id="line2d_49">
      <g>
       <use xlink:href="#m9bc2c96c1e" x="44.915" y="326.898651" style="stroke: #000000; stroke-width: 0.6"/>
      </g>
     </g>
    </g>
    <g id="ytick_9">
     <g id="line2d_50">
      <g>
       <use xlink:href="#m9bc2c96c1e" x="44.915" y="305.166546" style="stroke: #000000; stroke-width: 0.6"/>
      </g>
     </g>
    </g>
    <g id="ytick_10">
     <g id="line2d_51">
      <g>
       <use xlink:href="#m9bc2c96c1e" x="44.915" y="294.300494" style="stroke: #000000; stroke-width: 0.6"/>
      </g>
     </g>
    </g>
    <g id="ytick_11">
     <g id="line2d_52">
      <g>
       <use xlink:href="#m9bc2c96c1e" x="44.915" y="283.434441" style="stroke: #000000; stroke-width: 0.6"/>
      </g>
     </g>
    </g>
    <g id="ytick_12">
     <g id="line2d_53">
      <g>
       <use xlink:href="#m9bc2c96c1e" x="44.915" y="272.568389" style="stroke: #000000; stroke-width: 0.6"/>
      </g>
     </g>
    </g>
    <g id="ytick_13">
     <g id="line2d_54">
      <g>
       <use xlink:href="#m9bc2c96c1e" x="44.915" y="250.836284" style="stroke: #000000; stroke-width: 0.6"/>
      </g>
     </g>
    </g>
    <g id="ytick_14">
     <g id="line2d_55">
      <g>
       <use xlink:href="#m9bc2c96c1e" x="44.915" y="239.970232" style="stroke: #000000; stroke-width: 0.6"/>
      </g>
     </g>
    </g>
    <g id="ytick_15">
     <g id="line2d_56">
      <g>
       <use xlink:href="#m9bc2c96c1e" x="44.915" y="229.104179" style="stroke: #000000; stroke-width: 0.6"/>
      </g>
     </g>
    </g>
    <g id="ytick_16">
     <g id="line2d_57">
      <g>
       <use xlink:href="#m9bc2c96c1e" x="44.915" y="218.238127" style="stroke: #000000; stroke-width: 0.6"/>
      </g>
     </g>
    </g>
    <g id="ytick_17">
     <g id="line2d_58">
      <g>
       <use xlink:href="#m9bc2c96c1e" x="44.915" y="196.506022" style="stroke: #000000; stroke-width: 0.6"/>
      </g>
     </g>
    </g>
    <g id="ytick_18">
     <g id="line2d_59">
      <g>
       <use xlink:href="#m9bc2c96c1e" x="44.915" y="185.639969" style="stroke: #000000; stroke-width: 0.6"/>
      </g>
     </g>
    </g>
    <g id="ytick_19">
     <g id="line2d_60">
      <g>
       <use xlink:href="#m9bc2c96c1e" x="44.915" y="174.773917" style="stroke: #000000; stroke-width: 0.6"/>
      </g>
     </g>
    </g>
    <g id="ytick_20">
     <g id="line2d_61">
      <g>
       <use xlink:href="#m9bc2c96c1e" x="44.915" y="163.907864" style="stroke: #000000; stroke-width: 0.6"/>
      </g>
     </g>
    </g>
    <g id="ytick_21">
     <g id="line2d_62">
      <g>
       <use xlink:href="#m9bc2c96c1e" x="44.915" y="142.175759" style="stroke: #000000; stroke-width: 0.6"/>
      </g>
     </g>
    </g>
    <g id="ytick_22">
     <g id="line2d_63">
      <g>
       <use xlink:href="#m9bc2c96c1e" x="44.915" y="131.309707" style="stroke: #000000; stroke-width: 0.6"/>
      </g>
     </g>
    </g>
    <g id="ytick_23">
     <g id="line2d_64">
      <g>
       <use xlink:href="#m9bc2c96c1e" x="44.915" y="120.443654" style="stroke: #000000; stroke-width: 0.6"/>
      </g>
     </g>
    </g>
    <g id="ytick_24">
     <g id="line2d_65">
      <g>
       <use xlink:href="#m9bc2c96c1e" x="44.915" y="109.577602" style="stroke: #000000; stroke-width: 0.6"/>
      </g>
     </g>
    </g>
    <g id="ytick_25">
     <g id="line2d_66">
      <g>
       <use xlink:href="#m9bc2c96c1e" x="44.915" y="87.845497" style="stroke: #000000; stroke-width: 0.6"/>
      </g>
     </g>
    </g>
    <g id="ytick_26">
     <g id="line2d_67">
      <g>
       <use xlink:href="#m9bc2c96c1e" x="44.915" y="76.979444" style="stroke: #000000; stroke-width: 0.6"/>
      </g>
     </g>
    </g>
    <g id="ytick_27">
     <g id="line2d_68">
      <g>
       <use xlink:href="#m9bc2c96c1e" x="44.915" y="66.113392" style="stroke: #000000; stroke-width: 0.6"/>
      </g>
     </g>
    </g>
    <g id="ytick_28">
     <g id="line2d_69">
      <g>
       <use xlink:href="#m9bc2c96c1e" x="44.915" y="55.247339" style="stroke: #000000; stroke-width: 0.6"/>
      </g>
     </g>
    </g>
    <g id="text_15">
     <!-- $x(t)$, $v(t)$ -->
     <g transform="translate(7.2 21.45)scale(0.19 -0.19)">
      <defs>
       <path id="Cmmi10-78" d="M 500 184 
Q 613 97 819 97 
Q 1019 97 1172 289 
Q 1325 481 1381 709 
L 1672 1844 
Q 1741 2153 1741 2266 
Q 1741 2425 1652 2544 
Q 1563 2663 1403 2663 
Q 1200 2663 1022 2536 
Q 844 2409 722 2214 
Q 600 2019 550 1819 
Q 538 1778 500 1778 
L 422 1778 
Q 372 1778 372 1838 
L 372 1856 
Q 434 2094 584 2320 
Q 734 2547 951 2687 
Q 1169 2828 1416 2828 
Q 1650 2828 1839 2703 
Q 2028 2578 2106 2363 
Q 2216 2559 2386 2693 
Q 2556 2828 2759 2828 
Q 2897 2828 3040 2779 
Q 3184 2731 3275 2631 
Q 3366 2531 3366 2381 
Q 3366 2219 3261 2101 
Q 3156 1984 2994 1984 
Q 2891 1984 2822 2050 
Q 2753 2116 2753 2216 
Q 2753 2350 2845 2451 
Q 2938 2553 3066 2572 
Q 2950 2663 2747 2663 
Q 2541 2663 2389 2472 
Q 2238 2281 2175 2047 
L 1894 916 
Q 1825 659 1825 494 
Q 1825 331 1917 214 
Q 2009 97 2163 97 
Q 2463 97 2698 361 
Q 2934 625 3009 941 
Q 3022 978 3059 978 
L 3138 978 
Q 3163 978 3178 961 
Q 3194 944 3194 922 
Q 3194 916 3188 903 
Q 3097 522 2806 225 
Q 2516 -72 2150 -72 
Q 1916 -72 1727 54 
Q 1538 181 1459 397 
Q 1359 209 1182 68 
Q 1006 -72 806 -72 
Q 669 -72 523 -23 
Q 378 25 287 125 
Q 197 225 197 378 
Q 197 528 301 651 
Q 406 775 563 775 
Q 669 775 741 711 
Q 813 647 813 544 
Q 813 409 723 309 
Q 634 209 500 184 
z
" transform="scale(0.015625)"/>
       <path id="Cmr10-28" d="M 1984 -1588 
Q 1628 -1306 1370 -942 
Q 1113 -578 948 -165 
Q 784 247 703 697 
Q 622 1147 622 1600 
Q 622 2059 703 2509 
Q 784 2959 951 3375 
Q 1119 3791 1378 4153 
Q 1638 4516 1984 4788 
Q 1984 4800 2016 4800 
L 2075 4800 
Q 2094 4800 2109 4783 
Q 2125 4766 2125 4744 
Q 2125 4716 2113 4703 
Q 1800 4397 1592 4047 
Q 1384 3697 1257 3301 
Q 1131 2906 1075 2482 
Q 1019 2059 1019 1600 
Q 1019 -434 2106 -1491 
Q 2125 -1509 2125 -1544 
Q 2125 -1559 2108 -1579 
Q 2091 -1600 2075 -1600 
L 2016 -1600 
Q 1984 -1600 1984 -1588 
z
" transform="scale(0.015625)"/>
       <path id="Cmr10-29" d="M 416 -1600 
Q 359 -1600 359 -1544 
Q 359 -1516 372 -1503 
Q 1466 -434 1466 1600 
Q 1466 3634 384 4691 
Q 359 4706 359 4744 
Q 359 4766 376 4783 
Q 394 4800 416 4800 
L 475 4800 
Q 494 4800 506 4788 
Q 966 4425 1272 3906 
Q 1578 3388 1720 2800 
Q 1863 2213 1863 1600 
Q 1863 1147 1786 708 
Q 1709 269 1542 -157 
Q 1375 -584 1119 -945 
Q 863 -1306 506 -1588 
Q 494 -1600 475 -1600 
L 416 -1600 
z
" transform="scale(0.015625)"/>
       <path id="DejaVuSans-2c" d="M 750 794 
L 1409 794 
L 1409 256 
L 897 -744 
L 494 -744 
L 750 256 
L 750 794 
z
" transform="scale(0.015625)"/>
       <path id="DejaVuSans-20" transform="scale(0.015625)"/>
       <path id="Cmmi10-76" d="M 684 722 
Q 684 866 718 1037 
Q 753 1209 787 1320 
Q 822 1431 944 1753 
Q 1066 2075 1069 2088 
Q 1153 2322 1153 2472 
Q 1153 2663 1013 2663 
Q 759 2663 595 2402 
Q 431 2141 353 1819 
Q 341 1778 300 1778 
L 225 1778 
Q 172 1778 172 1838 
L 172 1856 
Q 275 2238 487 2533 
Q 700 2828 1025 2828 
Q 1253 2828 1411 2678 
Q 1569 2528 1569 2297 
Q 1569 2178 1516 2047 
Q 1391 1722 1319 1526 
Q 1247 1331 1186 1089 
Q 1125 847 1125 641 
Q 1125 400 1236 248 
Q 1347 97 1581 97 
Q 2025 97 2381 781 
Q 2494 1003 2594 1303 
Q 2694 1603 2694 1791 
Q 2694 1984 2631 2092 
Q 2569 2200 2469 2317 
Q 2369 2434 2369 2503 
Q 2369 2628 2472 2731 
Q 2575 2834 2700 2834 
Q 2853 2834 2920 2693 
Q 2988 2553 2988 2375 
Q 2988 2163 2927 1869 
Q 2866 1575 2758 1259 
Q 2650 944 2559 763 
Q 2138 -72 1575 -72 
Q 1172 -72 928 129 
Q 684 331 684 722 
z
" transform="scale(0.015625)"/>
      </defs>
      <use xlink:href="#Cmmi10-78"/>
      <use xlink:href="#Cmr10-28" transform="translate(57.080078 0)"/>
      <use xlink:href="#Cmmi10-74" transform="translate(95.898438 0)"/>
      <use xlink:href="#Cmr10-29" transform="translate(131.982422 0)"/>
      <use xlink:href="#DejaVuSans-2c" transform="translate(170.800781 0)"/>
      <use xlink:href="#DejaVuSans-20" transform="translate(202.587891 0)"/>
      <use xlink:href="#Cmmi10-76" transform="translate(234.375 0)"/>
      <use xlink:href="#Cmr10-28" transform="translate(282.763672 0)"/>
      <use xlink:href="#Cmmi10-74" transform="translate(321.582031 0)"/>
      <use xlink:href="#Cmr10-29" transform="translate(357.666016 0)"/>
     </g>
    </g>
   </g>
   <g id="line2d_70">
    <path d="M 44.915 207.372074 
L 47.535547 178.735057 
L 49.441399 160.3258 
L 50.870788 148.40296 
L 52.300177 138.397487 
L 53.491334 131.676802 
L 54.44426 127.424198 
L 55.397186 124.204695 
L 56.111881 122.479206 
L 56.826575 121.347837 
L 57.303038 120.923194 
L 57.779502 120.760766 
L 58.255965 120.858428 
L 58.732428 121.213302 
L 59.208891 121.821769 
L 59.923585 123.200271 
L 60.63828 125.121853 
L 61.591206 128.492076 
L 62.544132 132.731785 
L 63.735289 139.150452 
L 65.164678 148.294233 
L 66.832299 160.580196 
L 68.976382 178.15701 
L 75.408633 232.119503 
L 77.076254 243.920838 
L 78.505643 252.678238 
L 79.6968 258.866827 
L 80.887958 263.950551 
L 81.840884 267.176416 
L 82.79381 269.628592 
L 83.508505 270.951336 
L 84.223199 271.828668 
L 84.699662 272.166357 
L 85.176125 272.30732 
L 85.652588 272.253094 
L 86.129051 272.005783 
L 86.843746 271.278747 
L 87.55844 270.134626 
L 88.273135 268.587289 
L 89.226061 265.925573 
L 90.178987 262.621596 
L 91.370144 257.66814 
L 92.799533 250.668899 
L 94.467154 241.328822 
L 96.849469 226.521069 
L 102.328794 191.814949 
L 104.234646 181.396127 
L 105.664035 174.628212 
L 107.093424 168.929316 
L 108.284581 165.084213 
L 109.237508 162.637564 
L 110.190434 160.770312 
L 110.905128 159.756805 
L 111.619823 159.077213 
L 112.334517 158.731113 
L 113.049212 158.715859 
L 113.763906 159.026628 
L 114.478601 159.656484 
L 115.193295 160.59646 
L 116.146221 162.313043 
L 117.099147 164.530438 
L 118.290305 167.950781 
L 119.719694 172.897938 
L 121.387314 179.629117 
L 123.531398 189.369797 
L 130.678343 222.883589 
L 132.345964 229.312744 
L 133.775353 234.02529 
L 134.966511 237.309297 
L 136.157668 239.958723 
L 137.110594 241.598535 
L 138.06352 242.799646 
L 138.778215 243.409028 
L 139.492909 243.768039 
L 140.207604 243.878002 
L 140.922298 243.74189 
L 141.636993 243.364277 
L 142.351687 242.751288 
L 143.304613 241.581183 
L 144.257539 240.028222 
L 145.448697 237.58862 
L 146.639854 234.650588 
L 148.069244 230.561297 
L 149.975096 224.362939 
L 152.833874 214.133686 
L 156.645578 200.51912 
L 158.55143 194.434984 
L 160.219051 189.796621 
L 161.64844 186.446903 
L 162.839597 184.152849 
L 164.030755 182.344727 
L 164.983681 181.262837 
L 165.936607 180.512257 
L 166.889533 180.095337 
L 167.604227 180.000762 
L 168.318922 180.090869 
L 169.033616 180.362305 
L 169.986542 180.99832 
L 170.939468 181.934768 
L 172.130626 183.501527 
L 173.321784 185.470936 
L 174.751173 188.300065 
L 176.418793 192.127926 
L 178.562877 197.639215 
L 185.47159 215.875253 
L 187.139211 219.518048 
L 188.5686 222.196414 
L 189.997989 224.402196 
L 191.189147 225.846741 
L 192.380304 226.914047 
L 193.33323 227.48903 
L 194.286156 227.81386 
L 195.239082 227.889637 
L 196.192008 227.720392 
L 197.144934 227.312985 
L 198.09786 226.676969 
L 199.289018 225.579087 
L 200.480176 224.171689 
L 201.909565 222.121957 
L 203.577185 219.31746 
L 205.721269 215.238755 
L 213.344677 200.256838 
L 215.012298 197.62669 
L 216.441687 195.720917 
L 217.871076 194.180681 
L 219.062233 193.198418 
L 220.253391 192.502459 
L 221.444548 192.098601 
L 222.397474 191.986184 
L 223.3504 192.058607 
L 224.541558 192.401984 
L 225.732716 193.01366 
L 226.923873 193.875701 
L 228.353262 195.209223 
L 230.020883 197.119637 
L 231.926735 199.669319 
L 234.785513 203.938961 
L 239.311912 210.73462 
L 241.455995 213.532939 
L 243.123616 215.379043 
L 244.553005 216.683177 
L 245.982394 217.70166 
L 247.173551 218.31852 
L 248.364709 218.717764 
L 249.555866 218.897385 
L 250.747024 218.859483 
L 251.938182 218.610131 
L 253.129339 218.159158 
L 254.558728 217.370828 
L 255.988117 216.340437 
L 257.655738 214.878663 
L 259.799821 212.685422 
L 263.135063 208.89732 
L 266.946767 204.651341 
L 269.09085 202.581658 
L 270.996702 201.053223 
L 272.664323 200.006334 
L 274.093712 199.347977 
L 275.523101 198.922031 
L 276.95249 198.732931 
L 278.381879 198.778696 
L 279.811268 199.051171 
L 281.240657 199.536422 
L 282.908278 200.345645 
L 284.81413 201.543607 
L 287.196445 203.350381 
L 291.008149 206.601074 
L 294.581622 209.560061 
L 296.963937 211.243443 
L 298.869789 212.332648 
L 300.537409 213.061046 
L 302.20503 213.559566 
L 303.872651 213.818166 
L 305.540271 213.835787 
L 307.207892 213.620084 
L 308.875512 213.186847 
L 310.781364 212.455254 
L 312.925448 211.384286 
L 315.784226 209.674957 
L 323.169403 205.095906 
L 325.551718 203.955787 
L 327.695802 203.188049 
L 329.601654 202.740907 
L 331.507506 202.528337 
L 333.413358 202.551103 
L 335.31921 202.798909 
L 337.463293 203.320886 
L 339.845609 204.15252 
L 342.704387 205.398625 
L 351.518952 209.427713 
L 353.901268 210.201173 
L 356.045351 210.690106 
L 358.189435 210.961418 
L 360.333518 211.008649 
L 362.477602 210.838869 
L 364.859917 210.419901 
L 367.480464 209.728744 
L 371.053936 208.529371 
L 378.439113 205.979393 
L 381.297891 205.260592 
L 383.918438 204.830153 
L 386.300753 204.651893 
L 388.683068 204.680083 
L 391.303615 204.934664 
L 394.162393 205.438812 
L 397.974097 206.36412 
L 406.788663 208.605877 
L 409.885672 209.117966 
L 412.74445 209.37449 
L 415.603228 209.408057 
L 418.700238 209.204374 
L 422.035479 208.752237 
L 426.085415 207.993283 
L 426.085415 207.993283 
" clip-path="url(#p783c2e3be2)" style="fill: none; stroke: #0000ff; stroke-linecap: square"/>
   </g>
   <g id="line2d_71">
    <path d="M 44.915 153.041812 
L 45.629695 154.032123 
L 46.344389 155.364847 
L 47.297315 157.649931 
L 48.250241 160.479916 
L 49.441399 164.715563 
L 50.870788 170.691994 
L 52.538408 178.6575 
L 54.920723 191.270864 
L 60.400048 220.779029 
L 62.3059 229.620936 
L 63.735289 235.358185 
L 65.164678 240.183143 
L 66.355836 243.433232 
L 67.308762 245.49704 
L 68.261688 247.067479 
L 68.976382 247.915969 
L 69.691077 248.48035 
L 70.405771 248.761073 
L 71.120466 248.760481 
L 71.835161 248.482768 
L 72.549855 247.933918 
L 73.26455 247.121642 
L 74.217476 245.645242 
L 75.170402 243.743815 
L 76.361559 240.816934 
L 77.790948 236.590552 
L 79.458569 230.847862 
L 81.602652 222.547773 
L 88.749598 194.054061 
L 90.417218 188.600622 
L 91.846607 184.607888 
L 93.037765 181.829193 
L 94.228922 179.591358 
L 95.181848 178.209715 
L 96.134775 177.201556 
L 97.087701 176.571451 
L 97.802395 176.347136 
L 98.51709 176.333899 
L 99.231784 176.528686 
L 99.946479 176.927097 
L 100.899405 177.765027 
L 101.852331 178.937769 
L 103.043488 180.842899 
L 104.234646 183.191479 
L 105.664035 186.518151 
L 107.331655 190.96661 
L 109.713971 198.033589 
L 115.431527 215.309893 
L 117.337379 220.227878 
L 119.004999 223.884714 
L 120.434388 226.449255 
L 121.625546 228.14344 
L 122.816704 229.41176 
L 123.76963 230.110819 
L 124.722556 230.52615 
L 125.675482 230.658444 
L 126.628408 230.511734 
L 127.581334 230.093286 
L 128.53426 229.413448 
L 129.487186 228.485464 
L 130.678343 227.001031 
L 132.107732 224.792619 
L 133.775353 221.719878 
L 135.681205 217.713093 
L 138.778215 210.599507 
L 142.351687 202.516994 
L 144.257539 198.691868 
L 145.92516 195.796784 
L 147.354549 193.723421 
L 148.545707 192.31764 
L 149.736864 191.224904 
L 150.928022 190.457687 
L 151.880948 190.082631 
L 152.833874 189.920208 
L 153.7868 189.968137 
L 154.739726 190.221682 
L 155.692652 190.673763 
L 156.883809 191.503694 
L 158.074967 192.606519 
L 159.504356 194.251653 
L 161.171977 196.545449 
L 163.31606 199.936967 
L 167.127764 206.535296 
L 170.224774 211.689546 
L 172.130626 214.473288 
L 173.798247 216.54995 
L 175.227636 218.012045 
L 176.657025 219.148552 
L 177.848182 219.831815 
L 179.03934 220.267846 
L 180.230497 220.454685 
L 181.421655 220.395031 
L 182.612812 220.096073 
L 183.80397 219.569247 
L 185.233359 218.65816 
L 186.662748 217.474476 
L 188.330369 215.801928 
L 190.474452 213.300806 
L 193.809693 208.995997 
L 197.383166 204.470179 
L 199.52725 202.095235 
L 201.433102 200.330412 
L 203.100722 199.111796 
L 204.530111 198.336431 
L 205.9595 197.82378 
L 207.388889 197.579685 
L 208.818278 197.602686 
L 210.247667 197.88428 
L 211.677057 198.40935 
L 213.106446 199.156765 
L 214.774066 200.274286 
L 216.679918 201.814125 
L 219.300465 204.239975 
L 225.732716 210.332923 
L 227.876799 211.992085 
L 229.782651 213.178537 
L 231.450272 213.956427 
L 233.117892 214.470499 
L 234.547281 214.693728 
L 235.97667 214.716047 
L 237.40606 214.542804 
L 239.07368 214.107623 
L 240.741301 213.444904 
L 242.647153 212.449825 
L 245.029468 210.933565 
L 248.841172 208.178011 
L 252.652876 205.487966 
L 255.035191 204.059699 
L 257.179275 203.037591 
L 259.085127 202.380782 
L 260.752747 202.018671 
L 262.420368 201.861757 
L 264.087989 201.908634 
L 265.993841 202.200274 
L 267.899693 202.722855 
L 270.043776 203.544711 
L 272.664323 204.800545 
L 277.667185 207.525764 
L 281.002426 209.215499 
L 283.622972 210.290855 
L 285.767056 210.940344 
L 287.911139 211.350356 
L 289.816992 211.502347 
L 291.961075 211.435247 
L 294.105159 211.130952 
L 296.487474 210.549616 
L 299.346252 209.590243 
L 303.634419 207.863808 
L 308.399049 206.006063 
L 311.257827 205.133325 
L 313.640143 204.620177 
L 316.022458 204.332118 
L 318.404773 204.279112 
L 320.787088 204.453549 
L 323.407634 204.879327 
L 326.504644 205.629874 
L 331.269274 207.062941 
L 336.272136 208.506164 
L 339.369146 209.17458 
L 342.227924 209.560962 
L 344.84847 209.695794 
L 347.469017 209.619773 
L 350.327795 209.317896 
L 353.663036 208.736569 
L 358.904129 207.559268 
L 364.383454 206.399336 
L 367.956927 205.882979 
L 371.053936 205.657556 
L 374.150946 205.654509 
L 377.486187 205.883731 
L 381.297891 206.378302 
L 395.830013 208.521804 
L 399.403486 208.675423 
L 402.976958 208.60901 
L 407.026894 208.302562 
L 412.74445 207.614446 
L 420.367859 206.721322 
L 424.656026 206.445728 
L 426.085415 206.405382 
L 426.085415 206.405382 
" clip-path="url(#p783c2e3be2)" style="fill: none; stroke: #ff0000; stroke-linecap: square"/>
   </g>
   <g id="line2d_72">
    <path d="M 44.915 196.506022 
L 47.297315 165.503637 
L 48.964936 146.401852 
L 50.394325 132.279091 
L 51.585482 122.340216 
L 52.77664 114.218857 
L 53.729566 109.102406 
L 54.682492 105.253621 
L 55.397186 103.211912 
L 56.111881 101.898041 
L 56.588344 101.425675 
L 57.064807 101.274186 
L 57.54127 101.440832 
L 58.017733 101.921951 
L 58.494196 102.712979 
L 59.208891 104.468453 
L 59.923585 106.88682 
L 60.876511 111.096866 
L 61.829437 116.366231 
L 63.020595 124.314406 
L 64.449984 135.602488 
L 66.117604 150.730739 
L 68.261688 172.322554 
L 74.455707 236.135315 
L 76.123328 250.779136 
L 77.552717 261.70175 
L 78.982106 270.859684 
L 80.173263 277.003847 
L 81.126189 280.885912 
L 82.079115 283.818577 
L 82.79381 285.384958 
L 83.508505 286.405656 
L 83.984968 286.78345 
L 84.461431 286.920497 
L 84.937894 286.818785 
L 85.414357 286.480991 
L 85.89082 285.910473 
L 86.605514 284.627305 
L 87.320209 282.845951 
L 88.273135 279.729715 
L 89.226061 275.816377 
L 90.417218 269.899313 
L 91.846607 261.478931 
L 93.514228 250.174896 
L 95.658311 234.015977 
L 101.852331 186.132247 
L 103.758183 173.658471 
L 105.187572 165.636578 
L 106.378729 159.972516 
L 107.569887 155.324654 
L 108.522813 152.379631 
L 109.475739 150.145624 
L 110.190434 148.944538 
L 110.905128 148.152556 
L 111.619823 147.768891 
L 112.096286 147.738334 
L 112.572749 147.886045 
L 113.049212 148.209812 
L 113.763906 149.019484 
L 114.478601 150.207822 
L 115.431527 152.357488 
L 116.384453 155.11755 
L 117.57561 159.357116 
L 119.004999 165.468542 
L 120.67262 173.760972 
L 122.816704 185.731144 
L 129.725417 225.522807 
L 131.393038 233.509718 
L 132.822427 239.396257 
L 134.013584 243.524173 
L 135.204742 246.881767 
L 136.157668 248.983736 
L 137.110594 250.550198 
L 137.825289 251.368563 
L 138.539983 251.88015 
L 139.254678 252.0861 
L 139.969372 251.989585 
L 140.684067 251.595755 
L 141.398761 250.911672 
L 142.113456 249.94624 
L 143.066382 248.239993 
L 144.019308 246.082474 
L 145.210465 242.804012 
L 146.639854 238.11937 
L 148.307475 231.80884 
L 150.451559 222.759558 
L 156.883809 194.864015 
L 158.789661 187.930722 
L 160.219051 183.493649 
L 161.410208 180.376874 
L 162.601366 177.836158 
L 163.554292 176.240759 
L 164.507218 175.046447 
L 165.460144 174.259454 
L 166.174838 173.937464 
L 166.889533 173.844142 
L 167.604227 173.976707 
L 168.318922 174.330909 
L 169.033616 174.901077 
L 169.986542 175.984903 
L 170.939468 177.4198 
L 172.130626 179.670249 
L 173.560015 182.968221 
L 175.227636 187.503056 
L 177.371719 194.12737 
L 185.233359 219.32015 
L 186.90098 223.570568 
L 188.330369 226.637447 
L 189.521526 228.735623 
L 190.712684 230.387012 
L 191.66561 231.373026 
L 192.618536 232.05465 
L 193.571462 232.429821 
L 194.286156 232.510926 
L 195.000851 232.422498 
L 195.953777 232.046414 
L 196.906703 231.38492 
L 197.859629 230.451517 
L 199.050787 228.927735 
L 200.241944 227.043039 
L 201.671333 224.366957 
L 203.338954 220.781138 
L 205.721269 215.073138 
L 211.438825 201.074883 
L 213.344677 197.077304 
L 215.012298 194.098869 
L 216.441687 192.005032 
L 217.632844 190.617561 
L 218.824002 189.574115 
L 219.776928 188.994542 
L 220.729854 188.644567 
L 221.68278 188.523798 
L 222.635706 188.629128 
L 223.588632 188.954831 
L 224.541558 189.492678 
L 225.732716 190.446978 
L 226.923873 191.690639 
L 228.353262 193.522259 
L 230.020883 196.050723 
L 232.164966 199.756986 
L 240.264838 214.310957 
L 241.932458 216.667423 
L 243.361847 218.358678 
L 244.791236 219.708374 
L 245.982394 220.553332 
L 247.173551 221.133725 
L 248.364709 221.445353 
L 249.555866 221.489091 
L 250.747024 221.270745 
L 251.938182 220.800822 
L 253.129339 220.094222 
L 254.558728 218.960767 
L 256.226349 217.29514 
L 258.132201 215.028893 
L 260.752747 211.498293 
L 266.470304 203.650538 
L 268.376156 201.427517 
L 270.043776 199.779706 
L 271.473165 198.628453 
L 272.902554 197.743273 
L 274.331943 197.139796 
L 275.523101 196.857874 
L 276.714259 196.777305 
L 277.905416 196.89461 
L 279.334805 197.286394 
L 280.764194 197.934266 
L 282.193583 198.813463 
L 283.861204 200.091055 
L 286.005287 202.045819 
L 289.102297 205.23695 
L 293.628696 209.89382 
L 295.772779 211.79136 
L 297.678631 213.191308 
L 299.346252 214.148976 
L 301.013873 214.82971 
L 302.443262 215.181123 
L 303.872651 215.314904 
L 305.30204 215.233935 
L 306.731429 214.946711 
L 308.399049 214.369502 
L 310.06667 213.560212 
L 311.972522 212.399021 
L 314.593069 210.506377 
L 322.69294 204.384515 
L 324.837023 203.151122 
L 326.742876 202.308287 
L 328.410496 201.791896 
L 330.078117 201.494174 
L 331.745737 201.418319 
L 333.413358 201.559431 
L 335.080978 201.904968 
L 336.98683 202.52492 
L 339.130914 203.462593 
L 341.751461 204.858952 
L 350.804258 209.922091 
L 353.186573 210.861407 
L 355.330657 211.451841 
L 357.236509 211.752807 
L 359.142361 211.83667 
L 361.048213 211.708012 
L 363.192296 211.327475 
L 365.574612 210.65197 
L 368.43339 209.576474 
L 373.436251 207.377525 
L 377.247955 205.812945 
L 379.868502 204.958201 
L 382.250817 204.403206 
L 384.633132 204.091114 
L 386.777216 204.027273 
L 389.159531 204.190859 
L 391.541846 204.577742 
L 394.400624 205.28096 
L 398.212328 206.475395 
L 404.882811 208.593506 
L 407.97982 209.315949 
L 410.600367 209.709283 
L 413.220913 209.876749 
L 415.84146 209.815758 
L 418.700238 209.509803 
L 421.797248 208.949786 
L 426.085415 207.936611 
L 426.085415 207.936611 
" clip-path="url(#p783c2e3be2)" style="fill: none; stroke: #0000ff; stroke-linecap: square"/>
   </g>
   <g id="line2d_73">
    <path d="M 44.915 142.175759 
L 45.629695 143.84891 
L 46.582621 146.699309 
L 47.535547 150.213387 
L 48.726704 155.455125 
L 50.156093 162.829915 
L 51.823714 172.635091 
L 54.206029 188.123868 
L 59.447122 222.776378 
L 61.352974 233.736326 
L 63.020595 241.973882 
L 64.449984 247.825471 
L 65.641141 251.753663 
L 66.594067 254.237435 
L 67.546993 256.115784 
L 68.261688 257.120754 
L 68.976382 257.777652 
L 69.691077 258.087261 
L 70.16754 258.102164 
L 70.882235 257.84096 
L 71.596929 257.245712 
L 72.311624 256.325379 
L 73.26455 254.611879 
L 74.217476 252.371624 
L 75.408633 248.887443 
L 76.599791 244.721723 
L 78.02918 238.95599 
L 79.935032 230.262197 
L 82.79381 215.996275 
L 86.605514 197.137188 
L 88.511366 188.761592 
L 90.178987 182.407175 
L 91.608376 177.843656 
L 92.799533 174.739082 
L 93.752459 172.743473 
L 94.705385 171.198384 
L 95.658311 170.113233 
L 96.373006 169.603683 
L 97.087701 169.354611 
L 97.802395 169.363807 
L 98.51709 169.627364 
L 99.231784 170.139731 
L 99.946479 170.893772 
L 100.899405 172.259944 
L 101.852331 174.015808 
L 103.043488 176.714775 
L 104.472877 180.607593 
L 106.140498 185.892096 
L 108.284581 193.523499 
L 115.193295 218.911055 
L 116.860916 224.010721 
L 118.290305 227.770738 
L 119.719694 230.878266 
L 120.910851 232.923233 
L 121.863778 234.183602 
L 122.816704 235.100789 
L 123.76963 235.670706 
L 124.484324 235.870158 
L 125.199019 235.875821 
L 125.913713 235.690543 
L 126.628408 235.318407 
L 127.581334 234.540837 
L 128.53426 233.4562 
L 129.725417 231.697761 
L 130.916575 229.532988 
L 132.345964 226.46977 
L 134.013584 222.377107 
L 136.3959 215.88082 
L 141.875224 200.626801 
L 143.781076 196.039058 
L 145.448697 192.602344 
L 146.878086 190.170652 
L 148.069244 188.546188 
L 149.260401 187.309897 
L 150.213327 186.60953 
L 151.166253 186.16946 
L 152.119179 185.989756 
L 153.072105 186.067395 
L 154.025031 186.396361 
L 154.977957 186.967771 
L 155.930883 187.770044 
L 157.122041 189.075843 
L 158.55143 191.043554 
L 160.219051 193.80837 
L 162.124903 197.442361 
L 164.983681 203.436846 
L 169.033616 211.878184 
L 171.1777 215.790891 
L 172.84532 218.38022 
L 174.27471 220.215777 
L 175.465867 221.444862 
L 176.657025 222.383413 
L 177.848182 223.021252 
L 178.801108 223.311881 
L 179.754034 223.407566 
L 180.70696 223.311033 
L 181.659886 223.027233 
L 182.851044 222.420113 
L 184.042201 221.549764 
L 185.47159 220.189973 
L 187.139211 218.22803 
L 189.045063 215.595205 
L 191.66561 211.544437 
L 196.668471 203.714812 
L 198.812555 200.820109 
L 200.480176 198.917776 
L 201.909565 197.579766 
L 203.338954 196.541181 
L 204.530111 195.918192 
L 205.721269 195.522351 
L 206.912426 195.355368 
L 208.103584 195.414682 
L 209.294741 195.693607 
L 210.485899 196.181564 
L 211.915288 197.022833 
L 213.344677 198.113899 
L 215.012298 199.653781 
L 217.156381 201.954256 
L 220.729854 206.196683 
L 224.303327 210.320987 
L 226.44741 212.461227 
L 228.353262 214.035025 
L 230.020883 215.106949 
L 231.450272 215.775503 
L 232.879661 216.201277 
L 234.30905 216.380147 
L 235.738439 216.314664 
L 237.167828 216.013786 
L 238.597217 215.492457 
L 240.264838 214.633032 
L 242.17069 213.369601 
L 244.553005 211.473875 
L 248.364709 208.080556 
L 251.938182 205.007703 
L 254.082265 203.426285 
L 255.988117 202.27264 
L 257.655738 201.495187 
L 259.323358 200.956064 
L 260.990979 200.666485 
L 262.6586 200.628294 
L 264.32622 200.834217 
L 265.993841 201.268447 
L 267.899693 202.013827 
L 270.043776 203.114987 
L 272.664323 204.728184 
L 280.764194 209.932548 
L 282.908278 210.97807 
L 284.81413 211.691131 
L 286.719982 212.173821 
L 288.625834 212.412551 
L 290.531686 212.4057 
L 292.437538 212.163218 
L 294.34339 211.705708 
L 296.487474 210.971484 
L 299.10802 209.835196 
L 303.872651 207.456898 
L 307.684355 205.668815 
L 310.304901 204.68351 
L 312.687216 204.036564 
L 314.8313 203.688056 
L 316.975384 203.57262 
L 319.119467 203.686824 
L 321.263551 204.013813 
L 323.645866 204.591463 
L 326.742876 205.593243 
L 337.463293 209.317215 
L 340.08384 209.865355 
L 342.466155 210.14912 
L 344.84847 210.217156 
L 347.230785 210.075036 
L 349.851332 209.700936 
L 352.948342 209.025939 
L 357.712972 207.717128 
L 362.954065 206.324923 
L 366.289306 205.674933 
L 369.148084 205.340469 
L 372.006862 205.236533 
L 374.86564 205.360498 
L 377.96265 205.721151 
L 381.774354 206.401216 
L 392.733004 208.518646 
L 396.068245 208.862099 
L 399.403486 208.973368 
L 402.738727 208.852545 
L 406.550431 208.473385 
L 411.791524 207.695876 
L 419.176701 206.620258 
L 423.226637 206.270285 
L 426.085415 206.174772 
L 426.085415 206.174772 
" clip-path="url(#p783c2e3be2)" style="fill: none; stroke: #ff0000; stroke-linecap: square"/>
   </g>
   <g id="line2d_74">
    <path d="M 44.915 185.639969 
L 47.059084 153.155496 
L 48.726704 131.013323 
L 50.156093 114.80603 
L 51.347251 103.530049 
L 52.538408 94.452373 
L 53.491334 88.850848 
L 54.206029 85.644326 
L 54.920723 83.300615 
L 55.635418 81.822563 
L 56.111881 81.316876 
L 56.588344 81.192408 
L 57.064807 81.445736 
L 57.54127 82.072347 
L 58.017733 83.066655 
L 58.732428 85.232778 
L 59.447122 88.184479 
L 60.400048 93.287051 
L 61.352974 99.642651 
L 62.544132 109.195368 
L 63.973521 122.722119 
L 65.641141 140.805368 
L 68.023456 169.525476 
L 73.502781 237.023385 
L 75.408633 257.341777 
L 76.838022 270.561584 
L 78.267411 281.713685 
L 79.458569 289.256144 
L 80.411495 294.069667 
L 81.364421 297.758868 
L 82.079115 299.774457 
L 82.79381 301.141324 
L 83.270273 301.692239 
L 83.746736 301.956192 
L 84.223199 301.93525 
L 84.699662 301.632312 
L 85.176125 301.051087 
L 85.89082 299.667525 
L 86.605514 297.686564 
L 87.55844 294.154806 
L 88.511366 289.662964 
L 89.702524 282.809108 
L 91.131913 272.982332 
L 92.799533 259.707775 
L 94.943617 240.623115 
L 101.614099 179.570384 
L 103.28172 166.775163 
L 104.711109 157.308111 
L 105.902266 150.640117 
L 107.093424 145.185654 
L 108.04635 141.744313 
L 108.999276 139.150046 
L 109.713971 137.769066 
L 110.428665 136.874699 
L 110.905128 136.548307 
L 111.381591 136.436523 
L 111.858054 136.537544 
L 112.334517 136.848952 
L 113.049212 137.703764 
L 113.763906 139.01234 
L 114.478601 140.75916 
L 115.431527 143.738106 
L 116.384453 147.413331 
L 117.57561 152.898422 
L 119.004999 160.619157 
L 120.67262 170.888344 
L 123.054935 187.116463 
L 128.296028 223.444623 
L 130.20188 234.941335 
L 131.869501 243.58565 
L 133.29889 249.728964 
L 134.490048 253.855295 
L 135.442974 256.466177 
L 136.3959 258.442666 
L 137.110594 259.501861 
L 137.825289 260.196232 
L 138.539983 260.526563 
L 139.016446 260.546024 
L 139.492909 260.406604 
L 140.207604 259.904065 
L 140.922298 259.05726 
L 141.636993 257.876986 
L 142.589919 255.807081 
L 143.542845 253.203292 
L 144.734002 249.261454 
L 146.163391 243.646235 
L 147.831012 236.101585 
L 149.975096 225.308143 
L 156.407346 192.172591 
L 158.074967 184.926308 
L 159.504356 179.549183 
L 160.933745 175.069375 
L 162.124903 172.089157 
L 163.077829 170.226292 
L 164.030755 168.841195 
L 164.745449 168.120328 
L 165.460144 167.673017 
L 166.174838 167.498185 
L 166.889533 167.592946 
L 167.604227 167.952652 
L 168.318922 168.570949 
L 169.271848 169.783563 
L 170.224774 171.418301 
L 171.415931 174.012642 
L 172.607089 177.1597 
L 174.036478 181.564096 
L 175.94233 188.274221 
L 178.562877 198.45726 
L 182.851044 215.202787 
L 184.756896 221.809461 
L 186.424517 226.831183 
L 187.853906 230.445366 
L 189.045063 232.910454 
L 190.236221 234.84251 
L 191.189147 235.988846 
L 192.142073 236.772832 
L 192.856767 237.121584 
L 193.571462 237.265946 
L 194.286156 237.207992 
L 195.000851 236.951125 
L 195.715545 236.500024 
L 196.668471 235.606806 
L 197.621397 234.396159 
L 198.812555 232.468232 
L 200.003713 230.123913 
L 201.433102 226.836985 
L 203.338954 221.820923 
L 205.9595 214.195662 
L 210.485899 200.976942 
L 212.391751 196.084978 
L 214.059372 192.38962 
L 215.488761 189.749088 
L 216.679918 187.963649 
L 217.871076 186.581129 
L 218.824002 185.775979 
L 219.776928 185.243094 
L 220.729854 184.983409 
L 221.68278 184.994594 
L 222.635706 185.271155 
L 223.588632 185.804553 
L 224.541558 186.583373 
L 225.732716 187.880297 
L 226.923873 189.505576 
L 228.353262 191.835296 
L 230.020883 194.981808 
L 232.403198 200.029113 
L 238.597217 213.504953 
L 240.503069 216.999723 
L 242.17069 219.579328 
L 243.600079 221.372343 
L 244.791236 222.543379 
L 245.982394 223.405005 
L 246.93532 223.865754 
L 247.888246 224.121618 
L 248.841172 224.173616 
L 249.794098 224.025169 
L 250.747024 223.682007 
L 251.938182 222.991513 
L 253.129339 222.029286 
L 254.558728 220.550705 
L 256.226349 218.442758 
L 258.132201 215.640073 
L 260.990979 210.964016 
L 265.279146 203.920014 
L 267.42323 200.83304 
L 269.09085 198.785921 
L 270.520239 197.331374 
L 271.949628 196.186287 
L 273.140786 195.48405 
L 274.331943 195.018945 
L 275.523101 194.793716 
L 276.714259 194.806605 
L 277.905416 195.051494 
L 279.096574 195.518127 
L 280.525963 196.350684 
L 281.955352 197.451135 
L 283.622972 199.023765 
L 285.767056 201.397659 
L 288.864066 205.222215 
L 292.914001 210.180029 
L 295.058085 212.464257 
L 296.963937 214.160828 
L 298.631557 215.331566 
L 300.060946 216.075786 
L 301.490336 216.567021 
L 302.919725 216.799711 
L 304.349114 216.775322 
L 305.778503 216.502098 
L 307.207892 215.994646 
L 308.875512 215.134071 
L 310.543133 214.023634 
L 312.687216 212.30763 
L 315.545995 209.704625 
L 320.787088 204.903432 
L 322.931171 203.2444 
L 324.837023 202.033549 
L 326.504644 201.217013 
L 328.172265 200.650167 
L 329.839885 200.344832 
L 331.269274 200.293035 
L 332.936895 200.471408 
L 334.604515 200.892096 
L 336.272136 201.531619 
L 338.177988 202.490998 
L 340.560303 203.95191 
L 344.372007 206.605206 
L 348.421943 209.342213 
L 350.804258 210.689485 
L 352.948342 211.6416 
L 354.854194 212.241889 
L 356.760046 212.590418 
L 358.427666 212.683472 
L 360.333518 212.552261 
L 362.23937 212.183426 
L 364.383454 211.517934 
L 366.765769 210.528055 
L 369.862779 208.984313 
L 376.533261 205.591886 
L 379.153808 204.557975 
L 381.297891 203.934032 
L 383.441975 203.540743 
L 385.586058 203.391205 
L 387.730142 203.483529 
L 389.874225 203.801616 
L 392.256541 204.384515 
L 395.115319 205.327556 
L 399.879949 207.188238 
L 404.168116 208.769994 
L 407.026894 209.588793 
L 409.647441 210.096384 
L 412.029756 210.327448 
L 414.412071 210.332388 
L 416.794386 210.121873 
L 419.414933 209.672653 
L 422.750174 208.852368 
L 426.085415 207.879939 
L 426.085415 207.879939 
" clip-path="url(#p783c2e3be2)" style="fill: none; stroke: #0000ff; stroke-linecap: square"/>
   </g>
   <g id="line2d_75">
    <path d="M 44.915 131.309707 
L 45.867926 134.55412 
L 46.820852 138.598559 
L 48.01201 144.681157 
L 49.441399 153.298512 
L 51.109019 164.823528 
L 53.491334 183.135386 
L 58.970659 226.199458 
L 60.876511 239.170992 
L 62.3059 247.613863 
L 63.735289 254.739224 
L 64.926447 259.560967 
L 65.879373 262.640264 
L 66.832299 265.002613 
L 67.546993 266.295213 
L 68.261688 267.174029 
L 68.976382 267.639334 
L 69.452845 267.7212 
L 69.929308 267.622152 
L 70.405771 267.344284 
L 71.120466 266.59804 
L 71.835161 265.466338 
L 72.549855 263.962493 
L 73.502781 261.405773 
L 74.693939 257.38483 
L 75.885096 252.538496 
L 77.314485 245.789001 
L 79.220337 235.552582 
L 82.079115 218.6488 
L 85.89082 196.134404 
L 87.796672 186.066382 
L 89.464292 178.386868 
L 90.893681 172.837636 
L 92.084839 169.034587 
L 93.275996 166.034244 
L 94.228922 164.236427 
L 94.943617 163.247076 
L 95.658311 162.567909 
L 96.373006 162.198856 
L 97.087701 162.137771 
L 97.802395 162.380479 
L 98.51709 162.92083 
L 99.231784 163.750775 
L 100.18471 165.290542 
L 101.137636 167.299282 
L 102.328794 170.418794 
L 103.758183 174.955153 
L 105.425803 181.154333 
L 107.569887 190.160251 
L 114.955064 222.277267 
L 116.622684 228.185718 
L 118.052073 232.497911 
L 119.243231 235.487946 
L 120.434388 237.884332 
L 121.387314 239.353678 
L 122.340241 240.414343 
L 123.054935 240.938751 
L 123.76963 241.230593 
L 124.484324 241.291378 
L 125.199019 241.12414 
L 125.913713 240.733392 
L 126.628408 240.125079 
L 127.581334 238.988388 
L 128.53426 237.498953 
L 129.725417 235.179015 
L 131.154806 231.797471 
L 132.822427 227.167685 
L 134.966511 220.430403 
L 142.589919 195.655525 
L 144.257539 191.301048 
L 145.686928 188.144024 
L 146.878086 185.971907 
L 148.069244 184.249079 
L 149.02217 183.208566 
L 149.975096 182.47545 
L 150.928022 182.052348 
L 151.642716 181.937933 
L 152.357411 181.995524 
L 153.310337 182.33463 
L 154.263263 182.964187 
L 155.216189 183.870974 
L 156.407346 185.369285 
L 157.598504 187.237403 
L 159.027893 189.905446 
L 160.695514 193.497979 
L 163.077829 199.243885 
L 169.033616 213.97969 
L 170.939468 217.993225 
L 172.607089 220.972547 
L 174.036478 223.057717 
L 175.227636 224.431674 
L 176.418793 225.456299 
L 177.371719 226.017313 
L 178.324645 226.345919 
L 179.277571 226.44282 
L 180.230497 226.311453 
L 181.183423 225.957896 
L 182.136349 225.390748 
L 183.327507 224.398356 
L 184.518664 223.115674 
L 185.948054 221.237046 
L 187.615674 218.655073 
L 189.759758 214.884989 
L 197.621397 200.558337 
L 199.289018 198.143238 
L 200.718407 196.401342 
L 202.147796 195.002081 
L 203.338954 194.117568 
L 204.530111 193.499953 
L 205.721269 193.154063 
L 206.912426 193.079585 
L 208.103584 193.271194 
L 209.294741 193.718779 
L 210.485899 194.407745 
L 211.915288 195.526535 
L 213.344677 196.926632 
L 215.012298 198.854668 
L 217.156381 201.674742 
L 225.256253 212.702997 
L 227.162105 214.709803 
L 228.829725 216.121324 
L 230.259114 217.042956 
L 231.688503 217.680691 
L 232.879661 217.988873 
L 234.070818 218.093155 
L 235.261976 217.996645 
L 236.453133 217.706083 
L 237.882523 217.115796 
L 239.311912 216.284365 
L 240.979532 215.0488 
L 242.885384 213.353815 
L 245.505931 210.693868 
L 251.69995 204.271194 
L 253.844034 202.436537 
L 255.749886 201.115971 
L 257.417506 200.242179 
L 258.846895 199.720901 
L 260.276284 199.418086 
L 261.705673 199.335312 
L 263.135063 199.468275 
L 264.564452 199.807069 
L 266.232072 200.442102 
L 268.137924 201.444435 
L 270.282008 202.853848 
L 273.140786 205.034041 
L 279.096574 209.66451 
L 281.478889 211.182846 
L 283.384741 212.148452 
L 285.290593 212.852353 
L 286.958213 213.23537 
L 288.625834 213.394112 
L 290.293455 213.330578 
L 291.961075 213.0547 
L 293.866927 212.501811 
L 296.011011 211.620514 
L 298.631557 210.262353 
L 302.919725 207.716507 
L 306.731429 205.553591 
L 309.113744 204.433921 
L 311.257827 203.653951 
L 313.163679 203.173175 
L 315.069532 202.908031 
L 316.975384 202.862489 
L 318.881236 203.030074 
L 321.025319 203.452831 
L 323.407634 204.170469 
L 326.266412 205.286097 
L 336.510367 209.560361 
L 338.892682 210.203107 
L 341.274998 210.608691 
L 343.419081 210.755729 
L 345.563165 210.696311 
L 347.94548 210.403852 
L 350.566026 209.845735 
L 353.663036 208.950917 
L 364.383454 205.632328 
L 367.242232 205.11176 
L 369.862779 204.867007 
L 372.483325 204.854882 
L 375.103872 205.063996 
L 377.96265 205.508572 
L 381.774354 206.349765 
L 391.303615 208.585626 
L 394.638856 209.061964 
L 397.735865 209.263705 
L 400.832875 209.223054 
L 403.929885 208.9602 
L 407.741589 208.401207 
L 421.320785 206.169718 
L 424.894257 205.960053 
L 426.085415 205.944161 
L 426.085415 205.944161 
" clip-path="url(#p783c2e3be2)" style="fill: none; stroke: #ff0000; stroke-linecap: square"/>
   </g>
   <g id="line2d_76">
    <path d="M 44.915 174.773917 
L 47.059084 137.879892 
L 48.726704 113.057612 
L 50.156093 95.138986 
L 51.347251 82.873478 
L 52.300177 74.930168 
L 53.253103 68.716089 
L 53.967797 65.214927 
L 54.682492 62.717754 
L 55.158955 61.6119 
L 55.635418 60.952042 
L 56.111881 60.735711 
L 56.588344 60.95914 
L 57.064807 61.617287 
L 57.54127 62.703861 
L 58.255965 65.120283 
L 58.970659 68.453227 
L 59.923585 74.259917 
L 60.876511 81.531525 
L 62.067669 92.504069 
L 63.497058 108.092407 
L 65.164678 128.989499 
L 67.308762 158.822382 
L 73.502781 247.028703 
L 75.170402 267.279165 
L 76.599791 282.387115 
L 78.02918 295.057717 
L 79.220337 303.56169 
L 80.173263 308.937235 
L 81.126189 313.000869 
L 81.840884 315.173651 
L 82.555578 316.592261 
L 83.032041 317.119662 
L 83.508505 317.314296 
L 83.984968 317.178892 
L 84.461431 316.717138 
L 84.937894 315.93366 
L 85.652588 314.167571 
L 86.367283 311.712688 
L 87.320209 307.414775 
L 88.273135 302.014567 
L 89.464292 293.846107 
L 90.893681 282.218049 
L 92.561302 266.603565 
L 94.705385 244.277305 
L 100.899405 178.089474 
L 102.805257 160.839734 
L 104.234646 149.743646 
L 105.425803 141.906912 
L 106.616961 135.474031 
L 107.569887 131.396122 
L 108.522813 128.300714 
L 109.237508 126.634781 
L 109.952202 125.534257 
L 110.428665 125.114327 
L 110.905128 124.944058 
L 111.381591 125.021473 
L 111.858054 125.343878 
L 112.334517 125.907871 
L 113.049212 127.197717 
L 113.763906 129.005196 
L 114.716832 132.185695 
L 115.669758 136.195597 
L 116.860916 142.276039 
L 118.290305 150.949421 
L 119.957925 162.616182 
L 122.102009 179.324085 
L 128.53426 230.709679 
L 130.20188 241.967756 
L 131.631269 250.329798 
L 132.822427 256.24516 
L 134.013584 261.110874 
L 134.966511 264.203919 
L 135.919437 266.561185 
L 136.634131 267.837868 
L 137.348826 268.690673 
L 138.06352 269.120201 
L 138.539983 269.172976 
L 139.016446 269.040793 
L 139.492909 268.725887 
L 140.207604 267.917096 
L 140.922298 266.714945 
L 141.875224 264.524558 
L 142.82815 261.699205 
L 144.019308 257.345424 
L 145.448697 251.053171 
L 147.116317 242.497397 
L 149.260401 230.123592 
L 156.407346 187.59566 
L 158.074967 179.446322 
L 159.504356 173.476183 
L 160.695514 169.318446 
L 161.886671 165.966924 
L 162.839597 163.895006 
L 163.792523 162.38014 
L 164.507218 161.613995 
L 165.221912 161.165646 
L 165.936607 161.033364 
L 166.651301 161.213329 
L 167.365996 161.699687 
L 168.08069 162.484619 
L 168.795385 163.558426 
L 169.748311 165.419422 
L 170.701237 167.741501 
L 171.892394 171.236182 
L 173.321784 176.190038 
L 174.989404 182.818659 
L 177.371719 193.355784 
L 183.089275 219.141129 
L 184.995127 226.488778 
L 186.424517 231.23702 
L 187.853906 235.211574 
L 189.045063 237.872337 
L 189.997989 239.548872 
L 190.950915 240.810304 
L 191.903841 241.649883 
L 192.618536 242.001565 
L 193.33323 242.116137 
L 194.047925 241.996362 
L 194.762619 241.646531 
L 195.477314 241.072411 
L 196.43024 239.970635 
L 197.383166 238.503767 
L 198.574324 236.194649 
L 199.765481 233.409654 
L 201.19487 229.528986 
L 203.100722 223.640662 
L 205.9595 213.912003 
L 210.009436 200.185563 
L 211.915288 194.471585 
L 213.582909 190.14436 
L 215.012298 187.043228 
L 216.203455 184.938863 
L 217.394613 183.301214 
L 218.347539 182.340051 
L 219.300465 181.695024 
L 220.253391 181.367528 
L 220.968085 181.328982 
L 221.68278 181.465391 
L 222.635706 181.913181 
L 223.588632 182.654275 
L 224.541558 183.674067 
L 225.732716 185.313615 
L 226.923873 187.320514 
L 228.353262 190.148332 
L 230.259114 194.483367 
L 232.879661 201.103775 
L 237.644291 213.214093 
L 239.550143 217.443553 
L 241.217764 220.626392 
L 242.647153 222.890647 
L 243.83831 224.413389 
L 245.029468 225.583463 
L 245.982394 226.256678 
L 246.93532 226.692422 
L 247.888246 226.890226 
L 248.841172 226.852454 
L 249.794098 226.58422 
L 250.747024 226.093269 
L 251.938182 225.182205 
L 253.129339 223.96435 
L 254.558728 222.140644 
L 256.226349 219.590375 
L 258.132201 216.251252 
L 261.22921 210.29735 
L 264.802683 203.498966 
L 266.946767 199.893163 
L 268.614387 197.49544 
L 270.043776 195.786602 
L 271.473165 194.435737 
L 272.664323 193.602028 
L 273.85548 193.043492 
L 275.046638 192.763662 
L 276.237796 192.760831 
L 277.428953 193.028213 
L 278.620111 193.554191 
L 279.811268 194.322657 
L 281.240657 195.536205 
L 282.908278 197.300407 
L 284.81413 199.681493 
L 287.434676 203.364166 
L 292.67577 210.847478 
L 294.819853 213.471478 
L 296.487474 215.189325 
L 297.916863 216.392321 
L 299.346252 217.320372 
L 300.775641 217.956976 
L 301.966799 218.258622 
L 303.157956 218.351544 
L 304.349114 218.239175 
L 305.540271 217.928663 
L 306.96966 217.309699 
L 308.399049 216.445292 
L 310.06667 215.167164 
L 311.972522 213.42021 
L 314.593069 210.687572 
L 320.548856 204.348035 
L 322.69294 202.444508 
L 324.598792 201.06475 
L 326.266412 200.142953 
L 327.695802 199.584632 
L 329.125191 199.249484 
L 330.55458 199.139808 
L 331.983969 199.251852 
L 333.413358 199.576089 
L 335.080978 200.202435 
L 336.748599 201.065373 
L 338.654451 202.290719 
L 341.274998 204.271012 
L 348.898406 210.272574 
L 351.042489 211.58904 
L 352.948342 212.502994 
L 354.615962 213.076846 
L 356.283583 213.425567 
L 357.951203 213.544344 
L 359.618824 213.436811 
L 361.286444 213.114623 
L 363.192296 212.508217 
L 365.33638 211.568983 
L 367.956927 210.147905 
L 377.724419 204.536724 
L 379.868502 203.693385 
L 381.774354 203.156548 
L 383.680206 202.838319 
L 385.586058 202.745042 
L 387.49191 202.872268 
L 389.635994 203.260413 
L 391.780078 203.874492 
L 394.400624 204.863676 
L 398.212328 206.570659 
L 403.21519 208.781468 
L 406.073968 209.786825 
L 408.456283 210.391078 
L 410.600367 210.7226 
L 412.74445 210.841508 
L 414.888534 210.750128 
L 417.270849 210.420164 
L 419.891396 209.821641 
L 423.226637 208.805845 
L 426.085415 207.823266 
L 426.085415 207.823266 
" clip-path="url(#p783c2e3be2)" style="fill: none; stroke: #0000ff; stroke-linecap: square"/>
   </g>
   <g id="line2d_77">
    <path d="M 44.915 120.443654 
L 45.867926 124.611695 
L 47.059084 131.078063 
L 48.250241 138.795349 
L 49.67963 149.461778 
L 51.585482 165.523724 
L 54.44426 191.842003 
L 58.017733 224.523664 
L 59.923585 240.157762 
L 61.591206 252.094394 
L 63.020595 260.729333 
L 64.211752 266.65484 
L 65.164678 270.503795 
L 66.117604 273.52723 
L 66.832299 275.240913 
L 67.546993 276.474643 
L 68.261688 277.227303 
L 68.738151 277.462733 
L 69.214614 277.486648 
L 69.691077 277.301083 
L 70.16754 276.908674 
L 70.882235 275.939452 
L 71.596929 274.525542 
L 72.549855 271.976781 
L 73.502781 268.711701 
L 74.693939 263.704334 
L 76.123328 256.495318 
L 77.790948 246.723831 
L 79.935032 232.632002 
L 86.843746 185.866999 
L 88.511366 176.496839 
L 89.940755 169.596874 
L 91.131913 164.763128 
L 92.32307 160.836509 
L 93.275996 158.382715 
L 94.228922 156.558961 
L 94.943617 155.610418 
L 95.658311 155.022586 
L 96.373006 154.79403 
L 96.849469 154.839468 
L 97.564164 155.20007 
L 98.278858 155.90464 
L 98.993553 156.94334 
L 99.946479 158.827122 
L 100.899405 161.249779 
L 102.090562 164.975332 
L 103.519951 170.350744 
L 105.187572 177.649994 
L 107.331655 188.193684 
L 114.240369 223.286104 
L 115.90799 230.338614 
L 117.337379 235.539731 
L 118.528536 239.189593 
L 119.719694 242.161076 
L 120.67262 244.023692 
L 121.625546 245.41441 
L 122.340241 246.143238 
L 123.054935 246.601609 
L 123.76963 246.79048 
L 124.484324 246.712599 
L 125.199019 246.372459 
L 125.913713 245.776242 
L 126.866639 244.596657 
L 127.819565 242.998615 
L 129.010723 240.45452 
L 130.20188 237.361589 
L 131.631269 233.025721 
L 133.537121 226.409853 
L 136.157668 216.354081 
L 140.684067 198.925272 
L 142.589919 192.476424 
L 144.257539 187.605638 
L 145.686928 184.125726 
L 146.878086 181.773161 
L 148.069244 179.95197 
L 149.02217 178.891778 
L 149.975096 178.19061 
L 150.68979 177.901235 
L 151.404485 177.813501 
L 152.119179 177.924993 
L 152.833874 178.231999 
L 153.7868 178.936714 
L 154.739726 179.964971 
L 155.692652 181.298161 
L 156.883809 183.35987 
L 158.313198 186.347992 
L 159.980819 190.420415 
L 162.124903 196.322389 
L 169.271848 216.683701 
L 170.939468 220.600703 
L 172.368857 223.475841 
L 173.798247 225.838624 
L 174.989404 227.381427 
L 175.94233 228.322522 
L 176.895256 228.996323 
L 177.848182 229.400125 
L 178.801108 229.534482 
L 179.754034 229.403135 
L 180.70696 229.012903 
L 181.659886 228.373546 
L 182.851044 227.243338 
L 184.042201 225.773642 
L 185.47159 223.612288 
L 187.139211 220.632084 
L 189.283295 216.268071 
L 197.144934 199.594553 
L 198.812555 196.767617 
L 200.241944 194.722989 
L 201.671333 193.074486 
L 202.862491 192.026813 
L 204.053648 191.288721 
L 205.006574 190.925381 
L 205.9595 190.76444 
L 206.912426 190.803801 
L 207.865352 191.03903 
L 209.05651 191.59814 
L 210.247667 192.435085 
L 211.438825 193.52753 
L 212.868214 195.138145 
L 214.535835 197.363368 
L 216.679918 200.627511 
L 224.77979 213.463223 
L 226.44741 215.544602 
L 228.115031 217.260151 
L 229.54442 218.401722 
L 230.735577 219.10428 
L 231.926735 219.572578 
L 233.117892 219.803744 
L 234.30905 219.799357 
L 235.500207 219.565314 
L 236.691365 219.111614 
L 238.120754 218.29692 
L 239.550143 217.216367 
L 241.217764 215.668736 
L 243.361847 213.328316 
L 246.458857 209.550892 
L 250.508793 204.644192 
L 252.652876 202.379141 
L 254.558728 200.694001 
L 256.226349 199.528646 
L 257.655738 198.785565 
L 259.085127 198.292325 
L 260.514516 198.054631 
L 261.943905 198.071241 
L 263.373294 198.334196 
L 264.802683 198.829238 
L 266.470304 199.673153 
L 268.137924 200.765233 
L 270.282008 202.456298 
L 273.140786 205.0262 
L 278.381879 209.777421 
L 280.525963 211.423042 
L 282.431815 212.626261 
L 284.099435 213.439605 
L 285.767056 214.006521 
L 287.434676 214.315071 
L 289.102297 214.363035 
L 290.769918 214.157648 
L 292.437538 213.715018 
L 294.34339 212.949889 
L 296.487474 211.81522 
L 299.10802 210.148429 
L 307.446123 204.616484 
L 309.590207 203.554226 
L 311.496059 202.837423 
L 313.401911 202.361242 
L 315.307763 202.138563 
L 317.213615 202.169883 
L 319.119467 202.443774 
L 321.025319 202.93789 
L 323.169403 203.717113 
L 325.789949 204.909885 
L 331.031043 207.625276 
L 334.366284 209.217078 
L 336.98683 210.219311 
L 339.130914 210.816301 
L 341.274998 211.183457 
L 343.419081 211.309192 
L 345.563165 211.196698 
L 347.707248 210.863105 
L 350.089563 210.269304 
L 352.948342 209.322553 
L 358.427666 207.200149 
L 362.23937 205.85203 
L 365.098149 205.080331 
L 367.480464 204.651553 
L 369.862779 204.441467 
L 372.245094 204.454682 
L 374.627409 204.679347 
L 377.486187 205.189649 
L 380.821428 206.028177 
L 391.303615 208.863451 
L 394.162393 209.326409 
L 397.021171 209.559382 
L 399.879949 209.551561 
L 402.738727 209.317783 
L 406.073968 208.810437 
L 410.838598 207.821261 
L 417.509081 206.451384 
L 421.082553 205.957956 
L 424.179563 205.741383 
L 426.085415 205.71355 
L 426.085415 205.71355 
" clip-path="url(#p783c2e3be2)" style="fill: none; stroke: #ff0000; stroke-linecap: square"/>
   </g>
   <g id="line2d_78">
    <path d="M 44.915 163.907864 
L 46.820852 126.893396 
L 48.488473 98.743027 
L 49.917862 78.469904 
L 51.109019 64.63178 
L 52.061945 55.700439 
L 53.014871 48.74613 
L 53.729566 44.854863 
L 54.44426 42.109722 
L 54.920723 40.917334 
L 55.397186 40.233561 
L 55.873649 40.055385 
L 56.111881 40.154546 
L 56.588344 40.725872 
L 57.064807 41.788837 
L 57.54127 43.335376 
L 58.255965 46.540901 
L 58.970659 50.775605 
L 59.923585 57.946466 
L 60.876511 66.748855 
L 62.067669 79.836338 
L 63.497058 98.198728 
L 65.164678 122.554588 
L 67.546993 160.937543 
L 72.788087 246.502885 
L 74.693939 273.468749 
L 76.123328 291.020467 
L 77.552717 305.833489 
L 78.743874 315.857708 
L 79.6968 322.259621 
L 80.649726 327.171176 
L 81.364421 329.85878 
L 82.079115 331.686217 
L 82.555578 332.426681 
L 83.032041 332.786576 
L 83.508505 332.768616 
L 83.984968 332.376613 
L 84.461431 331.615459 
L 84.937894 330.491098 
L 85.652588 328.139064 
L 86.367283 325.013408 
L 87.320209 319.699187 
L 88.273135 313.156993 
L 89.464292 303.408853 
L 90.893681 289.706353 
L 92.561302 271.502393 
L 94.943617 242.7688 
L 100.18471 178.559755 
L 102.090562 158.275449 
L 103.519951 145.053399 
L 104.94934 133.876009 
L 106.140498 126.295832 
L 107.093424 121.441992 
L 108.04635 117.704162 
L 108.761044 115.647091 
L 109.475739 114.234823 
L 109.952202 113.651643 
L 110.428665 113.353956 
L 110.905128 113.339809 
L 111.381591 113.606424 
L 111.858054 114.150211 
L 112.572749 115.475796 
L 113.287443 117.39697 
L 114.240369 120.846937 
L 115.193295 125.255549 
L 116.384453 132.004894 
L 117.813842 141.708123 
L 119.481462 154.845173 
L 121.625546 173.770698 
L 128.53426 236.458202 
L 130.20188 248.994177 
L 131.631269 258.216313 
L 132.822427 264.669612 
L 134.013584 269.904225 
L 134.966511 273.168793 
L 135.919437 275.587782 
L 136.634131 276.839521 
L 137.348826 277.60748 
L 137.825289 277.851571 
L 138.301752 277.882901 
L 138.778215 277.703493 
L 139.254678 277.31598 
L 139.969372 276.351732 
L 140.684067 274.939962 
L 141.636993 272.389695 
L 142.589919 269.118237 
L 143.781076 264.096316 
L 145.210465 256.860791 
L 146.878086 247.04719 
L 149.02217 232.886543 
L 155.930883 185.845018 
L 157.598504 176.409494 
L 159.027893 169.457715 
L 160.219051 164.584734 
L 161.410208 160.623148 
L 162.363134 158.144819 
L 163.31606 156.299839 
L 164.030755 155.337662 
L 164.745449 154.738226 
L 165.460144 154.500143 
L 165.936607 154.5404 
L 166.651301 154.895002 
L 167.365996 155.595704 
L 168.08069 156.632661 
L 169.033616 158.517391 
L 169.986542 160.944653 
L 171.1777 164.680909 
L 172.607089 170.075965 
L 174.27471 177.406555 
L 176.418793 188.001606 
L 183.327507 223.301172 
L 184.995127 230.40278 
L 186.424517 235.642857 
L 187.615674 239.322252 
L 188.806832 242.320087 
L 189.759758 244.201216 
L 190.712684 245.607973 
L 191.427378 246.347121 
L 192.142073 246.814293 
L 192.856767 247.01041 
L 193.571462 246.938194 
L 194.286156 246.602124 
L 195.000851 246.008379 
L 195.715545 245.164771 
L 196.668471 243.667689 
L 197.621397 241.769462 
L 198.812555 238.879359 
L 200.241944 234.743015 
L 201.909565 229.163644 
L 204.053648 221.153053 
L 210.72413 195.587797 
L 212.391751 190.243012 
L 213.82114 186.293376 
L 215.250529 183.019882 
L 216.441687 180.857374 
L 217.394613 179.517822 
L 218.347539 178.535394 
L 219.300465 177.91468 
L 220.015159 177.686805 
L 220.729854 177.661091 
L 221.444548 177.834701 
L 222.159243 178.203504 
L 223.112169 178.989411 
L 224.065095 180.096628 
L 225.256253 181.90247 
L 226.44741 184.134623 
L 227.876799 187.302601 
L 229.54442 191.545889 
L 231.926735 198.297899 
L 237.644291 214.84659 
L 239.550143 219.569672 
L 241.217764 223.08732 
L 242.647153 225.559102 
L 243.83831 227.196077 
L 245.029468 228.426116 
L 245.982394 229.10835 
L 246.93532 229.519089 
L 247.888246 229.658834 
L 248.841172 229.531292 
L 249.794098 229.14327 
L 250.747024 228.50453 
L 251.69995 227.627619 
L 252.891108 226.219819 
L 254.320497 224.119766 
L 255.988117 221.191708 
L 257.893969 217.367108 
L 260.990979 210.564767 
L 264.564452 202.819963 
L 266.708535 198.723213 
L 268.376156 196.005266 
L 269.805545 194.073124 
L 270.996702 192.774883 
L 272.18786 191.778579 
L 273.379017 191.095176 
L 274.331943 190.777244 
L 275.28487 190.662571 
L 276.237796 190.748492 
L 277.190722 191.030015 
L 278.381879 191.645794 
L 279.573037 192.537126 
L 281.002426 193.93738 
L 282.431815 195.652796 
L 284.337667 198.334689 
L 286.719982 202.116929 
L 292.67577 211.788429 
L 294.581622 214.414826 
L 296.249242 216.360884 
L 297.678631 217.719871 
L 299.10802 218.764071 
L 300.299178 219.380213 
L 301.490336 219.759128 
L 302.681493 219.899668 
L 303.872651 219.805119 
L 305.063808 219.483035 
L 306.254966 218.944987 
L 307.684355 218.036013 
L 309.113744 216.870889 
L 310.781364 215.239458 
L 312.925448 212.8185 
L 316.737152 208.08867 
L 319.834162 204.378165 
L 321.978245 202.13624 
L 323.645866 200.669535 
L 325.313486 199.494593 
L 326.742876 198.744523 
L 328.172265 198.24559 
L 329.601654 198.003612 
L 331.031043 198.017417 
L 332.460432 198.27908 
L 333.889821 198.77433 
L 335.557441 199.620317 
L 337.225062 200.716299 
L 339.369146 202.414739 
L 342.227924 204.997678 
L 347.469017 209.77729 
L 349.6131 211.434231 
L 351.518952 212.646557 
L 353.186573 213.466809 
L 354.854194 214.039414 
L 356.521814 214.352275 
L 357.951203 214.41168 
L 359.618824 214.243203 
L 361.286444 213.833133 
L 362.954065 213.204545 
L 364.859917 212.257532 
L 367.242232 210.811044 
L 371.053936 208.176178 
L 375.103872 205.449754 
L 377.486187 204.103739 
L 379.630271 203.149644 
L 381.536123 202.545321 
L 383.441975 202.190898 
L 385.109595 202.091434 
L 387.015447 202.21425 
L 388.921299 202.573971 
L 391.065383 203.228918 
L 393.447698 204.207463 
L 396.544708 205.738341 
L 403.21519 209.115863 
L 405.835737 210.149744 
L 407.97982 210.776055 
L 410.123904 211.173621 
L 412.267987 211.329008 
L 414.412071 211.243691 
L 416.556155 210.933302 
L 418.93847 210.359179 
L 421.797248 209.426094 
L 426.085415 207.766594 
L 426.085415 207.766594 
" clip-path="url(#p783c2e3be2)" style="fill: none; stroke: #0000ff; stroke-linecap: square"/>
   </g>
   <g id="line2d_79">
    <path d="M 44.915 109.577602 
L 45.867926 114.669271 
L 47.059084 122.428763 
L 48.488473 133.542766 
L 50.156093 148.543628 
L 52.300177 170.093701 
L 58.970659 238.940366 
L 60.63828 253.349042 
L 62.067669 264.002377 
L 63.258826 271.499956 
L 64.449984 277.626782 
L 65.40291 281.486957 
L 66.355836 284.391032 
L 67.07053 285.931856 
L 67.785225 286.923714 
L 68.261688 287.280578 
L 68.738151 287.395419 
L 69.214614 287.270304 
L 69.691077 286.907994 
L 70.16754 286.311929 
L 70.882235 284.988698 
L 71.596929 283.165457 
L 72.549855 279.991069 
L 73.502781 276.017629 
L 74.693939 270.023839 
L 76.123328 261.510975 
L 77.790948 250.101591 
L 79.935032 233.816905 
L 86.129051 185.685751 
L 88.034903 173.181555 
L 89.464292 165.152312 
L 90.65545 159.492127 
L 91.846607 154.856927 
L 92.799533 151.928063 
L 93.752459 149.715254 
L 94.467154 148.533164 
L 95.181848 147.76265 
L 95.658311 147.477262 
L 96.134775 147.373458 
L 96.611238 147.449742 
L 97.087701 147.704092 
L 97.802395 148.413822 
L 98.51709 149.507761 
L 99.231784 150.972864 
L 100.18471 153.476883 
L 101.137636 156.570997 
L 102.328794 161.194182 
L 103.758183 167.708137 
L 105.425803 176.379525 
L 107.808118 190.094155 
L 113.049212 220.834443 
L 114.955064 230.574987 
L 116.622684 237.904827 
L 118.052073 243.118978 
L 119.243231 246.62535 
L 120.196157 248.847244 
L 121.149083 250.532877 
L 121.863778 251.439281 
L 122.578472 252.037123 
L 123.293167 252.326993 
L 124.007861 252.311536 
L 124.722556 251.9954 
L 125.43725 251.38518 
L 126.151945 250.489339 
L 127.104871 248.868549 
L 128.057797 246.787334 
L 129.248954 243.59029 
L 130.678343 238.981432 
L 132.345964 232.727518 
L 134.490048 223.699592 
L 141.398761 193.686486 
L 143.066382 187.661863 
L 144.495771 183.221412 
L 145.686928 180.107428 
L 146.878086 177.574415 
L 147.831012 175.988543 
L 148.783938 174.806562 
L 149.736864 174.034503 
L 150.451559 173.725285 
L 151.166253 173.645964 
L 151.880948 173.79365 
L 152.595642 174.163974 
L 153.310337 174.751141 
L 154.263263 175.858779 
L 155.216189 177.318513 
L 156.407346 179.600969 
L 157.836735 182.937944 
L 159.504356 187.517769 
L 161.64844 194.196665 
L 169.271848 218.855645 
L 170.939468 223.208181 
L 172.368857 226.370342 
L 173.560015 228.551302 
L 174.751173 230.286838 
L 175.704099 231.340082 
L 176.657025 232.087997 
L 177.609951 232.52775 
L 178.562877 232.660225 
L 179.277571 232.560511 
L 180.230497 232.16822 
L 181.183423 231.489394 
L 182.136349 230.537763 
L 183.327507 228.99029 
L 184.518664 227.081333 
L 185.948054 224.376033 
L 187.853906 220.207209 
L 190.474452 213.807257 
L 195.239082 202.019044 
L 197.144934 197.874578 
L 198.812555 194.741372 
L 200.241944 192.500442 
L 201.433102 190.983486 
L 202.624259 189.806986 
L 203.577185 189.120114 
L 204.530111 188.663475 
L 205.483037 188.437928 
L 206.435963 188.441576 
L 207.388889 188.669835 
L 208.341815 189.115551 
L 209.532973 189.963653 
L 210.72413 191.112674 
L 212.15352 192.848027 
L 213.82114 195.290496 
L 215.726992 198.505166 
L 218.58577 203.815147 
L 222.635706 211.304953 
L 224.77979 214.782193 
L 226.44741 217.08629 
L 227.876799 218.721985 
L 229.306188 220.008121 
L 230.497346 220.795385 
L 231.688503 221.315033 
L 232.879661 221.564065 
L 234.070818 221.544557 
L 235.261976 221.2635 
L 236.453133 220.732549 
L 237.644291 219.967691 
L 239.07368 218.769394 
L 240.741301 217.037057 
L 242.647153 214.708856 
L 245.267699 211.121842 
L 250.508793 203.871501 
L 252.652876 201.342866 
L 254.320497 199.69368 
L 255.749886 198.543756 
L 257.179275 197.662114 
L 258.608664 197.064223 
L 259.799821 196.788373 
L 260.990979 196.715012 
L 262.182136 196.840497 
L 263.611526 197.243137 
L 265.040915 197.902691 
L 266.470304 198.794063 
L 268.137924 200.086031 
L 270.282008 202.058748 
L 273.379017 205.272825 
L 277.905416 209.952286 
L 280.0495 211.854765 
L 281.955352 213.255774 
L 283.622972 214.211851 
L 285.290593 214.888786 
L 286.719982 215.235343 
L 288.149371 215.362973 
L 289.57876 215.274759 
L 291.008149 214.979421 
L 292.67577 214.391969 
L 294.34339 213.571979 
L 296.249242 212.398514 
L 298.869789 210.48993 
L 306.96966 204.337606 
L 309.113744 203.102758 
L 311.019596 202.261088 
L 312.687216 201.747502 
L 314.354837 201.454086 
L 316.022458 201.383833 
L 317.690078 201.531596 
L 319.357699 201.884556 
L 321.263551 202.513563 
L 323.407634 203.461611 
L 326.028181 204.870052 
L 334.842747 209.849231 
L 337.225062 210.816355 
L 339.369146 211.433523 
L 341.274998 211.758223 
L 343.18085 211.864636 
L 345.086702 211.756333 
L 347.230785 211.394998 
L 349.374869 210.811795 
L 351.995416 209.862942 
L 355.80712 208.212562 
L 361.048213 205.965696 
L 363.906991 204.99888 
L 366.289306 204.421871 
L 368.671621 204.087481 
L 370.815705 204.004684 
L 373.19802 204.149794 
L 375.580335 204.522086 
L 378.439113 205.214126 
L 382.250817 206.40548 
L 389.159531 208.613194 
L 392.256541 209.336241 
L 394.877087 209.728119 
L 397.497634 209.892556 
L 400.11818 209.827314 
L 402.976958 209.515841 
L 406.073968 208.949522 
L 410.600367 207.868183 
L 416.794386 206.402716 
L 420.129627 205.840061 
L 423.226637 205.543237 
L 426.085415 205.482939 
L 426.085415 205.482939 
" clip-path="url(#p783c2e3be2)" style="fill: none; stroke: #ff0000; stroke-linecap: square"/>
   </g>
   <g id="patch_3">
    <path d="M 44.915 338.68 
L 44.915 34.2 
" style="fill: none; stroke: #000000; stroke-width: 0.8; stroke-linejoin: miter; stroke-linecap: square"/>
   </g>
   <g id="patch_4">
    <path d="M 37.291592 207.372074 
L 433.708823 207.372074 
" style="fill: none; stroke: #000000; stroke-width: 0.8; stroke-linejoin: miter; stroke-linecap: square"/>
   </g>
   <g id="legend_1">
    <g id="patch_5">
     <path d="M 396.108823 73.596875 
L 430.708823 73.596875 
L 430.708823 41.2 
L 396.108823 41.2 
z
" style="fill: #4c4c4c; opacity: 0.5; stroke: #4c4c4c; stroke-linejoin: miter"/>
    </g>
    <g id="patch_6">
     <path d="M 394.108823 71.596875 
L 428.708823 71.596875 
L 428.708823 39.2 
L 394.108823 39.2 
z
" style="fill: #ffffff; stroke: #cccccc; stroke-linejoin: miter"/>
    </g>
    <g id="line2d_80">
     <path d="M 403.108823 49.298438 
L 397.608823 49.298438 
" style="fill: none; stroke: #0000ff; stroke-linecap: square"/>
    </g>
    <g id="text_16">
     <!-- $x(t)$ -->
     <g style="fill: #0000ff" transform="translate(405.608823 52.798438)scale(0.1 -0.1)">
      <use xlink:href="#Cmmi10-78"/>
      <use xlink:href="#Cmr10-28" transform="translate(57.080078 0)"/>
      <use xlink:href="#Cmmi10-74" transform="translate(95.898438 0)"/>
      <use xlink:href="#Cmr10-29" transform="translate(131.982422 0)"/>
     </g>
    </g>
    <g id="line2d_81">
     <path d="M 403.108823 59.596875 
L 397.608823 59.596875 
" style="fill: none; stroke: #ff0000; stroke-linecap: square"/>
    </g>
    <g id="text_17">
     <!-- $v(t)$ -->
     <g style="fill: #ff0000" transform="translate(405.608823 63.096875)scale(0.1 -0.1)">
      <use xlink:href="#Cmmi10-76"/>
      <use xlink:href="#Cmr10-28" transform="translate(48.388672 0)"/>
      <use xlink:href="#Cmmi10-74" transform="translate(87.207031 0)"/>
      <use xlink:href="#Cmr10-29" transform="translate(123.291016 0)"/>
     </g>
    </g>
   </g>
  </g>
 </g>
 <defs>
  <clipPath id="p783c2e3be2">
   <rect x="37.291592" y="34.2" width="396.417231" height="304.48"/>
  </clipPath>
 </defs>
</svg>
