<?xml version="1.0" encoding="utf-8" standalone="no"?>
<!DOCTYPE svg PUBLIC "-//W3C//DTD SVG 1.1//EN"
  "http://www.w3.org/Graphics/SVG/1.1/DTD/svg11.dtd">
<svg xmlns:xlink="http://www.w3.org/1999/xlink" width="455.267854pt" height="344.32pt" viewBox="0 0 455.267854 344.32" xmlns="http://www.w3.org/2000/svg" version="1.1">
 <metadata>
  <rdf:RDF xmlns:dc="http://purl.org/dc/elements/1.1/" xmlns:cc="http://creativecommons.org/ns#" xmlns:rdf="http://www.w3.org/1999/02/22-rdf-syntax-ns#">
   <cc:Work>
    <dc:type rdf:resource="http://purl.org/dc/dcmitype/StillImage"/>
    <dc:date>2022-07-30T11:11:26.914257</dc:date>
    <dc:format>image/svg+xml</dc:format>
    <dc:creator>
     <cc:Agent>
      <dc:title>Matplotlib v3.5.1, https://matplotlib.org/</dc:title>
     </cc:Agent>
    </dc:creator>
   </cc:Work>
  </rdf:RDF>
 </metadata>
 <defs>
  <style type="text/css">*{stroke-linejoin: round; stroke-linecap: butt}</style>
 </defs>
 <g id="figure_1">
  <g id="patch_1">
   <path d="M 0 344.32 
L 455.267854 344.32 
L 455.267854 0 
L 0 0 
z
" style="fill: #ffffff"/>
  </g>
  <g id="axes_1">
   <g id="patch_2">
    <path d="M 108.538277 337.12 
L 434.147854 337.12 
L 434.147854 31.2 
L 108.538277 31.2 
z
" style="fill: #ffffff"/>
   </g>
   <g id="matplotlib.axis_1">
    <g id="xtick_1">
     <g id="line2d_1">
      <defs>
       <path id="m8364804420" d="M 0 0 
L 0 3.5 
" style="stroke: #000000; stroke-width: 0.8"/>
      </defs>
      <g>
       <use xlink:href="#m8364804420" x="114.8" y="184.160004" style="stroke: #000000; stroke-width: 0.8"/>
      </g>
     </g>
    </g>
    <g id="xtick_2">
     <g id="line2d_2">
      <g>
       <use xlink:href="#m8364804420" x="146.108613" y="184.160004" style="stroke: #000000; stroke-width: 0.8"/>
      </g>
     </g>
     <g id="text_1">
      <!-- $\pi$ -->
      <g transform="translate(143.258613 198.758442)scale(0.1 -0.1)">
       <defs>
        <path id="Cmmi10-bc" d="M 647 109 
Q 647 144 672 213 
Q 850 584 1004 942 
Q 1159 1300 1282 1639 
Q 1406 1978 1509 2363 
L 1100 2363 
Q 866 2363 662 2216 
Q 459 2069 325 1844 
Q 313 1819 288 1819 
L 213 1819 
Q 153 1819 153 1881 
Q 153 1894 166 1919 
Q 375 2275 614 2517 
Q 853 2759 1153 2759 
L 3475 2759 
Q 3541 2759 3587 2715 
Q 3634 2672 3634 2597 
Q 3634 2503 3567 2433 
Q 3500 2363 3406 2363 
L 2591 2363 
Q 2488 1859 2478 1381 
Q 2478 766 2694 269 
Q 2713 231 2713 191 
Q 2713 122 2672 62 
Q 2631 3 2567 -34 
Q 2503 -72 2431 -72 
Q 2263 -72 2200 203 
Q 2138 478 2138 738 
Q 2138 1103 2200 1442 
Q 2263 1781 2400 2363 
L 1703 2363 
Q 1197 313 1094 103 
Q 1003 -72 844 -72 
Q 766 -72 706 -20 
Q 647 31 647 109 
z
" transform="scale(0.015625)"/>
       </defs>
       <use xlink:href="#Cmmi10-bc" transform="translate(0 0.890625)"/>
      </g>
     </g>
    </g>
    <g id="xtick_3">
     <g id="line2d_3">
      <g>
       <use xlink:href="#m8364804420" x="177.417226" y="184.160004" style="stroke: #000000; stroke-width: 0.8"/>
      </g>
     </g>
     <g id="text_2">
      <!-- $2 \, \pi$ -->
      <g transform="translate(171.317226 198.758442)scale(0.1 -0.1)">
       <defs>
        <path id="Cmr10-32" d="M 319 0 
L 319 172 
Q 319 188 331 206 
L 1325 1306 
Q 1550 1550 1690 1715 
Q 1831 1881 1968 2097 
Q 2106 2313 2186 2536 
Q 2266 2759 2266 3009 
Q 2266 3272 2169 3511 
Q 2072 3750 1880 3894 
Q 1688 4038 1416 4038 
Q 1138 4038 916 3870 
Q 694 3703 603 3438 
Q 628 3444 672 3444 
Q 816 3444 917 3347 
Q 1019 3250 1019 3097 
Q 1019 2950 917 2848 
Q 816 2747 672 2747 
Q 522 2747 420 2851 
Q 319 2956 319 3097 
Q 319 3338 409 3548 
Q 500 3759 670 3923 
Q 841 4088 1055 4175 
Q 1269 4263 1509 4263 
Q 1875 4263 2190 4108 
Q 2506 3953 2690 3670 
Q 2875 3388 2875 3009 
Q 2875 2731 2753 2481 
Q 2631 2231 2440 2026 
Q 2250 1822 1953 1562 
Q 1656 1303 1563 1216 
L 838 519 
L 1453 519 
Q 1906 519 2211 526 
Q 2516 534 2534 550 
Q 2609 631 2688 1141 
L 2875 1141 
L 2694 0 
L 319 0 
z
" transform="scale(0.015625)"/>
       </defs>
       <use xlink:href="#Cmr10-32" transform="translate(0 0.390625)"/>
       <use xlink:href="#Cmmi10-bc" transform="translate(64.632454 0.390625)"/>
      </g>
     </g>
    </g>
    <g id="xtick_4">
     <g id="line2d_4">
      <g>
       <use xlink:href="#m8364804420" x="208.72584" y="184.160004" style="stroke: #000000; stroke-width: 0.8"/>
      </g>
     </g>
     <g id="text_3">
      <!-- $3 \, \pi$ -->
      <g transform="translate(202.62584 198.758442)scale(0.1 -0.1)">
       <defs>
        <path id="Cmr10-33" d="M 609 494 
Q 759 275 1012 169 
Q 1266 63 1556 63 
Q 1928 63 2084 380 
Q 2241 697 2241 1100 
Q 2241 1281 2208 1462 
Q 2175 1644 2097 1800 
Q 2019 1956 1883 2050 
Q 1747 2144 1550 2144 
L 1125 2144 
Q 1069 2144 1069 2203 
L 1069 2259 
Q 1069 2309 1125 2309 
L 1478 2338 
Q 1703 2338 1851 2506 
Q 2000 2675 2069 2917 
Q 2138 3159 2138 3378 
Q 2138 3684 1994 3881 
Q 1850 4078 1556 4078 
Q 1313 4078 1091 3986 
Q 869 3894 738 3706 
Q 750 3709 759 3711 
Q 769 3713 781 3713 
Q 925 3713 1022 3613 
Q 1119 3513 1119 3372 
Q 1119 3234 1022 3134 
Q 925 3034 781 3034 
Q 641 3034 541 3134 
Q 441 3234 441 3372 
Q 441 3647 606 3850 
Q 772 4053 1033 4158 
Q 1294 4263 1556 4263 
Q 1750 4263 1965 4205 
Q 2181 4147 2356 4039 
Q 2531 3931 2642 3762 
Q 2753 3594 2753 3378 
Q 2753 3109 2633 2881 
Q 2513 2653 2303 2487 
Q 2094 2322 1844 2241 
Q 2122 2188 2372 2031 
Q 2622 1875 2773 1631 
Q 2925 1388 2925 1106 
Q 2925 753 2731 467 
Q 2538 181 2222 20 
Q 1906 -141 1556 -141 
Q 1256 -141 954 -26 
Q 653 88 461 316 
Q 269 544 269 863 
Q 269 1022 375 1128 
Q 481 1234 641 1234 
Q 744 1234 830 1186 
Q 916 1138 964 1050 
Q 1013 963 1013 863 
Q 1013 706 903 600 
Q 794 494 641 494 
L 609 494 
z
" transform="scale(0.015625)"/>
       </defs>
       <use xlink:href="#Cmr10-33" transform="translate(0 0.390625)"/>
       <use xlink:href="#Cmmi10-bc" transform="translate(64.632454 0.390625)"/>
      </g>
     </g>
    </g>
    <g id="xtick_5">
     <g id="line2d_5">
      <g>
       <use xlink:href="#m8364804420" x="240.034453" y="184.160004" style="stroke: #000000; stroke-width: 0.8"/>
      </g>
     </g>
     <g id="text_4">
      <!-- $4 \, \pi$ -->
      <g transform="translate(233.934453 198.758442)scale(0.1 -0.1)">
       <defs>
        <path id="Cmr10-34" d="M 178 1056 
L 178 1281 
L 2156 4231 
Q 2178 4263 2222 4263 
L 2316 4263 
Q 2388 4263 2388 4191 
L 2388 1281 
L 3016 1281 
L 3016 1056 
L 2388 1056 
L 2388 428 
Q 2388 297 2575 261 
Q 2763 225 3009 225 
L 3009 0 
L 1247 0 
L 1247 225 
Q 1494 225 1681 261 
Q 1869 297 1869 428 
L 1869 1056 
L 178 1056 
z
M 391 1281 
L 1906 1281 
L 1906 3547 
L 391 1281 
z
" transform="scale(0.015625)"/>
       </defs>
       <use xlink:href="#Cmr10-34" transform="translate(0 0.390625)"/>
       <use xlink:href="#Cmmi10-bc" transform="translate(64.632454 0.390625)"/>
      </g>
     </g>
    </g>
    <g id="xtick_6">
     <g id="line2d_6">
      <g>
       <use xlink:href="#m8364804420" x="271.343066" y="184.160004" style="stroke: #000000; stroke-width: 0.8"/>
      </g>
     </g>
     <g id="text_5">
      <!-- $5 \, \pi$ -->
      <g transform="translate(265.243066 198.758442)scale(0.1 -0.1)">
       <defs>
        <path id="Cmr10-35" d="M 556 728 
Q 622 541 758 387 
Q 894 234 1080 148 
Q 1266 63 1466 63 
Q 1928 63 2103 422 
Q 2278 781 2278 1294 
Q 2278 1516 2270 1667 
Q 2263 1819 2228 1959 
Q 2169 2184 2020 2353 
Q 1872 2522 1656 2522 
Q 1441 2522 1286 2456 
Q 1131 2391 1034 2303 
Q 938 2216 863 2119 
Q 788 2022 769 2016 
L 697 2016 
Q 681 2016 657 2036 
Q 634 2056 634 2075 
L 634 4213 
Q 634 4228 654 4245 
Q 675 4263 697 4263 
L 716 4263 
Q 1147 4056 1631 4056 
Q 2106 4056 2547 4263 
L 2566 4263 
Q 2588 4263 2606 4247 
Q 2625 4231 2625 4213 
L 2625 4153 
Q 2625 4122 2613 4122 
Q 2394 3831 2064 3668 
Q 1734 3506 1381 3506 
Q 1125 3506 856 3578 
L 856 2369 
Q 1069 2541 1236 2614 
Q 1403 2688 1663 2688 
Q 2016 2688 2295 2484 
Q 2575 2281 2725 1954 
Q 2875 1628 2875 1288 
Q 2875 903 2686 575 
Q 2497 247 2172 53 
Q 1847 -141 1466 -141 
Q 1150 -141 886 21 
Q 622 184 470 459 
Q 319 734 319 1044 
Q 319 1188 412 1278 
Q 506 1369 647 1369 
Q 788 1369 883 1276 
Q 978 1184 978 1044 
Q 978 906 883 811 
Q 788 716 647 716 
Q 625 716 597 720 
Q 569 725 556 728 
z
" transform="scale(0.015625)"/>
       </defs>
       <use xlink:href="#Cmr10-35" transform="translate(0 0.390625)"/>
       <use xlink:href="#Cmmi10-bc" transform="translate(64.632454 0.390625)"/>
      </g>
     </g>
    </g>
    <g id="xtick_7">
     <g id="line2d_7">
      <g>
       <use xlink:href="#m8364804420" x="302.651679" y="184.160004" style="stroke: #000000; stroke-width: 0.8"/>
      </g>
     </g>
     <g id="text_6">
      <!-- $6 \, \pi$ -->
      <g transform="translate(296.551679 198.758442)scale(0.1 -0.1)">
       <defs>
        <path id="Cmr10-36" d="M 1600 -141 
Q 1203 -141 937 70 
Q 672 281 526 617 
Q 381 953 325 1322 
Q 269 1691 269 2069 
Q 269 2575 466 3084 
Q 663 3594 1045 3928 
Q 1428 4263 1953 4263 
Q 2172 4263 2361 4180 
Q 2550 4097 2658 3936 
Q 2766 3775 2766 3547 
Q 2766 3416 2677 3327 
Q 2588 3238 2456 3238 
Q 2331 3238 2240 3328 
Q 2150 3419 2150 3547 
Q 2150 3672 2240 3762 
Q 2331 3853 2456 3853 
L 2491 3853 
Q 2409 3969 2261 4023 
Q 2113 4078 1953 4078 
Q 1759 4078 1595 3993 
Q 1431 3909 1300 3765 
Q 1169 3622 1081 3448 
Q 994 3275 945 3053 
Q 897 2831 884 2637 
Q 872 2444 872 2150 
Q 984 2413 1190 2580 
Q 1397 2747 1656 2747 
Q 1941 2747 2175 2631 
Q 2409 2516 2578 2311 
Q 2747 2106 2836 1843 
Q 2925 1581 2925 1313 
Q 2925 938 2758 598 
Q 2591 259 2287 59 
Q 1984 -141 1600 -141 
z
M 1600 63 
Q 1847 63 1997 175 
Q 2147 288 2217 473 
Q 2288 659 2305 848 
Q 2322 1038 2322 1313 
Q 2322 1675 2287 1931 
Q 2253 2188 2100 2383 
Q 1947 2578 1631 2578 
Q 1372 2578 1205 2403 
Q 1038 2228 961 1961 
Q 884 1694 884 1447 
Q 884 1363 891 1319 
Q 891 1309 889 1303 
Q 888 1297 884 1288 
Q 884 1013 940 731 
Q 997 450 1156 256 
Q 1316 63 1600 63 
z
" transform="scale(0.015625)"/>
       </defs>
       <use xlink:href="#Cmr10-36" transform="translate(0 0.390625)"/>
       <use xlink:href="#Cmmi10-bc" transform="translate(64.632454 0.390625)"/>
      </g>
     </g>
    </g>
    <g id="xtick_8">
     <g id="line2d_8">
      <g>
       <use xlink:href="#m8364804420" x="333.960292" y="184.160004" style="stroke: #000000; stroke-width: 0.8"/>
      </g>
     </g>
     <g id="text_7">
      <!-- $7 \, \pi$ -->
      <g transform="translate(327.860292 198.758442)scale(0.1 -0.1)">
       <defs>
        <path id="Cmr10-37" d="M 1113 166 
Q 1113 522 1175 862 
Q 1238 1203 1358 1536 
Q 1478 1869 1648 2189 
Q 1819 2509 2022 2791 
L 2606 3603 
L 1875 3603 
Q 738 3603 703 3572 
Q 619 3469 544 2981 
L 359 2981 
L 569 4325 
L 756 4325 
L 756 4306 
Q 756 4191 1147 4156 
Q 1538 4122 1913 4122 
L 3103 4122 
L 3103 3956 
Q 3103 3950 3101 3947 
Q 3100 3944 3097 3938 
L 2216 2700 
Q 1891 2219 1809 1631 
Q 1728 1044 1728 166 
Q 1728 41 1637 -50 
Q 1547 -141 1422 -141 
Q 1294 -141 1203 -50 
Q 1113 41 1113 166 
z
" transform="scale(0.015625)"/>
       </defs>
       <use xlink:href="#Cmr10-37" transform="translate(0 0.421875)"/>
       <use xlink:href="#Cmmi10-bc" transform="translate(64.632454 0.421875)"/>
      </g>
     </g>
    </g>
    <g id="xtick_9">
     <g id="line2d_9">
      <g>
       <use xlink:href="#m8364804420" x="365.268905" y="184.160004" style="stroke: #000000; stroke-width: 0.8"/>
      </g>
     </g>
     <g id="text_8">
      <!-- $8 \, \pi$ -->
      <g transform="translate(359.168905 198.758442)scale(0.1 -0.1)">
       <defs>
        <path id="Cmr10-38" d="M 269 972 
Q 269 1356 522 1651 
Q 775 1947 1172 2144 
L 934 2297 
Q 716 2441 578 2680 
Q 441 2919 441 3181 
Q 441 3488 602 3734 
Q 763 3981 1030 4122 
Q 1297 4263 1600 4263 
Q 1884 4263 2148 4147 
Q 2413 4031 2583 3815 
Q 2753 3600 2753 3303 
Q 2753 3088 2651 2903 
Q 2550 2719 2373 2572 
Q 2197 2425 1997 2322 
L 2363 2088 
Q 2616 1922 2770 1653 
Q 2925 1384 2925 1088 
Q 2925 741 2739 456 
Q 2553 172 2247 15 
Q 1941 -141 1600 -141 
Q 1269 -141 961 -6 
Q 653 128 461 383 
Q 269 638 269 972 
z
M 616 972 
Q 616 719 755 509 
Q 894 300 1122 181 
Q 1350 63 1600 63 
Q 1972 63 2275 280 
Q 2578 497 2578 856 
Q 2578 978 2529 1098 
Q 2481 1219 2395 1317 
Q 2309 1416 2203 1478 
L 1344 2034 
Q 1144 1928 976 1765 
Q 809 1603 712 1400 
Q 616 1197 616 972 
z
M 1056 2925 
L 1831 2425 
Q 2100 2581 2272 2803 
Q 2444 3025 2444 3303 
Q 2444 3519 2323 3698 
Q 2203 3878 2009 3978 
Q 1816 4078 1594 4078 
Q 1400 4078 1203 4003 
Q 1006 3928 878 3779 
Q 750 3631 750 3431 
Q 750 3131 1056 2925 
z
" transform="scale(0.015625)"/>
       </defs>
       <use xlink:href="#Cmr10-38" transform="translate(0 0.390625)"/>
       <use xlink:href="#Cmmi10-bc" transform="translate(64.632454 0.390625)"/>
      </g>
     </g>
    </g>
    <g id="xtick_10">
     <g id="line2d_10">
      <g>
       <use xlink:href="#m8364804420" x="396.577519" y="184.160004" style="stroke: #000000; stroke-width: 0.8"/>
      </g>
     </g>
     <g id="text_9">
      <!-- $9 \, \pi$ -->
      <g transform="translate(390.477519 198.758442)scale(0.1 -0.1)">
       <defs>
        <path id="Cmr10-39" d="M 722 269 
Q 897 63 1331 63 
Q 1575 63 1786 228 
Q 1997 394 2113 634 
Q 2247 906 2284 1214 
Q 2322 1522 2322 1978 
Q 2213 1719 2008 1553 
Q 1803 1388 1538 1388 
Q 1166 1388 873 1589 
Q 581 1791 425 2120 
Q 269 2450 269 2822 
Q 269 3206 444 3539 
Q 619 3872 928 4067 
Q 1238 4263 1631 4263 
Q 2019 4263 2280 4052 
Q 2541 3841 2678 3508 
Q 2816 3175 2870 2803 
Q 2925 2431 2925 2069 
Q 2925 1575 2744 1061 
Q 2563 547 2202 203 
Q 1841 -141 1331 -141 
Q 953 -141 690 37 
Q 428 216 428 575 
Q 428 706 517 795 
Q 606 884 738 884 
Q 866 884 955 795 
Q 1044 706 1044 575 
Q 1044 450 953 359 
Q 863 269 738 269 
L 722 269 
z
M 1563 1556 
Q 1825 1556 1992 1732 
Q 2159 1909 2234 2171 
Q 2309 2434 2309 2694 
L 2309 2816 
L 2309 2841 
Q 2309 3322 2168 3700 
Q 2028 4078 1631 4078 
Q 1378 4078 1220 3967 
Q 1063 3856 988 3672 
Q 913 3488 892 3278 
Q 872 3069 872 2822 
Q 872 2459 906 2203 
Q 941 1947 1094 1751 
Q 1247 1556 1563 1556 
z
" transform="scale(0.015625)"/>
       </defs>
       <use xlink:href="#Cmr10-39" transform="translate(0 0.390625)"/>
       <use xlink:href="#Cmmi10-bc" transform="translate(64.632454 0.390625)"/>
      </g>
     </g>
    </g>
    <g id="xtick_11">
     <g id="line2d_11">
      <g>
       <use xlink:href="#m8364804420" x="427.886132" y="184.160004" style="stroke: #000000; stroke-width: 0.8"/>
      </g>
     </g>
     <g id="text_10">
      <!-- $10 \, \pi$ -->
      <g transform="translate(419.286132 198.758442)scale(0.1 -0.1)">
       <defs>
        <path id="Cmr10-31" d="M 594 0 
L 594 225 
Q 1394 225 1394 428 
L 1394 3788 
Q 1063 3628 556 3628 
L 556 3853 
Q 1341 3853 1741 4263 
L 1831 4263 
Q 1853 4263 1873 4245 
Q 1894 4228 1894 4206 
L 1894 428 
Q 1894 225 2694 225 
L 2694 0 
L 594 0 
z
" transform="scale(0.015625)"/>
        <path id="Cmr10-30" d="M 1600 -141 
Q 816 -141 533 504 
Q 250 1150 250 2041 
Q 250 2597 351 3087 
Q 453 3578 754 3920 
Q 1056 4263 1600 4263 
Q 2022 4263 2290 4056 
Q 2559 3850 2700 3523 
Q 2841 3197 2892 2823 
Q 2944 2450 2944 2041 
Q 2944 1491 2842 1011 
Q 2741 531 2444 195 
Q 2147 -141 1600 -141 
z
M 1600 25 
Q 1956 25 2131 390 
Q 2306 756 2347 1200 
Q 2388 1644 2388 2144 
Q 2388 2625 2347 3031 
Q 2306 3438 2132 3767 
Q 1959 4097 1600 4097 
Q 1238 4097 1063 3765 
Q 888 3434 847 3029 
Q 806 2625 806 2144 
Q 806 1788 823 1472 
Q 841 1156 916 820 
Q 991 484 1158 254 
Q 1325 25 1600 25 
z
" transform="scale(0.015625)"/>
       </defs>
       <use xlink:href="#Cmr10-31" transform="translate(0 0.390625)"/>
       <use xlink:href="#Cmr10-30" transform="translate(50 0.390625)"/>
       <use xlink:href="#Cmmi10-bc" transform="translate(114.632454 0.390625)"/>
      </g>
     </g>
    </g>
    <g id="xtick_12">
     <g id="line2d_12">
      <defs>
       <path id="m173b679b5d" d="M 0 0 
L 0 2 
" style="stroke: #000000; stroke-width: 0.6"/>
      </defs>
      <g>
       <use xlink:href="#m173b679b5d" x="122.627153" y="184.160004" style="stroke: #000000; stroke-width: 0.6"/>
      </g>
     </g>
    </g>
    <g id="xtick_13">
     <g id="line2d_13">
      <g>
       <use xlink:href="#m173b679b5d" x="130.454307" y="184.160004" style="stroke: #000000; stroke-width: 0.6"/>
      </g>
     </g>
    </g>
    <g id="xtick_14">
     <g id="line2d_14">
      <g>
       <use xlink:href="#m173b679b5d" x="138.28146" y="184.160004" style="stroke: #000000; stroke-width: 0.6"/>
      </g>
     </g>
    </g>
    <g id="xtick_15">
     <g id="line2d_15">
      <g>
       <use xlink:href="#m173b679b5d" x="153.935766" y="184.160004" style="stroke: #000000; stroke-width: 0.6"/>
      </g>
     </g>
    </g>
    <g id="xtick_16">
     <g id="line2d_16">
      <g>
       <use xlink:href="#m173b679b5d" x="161.76292" y="184.160004" style="stroke: #000000; stroke-width: 0.6"/>
      </g>
     </g>
    </g>
    <g id="xtick_17">
     <g id="line2d_17">
      <g>
       <use xlink:href="#m173b679b5d" x="169.590073" y="184.160004" style="stroke: #000000; stroke-width: 0.6"/>
      </g>
     </g>
    </g>
    <g id="xtick_18">
     <g id="line2d_18">
      <g>
       <use xlink:href="#m173b679b5d" x="185.24438" y="184.160004" style="stroke: #000000; stroke-width: 0.6"/>
      </g>
     </g>
    </g>
    <g id="xtick_19">
     <g id="line2d_19">
      <g>
       <use xlink:href="#m173b679b5d" x="193.071533" y="184.160004" style="stroke: #000000; stroke-width: 0.6"/>
      </g>
     </g>
    </g>
    <g id="xtick_20">
     <g id="line2d_20">
      <g>
       <use xlink:href="#m173b679b5d" x="200.898686" y="184.160004" style="stroke: #000000; stroke-width: 0.6"/>
      </g>
     </g>
    </g>
    <g id="xtick_21">
     <g id="line2d_21">
      <g>
       <use xlink:href="#m173b679b5d" x="216.552993" y="184.160004" style="stroke: #000000; stroke-width: 0.6"/>
      </g>
     </g>
    </g>
    <g id="xtick_22">
     <g id="line2d_22">
      <g>
       <use xlink:href="#m173b679b5d" x="224.380146" y="184.160004" style="stroke: #000000; stroke-width: 0.6"/>
      </g>
     </g>
    </g>
    <g id="xtick_23">
     <g id="line2d_23">
      <g>
       <use xlink:href="#m173b679b5d" x="232.207299" y="184.160004" style="stroke: #000000; stroke-width: 0.6"/>
      </g>
     </g>
    </g>
    <g id="xtick_24">
     <g id="line2d_24">
      <g>
       <use xlink:href="#m173b679b5d" x="247.861606" y="184.160004" style="stroke: #000000; stroke-width: 0.6"/>
      </g>
     </g>
    </g>
    <g id="xtick_25">
     <g id="line2d_25">
      <g>
       <use xlink:href="#m173b679b5d" x="255.688759" y="184.160004" style="stroke: #000000; stroke-width: 0.6"/>
      </g>
     </g>
    </g>
    <g id="xtick_26">
     <g id="line2d_26">
      <g>
       <use xlink:href="#m173b679b5d" x="263.515913" y="184.160004" style="stroke: #000000; stroke-width: 0.6"/>
      </g>
     </g>
    </g>
    <g id="xtick_27">
     <g id="line2d_27">
      <g>
       <use xlink:href="#m173b679b5d" x="279.170219" y="184.160004" style="stroke: #000000; stroke-width: 0.6"/>
      </g>
     </g>
    </g>
    <g id="xtick_28">
     <g id="line2d_28">
      <g>
       <use xlink:href="#m173b679b5d" x="286.997372" y="184.160004" style="stroke: #000000; stroke-width: 0.6"/>
      </g>
     </g>
    </g>
    <g id="xtick_29">
     <g id="line2d_29">
      <g>
       <use xlink:href="#m173b679b5d" x="294.824526" y="184.160004" style="stroke: #000000; stroke-width: 0.6"/>
      </g>
     </g>
    </g>
    <g id="xtick_30">
     <g id="line2d_30">
      <g>
       <use xlink:href="#m173b679b5d" x="310.478832" y="184.160004" style="stroke: #000000; stroke-width: 0.6"/>
      </g>
     </g>
    </g>
    <g id="xtick_31">
     <g id="line2d_31">
      <g>
       <use xlink:href="#m173b679b5d" x="318.305986" y="184.160004" style="stroke: #000000; stroke-width: 0.6"/>
      </g>
     </g>
    </g>
    <g id="xtick_32">
     <g id="line2d_32">
      <g>
       <use xlink:href="#m173b679b5d" x="326.133139" y="184.160004" style="stroke: #000000; stroke-width: 0.6"/>
      </g>
     </g>
    </g>
    <g id="xtick_33">
     <g id="line2d_33">
      <g>
       <use xlink:href="#m173b679b5d" x="341.787446" y="184.160004" style="stroke: #000000; stroke-width: 0.6"/>
      </g>
     </g>
    </g>
    <g id="xtick_34">
     <g id="line2d_34">
      <g>
       <use xlink:href="#m173b679b5d" x="349.614599" y="184.160004" style="stroke: #000000; stroke-width: 0.6"/>
      </g>
     </g>
    </g>
    <g id="xtick_35">
     <g id="line2d_35">
      <g>
       <use xlink:href="#m173b679b5d" x="357.441752" y="184.160004" style="stroke: #000000; stroke-width: 0.6"/>
      </g>
     </g>
    </g>
    <g id="xtick_36">
     <g id="line2d_36">
      <g>
       <use xlink:href="#m173b679b5d" x="373.096059" y="184.160004" style="stroke: #000000; stroke-width: 0.6"/>
      </g>
     </g>
    </g>
    <g id="xtick_37">
     <g id="line2d_37">
      <g>
       <use xlink:href="#m173b679b5d" x="380.923212" y="184.160004" style="stroke: #000000; stroke-width: 0.6"/>
      </g>
     </g>
    </g>
    <g id="xtick_38">
     <g id="line2d_38">
      <g>
       <use xlink:href="#m173b679b5d" x="388.750365" y="184.160004" style="stroke: #000000; stroke-width: 0.6"/>
      </g>
     </g>
    </g>
    <g id="xtick_39">
     <g id="line2d_39">
      <g>
       <use xlink:href="#m173b679b5d" x="404.404672" y="184.160004" style="stroke: #000000; stroke-width: 0.6"/>
      </g>
     </g>
    </g>
    <g id="xtick_40">
     <g id="line2d_40">
      <g>
       <use xlink:href="#m173b679b5d" x="412.231825" y="184.160004" style="stroke: #000000; stroke-width: 0.6"/>
      </g>
     </g>
    </g>
    <g id="xtick_41">
     <g id="line2d_41">
      <g>
       <use xlink:href="#m173b679b5d" x="420.058979" y="184.160004" style="stroke: #000000; stroke-width: 0.6"/>
      </g>
     </g>
    </g>
    <g id="text_11">
     <!-- $t$ -->
     <g transform="translate(442.147854 184.160004)scale(0.16 -0.16)">
      <defs>
       <path id="Cmmi10-74" d="M 397 519 
Q 397 613 416 697 
L 878 2534 
L 206 2534 
Q 141 2534 141 2619 
Q 166 2759 225 2759 
L 934 2759 
L 1191 3803 
Q 1216 3888 1291 3947 
Q 1366 4006 1459 4006 
Q 1541 4006 1595 3957 
Q 1650 3909 1650 3828 
Q 1650 3809 1648 3798 
Q 1647 3788 1644 3775 
L 1388 2759 
L 2047 2759 
Q 2113 2759 2113 2675 
Q 2109 2659 2100 2621 
Q 2091 2584 2075 2559 
Q 2059 2534 2028 2534 
L 1331 2534 
L 872 684 
Q 825 503 825 372 
Q 825 97 1013 97 
Q 1294 97 1511 361 
Q 1728 625 1844 941 
Q 1869 978 1894 978 
L 1972 978 
Q 1997 978 2012 961 
Q 2028 944 2028 922 
Q 2028 909 2022 903 
Q 1881 516 1612 222 
Q 1344 -72 997 -72 
Q 744 -72 570 93 
Q 397 259 397 519 
z
" transform="scale(0.015625)"/>
      </defs>
      <use xlink:href="#Cmmi10-74" transform="translate(0 0.40625)"/>
     </g>
    </g>
   </g>
   <g id="matplotlib.axis_2">
    <g id="ytick_1">
     <g id="line2d_42">
      <defs>
       <path id="m1ced321d1c" d="M 0 0 
L -3.5 0 
" style="stroke: #000000; stroke-width: 0.8"/>
      </defs>
      <g>
       <use xlink:href="#m1ced321d1c" x="114.8" y="322.044642" style="stroke: #000000; stroke-width: 0.8"/>
      </g>
     </g>
     <g id="text_12">
      <!-- $-0.30000000000000004$ -->
      <g transform="translate(7.2 325.843861)scale(0.1 -0.1)">
       <defs>
        <path id="Cmsy10-a1" d="M 653 1472 
Q 600 1472 565 1512 
Q 531 1553 531 1600 
Q 531 1647 565 1687 
Q 600 1728 653 1728 
L 4325 1728 
Q 4375 1728 4408 1687 
Q 4441 1647 4441 1600 
Q 4441 1553 4408 1512 
Q 4375 1472 4325 1472 
L 653 1472 
z
" transform="scale(0.015625)"/>
        <path id="Cmmi10-3a" d="M 538 353 
Q 538 497 644 600 
Q 750 703 891 703 
Q 978 703 1062 656 
Q 1147 609 1194 525 
Q 1241 441 1241 353 
Q 1241 213 1137 106 
Q 1034 0 891 0 
Q 750 0 644 106 
Q 538 213 538 353 
z
" transform="scale(0.015625)"/>
       </defs>
       <use xlink:href="#Cmsy10-a1" transform="translate(0 0.390625)"/>
       <use xlink:href="#Cmr10-30" transform="translate(77.685547 0.390625)"/>
       <use xlink:href="#Cmmi10-3a" transform="translate(127.685547 0.390625)"/>
       <use xlink:href="#Cmr10-33" transform="translate(155.371094 0.390625)"/>
       <use xlink:href="#Cmr10-30" transform="translate(205.371094 0.390625)"/>
       <use xlink:href="#Cmr10-30" transform="translate(255.371094 0.390625)"/>
       <use xlink:href="#Cmr10-30" transform="translate(305.371094 0.390625)"/>
       <use xlink:href="#Cmr10-30" transform="translate(355.371094 0.390625)"/>
       <use xlink:href="#Cmr10-30" transform="translate(405.371094 0.390625)"/>
       <use xlink:href="#Cmr10-30" transform="translate(455.371094 0.390625)"/>
       <use xlink:href="#Cmr10-30" transform="translate(505.371094 0.390625)"/>
       <use xlink:href="#Cmr10-30" transform="translate(555.371094 0.390625)"/>
       <use xlink:href="#Cmr10-30" transform="translate(605.371094 0.390625)"/>
       <use xlink:href="#Cmr10-30" transform="translate(655.371094 0.390625)"/>
       <use xlink:href="#Cmr10-30" transform="translate(705.371094 0.390625)"/>
       <use xlink:href="#Cmr10-30" transform="translate(755.371094 0.390625)"/>
       <use xlink:href="#Cmr10-30" transform="translate(805.371094 0.390625)"/>
       <use xlink:href="#Cmr10-30" transform="translate(855.371094 0.390625)"/>
       <use xlink:href="#Cmr10-30" transform="translate(905.371094 0.390625)"/>
       <use xlink:href="#Cmr10-34" transform="translate(955.371094 0.390625)"/>
      </g>
     </g>
    </g>
    <g id="ytick_2">
     <g id="line2d_43">
      <g>
       <use xlink:href="#m1ced321d1c" x="114.8" y="276.083096" style="stroke: #000000; stroke-width: 0.8"/>
      </g>
     </g>
     <g id="text_13">
      <!-- $-0.2$ -->
      <g transform="translate(87.2 279.882315)scale(0.1 -0.1)">
       <use xlink:href="#Cmsy10-a1" transform="translate(0 0.390625)"/>
       <use xlink:href="#Cmr10-30" transform="translate(77.685547 0.390625)"/>
       <use xlink:href="#Cmmi10-3a" transform="translate(127.685547 0.390625)"/>
       <use xlink:href="#Cmr10-32" transform="translate(155.371094 0.390625)"/>
      </g>
     </g>
    </g>
    <g id="ytick_3">
     <g id="line2d_44">
      <g>
       <use xlink:href="#m1ced321d1c" x="114.8" y="230.12155" style="stroke: #000000; stroke-width: 0.8"/>
      </g>
     </g>
     <g id="text_14">
      <!-- $-0.09999999999999998$ -->
      <g transform="translate(7.2 233.920769)scale(0.1 -0.1)">
       <use xlink:href="#Cmsy10-a1" transform="translate(0 0.390625)"/>
       <use xlink:href="#Cmr10-30" transform="translate(77.685547 0.390625)"/>
       <use xlink:href="#Cmmi10-3a" transform="translate(127.685547 0.390625)"/>
       <use xlink:href="#Cmr10-30" transform="translate(155.371094 0.390625)"/>
       <use xlink:href="#Cmr10-39" transform="translate(205.371094 0.390625)"/>
       <use xlink:href="#Cmr10-39" transform="translate(255.371094 0.390625)"/>
       <use xlink:href="#Cmr10-39" transform="translate(305.371094 0.390625)"/>
       <use xlink:href="#Cmr10-39" transform="translate(355.371094 0.390625)"/>
       <use xlink:href="#Cmr10-39" transform="translate(405.371094 0.390625)"/>
       <use xlink:href="#Cmr10-39" transform="translate(455.371094 0.390625)"/>
       <use xlink:href="#Cmr10-39" transform="translate(505.371094 0.390625)"/>
       <use xlink:href="#Cmr10-39" transform="translate(555.371094 0.390625)"/>
       <use xlink:href="#Cmr10-39" transform="translate(605.371094 0.390625)"/>
       <use xlink:href="#Cmr10-39" transform="translate(655.371094 0.390625)"/>
       <use xlink:href="#Cmr10-39" transform="translate(705.371094 0.390625)"/>
       <use xlink:href="#Cmr10-39" transform="translate(755.371094 0.390625)"/>
       <use xlink:href="#Cmr10-39" transform="translate(805.371094 0.390625)"/>
       <use xlink:href="#Cmr10-39" transform="translate(855.371094 0.390625)"/>
       <use xlink:href="#Cmr10-39" transform="translate(905.371094 0.390625)"/>
       <use xlink:href="#Cmr10-38" transform="translate(955.371094 0.390625)"/>
      </g>
     </g>
    </g>
    <g id="ytick_4">
     <g id="line2d_45">
      <g>
       <use xlink:href="#m1ced321d1c" x="114.8" y="184.160004" style="stroke: #000000; stroke-width: 0.8"/>
      </g>
     </g>
    </g>
    <g id="ytick_5">
     <g id="line2d_46">
      <g>
       <use xlink:href="#m1ced321d1c" x="114.8" y="138.198458" style="stroke: #000000; stroke-width: 0.8"/>
      </g>
     </g>
     <g id="text_15">
      <!-- $0.09999999999999998$ -->
      <g transform="translate(15 141.997677)scale(0.1 -0.1)">
       <use xlink:href="#Cmr10-30" transform="translate(0 0.390625)"/>
       <use xlink:href="#Cmmi10-3a" transform="translate(50 0.390625)"/>
       <use xlink:href="#Cmr10-30" transform="translate(77.685547 0.390625)"/>
       <use xlink:href="#Cmr10-39" transform="translate(127.685547 0.390625)"/>
       <use xlink:href="#Cmr10-39" transform="translate(177.685547 0.390625)"/>
       <use xlink:href="#Cmr10-39" transform="translate(227.685547 0.390625)"/>
       <use xlink:href="#Cmr10-39" transform="translate(277.685547 0.390625)"/>
       <use xlink:href="#Cmr10-39" transform="translate(327.685547 0.390625)"/>
       <use xlink:href="#Cmr10-39" transform="translate(377.685547 0.390625)"/>
       <use xlink:href="#Cmr10-39" transform="translate(427.685547 0.390625)"/>
       <use xlink:href="#Cmr10-39" transform="translate(477.685547 0.390625)"/>
       <use xlink:href="#Cmr10-39" transform="translate(527.685547 0.390625)"/>
       <use xlink:href="#Cmr10-39" transform="translate(577.685547 0.390625)"/>
       <use xlink:href="#Cmr10-39" transform="translate(627.685547 0.390625)"/>
       <use xlink:href="#Cmr10-39" transform="translate(677.685547 0.390625)"/>
       <use xlink:href="#Cmr10-39" transform="translate(727.685547 0.390625)"/>
       <use xlink:href="#Cmr10-39" transform="translate(777.685547 0.390625)"/>
       <use xlink:href="#Cmr10-39" transform="translate(827.685547 0.390625)"/>
       <use xlink:href="#Cmr10-38" transform="translate(877.685547 0.390625)"/>
      </g>
     </g>
    </g>
    <g id="ytick_6">
     <g id="line2d_47">
      <g>
       <use xlink:href="#m1ced321d1c" x="114.8" y="92.236912" style="stroke: #000000; stroke-width: 0.8"/>
      </g>
     </g>
     <g id="text_16">
      <!-- $0.20000000000000007$ -->
      <g transform="translate(15 96.036131)scale(0.1 -0.1)">
       <use xlink:href="#Cmr10-30" transform="translate(0 0.421875)"/>
       <use xlink:href="#Cmmi10-3a" transform="translate(50 0.421875)"/>
       <use xlink:href="#Cmr10-32" transform="translate(77.685547 0.421875)"/>
       <use xlink:href="#Cmr10-30" transform="translate(127.685547 0.421875)"/>
       <use xlink:href="#Cmr10-30" transform="translate(177.685547 0.421875)"/>
       <use xlink:href="#Cmr10-30" transform="translate(227.685547 0.421875)"/>
       <use xlink:href="#Cmr10-30" transform="translate(277.685547 0.421875)"/>
       <use xlink:href="#Cmr10-30" transform="translate(327.685547 0.421875)"/>
       <use xlink:href="#Cmr10-30" transform="translate(377.685547 0.421875)"/>
       <use xlink:href="#Cmr10-30" transform="translate(427.685547 0.421875)"/>
       <use xlink:href="#Cmr10-30" transform="translate(477.685547 0.421875)"/>
       <use xlink:href="#Cmr10-30" transform="translate(527.685547 0.421875)"/>
       <use xlink:href="#Cmr10-30" transform="translate(577.685547 0.421875)"/>
       <use xlink:href="#Cmr10-30" transform="translate(627.685547 0.421875)"/>
       <use xlink:href="#Cmr10-30" transform="translate(677.685547 0.421875)"/>
       <use xlink:href="#Cmr10-30" transform="translate(727.685547 0.421875)"/>
       <use xlink:href="#Cmr10-30" transform="translate(777.685547 0.421875)"/>
       <use xlink:href="#Cmr10-30" transform="translate(827.685547 0.421875)"/>
       <use xlink:href="#Cmr10-37" transform="translate(877.685547 0.421875)"/>
      </g>
     </g>
    </g>
    <g id="ytick_7">
     <g id="line2d_48">
      <g>
       <use xlink:href="#m1ced321d1c" x="114.8" y="46.275366" style="stroke: #000000; stroke-width: 0.8"/>
      </g>
     </g>
     <g id="text_17">
      <!-- $0.30000000000000004$ -->
      <g transform="translate(15 50.074585)scale(0.1 -0.1)">
       <use xlink:href="#Cmr10-30" transform="translate(0 0.390625)"/>
       <use xlink:href="#Cmmi10-3a" transform="translate(50 0.390625)"/>
       <use xlink:href="#Cmr10-33" transform="translate(77.685547 0.390625)"/>
       <use xlink:href="#Cmr10-30" transform="translate(127.685547 0.390625)"/>
       <use xlink:href="#Cmr10-30" transform="translate(177.685547 0.390625)"/>
       <use xlink:href="#Cmr10-30" transform="translate(227.685547 0.390625)"/>
       <use xlink:href="#Cmr10-30" transform="translate(277.685547 0.390625)"/>
       <use xlink:href="#Cmr10-30" transform="translate(327.685547 0.390625)"/>
       <use xlink:href="#Cmr10-30" transform="translate(377.685547 0.390625)"/>
       <use xlink:href="#Cmr10-30" transform="translate(427.685547 0.390625)"/>
       <use xlink:href="#Cmr10-30" transform="translate(477.685547 0.390625)"/>
       <use xlink:href="#Cmr10-30" transform="translate(527.685547 0.390625)"/>
       <use xlink:href="#Cmr10-30" transform="translate(577.685547 0.390625)"/>
       <use xlink:href="#Cmr10-30" transform="translate(627.685547 0.390625)"/>
       <use xlink:href="#Cmr10-30" transform="translate(677.685547 0.390625)"/>
       <use xlink:href="#Cmr10-30" transform="translate(727.685547 0.390625)"/>
       <use xlink:href="#Cmr10-30" transform="translate(777.685547 0.390625)"/>
       <use xlink:href="#Cmr10-30" transform="translate(827.685547 0.390625)"/>
       <use xlink:href="#Cmr10-34" transform="translate(877.685547 0.390625)"/>
      </g>
     </g>
    </g>
    <g id="ytick_8">
     <g id="line2d_49">
      <defs>
       <path id="m5e4c8662a8" d="M 0 0 
L -2 0 
" style="stroke: #000000; stroke-width: 0.6"/>
      </defs>
      <g>
       <use xlink:href="#m5e4c8662a8" x="114.8" y="331.236952" style="stroke: #000000; stroke-width: 0.6"/>
      </g>
     </g>
    </g>
    <g id="ytick_9">
     <g id="line2d_50">
      <g>
       <use xlink:href="#m5e4c8662a8" x="114.8" y="312.852333" style="stroke: #000000; stroke-width: 0.6"/>
      </g>
     </g>
    </g>
    <g id="ytick_10">
     <g id="line2d_51">
      <g>
       <use xlink:href="#m5e4c8662a8" x="114.8" y="303.660024" style="stroke: #000000; stroke-width: 0.6"/>
      </g>
     </g>
    </g>
    <g id="ytick_11">
     <g id="line2d_52">
      <g>
       <use xlink:href="#m5e4c8662a8" x="114.8" y="294.467715" style="stroke: #000000; stroke-width: 0.6"/>
      </g>
     </g>
    </g>
    <g id="ytick_12">
     <g id="line2d_53">
      <g>
       <use xlink:href="#m5e4c8662a8" x="114.8" y="285.275406" style="stroke: #000000; stroke-width: 0.6"/>
      </g>
     </g>
    </g>
    <g id="ytick_13">
     <g id="line2d_54">
      <g>
       <use xlink:href="#m5e4c8662a8" x="114.8" y="266.890787" style="stroke: #000000; stroke-width: 0.6"/>
      </g>
     </g>
    </g>
    <g id="ytick_14">
     <g id="line2d_55">
      <g>
       <use xlink:href="#m5e4c8662a8" x="114.8" y="257.698478" style="stroke: #000000; stroke-width: 0.6"/>
      </g>
     </g>
    </g>
    <g id="ytick_15">
     <g id="line2d_56">
      <g>
       <use xlink:href="#m5e4c8662a8" x="114.8" y="248.506169" style="stroke: #000000; stroke-width: 0.6"/>
      </g>
     </g>
    </g>
    <g id="ytick_16">
     <g id="line2d_57">
      <g>
       <use xlink:href="#m5e4c8662a8" x="114.8" y="239.31386" style="stroke: #000000; stroke-width: 0.6"/>
      </g>
     </g>
    </g>
    <g id="ytick_17">
     <g id="line2d_58">
      <g>
       <use xlink:href="#m5e4c8662a8" x="114.8" y="220.929241" style="stroke: #000000; stroke-width: 0.6"/>
      </g>
     </g>
    </g>
    <g id="ytick_18">
     <g id="line2d_59">
      <g>
       <use xlink:href="#m5e4c8662a8" x="114.8" y="211.736932" style="stroke: #000000; stroke-width: 0.6"/>
      </g>
     </g>
    </g>
    <g id="ytick_19">
     <g id="line2d_60">
      <g>
       <use xlink:href="#m5e4c8662a8" x="114.8" y="202.544623" style="stroke: #000000; stroke-width: 0.6"/>
      </g>
     </g>
    </g>
    <g id="ytick_20">
     <g id="line2d_61">
      <g>
       <use xlink:href="#m5e4c8662a8" x="114.8" y="193.352314" style="stroke: #000000; stroke-width: 0.6"/>
      </g>
     </g>
    </g>
    <g id="ytick_21">
     <g id="line2d_62">
      <g>
       <use xlink:href="#m5e4c8662a8" x="114.8" y="174.967695" style="stroke: #000000; stroke-width: 0.6"/>
      </g>
     </g>
    </g>
    <g id="ytick_22">
     <g id="line2d_63">
      <g>
       <use xlink:href="#m5e4c8662a8" x="114.8" y="165.775386" style="stroke: #000000; stroke-width: 0.6"/>
      </g>
     </g>
    </g>
    <g id="ytick_23">
     <g id="line2d_64">
      <g>
       <use xlink:href="#m5e4c8662a8" x="114.8" y="156.583077" style="stroke: #000000; stroke-width: 0.6"/>
      </g>
     </g>
    </g>
    <g id="ytick_24">
     <g id="line2d_65">
      <g>
       <use xlink:href="#m5e4c8662a8" x="114.8" y="147.390767" style="stroke: #000000; stroke-width: 0.6"/>
      </g>
     </g>
    </g>
    <g id="ytick_25">
     <g id="line2d_66">
      <g>
       <use xlink:href="#m5e4c8662a8" x="114.8" y="129.006149" style="stroke: #000000; stroke-width: 0.6"/>
      </g>
     </g>
    </g>
    <g id="ytick_26">
     <g id="line2d_67">
      <g>
       <use xlink:href="#m5e4c8662a8" x="114.8" y="119.81384" style="stroke: #000000; stroke-width: 0.6"/>
      </g>
     </g>
    </g>
    <g id="ytick_27">
     <g id="line2d_68">
      <g>
       <use xlink:href="#m5e4c8662a8" x="114.8" y="110.621531" style="stroke: #000000; stroke-width: 0.6"/>
      </g>
     </g>
    </g>
    <g id="ytick_28">
     <g id="line2d_69">
      <g>
       <use xlink:href="#m5e4c8662a8" x="114.8" y="101.429221" style="stroke: #000000; stroke-width: 0.6"/>
      </g>
     </g>
    </g>
    <g id="ytick_29">
     <g id="line2d_70">
      <g>
       <use xlink:href="#m5e4c8662a8" x="114.8" y="83.044603" style="stroke: #000000; stroke-width: 0.6"/>
      </g>
     </g>
    </g>
    <g id="ytick_30">
     <g id="line2d_71">
      <g>
       <use xlink:href="#m5e4c8662a8" x="114.8" y="73.852294" style="stroke: #000000; stroke-width: 0.6"/>
      </g>
     </g>
    </g>
    <g id="ytick_31">
     <g id="line2d_72">
      <g>
       <use xlink:href="#m5e4c8662a8" x="114.8" y="64.659985" style="stroke: #000000; stroke-width: 0.6"/>
      </g>
     </g>
    </g>
    <g id="ytick_32">
     <g id="line2d_73">
      <g>
       <use xlink:href="#m5e4c8662a8" x="114.8" y="55.467675" style="stroke: #000000; stroke-width: 0.6"/>
      </g>
     </g>
    </g>
    <g id="ytick_33">
     <g id="line2d_74">
      <g>
       <use xlink:href="#m5e4c8662a8" x="114.8" y="37.083057" style="stroke: #000000; stroke-width: 0.6"/>
      </g>
     </g>
    </g>
    <g id="text_18">
     <!-- $x(t)$ -->
     <g transform="translate(101.12 19.2)scale(0.16 -0.16)">
      <defs>
       <path id="Cmmi10-78" d="M 500 184 
Q 613 97 819 97 
Q 1019 97 1172 289 
Q 1325 481 1381 709 
L 1672 1844 
Q 1741 2153 1741 2266 
Q 1741 2425 1652 2544 
Q 1563 2663 1403 2663 
Q 1200 2663 1022 2536 
Q 844 2409 722 2214 
Q 600 2019 550 1819 
Q 538 1778 500 1778 
L 422 1778 
Q 372 1778 372 1838 
L 372 1856 
Q 434 2094 584 2320 
Q 734 2547 951 2687 
Q 1169 2828 1416 2828 
Q 1650 2828 1839 2703 
Q 2028 2578 2106 2363 
Q 2216 2559 2386 2693 
Q 2556 2828 2759 2828 
Q 2897 2828 3040 2779 
Q 3184 2731 3275 2631 
Q 3366 2531 3366 2381 
Q 3366 2219 3261 2101 
Q 3156 1984 2994 1984 
Q 2891 1984 2822 2050 
Q 2753 2116 2753 2216 
Q 2753 2350 2845 2451 
Q 2938 2553 3066 2572 
Q 2950 2663 2747 2663 
Q 2541 2663 2389 2472 
Q 2238 2281 2175 2047 
L 1894 916 
Q 1825 659 1825 494 
Q 1825 331 1917 214 
Q 2009 97 2163 97 
Q 2463 97 2698 361 
Q 2934 625 3009 941 
Q 3022 978 3059 978 
L 3138 978 
Q 3163 978 3178 961 
Q 3194 944 3194 922 
Q 3194 916 3188 903 
Q 3097 522 2806 225 
Q 2516 -72 2150 -72 
Q 1916 -72 1727 54 
Q 1538 181 1459 397 
Q 1359 209 1182 68 
Q 1006 -72 806 -72 
Q 669 -72 523 -23 
Q 378 25 287 125 
Q 197 225 197 378 
Q 197 528 301 651 
Q 406 775 563 775 
Q 669 775 741 711 
Q 813 647 813 544 
Q 813 409 723 309 
Q 634 209 500 184 
z
" transform="scale(0.015625)"/>
       <path id="Cmr10-28" d="M 1984 -1588 
Q 1628 -1306 1370 -942 
Q 1113 -578 948 -165 
Q 784 247 703 697 
Q 622 1147 622 1600 
Q 622 2059 703 2509 
Q 784 2959 951 3375 
Q 1119 3791 1378 4153 
Q 1638 4516 1984 4788 
Q 1984 4800 2016 4800 
L 2075 4800 
Q 2094 4800 2109 4783 
Q 2125 4766 2125 4744 
Q 2125 4716 2113 4703 
Q 1800 4397 1592 4047 
Q 1384 3697 1257 3301 
Q 1131 2906 1075 2482 
Q 1019 2059 1019 1600 
Q 1019 -434 2106 -1491 
Q 2125 -1509 2125 -1544 
Q 2125 -1559 2108 -1579 
Q 2091 -1600 2075 -1600 
L 2016 -1600 
Q 1984 -1600 1984 -1588 
z
" transform="scale(0.015625)"/>
       <path id="Cmr10-29" d="M 416 -1600 
Q 359 -1600 359 -1544 
Q 359 -1516 372 -1503 
Q 1466 -434 1466 1600 
Q 1466 3634 384 4691 
Q 359 4706 359 4744 
Q 359 4766 376 4783 
Q 394 4800 416 4800 
L 475 4800 
Q 494 4800 506 4788 
Q 966 4425 1272 3906 
Q 1578 3388 1720 2800 
Q 1863 2213 1863 1600 
Q 1863 1147 1786 708 
Q 1709 269 1542 -157 
Q 1375 -584 1119 -945 
Q 863 -1306 506 -1588 
Q 494 -1600 475 -1600 
L 416 -1600 
z
" transform="scale(0.015625)"/>
      </defs>
      <use xlink:href="#Cmmi10-78"/>
      <use xlink:href="#Cmr10-28" transform="translate(57.080078 0)"/>
      <use xlink:href="#Cmmi10-74" transform="translate(95.898438 0)"/>
      <use xlink:href="#Cmr10-29" transform="translate(131.982422 0)"/>
     </g>
    </g>
   </g>
   <g id="line2d_75">
    <path d="M 114.8 184.160004 
L 115.216359 182.627584 
L 116.202284 174.003311 
L 116.487067 173.528981 
L 116.77185 175.158162 
L 117.056634 179.073155 
L 117.341417 185.021262 
L 118.414071 210.257265 
L 118.665615 212.243619 
L 118.917159 211.299787 
L 119.203893 206.353025 
L 119.777363 185.619203 
L 120.637567 147.566296 
L 121.067669 138.670264 
L 121.211036 138.477174 
L 121.424877 141.062828 
L 121.638717 147.082918 
L 122.066398 168.130629 
L 123.19416 237.850431 
L 123.46656 245.629586 
L 123.610688 246.980793 
L 123.754817 246.262138 
L 124.043074 238.535093 
L 124.331331 223.008891 
L 125.889657 108.488788 
L 126.123741 105.196973 
L 126.240783 106.09984 
L 126.474866 113.058776 
L 126.70895 126.516625 
L 127.177118 168.542166 
L 128.084427 258.359233 
L 128.480086 276.694447 
L 128.604725 278.012952 
L 128.729365 277.030731 
L 128.978643 268.18201 
L 129.352561 239.264967 
L 129.726479 196.892857 
L 130.648025 94.227262 
L 130.930017 79.598652 
L 131.071014 77.000899 
L 131.21201 77.7482 
L 131.464355 87.434283 
L 131.798401 115.345427 
L 132.243796 171.578547 
L 133.134585 282.969611 
L 133.459483 301.131573 
L 133.621932 303.180356 
L 133.784381 300.283994 
L 134.109278 280.116647 
L 134.596625 220.825883 
L 135.571318 83.089495 
L 135.887516 60.106721 
L 136.041265 55.687605 
L 136.195013 56.026151 
L 136.348762 61.149891 
L 136.656259 84.968281 
L 136.963757 123.890329 
L 138.129824 297.242954 
L 138.42134 317.229815 
L 138.645452 320.767589 
L 138.77239 317.986344 
L 139.026268 302.32217 
L 139.407085 256.924967 
L 140.82719 50.399776 
L 141.104846 41.696987 
L 141.243674 43.778138 
L 141.521329 60.565517 
L 141.922056 110.359276 
L 143.302459 319.494891 
L 143.540342 329.554077 
L 143.659284 329.776094 
L 143.778225 326.755846 
L 144.016109 311.311179 
L 144.372933 267.644202 
L 145.905742 41.82635 
L 146.04073 37.616714 
L 146.175718 37.604554 
L 146.310706 41.790221 
L 146.580683 62.154921 
L 146.985648 117.517692 
L 148.229024 313.744042 
L 148.527482 329.310224 
L 148.626969 330.043097 
L 148.726455 328.504154 
L 148.904272 320.200975 
L 149.082089 305.176993 
L 149.437724 258.318937 
L 150.771353 54.400273 
L 151.038079 42.273974 
L 151.126988 41.729343 
L 151.215897 42.956548 
L 151.393714 50.627008 
L 151.709284 79.965324 
L 152.155964 146.872955 
L 153.082746 291.833488 
L 153.391673 315.800962 
L 153.546137 320.484904 
L 153.7006 320.044411 
L 153.855064 314.52725 
L 154.163991 289.398169 
L 154.682284 216.163116 
L 155.591858 81.818875 
L 155.914114 59.134699 
L 156.054456 55.556844 
L 156.194798 55.975745 
L 156.33514 60.347732 
L 156.615824 80.168984 
L 157.053146 134.197136 
L 158.149614 283.711513 
L 158.495711 301.991963 
L 158.611077 303.197458 
L 158.726443 301.907098 
L 158.957174 292.081869 
L 159.303271 261.428584 
L 160.84884 82.510583 
L 161.062184 77.039818 
L 161.168856 77.194659 
L 161.3822 83.175819 
L 161.702216 105.000809 
L 162.077215 145.137168 
L 163.014711 252.890284 
L 163.403138 275.042132 
L 163.604066 278.019486 
L 163.70453 277.25889 
L 163.804994 275.031 
L 164.005922 266.409277 
L 164.407778 235.301079 
L 165.552537 123.510578 
L 165.923989 107.065568 
L 166.109714 105.207921 
L 166.29544 107.646465 
L 166.564077 118.20447 
L 166.832713 135.630165 
L 168.175896 238.60642 
L 168.444533 246.02607 
L 168.569372 246.99629 
L 168.694211 246.400109 
L 168.94389 240.766382 
L 169.443246 215.402109 
L 170.44196 152.616659 
L 170.820924 140.516086 
L 171.010406 138.461062 
L 171.199888 139.092252 
L 171.485082 144.662798 
L 171.770276 154.675348 
L 172.911052 203.614275 
L 173.196246 209.986268 
L 173.48144 212.291819 
L 173.765486 210.72255 
L 174.049532 206.001417 
L 175.041815 181.336903 
L 175.466006 174.963108 
L 175.890197 173.56453 
L 176.314388 176.168846 
L 177.199567 183.726958 
L 177.642157 183.697935 
L 178.084746 180.501849 
L 178.550108 175.898533 
L 179.015469 173.470595 
L 179.24815 174.067921 
L 179.480831 176.173005 
L 179.946192 184.726628 
L 181.017848 210.078013 
L 181.217961 211.994305 
L 181.418075 212.124036 
L 181.618188 210.282118 
L 182.018414 200.64629 
L 182.218528 193.213781 
L 183.338557 144.970872 
L 183.562563 140.003004 
L 183.786569 138.376435 
L 184.010575 140.463094 
L 184.289488 148.325864 
L 184.847316 178.528222 
L 185.766616 235.985468 
L 186.086809 245.678559 
L 186.246905 247.006029 
L 186.407002 245.770119 
L 186.665394 238.325032 
L 187.18218 205.821479 
L 188.344948 114.503837 
L 188.632317 105.895042 
L 188.79049 105.368108 
L 188.948663 107.986622 
L 189.265009 122.416692 
L 189.739528 162.880985 
L 190.688566 257.425275 
L 191.004912 274.269206 
L 191.241674 278.011692 
L 191.415533 275.493156 
L 191.763251 257.354051 
L 192.284828 204.12247 
L 193.154122 103.077569 
L 193.50184 81.129367 
L 193.675699 77.097545 
L 193.849558 78.13427 
L 194.169013 93.188394 
L 194.605801 137.419039 
L 195.745717 282.464791 
L 196.056603 300.538931 
L 196.26386 303.059554 
L 196.434729 299.088511 
L 196.776468 275.446107 
L 197.289076 209.642067 
L 198.167197 85.246506 
L 198.524785 59.266494 
L 198.703578 55.2892 
L 198.792975 55.720337 
L 198.971769 61.434432 
L 199.23996 81.557545 
L 199.776342 153.999534 
L 200.603336 281.742672 
L 200.919322 311.056044 
L 201.235307 320.912922 
L 201.3933 317.854198 
L 201.709285 296.198332 
L 202.183264 232.196397 
L 203.13122 79.23456 
L 203.435296 50.968439 
L 203.739372 41.720634 
L 203.835618 43.078122 
L 204.02811 51.936856 
L 204.316848 79.466914 
L 204.894323 170.692356 
L 205.732391 303.100203 
L 206.094858 328.132075 
L 206.185475 329.897949 
L 206.276092 329.781012 
L 206.457325 323.920695 
L 206.729176 301.781884 
L 207.272877 220.682708 
L 208.179045 70.38143 
L 208.538618 41.126011 
L 208.718405 37.089462 
L 208.808298 37.87025 
L 208.985723 44.839772 
L 209.248317 67.591073 
L 209.598443 116.790284 
L 210.780536 307.765619 
L 211.141918 329.256897 
L 211.262378 329.931172 
L 211.382838 327.280105 
L 211.623759 312.340239 
L 211.98514 268.983803 
L 213.498121 47.550429 
L 213.639461 42.557185 
L 213.780801 42.020415 
L 213.922141 45.940941 
L 214.204821 66.458798 
L 214.664298 128.70204 
L 215.72508 294.455388 
L 216.089591 318.882641 
L 216.183448 320.71838 
L 216.277304 320.656558 
L 216.465018 314.898104 
L 216.758512 291.82598 
L 217.075853 251.185861 
L 218.345216 69.888555 
L 218.640511 56.007162 
L 218.738942 55.258642 
L 218.837374 56.476161 
L 219.034237 64.662686 
L 219.329532 90.020616 
L 219.920122 172.184275 
L 220.742603 281.654182 
L 221.071596 300.951775 
L 221.236092 303.188652 
L 221.400588 300.363658 
L 221.72958 280.456701 
L 222.223069 223.399005 
L 223.144644 104.577989 
L 223.485632 81.691035 
L 223.656126 77.262705 
L 223.82662 77.756446 
L 223.997114 83.071824 
L 224.385659 111.151978 
L 225.912015 270.962087 
L 226.166755 277.806236 
L 226.294126 277.616074 
L 226.421496 275.052212 
L 226.676237 263.269256 
L 226.930977 243.928994 
L 228.245545 118.849685 
L 228.541151 107.066966 
L 228.688953 105.234153 
L 228.836756 106.141949 
L 229.132362 115.71301 
L 229.430742 134.202032 
L 230.773454 237.785117 
L 231.071835 246.163121 
L 231.221025 246.986661 
L 231.370215 245.591366 
L 231.694331 235.580842 
L 232.219107 204.896772 
L 232.918809 159.530183 
L 233.392212 141.425236 
L 233.628914 138.45643 
L 233.865615 139.666758 
L 234.15564 146.243074 
L 234.445665 157.116185 
L 235.31574 196.459451 
L 235.605765 205.734256 
L 235.89579 211.072653 
L 236.185815 212.197073 
L 238.098978 174.822439 
L 238.445316 173.475821 
L 238.791653 174.995919 
L 239.67562 183.008155 
L 240.117603 184.096129 
L 240.559586 181.788545 
L 241.053911 176.959166 
L 241.548237 173.595089 
L 241.7954 173.735025 
L 242.042563 175.530516 
L 242.536888 184.107945 
L 243.537862 208.588514 
L 243.87152 212.1577 
L 244.06452 211.980749 
L 244.25752 209.954267 
L 244.64352 200.382798 
L 246.176464 140.053587 
L 246.430112 138.424857 
L 246.683759 141.579224 
L 246.937407 149.53073 
L 247.444703 177.222266 
L 248.272482 230.727595 
L 248.686371 245.380105 
L 248.893316 246.974219 
L 249.10026 244.27149 
L 249.467361 229.104877 
L 249.834462 202.973142 
L 250.793461 123.632713 
L 251.243057 105.9828 
L 251.355456 105.196505 
L 251.467855 105.991824 
L 251.738909 114.415494 
L 252.009963 131.409725 
L 252.55207 183.528348 
L 253.365232 261.515671 
L 253.636285 274.718519 
L 253.796898 277.821364 
L 253.957511 277.136087 
L 254.118123 272.617621 
L 254.439348 252.693758 
L 254.921186 201.788397 
L 255.911613 92.175333 
L 256.159219 79.75868 
L 256.283023 77.192572 
L 256.406826 77.196948 
L 256.530629 79.801593 
L 256.778236 92.61294 
L 257.134078 126.637261 
L 258.527601 294.060571 
L 258.817972 303.140348 
L 258.914762 302.709897 
L 259.081622 297.846177 
L 259.415343 273.304537 
L 259.915924 208.189149 
L 260.750225 88.843583 
L 261.083946 61.913454 
L 261.250806 56.083906 
L 261.417667 55.82989 
L 261.584527 61.213903 
L 261.8479 80.645696 
L 262.242959 130.505592 
L 263.340485 294.912016 
L 263.691719 318.51589 
L 263.867335 320.854393 
L 264.042952 316.566876 
L 264.317823 297.052681 
L 264.73013 243.455062 
L 265.913753 61.705501 
L 266.244317 42.762234 
L 266.354505 41.714198 
L 266.464693 43.388485 
L 266.685069 54.753806 
L 267.020139 90.559093 
L 267.36422 144.568911 
L 268.281769 295.500009 
L 268.62585 324.725853 
L 268.848509 330.074774 
L 268.956474 328.584784 
L 269.172404 317.720342 
L 269.4963 283.508067 
L 270.036126 194.202134 
L 270.820042 67.652519 
L 271.172099 40.457082 
L 271.289451 37.416031 
L 271.406803 37.553548 
L 271.593007 44.262485 
L 271.872314 68.357248 
L 272.337826 137.522266 
L 273.361951 304.149053 
L 273.641258 325.387175 
L 273.827462 330.048629 
L 273.920565 329.40112 
L 274.106769 322.205556 
L 274.386076 297.629496 
L 274.75266 245.338586 
L 275.852413 68.108702 
L 276.220301 43.419936 
L 276.312273 41.811209 
L 276.404244 42.099666 
L 276.588188 48.309539 
L 276.864104 70.836604 
L 277.323963 135.686344 
L 278.314826 291.579972 
L 278.645113 316.649866 
L 278.865305 320.879301 
L 278.975401 319.086751 
L 279.085496 314.733608 
L 279.409663 288.167772 
L 279.733829 245.093526 
L 280.799515 84.541764 
L 281.11253 60.69127 
L 281.321207 55.298769 
L 281.425545 55.913412 
L 281.634222 63.649031 
L 281.947237 90.072889 
L 282.334179 141.063845 
L 283.355581 281.28382 
L 283.702762 301.338219 
L 283.876352 303.095994 
L 284.049943 299.232796 
L 284.397124 275.910617 
L 284.84748 222.415814 
L 285.808707 100.410606 
L 286.2015 78.531053 
L 286.332431 76.87686 
L 286.463362 78.124631 
L 286.725224 88.973162 
L 287.118017 122.921587 
L 288.464478 267.719884 
L 288.810381 277.964788 
L 288.983333 276.453645 
L 289.30873 262.304272 
L 289.766066 223.03645 
L 290.788665 123.40084 
L 291.063877 109.678358 
L 291.339089 105.200948 
L 291.476695 106.519642 
L 291.751907 115.825682 
L 292.027119 132.678906 
L 293.363867 236.606872 
L 293.678397 246.017742 
L 293.835662 246.991518 
L 293.985141 245.629229 
L 294.284099 236.761337 
L 294.732537 211.846913 
L 295.593895 156.540662 
L 295.968828 142.361407 
L 296.156295 139.081862 
L 296.343761 138.463472 
L 296.531228 140.399387 
L 296.906161 150.810342 
L 298.345928 208.509296 
L 298.660897 212.163587 
L 298.975865 210.990713 
L 299.290833 205.857141 
L 300.39984 178.989092 
L 300.767992 174.409813 
L 301.136145 173.590825 
L 301.504298 175.771325 
L 302.097178 181.538504 
L 302.690058 184.146377 
L 303.282937 180.845847 
L 303.875817 175.138351 
L 304.168684 173.587292 
L 304.461551 173.95343 
L 304.827246 177.732275 
L 305.192941 185.017595 
L 306.290027 210.563433 
L 306.472875 212.0937 
L 306.655723 212.110431 
L 306.83857 210.477888 
L 307.021418 207.156933 
L 307.387113 195.821256 
L 308.668353 142.483068 
L 308.969768 138.429864 
L 309.120476 138.83304 
L 309.271184 140.955322 
L 309.5726 150.265424 
L 309.874015 165.505841 
L 310.954542 233.892007 
L 311.193389 242.866705 
L 311.432237 246.866884 
L 311.575483 246.594537 
L 311.71873 244.242121 
L 312.005224 233.438772 
L 312.291717 215.440129 
L 313.580938 114.433437 
L 313.905438 105.478925 
L 314.086692 106.014808 
L 314.267946 110.681938 
L 314.630453 131.660731 
L 315.174214 184.061261 
L 315.938452 258.524672 
L 316.320571 276.465276 
L 316.511631 277.86353 
L 316.70269 273.843699 
L 316.971909 259.261423 
L 317.241128 235.558494 
L 318.550226 90.74384 
L 318.788244 79.405396 
L 318.907252 77.123659 
L 319.026261 77.220646 
L 319.14527 79.720736 
L 319.423531 94.673292 
L 319.840922 137.502767 
L 321.105601 291.695327 
L 321.423334 303.072037 
L 321.529245 302.746363 
L 321.741067 295.801585 
L 321.952889 280.83441 
L 323.652135 64.648174 
L 323.937437 55.29177 
L 324.080088 56.734762 
L 324.36539 71.790578 
L 324.650693 101.450869 
L 326.024929 301.241863 
L 326.374471 320.160218 
L 326.490984 320.814295 
L 326.607498 318.545231 
L 326.840526 305.441937 
L 327.190067 266.731108 
L 327.881977 152.17074 
L 328.446614 70.047747 
L 328.824674 43.717435 
L 328.95724 41.696633 
L 329.089807 43.6124 
L 329.354939 58.984982 
L 329.755233 107.52936 
L 331.106845 316.024984 
L 331.377167 329.298307 
L 331.512328 329.759767 
L 331.64749 326.037082 
L 331.913158 307.022529 
L 332.304681 255.175621 
L 333.525272 58.469211 
L 333.824655 39.209743 
L 333.924449 37.231902 
L 334.024244 37.556717 
L 334.223832 45.057584 
L 334.423421 61.241038 
L 334.891679 126.600186 
L 335.984281 304.679546 
L 336.296453 326.976648 
L 336.452539 330.070915 
L 336.608625 327.580849 
L 336.920797 306.48543 
L 337.325564 252.570514 
L 338.539865 61.25964 
L 338.879095 42.458398 
L 338.963902 41.696899 
L 339.04871 42.548675 
L 339.218325 49.021036 
L 339.538719 77.308654 
L 339.859114 122.312345 
L 340.980495 296.558791 
L 341.30089 318.139565 
L 341.461087 320.925761 
L 341.621285 318.197175 
L 341.874249 303.088282 
L 342.152552 273.078527 
L 342.996269 140.301768 
L 343.468917 79.350007 
L 343.823403 57.184808 
L 343.941565 55.285035 
L 344.059727 56.22122 
L 344.296051 66.383952 
L 344.616388 95.935448 
L 345.425087 213.848001 
L 346.031612 286.150147 
L 346.326823 301.514425 
L 346.474428 303.180005 
L 346.622033 300.768468 
L 346.917244 284.354239 
L 347.36006 236.443036 
L 348.393298 103.282763 
L 348.732786 81.192937 
L 348.90253 77.136795 
L 349.072274 77.960029 
L 349.242017 83.548411 
L 349.581505 107.506294 
L 349.751249 124.65401 
L 350.957517 259.89581 
L 351.340979 277.055277 
L 351.53271 277.569766 
L 351.724441 272.725486 
L 352.107903 248.853098 
L 352.716618 187.29296 
L 353.477512 118.992514 
L 353.78187 106.933308 
L 353.934049 105.208535 
L 354.086228 106.384715 
L 354.390585 116.893652 
L 354.755613 141.128208 
L 355.819855 228.158181 
L 356.245552 245.180541 
L 356.386373 246.885326 
L 356.527194 246.587381 
L 356.668016 244.354055 
L 356.808837 240.313082 
L 357.372121 210.371623 
L 358.265039 153.929637 
L 358.62822 141.391837 
L 358.809811 138.755609 
L 358.991402 138.608919 
L 359.172993 140.830183 
L 359.354584 145.173949 
L 359.717765 158.749949 
L 360.652601 200.138526 
L 361.120019 210.956439 
L 361.353728 212.302022 
L 361.587437 211.050317 
L 361.892133 206.190781 
L 363.110915 177.464628 
L 363.415611 174.203252 
L 363.720307 173.523401 
L 364.025002 174.987648 
L 364.854427 182.640763 
L 365.26914 184.160004 
L 365.683852 182.637486 
L 366.620778 174.269682 
L 366.933086 173.494591 
L 367.232686 175.080411 
L 367.532286 179.192452 
L 368.833625 209.566757 
L 369.184696 212.302013 
L 369.360231 211.541669 
L 369.535766 209.231776 
L 369.811097 202.535618 
L 370.086427 192.549971 
L 371.086024 148.253331 
L 371.534959 138.681004 
L 371.759427 139.032338 
L 371.983895 143.189632 
L 372.432831 162.163744 
L 373.731281 240.392934 
L 374.055894 246.898773 
L 374.2182 246.328489 
L 374.380506 243.087338 
L 374.705119 228.912801 
L 375.029731 206.152962 
L 376.087147 120.122712 
L 376.409983 107.198926 
L 376.571401 105.217976 
L 376.73282 106.482941 
L 376.894238 111.022421 
L 377.217074 129.347066 
L 377.616987 165.526937 
L 378.616768 262.617773 
L 378.974326 277.146327 
L 379.131929 277.84188 
L 379.289531 274.844531 
L 379.604735 258.117898 
L 380.077542 211.207313 
L 381.023155 101.593189 
L 381.33836 81.713868 
L 381.498116 77.425906 
L 381.627312 77.066326 
L 381.756507 79.53773 
L 382.014898 92.770849 
L 382.402485 130.665515 
L 383.803728 296.288162 
L 384.042213 303.083129 
L 384.161455 302.529947 
L 384.399939 293.470662 
L 384.757666 261.634231 
L 385.234634 195.300224 
L 386.047905 82.330446 
L 386.335298 61.076258 
L 386.478995 56.203213 
L 386.622691 55.463743 
L 386.765592 58.884261 
L 387.051392 77.71127 
L 387.480093 130.908037 
L 388.623295 299.546234 
L 388.909095 317.938291 
L 389.06025 320.898892 
L 389.211406 318.95202 
L 389.513716 300.677591 
L 391.343888 47.706038 
L 391.519422 42.0593 
L 391.607189 41.803281 
L 391.782723 46.46084 
L 392.046025 65.847538 
L 392.397093 111.30631 
L 393.7136 315.193741 
L 393.976901 328.932486 
L 394.101531 330.009037 
L 394.226161 327.521899 
L 394.423494 316.46218 
L 394.719494 285.012198 
L 395.015493 239.692058 
L 396.030044 70.460988 
L 396.367873 42.14651 
L 396.593093 37.111163 
L 396.705702 38.98293 
L 396.930922 51.318225 
L 397.268751 89.041508 
L 397.920616 200.82779 
L 398.548689 298.952961 
L 398.862726 324.769624 
L 399.019744 329.686474 
L 399.176762 328.963736 
L 399.333781 322.640709 
L 399.647817 294.430329 
L 400.118872 222.845613 
L 401.040751 73.106494 
L 401.348045 47.640029 
L 401.601346 41.753694 
L 401.727997 44.187325 
L 401.981298 59.443608 
L 402.361251 104.639959 
L 403.703781 305.955939 
L 403.972287 319.698622 
L 404.10654 320.843985 
L 404.240793 318.118913 
L 404.509299 301.556721 
L 404.852326 261.985905 
L 406.338779 61.081542 
L 406.502564 55.835364 
L 406.666349 56.021944 
L 406.830135 61.584821 
L 407.157706 87.49264 
L 407.649062 153.206905 
L 408.521938 274.96238 
L 408.896027 300.091918 
L 409.020724 302.890942 
L 409.14542 302.770001 
L 409.270117 299.758307 
L 409.51951 285.530912 
L 409.897686 246.597792 
L 411.186003 89.645784 
L 411.449941 78.215489 
L 411.581911 76.87326 
L 411.71388 78.475066 
L 411.977818 90.111526 
L 412.241757 111.579469 
L 413.830843 273.691949 
L 413.970858 277.257951 
L 414.110874 277.907335 
L 414.250889 275.668415 
L 414.53092 263.081533 
L 414.950965 228.050358 
L 416.071088 120.386146 
L 416.349219 108.133627 
L 416.490239 105.549204 
L 416.631258 105.469659 
L 416.772277 107.843176 
L 417.054315 119.363093 
L 417.336353 138.273751 
L 418.464505 229.753711 
L 418.900183 245.830041 
L 419.118023 246.793515 
L 419.335862 243.101175 
L 419.736388 225.998508 
L 421.092194 145.546629 
L 421.400646 138.982948 
L 421.554872 138.397616 
L 421.709098 139.55829 
L 421.863324 142.341217 
L 422.171776 151.991856 
L 423.405584 204.346156 
L 423.792388 211.52046 
L 423.98579 212.296755 
L 424.179192 211.302622 
L 424.407312 208.16094 
L 424.635431 203.38464 
L 425.547907 180.591826 
L 426.004145 174.397569 
L 426.474642 173.959891 
L 427.415635 182.228203 
L 427.886132 184.160004 
L 427.886132 184.160004 
" clip-path="url(#p3a08e9c270)" style="fill: none; stroke: #0000ff; stroke-linecap: square"/>
   </g>
   <g id="line2d_76">
    <path d="M 114.8 184.160004 
L 120.914095 139.747998 
L 123.984537 118.759943 
L 127.646354 95.794081 
L 128.22047 92.444644 
L 131.712713 73.806381 
L 133.433917 65.831694 
L 135.739251 56.541732 
L 136.875244 52.584298 
L 139.356918 45.440926 
L 141.37691 41.20803 
L 143.945201 37.94858 
L 146.870142 37.190393 
L 148.590155 38.221493 
L 149.064412 38.697342 
L 150.545961 40.712827 
L 153.106831 46.056011 
L 155.090735 51.766313 
L 156.715068 57.420414 
L 159.631895 69.656701 
L 161.848973 80.61087 
L 163.344697 88.732922 
L 166.94225 110.373897 
L 169.731869 128.844183 
L 173.132098 152.782838 
L 186.045034 245.855386 
L 188.49311 261.747745 
L 191.98728 282.350673 
L 195.251544 298.889827 
L 196.939205 306.261504 
L 199.21906 314.821817 
L 201.25575 321.02782 
L 203.132647 325.483951 
L 204.482034 327.915742 
L 206.546366 330.358542 
L 208.073603 331.158211 
L 208.713403 331.236923 
L 211.358697 329.955655 
L 212.913648 328.00249 
L 214.228585 325.667336 
L 215.449943 322.946606 
L 217.268531 317.933702 
L 218.843684 312.690677 
L 219.84404 308.942072 
L 221.93222 300.116401 
L 224.564092 287.194907 
L 228.116941 266.95299 
L 231.09939 247.906108 
L 235.518646 217.198032 
L 248.183637 125.688136 
L 252.557167 97.714706 
L 254.863995 84.552132 
L 257.637229 70.506939 
L 259.24509 63.354115 
L 260.995065 56.463452 
L 262.6812 50.754169 
L 264.934044 44.62121 
L 266.653266 41.135628 
L 269.408261 37.775462 
L 269.857435 37.491421 
L 271.386434 37.083405 
L 273.90908 38.300209 
L 275.520979 40.302308 
L 276.149645 41.338975 
L 277.637647 44.35663 
L 279.346196 48.780843 
L 280.9457 53.824422 
L 283.400548 63.183929 
L 285.520196 72.745854 
L 287.500814 82.820637 
L 290.260003 98.498862 
L 294.691898 126.973177 
L 297.133708 143.96073 
L 302.987234 186.635966 
L 309.037242 230.477493 
L 312.404883 253.291485 
L 316.348812 277.462434 
L 317.521495 283.986325 
L 320.625159 299.529544 
L 322.083086 305.887657 
L 324.181985 313.889884 
L 325.424663 317.955352 
L 326.707297 321.606118 
L 329.497185 327.565093 
L 330.209482 328.640412 
L 332.050305 330.562182 
L 333.363872 331.17111 
L 335.204351 330.950555 
L 336.598433 329.950515 
L 338.493562 327.44924 
L 340.005671 324.523563 
L 342.127451 319.061541 
L 343.017393 316.311783 
L 345.676443 306.550687 
L 347.570463 298.259823 
L 350.213933 284.985374 
L 354.164948 261.923657 
L 356.926295 243.938759 
L 360.876611 216.309295 
L 374.024293 121.6113 
L 377.393812 100.106657 
L 380.102672 84.529201 
L 382.30278 73.217376 
L 383.77709 66.385065 
L 385.87464 57.782904 
L 388.205413 49.868073 
L 390.838057 43.13878 
L 391.749374 41.377063 
L 393.31956 39.043484 
L 394.90584 37.600042 
L 395.806084 37.193203 
L 397.410915 37.211605 
L 400.028979 39.282673 
L 401.296995 41.186839 
L 402.212018 42.920776 
L 405.009414 50.048597 
L 406.023063 53.291365 
L 408.249348 61.588261 
L 410.254833 70.373464 
L 413.148402 85.051654 
L 416.571446 105.080872 
L 417.71144 112.298996 
L 421.148044 135.380946 
L 425.798311 168.782024 
L 427.886132 184.160004 
L 427.886132 184.160004 
" clip-path="url(#p3a08e9c270)" style="fill: none; stroke: #ff0000; stroke-width: 3; stroke-linecap: square"/>
   </g>
   <g id="line2d_77">
    <path d="M 114.8 184.160004 
L 120.710988 227.140955 
L 124.514268 253.037754 
L 126.60982 266.294988 
L 129.012684 280.37169 
L 131.617771 294.049234 
L 132.975252 300.447074 
L 135.293631 310.111953 
L 136.383417 314.074071 
L 137.694312 318.32466 
L 139.526913 323.290871 
L 141.50445 327.330377 
L 143.497125 329.97634 
L 144.385196 330.68749 
L 145.740959 331.211931 
L 147.215039 331.010404 
L 149.612379 328.970335 
L 151.201867 326.461078 
L 152.018369 324.819218 
L 153.364182 321.599359 
L 155.455614 315.358885 
L 157.41184 308.213993 
L 159.249321 300.413878 
L 161.639399 288.801615 
L 163.074792 281.093807 
L 166.4501 261.064816 
L 170.110031 236.88043 
L 174.15371 208.134211 
L 183.607332 139.213622 
L 186.502693 119.415543 
L 189.995823 97.381436 
L 192.208217 84.76162 
L 195.057762 70.33029 
L 196.74532 62.861854 
L 198.214534 57.065622 
L 200.65954 48.963699 
L 202.952937 43.209058 
L 205.188381 39.393361 
L 205.700179 38.774405 
L 206.868091 37.721447 
L 208.736222 37.083077 
L 211.277318 38.286477 
L 211.983985 39.043708 
L 214.282084 42.760792 
L 215.517416 45.538996 
L 217.854019 52.23928 
L 220.193194 60.760804 
L 222.274741 69.775445 
L 224.607233 81.352513 
L 227.490466 97.587761 
L 231.350855 122.091156 
L 234.86736 146.457391 
L 241.776217 196.996221 
L 247.200697 235.908148 
L 250.711255 259.230608 
L 251.328827 263.112721 
L 253.867679 278.236554 
L 256.50097 292.30954 
L 258.478435 301.65057 
L 261.0324 311.993024 
L 262.256525 316.216286 
L 264.12584 321.69984 
L 266.638433 327.158823 
L 268.984429 330.208362 
L 271.2479 331.235275 
L 271.922206 331.17487 
L 274.112038 329.819966 
L 275.500984 328.048329 
L 277.338427 324.633357 
L 277.964775 323.194863 
L 280.766419 315.103289 
L 282.168243 310.073087 
L 283.599105 304.296834 
L 285.718992 294.611006 
L 288.932428 277.588542 
L 290.807615 266.504482 
L 294.26626 244.227238 
L 297.852771 219.230266 
L 303.280049 179.523996 
L 308.05255 144.792605 
L 312.533021 114.195382 
L 314.239884 103.386625 
L 317.79035 82.88587 
L 320.47088 69.500013 
L 321.910522 63.151578 
L 323.317054 57.558345 
L 325.817121 49.188048 
L 327.750304 44.164018 
L 329.573331 40.631193 
L 331.689091 38.036881 
L 333.595772 37.107653 
L 335.311917 37.421101 
L 336.541968 38.315092 
L 338.270205 40.508138 
L 340.363012 44.606522 
L 341.440093 47.318438 
L 343.441624 53.41209 
L 344.662283 57.779551 
L 347.085682 67.836929 
L 350.906822 87.117201 
L 351.617013 91.115875 
L 355.053811 112.039016 
L 359.370686 141.269175 
L 363.563556 171.591491 
L 371.503265 229.41721 
L 373.948799 246.204072 
L 377.738225 270.286225 
L 379.907231 282.725164 
L 383.124129 298.986288 
L 385.627824 309.595783 
L 386.77625 313.809971 
L 388.807589 320.202417 
L 390.265523 323.923414 
L 391.049849 325.617092 
L 393.13241 329.045404 
L 395.511249 331.026546 
L 395.878017 331.146387 
L 397.548966 331.062297 
L 398.787079 330.334148 
L 400.713478 328.081799 
L 402.800898 324.125667 
L 405.074379 318.073898 
L 408.683636 304.931615 
L 410.050122 298.89764 
L 411.791384 290.431659 
L 413.584457 280.867403 
L 416.384471 264.398937 
L 420.106237 240.121583 
L 422.553938 223.038892 
L 427.886132 184.160004 
L 427.886132 184.160004 
" clip-path="url(#p3a08e9c270)" style="fill: none; stroke: #ff0000; stroke-width: 3; stroke-linecap: square"/>
   </g>
   <g id="patch_3">
    <path d="M 114.8 337.12 
L 114.8 31.2 
" style="fill: none; stroke: #000000; stroke-width: 0.8; stroke-linejoin: miter; stroke-linecap: square"/>
   </g>
   <g id="patch_4">
    <path d="M 108.538277 184.160004 
L 434.147854 184.160004 
" style="fill: none; stroke: #000000; stroke-width: 0.8; stroke-linejoin: miter; stroke-linecap: square"/>
   </g>
   <g id="legend_1">
    <g id="patch_5">
     <path d="M 115.538277 70.596875 
L 196.238277 70.596875 
L 196.238277 38.2 
L 115.538277 38.2 
z
" style="fill: #4c4c4c; opacity: 0.5; stroke: #4c4c4c; stroke-linejoin: miter"/>
    </g>
    <g id="patch_6">
     <path d="M 113.538277 68.596875 
L 194.238277 68.596875 
L 194.238277 36.2 
L 113.538277 36.2 
z
" style="fill: #ffffff; stroke: #cccccc; stroke-linejoin: miter"/>
    </g>
    <g id="line2d_78">
     <path d="M 122.538277 46.298438 
L 117.038277 46.298438 
" style="fill: none; stroke: #0000ff; stroke-linecap: square"/>
    </g>
    <g id="text_19">
     <!-- $x(t)$ -->
     <g transform="translate(125.038277 49.798438)scale(0.1 -0.1)">
      <use xlink:href="#Cmmi10-78"/>
      <use xlink:href="#Cmr10-28" transform="translate(57.080078 0)"/>
      <use xlink:href="#Cmmi10-74" transform="translate(95.898438 0)"/>
      <use xlink:href="#Cmr10-29" transform="translate(131.982422 0)"/>
     </g>
    </g>
    <g id="line2d_79">
     <path d="M 122.538277 56.596875 
L 117.038277 56.596875 
" style="fill: none; stroke: #ff0000; stroke-width: 3; stroke-linecap: square"/>
    </g>
    <g id="text_20">
     <!-- $|(A/2 \overline{\omega} \delta) \sin \delta t|$ -->
     <g transform="translate(125.038277 60.096875)scale(0.1 -0.1)">
      <defs>
       <path id="Cmsy10-6a" d="M 763 -1484 
L 763 4684 
Q 763 4734 800 4767 
Q 838 4800 891 4800 
Q 938 4800 978 4767 
Q 1019 4734 1019 4684 
L 1019 -1484 
Q 1019 -1534 978 -1567 
Q 938 -1600 891 -1600 
Q 838 -1600 800 -1567 
Q 763 -1534 763 -1484 
z
" transform="scale(0.015625)"/>
       <path id="Cmmi10-41" d="M 288 0 
Q 225 0 225 84 
Q 250 225 306 225 
Q 566 225 755 328 
Q 944 431 1081 647 
Q 1094 659 1094 659 
L 3378 4513 
Q 3428 4581 3500 4581 
L 3584 4581 
Q 3603 4581 3622 4573 
Q 3641 4566 3655 4548 
Q 3669 4531 3669 4513 
L 4056 378 
Q 4056 350 4084 294 
Q 4147 225 4563 225 
Q 4628 225 4628 141 
Q 4606 56 4592 28 
Q 4578 0 4519 0 
L 2919 0 
Q 2859 0 2859 84 
Q 2894 225 2944 225 
Q 3450 225 3481 397 
L 3384 1453 
L 1806 1453 
L 1294 594 
Q 1247 525 1247 434 
Q 1247 322 1355 273 
Q 1463 225 1594 225 
Q 1656 225 1656 141 
Q 1634 50 1621 25 
Q 1609 0 1550 0 
L 288 0 
z
M 1931 1678 
L 3359 1678 
L 3169 3750 
L 1931 1678 
z
" transform="scale(0.015625)"/>
       <path id="Cmmi10-3d" d="M 359 -1472 
Q 359 -1453 366 -1447 
L 2591 4722 
Q 2603 4759 2634 4779 
Q 2666 4800 2706 4800 
Q 2763 4800 2798 4765 
Q 2834 4731 2834 4672 
L 2834 4647 
L 609 -1522 
Q 572 -1600 488 -1600 
Q 434 -1600 396 -1562 
Q 359 -1525 359 -1472 
z
" transform="scale(0.015625)"/>
       <path id="Cmmi10-21" d="M 775 -72 
Q 413 -72 252 193 
Q 91 459 91 844 
Q 91 1097 136 1339 
Q 181 1581 273 1829 
Q 366 2078 484 2295 
Q 603 2513 750 2719 
Q 778 2759 825 2759 
Q 866 2759 891 2734 
Q 916 2709 916 2675 
Q 916 2641 897 2613 
Q 313 1809 313 1131 
Q 313 838 448 627 
Q 584 416 863 416 
Q 1103 416 1308 556 
Q 1513 697 1663 916 
Q 1663 1028 1702 1265 
Q 1741 1503 1823 1689 
Q 1906 1875 2022 1875 
Q 2169 1875 2169 1703 
Q 2169 1603 2126 1451 
Q 2084 1300 2032 1169 
Q 1981 1038 1906 872 
Q 1981 416 2363 416 
Q 2584 416 2807 544 
Q 3031 672 3203 880 
Q 3375 1088 3473 1328 
Q 3572 1569 3572 1784 
Q 3572 1978 3511 2086 
Q 3450 2194 3350 2312 
Q 3250 2431 3250 2503 
Q 3250 2628 3356 2731 
Q 3463 2834 3584 2834 
Q 3741 2834 3806 2692 
Q 3872 2550 3872 2369 
Q 3872 2075 3755 1628 
Q 3638 1181 3488 884 
Q 3281 481 2970 204 
Q 2659 -72 2272 -72 
Q 2025 -72 1873 76 
Q 1722 225 1678 481 
Q 1500 228 1272 78 
Q 1044 -72 775 -72 
z
" transform="scale(0.015625)"/>
       <path id="Cmmi10-b1" d="M 1281 -97 
Q 1059 -97 868 -14 
Q 678 69 536 225 
Q 394 381 325 573 
Q 256 766 256 991 
Q 256 1391 445 1767 
Q 634 2144 961 2419 
Q 1288 2694 1672 2791 
Q 1484 3138 1386 3389 
Q 1288 3641 1288 3903 
Q 1288 4097 1378 4245 
Q 1469 4394 1628 4478 
Q 1788 4563 1984 4563 
Q 2175 4563 2741 4434 
Q 2888 4400 2888 4263 
Q 2888 4156 2809 4068 
Q 2731 3981 2625 3981 
Q 2547 3981 2484 4017 
Q 2422 4053 2287 4143 
Q 2153 4234 2047 4282 
Q 1941 4331 1825 4331 
Q 1694 4331 1589 4251 
Q 1484 4172 1484 4044 
Q 1484 3841 1664 3577 
Q 1844 3313 2175 2900 
Q 2553 2419 2553 1838 
Q 2553 1550 2470 1215 
Q 2388 881 2230 584 
Q 2072 288 1826 95 
Q 1581 -97 1281 -97 
z
M 1294 78 
Q 1544 78 1723 337 
Q 1903 597 1995 955 
Q 2088 1313 2088 1556 
Q 2088 2034 1753 2631 
Q 1416 2538 1172 2238 
Q 928 1938 803 1547 
Q 678 1156 678 806 
Q 678 500 837 289 
Q 997 78 1294 78 
z
" transform="scale(0.015625)"/>
       <path id="Cmr10-73" d="M 213 -19 
L 213 1025 
Q 213 1075 269 1075 
L 347 1075 
Q 384 1075 397 1025 
Q 575 97 1259 97 
Q 1563 97 1767 234 
Q 1972 372 1972 659 
Q 1972 866 1812 1011 
Q 1653 1156 1434 1209 
L 1006 1294 
Q 791 1341 614 1437 
Q 438 1534 325 1695 
Q 213 1856 213 2069 
Q 213 2350 361 2529 
Q 509 2709 746 2789 
Q 984 2869 1259 2869 
Q 1588 2869 1831 2694 
L 2016 2853 
Q 2016 2869 2047 2869 
L 2094 2869 
Q 2113 2869 2128 2851 
Q 2144 2834 2144 2816 
L 2144 1978 
Q 2144 1919 2094 1919 
L 2016 1919 
Q 1959 1919 1959 1978 
Q 1959 2313 1773 2516 
Q 1588 2719 1253 2719 
Q 966 2719 755 2612 
Q 544 2506 544 2247 
Q 544 2069 695 1955 
Q 847 1841 1050 1791 
L 1484 1709 
Q 1703 1659 1892 1540 
Q 2081 1422 2192 1240 
Q 2303 1059 2303 831 
Q 2303 600 2223 429 
Q 2144 259 2001 146 
Q 1859 34 1665 -19 
Q 1472 -72 1259 -72 
Q 859 -72 575 197 
L 341 -56 
Q 341 -72 306 -72 
L 269 -72 
Q 213 -72 213 -19 
z
" transform="scale(0.015625)"/>
       <path id="Cmr10-69" d="M 197 0 
L 197 225 
Q 416 225 556 259 
Q 697 294 697 428 
L 697 2175 
Q 697 2422 601 2478 
Q 506 2534 225 2534 
L 225 2759 
L 1147 2828 
L 1147 428 
Q 1147 294 1269 259 
Q 1391 225 1594 225 
L 1594 0 
L 197 0 
z
M 469 3928 
Q 469 4069 575 4175 
Q 681 4281 819 4281 
Q 909 4281 993 4234 
Q 1078 4188 1125 4103 
Q 1172 4019 1172 3928 
Q 1172 3791 1065 3684 
Q 959 3578 819 3578 
Q 681 3578 575 3684 
Q 469 3791 469 3928 
z
" transform="scale(0.015625)"/>
       <path id="Cmr10-6e" d="M 191 0 
L 191 225 
Q 409 225 550 259 
Q 691 294 691 428 
L 691 2175 
Q 691 2347 639 2423 
Q 588 2500 491 2517 
Q 394 2534 191 2534 
L 191 2759 
L 1119 2828 
L 1119 2203 
Q 1247 2478 1498 2653 
Q 1750 2828 2047 2828 
Q 2491 2828 2714 2615 
Q 2938 2403 2938 1966 
L 2938 428 
Q 2938 294 3078 259 
Q 3219 225 3438 225 
L 3438 0 
L 1972 0 
L 1972 225 
Q 2191 225 2331 259 
Q 2472 294 2472 428 
L 2472 1947 
Q 2472 2259 2381 2461 
Q 2291 2663 2009 2663 
Q 1638 2663 1398 2366 
Q 1159 2069 1159 1691 
L 1159 428 
Q 1159 294 1300 259 
Q 1441 225 1656 225 
L 1656 0 
L 191 0 
z
" transform="scale(0.015625)"/>
      </defs>
      <use xlink:href="#Cmsy10-6a"/>
      <use xlink:href="#Cmr10-28" transform="translate(27.685547 0)"/>
      <use xlink:href="#Cmmi10-41" transform="translate(66.503906 0)"/>
      <use xlink:href="#Cmmi10-3d" transform="translate(141.503906 0)"/>
      <use xlink:href="#Cmr10-32" transform="translate(191.503906 0)"/>
      <use xlink:href="#Cmmi10-21" transform="translate(241.503906 0.5)"/>
      <use xlink:href="#Cmmi10-b1" transform="translate(303.710938 0)"/>
      <use xlink:href="#Cmr10-29" transform="translate(348.095703 0)"/>
      <use xlink:href="#Cmr10-73" transform="translate(386.914062 0)"/>
      <use xlink:href="#Cmr10-69" transform="translate(426.318359 0)"/>
      <use xlink:href="#Cmr10-6e" transform="translate(454.003906 0)"/>
      <use xlink:href="#Cmmi10-b1" transform="translate(523.405226 0)"/>
      <use xlink:href="#Cmmi10-74" transform="translate(567.789991 0)"/>
      <use xlink:href="#Cmsy10-6a" transform="translate(603.873976 0)"/>
      <path d="M 241.503906 56.53125 
L 241.503906 62.78125 
L 303.710938 62.78125 
L 303.710938 56.53125 
L 241.503906 56.53125 
z
"/>
     </g>
    </g>
   </g>
  </g>
 </g>
 <defs>
  <clipPath id="p3a08e9c270">
   <rect x="108.538277" y="31.2" width="325.609577" height="305.92"/>
  </clipPath>
 </defs>
</svg>
