<?xml version="1.0" encoding="utf-8" standalone="no"?>
<!DOCTYPE svg PUBLIC "-//W3C//DTD SVG 1.1//EN"
  "http://www.w3.org/Graphics/SVG/1.1/DTD/svg11.dtd">
<svg xmlns:xlink="http://www.w3.org/1999/xlink" width="455.621487pt" height="338.4pt" viewBox="0 0 455.621487 338.4" xmlns="http://www.w3.org/2000/svg" version="1.1">
 <metadata>
  <rdf:RDF xmlns:dc="http://purl.org/dc/elements/1.1/" xmlns:cc="http://creativecommons.org/ns#" xmlns:rdf="http://www.w3.org/1999/02/22-rdf-syntax-ns#">
   <cc:Work>
    <dc:type rdf:resource="http://purl.org/dc/dcmitype/StillImage"/>
    <dc:date>2022-07-30T11:11:18.162035</dc:date>
    <dc:format>image/svg+xml</dc:format>
    <dc:creator>
     <cc:Agent>
      <dc:title>Matplotlib v3.5.1, https://matplotlib.org/</dc:title>
     </cc:Agent>
    </dc:creator>
   </cc:Work>
  </rdf:RDF>
 </metadata>
 <defs>
  <style type="text/css">*{stroke-linejoin: round; stroke-linecap: butt}</style>
 </defs>
 <g id="figure_1">
  <g id="patch_1">
   <path d="M 0 338.4 
L 455.621487 338.4 
L 455.621487 0 
L 0 0 
z
" style="fill: #ffffff"/>
  </g>
  <g id="axes_1">
   <g id="patch_2">
    <path d="M 35.691294 331.2 
L 433.391487 331.2 
L 433.391487 7.2 
L 35.691294 7.2 
z
" style="fill: #ffffff"/>
   </g>
   <g id="matplotlib.axis_1">
    <g id="xtick_1">
     <g id="line2d_1">
      <defs>
       <path id="mca9bb28b6e" d="M 0 0 
L 0 3.5 
" style="stroke: #000000; stroke-width: 0.8"/>
      </defs>
      <g>
       <use xlink:href="#mca9bb28b6e" x="43.339375" y="208.810305" style="stroke: #000000; stroke-width: 0.8"/>
      </g>
     </g>
    </g>
    <g id="xtick_2">
     <g id="line2d_2">
      <g>
       <use xlink:href="#mca9bb28b6e" x="119.820181" y="208.810305" style="stroke: #000000; stroke-width: 0.8"/>
      </g>
     </g>
     <g id="text_1">
      <!-- 2 -->
      <g transform="translate(116.002681 224.92843)scale(0.12 -0.12)">
       <defs>
        <path id="DejaVuSans-32" d="M 1228 531 
L 3431 531 
L 3431 0 
L 469 0 
L 469 531 
Q 828 903 1448 1529 
Q 2069 2156 2228 2338 
Q 2531 2678 2651 2914 
Q 2772 3150 2772 3378 
Q 2772 3750 2511 3984 
Q 2250 4219 1831 4219 
Q 1534 4219 1204 4116 
Q 875 4013 500 3803 
L 500 4441 
Q 881 4594 1212 4672 
Q 1544 4750 1819 4750 
Q 2544 4750 2975 4387 
Q 3406 4025 3406 3419 
Q 3406 3131 3298 2873 
Q 3191 2616 2906 2266 
Q 2828 2175 2409 1742 
Q 1991 1309 1228 531 
z
" transform="scale(0.015625)"/>
       </defs>
       <use xlink:href="#DejaVuSans-32"/>
      </g>
     </g>
    </g>
    <g id="xtick_3">
     <g id="line2d_3">
      <g>
       <use xlink:href="#mca9bb28b6e" x="196.300987" y="208.810305" style="stroke: #000000; stroke-width: 0.8"/>
      </g>
     </g>
     <g id="text_2">
      <!-- 4 -->
      <g transform="translate(192.483487 224.92843)scale(0.12 -0.12)">
       <defs>
        <path id="DejaVuSans-34" d="M 2419 4116 
L 825 1625 
L 2419 1625 
L 2419 4116 
z
M 2253 4666 
L 3047 4666 
L 3047 1625 
L 3713 1625 
L 3713 1100 
L 3047 1100 
L 3047 0 
L 2419 0 
L 2419 1100 
L 313 1100 
L 313 1709 
L 2253 4666 
z
" transform="scale(0.015625)"/>
       </defs>
       <use xlink:href="#DejaVuSans-34"/>
      </g>
     </g>
    </g>
    <g id="xtick_4">
     <g id="line2d_4">
      <g>
       <use xlink:href="#mca9bb28b6e" x="272.781794" y="208.810305" style="stroke: #000000; stroke-width: 0.8"/>
      </g>
     </g>
     <g id="text_3">
      <!-- 6 -->
      <g transform="translate(268.964294 224.92843)scale(0.12 -0.12)">
       <defs>
        <path id="DejaVuSans-36" d="M 2113 2584 
Q 1688 2584 1439 2293 
Q 1191 2003 1191 1497 
Q 1191 994 1439 701 
Q 1688 409 2113 409 
Q 2538 409 2786 701 
Q 3034 994 3034 1497 
Q 3034 2003 2786 2293 
Q 2538 2584 2113 2584 
z
M 3366 4563 
L 3366 3988 
Q 3128 4100 2886 4159 
Q 2644 4219 2406 4219 
Q 1781 4219 1451 3797 
Q 1122 3375 1075 2522 
Q 1259 2794 1537 2939 
Q 1816 3084 2150 3084 
Q 2853 3084 3261 2657 
Q 3669 2231 3669 1497 
Q 3669 778 3244 343 
Q 2819 -91 2113 -91 
Q 1303 -91 875 529 
Q 447 1150 447 2328 
Q 447 3434 972 4092 
Q 1497 4750 2381 4750 
Q 2619 4750 2861 4703 
Q 3103 4656 3366 4563 
z
" transform="scale(0.015625)"/>
       </defs>
       <use xlink:href="#DejaVuSans-36"/>
      </g>
     </g>
    </g>
    <g id="xtick_5">
     <g id="line2d_5">
      <g>
       <use xlink:href="#mca9bb28b6e" x="349.2626" y="208.810305" style="stroke: #000000; stroke-width: 0.8"/>
      </g>
     </g>
     <g id="text_4">
      <!-- 8 -->
      <g transform="translate(345.4451 224.92843)scale(0.12 -0.12)">
       <defs>
        <path id="DejaVuSans-38" d="M 2034 2216 
Q 1584 2216 1326 1975 
Q 1069 1734 1069 1313 
Q 1069 891 1326 650 
Q 1584 409 2034 409 
Q 2484 409 2743 651 
Q 3003 894 3003 1313 
Q 3003 1734 2745 1975 
Q 2488 2216 2034 2216 
z
M 1403 2484 
Q 997 2584 770 2862 
Q 544 3141 544 3541 
Q 544 4100 942 4425 
Q 1341 4750 2034 4750 
Q 2731 4750 3128 4425 
Q 3525 4100 3525 3541 
Q 3525 3141 3298 2862 
Q 3072 2584 2669 2484 
Q 3125 2378 3379 2068 
Q 3634 1759 3634 1313 
Q 3634 634 3220 271 
Q 2806 -91 2034 -91 
Q 1263 -91 848 271 
Q 434 634 434 1313 
Q 434 1759 690 2068 
Q 947 2378 1403 2484 
z
M 1172 3481 
Q 1172 3119 1398 2916 
Q 1625 2713 2034 2713 
Q 2441 2713 2670 2916 
Q 2900 3119 2900 3481 
Q 2900 3844 2670 4047 
Q 2441 4250 2034 4250 
Q 1625 4250 1398 4047 
Q 1172 3844 1172 3481 
z
" transform="scale(0.015625)"/>
       </defs>
       <use xlink:href="#DejaVuSans-38"/>
      </g>
     </g>
    </g>
    <g id="xtick_6">
     <g id="line2d_6">
      <g>
       <use xlink:href="#mca9bb28b6e" x="425.743406" y="208.810305" style="stroke: #000000; stroke-width: 0.8"/>
      </g>
     </g>
     <g id="text_5">
      <!-- 10 -->
      <g transform="translate(418.108406 224.92843)scale(0.12 -0.12)">
       <defs>
        <path id="DejaVuSans-31" d="M 794 531 
L 1825 531 
L 1825 4091 
L 703 3866 
L 703 4441 
L 1819 4666 
L 2450 4666 
L 2450 531 
L 3481 531 
L 3481 0 
L 794 0 
L 794 531 
z
" transform="scale(0.015625)"/>
        <path id="DejaVuSans-30" d="M 2034 4250 
Q 1547 4250 1301 3770 
Q 1056 3291 1056 2328 
Q 1056 1369 1301 889 
Q 1547 409 2034 409 
Q 2525 409 2770 889 
Q 3016 1369 3016 2328 
Q 3016 3291 2770 3770 
Q 2525 4250 2034 4250 
z
M 2034 4750 
Q 2819 4750 3233 4129 
Q 3647 3509 3647 2328 
Q 3647 1150 3233 529 
Q 2819 -91 2034 -91 
Q 1250 -91 836 529 
Q 422 1150 422 2328 
Q 422 3509 836 4129 
Q 1250 4750 2034 4750 
z
" transform="scale(0.015625)"/>
       </defs>
       <use xlink:href="#DejaVuSans-31"/>
       <use xlink:href="#DejaVuSans-30" x="63.623047"/>
      </g>
     </g>
    </g>
    <g id="xtick_7">
     <g id="line2d_7">
      <defs>
       <path id="m692aa31d3d" d="M 0 0 
L 0 2 
" style="stroke: #000000; stroke-width: 0.6"/>
      </defs>
      <g>
       <use xlink:href="#m692aa31d3d" x="62.459577" y="208.810305" style="stroke: #000000; stroke-width: 0.6"/>
      </g>
     </g>
    </g>
    <g id="xtick_8">
     <g id="line2d_8">
      <g>
       <use xlink:href="#m692aa31d3d" x="81.579778" y="208.810305" style="stroke: #000000; stroke-width: 0.6"/>
      </g>
     </g>
    </g>
    <g id="xtick_9">
     <g id="line2d_9">
      <g>
       <use xlink:href="#m692aa31d3d" x="100.69998" y="208.810305" style="stroke: #000000; stroke-width: 0.6"/>
      </g>
     </g>
    </g>
    <g id="xtick_10">
     <g id="line2d_10">
      <g>
       <use xlink:href="#m692aa31d3d" x="138.940383" y="208.810305" style="stroke: #000000; stroke-width: 0.6"/>
      </g>
     </g>
    </g>
    <g id="xtick_11">
     <g id="line2d_11">
      <g>
       <use xlink:href="#m692aa31d3d" x="158.060584" y="208.810305" style="stroke: #000000; stroke-width: 0.6"/>
      </g>
     </g>
    </g>
    <g id="xtick_12">
     <g id="line2d_12">
      <g>
       <use xlink:href="#m692aa31d3d" x="177.180786" y="208.810305" style="stroke: #000000; stroke-width: 0.6"/>
      </g>
     </g>
    </g>
    <g id="xtick_13">
     <g id="line2d_13">
      <g>
       <use xlink:href="#m692aa31d3d" x="215.421189" y="208.810305" style="stroke: #000000; stroke-width: 0.6"/>
      </g>
     </g>
    </g>
    <g id="xtick_14">
     <g id="line2d_14">
      <g>
       <use xlink:href="#m692aa31d3d" x="234.541391" y="208.810305" style="stroke: #000000; stroke-width: 0.6"/>
      </g>
     </g>
    </g>
    <g id="xtick_15">
     <g id="line2d_15">
      <g>
       <use xlink:href="#m692aa31d3d" x="253.661592" y="208.810305" style="stroke: #000000; stroke-width: 0.6"/>
      </g>
     </g>
    </g>
    <g id="xtick_16">
     <g id="line2d_16">
      <g>
       <use xlink:href="#m692aa31d3d" x="291.901995" y="208.810305" style="stroke: #000000; stroke-width: 0.6"/>
      </g>
     </g>
    </g>
    <g id="xtick_17">
     <g id="line2d_17">
      <g>
       <use xlink:href="#m692aa31d3d" x="311.022197" y="208.810305" style="stroke: #000000; stroke-width: 0.6"/>
      </g>
     </g>
    </g>
    <g id="xtick_18">
     <g id="line2d_18">
      <g>
       <use xlink:href="#m692aa31d3d" x="330.142398" y="208.810305" style="stroke: #000000; stroke-width: 0.6"/>
      </g>
     </g>
    </g>
    <g id="xtick_19">
     <g id="line2d_19">
      <g>
       <use xlink:href="#m692aa31d3d" x="368.382801" y="208.810305" style="stroke: #000000; stroke-width: 0.6"/>
      </g>
     </g>
    </g>
    <g id="xtick_20">
     <g id="line2d_20">
      <g>
       <use xlink:href="#m692aa31d3d" x="387.503003" y="208.810305" style="stroke: #000000; stroke-width: 0.6"/>
      </g>
     </g>
    </g>
    <g id="xtick_21">
     <g id="line2d_21">
      <g>
       <use xlink:href="#m692aa31d3d" x="406.623205" y="208.810305" style="stroke: #000000; stroke-width: 0.6"/>
      </g>
     </g>
    </g>
    <g id="text_6">
     <!-- $t$ -->
     <g transform="translate(441.391487 208.810305)scale(0.19 -0.19)">
      <defs>
       <path id="Cmmi10-74" d="M 397 519 
Q 397 613 416 697 
L 878 2534 
L 206 2534 
Q 141 2534 141 2619 
Q 166 2759 225 2759 
L 934 2759 
L 1191 3803 
Q 1216 3888 1291 3947 
Q 1366 4006 1459 4006 
Q 1541 4006 1595 3957 
Q 1650 3909 1650 3828 
Q 1650 3809 1648 3798 
Q 1647 3788 1644 3775 
L 1388 2759 
L 2047 2759 
Q 2113 2759 2113 2675 
Q 2109 2659 2100 2621 
Q 2091 2584 2075 2559 
Q 2059 2534 2028 2534 
L 1331 2534 
L 872 684 
Q 825 503 825 372 
Q 825 97 1013 97 
Q 1294 97 1511 361 
Q 1728 625 1844 941 
Q 1869 978 1894 978 
L 1972 978 
Q 1997 978 2012 961 
Q 2028 944 2028 922 
Q 2028 909 2022 903 
Q 1881 516 1612 222 
Q 1344 -72 997 -72 
Q 744 -72 570 93 
Q 397 259 397 519 
z
" transform="scale(0.015625)"/>
      </defs>
      <use xlink:href="#Cmmi10-74" transform="translate(0 0.40625)"/>
     </g>
    </g>
   </g>
   <g id="matplotlib.axis_2">
    <g id="ytick_1">
     <g id="line2d_22">
      <defs>
       <path id="m689ad5abb4" d="M 0 0 
L -3.5 0 
" style="stroke: #000000; stroke-width: 0.8"/>
      </defs>
      <g>
       <use xlink:href="#m689ad5abb4" x="43.339375" y="318.110204" style="stroke: #000000; stroke-width: 0.8"/>
      </g>
     </g>
     <g id="text_7">
      <!-- −1.5 -->
      <g transform="translate(7.2 322.669267)scale(0.12 -0.12)">
       <defs>
        <path id="DejaVuSans-2212" d="M 678 2272 
L 4684 2272 
L 4684 1741 
L 678 1741 
L 678 2272 
z
" transform="scale(0.015625)"/>
        <path id="DejaVuSans-2e" d="M 684 794 
L 1344 794 
L 1344 0 
L 684 0 
L 684 794 
z
" transform="scale(0.015625)"/>
        <path id="DejaVuSans-35" d="M 691 4666 
L 3169 4666 
L 3169 4134 
L 1269 4134 
L 1269 2991 
Q 1406 3038 1543 3061 
Q 1681 3084 1819 3084 
Q 2600 3084 3056 2656 
Q 3513 2228 3513 1497 
Q 3513 744 3044 326 
Q 2575 -91 1722 -91 
Q 1428 -91 1123 -41 
Q 819 9 494 109 
L 494 744 
Q 775 591 1075 516 
Q 1375 441 1709 441 
Q 2250 441 2565 725 
Q 2881 1009 2881 1497 
Q 2881 1984 2565 2268 
Q 2250 2553 1709 2553 
Q 1456 2553 1204 2497 
Q 953 2441 691 2322 
L 691 4666 
z
" transform="scale(0.015625)"/>
       </defs>
       <use xlink:href="#DejaVuSans-2212"/>
       <use xlink:href="#DejaVuSans-31" x="83.789062"/>
       <use xlink:href="#DejaVuSans-2e" x="147.412109"/>
       <use xlink:href="#DejaVuSans-35" x="179.199219"/>
      </g>
     </g>
    </g>
    <g id="ytick_2">
     <g id="line2d_23">
      <g>
       <use xlink:href="#m689ad5abb4" x="43.339375" y="281.676904" style="stroke: #000000; stroke-width: 0.8"/>
      </g>
     </g>
     <g id="text_8">
      <!-- −1.0 -->
      <g transform="translate(7.2 286.235967)scale(0.12 -0.12)">
       <use xlink:href="#DejaVuSans-2212"/>
       <use xlink:href="#DejaVuSans-31" x="83.789062"/>
       <use xlink:href="#DejaVuSans-2e" x="147.412109"/>
       <use xlink:href="#DejaVuSans-30" x="179.199219"/>
      </g>
     </g>
    </g>
    <g id="ytick_3">
     <g id="line2d_24">
      <g>
       <use xlink:href="#m689ad5abb4" x="43.339375" y="245.243605" style="stroke: #000000; stroke-width: 0.8"/>
      </g>
     </g>
     <g id="text_9">
      <!-- −0.5 -->
      <g transform="translate(7.2 249.802667)scale(0.12 -0.12)">
       <use xlink:href="#DejaVuSans-2212"/>
       <use xlink:href="#DejaVuSans-30" x="83.789062"/>
       <use xlink:href="#DejaVuSans-2e" x="147.412109"/>
       <use xlink:href="#DejaVuSans-35" x="179.199219"/>
      </g>
     </g>
    </g>
    <g id="ytick_4">
     <g id="line2d_25">
      <g>
       <use xlink:href="#m689ad5abb4" x="43.339375" y="208.810305" style="stroke: #000000; stroke-width: 0.8"/>
      </g>
     </g>
    </g>
    <g id="ytick_5">
     <g id="line2d_26">
      <g>
       <use xlink:href="#m689ad5abb4" x="43.339375" y="172.377005" style="stroke: #000000; stroke-width: 0.8"/>
      </g>
     </g>
     <g id="text_10">
      <!-- 0.5 -->
      <g transform="translate(17.255625 176.936068)scale(0.12 -0.12)">
       <use xlink:href="#DejaVuSans-30"/>
       <use xlink:href="#DejaVuSans-2e" x="63.623047"/>
       <use xlink:href="#DejaVuSans-35" x="95.410156"/>
      </g>
     </g>
    </g>
    <g id="ytick_6">
     <g id="line2d_27">
      <g>
       <use xlink:href="#m689ad5abb4" x="43.339375" y="135.943706" style="stroke: #000000; stroke-width: 0.8"/>
      </g>
     </g>
     <g id="text_11">
      <!-- 1.0 -->
      <g transform="translate(17.255625 140.502768)scale(0.12 -0.12)">
       <use xlink:href="#DejaVuSans-31"/>
       <use xlink:href="#DejaVuSans-2e" x="63.623047"/>
       <use xlink:href="#DejaVuSans-30" x="95.410156"/>
      </g>
     </g>
    </g>
    <g id="ytick_7">
     <g id="line2d_28">
      <g>
       <use xlink:href="#m689ad5abb4" x="43.339375" y="99.510406" style="stroke: #000000; stroke-width: 0.8"/>
      </g>
     </g>
     <g id="text_12">
      <!-- 1.5 -->
      <g transform="translate(17.255625 104.069469)scale(0.12 -0.12)">
       <use xlink:href="#DejaVuSans-31"/>
       <use xlink:href="#DejaVuSans-2e" x="63.623047"/>
       <use xlink:href="#DejaVuSans-35" x="95.410156"/>
      </g>
     </g>
    </g>
    <g id="ytick_8">
     <g id="line2d_29">
      <g>
       <use xlink:href="#m689ad5abb4" x="43.339375" y="63.077106" style="stroke: #000000; stroke-width: 0.8"/>
      </g>
     </g>
     <g id="text_13">
      <!-- 2.0 -->
      <g transform="translate(17.255625 67.636169)scale(0.12 -0.12)">
       <use xlink:href="#DejaVuSans-32"/>
       <use xlink:href="#DejaVuSans-2e" x="63.623047"/>
       <use xlink:href="#DejaVuSans-30" x="95.410156"/>
      </g>
     </g>
    </g>
    <g id="ytick_9">
     <g id="line2d_30">
      <g>
       <use xlink:href="#m689ad5abb4" x="43.339375" y="26.643807" style="stroke: #000000; stroke-width: 0.8"/>
      </g>
     </g>
     <g id="text_14">
      <!-- 2.5 -->
      <g transform="translate(17.255625 31.202869)scale(0.12 -0.12)">
       <use xlink:href="#DejaVuSans-32"/>
       <use xlink:href="#DejaVuSans-2e" x="63.623047"/>
       <use xlink:href="#DejaVuSans-35" x="95.410156"/>
      </g>
     </g>
    </g>
    <g id="ytick_10">
     <g id="line2d_31">
      <defs>
       <path id="mccda3e8c94" d="M 0 0 
L -2 0 
" style="stroke: #000000; stroke-width: 0.6"/>
      </defs>
      <g>
       <use xlink:href="#mccda3e8c94" x="43.339375" y="325.396864" style="stroke: #000000; stroke-width: 0.6"/>
      </g>
     </g>
    </g>
    <g id="ytick_11">
     <g id="line2d_32">
      <g>
       <use xlink:href="#mccda3e8c94" x="43.339375" y="310.823544" style="stroke: #000000; stroke-width: 0.6"/>
      </g>
     </g>
    </g>
    <g id="ytick_12">
     <g id="line2d_33">
      <g>
       <use xlink:href="#mccda3e8c94" x="43.339375" y="303.536884" style="stroke: #000000; stroke-width: 0.6"/>
      </g>
     </g>
    </g>
    <g id="ytick_13">
     <g id="line2d_34">
      <g>
       <use xlink:href="#mccda3e8c94" x="43.339375" y="296.250224" style="stroke: #000000; stroke-width: 0.6"/>
      </g>
     </g>
    </g>
    <g id="ytick_14">
     <g id="line2d_35">
      <g>
       <use xlink:href="#mccda3e8c94" x="43.339375" y="288.963564" style="stroke: #000000; stroke-width: 0.6"/>
      </g>
     </g>
    </g>
    <g id="ytick_15">
     <g id="line2d_36">
      <g>
       <use xlink:href="#mccda3e8c94" x="43.339375" y="274.390245" style="stroke: #000000; stroke-width: 0.6"/>
      </g>
     </g>
    </g>
    <g id="ytick_16">
     <g id="line2d_37">
      <g>
       <use xlink:href="#mccda3e8c94" x="43.339375" y="267.103585" style="stroke: #000000; stroke-width: 0.6"/>
      </g>
     </g>
    </g>
    <g id="ytick_17">
     <g id="line2d_38">
      <g>
       <use xlink:href="#mccda3e8c94" x="43.339375" y="259.816925" style="stroke: #000000; stroke-width: 0.6"/>
      </g>
     </g>
    </g>
    <g id="ytick_18">
     <g id="line2d_39">
      <g>
       <use xlink:href="#mccda3e8c94" x="43.339375" y="252.530265" style="stroke: #000000; stroke-width: 0.6"/>
      </g>
     </g>
    </g>
    <g id="ytick_19">
     <g id="line2d_40">
      <g>
       <use xlink:href="#mccda3e8c94" x="43.339375" y="237.956945" style="stroke: #000000; stroke-width: 0.6"/>
      </g>
     </g>
    </g>
    <g id="ytick_20">
     <g id="line2d_41">
      <g>
       <use xlink:href="#mccda3e8c94" x="43.339375" y="230.670285" style="stroke: #000000; stroke-width: 0.6"/>
      </g>
     </g>
    </g>
    <g id="ytick_21">
     <g id="line2d_42">
      <g>
       <use xlink:href="#mccda3e8c94" x="43.339375" y="223.383625" style="stroke: #000000; stroke-width: 0.6"/>
      </g>
     </g>
    </g>
    <g id="ytick_22">
     <g id="line2d_43">
      <g>
       <use xlink:href="#mccda3e8c94" x="43.339375" y="216.096965" style="stroke: #000000; stroke-width: 0.6"/>
      </g>
     </g>
    </g>
    <g id="ytick_23">
     <g id="line2d_44">
      <g>
       <use xlink:href="#mccda3e8c94" x="43.339375" y="201.523645" style="stroke: #000000; stroke-width: 0.6"/>
      </g>
     </g>
    </g>
    <g id="ytick_24">
     <g id="line2d_45">
      <g>
       <use xlink:href="#mccda3e8c94" x="43.339375" y="194.236985" style="stroke: #000000; stroke-width: 0.6"/>
      </g>
     </g>
    </g>
    <g id="ytick_25">
     <g id="line2d_46">
      <g>
       <use xlink:href="#mccda3e8c94" x="43.339375" y="186.950325" style="stroke: #000000; stroke-width: 0.6"/>
      </g>
     </g>
    </g>
    <g id="ytick_26">
     <g id="line2d_47">
      <g>
       <use xlink:href="#mccda3e8c94" x="43.339375" y="179.663665" style="stroke: #000000; stroke-width: 0.6"/>
      </g>
     </g>
    </g>
    <g id="ytick_27">
     <g id="line2d_48">
      <g>
       <use xlink:href="#mccda3e8c94" x="43.339375" y="165.090346" style="stroke: #000000; stroke-width: 0.6"/>
      </g>
     </g>
    </g>
    <g id="ytick_28">
     <g id="line2d_49">
      <g>
       <use xlink:href="#mccda3e8c94" x="43.339375" y="157.803686" style="stroke: #000000; stroke-width: 0.6"/>
      </g>
     </g>
    </g>
    <g id="ytick_29">
     <g id="line2d_50">
      <g>
       <use xlink:href="#mccda3e8c94" x="43.339375" y="150.517026" style="stroke: #000000; stroke-width: 0.6"/>
      </g>
     </g>
    </g>
    <g id="ytick_30">
     <g id="line2d_51">
      <g>
       <use xlink:href="#mccda3e8c94" x="43.339375" y="143.230366" style="stroke: #000000; stroke-width: 0.6"/>
      </g>
     </g>
    </g>
    <g id="ytick_31">
     <g id="line2d_52">
      <g>
       <use xlink:href="#mccda3e8c94" x="43.339375" y="128.657046" style="stroke: #000000; stroke-width: 0.6"/>
      </g>
     </g>
    </g>
    <g id="ytick_32">
     <g id="line2d_53">
      <g>
       <use xlink:href="#mccda3e8c94" x="43.339375" y="121.370386" style="stroke: #000000; stroke-width: 0.6"/>
      </g>
     </g>
    </g>
    <g id="ytick_33">
     <g id="line2d_54">
      <g>
       <use xlink:href="#mccda3e8c94" x="43.339375" y="114.083726" style="stroke: #000000; stroke-width: 0.6"/>
      </g>
     </g>
    </g>
    <g id="ytick_34">
     <g id="line2d_55">
      <g>
       <use xlink:href="#mccda3e8c94" x="43.339375" y="106.797066" style="stroke: #000000; stroke-width: 0.6"/>
      </g>
     </g>
    </g>
    <g id="ytick_35">
     <g id="line2d_56">
      <g>
       <use xlink:href="#mccda3e8c94" x="43.339375" y="92.223746" style="stroke: #000000; stroke-width: 0.6"/>
      </g>
     </g>
    </g>
    <g id="ytick_36">
     <g id="line2d_57">
      <g>
       <use xlink:href="#mccda3e8c94" x="43.339375" y="84.937086" style="stroke: #000000; stroke-width: 0.6"/>
      </g>
     </g>
    </g>
    <g id="ytick_37">
     <g id="line2d_58">
      <g>
       <use xlink:href="#mccda3e8c94" x="43.339375" y="77.650426" style="stroke: #000000; stroke-width: 0.6"/>
      </g>
     </g>
    </g>
    <g id="ytick_38">
     <g id="line2d_59">
      <g>
       <use xlink:href="#mccda3e8c94" x="43.339375" y="70.363766" style="stroke: #000000; stroke-width: 0.6"/>
      </g>
     </g>
    </g>
    <g id="ytick_39">
     <g id="line2d_60">
      <g>
       <use xlink:href="#mccda3e8c94" x="43.339375" y="55.790446" style="stroke: #000000; stroke-width: 0.6"/>
      </g>
     </g>
    </g>
    <g id="ytick_40">
     <g id="line2d_61">
      <g>
       <use xlink:href="#mccda3e8c94" x="43.339375" y="48.503787" style="stroke: #000000; stroke-width: 0.6"/>
      </g>
     </g>
    </g>
    <g id="ytick_41">
     <g id="line2d_62">
      <g>
       <use xlink:href="#mccda3e8c94" x="43.339375" y="41.217127" style="stroke: #000000; stroke-width: 0.6"/>
      </g>
     </g>
    </g>
    <g id="ytick_42">
     <g id="line2d_63">
      <g>
       <use xlink:href="#mccda3e8c94" x="43.339375" y="33.930467" style="stroke: #000000; stroke-width: 0.6"/>
      </g>
     </g>
    </g>
    <g id="ytick_43">
     <g id="line2d_64">
      <g>
       <use xlink:href="#mccda3e8c94" x="43.339375" y="19.357147" style="stroke: #000000; stroke-width: 0.6"/>
      </g>
     </g>
    </g>
    <g id="ytick_44">
     <g id="line2d_65">
      <g>
       <use xlink:href="#mccda3e8c94" x="43.339375" y="12.070487" style="stroke: #000000; stroke-width: 0.6"/>
      </g>
     </g>
    </g>
   </g>
   <g id="line2d_66">
    <path d="M 43.339375 172.377005 
L 44.421844 171.443983 
L 45.728479 170.55812 
L 47.926299 169.570584 
L 48.817483 169.322845 
L 50.026892 169.106557 
L 52.390983 169.021489 
L 54.848078 169.309732 
L 57.788706 170.026516 
L 62.575098 171.764361 
L 67.071793 173.766521 
L 74.078555 177.165355 
L 84.823979 182.33128 
L 91.094677 185.123879 
L 98.200058 188.026385 
L 105.641895 190.756043 
L 110.436666 192.350205 
L 117.427353 194.45542 
L 124.012894 196.216703 
L 131.885825 198.065038 
L 139.499922 199.613224 
L 148.525354 201.180247 
L 157.49786 202.487946 
L 167.626147 203.709619 
L 177.344611 204.668683 
L 188.885934 205.584662 
L 203.049254 206.444966 
L 215.849279 207.028511 
L 234.711762 207.641917 
L 256.521269 208.097234 
L 285.464785 208.443079 
L 325.51794 208.665585 
L 392.908599 208.780878 
L 425.743406 208.796889 
L 425.743406 208.796889 
" clip-path="url(#p92dd30329f)" style="fill: none; stroke: #0000ff; stroke-linecap: square"/>
   </g>
   <g id="line2d_67">
    <path d="M 43.339375 172.377005 
L 44.678735 180.690399 
L 46.483004 190.130611 
L 48.196477 197.514533 
L 49.935037 203.693701 
L 51.405022 208.048163 
L 52.890208 211.759373 
L 54.697663 215.483803 
L 56.264935 218.118142 
L 57.6839 220.099449 
L 59.102865 221.751396 
L 60.203693 222.835121 
L 61.53608 223.94453 
L 62.868466 224.85955 
L 64.189476 225.599741 
L 66.112729 226.423827 
L 67.598998 226.886207 
L 69.085267 227.220702 
L 70.639243 227.453977 
L 74.3484 227.631344 
L 78.269769 227.400228 
L 81.859724 226.941934 
L 86.948624 226.048001 
L 95.318793 224.286516 
L 111.258229 220.857842 
L 120.836464 219.012121 
L 131.328731 217.24 
L 141.150252 215.816655 
L 150.829335 214.620663 
L 161.617258 213.503644 
L 173.53544 212.498474 
L 187.799694 211.557471 
L 200.640871 210.907251 
L 217.796503 210.262978 
L 237.748121 209.750965 
L 261.84028 209.361779 
L 295.034457 209.071005 
L 342.736943 208.897244 
L 425.743406 208.822619 
L 425.743406 208.822619 
" clip-path="url(#p92dd30329f)" style="fill: none; stroke: #ff0000; stroke-linecap: square"/>
   </g>
   <g id="line2d_68">
    <path d="M 43.339375 135.943706 
L 44.270912 134.335638 
L 45.202448 133.038662 
L 46.344936 131.826248 
L 47.487424 130.981496 
L 48.68232 130.440821 
L 49.556859 130.24036 
L 50.431398 130.186257 
L 51.6116 130.318907 
L 52.791801 130.657851 
L 54.277083 131.332989 
L 55.762365 132.238694 
L 58.203541 134.118002 
L 60.331533 136.050662 
L 64.356886 140.176416 
L 81.32707 158.661543 
L 84.891247 162.191515 
L 90.094306 166.995484 
L 93.150954 169.620115 
L 97.633279 173.208192 
L 102.586953 176.826506 
L 107.199842 179.887314 
L 112.615821 183.129463 
L 117.648099 185.829926 
L 122.549721 188.19746 
L 128.313436 190.681525 
L 132.696935 192.374419 
L 138.709795 194.44931 
L 146.204869 196.681526 
L 153.363985 198.49603 
L 159.336419 199.804633 
L 165.978773 201.069757 
L 173.661651 202.31704 
L 181.208815 203.349719 
L 191.726097 204.524813 
L 200.02829 205.273531 
L 212.604244 206.169227 
L 225.297855 206.846077 
L 242.161523 207.487391 
L 260.929545 207.960208 
L 284.099142 208.31937 
L 315.503985 208.578174 
L 366.212392 208.741732 
L 425.743406 208.794132 
L 425.743406 208.794132 
" clip-path="url(#p92dd30329f)" style="fill: none; stroke: #0000ff; stroke-linecap: square"/>
   </g>
   <g id="line2d_69">
    <path d="M 43.339375 135.943706 
L 44.835384 156.896447 
L 46.342227 174.629109 
L 47.665277 187.806372 
L 48.981267 198.998783 
L 50.33411 208.778275 
L 51.546299 216.247126 
L 52.866573 223.171658 
L 54.21467 229.109628 
L 55.671028 234.416588 
L 57.127387 238.737812 
L 58.174802 241.31861 
L 59.762368 244.506942 
L 61.349935 246.949246 
L 62.238902 248.037141 
L 63.127869 248.948292 
L 64.271917 249.888047 
L 65.415965 250.595702 
L 67.225634 251.310321 
L 69.244411 251.625583 
L 70.132408 251.631296 
L 71.655055 251.483629 
L 73.343252 251.124029 
L 75.324433 250.492268 
L 77.559327 249.571653 
L 82.055279 247.281294 
L 88.765653 243.358033 
L 98.785833 237.473195 
L 105.750795 233.737494 
L 111.280143 231.047937 
L 115.831192 229.022418 
L 120.957985 226.938081 
L 126.954862 224.750195 
L 133.205202 222.733704 
L 139.39936 220.975059 
L 147.112808 219.080328 
L 154.049155 217.621353 
L 161.264174 216.316707 
L 170.3385 214.939469 
L 178.757075 213.883399 
L 188.895125 212.845162 
L 200.369005 211.91929 
L 213.639131 211.105818 
L 227.043786 210.496854 
L 245.809442 209.902592 
L 266.443339 209.485441 
L 295.146998 209.154202 
L 332.794146 208.951135 
L 401.039201 208.837699 
L 425.743406 208.825376 
L 425.743406 208.825376 
" clip-path="url(#p92dd30329f)" style="fill: none; stroke: #ff0000; stroke-linecap: square"/>
   </g>
   <g id="line2d_70">
    <path d="M 43.339375 99.510406 
L 44.627374 96.320762 
L 45.384934 94.869086 
L 46.142494 93.698779 
L 46.900054 92.785563 
L 47.657614 92.107054 
L 48.86165 91.461408 
L 49.561708 91.30495 
L 50.261767 91.29286 
L 50.939502 91.407138 
L 52.294973 91.96662 
L 52.972708 92.39334 
L 54.012683 93.214148 
L 55.971822 95.222308 
L 58.080928 97.912829 
L 60.997594 102.263083 
L 64.965715 108.870173 
L 78.032501 131.373795 
L 83.4082 139.817575 
L 87.669932 145.995273 
L 92.108098 151.926701 
L 94.957719 155.468874 
L 98.957906 160.102434 
L 103.208317 164.613253 
L 106.118303 167.470451 
L 111.593614 172.374126 
L 117.353867 176.925024 
L 121.820166 180.068069 
L 125.646609 182.518316 
L 130.911494 185.557916 
L 136.033479 188.182703 
L 140.078188 190.047401 
L 144.604089 191.937509 
L 151.683366 194.523942 
L 156.576338 196.078738 
L 162.576631 197.758841 
L 169.320935 199.386779 
L 176.409116 200.842411 
L 184.204514 202.187377 
L 192.272369 203.342814 
L 202.652243 204.54025 
L 211.801117 205.377862 
L 223.389361 206.208811 
L 237.23191 206.943691 
L 252.022413 207.502347 
L 271.887329 208.000273 
L 294.911404 208.346355 
L 328.525777 208.605361 
L 380.019866 208.752085 
L 425.743406 208.791375 
L 425.743406 208.791375 
" clip-path="url(#p92dd30329f)" style="fill: none; stroke: #0000ff; stroke-linecap: square"/>
   </g>
   <g id="line2d_71">
    <path d="M 43.339375 99.510406 
L 44.76039 130.700839 
L 46.276801 158.700894 
L 47.752305 181.471917 
L 49.139275 199.43823 
L 50.536625 214.648403 
L 51.932545 227.351924 
L 53.327511 237.910075 
L 54.802506 247.085086 
L 56.092283 253.669825 
L 57.248974 258.588009 
L 58.272577 262.256173 
L 59.311032 265.395626 
L 60.698759 268.787151 
L 61.559833 270.483566 
L 62.420906 271.902759 
L 63.28198 273.071045 
L 64.790212 274.583883 
L 66.211284 275.473749 
L 66.921821 275.750434 
L 67.787686 275.953463 
L 68.653552 276.023226 
L 70.535414 275.779342 
L 71.320732 275.539885 
L 73.127062 274.736555 
L 75.196579 273.46588 
L 77.574215 271.664643 
L 81.424882 268.24798 
L 87.569935 262.223112 
L 94.405622 255.502395 
L 99.280906 250.977586 
L 104.15833 246.768133 
L 108.314558 243.453219 
L 112.546824 240.336923 
L 117.355209 237.104228 
L 122.023085 234.262272 
L 125.551724 232.29511 
L 132.01402 229.063461 
L 136.310155 227.157413 
L 141.614045 225.043731 
L 147.382932 223.014529 
L 154.317371 220.902346 
L 160.485213 219.284997 
L 166.092908 218.000385 
L 174.428057 216.372594 
L 182.467552 215.073131 
L 190.651146 213.976977 
L 200.739964 212.883388 
L 209.647137 212.110152 
L 221.613851 211.295294 
L 234.813092 210.626025 
L 251.073461 210.042277 
L 270.286465 209.588012 
L 294.242563 209.247492 
L 329.578417 208.996427 
L 386.503185 208.856891 
L 425.743406 208.828132 
L 425.743406 208.828132 
" clip-path="url(#p92dd30329f)" style="fill: none; stroke: #ff0000; stroke-linecap: square"/>
   </g>
   <g id="line2d_72">
    <path d="M 43.339375 63.077106 
L 44.298949 59.795974 
L 45.258523 57.212354 
L 46.42536 54.902583 
L 47.479603 53.506887 
L 48.569469 52.666865 
L 49.132213 52.447571 
L 49.731896 52.360105 
L 50.331579 52.412663 
L 50.931262 52.594863 
L 51.530945 52.896978 
L 52.911302 53.999464 
L 53.98311 55.196893 
L 55.054918 56.647613 
L 57.049659 59.900685 
L 58.839629 63.29867 
L 61.460076 68.845687 
L 64.561633 75.953733 
L 77.133632 105.512143 
L 81.408997 114.773695 
L 85.313075 122.677403 
L 89.420115 130.39382 
L 93.441899 137.358014 
L 97.543032 143.876572 
L 101.570321 149.734482 
L 105.81749 155.366858 
L 110.385372 160.84715 
L 115.097097 165.927112 
L 117.441024 168.254529 
L 122.778063 173.101458 
L 127.047909 176.564688 
L 132.010728 180.175204 
L 136.946398 183.369084 
L 141.794519 186.16246 
L 146.904385 188.778097 
L 150.626611 190.49272 
L 156.588644 192.940789 
L 159.84857 194.139066 
L 165.496818 196.006433 
L 172.327958 197.952184 
L 177.110895 199.13683 
L 183.39436 200.500136 
L 192.103226 202.079573 
L 199.688332 203.209799 
L 208.48102 204.285822 
L 218.376086 205.252735 
L 229.604732 206.103282 
L 243.348166 206.873818 
L 258.004805 207.456388 
L 276.451789 207.948142 
L 299.29139 208.317866 
L 331.544833 208.587521 
L 381.454146 208.745318 
L 425.743406 208.788618 
L 425.743406 208.788618 
" clip-path="url(#p92dd30329f)" style="fill: none; stroke: #0000ff; stroke-linecap: square"/>
   </g>
   <g id="line2d_73">
    <path d="M 43.339375 63.077106 
L 44.688637 103.497163 
L 46.149703 140.55267 
L 47.610769 171.616818 
L 49.099875 198.016093 
L 50.418205 217.589062 
L 51.818849 235.028817 
L 53.102404 248.387113 
L 54.333515 259.157475 
L 55.543586 268.045089 
L 56.403799 273.45724 
L 57.55075 279.634796 
L 58.566089 284.218936 
L 59.581428 288.066364 
L 60.592522 291.245586 
L 61.559847 293.744151 
L 62.497329 295.712998 
L 63.404969 297.238827 
L 64.602311 298.743839 
L 65.345835 299.418917 
L 66.089358 299.915665 
L 66.832881 300.249604 
L 67.86763 300.47013 
L 69.253281 300.375376 
L 70.638933 299.901063 
L 71.703381 299.31911 
L 73.572507 297.921167 
L 75.177539 296.412243 
L 77.876015 293.404518 
L 81.601711 288.631437 
L 97.020693 267.602478 
L 101.34587 262.251202 
L 105.84599 257.093948 
L 110.702341 252.00922 
L 113.669062 249.143637 
L 117.329063 245.849671 
L 121.704237 242.243542 
L 125.254001 239.566162 
L 129.681754 236.515243 
L 133.502098 234.120797 
L 137.964668 231.579138 
L 142.561139 229.223229 
L 146.93886 227.203213 
L 152.563439 224.894967 
L 156.670878 223.392507 
L 163.4543 221.209396 
L 170.921376 219.179132 
L 176.506337 217.879372 
L 181.554317 216.844298 
L 188.935626 215.538207 
L 196.324387 214.442061 
L 203.902817 213.501886 
L 214.447842 212.447538 
L 226.369827 211.536501 
L 237.015002 210.916775 
L 252.662354 210.251099 
L 269.761828 209.760745 
L 290.746157 209.380002 
L 319.147143 209.094685 
L 362.987684 208.907195 
L 425.743406 208.830889 
L 425.743406 208.830889 
" clip-path="url(#p92dd30329f)" style="fill: none; stroke: #ff0000; stroke-linecap: square"/>
   </g>
   <g id="line2d_74">
    <path d="M 43.339375 26.643807 
L 44.428444 22.064825 
L 45.517513 18.604625 
L 46.377499 16.572562 
L 47.237485 15.0922 
L 48.183016 14.035746 
L 49.128547 13.513207 
L 49.708332 13.430769 
L 50.288118 13.513692 
L 51.346476 14.052733 
L 52.404835 15.036992 
L 53.508737 16.47407 
L 54.61264 18.271514 
L 56.266865 21.526107 
L 57.766306 24.945882 
L 60.201112 31.203689 
L 63.760663 41.351569 
L 77.092707 81.012401 
L 81.124449 92.036963 
L 83.761149 98.855566 
L 88.099681 109.368307 
L 91.354408 116.675651 
L 94.375913 123.024491 
L 98.358821 130.778139 
L 102.136072 137.518452 
L 105.026945 142.29789 
L 109.420876 148.975446 
L 111.761699 152.262062 
L 115.768149 157.482483 
L 119.405353 161.810324 
L 122.779589 165.502876 
L 126.42056 169.166412 
L 128.907019 171.490415 
L 133.323096 175.29014 
L 137.739665 178.706317 
L 141.370804 181.254361 
L 145.840701 184.098612 
L 149.093311 185.983046 
L 153.896041 188.507421 
L 158.536738 190.682434 
L 163.564724 192.778029 
L 170.202616 195.179879 
L 175.153085 196.734806 
L 181.915382 198.577403 
L 188.606009 200.124695 
L 194.514543 201.29614 
L 203.358305 202.76206 
L 209.972486 203.668893 
L 217.958991 204.585226 
L 228.956964 205.586769 
L 240.085174 206.359479 
L 252.202193 206.992374 
L 268.691049 207.600239 
L 287.515264 208.050499 
L 312.871811 208.404814 
L 346.533161 208.634455 
L 402.437892 208.76658 
L 425.743406 208.785862 
L 425.743406 208.785862 
" clip-path="url(#p92dd30329f)" style="fill: none; stroke: #0000ff; stroke-linecap: square"/>
   </g>
   <g id="line2d_75">
    <path d="M 43.339375 26.643807 
L 44.627384 75.599828 
L 46.040951 121.354209 
L 47.482665 160.610135 
L 48.808077 191.021106 
L 50.193204 217.800116 
L 51.289528 235.839841 
L 52.751293 256.135889 
L 53.932141 269.79761 
L 55.369402 283.589796 
L 56.613112 293.347011 
L 57.632193 300.031209 
L 58.823873 306.532803 
L 59.859305 311.164598 
L 60.894736 314.961669 
L 62.027826 318.27165 
L 62.913429 320.312906 
L 63.832505 321.980466 
L 64.992233 323.502276 
L 65.675687 324.126983 
L 66.359141 324.569764 
L 67.042595 324.84541 
L 67.748678 324.969231 
L 68.501817 324.936643 
L 69.254957 324.749482 
L 70.008097 324.422247 
L 71.424847 323.473088 
L 72.950169 322.039409 
L 73.81188 321.072007 
L 75.141892 319.393258 
L 77.653819 315.740521 
L 80.596562 310.916058 
L 85.686593 301.911516 
L 92.738749 289.37271 
L 98.07138 280.464488 
L 101.65908 274.873957 
L 104.59774 270.557275 
L 107.74049 266.206553 
L 111.561702 261.282196 
L 115.468642 256.648334 
L 120.887984 250.852401 
L 123.119772 248.665559 
L 125.493781 246.459667 
L 130.647341 242.070987 
L 133.618071 239.772367 
L 136.700059 237.552386 
L 142.589625 233.737108 
L 148.579861 230.370103 
L 153.713994 227.845476 
L 158.292567 225.842612 
L 164.577601 223.429702 
L 169.73471 221.705879 
L 176.345966 219.78837 
L 183.153753 218.10991 
L 189.858476 216.706722 
L 198.31568 215.233364 
L 205.72309 214.169631 
L 215.41536 213.038159 
L 225.527653 212.11054 
L 237.462899 211.273072 
L 251.007308 210.576215 
L 265.319817 210.052263 
L 283.504574 209.603874 
L 307.859776 209.245371 
L 342.049193 208.99704 
L 396.535563 208.858596 
L 425.743406 208.833646 
L 425.743406 208.833646 
" clip-path="url(#p92dd30329f)" style="fill: none; stroke: #ff0000; stroke-linecap: square"/>
   </g>
   <g id="patch_3">
    <path d="M 43.339375 331.2 
L 43.339375 7.2 
" style="fill: none; stroke: #000000; stroke-width: 0.8; stroke-linejoin: miter; stroke-linecap: square"/>
   </g>
   <g id="patch_4">
    <path d="M 35.691294 208.810305 
L 433.391487 208.810305 
" style="fill: none; stroke: #000000; stroke-width: 0.8; stroke-linejoin: miter; stroke-linecap: square"/>
   </g>
   <g id="legend_1">
    <g id="patch_5">
     <path d="M 388.091487 46.596875 
L 430.391487 46.596875 
L 430.391487 14.2 
L 388.091487 14.2 
z
" style="fill: #4c4c4c; opacity: 0.5; stroke: #4c4c4c; stroke-linejoin: miter"/>
    </g>
    <g id="patch_6">
     <path d="M 386.091487 44.596875 
L 428.391487 44.596875 
L 428.391487 12.2 
L 386.091487 12.2 
z
" style="fill: #ffffff; stroke: #cccccc; stroke-linejoin: miter"/>
    </g>
    <g id="line2d_76">
     <path d="M 395.091487 22.298438 
L 389.591487 22.298438 
" style="fill: none; stroke: #0000ff; stroke-linecap: square"/>
    </g>
    <g id="text_15">
     <!-- $x(t)$ -->
     <g transform="translate(397.591487 25.798438)scale(0.1 -0.1)">
      <defs>
       <path id="Cmmi10-78" d="M 500 184 
Q 613 97 819 97 
Q 1019 97 1172 289 
Q 1325 481 1381 709 
L 1672 1844 
Q 1741 2153 1741 2266 
Q 1741 2425 1652 2544 
Q 1563 2663 1403 2663 
Q 1200 2663 1022 2536 
Q 844 2409 722 2214 
Q 600 2019 550 1819 
Q 538 1778 500 1778 
L 422 1778 
Q 372 1778 372 1838 
L 372 1856 
Q 434 2094 584 2320 
Q 734 2547 951 2687 
Q 1169 2828 1416 2828 
Q 1650 2828 1839 2703 
Q 2028 2578 2106 2363 
Q 2216 2559 2386 2693 
Q 2556 2828 2759 2828 
Q 2897 2828 3040 2779 
Q 3184 2731 3275 2631 
Q 3366 2531 3366 2381 
Q 3366 2219 3261 2101 
Q 3156 1984 2994 1984 
Q 2891 1984 2822 2050 
Q 2753 2116 2753 2216 
Q 2753 2350 2845 2451 
Q 2938 2553 3066 2572 
Q 2950 2663 2747 2663 
Q 2541 2663 2389 2472 
Q 2238 2281 2175 2047 
L 1894 916 
Q 1825 659 1825 494 
Q 1825 331 1917 214 
Q 2009 97 2163 97 
Q 2463 97 2698 361 
Q 2934 625 3009 941 
Q 3022 978 3059 978 
L 3138 978 
Q 3163 978 3178 961 
Q 3194 944 3194 922 
Q 3194 916 3188 903 
Q 3097 522 2806 225 
Q 2516 -72 2150 -72 
Q 1916 -72 1727 54 
Q 1538 181 1459 397 
Q 1359 209 1182 68 
Q 1006 -72 806 -72 
Q 669 -72 523 -23 
Q 378 25 287 125 
Q 197 225 197 378 
Q 197 528 301 651 
Q 406 775 563 775 
Q 669 775 741 711 
Q 813 647 813 544 
Q 813 409 723 309 
Q 634 209 500 184 
z
" transform="scale(0.015625)"/>
       <path id="Cmr10-28" d="M 1984 -1588 
Q 1628 -1306 1370 -942 
Q 1113 -578 948 -165 
Q 784 247 703 697 
Q 622 1147 622 1600 
Q 622 2059 703 2509 
Q 784 2959 951 3375 
Q 1119 3791 1378 4153 
Q 1638 4516 1984 4788 
Q 1984 4800 2016 4800 
L 2075 4800 
Q 2094 4800 2109 4783 
Q 2125 4766 2125 4744 
Q 2125 4716 2113 4703 
Q 1800 4397 1592 4047 
Q 1384 3697 1257 3301 
Q 1131 2906 1075 2482 
Q 1019 2059 1019 1600 
Q 1019 -434 2106 -1491 
Q 2125 -1509 2125 -1544 
Q 2125 -1559 2108 -1579 
Q 2091 -1600 2075 -1600 
L 2016 -1600 
Q 1984 -1600 1984 -1588 
z
" transform="scale(0.015625)"/>
       <path id="Cmr10-29" d="M 416 -1600 
Q 359 -1600 359 -1544 
Q 359 -1516 372 -1503 
Q 1466 -434 1466 1600 
Q 1466 3634 384 4691 
Q 359 4706 359 4744 
Q 359 4766 376 4783 
Q 394 4800 416 4800 
L 475 4800 
Q 494 4800 506 4788 
Q 966 4425 1272 3906 
Q 1578 3388 1720 2800 
Q 1863 2213 1863 1600 
Q 1863 1147 1786 708 
Q 1709 269 1542 -157 
Q 1375 -584 1119 -945 
Q 863 -1306 506 -1588 
Q 494 -1600 475 -1600 
L 416 -1600 
z
" transform="scale(0.015625)"/>
      </defs>
      <use xlink:href="#Cmmi10-78"/>
      <use xlink:href="#Cmr10-28" transform="translate(57.080078 0)"/>
      <use xlink:href="#Cmmi10-74" transform="translate(95.898438 0)"/>
      <use xlink:href="#Cmr10-29" transform="translate(131.982422 0)"/>
     </g>
    </g>
    <g id="line2d_77">
     <path d="M 395.091487 32.596875 
L 389.591487 32.596875 
" style="fill: none; stroke: #ff0000; stroke-linecap: square"/>
    </g>
    <g id="text_16">
     <!-- $dx/dt$ -->
     <g transform="translate(397.591487 36.096875)scale(0.1 -0.1)">
      <defs>
       <path id="Cmmi10-64" d="M 1113 -72 
Q 709 -72 476 233 
Q 244 538 244 953 
Q 244 1363 456 1803 
Q 669 2244 1030 2536 
Q 1391 2828 1806 2828 
Q 1994 2828 2145 2723 
Q 2297 2619 2381 2444 
L 2741 3872 
Q 2766 3981 2772 4044 
Q 2772 4147 2356 4147 
Q 2291 4147 2291 4231 
Q 2294 4247 2305 4287 
Q 2316 4328 2333 4350 
Q 2350 4372 2381 4372 
L 3244 4441 
Q 3322 4441 3322 4359 
L 2400 678 
Q 2356 572 2356 372 
Q 2356 97 2541 97 
Q 2741 97 2845 351 
Q 2950 606 3022 941 
Q 3034 978 3072 978 
L 3150 978 
Q 3175 978 3190 956 
Q 3206 934 3206 916 
Q 3094 469 2961 198 
Q 2828 -72 2528 -72 
Q 2313 -72 2147 54 
Q 1981 181 1941 391 
Q 1528 -72 1113 -72 
z
M 1119 97 
Q 1350 97 1567 270 
Q 1784 444 1941 678 
Q 1947 684 1947 703 
L 2297 2113 
Q 2259 2338 2131 2500 
Q 2003 2663 1791 2663 
Q 1575 2663 1389 2486 
Q 1203 2309 1075 2069 
Q 950 1813 836 1366 
Q 722 919 722 672 
Q 722 450 817 273 
Q 913 97 1119 97 
z
" transform="scale(0.015625)"/>
       <path id="Cmmi10-3d" d="M 359 -1472 
Q 359 -1453 366 -1447 
L 2591 4722 
Q 2603 4759 2634 4779 
Q 2666 4800 2706 4800 
Q 2763 4800 2798 4765 
Q 2834 4731 2834 4672 
L 2834 4647 
L 609 -1522 
Q 572 -1600 488 -1600 
Q 434 -1600 396 -1562 
Q 359 -1525 359 -1472 
z
" transform="scale(0.015625)"/>
      </defs>
      <use xlink:href="#Cmmi10-64"/>
      <use xlink:href="#Cmmi10-78" transform="translate(52.001953 0)"/>
      <use xlink:href="#Cmmi10-3d" transform="translate(109.082031 0)"/>
      <use xlink:href="#Cmmi10-64" transform="translate(159.082031 0)"/>
      <use xlink:href="#Cmmi10-74" transform="translate(211.083984 0)"/>
     </g>
    </g>
   </g>
  </g>
 </g>
 <defs>
  <clipPath id="p92dd30329f">
   <rect x="35.691294" y="7.2" width="397.700192" height="324"/>
  </clipPath>
 </defs>
</svg>
