<?xml version="1.0" encoding="utf-8" standalone="no"?>
<!DOCTYPE svg PUBLIC "-//W3C//DTD SVG 1.1//EN"
  "http://www.w3.org/Graphics/SVG/1.1/DTD/svg11.dtd">
<svg xmlns:xlink="http://www.w3.org/1999/xlink" width="455.267854pt" height="344.32pt" viewBox="0 0 455.267854 344.32" xmlns="http://www.w3.org/2000/svg" version="1.1">
 <metadata>
  <rdf:RDF xmlns:dc="http://purl.org/dc/elements/1.1/" xmlns:cc="http://creativecommons.org/ns#" xmlns:rdf="http://www.w3.org/1999/02/22-rdf-syntax-ns#">
   <cc:Work>
    <dc:type rdf:resource="http://purl.org/dc/dcmitype/StillImage"/>
    <dc:date>2022-07-30T11:11:45.166873</dc:date>
    <dc:format>image/svg+xml</dc:format>
    <dc:creator>
     <cc:Agent>
      <dc:title>Matplotlib v3.5.1, https://matplotlib.org/</dc:title>
     </cc:Agent>
    </dc:creator>
   </cc:Work>
  </rdf:RDF>
 </metadata>
 <defs>
  <style type="text/css">*{stroke-linejoin: round; stroke-linecap: butt}</style>
 </defs>
 <g id="figure_1">
  <g id="patch_1">
   <path d="M 0 344.32 
L 455.267854 344.32 
L 455.267854 0 
L 0 0 
z
" style="fill: #ffffff"/>
  </g>
  <g id="axes_1">
   <g id="patch_2">
    <path d="M 108.538277 337.12 
L 434.147854 337.12 
L 434.147854 31.2 
L 108.538277 31.2 
z
" style="fill: #ffffff"/>
   </g>
   <g id="matplotlib.axis_1">
    <g id="xtick_1">
     <g id="line2d_1">
      <defs>
       <path id="mdd55d72f7b" d="M 0 0 
L 0 3.5 
" style="stroke: #000000; stroke-width: 0.8"/>
      </defs>
      <g>
       <use xlink:href="#mdd55d72f7b" x="114.8" y="184.744717" style="stroke: #000000; stroke-width: 0.8"/>
      </g>
     </g>
    </g>
    <g id="xtick_2">
     <g id="line2d_2">
      <g>
       <use xlink:href="#mdd55d72f7b" x="146.108613" y="184.744717" style="stroke: #000000; stroke-width: 0.8"/>
      </g>
     </g>
     <g id="text_1">
      <!-- $\pi$ -->
      <g transform="translate(143.258613 199.343154)scale(0.1 -0.1)">
       <defs>
        <path id="Cmmi10-bc" d="M 647 109 
Q 647 144 672 213 
Q 850 584 1004 942 
Q 1159 1300 1282 1639 
Q 1406 1978 1509 2363 
L 1100 2363 
Q 866 2363 662 2216 
Q 459 2069 325 1844 
Q 313 1819 288 1819 
L 213 1819 
Q 153 1819 153 1881 
Q 153 1894 166 1919 
Q 375 2275 614 2517 
Q 853 2759 1153 2759 
L 3475 2759 
Q 3541 2759 3587 2715 
Q 3634 2672 3634 2597 
Q 3634 2503 3567 2433 
Q 3500 2363 3406 2363 
L 2591 2363 
Q 2488 1859 2478 1381 
Q 2478 766 2694 269 
Q 2713 231 2713 191 
Q 2713 122 2672 62 
Q 2631 3 2567 -34 
Q 2503 -72 2431 -72 
Q 2263 -72 2200 203 
Q 2138 478 2138 738 
Q 2138 1103 2200 1442 
Q 2263 1781 2400 2363 
L 1703 2363 
Q 1197 313 1094 103 
Q 1003 -72 844 -72 
Q 766 -72 706 -20 
Q 647 31 647 109 
z
" transform="scale(0.015625)"/>
       </defs>
       <use xlink:href="#Cmmi10-bc" transform="translate(0 0.890625)"/>
      </g>
     </g>
    </g>
    <g id="xtick_3">
     <g id="line2d_3">
      <g>
       <use xlink:href="#mdd55d72f7b" x="177.417226" y="184.744717" style="stroke: #000000; stroke-width: 0.8"/>
      </g>
     </g>
     <g id="text_2">
      <!-- $2 \, \pi$ -->
      <g transform="translate(171.317226 199.343154)scale(0.1 -0.1)">
       <defs>
        <path id="Cmr10-32" d="M 319 0 
L 319 172 
Q 319 188 331 206 
L 1325 1306 
Q 1550 1550 1690 1715 
Q 1831 1881 1968 2097 
Q 2106 2313 2186 2536 
Q 2266 2759 2266 3009 
Q 2266 3272 2169 3511 
Q 2072 3750 1880 3894 
Q 1688 4038 1416 4038 
Q 1138 4038 916 3870 
Q 694 3703 603 3438 
Q 628 3444 672 3444 
Q 816 3444 917 3347 
Q 1019 3250 1019 3097 
Q 1019 2950 917 2848 
Q 816 2747 672 2747 
Q 522 2747 420 2851 
Q 319 2956 319 3097 
Q 319 3338 409 3548 
Q 500 3759 670 3923 
Q 841 4088 1055 4175 
Q 1269 4263 1509 4263 
Q 1875 4263 2190 4108 
Q 2506 3953 2690 3670 
Q 2875 3388 2875 3009 
Q 2875 2731 2753 2481 
Q 2631 2231 2440 2026 
Q 2250 1822 1953 1562 
Q 1656 1303 1563 1216 
L 838 519 
L 1453 519 
Q 1906 519 2211 526 
Q 2516 534 2534 550 
Q 2609 631 2688 1141 
L 2875 1141 
L 2694 0 
L 319 0 
z
" transform="scale(0.015625)"/>
       </defs>
       <use xlink:href="#Cmr10-32" transform="translate(0 0.390625)"/>
       <use xlink:href="#Cmmi10-bc" transform="translate(64.632454 0.390625)"/>
      </g>
     </g>
    </g>
    <g id="xtick_4">
     <g id="line2d_4">
      <g>
       <use xlink:href="#mdd55d72f7b" x="208.72584" y="184.744717" style="stroke: #000000; stroke-width: 0.8"/>
      </g>
     </g>
     <g id="text_3">
      <!-- $3 \, \pi$ -->
      <g transform="translate(202.62584 199.343154)scale(0.1 -0.1)">
       <defs>
        <path id="Cmr10-33" d="M 609 494 
Q 759 275 1012 169 
Q 1266 63 1556 63 
Q 1928 63 2084 380 
Q 2241 697 2241 1100 
Q 2241 1281 2208 1462 
Q 2175 1644 2097 1800 
Q 2019 1956 1883 2050 
Q 1747 2144 1550 2144 
L 1125 2144 
Q 1069 2144 1069 2203 
L 1069 2259 
Q 1069 2309 1125 2309 
L 1478 2338 
Q 1703 2338 1851 2506 
Q 2000 2675 2069 2917 
Q 2138 3159 2138 3378 
Q 2138 3684 1994 3881 
Q 1850 4078 1556 4078 
Q 1313 4078 1091 3986 
Q 869 3894 738 3706 
Q 750 3709 759 3711 
Q 769 3713 781 3713 
Q 925 3713 1022 3613 
Q 1119 3513 1119 3372 
Q 1119 3234 1022 3134 
Q 925 3034 781 3034 
Q 641 3034 541 3134 
Q 441 3234 441 3372 
Q 441 3647 606 3850 
Q 772 4053 1033 4158 
Q 1294 4263 1556 4263 
Q 1750 4263 1965 4205 
Q 2181 4147 2356 4039 
Q 2531 3931 2642 3762 
Q 2753 3594 2753 3378 
Q 2753 3109 2633 2881 
Q 2513 2653 2303 2487 
Q 2094 2322 1844 2241 
Q 2122 2188 2372 2031 
Q 2622 1875 2773 1631 
Q 2925 1388 2925 1106 
Q 2925 753 2731 467 
Q 2538 181 2222 20 
Q 1906 -141 1556 -141 
Q 1256 -141 954 -26 
Q 653 88 461 316 
Q 269 544 269 863 
Q 269 1022 375 1128 
Q 481 1234 641 1234 
Q 744 1234 830 1186 
Q 916 1138 964 1050 
Q 1013 963 1013 863 
Q 1013 706 903 600 
Q 794 494 641 494 
L 609 494 
z
" transform="scale(0.015625)"/>
       </defs>
       <use xlink:href="#Cmr10-33" transform="translate(0 0.390625)"/>
       <use xlink:href="#Cmmi10-bc" transform="translate(64.632454 0.390625)"/>
      </g>
     </g>
    </g>
    <g id="xtick_5">
     <g id="line2d_5">
      <g>
       <use xlink:href="#mdd55d72f7b" x="240.034453" y="184.744717" style="stroke: #000000; stroke-width: 0.8"/>
      </g>
     </g>
     <g id="text_4">
      <!-- $4 \, \pi$ -->
      <g transform="translate(233.934453 199.343154)scale(0.1 -0.1)">
       <defs>
        <path id="Cmr10-34" d="M 178 1056 
L 178 1281 
L 2156 4231 
Q 2178 4263 2222 4263 
L 2316 4263 
Q 2388 4263 2388 4191 
L 2388 1281 
L 3016 1281 
L 3016 1056 
L 2388 1056 
L 2388 428 
Q 2388 297 2575 261 
Q 2763 225 3009 225 
L 3009 0 
L 1247 0 
L 1247 225 
Q 1494 225 1681 261 
Q 1869 297 1869 428 
L 1869 1056 
L 178 1056 
z
M 391 1281 
L 1906 1281 
L 1906 3547 
L 391 1281 
z
" transform="scale(0.015625)"/>
       </defs>
       <use xlink:href="#Cmr10-34" transform="translate(0 0.390625)"/>
       <use xlink:href="#Cmmi10-bc" transform="translate(64.632454 0.390625)"/>
      </g>
     </g>
    </g>
    <g id="xtick_6">
     <g id="line2d_6">
      <g>
       <use xlink:href="#mdd55d72f7b" x="271.343066" y="184.744717" style="stroke: #000000; stroke-width: 0.8"/>
      </g>
     </g>
     <g id="text_5">
      <!-- $5 \, \pi$ -->
      <g transform="translate(265.243066 199.343154)scale(0.1 -0.1)">
       <defs>
        <path id="Cmr10-35" d="M 556 728 
Q 622 541 758 387 
Q 894 234 1080 148 
Q 1266 63 1466 63 
Q 1928 63 2103 422 
Q 2278 781 2278 1294 
Q 2278 1516 2270 1667 
Q 2263 1819 2228 1959 
Q 2169 2184 2020 2353 
Q 1872 2522 1656 2522 
Q 1441 2522 1286 2456 
Q 1131 2391 1034 2303 
Q 938 2216 863 2119 
Q 788 2022 769 2016 
L 697 2016 
Q 681 2016 657 2036 
Q 634 2056 634 2075 
L 634 4213 
Q 634 4228 654 4245 
Q 675 4263 697 4263 
L 716 4263 
Q 1147 4056 1631 4056 
Q 2106 4056 2547 4263 
L 2566 4263 
Q 2588 4263 2606 4247 
Q 2625 4231 2625 4213 
L 2625 4153 
Q 2625 4122 2613 4122 
Q 2394 3831 2064 3668 
Q 1734 3506 1381 3506 
Q 1125 3506 856 3578 
L 856 2369 
Q 1069 2541 1236 2614 
Q 1403 2688 1663 2688 
Q 2016 2688 2295 2484 
Q 2575 2281 2725 1954 
Q 2875 1628 2875 1288 
Q 2875 903 2686 575 
Q 2497 247 2172 53 
Q 1847 -141 1466 -141 
Q 1150 -141 886 21 
Q 622 184 470 459 
Q 319 734 319 1044 
Q 319 1188 412 1278 
Q 506 1369 647 1369 
Q 788 1369 883 1276 
Q 978 1184 978 1044 
Q 978 906 883 811 
Q 788 716 647 716 
Q 625 716 597 720 
Q 569 725 556 728 
z
" transform="scale(0.015625)"/>
       </defs>
       <use xlink:href="#Cmr10-35" transform="translate(0 0.390625)"/>
       <use xlink:href="#Cmmi10-bc" transform="translate(64.632454 0.390625)"/>
      </g>
     </g>
    </g>
    <g id="xtick_7">
     <g id="line2d_7">
      <g>
       <use xlink:href="#mdd55d72f7b" x="302.651679" y="184.744717" style="stroke: #000000; stroke-width: 0.8"/>
      </g>
     </g>
     <g id="text_6">
      <!-- $6 \, \pi$ -->
      <g transform="translate(296.551679 199.343154)scale(0.1 -0.1)">
       <defs>
        <path id="Cmr10-36" d="M 1600 -141 
Q 1203 -141 937 70 
Q 672 281 526 617 
Q 381 953 325 1322 
Q 269 1691 269 2069 
Q 269 2575 466 3084 
Q 663 3594 1045 3928 
Q 1428 4263 1953 4263 
Q 2172 4263 2361 4180 
Q 2550 4097 2658 3936 
Q 2766 3775 2766 3547 
Q 2766 3416 2677 3327 
Q 2588 3238 2456 3238 
Q 2331 3238 2240 3328 
Q 2150 3419 2150 3547 
Q 2150 3672 2240 3762 
Q 2331 3853 2456 3853 
L 2491 3853 
Q 2409 3969 2261 4023 
Q 2113 4078 1953 4078 
Q 1759 4078 1595 3993 
Q 1431 3909 1300 3765 
Q 1169 3622 1081 3448 
Q 994 3275 945 3053 
Q 897 2831 884 2637 
Q 872 2444 872 2150 
Q 984 2413 1190 2580 
Q 1397 2747 1656 2747 
Q 1941 2747 2175 2631 
Q 2409 2516 2578 2311 
Q 2747 2106 2836 1843 
Q 2925 1581 2925 1313 
Q 2925 938 2758 598 
Q 2591 259 2287 59 
Q 1984 -141 1600 -141 
z
M 1600 63 
Q 1847 63 1997 175 
Q 2147 288 2217 473 
Q 2288 659 2305 848 
Q 2322 1038 2322 1313 
Q 2322 1675 2287 1931 
Q 2253 2188 2100 2383 
Q 1947 2578 1631 2578 
Q 1372 2578 1205 2403 
Q 1038 2228 961 1961 
Q 884 1694 884 1447 
Q 884 1363 891 1319 
Q 891 1309 889 1303 
Q 888 1297 884 1288 
Q 884 1013 940 731 
Q 997 450 1156 256 
Q 1316 63 1600 63 
z
" transform="scale(0.015625)"/>
       </defs>
       <use xlink:href="#Cmr10-36" transform="translate(0 0.390625)"/>
       <use xlink:href="#Cmmi10-bc" transform="translate(64.632454 0.390625)"/>
      </g>
     </g>
    </g>
    <g id="xtick_8">
     <g id="line2d_8">
      <g>
       <use xlink:href="#mdd55d72f7b" x="333.960292" y="184.744717" style="stroke: #000000; stroke-width: 0.8"/>
      </g>
     </g>
     <g id="text_7">
      <!-- $7 \, \pi$ -->
      <g transform="translate(327.860292 199.343154)scale(0.1 -0.1)">
       <defs>
        <path id="Cmr10-37" d="M 1113 166 
Q 1113 522 1175 862 
Q 1238 1203 1358 1536 
Q 1478 1869 1648 2189 
Q 1819 2509 2022 2791 
L 2606 3603 
L 1875 3603 
Q 738 3603 703 3572 
Q 619 3469 544 2981 
L 359 2981 
L 569 4325 
L 756 4325 
L 756 4306 
Q 756 4191 1147 4156 
Q 1538 4122 1913 4122 
L 3103 4122 
L 3103 3956 
Q 3103 3950 3101 3947 
Q 3100 3944 3097 3938 
L 2216 2700 
Q 1891 2219 1809 1631 
Q 1728 1044 1728 166 
Q 1728 41 1637 -50 
Q 1547 -141 1422 -141 
Q 1294 -141 1203 -50 
Q 1113 41 1113 166 
z
" transform="scale(0.015625)"/>
       </defs>
       <use xlink:href="#Cmr10-37" transform="translate(0 0.421875)"/>
       <use xlink:href="#Cmmi10-bc" transform="translate(64.632454 0.421875)"/>
      </g>
     </g>
    </g>
    <g id="xtick_9">
     <g id="line2d_9">
      <g>
       <use xlink:href="#mdd55d72f7b" x="365.268905" y="184.744717" style="stroke: #000000; stroke-width: 0.8"/>
      </g>
     </g>
     <g id="text_8">
      <!-- $8 \, \pi$ -->
      <g transform="translate(359.168905 199.343154)scale(0.1 -0.1)">
       <defs>
        <path id="Cmr10-38" d="M 269 972 
Q 269 1356 522 1651 
Q 775 1947 1172 2144 
L 934 2297 
Q 716 2441 578 2680 
Q 441 2919 441 3181 
Q 441 3488 602 3734 
Q 763 3981 1030 4122 
Q 1297 4263 1600 4263 
Q 1884 4263 2148 4147 
Q 2413 4031 2583 3815 
Q 2753 3600 2753 3303 
Q 2753 3088 2651 2903 
Q 2550 2719 2373 2572 
Q 2197 2425 1997 2322 
L 2363 2088 
Q 2616 1922 2770 1653 
Q 2925 1384 2925 1088 
Q 2925 741 2739 456 
Q 2553 172 2247 15 
Q 1941 -141 1600 -141 
Q 1269 -141 961 -6 
Q 653 128 461 383 
Q 269 638 269 972 
z
M 616 972 
Q 616 719 755 509 
Q 894 300 1122 181 
Q 1350 63 1600 63 
Q 1972 63 2275 280 
Q 2578 497 2578 856 
Q 2578 978 2529 1098 
Q 2481 1219 2395 1317 
Q 2309 1416 2203 1478 
L 1344 2034 
Q 1144 1928 976 1765 
Q 809 1603 712 1400 
Q 616 1197 616 972 
z
M 1056 2925 
L 1831 2425 
Q 2100 2581 2272 2803 
Q 2444 3025 2444 3303 
Q 2444 3519 2323 3698 
Q 2203 3878 2009 3978 
Q 1816 4078 1594 4078 
Q 1400 4078 1203 4003 
Q 1006 3928 878 3779 
Q 750 3631 750 3431 
Q 750 3131 1056 2925 
z
" transform="scale(0.015625)"/>
       </defs>
       <use xlink:href="#Cmr10-38" transform="translate(0 0.390625)"/>
       <use xlink:href="#Cmmi10-bc" transform="translate(64.632454 0.390625)"/>
      </g>
     </g>
    </g>
    <g id="xtick_10">
     <g id="line2d_10">
      <g>
       <use xlink:href="#mdd55d72f7b" x="396.577519" y="184.744717" style="stroke: #000000; stroke-width: 0.8"/>
      </g>
     </g>
     <g id="text_9">
      <!-- $9 \, \pi$ -->
      <g transform="translate(390.477519 199.343154)scale(0.1 -0.1)">
       <defs>
        <path id="Cmr10-39" d="M 722 269 
Q 897 63 1331 63 
Q 1575 63 1786 228 
Q 1997 394 2113 634 
Q 2247 906 2284 1214 
Q 2322 1522 2322 1978 
Q 2213 1719 2008 1553 
Q 1803 1388 1538 1388 
Q 1166 1388 873 1589 
Q 581 1791 425 2120 
Q 269 2450 269 2822 
Q 269 3206 444 3539 
Q 619 3872 928 4067 
Q 1238 4263 1631 4263 
Q 2019 4263 2280 4052 
Q 2541 3841 2678 3508 
Q 2816 3175 2870 2803 
Q 2925 2431 2925 2069 
Q 2925 1575 2744 1061 
Q 2563 547 2202 203 
Q 1841 -141 1331 -141 
Q 953 -141 690 37 
Q 428 216 428 575 
Q 428 706 517 795 
Q 606 884 738 884 
Q 866 884 955 795 
Q 1044 706 1044 575 
Q 1044 450 953 359 
Q 863 269 738 269 
L 722 269 
z
M 1563 1556 
Q 1825 1556 1992 1732 
Q 2159 1909 2234 2171 
Q 2309 2434 2309 2694 
L 2309 2816 
L 2309 2841 
Q 2309 3322 2168 3700 
Q 2028 4078 1631 4078 
Q 1378 4078 1220 3967 
Q 1063 3856 988 3672 
Q 913 3488 892 3278 
Q 872 3069 872 2822 
Q 872 2459 906 2203 
Q 941 1947 1094 1751 
Q 1247 1556 1563 1556 
z
" transform="scale(0.015625)"/>
       </defs>
       <use xlink:href="#Cmr10-39" transform="translate(0 0.390625)"/>
       <use xlink:href="#Cmmi10-bc" transform="translate(64.632454 0.390625)"/>
      </g>
     </g>
    </g>
    <g id="xtick_11">
     <g id="line2d_11">
      <g>
       <use xlink:href="#mdd55d72f7b" x="427.886132" y="184.744717" style="stroke: #000000; stroke-width: 0.8"/>
      </g>
     </g>
     <g id="text_10">
      <!-- $10 \, \pi$ -->
      <g transform="translate(419.286132 199.343154)scale(0.1 -0.1)">
       <defs>
        <path id="Cmr10-31" d="M 594 0 
L 594 225 
Q 1394 225 1394 428 
L 1394 3788 
Q 1063 3628 556 3628 
L 556 3853 
Q 1341 3853 1741 4263 
L 1831 4263 
Q 1853 4263 1873 4245 
Q 1894 4228 1894 4206 
L 1894 428 
Q 1894 225 2694 225 
L 2694 0 
L 594 0 
z
" transform="scale(0.015625)"/>
        <path id="Cmr10-30" d="M 1600 -141 
Q 816 -141 533 504 
Q 250 1150 250 2041 
Q 250 2597 351 3087 
Q 453 3578 754 3920 
Q 1056 4263 1600 4263 
Q 2022 4263 2290 4056 
Q 2559 3850 2700 3523 
Q 2841 3197 2892 2823 
Q 2944 2450 2944 2041 
Q 2944 1491 2842 1011 
Q 2741 531 2444 195 
Q 2147 -141 1600 -141 
z
M 1600 25 
Q 1956 25 2131 390 
Q 2306 756 2347 1200 
Q 2388 1644 2388 2144 
Q 2388 2625 2347 3031 
Q 2306 3438 2132 3767 
Q 1959 4097 1600 4097 
Q 1238 4097 1063 3765 
Q 888 3434 847 3029 
Q 806 2625 806 2144 
Q 806 1788 823 1472 
Q 841 1156 916 820 
Q 991 484 1158 254 
Q 1325 25 1600 25 
z
" transform="scale(0.015625)"/>
       </defs>
       <use xlink:href="#Cmr10-31" transform="translate(0 0.390625)"/>
       <use xlink:href="#Cmr10-30" transform="translate(50 0.390625)"/>
       <use xlink:href="#Cmmi10-bc" transform="translate(114.632454 0.390625)"/>
      </g>
     </g>
    </g>
    <g id="xtick_12">
     <g id="line2d_12">
      <defs>
       <path id="m44fd8a6c3f" d="M 0 0 
L 0 2 
" style="stroke: #000000; stroke-width: 0.6"/>
      </defs>
      <g>
       <use xlink:href="#m44fd8a6c3f" x="122.627153" y="184.744717" style="stroke: #000000; stroke-width: 0.6"/>
      </g>
     </g>
    </g>
    <g id="xtick_13">
     <g id="line2d_13">
      <g>
       <use xlink:href="#m44fd8a6c3f" x="130.454307" y="184.744717" style="stroke: #000000; stroke-width: 0.6"/>
      </g>
     </g>
    </g>
    <g id="xtick_14">
     <g id="line2d_14">
      <g>
       <use xlink:href="#m44fd8a6c3f" x="138.28146" y="184.744717" style="stroke: #000000; stroke-width: 0.6"/>
      </g>
     </g>
    </g>
    <g id="xtick_15">
     <g id="line2d_15">
      <g>
       <use xlink:href="#m44fd8a6c3f" x="153.935766" y="184.744717" style="stroke: #000000; stroke-width: 0.6"/>
      </g>
     </g>
    </g>
    <g id="xtick_16">
     <g id="line2d_16">
      <g>
       <use xlink:href="#m44fd8a6c3f" x="161.76292" y="184.744717" style="stroke: #000000; stroke-width: 0.6"/>
      </g>
     </g>
    </g>
    <g id="xtick_17">
     <g id="line2d_17">
      <g>
       <use xlink:href="#m44fd8a6c3f" x="169.590073" y="184.744717" style="stroke: #000000; stroke-width: 0.6"/>
      </g>
     </g>
    </g>
    <g id="xtick_18">
     <g id="line2d_18">
      <g>
       <use xlink:href="#m44fd8a6c3f" x="185.24438" y="184.744717" style="stroke: #000000; stroke-width: 0.6"/>
      </g>
     </g>
    </g>
    <g id="xtick_19">
     <g id="line2d_19">
      <g>
       <use xlink:href="#m44fd8a6c3f" x="193.071533" y="184.744717" style="stroke: #000000; stroke-width: 0.6"/>
      </g>
     </g>
    </g>
    <g id="xtick_20">
     <g id="line2d_20">
      <g>
       <use xlink:href="#m44fd8a6c3f" x="200.898686" y="184.744717" style="stroke: #000000; stroke-width: 0.6"/>
      </g>
     </g>
    </g>
    <g id="xtick_21">
     <g id="line2d_21">
      <g>
       <use xlink:href="#m44fd8a6c3f" x="216.552993" y="184.744717" style="stroke: #000000; stroke-width: 0.6"/>
      </g>
     </g>
    </g>
    <g id="xtick_22">
     <g id="line2d_22">
      <g>
       <use xlink:href="#m44fd8a6c3f" x="224.380146" y="184.744717" style="stroke: #000000; stroke-width: 0.6"/>
      </g>
     </g>
    </g>
    <g id="xtick_23">
     <g id="line2d_23">
      <g>
       <use xlink:href="#m44fd8a6c3f" x="232.207299" y="184.744717" style="stroke: #000000; stroke-width: 0.6"/>
      </g>
     </g>
    </g>
    <g id="xtick_24">
     <g id="line2d_24">
      <g>
       <use xlink:href="#m44fd8a6c3f" x="247.861606" y="184.744717" style="stroke: #000000; stroke-width: 0.6"/>
      </g>
     </g>
    </g>
    <g id="xtick_25">
     <g id="line2d_25">
      <g>
       <use xlink:href="#m44fd8a6c3f" x="255.688759" y="184.744717" style="stroke: #000000; stroke-width: 0.6"/>
      </g>
     </g>
    </g>
    <g id="xtick_26">
     <g id="line2d_26">
      <g>
       <use xlink:href="#m44fd8a6c3f" x="263.515913" y="184.744717" style="stroke: #000000; stroke-width: 0.6"/>
      </g>
     </g>
    </g>
    <g id="xtick_27">
     <g id="line2d_27">
      <g>
       <use xlink:href="#m44fd8a6c3f" x="279.170219" y="184.744717" style="stroke: #000000; stroke-width: 0.6"/>
      </g>
     </g>
    </g>
    <g id="xtick_28">
     <g id="line2d_28">
      <g>
       <use xlink:href="#m44fd8a6c3f" x="286.997372" y="184.744717" style="stroke: #000000; stroke-width: 0.6"/>
      </g>
     </g>
    </g>
    <g id="xtick_29">
     <g id="line2d_29">
      <g>
       <use xlink:href="#m44fd8a6c3f" x="294.824526" y="184.744717" style="stroke: #000000; stroke-width: 0.6"/>
      </g>
     </g>
    </g>
    <g id="xtick_30">
     <g id="line2d_30">
      <g>
       <use xlink:href="#m44fd8a6c3f" x="310.478832" y="184.744717" style="stroke: #000000; stroke-width: 0.6"/>
      </g>
     </g>
    </g>
    <g id="xtick_31">
     <g id="line2d_31">
      <g>
       <use xlink:href="#m44fd8a6c3f" x="318.305986" y="184.744717" style="stroke: #000000; stroke-width: 0.6"/>
      </g>
     </g>
    </g>
    <g id="xtick_32">
     <g id="line2d_32">
      <g>
       <use xlink:href="#m44fd8a6c3f" x="326.133139" y="184.744717" style="stroke: #000000; stroke-width: 0.6"/>
      </g>
     </g>
    </g>
    <g id="xtick_33">
     <g id="line2d_33">
      <g>
       <use xlink:href="#m44fd8a6c3f" x="341.787446" y="184.744717" style="stroke: #000000; stroke-width: 0.6"/>
      </g>
     </g>
    </g>
    <g id="xtick_34">
     <g id="line2d_34">
      <g>
       <use xlink:href="#m44fd8a6c3f" x="349.614599" y="184.744717" style="stroke: #000000; stroke-width: 0.6"/>
      </g>
     </g>
    </g>
    <g id="xtick_35">
     <g id="line2d_35">
      <g>
       <use xlink:href="#m44fd8a6c3f" x="357.441752" y="184.744717" style="stroke: #000000; stroke-width: 0.6"/>
      </g>
     </g>
    </g>
    <g id="xtick_36">
     <g id="line2d_36">
      <g>
       <use xlink:href="#m44fd8a6c3f" x="373.096059" y="184.744717" style="stroke: #000000; stroke-width: 0.6"/>
      </g>
     </g>
    </g>
    <g id="xtick_37">
     <g id="line2d_37">
      <g>
       <use xlink:href="#m44fd8a6c3f" x="380.923212" y="184.744717" style="stroke: #000000; stroke-width: 0.6"/>
      </g>
     </g>
    </g>
    <g id="xtick_38">
     <g id="line2d_38">
      <g>
       <use xlink:href="#m44fd8a6c3f" x="388.750365" y="184.744717" style="stroke: #000000; stroke-width: 0.6"/>
      </g>
     </g>
    </g>
    <g id="xtick_39">
     <g id="line2d_39">
      <g>
       <use xlink:href="#m44fd8a6c3f" x="404.404672" y="184.744717" style="stroke: #000000; stroke-width: 0.6"/>
      </g>
     </g>
    </g>
    <g id="xtick_40">
     <g id="line2d_40">
      <g>
       <use xlink:href="#m44fd8a6c3f" x="412.231825" y="184.744717" style="stroke: #000000; stroke-width: 0.6"/>
      </g>
     </g>
    </g>
    <g id="xtick_41">
     <g id="line2d_41">
      <g>
       <use xlink:href="#m44fd8a6c3f" x="420.058979" y="184.744717" style="stroke: #000000; stroke-width: 0.6"/>
      </g>
     </g>
    </g>
    <g id="text_11">
     <!-- $t$ -->
     <g transform="translate(442.147854 184.744717)scale(0.16 -0.16)">
      <defs>
       <path id="Cmmi10-74" d="M 397 519 
Q 397 613 416 697 
L 878 2534 
L 206 2534 
Q 141 2534 141 2619 
Q 166 2759 225 2759 
L 934 2759 
L 1191 3803 
Q 1216 3888 1291 3947 
Q 1366 4006 1459 4006 
Q 1541 4006 1595 3957 
Q 1650 3909 1650 3828 
Q 1650 3809 1648 3798 
Q 1647 3788 1644 3775 
L 1388 2759 
L 2047 2759 
Q 2113 2759 2113 2675 
Q 2109 2659 2100 2621 
Q 2091 2584 2075 2559 
Q 2059 2534 2028 2534 
L 1331 2534 
L 872 684 
Q 825 503 825 372 
Q 825 97 1013 97 
Q 1294 97 1511 361 
Q 1728 625 1844 941 
Q 1869 978 1894 978 
L 1972 978 
Q 1997 978 2012 961 
Q 2028 944 2028 922 
Q 2028 909 2022 903 
Q 1881 516 1612 222 
Q 1344 -72 997 -72 
Q 744 -72 570 93 
Q 397 259 397 519 
z
" transform="scale(0.015625)"/>
      </defs>
      <use xlink:href="#Cmmi10-74" transform="translate(0 0.40625)"/>
     </g>
    </g>
   </g>
   <g id="matplotlib.axis_2">
    <g id="ytick_1">
     <g id="line2d_42">
      <defs>
       <path id="m7400a1ebff" d="M 0 0 
L -3.5 0 
" style="stroke: #000000; stroke-width: 0.8"/>
      </defs>
      <g>
       <use xlink:href="#m7400a1ebff" x="114.8" y="323.179865" style="stroke: #000000; stroke-width: 0.8"/>
      </g>
     </g>
     <g id="text_12">
      <!-- $-0.30000000000000004$ -->
      <g transform="translate(7.2 326.979083)scale(0.1 -0.1)">
       <defs>
        <path id="Cmsy10-a1" d="M 653 1472 
Q 600 1472 565 1512 
Q 531 1553 531 1600 
Q 531 1647 565 1687 
Q 600 1728 653 1728 
L 4325 1728 
Q 4375 1728 4408 1687 
Q 4441 1647 4441 1600 
Q 4441 1553 4408 1512 
Q 4375 1472 4325 1472 
L 653 1472 
z
" transform="scale(0.015625)"/>
        <path id="Cmmi10-3a" d="M 538 353 
Q 538 497 644 600 
Q 750 703 891 703 
Q 978 703 1062 656 
Q 1147 609 1194 525 
Q 1241 441 1241 353 
Q 1241 213 1137 106 
Q 1034 0 891 0 
Q 750 0 644 106 
Q 538 213 538 353 
z
" transform="scale(0.015625)"/>
       </defs>
       <use xlink:href="#Cmsy10-a1" transform="translate(0 0.390625)"/>
       <use xlink:href="#Cmr10-30" transform="translate(77.685547 0.390625)"/>
       <use xlink:href="#Cmmi10-3a" transform="translate(127.685547 0.390625)"/>
       <use xlink:href="#Cmr10-33" transform="translate(155.371094 0.390625)"/>
       <use xlink:href="#Cmr10-30" transform="translate(205.371094 0.390625)"/>
       <use xlink:href="#Cmr10-30" transform="translate(255.371094 0.390625)"/>
       <use xlink:href="#Cmr10-30" transform="translate(305.371094 0.390625)"/>
       <use xlink:href="#Cmr10-30" transform="translate(355.371094 0.390625)"/>
       <use xlink:href="#Cmr10-30" transform="translate(405.371094 0.390625)"/>
       <use xlink:href="#Cmr10-30" transform="translate(455.371094 0.390625)"/>
       <use xlink:href="#Cmr10-30" transform="translate(505.371094 0.390625)"/>
       <use xlink:href="#Cmr10-30" transform="translate(555.371094 0.390625)"/>
       <use xlink:href="#Cmr10-30" transform="translate(605.371094 0.390625)"/>
       <use xlink:href="#Cmr10-30" transform="translate(655.371094 0.390625)"/>
       <use xlink:href="#Cmr10-30" transform="translate(705.371094 0.390625)"/>
       <use xlink:href="#Cmr10-30" transform="translate(755.371094 0.390625)"/>
       <use xlink:href="#Cmr10-30" transform="translate(805.371094 0.390625)"/>
       <use xlink:href="#Cmr10-30" transform="translate(855.371094 0.390625)"/>
       <use xlink:href="#Cmr10-30" transform="translate(905.371094 0.390625)"/>
       <use xlink:href="#Cmr10-34" transform="translate(955.371094 0.390625)"/>
      </g>
     </g>
    </g>
    <g id="ytick_2">
     <g id="line2d_43">
      <g>
       <use xlink:href="#m7400a1ebff" x="114.8" y="277.034815" style="stroke: #000000; stroke-width: 0.8"/>
      </g>
     </g>
     <g id="text_13">
      <!-- $-0.2$ -->
      <g transform="translate(87.2 280.834034)scale(0.1 -0.1)">
       <use xlink:href="#Cmsy10-a1" transform="translate(0 0.390625)"/>
       <use xlink:href="#Cmr10-30" transform="translate(77.685547 0.390625)"/>
       <use xlink:href="#Cmmi10-3a" transform="translate(127.685547 0.390625)"/>
       <use xlink:href="#Cmr10-32" transform="translate(155.371094 0.390625)"/>
      </g>
     </g>
    </g>
    <g id="ytick_3">
     <g id="line2d_44">
      <g>
       <use xlink:href="#m7400a1ebff" x="114.8" y="230.889766" style="stroke: #000000; stroke-width: 0.8"/>
      </g>
     </g>
     <g id="text_14">
      <!-- $-0.09999999999999998$ -->
      <g transform="translate(7.2 234.688985)scale(0.1 -0.1)">
       <use xlink:href="#Cmsy10-a1" transform="translate(0 0.390625)"/>
       <use xlink:href="#Cmr10-30" transform="translate(77.685547 0.390625)"/>
       <use xlink:href="#Cmmi10-3a" transform="translate(127.685547 0.390625)"/>
       <use xlink:href="#Cmr10-30" transform="translate(155.371094 0.390625)"/>
       <use xlink:href="#Cmr10-39" transform="translate(205.371094 0.390625)"/>
       <use xlink:href="#Cmr10-39" transform="translate(255.371094 0.390625)"/>
       <use xlink:href="#Cmr10-39" transform="translate(305.371094 0.390625)"/>
       <use xlink:href="#Cmr10-39" transform="translate(355.371094 0.390625)"/>
       <use xlink:href="#Cmr10-39" transform="translate(405.371094 0.390625)"/>
       <use xlink:href="#Cmr10-39" transform="translate(455.371094 0.390625)"/>
       <use xlink:href="#Cmr10-39" transform="translate(505.371094 0.390625)"/>
       <use xlink:href="#Cmr10-39" transform="translate(555.371094 0.390625)"/>
       <use xlink:href="#Cmr10-39" transform="translate(605.371094 0.390625)"/>
       <use xlink:href="#Cmr10-39" transform="translate(655.371094 0.390625)"/>
       <use xlink:href="#Cmr10-39" transform="translate(705.371094 0.390625)"/>
       <use xlink:href="#Cmr10-39" transform="translate(755.371094 0.390625)"/>
       <use xlink:href="#Cmr10-39" transform="translate(805.371094 0.390625)"/>
       <use xlink:href="#Cmr10-39" transform="translate(855.371094 0.390625)"/>
       <use xlink:href="#Cmr10-39" transform="translate(905.371094 0.390625)"/>
       <use xlink:href="#Cmr10-38" transform="translate(955.371094 0.390625)"/>
      </g>
     </g>
    </g>
    <g id="ytick_4">
     <g id="line2d_45">
      <g>
       <use xlink:href="#m7400a1ebff" x="114.8" y="184.744717" style="stroke: #000000; stroke-width: 0.8"/>
      </g>
     </g>
    </g>
    <g id="ytick_5">
     <g id="line2d_46">
      <g>
       <use xlink:href="#m7400a1ebff" x="114.8" y="138.599668" style="stroke: #000000; stroke-width: 0.8"/>
      </g>
     </g>
     <g id="text_15">
      <!-- $0.09999999999999998$ -->
      <g transform="translate(15 142.398886)scale(0.1 -0.1)">
       <use xlink:href="#Cmr10-30" transform="translate(0 0.390625)"/>
       <use xlink:href="#Cmmi10-3a" transform="translate(50 0.390625)"/>
       <use xlink:href="#Cmr10-30" transform="translate(77.685547 0.390625)"/>
       <use xlink:href="#Cmr10-39" transform="translate(127.685547 0.390625)"/>
       <use xlink:href="#Cmr10-39" transform="translate(177.685547 0.390625)"/>
       <use xlink:href="#Cmr10-39" transform="translate(227.685547 0.390625)"/>
       <use xlink:href="#Cmr10-39" transform="translate(277.685547 0.390625)"/>
       <use xlink:href="#Cmr10-39" transform="translate(327.685547 0.390625)"/>
       <use xlink:href="#Cmr10-39" transform="translate(377.685547 0.390625)"/>
       <use xlink:href="#Cmr10-39" transform="translate(427.685547 0.390625)"/>
       <use xlink:href="#Cmr10-39" transform="translate(477.685547 0.390625)"/>
       <use xlink:href="#Cmr10-39" transform="translate(527.685547 0.390625)"/>
       <use xlink:href="#Cmr10-39" transform="translate(577.685547 0.390625)"/>
       <use xlink:href="#Cmr10-39" transform="translate(627.685547 0.390625)"/>
       <use xlink:href="#Cmr10-39" transform="translate(677.685547 0.390625)"/>
       <use xlink:href="#Cmr10-39" transform="translate(727.685547 0.390625)"/>
       <use xlink:href="#Cmr10-39" transform="translate(777.685547 0.390625)"/>
       <use xlink:href="#Cmr10-39" transform="translate(827.685547 0.390625)"/>
       <use xlink:href="#Cmr10-38" transform="translate(877.685547 0.390625)"/>
      </g>
     </g>
    </g>
    <g id="ytick_6">
     <g id="line2d_47">
      <g>
       <use xlink:href="#m7400a1ebff" x="114.8" y="92.454618" style="stroke: #000000; stroke-width: 0.8"/>
      </g>
     </g>
     <g id="text_16">
      <!-- $0.20000000000000007$ -->
      <g transform="translate(15 96.253837)scale(0.1 -0.1)">
       <use xlink:href="#Cmr10-30" transform="translate(0 0.421875)"/>
       <use xlink:href="#Cmmi10-3a" transform="translate(50 0.421875)"/>
       <use xlink:href="#Cmr10-32" transform="translate(77.685547 0.421875)"/>
       <use xlink:href="#Cmr10-30" transform="translate(127.685547 0.421875)"/>
       <use xlink:href="#Cmr10-30" transform="translate(177.685547 0.421875)"/>
       <use xlink:href="#Cmr10-30" transform="translate(227.685547 0.421875)"/>
       <use xlink:href="#Cmr10-30" transform="translate(277.685547 0.421875)"/>
       <use xlink:href="#Cmr10-30" transform="translate(327.685547 0.421875)"/>
       <use xlink:href="#Cmr10-30" transform="translate(377.685547 0.421875)"/>
       <use xlink:href="#Cmr10-30" transform="translate(427.685547 0.421875)"/>
       <use xlink:href="#Cmr10-30" transform="translate(477.685547 0.421875)"/>
       <use xlink:href="#Cmr10-30" transform="translate(527.685547 0.421875)"/>
       <use xlink:href="#Cmr10-30" transform="translate(577.685547 0.421875)"/>
       <use xlink:href="#Cmr10-30" transform="translate(627.685547 0.421875)"/>
       <use xlink:href="#Cmr10-30" transform="translate(677.685547 0.421875)"/>
       <use xlink:href="#Cmr10-30" transform="translate(727.685547 0.421875)"/>
       <use xlink:href="#Cmr10-30" transform="translate(777.685547 0.421875)"/>
       <use xlink:href="#Cmr10-30" transform="translate(827.685547 0.421875)"/>
       <use xlink:href="#Cmr10-37" transform="translate(877.685547 0.421875)"/>
      </g>
     </g>
    </g>
    <g id="ytick_7">
     <g id="line2d_48">
      <g>
       <use xlink:href="#m7400a1ebff" x="114.8" y="46.309569" style="stroke: #000000; stroke-width: 0.8"/>
      </g>
     </g>
     <g id="text_17">
      <!-- $0.30000000000000004$ -->
      <g transform="translate(15 50.108788)scale(0.1 -0.1)">
       <use xlink:href="#Cmr10-30" transform="translate(0 0.390625)"/>
       <use xlink:href="#Cmmi10-3a" transform="translate(50 0.390625)"/>
       <use xlink:href="#Cmr10-33" transform="translate(77.685547 0.390625)"/>
       <use xlink:href="#Cmr10-30" transform="translate(127.685547 0.390625)"/>
       <use xlink:href="#Cmr10-30" transform="translate(177.685547 0.390625)"/>
       <use xlink:href="#Cmr10-30" transform="translate(227.685547 0.390625)"/>
       <use xlink:href="#Cmr10-30" transform="translate(277.685547 0.390625)"/>
       <use xlink:href="#Cmr10-30" transform="translate(327.685547 0.390625)"/>
       <use xlink:href="#Cmr10-30" transform="translate(377.685547 0.390625)"/>
       <use xlink:href="#Cmr10-30" transform="translate(427.685547 0.390625)"/>
       <use xlink:href="#Cmr10-30" transform="translate(477.685547 0.390625)"/>
       <use xlink:href="#Cmr10-30" transform="translate(527.685547 0.390625)"/>
       <use xlink:href="#Cmr10-30" transform="translate(577.685547 0.390625)"/>
       <use xlink:href="#Cmr10-30" transform="translate(627.685547 0.390625)"/>
       <use xlink:href="#Cmr10-30" transform="translate(677.685547 0.390625)"/>
       <use xlink:href="#Cmr10-30" transform="translate(727.685547 0.390625)"/>
       <use xlink:href="#Cmr10-30" transform="translate(777.685547 0.390625)"/>
       <use xlink:href="#Cmr10-30" transform="translate(827.685547 0.390625)"/>
       <use xlink:href="#Cmr10-34" transform="translate(877.685547 0.390625)"/>
      </g>
     </g>
    </g>
    <g id="ytick_8">
     <g id="line2d_49">
      <defs>
       <path id="mca9b5ebc3a" d="M 0 0 
L -2 0 
" style="stroke: #000000; stroke-width: 0.6"/>
      </defs>
      <g>
       <use xlink:href="#mca9b5ebc3a" x="114.8" y="332.408874" style="stroke: #000000; stroke-width: 0.6"/>
      </g>
     </g>
    </g>
    <g id="ytick_9">
     <g id="line2d_50">
      <g>
       <use xlink:href="#mca9b5ebc3a" x="114.8" y="313.950855" style="stroke: #000000; stroke-width: 0.6"/>
      </g>
     </g>
    </g>
    <g id="ytick_10">
     <g id="line2d_51">
      <g>
       <use xlink:href="#mca9b5ebc3a" x="114.8" y="304.721845" style="stroke: #000000; stroke-width: 0.6"/>
      </g>
     </g>
    </g>
    <g id="ytick_11">
     <g id="line2d_52">
      <g>
       <use xlink:href="#mca9b5ebc3a" x="114.8" y="295.492835" style="stroke: #000000; stroke-width: 0.6"/>
      </g>
     </g>
    </g>
    <g id="ytick_12">
     <g id="line2d_53">
      <g>
       <use xlink:href="#mca9b5ebc3a" x="114.8" y="286.263825" style="stroke: #000000; stroke-width: 0.6"/>
      </g>
     </g>
    </g>
    <g id="ytick_13">
     <g id="line2d_54">
      <g>
       <use xlink:href="#mca9b5ebc3a" x="114.8" y="267.805806" style="stroke: #000000; stroke-width: 0.6"/>
      </g>
     </g>
    </g>
    <g id="ytick_14">
     <g id="line2d_55">
      <g>
       <use xlink:href="#mca9b5ebc3a" x="114.8" y="258.576796" style="stroke: #000000; stroke-width: 0.6"/>
      </g>
     </g>
    </g>
    <g id="ytick_15">
     <g id="line2d_56">
      <g>
       <use xlink:href="#mca9b5ebc3a" x="114.8" y="249.347786" style="stroke: #000000; stroke-width: 0.6"/>
      </g>
     </g>
    </g>
    <g id="ytick_16">
     <g id="line2d_57">
      <g>
       <use xlink:href="#mca9b5ebc3a" x="114.8" y="240.118776" style="stroke: #000000; stroke-width: 0.6"/>
      </g>
     </g>
    </g>
    <g id="ytick_17">
     <g id="line2d_58">
      <g>
       <use xlink:href="#mca9b5ebc3a" x="114.8" y="221.660756" style="stroke: #000000; stroke-width: 0.6"/>
      </g>
     </g>
    </g>
    <g id="ytick_18">
     <g id="line2d_59">
      <g>
       <use xlink:href="#mca9b5ebc3a" x="114.8" y="212.431746" style="stroke: #000000; stroke-width: 0.6"/>
      </g>
     </g>
    </g>
    <g id="ytick_19">
     <g id="line2d_60">
      <g>
       <use xlink:href="#mca9b5ebc3a" x="114.8" y="203.202737" style="stroke: #000000; stroke-width: 0.6"/>
      </g>
     </g>
    </g>
    <g id="ytick_20">
     <g id="line2d_61">
      <g>
       <use xlink:href="#mca9b5ebc3a" x="114.8" y="193.973727" style="stroke: #000000; stroke-width: 0.6"/>
      </g>
     </g>
    </g>
    <g id="ytick_21">
     <g id="line2d_62">
      <g>
       <use xlink:href="#mca9b5ebc3a" x="114.8" y="175.515707" style="stroke: #000000; stroke-width: 0.6"/>
      </g>
     </g>
    </g>
    <g id="ytick_22">
     <g id="line2d_63">
      <g>
       <use xlink:href="#mca9b5ebc3a" x="114.8" y="166.286697" style="stroke: #000000; stroke-width: 0.6"/>
      </g>
     </g>
    </g>
    <g id="ytick_23">
     <g id="line2d_64">
      <g>
       <use xlink:href="#mca9b5ebc3a" x="114.8" y="157.057687" style="stroke: #000000; stroke-width: 0.6"/>
      </g>
     </g>
    </g>
    <g id="ytick_24">
     <g id="line2d_65">
      <g>
       <use xlink:href="#mca9b5ebc3a" x="114.8" y="147.828678" style="stroke: #000000; stroke-width: 0.6"/>
      </g>
     </g>
    </g>
    <g id="ytick_25">
     <g id="line2d_66">
      <g>
       <use xlink:href="#mca9b5ebc3a" x="114.8" y="129.370658" style="stroke: #000000; stroke-width: 0.6"/>
      </g>
     </g>
    </g>
    <g id="ytick_26">
     <g id="line2d_67">
      <g>
       <use xlink:href="#mca9b5ebc3a" x="114.8" y="120.141648" style="stroke: #000000; stroke-width: 0.6"/>
      </g>
     </g>
    </g>
    <g id="ytick_27">
     <g id="line2d_68">
      <g>
       <use xlink:href="#mca9b5ebc3a" x="114.8" y="110.912638" style="stroke: #000000; stroke-width: 0.6"/>
      </g>
     </g>
    </g>
    <g id="ytick_28">
     <g id="line2d_69">
      <g>
       <use xlink:href="#mca9b5ebc3a" x="114.8" y="101.683628" style="stroke: #000000; stroke-width: 0.6"/>
      </g>
     </g>
    </g>
    <g id="ytick_29">
     <g id="line2d_70">
      <g>
       <use xlink:href="#mca9b5ebc3a" x="114.8" y="83.225609" style="stroke: #000000; stroke-width: 0.6"/>
      </g>
     </g>
    </g>
    <g id="ytick_30">
     <g id="line2d_71">
      <g>
       <use xlink:href="#mca9b5ebc3a" x="114.8" y="73.996599" style="stroke: #000000; stroke-width: 0.6"/>
      </g>
     </g>
    </g>
    <g id="ytick_31">
     <g id="line2d_72">
      <g>
       <use xlink:href="#mca9b5ebc3a" x="114.8" y="64.767589" style="stroke: #000000; stroke-width: 0.6"/>
      </g>
     </g>
    </g>
    <g id="ytick_32">
     <g id="line2d_73">
      <g>
       <use xlink:href="#mca9b5ebc3a" x="114.8" y="55.538579" style="stroke: #000000; stroke-width: 0.6"/>
      </g>
     </g>
    </g>
    <g id="ytick_33">
     <g id="line2d_74">
      <g>
       <use xlink:href="#mca9b5ebc3a" x="114.8" y="37.080559" style="stroke: #000000; stroke-width: 0.6"/>
      </g>
     </g>
    </g>
    <g id="text_18">
     <!-- $x(t)$ -->
     <g transform="translate(101.12 19.2)scale(0.16 -0.16)">
      <defs>
       <path id="Cmmi10-78" d="M 500 184 
Q 613 97 819 97 
Q 1019 97 1172 289 
Q 1325 481 1381 709 
L 1672 1844 
Q 1741 2153 1741 2266 
Q 1741 2425 1652 2544 
Q 1563 2663 1403 2663 
Q 1200 2663 1022 2536 
Q 844 2409 722 2214 
Q 600 2019 550 1819 
Q 538 1778 500 1778 
L 422 1778 
Q 372 1778 372 1838 
L 372 1856 
Q 434 2094 584 2320 
Q 734 2547 951 2687 
Q 1169 2828 1416 2828 
Q 1650 2828 1839 2703 
Q 2028 2578 2106 2363 
Q 2216 2559 2386 2693 
Q 2556 2828 2759 2828 
Q 2897 2828 3040 2779 
Q 3184 2731 3275 2631 
Q 3366 2531 3366 2381 
Q 3366 2219 3261 2101 
Q 3156 1984 2994 1984 
Q 2891 1984 2822 2050 
Q 2753 2116 2753 2216 
Q 2753 2350 2845 2451 
Q 2938 2553 3066 2572 
Q 2950 2663 2747 2663 
Q 2541 2663 2389 2472 
Q 2238 2281 2175 2047 
L 1894 916 
Q 1825 659 1825 494 
Q 1825 331 1917 214 
Q 2009 97 2163 97 
Q 2463 97 2698 361 
Q 2934 625 3009 941 
Q 3022 978 3059 978 
L 3138 978 
Q 3163 978 3178 961 
Q 3194 944 3194 922 
Q 3194 916 3188 903 
Q 3097 522 2806 225 
Q 2516 -72 2150 -72 
Q 1916 -72 1727 54 
Q 1538 181 1459 397 
Q 1359 209 1182 68 
Q 1006 -72 806 -72 
Q 669 -72 523 -23 
Q 378 25 287 125 
Q 197 225 197 378 
Q 197 528 301 651 
Q 406 775 563 775 
Q 669 775 741 711 
Q 813 647 813 544 
Q 813 409 723 309 
Q 634 209 500 184 
z
" transform="scale(0.015625)"/>
       <path id="Cmr10-28" d="M 1984 -1588 
Q 1628 -1306 1370 -942 
Q 1113 -578 948 -165 
Q 784 247 703 697 
Q 622 1147 622 1600 
Q 622 2059 703 2509 
Q 784 2959 951 3375 
Q 1119 3791 1378 4153 
Q 1638 4516 1984 4788 
Q 1984 4800 2016 4800 
L 2075 4800 
Q 2094 4800 2109 4783 
Q 2125 4766 2125 4744 
Q 2125 4716 2113 4703 
Q 1800 4397 1592 4047 
Q 1384 3697 1257 3301 
Q 1131 2906 1075 2482 
Q 1019 2059 1019 1600 
Q 1019 -434 2106 -1491 
Q 2125 -1509 2125 -1544 
Q 2125 -1559 2108 -1579 
Q 2091 -1600 2075 -1600 
L 2016 -1600 
Q 1984 -1600 1984 -1588 
z
" transform="scale(0.015625)"/>
       <path id="Cmr10-29" d="M 416 -1600 
Q 359 -1600 359 -1544 
Q 359 -1516 372 -1503 
Q 1466 -434 1466 1600 
Q 1466 3634 384 4691 
Q 359 4706 359 4744 
Q 359 4766 376 4783 
Q 394 4800 416 4800 
L 475 4800 
Q 494 4800 506 4788 
Q 966 4425 1272 3906 
Q 1578 3388 1720 2800 
Q 1863 2213 1863 1600 
Q 1863 1147 1786 708 
Q 1709 269 1542 -157 
Q 1375 -584 1119 -945 
Q 863 -1306 506 -1588 
Q 494 -1600 475 -1600 
L 416 -1600 
z
" transform="scale(0.015625)"/>
      </defs>
      <use xlink:href="#Cmmi10-78"/>
      <use xlink:href="#Cmr10-28" transform="translate(57.080078 0)"/>
      <use xlink:href="#Cmmi10-74" transform="translate(95.898438 0)"/>
      <use xlink:href="#Cmr10-29" transform="translate(131.982422 0)"/>
     </g>
    </g>
   </g>
   <g id="line2d_75">
    <path d="M 114.8 184.744717 
L 115.291871 182.636688 
L 115.783742 177.869162 
L 116.382686 174.022824 
L 116.682158 174.944534 
L 116.98163 178.385952 
L 117.580573 191.70901 
L 118.475679 211.681101 
L 118.77184 212.921228 
L 119.107527 209.156282 
L 119.443214 199.856296 
L 120.953805 140.285459 
L 121.121648 138.821988 
L 121.289492 139.426574 
L 121.457335 142.174164 
L 121.795825 154.017858 
L 122.134316 172.86988 
L 123.218731 239.611741 
L 123.490354 246.823192 
L 123.626165 247.839703 
L 123.761976 247.003794 
L 123.897788 244.288173 
L 124.321033 224.424528 
L 124.744279 191.335323 
L 125.590769 122.047087 
L 125.977215 106.754352 
L 126.10603 105.480067 
L 126.234846 106.285113 
L 126.492476 114.157697 
L 126.878922 140.241202 
L 128.232829 268.502162 
L 128.4265 276.384174 
L 128.620172 278.976312 
L 128.813844 275.996975 
L 129.007516 267.496023 
L 129.403806 234.865339 
L 130.761105 87.128056 
L 131.042146 77.420951 
L 131.135826 77.081855 
L 131.229507 78.237578 
L 131.323187 80.884989 
L 131.672048 103.222903 
L 132.156549 159.9767 
L 133.12555 283.195524 
L 133.448551 301.868952 
L 133.610051 304.257561 
L 133.771551 301.742384 
L 134.094552 282.391986 
L 134.51069 233.91015 
L 135.646314 76.230491 
L 135.941021 58.119426 
L 136.088374 55.351147 
L 136.235727 56.996909 
L 136.38308 63.035624 
L 136.723886 92.613657 
L 137.064691 139.474414 
L 138.087108 294.008177 
L 138.427913 318.602311 
L 138.598316 322.048123 
L 138.683518 321.425139 
L 138.85392 315.496907 
L 139.109524 295.464897 
L 139.647744 219.345913 
L 140.636093 65.926729 
L 140.910043 46.072898 
L 141.092676 41.736632 
L 141.183993 42.373171 
L 141.360143 48.866581 
L 141.614642 69.860013 
L 142.123642 143.930011 
L 143.158286 308.566663 
L 143.421108 327.238565 
L 143.552519 330.891974 
L 143.683931 330.580209 
L 143.815342 326.305219 
L 144.078164 306.412429 
L 144.472398 252.896883 
L 145.648761 61.00259 
L 145.953275 39.878915 
L 146.156284 37.344866 
L 146.359293 44.330954 
L 146.602807 64.588948 
L 147.089835 135.55119 
L 148.142299 306.743641 
L 148.41195 326.77096 
L 148.546775 330.795505 
L 148.6816 330.643243 
L 148.816425 326.325647 
L 149.086076 305.83473 
L 149.490551 250.721277 
L 150.681053 62.008723 
L 150.919153 45.796665 
L 151.157254 41.965625 
L 151.276304 44.820531 
L 151.494722 58.033014 
L 151.792825 90.846079 
L 152.587767 222.435495 
L 153.166413 301.179086 
L 153.438175 318.863304 
L 153.619349 322.047263 
L 153.709937 320.980086 
L 153.891111 313.628099 
L 154.072286 299.714835 
L 154.434635 255.563243 
L 155.600701 81.11898 
L 155.892218 60.139008 
L 156.083144 55.387377 
L 156.176899 55.772084 
L 156.364408 61.840402 
L 156.551917 74.593037 
L 156.972021 122.952873 
L 158.134996 283.45927 
L 158.483888 302.781238 
L 158.600186 304.250609 
L 158.692752 303.597453 
L 158.877885 297.545024 
L 159.155584 277.526195 
L 159.710982 209.47458 
L 160.534181 104.222281 
L 160.836137 83.2576 
L 160.987114 78.249909 
L 161.138092 77.109153 
L 161.28907 79.82234 
L 161.591026 96.071677 
L 161.892982 124.282566 
L 163.071131 258.225619 
L 163.409335 276.17191 
L 163.556127 278.814402 
L 163.70292 278.23928 
L 163.849712 274.522365 
L 164.143296 258.489599 
L 164.43688 233.279498 
L 165.464425 130.058756 
L 165.868003 108.76035 
L 166.12479 105.517267 
L 166.253183 106.999333 
L 166.509969 115.774336 
L 166.814745 134.678317 
L 168.179189 239.54296 
L 168.438727 246.773787 
L 168.568496 247.830564 
L 168.698265 247.188044 
L 168.828034 244.909027 
L 169.087572 235.904496 
L 169.606648 205.238436 
L 170.409098 154.594438 
L 170.862621 140.237217 
L 171.03277 138.799921 
L 171.202918 139.52827 
L 171.543215 146.826614 
L 172.053661 167.872231 
L 172.734255 198.428433 
L 173.244701 211.357943 
L 173.414849 212.813924 
L 173.620354 212.669182 
L 173.82586 210.638416 
L 174.23687 202.332062 
L 175.215251 178.710763 
L 175.459846 175.568296 
L 175.704441 174.126572 
L 176.193631 175.691277 
L 177.074762 183.688145 
L 177.454423 184.731864 
L 177.834085 183.202653 
L 178.593409 176.075711 
L 179.119085 174.100913 
L 179.381923 175.637638 
L 179.644761 179.134406 
L 181.246032 212.822192 
L 181.520993 212.122982 
L 181.795953 207.626571 
L 182.345874 188.398271 
L 183.344306 145.233895 
L 183.568561 140.321699 
L 183.792816 138.785194 
L 184.017072 140.99124 
L 184.241327 147.000484 
L 184.689838 169.029695 
L 185.853859 240.282719 
L 186.051376 245.87809 
L 186.248893 247.84221 
L 186.44641 245.89439 
L 186.643927 239.997919 
L 187.038961 217.485863 
L 188.500627 108.950078 
L 188.733138 105.467589 
L 188.849393 106.246967 
L 189.081904 112.914837 
L 189.314415 126.049344 
L 189.779438 167.505992 
L 190.792708 265.232376 
L 191.066832 276.979805 
L 191.203894 278.922709 
L 191.340956 278.081019 
L 191.615081 268.046347 
L 192.026267 234.319995 
L 193.470697 82.547815 
L 193.735336 77.031621 
L 193.867656 78.700004 
L 194.132295 90.839602 
L 194.529254 128.456343 
L 195.896478 294.272365 
L 196.183132 304.088752 
L 196.278683 303.990854 
L 196.469785 298.640844 
L 196.660888 286.640452 
L 197.105806 236.990455 
L 198.247977 77.616844 
L 198.501793 60.326885 
L 198.755609 55.412748 
L 198.882517 57.859559 
L 199.052357 66.19077 
L 199.392039 98.688138 
L 199.901561 175.068867 
L 200.697343 293.279692 
L 201.039419 318.379585 
L 201.26747 321.85548 
L 201.381495 319.387707 
L 201.609545 306.231628 
L 201.951621 268.198792 
L 202.065646 251.597987 
L 203.232208 68.068387 
L 203.523849 46.224391 
L 203.748079 41.774126 
L 203.875095 44.259479 
L 204.129128 59.820719 
L 204.510177 106.198892 
L 205.898078 319.086661 
L 206.150255 330.599173 
L 206.276343 330.944159 
L 206.402432 327.631795 
L 206.654609 310.435615 
L 207.020154 263.966291 
L 208.366449 51.852541 
L 208.616109 38.479155 
L 208.740939 37.107085 
L 208.865769 39.352667 
L 209.11543 54.387452 
L 209.443105 92.974774 
L 210.180973 221.801126 
L 210.756197 306.403066 
L 211.04381 327.407532 
L 211.235551 331.236923 
L 211.331422 329.978196 
L 211.523164 321.217936 
L 211.810776 293.679174 
L 212.29013 219.532798 
L 213.176721 74.656848 
L 213.535596 45.830173 
L 213.666375 42.12705 
L 213.797154 42.265532 
L 213.927934 46.229019 
L 214.189492 65.051508 
L 214.58183 115.882586 
L 215.743673 297.35754 
L 216.090504 320.032306 
L 216.206114 322.00795 
L 216.321724 321.093953 
L 216.552944 310.787259 
L 216.862143 281.051573 
L 217.377474 203.964924 
L 218.202004 82.705753 
L 218.541067 58.842876 
L 218.710599 55.342218 
L 218.88013 57.690619 
L 219.049661 65.727534 
L 219.388724 96.964531 
L 220.046772 192.519892 
L 220.657416 274.633052 
L 221.023803 300.397124 
L 221.268061 304.092609 
L 221.39019 301.739689 
L 221.676401 285.847789 
L 222.168649 231.525877 
L 223.181019 101.569264 
L 223.537058 80.008277 
L 223.774418 77.241275 
L 223.893098 79.434355 
L 224.130458 90.59981 
L 224.486498 121.727223 
L 225.82183 267.199948 
L 226.065824 277.193942 
L 226.187821 278.900266 
L 226.309818 278.383989 
L 226.553812 270.912653 
L 226.93277 244.593668 
L 228.346056 113.969496 
L 228.603018 106.236706 
L 228.731498 105.486456 
L 228.907309 107.796481 
L 229.25893 122.961875 
L 229.786362 164.141894 
L 230.640972 232.098658 
L 230.976297 245.274225 
L 231.14396 247.677666 
L 231.311623 247.231281 
L 231.479286 244.052953 
L 231.815233 230.525667 
L 233.297817 144.214105 
L 233.625427 138.871613 
L 233.789233 139.240025 
L 233.953038 141.515848 
L 234.116843 145.507043 
L 234.772065 172.719976 
L 235.472464 202.5739 
L 235.924757 212.066499 
L 236.150904 212.975138 
L 236.377051 211.478711 
L 236.829345 202.944957 
L 237.661604 181.857779 
L 238.041569 175.919193 
L 238.421534 174.00849 
L 238.801499 175.618885 
L 239.398389 181.372118 
L 239.99528 184.730463 
L 240.395988 183.571394 
L 241.598114 174.043293 
L 241.964291 175.321052 
L 242.330468 180.352957 
L 243.719418 211.778756 
L 243.938284 212.995997 
L 244.157149 211.936384 
L 244.376014 208.456359 
L 244.813744 194.725546 
L 246.085367 142.135996 
L 246.339691 138.875892 
L 246.594016 140.312222 
L 246.84834 146.646708 
L 247.318806 169.748943 
L 248.259737 230.84164 
L 248.730203 246.898073 
L 248.961408 247.399095 
L 249.192613 242.483128 
L 249.655024 217.570032 
L 250.961658 114.834218 
L 251.152564 108.01628 
L 251.34347 105.475001 
L 251.493296 106.667402 
L 251.792947 117.475554 
L 252.242423 152.022612 
L 253.441026 267.055333 
L 253.740676 278.115141 
L 253.893714 278.827045 
L 254.046752 276.04287 
L 254.352828 260.280436 
L 254.658903 232.70016 
L 255.927087 91.34644 
L 256.267253 77.536282 
L 256.380641 77.13604 
L 256.49403 78.925545 
L 256.720807 88.974374 
L 257.060972 118.690111 
L 258.623074 299.760102 
L 258.781438 303.90426 
L 258.939802 303.368069 
L 259.098167 298.119055 
L 259.414895 274.290415 
L 259.731623 235.798896 
L 260.889965 75.43001 
L 261.16049 58.644335 
L 261.34084 55.314501 
L 261.431015 56.127262 
L 261.611365 62.696531 
L 261.791715 75.593339 
L 262.152415 117.650578 
L 263.565053 313.891775 
L 263.71524 320.334837 
L 263.865428 321.995101 
L 264.015615 318.784629 
L 264.31599 298.267359 
L 264.773549 237.35365 
L 265.873837 65.600205 
L 266.143653 46.109956 
L 266.278562 42.163322 
L 266.41347 42.290111 
L 266.548379 46.500777 
L 266.818195 66.629182 
L 267.222921 121.175602 
L 268.369513 306.237017 
L 268.706655 329.125781 
L 268.875226 331.121976 
L 269.043797 326.585462 
L 269.212368 315.706225 
L 269.585936 271.775761 
L 271.100141 43.892731 
L 271.25001 38.086839 
L 271.39988 37.455923 
L 271.549749 42.022387 
L 271.849487 65.920052 
L 272.299095 131.179736 
L 273.330454 301.816746 
L 273.696265 328.741769 
L 273.87917 331.101455 
L 274.062075 325.782995 
L 274.232655 314.160363 
L 274.573815 274.106004 
L 276.038168 52.170512 
L 276.28075 42.166961 
L 276.361611 41.746056 
L 276.442471 42.79684 
L 276.523332 45.305385 
L 276.846775 69.119329 
L 277.331939 137.410423 
L 278.377565 298.98679 
L 278.682523 319.219475 
L 278.838105 322.052095 
L 278.993688 319.66028 
L 279.304854 299.890988 
L 279.771602 240.118386 
L 280.815399 83.09392 
L 281.194961 57.591216 
L 281.289852 55.61752 
L 281.425296 55.981984 
L 281.56074 60.046531 
L 281.831628 78.592982 
L 282.23796 127.403779 
L 283.351591 281.904525 
L 283.677654 301.665697 
L 283.840685 304.257161 
L 284.003716 301.851437 
L 284.329778 282.887799 
L 284.818872 227.067882 
L 285.774486 103.688462 
L 286.091519 82.335808 
L 286.367409 77.08417 
L 286.484782 78.764617 
L 286.71953 88.82891 
L 286.954277 106.863676 
L 287.658519 189.169338 
L 288.366991 262.645093 
L 288.725456 278.039664 
L 288.844944 278.974901 
L 288.964432 277.786284 
L 289.203409 269.312646 
L 289.561874 243.535789 
L 290.93858 115.139226 
L 291.298082 105.532907 
L 291.477832 106.815006 
L 291.808155 119.045342 
L 292.298887 154.925946 
L 293.280351 233.292815 
L 293.648401 246.376593 
L 293.771084 247.729911 
L 293.940672 247.094561 
L 294.11026 243.677697 
L 294.449436 229.62918 
L 295.975728 142.61079 
L 296.145316 139.605503 
L 296.314904 138.78987 
L 296.484492 140.09631 
L 296.752893 146.064389 
L 297.021293 155.829173 
L 297.915007 196.404685 
L 298.450375 210.966215 
L 298.628831 212.716049 
L 298.807288 212.879938 
L 298.985744 211.57488 
L 299.348233 205.268964 
L 300.435702 178.940702 
L 300.836568 174.524836 
L 301.237433 174.491156 
L 302.464176 184.42103 
L 302.889188 184.228259 
L 303.762948 176.644616 
L 304.199828 174.066396 
L 304.636708 175.838436 
L 304.928653 180.002171 
L 305.220598 186.27207 
L 306.096432 208.215199 
L 306.388377 212.257269 
L 306.680322 212.684536 
L 306.972267 208.894499 
L 307.459033 193.586899 
L 308.432566 149.96513 
L 308.675949 142.725378 
L 308.919332 139.073467 
L 309.180804 139.881383 
L 309.442276 145.867835 
L 309.836867 163.862971 
L 311.020639 237.614182 
L 311.409992 247.55952 
L 311.604668 247.117191 
L 311.799344 242.822993 
L 312.188697 223.372065 
L 312.578049 192.900207 
L 313.489204 119.373641 
L 313.749533 108.544136 
L 314.009863 105.553099 
L 314.140028 107.237411 
L 314.400358 116.950151 
L 314.660688 134.417999 
L 315.125022 179.31276 
L 315.969662 261.558501 
L 316.349969 277.984027 
L 316.476738 278.970145 
L 316.603507 277.56115 
L 316.857044 267.619619 
L 317.237351 236.735371 
L 318.736261 81.303917 
L 318.939644 77.068969 
L 319.041335 77.562971 
L 319.244717 83.816198 
L 319.521754 103.045367 
L 319.79879 132.6795 
L 321.045455 288.575782 
L 321.322491 302.48595 
L 321.46101 304.257753 
L 321.566972 303.176478 
L 321.778898 294.719055 
L 322.096786 267.464818 
L 322.308712 241.307207 
L 323.482903 77.574106 
L 323.756615 59.458488 
L 323.893471 55.752326 
L 324.030327 55.833609 
L 324.167183 59.728437 
L 324.440895 78.497313 
L 324.851462 129.56633 
L 326.002762 300.286668 
L 326.332927 320.347318 
L 326.498009 321.890344 
L 326.663091 317.553247 
L 326.993255 292.084097 
L 327.457606 226.379467 
L 328.386307 76.943924 
L 328.695874 49.432651 
L 328.850657 43.034103 
L 329.005441 41.954375 
L 329.160224 46.255612 
L 329.469791 70.233876 
L 329.909263 132.614177 
L 330.966312 304.103251 
L 331.318661 328.96003 
L 331.494836 331.103258 
L 331.671011 326.114319 
L 331.935273 305.852352 
L 332.37571 244.32505 
L 333.529436 58.153098 
L 333.849089 38.51689 
L 333.95564 37.083077 
L 334.062192 38.286922 
L 334.275294 48.473998 
L 334.594947 81.499576 
L 335.127703 169.070522 
L 335.96393 303.592163 
L 336.322313 329.031825 
L 336.441774 331.20388 
L 336.561236 330.087701 
L 336.800158 318.184738 
L 337.03908 294.429738 
L 337.418306 238.02564 
L 338.429159 72.614163 
L 338.744972 46.973639 
L 338.902878 42.099491 
L 339.060785 42.820942 
L 339.218691 49.086995 
L 339.534504 76.970485 
L 340.008223 147.407967 
L 340.97085 296.63039 
L 341.294256 319.024349 
L 341.45596 322.052926 
L 341.617663 319.439482 
L 341.829229 307.768884 
L 342.146578 274.789955 
L 342.463926 228.25397 
L 343.386248 87.982063 
L 343.693689 62.604606 
L 343.898649 55.718586 
L 344.001129 55.47411 
L 344.103609 57.363337 
L 344.409277 75.076408 
L 344.867779 129.206882 
L 345.937616 279.066332 
L 346.243283 299.806844 
L 346.396117 303.864912 
L 346.548951 303.524442 
L 346.721005 297.96043 
L 347.065111 271.902915 
L 347.581271 206.83941 
L 348.381481 104.624784 
L 348.685549 83.361759 
L 348.837583 78.274754 
L 348.989618 77.108339 
L 349.141652 79.849906 
L 349.405229 93.331723 
L 349.668807 116.286325 
L 351.118484 270.559573 
L 351.358202 278.281954 
L 351.466131 278.969348 
L 351.57406 277.924247 
L 351.789919 270.834177 
L 352.113707 249.210686 
L 353.608 112.753331 
L 353.910323 105.554977 
L 354.061485 106.27202 
L 354.212646 109.7775 
L 354.514969 124.291942 
L 354.817293 146.548836 
L 355.875424 232.098615 
L 356.279501 246.606713 
L 356.405959 247.79838 
L 356.532417 247.372261 
L 356.785333 241.91817 
L 357.038249 231.119657 
L 358.561668 143.40315 
L 358.859206 138.87422 
L 359.007976 139.119592 
L 359.305514 144.232736 
L 359.603053 154.370071 
L 360.793207 205.147097 
L 361.163727 212.109688 
L 361.506243 212.454494 
L 361.848759 207.741066 
L 362.876308 182.266764 
L 363.218824 176.560555 
L 363.56134 174.113916 
L 363.903856 174.740434 
L 364.958084 183.869584 
L 365.309493 184.729416 
L 365.890622 181.506563 
L 366.403708 176.43321 
L 366.916794 174.020458 
L 367.173337 175.112311 
L 367.42988 178.067647 
L 367.942966 188.90923 
L 368.780816 209.414594 
L 369.0601 212.637155 
L 369.339383 212.406998 
L 369.618667 208.279125 
L 370.177234 189.294967 
L 371.142227 146.848274 
L 371.463892 139.742576 
L 371.639366 138.779365 
L 371.814841 140.110572 
L 372.16579 149.732874 
L 372.485639 165.687216 
L 373.765037 242.324581 
L 374.084886 247.827023 
L 374.244811 246.811746 
L 374.404735 243.193128 
L 374.724585 228.522015 
L 375.217686 190.940598 
L 376.051797 122.517173 
L 376.392807 107.87427 
L 376.563312 105.510441 
L 376.733817 106.775641 
L 376.904322 111.707204 
L 377.1979 128.304319 
L 377.567117 160.927268 
L 378.551696 259.123919 
L 378.920913 277.037336 
L 379.043985 278.865301 
L 379.194655 278.047587 
L 379.345326 273.8422 
L 379.646667 255.761015 
L 379.948008 226.791702 
L 381.153372 91.89458 
L 381.454713 78.338137 
L 381.577662 77.026668 
L 381.700611 78.282669 
L 381.946508 88.431569 
L 382.315355 120.895886 
L 382.95965 207.28043 
L 383.597591 283.458299 
L 383.947376 302.677173 
L 384.063972 304.241408 
L 384.180567 303.248615 
L 384.413758 293.647021 
L 384.763543 261.844247 
L 385.34652 178.468246 
L 386.083757 79.074015 
L 386.452376 56.874104 
L 386.544531 55.417063 
L 386.636686 55.687389 
L 386.820995 61.407113 
L 387.13573 86.274177 
L 387.450464 126.853112 
L 388.651502 303.113732 
L 388.955346 320.485026 
L 389.107268 321.951077 
L 389.259189 318.433742 
L 389.563033 297.024101 
L 389.946609 247.088574 
L 391.104879 65.93858 
L 391.45236 43.43866 
L 391.568187 41.719615 
L 391.6957 43.31729 
L 391.950725 57.271772 
L 392.333262 101.931394 
L 393.851958 325.452599 
L 394.095528 331.206103 
L 394.217313 328.973597 
L 394.460882 314.525062 
L 394.745597 282.467708 
L 395.234386 201.485529 
L 396.011502 72.801815 
L 396.387696 41.252699 
L 396.513094 37.563171 
L 396.638492 37.512873 
L 396.76389 41.103057 
L 397.014686 58.759179 
L 397.39088 107.550156 
L 398.663747 311.832403 
L 398.920838 328.395978 
L 399.049384 331.150613 
L 399.17793 330.099942 
L 399.435021 316.815645 
L 399.820659 272.297342 
L 401.280051 51.67425 
L 401.517256 42.138033 
L 401.635859 42.079799 
L 401.754462 45.173915 
L 401.991668 60.43747 
L 402.347477 102.884216 
L 403.743346 309.990788 
L 404.00627 321.484126 
L 404.093911 322.032452 
L 404.181552 320.92098 
L 404.356835 313.815568 
L 404.532118 300.557124 
L 404.882683 258.578644 
L 406.109662 77.317623 
L 406.460227 56.749505 
L 406.557291 55.361566 
L 406.654355 55.896126 
L 406.848483 62.631692 
L 407.042611 76.476347 
L 407.430867 121.549017 
L 408.663299 288.25595 
L 408.923319 302.004064 
L 409.053328 304.201082 
L 409.185329 303.172931 
L 409.44933 291.592632 
L 409.845332 253.836243 
L 411.165338 91.226795 
L 411.452656 78.319578 
L 411.596315 77.062221 
L 411.739974 79.300234 
L 412.027293 93.674655 
L 412.314611 119.23682 
L 413.695071 268.425594 
L 414.010759 278.698968 
L 414.115988 278.834801 
L 414.221217 277.332422 
L 414.431675 269.628836 
L 414.852592 238.372657 
L 416.059116 121.448135 
L 416.360747 108.108475 
L 416.511562 105.64697 
L 416.662378 106.057647 
L 416.813193 109.258978 
L 417.114824 123.218372 
L 417.680235 167.917786 
L 418.509426 233.006825 
L 418.924021 247.002036 
L 419.057086 247.841396 
L 419.190151 246.901217 
L 419.45628 240.031586 
L 419.877282 218.327564 
L 420.929786 152.231832 
L 421.311863 140.54576 
L 421.483438 138.848786 
L 421.655014 139.363131 
L 421.82659 141.954598 
L 422.169741 152.369475 
L 423.542346 208.408609 
L 423.885497 212.821291 
L 424.191574 211.87592 
L 424.49765 207.105463 
L 425.495991 182.215396 
L 425.882181 176.035981 
L 426.132675 174.250395 
L 426.383168 174.165643 
L 426.884156 177.687567 
L 427.385144 182.563149 
L 427.886132 184.744717 
L 427.886132 184.744717 
" clip-path="url(#p92f0f74693)" style="fill: none; stroke: #0000ff; stroke-linecap: square"/>
   </g>
   <g id="patch_3">
    <path d="M 114.8 337.12 
L 114.8 31.2 
" style="fill: none; stroke: #000000; stroke-width: 0.8; stroke-linejoin: miter; stroke-linecap: square"/>
   </g>
   <g id="patch_4">
    <path d="M 108.538277 184.744717 
L 434.147854 184.744717 
" style="fill: none; stroke: #000000; stroke-width: 0.8; stroke-linejoin: miter; stroke-linecap: square"/>
   </g>
  </g>
 </g>
 <defs>
  <clipPath id="p92f0f74693">
   <rect x="108.538277" y="31.2" width="325.609577" height="305.92"/>
  </clipPath>
 </defs>
</svg>
