<?xml version="1.0" encoding="utf-8" standalone="no"?>
<!DOCTYPE svg PUBLIC "-//W3C//DTD SVG 1.1//EN"
  "http://www.w3.org/Graphics/SVG/1.1/DTD/svg11.dtd">
<svg xmlns:xlink="http://www.w3.org/1999/xlink" width="455.621487pt" height="338.867479pt" viewBox="0 0 455.621487 338.867479" xmlns="http://www.w3.org/2000/svg" version="1.1">
 <metadata>
  <rdf:RDF xmlns:dc="http://purl.org/dc/elements/1.1/" xmlns:cc="http://creativecommons.org/ns#" xmlns:rdf="http://www.w3.org/1999/02/22-rdf-syntax-ns#">
   <cc:Work>
    <dc:type rdf:resource="http://purl.org/dc/dcmitype/StillImage"/>
    <dc:date>2022-07-30T11:11:22.474706</dc:date>
    <dc:format>image/svg+xml</dc:format>
    <dc:creator>
     <cc:Agent>
      <dc:title>Matplotlib v3.5.1, https://matplotlib.org/</dc:title>
     </cc:Agent>
    </dc:creator>
   </cc:Work>
  </rdf:RDF>
 </metadata>
 <defs>
  <style type="text/css">*{stroke-linejoin: round; stroke-linecap: butt}</style>
 </defs>
 <g id="figure_1">
  <g id="patch_1">
   <path d="M 0 338.867479 
L 455.621487 338.867479 
L 455.621487 0 
L 0 0 
z
" style="fill: #ffffff"/>
  </g>
  <g id="axes_1">
   <g id="patch_2">
    <path d="M 35.691294 325.269096 
L 433.391487 325.269096 
L 433.391487 7.2 
L 35.691294 7.2 
z
" style="fill: #ffffff"/>
   </g>
   <g id="matplotlib.axis_1">
    <g id="xtick_1">
     <g id="line2d_1">
      <defs>
       <path id="m3c885ab427" d="M 0 0 
L 0 3.5 
" style="stroke: #000000; stroke-width: 0.8"/>
      </defs>
      <g>
       <use xlink:href="#m3c885ab427" x="43.339375" y="213.253554" style="stroke: #000000; stroke-width: 0.8"/>
      </g>
     </g>
    </g>
    <g id="xtick_2">
     <g id="line2d_2">
      <g>
       <use xlink:href="#m3c885ab427" x="119.820181" y="213.253554" style="stroke: #000000; stroke-width: 0.8"/>
      </g>
     </g>
     <g id="text_1">
      <!-- 2 -->
      <g transform="translate(116.002681 229.371679)scale(0.12 -0.12)">
       <defs>
        <path id="DejaVuSans-32" d="M 1228 531 
L 3431 531 
L 3431 0 
L 469 0 
L 469 531 
Q 828 903 1448 1529 
Q 2069 2156 2228 2338 
Q 2531 2678 2651 2914 
Q 2772 3150 2772 3378 
Q 2772 3750 2511 3984 
Q 2250 4219 1831 4219 
Q 1534 4219 1204 4116 
Q 875 4013 500 3803 
L 500 4441 
Q 881 4594 1212 4672 
Q 1544 4750 1819 4750 
Q 2544 4750 2975 4387 
Q 3406 4025 3406 3419 
Q 3406 3131 3298 2873 
Q 3191 2616 2906 2266 
Q 2828 2175 2409 1742 
Q 1991 1309 1228 531 
z
" transform="scale(0.015625)"/>
       </defs>
       <use xlink:href="#DejaVuSans-32"/>
      </g>
     </g>
    </g>
    <g id="xtick_3">
     <g id="line2d_3">
      <g>
       <use xlink:href="#m3c885ab427" x="196.300987" y="213.253554" style="stroke: #000000; stroke-width: 0.8"/>
      </g>
     </g>
     <g id="text_2">
      <!-- 4 -->
      <g transform="translate(192.483487 229.371679)scale(0.12 -0.12)">
       <defs>
        <path id="DejaVuSans-34" d="M 2419 4116 
L 825 1625 
L 2419 1625 
L 2419 4116 
z
M 2253 4666 
L 3047 4666 
L 3047 1625 
L 3713 1625 
L 3713 1100 
L 3047 1100 
L 3047 0 
L 2419 0 
L 2419 1100 
L 313 1100 
L 313 1709 
L 2253 4666 
z
" transform="scale(0.015625)"/>
       </defs>
       <use xlink:href="#DejaVuSans-34"/>
      </g>
     </g>
    </g>
    <g id="xtick_4">
     <g id="line2d_4">
      <g>
       <use xlink:href="#m3c885ab427" x="272.781794" y="213.253554" style="stroke: #000000; stroke-width: 0.8"/>
      </g>
     </g>
     <g id="text_3">
      <!-- 6 -->
      <g transform="translate(268.964294 229.371679)scale(0.12 -0.12)">
       <defs>
        <path id="DejaVuSans-36" d="M 2113 2584 
Q 1688 2584 1439 2293 
Q 1191 2003 1191 1497 
Q 1191 994 1439 701 
Q 1688 409 2113 409 
Q 2538 409 2786 701 
Q 3034 994 3034 1497 
Q 3034 2003 2786 2293 
Q 2538 2584 2113 2584 
z
M 3366 4563 
L 3366 3988 
Q 3128 4100 2886 4159 
Q 2644 4219 2406 4219 
Q 1781 4219 1451 3797 
Q 1122 3375 1075 2522 
Q 1259 2794 1537 2939 
Q 1816 3084 2150 3084 
Q 2853 3084 3261 2657 
Q 3669 2231 3669 1497 
Q 3669 778 3244 343 
Q 2819 -91 2113 -91 
Q 1303 -91 875 529 
Q 447 1150 447 2328 
Q 447 3434 972 4092 
Q 1497 4750 2381 4750 
Q 2619 4750 2861 4703 
Q 3103 4656 3366 4563 
z
" transform="scale(0.015625)"/>
       </defs>
       <use xlink:href="#DejaVuSans-36"/>
      </g>
     </g>
    </g>
    <g id="xtick_5">
     <g id="line2d_5">
      <g>
       <use xlink:href="#m3c885ab427" x="349.2626" y="213.253554" style="stroke: #000000; stroke-width: 0.8"/>
      </g>
     </g>
     <g id="text_4">
      <!-- 8 -->
      <g transform="translate(345.4451 229.371679)scale(0.12 -0.12)">
       <defs>
        <path id="DejaVuSans-38" d="M 2034 2216 
Q 1584 2216 1326 1975 
Q 1069 1734 1069 1313 
Q 1069 891 1326 650 
Q 1584 409 2034 409 
Q 2484 409 2743 651 
Q 3003 894 3003 1313 
Q 3003 1734 2745 1975 
Q 2488 2216 2034 2216 
z
M 1403 2484 
Q 997 2584 770 2862 
Q 544 3141 544 3541 
Q 544 4100 942 4425 
Q 1341 4750 2034 4750 
Q 2731 4750 3128 4425 
Q 3525 4100 3525 3541 
Q 3525 3141 3298 2862 
Q 3072 2584 2669 2484 
Q 3125 2378 3379 2068 
Q 3634 1759 3634 1313 
Q 3634 634 3220 271 
Q 2806 -91 2034 -91 
Q 1263 -91 848 271 
Q 434 634 434 1313 
Q 434 1759 690 2068 
Q 947 2378 1403 2484 
z
M 1172 3481 
Q 1172 3119 1398 2916 
Q 1625 2713 2034 2713 
Q 2441 2713 2670 2916 
Q 2900 3119 2900 3481 
Q 2900 3844 2670 4047 
Q 2441 4250 2034 4250 
Q 1625 4250 1398 4047 
Q 1172 3844 1172 3481 
z
" transform="scale(0.015625)"/>
       </defs>
       <use xlink:href="#DejaVuSans-38"/>
      </g>
     </g>
    </g>
    <g id="xtick_6">
     <g id="line2d_6">
      <g>
       <use xlink:href="#m3c885ab427" x="425.743406" y="213.253554" style="stroke: #000000; stroke-width: 0.8"/>
      </g>
     </g>
     <g id="text_5">
      <!-- 10 -->
      <g transform="translate(418.108406 229.371679)scale(0.12 -0.12)">
       <defs>
        <path id="DejaVuSans-31" d="M 794 531 
L 1825 531 
L 1825 4091 
L 703 3866 
L 703 4441 
L 1819 4666 
L 2450 4666 
L 2450 531 
L 3481 531 
L 3481 0 
L 794 0 
L 794 531 
z
" transform="scale(0.015625)"/>
        <path id="DejaVuSans-30" d="M 2034 4250 
Q 1547 4250 1301 3770 
Q 1056 3291 1056 2328 
Q 1056 1369 1301 889 
Q 1547 409 2034 409 
Q 2525 409 2770 889 
Q 3016 1369 3016 2328 
Q 3016 3291 2770 3770 
Q 2525 4250 2034 4250 
z
M 2034 4750 
Q 2819 4750 3233 4129 
Q 3647 3509 3647 2328 
Q 3647 1150 3233 529 
Q 2819 -91 2034 -91 
Q 1250 -91 836 529 
Q 422 1150 422 2328 
Q 422 3509 836 4129 
Q 1250 4750 2034 4750 
z
" transform="scale(0.015625)"/>
       </defs>
       <use xlink:href="#DejaVuSans-31"/>
       <use xlink:href="#DejaVuSans-30" x="63.623047"/>
      </g>
     </g>
    </g>
    <g id="xtick_7">
     <g id="line2d_7">
      <defs>
       <path id="m5c312e3eac" d="M 0 0 
L 0 2 
" style="stroke: #000000; stroke-width: 0.6"/>
      </defs>
      <g>
       <use xlink:href="#m5c312e3eac" x="62.459577" y="213.253554" style="stroke: #000000; stroke-width: 0.6"/>
      </g>
     </g>
    </g>
    <g id="xtick_8">
     <g id="line2d_8">
      <g>
       <use xlink:href="#m5c312e3eac" x="81.579778" y="213.253554" style="stroke: #000000; stroke-width: 0.6"/>
      </g>
     </g>
    </g>
    <g id="xtick_9">
     <g id="line2d_9">
      <g>
       <use xlink:href="#m5c312e3eac" x="100.69998" y="213.253554" style="stroke: #000000; stroke-width: 0.6"/>
      </g>
     </g>
    </g>
    <g id="xtick_10">
     <g id="line2d_10">
      <g>
       <use xlink:href="#m5c312e3eac" x="138.940383" y="213.253554" style="stroke: #000000; stroke-width: 0.6"/>
      </g>
     </g>
    </g>
    <g id="xtick_11">
     <g id="line2d_11">
      <g>
       <use xlink:href="#m5c312e3eac" x="158.060584" y="213.253554" style="stroke: #000000; stroke-width: 0.6"/>
      </g>
     </g>
    </g>
    <g id="xtick_12">
     <g id="line2d_12">
      <g>
       <use xlink:href="#m5c312e3eac" x="177.180786" y="213.253554" style="stroke: #000000; stroke-width: 0.6"/>
      </g>
     </g>
    </g>
    <g id="xtick_13">
     <g id="line2d_13">
      <g>
       <use xlink:href="#m5c312e3eac" x="215.421189" y="213.253554" style="stroke: #000000; stroke-width: 0.6"/>
      </g>
     </g>
    </g>
    <g id="xtick_14">
     <g id="line2d_14">
      <g>
       <use xlink:href="#m5c312e3eac" x="234.541391" y="213.253554" style="stroke: #000000; stroke-width: 0.6"/>
      </g>
     </g>
    </g>
    <g id="xtick_15">
     <g id="line2d_15">
      <g>
       <use xlink:href="#m5c312e3eac" x="253.661592" y="213.253554" style="stroke: #000000; stroke-width: 0.6"/>
      </g>
     </g>
    </g>
    <g id="xtick_16">
     <g id="line2d_16">
      <g>
       <use xlink:href="#m5c312e3eac" x="291.901995" y="213.253554" style="stroke: #000000; stroke-width: 0.6"/>
      </g>
     </g>
    </g>
    <g id="xtick_17">
     <g id="line2d_17">
      <g>
       <use xlink:href="#m5c312e3eac" x="311.022197" y="213.253554" style="stroke: #000000; stroke-width: 0.6"/>
      </g>
     </g>
    </g>
    <g id="xtick_18">
     <g id="line2d_18">
      <g>
       <use xlink:href="#m5c312e3eac" x="330.142398" y="213.253554" style="stroke: #000000; stroke-width: 0.6"/>
      </g>
     </g>
    </g>
    <g id="xtick_19">
     <g id="line2d_19">
      <g>
       <use xlink:href="#m5c312e3eac" x="368.382801" y="213.253554" style="stroke: #000000; stroke-width: 0.6"/>
      </g>
     </g>
    </g>
    <g id="xtick_20">
     <g id="line2d_20">
      <g>
       <use xlink:href="#m5c312e3eac" x="387.503003" y="213.253554" style="stroke: #000000; stroke-width: 0.6"/>
      </g>
     </g>
    </g>
    <g id="xtick_21">
     <g id="line2d_21">
      <g>
       <use xlink:href="#m5c312e3eac" x="406.623205" y="213.253554" style="stroke: #000000; stroke-width: 0.6"/>
      </g>
     </g>
    </g>
    <g id="text_6">
     <!-- $t$ -->
     <g transform="translate(441.391487 213.253554)scale(0.19 -0.19)">
      <defs>
       <path id="Cmmi10-74" d="M 397 519 
Q 397 613 416 697 
L 878 2534 
L 206 2534 
Q 141 2534 141 2619 
Q 166 2759 225 2759 
L 934 2759 
L 1191 3803 
Q 1216 3888 1291 3947 
Q 1366 4006 1459 4006 
Q 1541 4006 1595 3957 
Q 1650 3909 1650 3828 
Q 1650 3809 1648 3798 
Q 1647 3788 1644 3775 
L 1388 2759 
L 2047 2759 
Q 2113 2759 2113 2675 
Q 2109 2659 2100 2621 
Q 2091 2584 2075 2559 
Q 2059 2534 2028 2534 
L 1331 2534 
L 872 684 
Q 825 503 825 372 
Q 825 97 1013 97 
Q 1294 97 1511 361 
Q 1728 625 1844 941 
Q 1869 978 1894 978 
L 1972 978 
Q 1997 978 2012 961 
Q 2028 944 2028 922 
Q 2028 909 2022 903 
Q 1881 516 1612 222 
Q 1344 -72 997 -72 
Q 744 -72 570 93 
Q 397 259 397 519 
z
" transform="scale(0.015625)"/>
      </defs>
      <use xlink:href="#Cmmi10-74" transform="translate(0 0.40625)"/>
     </g>
    </g>
   </g>
   <g id="matplotlib.axis_2">
    <g id="ytick_1">
     <g id="line2d_22">
      <defs>
       <path id="m55984e1e0e" d="M 0 0 
L -3.5 0 
" style="stroke: #000000; stroke-width: 0.8"/>
      </defs>
      <g>
       <use xlink:href="#m55984e1e0e" x="43.339375" y="324.612792" style="stroke: #000000; stroke-width: 0.8"/>
      </g>
     </g>
     <g id="text_7">
      <!-- −1.5 -->
      <g transform="translate(7.2 329.171854)scale(0.12 -0.12)">
       <defs>
        <path id="DejaVuSans-2212" d="M 678 2272 
L 4684 2272 
L 4684 1741 
L 678 1741 
L 678 2272 
z
" transform="scale(0.015625)"/>
        <path id="DejaVuSans-2e" d="M 684 794 
L 1344 794 
L 1344 0 
L 684 0 
L 684 794 
z
" transform="scale(0.015625)"/>
        <path id="DejaVuSans-35" d="M 691 4666 
L 3169 4666 
L 3169 4134 
L 1269 4134 
L 1269 2991 
Q 1406 3038 1543 3061 
Q 1681 3084 1819 3084 
Q 2600 3084 3056 2656 
Q 3513 2228 3513 1497 
Q 3513 744 3044 326 
Q 2575 -91 1722 -91 
Q 1428 -91 1123 -41 
Q 819 9 494 109 
L 494 744 
Q 775 591 1075 516 
Q 1375 441 1709 441 
Q 2250 441 2565 725 
Q 2881 1009 2881 1497 
Q 2881 1984 2565 2268 
Q 2250 2553 1709 2553 
Q 1456 2553 1204 2497 
Q 953 2441 691 2322 
L 691 4666 
z
" transform="scale(0.015625)"/>
       </defs>
       <use xlink:href="#DejaVuSans-2212"/>
       <use xlink:href="#DejaVuSans-31" x="83.789062"/>
       <use xlink:href="#DejaVuSans-2e" x="147.412109"/>
       <use xlink:href="#DejaVuSans-35" x="179.199219"/>
      </g>
     </g>
    </g>
    <g id="ytick_2">
     <g id="line2d_23">
      <g>
       <use xlink:href="#m55984e1e0e" x="43.339375" y="287.493046" style="stroke: #000000; stroke-width: 0.8"/>
      </g>
     </g>
     <g id="text_8">
      <!-- −1.0 -->
      <g transform="translate(7.2 292.052108)scale(0.12 -0.12)">
       <use xlink:href="#DejaVuSans-2212"/>
       <use xlink:href="#DejaVuSans-31" x="83.789062"/>
       <use xlink:href="#DejaVuSans-2e" x="147.412109"/>
       <use xlink:href="#DejaVuSans-30" x="179.199219"/>
      </g>
     </g>
    </g>
    <g id="ytick_3">
     <g id="line2d_24">
      <g>
       <use xlink:href="#m55984e1e0e" x="43.339375" y="250.3733" style="stroke: #000000; stroke-width: 0.8"/>
      </g>
     </g>
     <g id="text_9">
      <!-- −0.5 -->
      <g transform="translate(7.2 254.932362)scale(0.12 -0.12)">
       <use xlink:href="#DejaVuSans-2212"/>
       <use xlink:href="#DejaVuSans-30" x="83.789062"/>
       <use xlink:href="#DejaVuSans-2e" x="147.412109"/>
       <use xlink:href="#DejaVuSans-35" x="179.199219"/>
      </g>
     </g>
    </g>
    <g id="ytick_4">
     <g id="line2d_25">
      <g>
       <use xlink:href="#m55984e1e0e" x="43.339375" y="213.253554" style="stroke: #000000; stroke-width: 0.8"/>
      </g>
     </g>
    </g>
    <g id="ytick_5">
     <g id="line2d_26">
      <g>
       <use xlink:href="#m55984e1e0e" x="43.339375" y="176.133808" style="stroke: #000000; stroke-width: 0.8"/>
      </g>
     </g>
     <g id="text_10">
      <!-- 0.5 -->
      <g transform="translate(17.255625 180.69287)scale(0.12 -0.12)">
       <use xlink:href="#DejaVuSans-30"/>
       <use xlink:href="#DejaVuSans-2e" x="63.623047"/>
       <use xlink:href="#DejaVuSans-35" x="95.410156"/>
      </g>
     </g>
    </g>
    <g id="ytick_6">
     <g id="line2d_27">
      <g>
       <use xlink:href="#m55984e1e0e" x="43.339375" y="139.014062" style="stroke: #000000; stroke-width: 0.8"/>
      </g>
     </g>
     <g id="text_11">
      <!-- 1.0 -->
      <g transform="translate(17.255625 143.573124)scale(0.12 -0.12)">
       <use xlink:href="#DejaVuSans-31"/>
       <use xlink:href="#DejaVuSans-2e" x="63.623047"/>
       <use xlink:href="#DejaVuSans-30" x="95.410156"/>
      </g>
     </g>
    </g>
    <g id="ytick_7">
     <g id="line2d_28">
      <g>
       <use xlink:href="#m55984e1e0e" x="43.339375" y="101.894316" style="stroke: #000000; stroke-width: 0.8"/>
      </g>
     </g>
     <g id="text_12">
      <!-- 1.5 -->
      <g transform="translate(17.255625 106.453378)scale(0.12 -0.12)">
       <use xlink:href="#DejaVuSans-31"/>
       <use xlink:href="#DejaVuSans-2e" x="63.623047"/>
       <use xlink:href="#DejaVuSans-35" x="95.410156"/>
      </g>
     </g>
    </g>
    <g id="ytick_8">
     <g id="line2d_29">
      <g>
       <use xlink:href="#m55984e1e0e" x="43.339375" y="64.77457" style="stroke: #000000; stroke-width: 0.8"/>
      </g>
     </g>
     <g id="text_13">
      <!-- 2.0 -->
      <g transform="translate(17.255625 69.333632)scale(0.12 -0.12)">
       <use xlink:href="#DejaVuSans-32"/>
       <use xlink:href="#DejaVuSans-2e" x="63.623047"/>
       <use xlink:href="#DejaVuSans-30" x="95.410156"/>
      </g>
     </g>
    </g>
    <g id="ytick_9">
     <g id="line2d_30">
      <g>
       <use xlink:href="#m55984e1e0e" x="43.339375" y="27.654824" style="stroke: #000000; stroke-width: 0.8"/>
      </g>
     </g>
     <g id="text_14">
      <!-- 2.5 -->
      <g transform="translate(17.255625 32.213886)scale(0.12 -0.12)">
       <use xlink:href="#DejaVuSans-32"/>
       <use xlink:href="#DejaVuSans-2e" x="63.623047"/>
       <use xlink:href="#DejaVuSans-35" x="95.410156"/>
      </g>
     </g>
    </g>
    <g id="ytick_10">
     <g id="line2d_31">
      <defs>
       <path id="m076eb00a1e" d="M 0 0 
L -2 0 
" style="stroke: #000000; stroke-width: 0.6"/>
      </defs>
      <g>
       <use xlink:href="#m076eb00a1e" x="43.339375" y="317.188842" style="stroke: #000000; stroke-width: 0.6"/>
      </g>
     </g>
    </g>
    <g id="ytick_11">
     <g id="line2d_32">
      <g>
       <use xlink:href="#m076eb00a1e" x="43.339375" y="309.764893" style="stroke: #000000; stroke-width: 0.6"/>
      </g>
     </g>
    </g>
    <g id="ytick_12">
     <g id="line2d_33">
      <g>
       <use xlink:href="#m076eb00a1e" x="43.339375" y="302.340944" style="stroke: #000000; stroke-width: 0.6"/>
      </g>
     </g>
    </g>
    <g id="ytick_13">
     <g id="line2d_34">
      <g>
       <use xlink:href="#m076eb00a1e" x="43.339375" y="294.916995" style="stroke: #000000; stroke-width: 0.6"/>
      </g>
     </g>
    </g>
    <g id="ytick_14">
     <g id="line2d_35">
      <g>
       <use xlink:href="#m076eb00a1e" x="43.339375" y="280.069097" style="stroke: #000000; stroke-width: 0.6"/>
      </g>
     </g>
    </g>
    <g id="ytick_15">
     <g id="line2d_36">
      <g>
       <use xlink:href="#m076eb00a1e" x="43.339375" y="272.645147" style="stroke: #000000; stroke-width: 0.6"/>
      </g>
     </g>
    </g>
    <g id="ytick_16">
     <g id="line2d_37">
      <g>
       <use xlink:href="#m076eb00a1e" x="43.339375" y="265.221198" style="stroke: #000000; stroke-width: 0.6"/>
      </g>
     </g>
    </g>
    <g id="ytick_17">
     <g id="line2d_38">
      <g>
       <use xlink:href="#m076eb00a1e" x="43.339375" y="257.797249" style="stroke: #000000; stroke-width: 0.6"/>
      </g>
     </g>
    </g>
    <g id="ytick_18">
     <g id="line2d_39">
      <g>
       <use xlink:href="#m076eb00a1e" x="43.339375" y="242.949351" style="stroke: #000000; stroke-width: 0.6"/>
      </g>
     </g>
    </g>
    <g id="ytick_19">
     <g id="line2d_40">
      <g>
       <use xlink:href="#m076eb00a1e" x="43.339375" y="235.525401" style="stroke: #000000; stroke-width: 0.6"/>
      </g>
     </g>
    </g>
    <g id="ytick_20">
     <g id="line2d_41">
      <g>
       <use xlink:href="#m076eb00a1e" x="43.339375" y="228.101452" style="stroke: #000000; stroke-width: 0.6"/>
      </g>
     </g>
    </g>
    <g id="ytick_21">
     <g id="line2d_42">
      <g>
       <use xlink:href="#m076eb00a1e" x="43.339375" y="220.677503" style="stroke: #000000; stroke-width: 0.6"/>
      </g>
     </g>
    </g>
    <g id="ytick_22">
     <g id="line2d_43">
      <g>
       <use xlink:href="#m076eb00a1e" x="43.339375" y="205.829605" style="stroke: #000000; stroke-width: 0.6"/>
      </g>
     </g>
    </g>
    <g id="ytick_23">
     <g id="line2d_44">
      <g>
       <use xlink:href="#m076eb00a1e" x="43.339375" y="198.405655" style="stroke: #000000; stroke-width: 0.6"/>
      </g>
     </g>
    </g>
    <g id="ytick_24">
     <g id="line2d_45">
      <g>
       <use xlink:href="#m076eb00a1e" x="43.339375" y="190.981706" style="stroke: #000000; stroke-width: 0.6"/>
      </g>
     </g>
    </g>
    <g id="ytick_25">
     <g id="line2d_46">
      <g>
       <use xlink:href="#m076eb00a1e" x="43.339375" y="183.557757" style="stroke: #000000; stroke-width: 0.6"/>
      </g>
     </g>
    </g>
    <g id="ytick_26">
     <g id="line2d_47">
      <g>
       <use xlink:href="#m076eb00a1e" x="43.339375" y="168.709859" style="stroke: #000000; stroke-width: 0.6"/>
      </g>
     </g>
    </g>
    <g id="ytick_27">
     <g id="line2d_48">
      <g>
       <use xlink:href="#m076eb00a1e" x="43.339375" y="161.285909" style="stroke: #000000; stroke-width: 0.6"/>
      </g>
     </g>
    </g>
    <g id="ytick_28">
     <g id="line2d_49">
      <g>
       <use xlink:href="#m076eb00a1e" x="43.339375" y="153.86196" style="stroke: #000000; stroke-width: 0.6"/>
      </g>
     </g>
    </g>
    <g id="ytick_29">
     <g id="line2d_50">
      <g>
       <use xlink:href="#m076eb00a1e" x="43.339375" y="146.438011" style="stroke: #000000; stroke-width: 0.6"/>
      </g>
     </g>
    </g>
    <g id="ytick_30">
     <g id="line2d_51">
      <g>
       <use xlink:href="#m076eb00a1e" x="43.339375" y="131.590113" style="stroke: #000000; stroke-width: 0.6"/>
      </g>
     </g>
    </g>
    <g id="ytick_31">
     <g id="line2d_52">
      <g>
       <use xlink:href="#m076eb00a1e" x="43.339375" y="124.166163" style="stroke: #000000; stroke-width: 0.6"/>
      </g>
     </g>
    </g>
    <g id="ytick_32">
     <g id="line2d_53">
      <g>
       <use xlink:href="#m076eb00a1e" x="43.339375" y="116.742214" style="stroke: #000000; stroke-width: 0.6"/>
      </g>
     </g>
    </g>
    <g id="ytick_33">
     <g id="line2d_54">
      <g>
       <use xlink:href="#m076eb00a1e" x="43.339375" y="109.318265" style="stroke: #000000; stroke-width: 0.6"/>
      </g>
     </g>
    </g>
    <g id="ytick_34">
     <g id="line2d_55">
      <g>
       <use xlink:href="#m076eb00a1e" x="43.339375" y="94.470367" style="stroke: #000000; stroke-width: 0.6"/>
      </g>
     </g>
    </g>
    <g id="ytick_35">
     <g id="line2d_56">
      <g>
       <use xlink:href="#m076eb00a1e" x="43.339375" y="87.046417" style="stroke: #000000; stroke-width: 0.6"/>
      </g>
     </g>
    </g>
    <g id="ytick_36">
     <g id="line2d_57">
      <g>
       <use xlink:href="#m076eb00a1e" x="43.339375" y="79.622468" style="stroke: #000000; stroke-width: 0.6"/>
      </g>
     </g>
    </g>
    <g id="ytick_37">
     <g id="line2d_58">
      <g>
       <use xlink:href="#m076eb00a1e" x="43.339375" y="72.198519" style="stroke: #000000; stroke-width: 0.6"/>
      </g>
     </g>
    </g>
    <g id="ytick_38">
     <g id="line2d_59">
      <g>
       <use xlink:href="#m076eb00a1e" x="43.339375" y="57.350621" style="stroke: #000000; stroke-width: 0.6"/>
      </g>
     </g>
    </g>
    <g id="ytick_39">
     <g id="line2d_60">
      <g>
       <use xlink:href="#m076eb00a1e" x="43.339375" y="49.926671" style="stroke: #000000; stroke-width: 0.6"/>
      </g>
     </g>
    </g>
    <g id="ytick_40">
     <g id="line2d_61">
      <g>
       <use xlink:href="#m076eb00a1e" x="43.339375" y="42.502722" style="stroke: #000000; stroke-width: 0.6"/>
      </g>
     </g>
    </g>
    <g id="ytick_41">
     <g id="line2d_62">
      <g>
       <use xlink:href="#m076eb00a1e" x="43.339375" y="35.078773" style="stroke: #000000; stroke-width: 0.6"/>
      </g>
     </g>
    </g>
    <g id="ytick_42">
     <g id="line2d_63">
      <g>
       <use xlink:href="#m076eb00a1e" x="43.339375" y="20.230875" style="stroke: #000000; stroke-width: 0.6"/>
      </g>
     </g>
    </g>
    <g id="ytick_43">
     <g id="line2d_64">
      <g>
       <use xlink:href="#m076eb00a1e" x="43.339375" y="12.806925" style="stroke: #000000; stroke-width: 0.6"/>
      </g>
     </g>
    </g>
   </g>
   <g id="line2d_65">
    <path d="M 43.339375 176.133808 
L 45.135701 174.582075 
L 46.511613 173.625075 
L 47.887525 172.838161 
L 50.701095 171.663064 
L 52.798585 171.090469 
L 54.882824 170.722127 
L 59.108943 170.440711 
L 61.880446 170.511473 
L 66.022249 170.894844 
L 70.679451 171.636762 
L 74.35858 172.415887 
L 80.375844 174.018128 
L 83.648223 175.053473 
L 88.835201 176.928945 
L 93.818081 179.001481 
L 96.918163 180.424251 
L 102.630598 183.308624 
L 105.834857 185.0707 
L 112.408415 188.987384 
L 117.528363 192.290662 
L 123.461347 196.348288 
L 131.031133 201.788281 
L 153.103998 217.922498 
L 159.487564 222.230384 
L 164.779114 225.541169 
L 169.866682 228.447482 
L 174.451959 230.796786 
L 177.060719 232.007253 
L 181.026081 233.65854 
L 184.774506 234.998123 
L 189.20426 236.288556 
L 192.68744 237.071562 
L 197.941729 237.854385 
L 201.197181 238.094756 
L 204.0719 238.150216 
L 208.86551 237.916428 
L 211.532259 237.611544 
L 213.870403 237.243079 
L 218.473531 236.248097 
L 222.273338 235.166862 
L 225.835786 233.950389 
L 229.900793 232.337096 
L 235.159035 229.924232 
L 239.939638 227.447993 
L 245.895226 224.048584 
L 252.381546 220.041714 
L 261.976666 213.776272 
L 273.948713 205.93777 
L 281.229042 201.46326 
L 287.235005 198.081958 
L 292.745798 195.30338 
L 298.084724 192.963683 
L 303.110478 191.119609 
L 307.868966 189.723679 
L 309.58905 189.307375 
L 314.396287 188.402337 
L 317.171641 188.057297 
L 321.955514 187.773921 
L 325.232458 187.809154 
L 330.075108 188.202056 
L 332.87275 188.612247 
L 336.475754 189.334045 
L 341.645005 190.737641 
L 346.304649 192.355317 
L 351.494902 194.520355 
L 356.48651 196.927699 
L 361.837697 199.815392 
L 367.893911 203.396826 
L 375.121391 207.985294 
L 398.985205 223.538052 
L 403.985524 226.487784 
L 410.477823 229.973334 
L 413.898133 231.622027 
L 417.893156 233.3609 
L 421.668716 234.802976 
L 425.743406 236.123397 
L 425.743406 236.123397 
" clip-path="url(#p77df797bdb)" style="fill: none; stroke: #0000ff; stroke-linecap: square"/>
   </g>
   <g id="line2d_66">
    <path d="M 43.339375 176.133808 
L 44.813274 182.738658 
L 46.214828 188.103259 
L 47.616382 192.706795 
L 48.605057 195.557523 
L 50.666605 200.609654 
L 52.462823 204.194457 
L 54.44338 207.444943 
L 56.076537 209.678562 
L 58.128684 212.030315 
L 59.849962 213.690795 
L 62.644174 215.927907 
L 65.632187 217.869506 
L 70.089199 220.23059 
L 74.122182 222.064695 
L 82.091953 225.385277 
L 100.110796 232.699034 
L 106.406845 235.088135 
L 112.730426 237.248126 
L 118.035807 238.800685 
L 123.798949 240.150843 
L 127.726343 240.839948 
L 132.976522 241.437122 
L 137.563661 241.63421 
L 141.987812 241.523465 
L 145.129347 241.261071 
L 148.701417 240.775509 
L 153.433649 239.826277 
L 156.623395 238.992482 
L 161.842352 237.301867 
L 165.895521 235.721879 
L 170.31236 233.752033 
L 174.950365 231.428478 
L 179.124078 229.138198 
L 185.430786 225.375479 
L 192.331719 220.941233 
L 203.493493 213.406467 
L 213.897687 206.445374 
L 219.606172 202.835413 
L 225.464635 199.38935 
L 229.455116 197.232068 
L 234.572949 194.732497 
L 239.20728 192.761507 
L 242.380113 191.587666 
L 246.436847 190.308986 
L 250.660955 189.256266 
L 255.184892 188.457912 
L 258.152613 188.124217 
L 261.449177 187.932847 
L 266.625856 188.015569 
L 271.215223 188.478656 
L 275.116828 189.155232 
L 276.910636 189.551543 
L 282.703661 191.184743 
L 286.93709 192.702605 
L 290.330801 194.103216 
L 295.759413 196.65388 
L 299.91797 198.838062 
L 306.386577 202.565957 
L 312.111043 206.124916 
L 321.813542 212.480543 
L 333.082747 219.900731 
L 340.022562 224.226139 
L 346.116728 227.732652 
L 351.383248 230.470935 
L 355.612982 232.436655 
L 361.419511 234.74936 
L 366.879446 236.473966 
L 371.093805 237.483691 
L 373.958873 238.002967 
L 378.571491 238.546439 
L 382.269787 238.717015 
L 386.033587 238.646376 
L 389.758087 238.3346 
L 392.472991 237.957328 
L 396.27314 237.220821 
L 398.797805 236.60026 
L 403.640183 235.128105 
L 408.077598 233.470894 
L 413.786224 230.94266 
L 418.696621 228.450896 
L 423.171643 225.96104 
L 425.743406 224.449219 
L 425.743406 224.449219 
" clip-path="url(#p77df797bdb)" style="fill: none; stroke: #ff0000; stroke-linecap: square"/>
   </g>
   <g id="line2d_67">
    <path d="M 43.339375 139.014062 
L 44.588597 136.853199 
L 45.837819 135.172706 
L 47.421096 133.631393 
L 48.329023 133.003407 
L 49.236951 132.538078 
L 50.412912 132.149672 
L 51.588872 131.973031 
L 53.471229 132.060559 
L 55.376199 132.526017 
L 57.33667 133.313813 
L 59.723362 134.593136 
L 63.17683 136.879668 
L 66.989547 139.777591 
L 72.357175 144.19486 
L 87.487965 157.157333 
L 104.505886 171.872354 
L 118.768918 184.523601 
L 140.783408 204.16364 
L 149.783324 211.753154 
L 155.272349 216.105784 
L 160.484868 219.983598 
L 163.741786 222.258851 
L 169.319847 225.855019 
L 174.64921 228.895582 
L 178.342313 230.754123 
L 181.210757 232.048357 
L 186.15198 233.956499 
L 189.032316 234.874229 
L 192.508745 235.785215 
L 197.560192 236.717486 
L 202.013555 237.149583 
L 203.912827 237.222394 
L 207.652303 237.171874 
L 210.393834 236.973011 
L 213.714848 236.551862 
L 218.535608 235.598772 
L 223.28162 234.282427 
L 227.840176 232.687179 
L 230.992029 231.408007 
L 236.813624 228.702776 
L 242.465008 225.706246 
L 248.920456 221.926527 
L 255.813855 217.592285 
L 277.56754 203.535632 
L 284.022248 199.735486 
L 287.820309 197.667477 
L 293.337227 194.936612 
L 297.738899 193.023941 
L 301.949398 191.441399 
L 304.138236 190.720868 
L 307.723686 189.69953 
L 312.762354 188.612751 
L 315.471907 188.202789 
L 320.35103 187.780563 
L 324.272041 187.739588 
L 328.239912 187.969584 
L 332.309854 188.486726 
L 335.458346 189.07867 
L 339.244187 190.006029 
L 343.250784 191.234284 
L 347.25615 192.702695 
L 351.894367 194.682425 
L 356.485073 196.909782 
L 361.844966 199.804571 
L 368.864468 203.983679 
L 375.435875 208.179946 
L 398.962136 223.518338 
L 403.658582 226.296294 
L 410.253944 229.856395 
L 413.785658 231.566238 
L 419.035464 233.815206 
L 423.560891 235.44455 
L 425.743406 236.120588 
L 425.743406 236.120588 
" clip-path="url(#p77df797bdb)" style="fill: none; stroke: #0000ff; stroke-linecap: square"/>
   </g>
   <g id="line2d_68">
    <path d="M 43.339375 139.014062 
L 44.91783 158.611967 
L 46.391982 173.915909 
L 47.780027 186.075708 
L 49.168073 196.369052 
L 50.358248 203.911985 
L 51.522884 210.29585 
L 53.111692 217.632181 
L 54.384209 222.526874 
L 55.559593 226.383787 
L 56.734977 229.686158 
L 58.354314 233.457393 
L 59.747931 236.090639 
L 60.601769 237.464575 
L 62.388853 239.840397 
L 63.040124 240.559508 
L 64.342666 241.797051 
L 65.598382 242.769244 
L 67.060811 243.672373 
L 69.3553 244.692638 
L 71.124527 245.224401 
L 72.893754 245.590652 
L 75.801011 245.937697 
L 79.555268 246.102308 
L 96.273341 246.278566 
L 104.757874 246.735125 
L 118.566842 247.554459 
L 124.071146 247.675454 
L 129.006793 247.592744 
L 134.3987 247.242944 
L 136.698772 247.000195 
L 141.459349 246.30363 
L 145.324452 245.534875 
L 149.513059 244.487537 
L 154.150313 243.063258 
L 158.776539 241.365717 
L 163.459238 239.372969 
L 169.156522 236.595599 
L 172.939857 234.55322 
L 178.16158 231.50262 
L 184.145896 227.725031 
L 191.268212 222.933643 
L 202.90632 214.759519 
L 213.071097 207.714952 
L 217.667217 204.685609 
L 223.142506 201.28046 
L 230.069001 197.384243 
L 232.860196 195.96876 
L 238.508341 193.415518 
L 242.939662 191.730856 
L 246.273358 190.662253 
L 250.15997 189.642908 
L 255.007141 188.726807 
L 258.370432 188.329271 
L 263.628877 188.105403 
L 267.725621 188.268385 
L 272.834147 188.881368 
L 277.171771 189.750356 
L 282.355561 191.191189 
L 284.92069 192.058481 
L 289.611659 193.892118 
L 293.197749 195.494988 
L 299.108975 198.475927 
L 305.132396 201.881498 
L 311.307096 205.669499 
L 318.101229 210.066886 
L 334.556627 220.872954 
L 340.246747 224.386886 
L 346.608078 228.022788 
L 350.197348 229.901234 
L 355.663229 232.476199 
L 360.050481 234.262464 
L 363.75739 235.557793 
L 367.458998 236.642727 
L 372.317363 237.73362 
L 375.667551 238.257146 
L 379.634434 238.629152 
L 383.61018 238.728575 
L 388.428208 238.480856 
L 393.340265 237.817032 
L 397.064311 237.043411 
L 400.701203 236.070413 
L 403.731281 235.101965 
L 408.835908 233.164192 
L 412.922478 231.355871 
L 418.117603 228.761991 
L 422.978012 226.075644 
L 425.743406 224.452028 
L 425.743406 224.452028 
" clip-path="url(#p77df797bdb)" style="fill: none; stroke: #ff0000; stroke-linecap: square"/>
   </g>
   <g id="line2d_69">
    <path d="M 43.339375 101.894316 
L 44.258006 99.45691 
L 45.176638 97.462142 
L 46.218804 95.677443 
L 47.26097 94.343797 
L 48.162447 93.512647 
L 49.063924 92.947752 
L 50.012997 92.609811 
L 50.96207 92.506118 
L 52.022003 92.63451 
L 52.86158 92.897895 
L 54.540733 93.791215 
L 55.900231 94.815186 
L 57.354521 96.151904 
L 60.084915 99.177126 
L 61.783408 101.30892 
L 66.282992 107.511642 
L 84.200263 133.424697 
L 89.24705 140.247872 
L 95.734689 148.638947 
L 102.531064 157.039199 
L 110.503357 166.49143 
L 118.837383 176.003572 
L 128.161988 186.243057 
L 135.144461 193.606491 
L 140.726186 199.268347 
L 147.010526 205.355219 
L 153.277902 211.063112 
L 159.099187 215.98231 
L 164.059574 219.841381 
L 167.825873 222.545432 
L 171.664964 225.085129 
L 176.376307 227.883158 
L 180.602931 230.077043 
L 182.801727 231.095057 
L 188.317719 233.264012 
L 192.390063 234.502572 
L 196.213851 235.379068 
L 200.752157 236.055797 
L 202.442756 236.206869 
L 206.303512 236.347305 
L 207.967004 236.320772 
L 212.030554 236.038904 
L 216.437719 235.393115 
L 219.758468 234.681016 
L 224.712474 233.276441 
L 227.928896 232.157541 
L 231.784773 230.616905 
L 236.450136 228.487185 
L 240.971598 226.177403 
L 244.714818 224.107638 
L 252.081649 219.705395 
L 261.697475 213.551382 
L 275.583657 204.619461 
L 280.662846 201.548594 
L 285.847862 198.614999 
L 291.479266 195.723134 
L 296.695782 193.372159 
L 300.04849 192.049431 
L 302.413284 191.212049 
L 308.050555 189.555527 
L 312.869019 188.54052 
L 315.34994 188.168194 
L 320.587349 187.726608 
L 323.766593 187.689457 
L 327.291165 187.85296 
L 332.068711 188.415699 
L 334.772375 188.905332 
L 339.628016 190.086184 
L 343.8432 191.412759 
L 347.421782 192.746593 
L 351.717454 194.582264 
L 354.128694 195.716834 
L 360.883775 199.249079 
L 365.363553 201.837943 
L 373.015099 206.599017 
L 386.376065 215.424666 
L 394.115572 220.483242 
L 400.829637 224.638523 
L 406.592517 227.929791 
L 411.519749 230.482216 
L 416.979945 232.975039 
L 421.626451 234.781714 
L 425.743406 236.11778 
L 425.743406 236.11778 
" clip-path="url(#p77df797bdb)" style="fill: none; stroke: #0000ff; stroke-linecap: square"/>
   </g>
   <g id="line2d_70">
    <path d="M 43.339375 101.894316 
L 44.75377 130.985657 
L 46.168165 155.582953 
L 47.538931 175.740991 
L 48.945951 193.199775 
L 50.32037 207.540003 
L 51.633039 219.084064 
L 52.883957 228.395882 
L 54.003725 235.513887 
L 55.486649 243.409801 
L 56.758165 248.981813 
L 57.750656 252.666115 
L 58.887961 256.260198 
L 60.372137 260.075276 
L 61.673393 262.722836 
L 62.97465 264.818519 
L 64.078846 266.225488 
L 65.183042 267.338361 
L 66.070071 268.045825 
L 67.699351 268.975409 
L 68.441603 269.261673 
L 69.852842 269.606964 
L 71.227751 269.731082 
L 72.969949 269.647738 
L 74.712146 269.355767 
L 77.300781 268.648592 
L 81.795937 266.981447 
L 92.423297 262.720802 
L 96.196962 261.411982 
L 100.834981 260.009939 
L 106.52279 258.572304 
L 111.734651 257.461575 
L 134.183534 253.006244 
L 139.806806 251.53642 
L 144.44289 250.121891 
L 150.856499 247.821 
L 156.511431 245.437882 
L 159.853984 243.869803 
L 165.600026 240.902038 
L 171.452894 237.543691 
L 177.292696 233.890109 
L 183.640903 229.631595 
L 192.988742 222.977661 
L 212.5731 208.791149 
L 219.440145 204.17468 
L 225.701277 200.307316 
L 230.937373 197.391672 
L 235.340708 195.202335 
L 240.243121 193.080262 
L 242.78785 192.119656 
L 246.969339 190.762714 
L 251.641622 189.586992 
L 254.977571 188.975455 
L 258.944486 188.501382 
L 262.1558 188.32147 
L 266.437315 188.366397 
L 269.885956 188.637999 
L 274.254874 189.278854 
L 279.001021 190.340224 
L 280.90864 190.870258 
L 285.338466 192.319456 
L 288.53083 193.543902 
L 294.168485 196.044444 
L 300.155759 199.118303 
L 304.79383 201.748032 
L 310.699219 205.342851 
L 317.834291 209.938414 
L 336.243913 221.965047 
L 343.149803 226.114655 
L 346.61688 228.049801 
L 351.495026 230.564851 
L 356.530279 232.867155 
L 360.20328 234.335426 
L 364.715393 235.872871 
L 369.20392 237.091217 
L 373.702311 237.983993 
L 377.326014 238.455591 
L 378.931763 238.592592 
L 384.140312 238.729392 
L 387.247207 238.586486 
L 391.672844 238.09524 
L 395.446625 237.413819 
L 399.433106 236.43915 
L 403.772303 235.092888 
L 409.84085 232.744056 
L 415.063166 230.328546 
L 420.654046 227.391846 
L 425.743406 224.454837 
L 425.743406 224.454837 
" clip-path="url(#p77df797bdb)" style="fill: none; stroke: #ff0000; stroke-linecap: square"/>
   </g>
   <g id="line2d_71">
    <path d="M 43.339375 64.77457 
L 44.520517 60.729636 
L 45.698403 57.678752 
L 46.482575 56.127512 
L 47.266748 54.919471 
L 48.539465 53.609657 
L 49.028009 53.299384 
L 49.79072 53.007006 
L 50.553432 52.929627 
L 51.633512 53.149055 
L 52.713592 53.708082 
L 54.075722 54.82704 
L 55.354429 56.231835 
L 56.633137 57.921512 
L 59.084711 61.783863 
L 62.357486 67.82287 
L 65.713964 74.617424 
L 78.320166 100.985406 
L 83.819313 111.7924 
L 87.585807 118.822412 
L 92.390741 127.355893 
L 98.203743 137.076713 
L 103.79722 145.880839 
L 107.817095 151.91785 
L 114.872975 162.006651 
L 121.276733 170.670974 
L 127.785472 179.043404 
L 134.644182 187.408341 
L 140.697901 194.390983 
L 146.976222 201.207601 
L 151.187756 205.517553 
L 156.616872 210.734905 
L 159.829261 213.629633 
L 166.168475 218.889013 
L 170.695084 222.251457 
L 173.068739 223.876221 
L 178.088432 226.984463 
L 182.179719 229.17654 
L 186.823879 231.280021 
L 188.921364 232.092975 
L 193.520772 233.572246 
L 196.420493 234.288889 
L 199.988234 234.940597 
L 203.967506 235.368962 
L 205.753167 235.459624 
L 210.645669 235.390574 
L 213.521091 235.137219 
L 217.785288 234.480955 
L 222.167568 233.471686 
L 226.70858 232.088862 
L 229.533916 231.06659 
L 233.177577 229.578222 
L 238.496192 227.093924 
L 243.627686 224.393381 
L 248.063861 221.860905 
L 256.369995 216.762321 
L 279.334949 202.205642 
L 284.735145 199.112424 
L 289.543476 196.579762 
L 295.242471 193.907382 
L 299.710458 192.099876 
L 304.233306 190.556464 
L 308.079036 189.487491 
L 312.270608 188.591184 
L 316.225945 188.012369 
L 321.162197 187.663646 
L 324.121823 187.656137 
L 328.999489 187.974097 
L 333.469102 188.622692 
L 337.197604 189.419012 
L 341.082767 190.487459 
L 346.207525 192.25091 
L 350.467268 194.002683 
L 356.104089 196.680841 
L 360.796598 199.185132 
L 365.713667 202.033801 
L 372.392442 206.187762 
L 381.295443 212.032787 
L 394.340257 220.620259 
L 400.517364 224.446656 
L 407.205902 228.257165 
L 410.264346 229.853226 
L 416.247999 232.659559 
L 419.527939 234.000307 
L 423.942747 235.562226 
L 425.743406 236.114971 
L 425.743406 236.114971 
" clip-path="url(#p77df797bdb)" style="fill: none; stroke: #0000ff; stroke-linecap: square"/>
   </g>
   <g id="line2d_72">
    <path d="M 43.339375 64.77457 
L 44.861071 108.033117 
L 46.335935 143.085612 
L 47.648016 169.406584 
L 49.09118 193.826138 
L 50.320619 211.394774 
L 51.550057 226.387419 
L 52.983378 241.051197 
L 54.257638 251.891185 
L 55.431251 260.295543 
L 56.604865 267.380407 
L 57.869394 273.728311 
L 59.315756 279.581917 
L 60.557961 283.583026 
L 61.757305 286.675516 
L 63.199628 289.537266 
L 64.480839 291.411085 
L 65.729164 292.724999 
L 66.353326 293.216566 
L 67.3562 293.802755 
L 69.009024 294.294857 
L 69.658975 294.349479 
L 70.748967 294.291196 
L 71.83896 294.069133 
L 72.961432 293.695446 
L 74.083904 293.198216 
L 75.779266 292.258648 
L 79.124761 289.942761 
L 83.332448 286.583218 
L 89.323233 281.682524 
L 92.697343 279.071644 
L 97.270371 275.815618 
L 100.482906 273.74042 
L 104.504085 271.383285 
L 107.988492 269.537702 
L 114.279514 266.585327 
L 121.536623 263.598789 
L 141.413767 255.825098 
L 146.993484 253.368593 
L 152.027419 250.960674 
L 155.981047 248.927333 
L 161.699743 245.753649 
L 167.825986 242.048868 
L 173.985033 238.025018 
L 181.17586 232.999154 
L 190.603218 226.02163 
L 210.141832 211.285576 
L 217.958723 205.784534 
L 222.800405 202.618923 
L 226.626532 200.28202 
L 231.387177 197.609185 
L 235.7181 195.431009 
L 240.469654 193.347723 
L 245.504787 191.518878 
L 248.977011 190.498354 
L 252.4122 189.689879 
L 256.097017 189.05087 
L 260.557158 188.599266 
L 261.740509 188.539109 
L 265.408316 188.511896 
L 269.858295 188.800526 
L 274.341961 189.442166 
L 277.257602 190.043527 
L 279.162891 190.512722 
L 284.450582 192.118199 
L 287.831782 193.36686 
L 290.578192 194.500253 
L 296.228869 197.140218 
L 300.295501 199.269288 
L 305.900621 202.467333 
L 311.716148 206.039501 
L 320.185807 211.532524 
L 333.790198 220.447382 
L 339.2504 223.841014 
L 346.335768 227.919587 
L 351.686883 230.677785 
L 353.82071 231.686244 
L 358.64624 233.752132 
L 362.53592 235.182831 
L 367.911253 236.785968 
L 372.137384 237.722967 
L 376.036358 238.323744 
L 379.073827 238.612087 
L 383.15095 238.748245 
L 386.413671 238.649118 
L 391.392176 238.143239 
L 395.16362 237.479409 
L 398.942922 236.578454 
L 401.835904 235.734697 
L 403.739028 235.109298 
L 408.513629 233.306212 
L 412.24256 231.679633 
L 416.747029 229.483203 
L 421.449681 226.951036 
L 425.743406 224.457646 
L 425.743406 224.457646 
" clip-path="url(#p77df797bdb)" style="fill: none; stroke: #ff0000; stroke-linecap: square"/>
   </g>
   <g id="line2d_73">
    <path d="M 43.339375 27.654824 
L 44.332932 23.326764 
L 45.326489 19.912858 
L 45.988861 18.093658 
L 46.930477 16.073846 
L 47.872093 14.653561 
L 48.941617 13.684181 
L 49.476379 13.430234 
L 50.011142 13.316713 
L 50.621352 13.346809 
L 51.231562 13.534603 
L 51.954706 13.944663 
L 52.677851 14.540354 
L 54.100605 16.188565 
L 55.523359 18.372168 
L 57.432799 21.971628 
L 59.904333 27.47712 
L 63.214723 35.820879 
L 67.829595 48.356107 
L 76.230667 71.338979 
L 81.148142 84.0782 
L 86.253398 96.507414 
L 91.418918 108.233831 
L 95.051913 115.993105 
L 99.914669 125.799196 
L 102.991842 131.69047 
L 106.008019 137.249031 
L 112.866274 149.173217 
L 118.026562 157.563641 
L 123.937443 166.632295 
L 129.857323 175.182922 
L 134.738177 181.853271 
L 140.484067 189.27458 
L 146.230084 196.225024 
L 151.580878 202.259883 
L 156.484149 207.402554 
L 161.223829 212.003911 
L 163.720748 214.2757 
L 168.957014 218.684298 
L 173.01717 221.758899 
L 175.908418 223.758827 
L 179.149397 225.808426 
L 182.864891 227.902731 
L 187.679974 230.202572 
L 190.474119 231.319536 
L 192.513125 232.032917 
L 196.635636 233.212136 
L 198.312037 233.590947 
L 203.105611 234.354356 
L 205.856222 234.580364 
L 209.907386 234.636591 
L 213.643912 234.402992 
L 218.278185 233.746253 
L 221.271882 233.114893 
L 224.033525 232.394939 
L 228.084643 231.112373 
L 231.61049 229.790888 
L 236.5302 227.656833 
L 240.934613 225.491835 
L 244.789104 223.427559 
L 250.95925 219.856557 
L 258.861739 214.952273 
L 277.07631 203.425906 
L 284.483643 199.138142 
L 287.614455 197.463746 
L 292.278874 195.156828 
L 297.35138 192.940093 
L 301.520441 191.373987 
L 306.041642 189.960849 
L 310.57679 188.861794 
L 314.915038 188.124044 
L 318.883716 187.726642 
L 321.369559 187.615142 
L 325.999078 187.691804 
L 329.49385 187.99435 
L 331.434252 188.252418 
L 335.197814 188.933495 
L 339.418559 189.973743 
L 343.967129 191.408163 
L 347.042606 192.552607 
L 350.36336 193.936875 
L 354.320465 195.773741 
L 357.780691 197.532467 
L 364.569785 201.33903 
L 369.075851 204.077987 
L 377.650697 209.60438 
L 394.106753 220.46476 
L 402.183242 225.427297 
L 406.88787 228.080902 
L 411.352918 230.392062 
L 417.017562 232.983816 
L 419.95374 234.160093 
L 424.458858 235.722868 
L 425.743406 236.112162 
L 425.743406 236.112162 
" clip-path="url(#p77df797bdb)" style="fill: none; stroke: #0000ff; stroke-linecap: square"/>
   </g>
   <g id="line2d_74">
    <path d="M 43.339375 27.654824 
L 44.811323 81.408579 
L 46.310174 127.220809 
L 47.753659 164.088734 
L 49.045648 191.917346 
L 50.307376 215.02403 
L 51.746628 237.14252 
L 53.142605 254.887657 
L 54.379232 267.988214 
L 55.558615 278.497209 
L 56.680753 286.923283 
L 57.954343 294.866071 
L 59.084755 300.656634 
L 60.33843 305.878218 
L 61.264134 309.023176 
L 62.189837 311.635253 
L 63.431647 314.400827 
L 64.673457 316.43075 
L 65.452459 317.37679 
L 66.231461 318.098934 
L 67.083111 318.657589 
L 67.934762 319.000059 
L 68.649627 319.137787 
L 69.364493 319.152382 
L 70.794225 318.858045 
L 72.107899 318.265325 
L 73.491363 317.369911 
L 75.868636 315.334265 
L 77.86348 313.278914 
L 82.256577 308.13644 
L 91.786089 296.565472 
L 94.437456 293.579871 
L 98.221958 289.592987 
L 102.796989 285.223107 
L 107.883592 280.915151 
L 112.744476 277.27213 
L 115.412446 275.438318 
L 121.191027 271.7835 
L 127.664905 268.051511 
L 152.124363 254.508611 
L 159.631072 249.889423 
L 166.69785 245.21138 
L 173.092534 240.704305 
L 179.094112 236.263086 
L 189.068504 228.547544 
L 208.449547 213.349763 
L 216.063854 207.754412 
L 222.604597 203.312217 
L 227.38083 200.343084 
L 231.341261 198.086856 
L 234.705031 196.332601 
L 238.649038 194.480758 
L 243.443578 192.548955 
L 247.560507 191.186909 
L 250.779594 190.321428 
L 254.875523 189.481163 
L 258.004605 189.040005 
L 259.723807 188.872438 
L 264.937838 188.690206 
L 268.212233 188.825738 
L 269.919478 188.972201 
L 274.239106 189.571187 
L 278.243035 190.411723 
L 281.032167 191.153754 
L 285.608559 192.636669 
L 289.809617 194.270944 
L 295.012101 196.624558 
L 301.32018 199.905358 
L 304.329124 201.61044 
L 311.162953 205.746993 
L 319.115628 210.872867 
L 335.473599 221.541853 
L 342.195822 225.613073 
L 348.033587 228.849566 
L 353.133847 231.386453 
L 356.101846 232.7186 
L 361.676112 234.900513 
L 365.890661 236.2495 
L 370.484672 237.40332 
L 374.619067 238.145813 
L 377.561422 238.49826 
L 380.880797 238.717121 
L 385.475599 238.704606 
L 389.436156 238.400024 
L 393.665929 237.778064 
L 398.369708 236.735711 
L 402.193761 235.626496 
L 405.747475 234.395459 
L 409.505906 232.89564 
L 415.574467 230.08153 
L 422.343028 226.448512 
L 425.743406 224.460454 
L 425.743406 224.460454 
" clip-path="url(#p77df797bdb)" style="fill: none; stroke: #ff0000; stroke-linecap: square"/>
   </g>
   <g id="patch_3">
    <path d="M 43.339375 325.269096 
L 43.339375 7.2 
" style="fill: none; stroke: #000000; stroke-width: 0.8; stroke-linejoin: miter; stroke-linecap: square"/>
   </g>
   <g id="patch_4">
    <path d="M 35.691294 213.253554 
L 433.391487 213.253554 
" style="fill: none; stroke: #000000; stroke-width: 0.8; stroke-linejoin: miter; stroke-linecap: square"/>
   </g>
   <g id="legend_1">
    <g id="patch_5">
     <path d="M 388.091487 46.596875 
L 430.391487 46.596875 
L 430.391487 14.2 
L 388.091487 14.2 
z
" style="fill: #4c4c4c; opacity: 0.5; stroke: #4c4c4c; stroke-linejoin: miter"/>
    </g>
    <g id="patch_6">
     <path d="M 386.091487 44.596875 
L 428.391487 44.596875 
L 428.391487 12.2 
L 386.091487 12.2 
z
" style="fill: #ffffff; stroke: #cccccc; stroke-linejoin: miter"/>
    </g>
    <g id="line2d_75">
     <path d="M 395.091487 22.298438 
L 389.591487 22.298438 
" style="fill: none; stroke: #0000ff; stroke-linecap: square"/>
    </g>
    <g id="text_15">
     <!-- $x(t)$ -->
     <g transform="translate(397.591487 25.798438)scale(0.1 -0.1)">
      <defs>
       <path id="Cmmi10-78" d="M 500 184 
Q 613 97 819 97 
Q 1019 97 1172 289 
Q 1325 481 1381 709 
L 1672 1844 
Q 1741 2153 1741 2266 
Q 1741 2425 1652 2544 
Q 1563 2663 1403 2663 
Q 1200 2663 1022 2536 
Q 844 2409 722 2214 
Q 600 2019 550 1819 
Q 538 1778 500 1778 
L 422 1778 
Q 372 1778 372 1838 
L 372 1856 
Q 434 2094 584 2320 
Q 734 2547 951 2687 
Q 1169 2828 1416 2828 
Q 1650 2828 1839 2703 
Q 2028 2578 2106 2363 
Q 2216 2559 2386 2693 
Q 2556 2828 2759 2828 
Q 2897 2828 3040 2779 
Q 3184 2731 3275 2631 
Q 3366 2531 3366 2381 
Q 3366 2219 3261 2101 
Q 3156 1984 2994 1984 
Q 2891 1984 2822 2050 
Q 2753 2116 2753 2216 
Q 2753 2350 2845 2451 
Q 2938 2553 3066 2572 
Q 2950 2663 2747 2663 
Q 2541 2663 2389 2472 
Q 2238 2281 2175 2047 
L 1894 916 
Q 1825 659 1825 494 
Q 1825 331 1917 214 
Q 2009 97 2163 97 
Q 2463 97 2698 361 
Q 2934 625 3009 941 
Q 3022 978 3059 978 
L 3138 978 
Q 3163 978 3178 961 
Q 3194 944 3194 922 
Q 3194 916 3188 903 
Q 3097 522 2806 225 
Q 2516 -72 2150 -72 
Q 1916 -72 1727 54 
Q 1538 181 1459 397 
Q 1359 209 1182 68 
Q 1006 -72 806 -72 
Q 669 -72 523 -23 
Q 378 25 287 125 
Q 197 225 197 378 
Q 197 528 301 651 
Q 406 775 563 775 
Q 669 775 741 711 
Q 813 647 813 544 
Q 813 409 723 309 
Q 634 209 500 184 
z
" transform="scale(0.015625)"/>
       <path id="Cmr10-28" d="M 1984 -1588 
Q 1628 -1306 1370 -942 
Q 1113 -578 948 -165 
Q 784 247 703 697 
Q 622 1147 622 1600 
Q 622 2059 703 2509 
Q 784 2959 951 3375 
Q 1119 3791 1378 4153 
Q 1638 4516 1984 4788 
Q 1984 4800 2016 4800 
L 2075 4800 
Q 2094 4800 2109 4783 
Q 2125 4766 2125 4744 
Q 2125 4716 2113 4703 
Q 1800 4397 1592 4047 
Q 1384 3697 1257 3301 
Q 1131 2906 1075 2482 
Q 1019 2059 1019 1600 
Q 1019 -434 2106 -1491 
Q 2125 -1509 2125 -1544 
Q 2125 -1559 2108 -1579 
Q 2091 -1600 2075 -1600 
L 2016 -1600 
Q 1984 -1600 1984 -1588 
z
" transform="scale(0.015625)"/>
       <path id="Cmr10-29" d="M 416 -1600 
Q 359 -1600 359 -1544 
Q 359 -1516 372 -1503 
Q 1466 -434 1466 1600 
Q 1466 3634 384 4691 
Q 359 4706 359 4744 
Q 359 4766 376 4783 
Q 394 4800 416 4800 
L 475 4800 
Q 494 4800 506 4788 
Q 966 4425 1272 3906 
Q 1578 3388 1720 2800 
Q 1863 2213 1863 1600 
Q 1863 1147 1786 708 
Q 1709 269 1542 -157 
Q 1375 -584 1119 -945 
Q 863 -1306 506 -1588 
Q 494 -1600 475 -1600 
L 416 -1600 
z
" transform="scale(0.015625)"/>
      </defs>
      <use xlink:href="#Cmmi10-78"/>
      <use xlink:href="#Cmr10-28" transform="translate(57.080078 0)"/>
      <use xlink:href="#Cmmi10-74" transform="translate(95.898438 0)"/>
      <use xlink:href="#Cmr10-29" transform="translate(131.982422 0)"/>
     </g>
    </g>
    <g id="line2d_76">
     <path d="M 395.091487 32.596875 
L 389.591487 32.596875 
" style="fill: none; stroke: #ff0000; stroke-linecap: square"/>
    </g>
    <g id="text_16">
     <!-- $dx/dt$ -->
     <g transform="translate(397.591487 36.096875)scale(0.1 -0.1)">
      <defs>
       <path id="Cmmi10-64" d="M 1113 -72 
Q 709 -72 476 233 
Q 244 538 244 953 
Q 244 1363 456 1803 
Q 669 2244 1030 2536 
Q 1391 2828 1806 2828 
Q 1994 2828 2145 2723 
Q 2297 2619 2381 2444 
L 2741 3872 
Q 2766 3981 2772 4044 
Q 2772 4147 2356 4147 
Q 2291 4147 2291 4231 
Q 2294 4247 2305 4287 
Q 2316 4328 2333 4350 
Q 2350 4372 2381 4372 
L 3244 4441 
Q 3322 4441 3322 4359 
L 2400 678 
Q 2356 572 2356 372 
Q 2356 97 2541 97 
Q 2741 97 2845 351 
Q 2950 606 3022 941 
Q 3034 978 3072 978 
L 3150 978 
Q 3175 978 3190 956 
Q 3206 934 3206 916 
Q 3094 469 2961 198 
Q 2828 -72 2528 -72 
Q 2313 -72 2147 54 
Q 1981 181 1941 391 
Q 1528 -72 1113 -72 
z
M 1119 97 
Q 1350 97 1567 270 
Q 1784 444 1941 678 
Q 1947 684 1947 703 
L 2297 2113 
Q 2259 2338 2131 2500 
Q 2003 2663 1791 2663 
Q 1575 2663 1389 2486 
Q 1203 2309 1075 2069 
Q 950 1813 836 1366 
Q 722 919 722 672 
Q 722 450 817 273 
Q 913 97 1119 97 
z
" transform="scale(0.015625)"/>
       <path id="Cmmi10-3d" d="M 359 -1472 
Q 359 -1453 366 -1447 
L 2591 4722 
Q 2603 4759 2634 4779 
Q 2666 4800 2706 4800 
Q 2763 4800 2798 4765 
Q 2834 4731 2834 4672 
L 2834 4647 
L 609 -1522 
Q 572 -1600 488 -1600 
Q 434 -1600 396 -1562 
Q 359 -1525 359 -1472 
z
" transform="scale(0.015625)"/>
      </defs>
      <use xlink:href="#Cmmi10-64"/>
      <use xlink:href="#Cmmi10-78" transform="translate(52.001953 0)"/>
      <use xlink:href="#Cmmi10-3d" transform="translate(109.082031 0)"/>
      <use xlink:href="#Cmmi10-64" transform="translate(159.082031 0)"/>
      <use xlink:href="#Cmmi10-74" transform="translate(211.083984 0)"/>
     </g>
    </g>
   </g>
  </g>
 </g>
 <defs>
  <clipPath id="p77df797bdb">
   <rect x="35.691294" y="7.2" width="397.700192" height="318.069096"/>
  </clipPath>
 </defs>
</svg>
