<?xml version="1.0" encoding="utf-8" standalone="no"?>
<!DOCTYPE svg PUBLIC "-//W3C//DTD SVG 1.1//EN"
  "http://www.w3.org/Graphics/SVG/1.1/DTD/svg11.dtd">
<svg xmlns:xlink="http://www.w3.org/1999/xlink" width="455.004702pt" height="343.332646pt" viewBox="0 0 455.004702 343.332646" xmlns="http://www.w3.org/2000/svg" version="1.1">
 <metadata>
  <rdf:RDF xmlns:dc="http://purl.org/dc/elements/1.1/" xmlns:cc="http://creativecommons.org/ns#" xmlns:rdf="http://www.w3.org/1999/02/22-rdf-syntax-ns#">
   <cc:Work>
    <dc:type rdf:resource="http://purl.org/dc/dcmitype/StillImage"/>
    <dc:date>2022-07-30T11:11:20.044305</dc:date>
    <dc:format>image/svg+xml</dc:format>
    <dc:creator>
     <cc:Agent>
      <dc:title>Matplotlib v3.5.1, https://matplotlib.org/</dc:title>
     </cc:Agent>
    </dc:creator>
   </cc:Work>
  </rdf:RDF>
 </metadata>
 <defs>
  <style type="text/css">*{stroke-linejoin: round; stroke-linecap: butt}</style>
 </defs>
 <g id="figure_1">
  <g id="patch_1">
   <path d="M 0 343.332646 
L 455.004702 343.332646 
L 455.004702 0 
L 0 0 
z
" style="fill: #ffffff"/>
  </g>
  <g id="axes_1">
   <g id="patch_2">
    <path d="M 29.748143 336.117538 
L 433.884702 336.117538 
L 433.884702 31.2 
L 29.748143 31.2 
z
" style="fill: #ffffff"/>
   </g>
   <g id="matplotlib.axis_1">
    <g id="xtick_1">
     <g id="line2d_1">
      <defs>
       <path id="mb0a4d517be" d="M 0 0 
L 0 3.5 
" style="stroke: #000000; stroke-width: 0.8"/>
      </defs>
      <g>
       <use xlink:href="#mb0a4d517be" x="37.52" y="183.658769" style="stroke: #000000; stroke-width: 0.8"/>
      </g>
     </g>
    </g>
    <g id="xtick_2">
     <g id="line2d_2">
      <g>
       <use xlink:href="#mb0a4d517be" x="115.238569" y="183.658769" style="stroke: #000000; stroke-width: 0.8"/>
      </g>
     </g>
     <g id="text_1">
      <!-- 1 -->
      <g transform="translate(112.057319 198.257207)scale(0.1 -0.1)">
       <defs>
        <path id="DejaVuSans-31" d="M 794 531 
L 1825 531 
L 1825 4091 
L 703 3866 
L 703 4441 
L 1819 4666 
L 2450 4666 
L 2450 531 
L 3481 531 
L 3481 0 
L 794 0 
L 794 531 
z
" transform="scale(0.015625)"/>
       </defs>
       <use xlink:href="#DejaVuSans-31"/>
      </g>
     </g>
    </g>
    <g id="xtick_3">
     <g id="line2d_3">
      <g>
       <use xlink:href="#mb0a4d517be" x="192.957138" y="183.658769" style="stroke: #000000; stroke-width: 0.8"/>
      </g>
     </g>
     <g id="text_2">
      <!-- 2 -->
      <g transform="translate(189.775888 198.257207)scale(0.1 -0.1)">
       <defs>
        <path id="DejaVuSans-32" d="M 1228 531 
L 3431 531 
L 3431 0 
L 469 0 
L 469 531 
Q 828 903 1448 1529 
Q 2069 2156 2228 2338 
Q 2531 2678 2651 2914 
Q 2772 3150 2772 3378 
Q 2772 3750 2511 3984 
Q 2250 4219 1831 4219 
Q 1534 4219 1204 4116 
Q 875 4013 500 3803 
L 500 4441 
Q 881 4594 1212 4672 
Q 1544 4750 1819 4750 
Q 2544 4750 2975 4387 
Q 3406 4025 3406 3419 
Q 3406 3131 3298 2873 
Q 3191 2616 2906 2266 
Q 2828 2175 2409 1742 
Q 1991 1309 1228 531 
z
" transform="scale(0.015625)"/>
       </defs>
       <use xlink:href="#DejaVuSans-32"/>
      </g>
     </g>
    </g>
    <g id="xtick_4">
     <g id="line2d_4">
      <g>
       <use xlink:href="#mb0a4d517be" x="270.675707" y="183.658769" style="stroke: #000000; stroke-width: 0.8"/>
      </g>
     </g>
     <g id="text_3">
      <!-- 3 -->
      <g transform="translate(267.494457 198.257207)scale(0.1 -0.1)">
       <defs>
        <path id="DejaVuSans-33" d="M 2597 2516 
Q 3050 2419 3304 2112 
Q 3559 1806 3559 1356 
Q 3559 666 3084 287 
Q 2609 -91 1734 -91 
Q 1441 -91 1130 -33 
Q 819 25 488 141 
L 488 750 
Q 750 597 1062 519 
Q 1375 441 1716 441 
Q 2309 441 2620 675 
Q 2931 909 2931 1356 
Q 2931 1769 2642 2001 
Q 2353 2234 1838 2234 
L 1294 2234 
L 1294 2753 
L 1863 2753 
Q 2328 2753 2575 2939 
Q 2822 3125 2822 3475 
Q 2822 3834 2567 4026 
Q 2313 4219 1838 4219 
Q 1578 4219 1281 4162 
Q 984 4106 628 3988 
L 628 4550 
Q 988 4650 1302 4700 
Q 1616 4750 1894 4750 
Q 2613 4750 3031 4423 
Q 3450 4097 3450 3541 
Q 3450 3153 3228 2886 
Q 3006 2619 2597 2516 
z
" transform="scale(0.015625)"/>
       </defs>
       <use xlink:href="#DejaVuSans-33"/>
      </g>
     </g>
    </g>
    <g id="xtick_5">
     <g id="line2d_5">
      <g>
       <use xlink:href="#mb0a4d517be" x="348.394276" y="183.658769" style="stroke: #000000; stroke-width: 0.8"/>
      </g>
     </g>
     <g id="text_4">
      <!-- 4 -->
      <g transform="translate(345.213026 198.257207)scale(0.1 -0.1)">
       <defs>
        <path id="DejaVuSans-34" d="M 2419 4116 
L 825 1625 
L 2419 1625 
L 2419 4116 
z
M 2253 4666 
L 3047 4666 
L 3047 1625 
L 3713 1625 
L 3713 1100 
L 3047 1100 
L 3047 0 
L 2419 0 
L 2419 1100 
L 313 1100 
L 313 1709 
L 2253 4666 
z
" transform="scale(0.015625)"/>
       </defs>
       <use xlink:href="#DejaVuSans-34"/>
      </g>
     </g>
    </g>
    <g id="xtick_6">
     <g id="line2d_6">
      <g>
       <use xlink:href="#mb0a4d517be" x="426.112845" y="183.658769" style="stroke: #000000; stroke-width: 0.8"/>
      </g>
     </g>
     <g id="text_5">
      <!-- 5 -->
      <g transform="translate(422.931595 198.257207)scale(0.1 -0.1)">
       <defs>
        <path id="DejaVuSans-35" d="M 691 4666 
L 3169 4666 
L 3169 4134 
L 1269 4134 
L 1269 2991 
Q 1406 3038 1543 3061 
Q 1681 3084 1819 3084 
Q 2600 3084 3056 2656 
Q 3513 2228 3513 1497 
Q 3513 744 3044 326 
Q 2575 -91 1722 -91 
Q 1428 -91 1123 -41 
Q 819 9 494 109 
L 494 744 
Q 775 591 1075 516 
Q 1375 441 1709 441 
Q 2250 441 2565 725 
Q 2881 1009 2881 1497 
Q 2881 1984 2565 2268 
Q 2250 2553 1709 2553 
Q 1456 2553 1204 2497 
Q 953 2441 691 2322 
L 691 4666 
z
" transform="scale(0.015625)"/>
       </defs>
       <use xlink:href="#DejaVuSans-35"/>
      </g>
     </g>
    </g>
    <g id="xtick_7">
     <g id="line2d_7">
      <defs>
       <path id="m519692b505" d="M 0 0 
L 0 2 
" style="stroke: #000000; stroke-width: 0.6"/>
      </defs>
      <g>
       <use xlink:href="#m519692b505" x="53.063714" y="183.658769" style="stroke: #000000; stroke-width: 0.6"/>
      </g>
     </g>
    </g>
    <g id="xtick_8">
     <g id="line2d_8">
      <g>
       <use xlink:href="#m519692b505" x="68.607428" y="183.658769" style="stroke: #000000; stroke-width: 0.6"/>
      </g>
     </g>
    </g>
    <g id="xtick_9">
     <g id="line2d_9">
      <g>
       <use xlink:href="#m519692b505" x="84.151141" y="183.658769" style="stroke: #000000; stroke-width: 0.6"/>
      </g>
     </g>
    </g>
    <g id="xtick_10">
     <g id="line2d_10">
      <g>
       <use xlink:href="#m519692b505" x="99.694855" y="183.658769" style="stroke: #000000; stroke-width: 0.6"/>
      </g>
     </g>
    </g>
    <g id="xtick_11">
     <g id="line2d_11">
      <g>
       <use xlink:href="#m519692b505" x="130.782283" y="183.658769" style="stroke: #000000; stroke-width: 0.6"/>
      </g>
     </g>
    </g>
    <g id="xtick_12">
     <g id="line2d_12">
      <g>
       <use xlink:href="#m519692b505" x="146.325997" y="183.658769" style="stroke: #000000; stroke-width: 0.6"/>
      </g>
     </g>
    </g>
    <g id="xtick_13">
     <g id="line2d_13">
      <g>
       <use xlink:href="#m519692b505" x="161.86971" y="183.658769" style="stroke: #000000; stroke-width: 0.6"/>
      </g>
     </g>
    </g>
    <g id="xtick_14">
     <g id="line2d_14">
      <g>
       <use xlink:href="#m519692b505" x="177.413424" y="183.658769" style="stroke: #000000; stroke-width: 0.6"/>
      </g>
     </g>
    </g>
    <g id="xtick_15">
     <g id="line2d_15">
      <g>
       <use xlink:href="#m519692b505" x="208.500852" y="183.658769" style="stroke: #000000; stroke-width: 0.6"/>
      </g>
     </g>
    </g>
    <g id="xtick_16">
     <g id="line2d_16">
      <g>
       <use xlink:href="#m519692b505" x="224.044565" y="183.658769" style="stroke: #000000; stroke-width: 0.6"/>
      </g>
     </g>
    </g>
    <g id="xtick_17">
     <g id="line2d_17">
      <g>
       <use xlink:href="#m519692b505" x="239.588279" y="183.658769" style="stroke: #000000; stroke-width: 0.6"/>
      </g>
     </g>
    </g>
    <g id="xtick_18">
     <g id="line2d_18">
      <g>
       <use xlink:href="#m519692b505" x="255.131993" y="183.658769" style="stroke: #000000; stroke-width: 0.6"/>
      </g>
     </g>
    </g>
    <g id="xtick_19">
     <g id="line2d_19">
      <g>
       <use xlink:href="#m519692b505" x="286.219421" y="183.658769" style="stroke: #000000; stroke-width: 0.6"/>
      </g>
     </g>
    </g>
    <g id="xtick_20">
     <g id="line2d_20">
      <g>
       <use xlink:href="#m519692b505" x="301.763134" y="183.658769" style="stroke: #000000; stroke-width: 0.6"/>
      </g>
     </g>
    </g>
    <g id="xtick_21">
     <g id="line2d_21">
      <g>
       <use xlink:href="#m519692b505" x="317.306848" y="183.658769" style="stroke: #000000; stroke-width: 0.6"/>
      </g>
     </g>
    </g>
    <g id="xtick_22">
     <g id="line2d_22">
      <g>
       <use xlink:href="#m519692b505" x="332.850562" y="183.658769" style="stroke: #000000; stroke-width: 0.6"/>
      </g>
     </g>
    </g>
    <g id="xtick_23">
     <g id="line2d_23">
      <g>
       <use xlink:href="#m519692b505" x="363.93799" y="183.658769" style="stroke: #000000; stroke-width: 0.6"/>
      </g>
     </g>
    </g>
    <g id="xtick_24">
     <g id="line2d_24">
      <g>
       <use xlink:href="#m519692b505" x="379.481703" y="183.658769" style="stroke: #000000; stroke-width: 0.6"/>
      </g>
     </g>
    </g>
    <g id="xtick_25">
     <g id="line2d_25">
      <g>
       <use xlink:href="#m519692b505" x="395.025417" y="183.658769" style="stroke: #000000; stroke-width: 0.6"/>
      </g>
     </g>
    </g>
    <g id="xtick_26">
     <g id="line2d_26">
      <g>
       <use xlink:href="#m519692b505" x="410.569131" y="183.658769" style="stroke: #000000; stroke-width: 0.6"/>
      </g>
     </g>
    </g>
    <g id="text_6">
     <!-- $t$ -->
     <g transform="translate(441.884702 183.658769)scale(0.16 -0.16)">
      <defs>
       <path id="Cmmi10-74" d="M 397 519 
Q 397 613 416 697 
L 878 2534 
L 206 2534 
Q 141 2534 141 2619 
Q 166 2759 225 2759 
L 934 2759 
L 1191 3803 
Q 1216 3888 1291 3947 
Q 1366 4006 1459 4006 
Q 1541 4006 1595 3957 
Q 1650 3909 1650 3828 
Q 1650 3809 1648 3798 
Q 1647 3788 1644 3775 
L 1388 2759 
L 2047 2759 
Q 2113 2759 2113 2675 
Q 2109 2659 2100 2621 
Q 2091 2584 2075 2559 
Q 2059 2534 2028 2534 
L 1331 2534 
L 872 684 
Q 825 503 825 372 
Q 825 97 1013 97 
Q 1294 97 1511 361 
Q 1728 625 1844 941 
Q 1869 978 1894 978 
L 1972 978 
Q 1997 978 2012 961 
Q 2028 944 2028 922 
Q 2028 909 2022 903 
Q 1881 516 1612 222 
Q 1344 -72 997 -72 
Q 744 -72 570 93 
Q 397 259 397 519 
z
" transform="scale(0.015625)"/>
      </defs>
      <use xlink:href="#Cmmi10-74" transform="translate(0 0.40625)"/>
     </g>
    </g>
   </g>
   <g id="matplotlib.axis_2">
    <g id="ytick_1">
     <g id="line2d_27">
      <defs>
       <path id="m184823aedc" d="M 0 0 
L -3.5 0 
" style="stroke: #000000; stroke-width: 0.8"/>
      </defs>
      <g>
       <use xlink:href="#m184823aedc" x="37.52" y="330.25374" style="stroke: #000000; stroke-width: 0.8"/>
      </g>
     </g>
     <g id="text_7">
      <!-- −6 -->
      <g transform="translate(15.777813 334.052958)scale(0.1 -0.1)">
       <defs>
        <path id="DejaVuSans-2212" d="M 678 2272 
L 4684 2272 
L 4684 1741 
L 678 1741 
L 678 2272 
z
" transform="scale(0.015625)"/>
        <path id="DejaVuSans-36" d="M 2113 2584 
Q 1688 2584 1439 2293 
Q 1191 2003 1191 1497 
Q 1191 994 1439 701 
Q 1688 409 2113 409 
Q 2538 409 2786 701 
Q 3034 994 3034 1497 
Q 3034 2003 2786 2293 
Q 2538 2584 2113 2584 
z
M 3366 4563 
L 3366 3988 
Q 3128 4100 2886 4159 
Q 2644 4219 2406 4219 
Q 1781 4219 1451 3797 
Q 1122 3375 1075 2522 
Q 1259 2794 1537 2939 
Q 1816 3084 2150 3084 
Q 2853 3084 3261 2657 
Q 3669 2231 3669 1497 
Q 3669 778 3244 343 
Q 2819 -91 2113 -91 
Q 1303 -91 875 529 
Q 447 1150 447 2328 
Q 447 3434 972 4092 
Q 1497 4750 2381 4750 
Q 2619 4750 2861 4703 
Q 3103 4656 3366 4563 
z
" transform="scale(0.015625)"/>
       </defs>
       <use xlink:href="#DejaVuSans-2212"/>
       <use xlink:href="#DejaVuSans-36" x="83.789062"/>
      </g>
     </g>
    </g>
    <g id="ytick_2">
     <g id="line2d_28">
      <g>
       <use xlink:href="#m184823aedc" x="37.52" y="281.38875" style="stroke: #000000; stroke-width: 0.8"/>
      </g>
     </g>
     <g id="text_8">
      <!-- −4 -->
      <g transform="translate(15.777813 285.187968)scale(0.1 -0.1)">
       <use xlink:href="#DejaVuSans-2212"/>
       <use xlink:href="#DejaVuSans-34" x="83.789062"/>
      </g>
     </g>
    </g>
    <g id="ytick_3">
     <g id="line2d_29">
      <g>
       <use xlink:href="#m184823aedc" x="37.52" y="232.523759" style="stroke: #000000; stroke-width: 0.8"/>
      </g>
     </g>
     <g id="text_9">
      <!-- −2 -->
      <g transform="translate(15.777813 236.322978)scale(0.1 -0.1)">
       <use xlink:href="#DejaVuSans-2212"/>
       <use xlink:href="#DejaVuSans-32" x="83.789062"/>
      </g>
     </g>
    </g>
    <g id="ytick_4">
     <g id="line2d_30">
      <g>
       <use xlink:href="#m184823aedc" x="37.52" y="183.658769" style="stroke: #000000; stroke-width: 0.8"/>
      </g>
     </g>
    </g>
    <g id="ytick_5">
     <g id="line2d_31">
      <g>
       <use xlink:href="#m184823aedc" x="37.52" y="134.793779" style="stroke: #000000; stroke-width: 0.8"/>
      </g>
     </g>
     <g id="text_10">
      <!-- 2 -->
      <g transform="translate(24.1575 138.592998)scale(0.1 -0.1)">
       <use xlink:href="#DejaVuSans-32"/>
      </g>
     </g>
    </g>
    <g id="ytick_6">
     <g id="line2d_32">
      <g>
       <use xlink:href="#m184823aedc" x="37.52" y="85.928789" style="stroke: #000000; stroke-width: 0.8"/>
      </g>
     </g>
     <g id="text_11">
      <!-- 4 -->
      <g transform="translate(24.1575 89.728008)scale(0.1 -0.1)">
       <use xlink:href="#DejaVuSans-34"/>
      </g>
     </g>
    </g>
    <g id="ytick_7">
     <g id="line2d_33">
      <g>
       <use xlink:href="#m184823aedc" x="37.52" y="37.063799" style="stroke: #000000; stroke-width: 0.8"/>
      </g>
     </g>
     <g id="text_12">
      <!-- 6 -->
      <g transform="translate(24.1575 40.863018)scale(0.1 -0.1)">
       <use xlink:href="#DejaVuSans-36"/>
      </g>
     </g>
    </g>
    <g id="ytick_8">
     <g id="line2d_34">
      <defs>
       <path id="m35039770ef" d="M 0 0 
L -2 0 
" style="stroke: #000000; stroke-width: 0.6"/>
      </defs>
      <g>
       <use xlink:href="#m35039770ef" x="37.52" y="318.037492" style="stroke: #000000; stroke-width: 0.6"/>
      </g>
     </g>
    </g>
    <g id="ytick_9">
     <g id="line2d_35">
      <g>
       <use xlink:href="#m35039770ef" x="37.52" y="305.821245" style="stroke: #000000; stroke-width: 0.6"/>
      </g>
     </g>
    </g>
    <g id="ytick_10">
     <g id="line2d_36">
      <g>
       <use xlink:href="#m35039770ef" x="37.52" y="293.604997" style="stroke: #000000; stroke-width: 0.6"/>
      </g>
     </g>
    </g>
    <g id="ytick_11">
     <g id="line2d_37">
      <g>
       <use xlink:href="#m35039770ef" x="37.52" y="269.172502" style="stroke: #000000; stroke-width: 0.6"/>
      </g>
     </g>
    </g>
    <g id="ytick_12">
     <g id="line2d_38">
      <g>
       <use xlink:href="#m35039770ef" x="37.52" y="256.956254" style="stroke: #000000; stroke-width: 0.6"/>
      </g>
     </g>
    </g>
    <g id="ytick_13">
     <g id="line2d_39">
      <g>
       <use xlink:href="#m35039770ef" x="37.52" y="244.740007" style="stroke: #000000; stroke-width: 0.6"/>
      </g>
     </g>
    </g>
    <g id="ytick_14">
     <g id="line2d_40">
      <g>
       <use xlink:href="#m35039770ef" x="37.52" y="220.307512" style="stroke: #000000; stroke-width: 0.6"/>
      </g>
     </g>
    </g>
    <g id="ytick_15">
     <g id="line2d_41">
      <g>
       <use xlink:href="#m35039770ef" x="37.52" y="208.091264" style="stroke: #000000; stroke-width: 0.6"/>
      </g>
     </g>
    </g>
    <g id="ytick_16">
     <g id="line2d_42">
      <g>
       <use xlink:href="#m35039770ef" x="37.52" y="195.875017" style="stroke: #000000; stroke-width: 0.6"/>
      </g>
     </g>
    </g>
    <g id="ytick_17">
     <g id="line2d_43">
      <g>
       <use xlink:href="#m35039770ef" x="37.52" y="171.442522" style="stroke: #000000; stroke-width: 0.6"/>
      </g>
     </g>
    </g>
    <g id="ytick_18">
     <g id="line2d_44">
      <g>
       <use xlink:href="#m35039770ef" x="37.52" y="159.226274" style="stroke: #000000; stroke-width: 0.6"/>
      </g>
     </g>
    </g>
    <g id="ytick_19">
     <g id="line2d_45">
      <g>
       <use xlink:href="#m35039770ef" x="37.52" y="147.010027" style="stroke: #000000; stroke-width: 0.6"/>
      </g>
     </g>
    </g>
    <g id="ytick_20">
     <g id="line2d_46">
      <g>
       <use xlink:href="#m35039770ef" x="37.52" y="122.577532" style="stroke: #000000; stroke-width: 0.6"/>
      </g>
     </g>
    </g>
    <g id="ytick_21">
     <g id="line2d_47">
      <g>
       <use xlink:href="#m35039770ef" x="37.52" y="110.361284" style="stroke: #000000; stroke-width: 0.6"/>
      </g>
     </g>
    </g>
    <g id="ytick_22">
     <g id="line2d_48">
      <g>
       <use xlink:href="#m35039770ef" x="37.52" y="98.145036" style="stroke: #000000; stroke-width: 0.6"/>
      </g>
     </g>
    </g>
    <g id="ytick_23">
     <g id="line2d_49">
      <g>
       <use xlink:href="#m35039770ef" x="37.52" y="73.712541" style="stroke: #000000; stroke-width: 0.6"/>
      </g>
     </g>
    </g>
    <g id="ytick_24">
     <g id="line2d_50">
      <g>
       <use xlink:href="#m35039770ef" x="37.52" y="61.496294" style="stroke: #000000; stroke-width: 0.6"/>
      </g>
     </g>
    </g>
    <g id="ytick_25">
     <g id="line2d_51">
      <g>
       <use xlink:href="#m35039770ef" x="37.52" y="49.280046" style="stroke: #000000; stroke-width: 0.6"/>
      </g>
     </g>
    </g>
    <g id="text_13">
     <!-- $x(t), v(t)$ -->
     <g transform="translate(7.2 19.2)scale(0.16 -0.16)">
      <defs>
       <path id="Cmmi10-78" d="M 500 184 
Q 613 97 819 97 
Q 1019 97 1172 289 
Q 1325 481 1381 709 
L 1672 1844 
Q 1741 2153 1741 2266 
Q 1741 2425 1652 2544 
Q 1563 2663 1403 2663 
Q 1200 2663 1022 2536 
Q 844 2409 722 2214 
Q 600 2019 550 1819 
Q 538 1778 500 1778 
L 422 1778 
Q 372 1778 372 1838 
L 372 1856 
Q 434 2094 584 2320 
Q 734 2547 951 2687 
Q 1169 2828 1416 2828 
Q 1650 2828 1839 2703 
Q 2028 2578 2106 2363 
Q 2216 2559 2386 2693 
Q 2556 2828 2759 2828 
Q 2897 2828 3040 2779 
Q 3184 2731 3275 2631 
Q 3366 2531 3366 2381 
Q 3366 2219 3261 2101 
Q 3156 1984 2994 1984 
Q 2891 1984 2822 2050 
Q 2753 2116 2753 2216 
Q 2753 2350 2845 2451 
Q 2938 2553 3066 2572 
Q 2950 2663 2747 2663 
Q 2541 2663 2389 2472 
Q 2238 2281 2175 2047 
L 1894 916 
Q 1825 659 1825 494 
Q 1825 331 1917 214 
Q 2009 97 2163 97 
Q 2463 97 2698 361 
Q 2934 625 3009 941 
Q 3022 978 3059 978 
L 3138 978 
Q 3163 978 3178 961 
Q 3194 944 3194 922 
Q 3194 916 3188 903 
Q 3097 522 2806 225 
Q 2516 -72 2150 -72 
Q 1916 -72 1727 54 
Q 1538 181 1459 397 
Q 1359 209 1182 68 
Q 1006 -72 806 -72 
Q 669 -72 523 -23 
Q 378 25 287 125 
Q 197 225 197 378 
Q 197 528 301 651 
Q 406 775 563 775 
Q 669 775 741 711 
Q 813 647 813 544 
Q 813 409 723 309 
Q 634 209 500 184 
z
" transform="scale(0.015625)"/>
       <path id="Cmr10-28" d="M 1984 -1588 
Q 1628 -1306 1370 -942 
Q 1113 -578 948 -165 
Q 784 247 703 697 
Q 622 1147 622 1600 
Q 622 2059 703 2509 
Q 784 2959 951 3375 
Q 1119 3791 1378 4153 
Q 1638 4516 1984 4788 
Q 1984 4800 2016 4800 
L 2075 4800 
Q 2094 4800 2109 4783 
Q 2125 4766 2125 4744 
Q 2125 4716 2113 4703 
Q 1800 4397 1592 4047 
Q 1384 3697 1257 3301 
Q 1131 2906 1075 2482 
Q 1019 2059 1019 1600 
Q 1019 -434 2106 -1491 
Q 2125 -1509 2125 -1544 
Q 2125 -1559 2108 -1579 
Q 2091 -1600 2075 -1600 
L 2016 -1600 
Q 1984 -1600 1984 -1588 
z
" transform="scale(0.015625)"/>
       <path id="Cmr10-29" d="M 416 -1600 
Q 359 -1600 359 -1544 
Q 359 -1516 372 -1503 
Q 1466 -434 1466 1600 
Q 1466 3634 384 4691 
Q 359 4706 359 4744 
Q 359 4766 376 4783 
Q 394 4800 416 4800 
L 475 4800 
Q 494 4800 506 4788 
Q 966 4425 1272 3906 
Q 1578 3388 1720 2800 
Q 1863 2213 1863 1600 
Q 1863 1147 1786 708 
Q 1709 269 1542 -157 
Q 1375 -584 1119 -945 
Q 863 -1306 506 -1588 
Q 494 -1600 475 -1600 
L 416 -1600 
z
" transform="scale(0.015625)"/>
       <path id="Cmmi10-3b" d="M 634 -1153 
Q 634 -1125 659 -1100 
Q 891 -878 1019 -587 
Q 1147 -297 1147 25 
L 1147 103 
Q 1044 0 891 0 
Q 744 0 641 103 
Q 538 206 538 353 
Q 538 503 641 603 
Q 744 703 891 703 
Q 1119 703 1216 492 
Q 1313 281 1313 25 
Q 1313 -331 1170 -651 
Q 1028 -972 769 -1228 
Q 744 -1241 728 -1241 
Q 697 -1241 665 -1212 
Q 634 -1184 634 -1153 
z
" transform="scale(0.015625)"/>
       <path id="Cmmi10-76" d="M 684 722 
Q 684 866 718 1037 
Q 753 1209 787 1320 
Q 822 1431 944 1753 
Q 1066 2075 1069 2088 
Q 1153 2322 1153 2472 
Q 1153 2663 1013 2663 
Q 759 2663 595 2402 
Q 431 2141 353 1819 
Q 341 1778 300 1778 
L 225 1778 
Q 172 1778 172 1838 
L 172 1856 
Q 275 2238 487 2533 
Q 700 2828 1025 2828 
Q 1253 2828 1411 2678 
Q 1569 2528 1569 2297 
Q 1569 2178 1516 2047 
Q 1391 1722 1319 1526 
Q 1247 1331 1186 1089 
Q 1125 847 1125 641 
Q 1125 400 1236 248 
Q 1347 97 1581 97 
Q 2025 97 2381 781 
Q 2494 1003 2594 1303 
Q 2694 1603 2694 1791 
Q 2694 1984 2631 2092 
Q 2569 2200 2469 2317 
Q 2369 2434 2369 2503 
Q 2369 2628 2472 2731 
Q 2575 2834 2700 2834 
Q 2853 2834 2920 2693 
Q 2988 2553 2988 2375 
Q 2988 2163 2927 1869 
Q 2866 1575 2758 1259 
Q 2650 944 2559 763 
Q 2138 -72 1575 -72 
Q 1172 -72 928 129 
Q 684 331 684 722 
z
" transform="scale(0.015625)"/>
      </defs>
      <use xlink:href="#Cmmi10-78"/>
      <use xlink:href="#Cmr10-28" transform="translate(57.080078 0)"/>
      <use xlink:href="#Cmmi10-74" transform="translate(95.898438 0)"/>
      <use xlink:href="#Cmr10-29" transform="translate(131.982422 0)"/>
      <use xlink:href="#Cmmi10-3b" transform="translate(170.800781 0)"/>
      <use xlink:href="#Cmmi10-76" transform="translate(216.044922 0)"/>
      <use xlink:href="#Cmr10-28" transform="translate(264.433594 0)"/>
      <use xlink:href="#Cmmi10-74" transform="translate(303.251953 0)"/>
      <use xlink:href="#Cmr10-29" transform="translate(339.335938 0)"/>
     </g>
    </g>
   </g>
   <g id="line2d_52">
    <path d="M 37.52 134.793779 
L 39.598252 134.29829 
L 41.451379 134.124191 
L 43.324926 134.20573 
L 45.053604 134.510321 
L 47.008757 135.118333 
L 48.888425 135.963475 
L 50.758061 137.05309 
L 52.627238 138.384987 
L 54.519838 139.973575 
L 56.939334 142.342542 
L 59.200671 144.882685 
L 61.463365 147.719879 
L 63.892891 151.070664 
L 66.496411 154.97849 
L 69.675707 160.138871 
L 73.672896 167.11882 
L 78.403661 175.873795 
L 90.993624 199.62624 
L 95.485961 207.47806 
L 98.856674 212.912453 
L 101.768007 217.211325 
L 104.601847 220.989656 
L 107.148594 224.005673 
L 109.55896 226.501746 
L 111.629656 228.35084 
L 113.684991 229.904029 
L 115.67327 231.129779 
L 117.788533 232.126841 
L 119.641442 232.73506 
L 120.969845 233.01679 
L 122.554703 233.183126 
L 124.13956 233.16417 
L 125.640869 232.975372 
L 127.811588 232.409903 
L 129.682092 231.648041 
L 131.460675 230.691602 
L 133.318554 229.455965 
L 135.491883 227.712258 
L 137.422771 225.902693 
L 139.908431 223.229438 
L 142.514893 220.035758 
L 144.964959 216.6976 
L 148.033087 212.104721 
L 151.681544 206.130045 
L 155.431895 199.52595 
L 160.807013 189.518299 
L 172.213449 167.993695 
L 176.151422 161.057842 
L 179.905629 154.928768 
L 182.625895 150.857109 
L 185.703073 146.688993 
L 188.213253 143.672291 
L 190.336783 141.412126 
L 192.844071 139.109809 
L 194.805844 137.59821 
L 196.643681 136.421478 
L 198.632887 135.41578 
L 199.939634 134.909542 
L 201.560786 134.45397 
L 203.537903 134.159191 
L 204.974332 134.125729 
L 206.883535 134.316859 
L 208.585049 134.713003 
L 210.5459 135.431148 
L 212.299346 136.307383 
L 214.256272 137.541132 
L 216.154524 138.989285 
L 218.340632 140.953502 
L 220.449554 143.136555 
L 222.69128 145.75099 
L 225.5791 149.534008 
L 228.307103 153.497613 
L 231.028176 157.784056 
L 235.115637 164.743172 
L 239.820769 173.32431 
L 256.705939 204.832211 
L 260.444532 211.052916 
L 263.846014 216.221048 
L 266.777911 220.228925 
L 269.266157 223.265144 
L 271.56363 225.744975 
L 274.032938 228.040968 
L 276.347122 229.82732 
L 278.520137 231.16976 
L 280.359357 232.045252 
L 281.887758 232.587475 
L 283.406734 232.957672 
L 285.558698 233.191893 
L 286.967577 233.160213 
L 288.424305 232.97355 
L 290.467023 232.449465 
L 292.521604 231.616505 
L 294.474253 230.545345 
L 296.38747 229.237533 
L 298.487132 227.5166 
L 300.432022 225.665359 
L 302.96149 222.905392 
L 305.730402 219.456592 
L 308.32437 215.85422 
L 311.123638 211.606064 
L 314.175495 206.604948 
L 317.707047 200.425521 
L 321.970752 192.561467 
L 336.919232 164.534905 
L 340.465873 158.477033 
L 343.162709 154.180318 
L 345.97966 150.03373 
L 348.997198 146.033683 
L 351.508442 143.091419 
L 354.012158 140.537135 
L 356.006748 138.789249 
L 358.22728 137.156502 
L 360.09383 136.04775 
L 362.22859 135.082811 
L 364.046164 134.520877 
L 365.99884 134.186629 
L 367.619291 134.122521 
L 369.343647 134.267081 
L 370.979657 134.606477 
L 372.932129 135.267319 
L 374.685709 136.095173 
L 376.435893 137.13864 
L 378.32256 138.501036 
L 380.504547 140.374694 
L 382.838254 142.717879 
L 385.244893 145.481797 
L 387.92589 148.947307 
L 390.591343 152.761004 
L 393.450704 157.214302 
L 397.126775 163.404382 
L 401.943928 172.111648 
L 410.836123 188.99812 
L 416.763088 200.028744 
L 420.760865 207.020903 
L 424.080879 212.41239 
L 426.112845 215.48486 
L 426.112845 215.48486 
" clip-path="url(#pb96daedbf1)" style="fill: none; stroke: #0000ff; stroke-width: 2; stroke-linecap: square"/>
   </g>
   <g id="line2d_53">
    <path d="M 37.52 159.226274 
L 51.425006 237.62205 
L 55.064198 256.478787 
L 57.962884 270.489215 
L 60.754042 282.955572 
L 63.248267 293.125475 
L 65.252492 300.566915 
L 67.632141 308.490753 
L 69.664442 314.427014 
L 71.525717 319.158852 
L 73.398214 323.213698 
L 74.839088 325.838694 
L 76.293544 328.042459 
L 77.670676 329.709814 
L 78.870667 330.826415 
L 80.109208 331.647782 
L 81.051134 332.046115 
L 81.99306 332.248303 
L 82.755653 332.268122 
L 83.652888 332.126573 
L 84.843824 331.663701 
L 85.957302 330.948024 
L 87.07078 329.96029 
L 88.471101 328.334756 
L 90.029532 326.029057 
L 91.645333 323.094759 
L 93.334104 319.448616 
L 95.04796 315.158655 
L 96.746519 310.339285 
L 98.651138 304.288883 
L 100.496582 297.804439 
L 102.650289 289.507175 
L 105.038731 279.453174 
L 107.456484 268.447446 
L 110.498103 253.566032 
L 114.001638 235.245256 
L 118.251271 211.79189 
L 133.931725 123.761028 
L 137.645148 104.945888 
L 140.503736 91.54278 
L 143.250177 79.718982 
L 145.439073 71.125249 
L 147.891101 62.454638 
L 150.028181 55.780169 
L 151.880018 50.698431 
L 153.474296 46.866595 
L 155.179168 43.342317 
L 156.675777 40.748803 
L 157.862866 39.030391 
L 159.072888 37.591281 
L 160.293919 36.462052 
L 161.6433 35.594496 
L 162.542887 35.239147 
L 163.442475 35.062745 
L 164.350419 35.06637 
L 165.258363 35.252496 
L 166.159546 35.617477 
L 167.327972 36.357281 
L 168.396946 37.296591 
L 169.604968 38.657875 
L 171.085158 40.755267 
L 172.391735 42.994459 
L 173.768469 45.740818 
L 175.414595 49.534997 
L 177.147954 54.115058 
L 178.933942 59.440345 
L 181.052721 66.521039 
L 183.033723 73.850679 
L 185.198161 82.591084 
L 187.735738 93.731436 
L 190.411749 106.411269 
L 193.806436 123.663021 
L 197.457233 143.355665 
L 202.499791 171.785072 
L 212.058189 226.011169 
L 216.496777 249.679012 
L 220.027741 267.15839 
L 222.895306 280.228146 
L 225.559992 291.316877 
L 227.985305 300.423048 
L 229.837528 306.692665 
L 231.751803 312.511367 
L 233.469163 317.133919 
L 235.282901 321.378887 
L 236.966961 324.716603 
L 238.5584 327.323342 
L 239.971615 329.184079 
L 241.294019 330.533222 
L 242.229197 331.256508 
L 243.150602 331.781058 
L 244.072007 332.118251 
L 244.993413 332.267661 
L 246.074489 332.203308 
L 247.262353 331.834388 
L 248.450217 331.153991 
L 249.64108 330.160655 
L 250.965927 328.691963 
L 252.454296 326.589898 
L 253.878012 324.137669 
L 255.43891 320.962019 
L 256.981636 317.333658 
L 258.587536 313.053511 
L 260.491384 307.336747 
L 262.475887 300.66762 
L 264.517796 293.08965 
L 266.970091 283.095059 
L 269.733792 270.769047 
L 272.715317 256.365317 
L 275.88704 239.991442 
L 280.134775 216.787048 
L 287.152496 176.811313 
L 293.854986 139.056675 
L 297.952124 117.285917 
L 301.078057 101.762491 
L 304.12191 87.789323 
L 306.707116 76.952708 
L 308.946761 68.419322 
L 311.247758 60.54919 
L 313.271492 54.427703 
L 315.305604 49.069172 
L 316.951403 45.339182 
L 318.4554 42.418243 
L 320.041964 39.852937 
L 321.319854 38.178385 
L 322.491554 36.953921 
L 323.635439 36.047961 
L 324.695877 35.465085 
L 325.491205 35.19082 
L 326.31825 35.054022 
L 327.447328 35.111769 
L 328.377772 35.371416 
L 329.320389 35.829491 
L 330.263005 36.483258 
L 331.588347 37.731768 
L 332.848064 39.272472 
L 334.21129 41.324198 
L 335.786265 44.184797 
L 337.341492 47.515272 
L 339.016484 51.650459 
L 340.803008 56.668506 
L 342.607441 62.349561 
L 344.639411 69.449732 
L 347.078229 78.894634 
L 349.587717 89.580809 
L 352.341885 102.320203 
L 355.616865 118.651518 
L 359.128562 137.30864 
L 363.687918 162.747785 
L 376.689301 236.10893 
L 380.332789 255.083416 
L 383.479842 270.350311 
L 386.415859 283.445608 
L 388.907394 293.560363 
L 390.980275 301.205155 
L 393.105083 308.260385 
L 394.802868 313.297696 
L 396.599386 318.021445 
L 398.247525 321.787467 
L 399.857761 324.927231 
L 401.272235 327.235499 
L 402.500496 328.892977 
L 403.821891 330.311573 
L 405.162149 331.360733 
L 406.46332 332.001198 
L 407.481419 332.241475 
L 408.357981 332.264534 
L 409.234544 332.117474 
L 410.398385 331.659648 
L 411.444238 330.99342 
L 412.490092 330.0871 
L 413.791844 328.625888 
L 415.298868 326.477486 
L 416.729676 323.990474 
L 418.358427 320.639022 
L 420.110754 316.429279 
L 422.095551 310.928779 
L 423.918197 305.219123 
L 426.112845 297.548767 
L 426.112845 297.548767 
" clip-path="url(#pb96daedbf1)" style="fill: none; stroke: #ff0000; stroke-width: 2; stroke-linecap: square"/>
   </g>
   <g id="patch_3">
    <path d="M 37.52 336.117538 
L 37.52 31.2 
" style="fill: none; stroke: #000000; stroke-width: 0.8; stroke-linejoin: miter; stroke-linecap: square"/>
   </g>
   <g id="patch_4">
    <path d="M 29.748143 183.658769 
L 433.884702 183.658769 
" style="fill: none; stroke: #000000; stroke-width: 0.8; stroke-linejoin: miter; stroke-linecap: square"/>
   </g>
   <g id="legend_1">
    <g id="patch_5">
     <path d="M 396.284702 70.596875 
L 430.884702 70.596875 
L 430.884702 38.2 
L 396.284702 38.2 
z
" style="fill: #4c4c4c; opacity: 0.5; stroke: #4c4c4c; stroke-linejoin: miter"/>
    </g>
    <g id="patch_6">
     <path d="M 394.284702 68.596875 
L 428.884702 68.596875 
L 428.884702 36.2 
L 394.284702 36.2 
z
" style="fill: #ffffff; stroke: #cccccc; stroke-linejoin: miter"/>
    </g>
    <g id="line2d_54">
     <path d="M 403.284702 46.298437 
L 397.784702 46.298437 
" style="fill: none; stroke: #0000ff; stroke-width: 2; stroke-linecap: square"/>
    </g>
    <g id="text_14">
     <!-- $x(t)$ -->
     <g transform="translate(405.784702 49.798437)scale(0.1 -0.1)">
      <use xlink:href="#Cmmi10-78"/>
      <use xlink:href="#Cmr10-28" transform="translate(57.080078 0)"/>
      <use xlink:href="#Cmmi10-74" transform="translate(95.898438 0)"/>
      <use xlink:href="#Cmr10-29" transform="translate(131.982422 0)"/>
     </g>
    </g>
    <g id="line2d_55">
     <path d="M 403.284702 56.596875 
L 397.784702 56.596875 
" style="fill: none; stroke: #ff0000; stroke-width: 2; stroke-linecap: square"/>
    </g>
    <g id="text_15">
     <!-- $v(t)$ -->
     <g transform="translate(405.784702 60.096875)scale(0.1 -0.1)">
      <use xlink:href="#Cmmi10-76"/>
      <use xlink:href="#Cmr10-28" transform="translate(48.388672 0)"/>
      <use xlink:href="#Cmmi10-74" transform="translate(87.207031 0)"/>
      <use xlink:href="#Cmr10-29" transform="translate(123.291016 0)"/>
     </g>
    </g>
   </g>
  </g>
 </g>
 <defs>
  <clipPath id="pb96daedbf1">
   <rect x="29.748143" y="31.2" width="404.136559" height="304.917538"/>
  </clipPath>
 </defs>
</svg>
