<?xml version="1.0" encoding="utf-8" standalone="no"?>
<!DOCTYPE svg PUBLIC "-//W3C//DTD SVG 1.1//EN"
  "http://www.w3.org/Graphics/SVG/1.1/DTD/svg11.dtd">
<svg xmlns:xlink="http://www.w3.org/1999/xlink" width="455.621487pt" height="338.4pt" viewBox="0 0 455.621487 338.4" xmlns="http://www.w3.org/2000/svg" version="1.1">
 <metadata>
  <rdf:RDF xmlns:dc="http://purl.org/dc/elements/1.1/" xmlns:cc="http://creativecommons.org/ns#" xmlns:rdf="http://www.w3.org/1999/02/22-rdf-syntax-ns#">
   <cc:Work>
    <dc:type rdf:resource="http://purl.org/dc/dcmitype/StillImage"/>
    <dc:date>2022-07-30T11:08:51.728123</dc:date>
    <dc:format>image/svg+xml</dc:format>
    <dc:creator>
     <cc:Agent>
      <dc:title>Matplotlib v3.5.1, https://matplotlib.org/</dc:title>
     </cc:Agent>
    </dc:creator>
   </cc:Work>
  </rdf:RDF>
 </metadata>
 <defs>
  <style type="text/css">*{stroke-linejoin: round; stroke-linecap: butt}</style>
 </defs>
 <g id="figure_1">
  <g id="patch_1">
   <path d="M 0 338.4 
L 455.621487 338.4 
L 455.621487 0 
L 0 0 
z
" style="fill: #ffffff"/>
  </g>
  <g id="axes_1">
   <g id="patch_2">
    <path d="M 35.691294 331.2 
L 433.391487 331.2 
L 433.391487 7.2 
L 35.691294 7.2 
z
" style="fill: #ffffff"/>
   </g>
   <g id="matplotlib.axis_1">
    <g id="xtick_1">
     <g id="line2d_1">
      <defs>
       <path id="m2eff10d78b" d="M 0 0 
L 0 3.5 
" style="stroke: #000000; stroke-width: 0.8"/>
      </defs>
      <g>
       <use xlink:href="#m2eff10d78b" x="43.339375" y="211.711634" style="stroke: #000000; stroke-width: 0.8"/>
      </g>
     </g>
    </g>
    <g id="xtick_2">
     <g id="line2d_2">
      <g>
       <use xlink:href="#m2eff10d78b" x="119.820181" y="211.711634" style="stroke: #000000; stroke-width: 0.8"/>
      </g>
     </g>
     <g id="text_1">
      <!-- 2 -->
      <g transform="translate(116.002681 227.829759)scale(0.12 -0.12)">
       <defs>
        <path id="DejaVuSans-32" d="M 1228 531 
L 3431 531 
L 3431 0 
L 469 0 
L 469 531 
Q 828 903 1448 1529 
Q 2069 2156 2228 2338 
Q 2531 2678 2651 2914 
Q 2772 3150 2772 3378 
Q 2772 3750 2511 3984 
Q 2250 4219 1831 4219 
Q 1534 4219 1204 4116 
Q 875 4013 500 3803 
L 500 4441 
Q 881 4594 1212 4672 
Q 1544 4750 1819 4750 
Q 2544 4750 2975 4387 
Q 3406 4025 3406 3419 
Q 3406 3131 3298 2873 
Q 3191 2616 2906 2266 
Q 2828 2175 2409 1742 
Q 1991 1309 1228 531 
z
" transform="scale(0.015625)"/>
       </defs>
       <use xlink:href="#DejaVuSans-32"/>
      </g>
     </g>
    </g>
    <g id="xtick_3">
     <g id="line2d_3">
      <g>
       <use xlink:href="#m2eff10d78b" x="196.300987" y="211.711634" style="stroke: #000000; stroke-width: 0.8"/>
      </g>
     </g>
     <g id="text_2">
      <!-- 4 -->
      <g transform="translate(192.483487 227.829759)scale(0.12 -0.12)">
       <defs>
        <path id="DejaVuSans-34" d="M 2419 4116 
L 825 1625 
L 2419 1625 
L 2419 4116 
z
M 2253 4666 
L 3047 4666 
L 3047 1625 
L 3713 1625 
L 3713 1100 
L 3047 1100 
L 3047 0 
L 2419 0 
L 2419 1100 
L 313 1100 
L 313 1709 
L 2253 4666 
z
" transform="scale(0.015625)"/>
       </defs>
       <use xlink:href="#DejaVuSans-34"/>
      </g>
     </g>
    </g>
    <g id="xtick_4">
     <g id="line2d_4">
      <g>
       <use xlink:href="#m2eff10d78b" x="272.781794" y="211.711634" style="stroke: #000000; stroke-width: 0.8"/>
      </g>
     </g>
     <g id="text_3">
      <!-- 6 -->
      <g transform="translate(268.964294 227.829759)scale(0.12 -0.12)">
       <defs>
        <path id="DejaVuSans-36" d="M 2113 2584 
Q 1688 2584 1439 2293 
Q 1191 2003 1191 1497 
Q 1191 994 1439 701 
Q 1688 409 2113 409 
Q 2538 409 2786 701 
Q 3034 994 3034 1497 
Q 3034 2003 2786 2293 
Q 2538 2584 2113 2584 
z
M 3366 4563 
L 3366 3988 
Q 3128 4100 2886 4159 
Q 2644 4219 2406 4219 
Q 1781 4219 1451 3797 
Q 1122 3375 1075 2522 
Q 1259 2794 1537 2939 
Q 1816 3084 2150 3084 
Q 2853 3084 3261 2657 
Q 3669 2231 3669 1497 
Q 3669 778 3244 343 
Q 2819 -91 2113 -91 
Q 1303 -91 875 529 
Q 447 1150 447 2328 
Q 447 3434 972 4092 
Q 1497 4750 2381 4750 
Q 2619 4750 2861 4703 
Q 3103 4656 3366 4563 
z
" transform="scale(0.015625)"/>
       </defs>
       <use xlink:href="#DejaVuSans-36"/>
      </g>
     </g>
    </g>
    <g id="xtick_5">
     <g id="line2d_5">
      <g>
       <use xlink:href="#m2eff10d78b" x="349.2626" y="211.711634" style="stroke: #000000; stroke-width: 0.8"/>
      </g>
     </g>
     <g id="text_4">
      <!-- 8 -->
      <g transform="translate(345.4451 227.829759)scale(0.12 -0.12)">
       <defs>
        <path id="DejaVuSans-38" d="M 2034 2216 
Q 1584 2216 1326 1975 
Q 1069 1734 1069 1313 
Q 1069 891 1326 650 
Q 1584 409 2034 409 
Q 2484 409 2743 651 
Q 3003 894 3003 1313 
Q 3003 1734 2745 1975 
Q 2488 2216 2034 2216 
z
M 1403 2484 
Q 997 2584 770 2862 
Q 544 3141 544 3541 
Q 544 4100 942 4425 
Q 1341 4750 2034 4750 
Q 2731 4750 3128 4425 
Q 3525 4100 3525 3541 
Q 3525 3141 3298 2862 
Q 3072 2584 2669 2484 
Q 3125 2378 3379 2068 
Q 3634 1759 3634 1313 
Q 3634 634 3220 271 
Q 2806 -91 2034 -91 
Q 1263 -91 848 271 
Q 434 634 434 1313 
Q 434 1759 690 2068 
Q 947 2378 1403 2484 
z
M 1172 3481 
Q 1172 3119 1398 2916 
Q 1625 2713 2034 2713 
Q 2441 2713 2670 2916 
Q 2900 3119 2900 3481 
Q 2900 3844 2670 4047 
Q 2441 4250 2034 4250 
Q 1625 4250 1398 4047 
Q 1172 3844 1172 3481 
z
" transform="scale(0.015625)"/>
       </defs>
       <use xlink:href="#DejaVuSans-38"/>
      </g>
     </g>
    </g>
    <g id="xtick_6">
     <g id="line2d_6">
      <g>
       <use xlink:href="#m2eff10d78b" x="425.743406" y="211.711634" style="stroke: #000000; stroke-width: 0.8"/>
      </g>
     </g>
     <g id="text_5">
      <!-- 10 -->
      <g transform="translate(418.108406 227.829759)scale(0.12 -0.12)">
       <defs>
        <path id="DejaVuSans-31" d="M 794 531 
L 1825 531 
L 1825 4091 
L 703 3866 
L 703 4441 
L 1819 4666 
L 2450 4666 
L 2450 531 
L 3481 531 
L 3481 0 
L 794 0 
L 794 531 
z
" transform="scale(0.015625)"/>
        <path id="DejaVuSans-30" d="M 2034 4250 
Q 1547 4250 1301 3770 
Q 1056 3291 1056 2328 
Q 1056 1369 1301 889 
Q 1547 409 2034 409 
Q 2525 409 2770 889 
Q 3016 1369 3016 2328 
Q 3016 3291 2770 3770 
Q 2525 4250 2034 4250 
z
M 2034 4750 
Q 2819 4750 3233 4129 
Q 3647 3509 3647 2328 
Q 3647 1150 3233 529 
Q 2819 -91 2034 -91 
Q 1250 -91 836 529 
Q 422 1150 422 2328 
Q 422 3509 836 4129 
Q 1250 4750 2034 4750 
z
" transform="scale(0.015625)"/>
       </defs>
       <use xlink:href="#DejaVuSans-31"/>
       <use xlink:href="#DejaVuSans-30" x="63.623047"/>
      </g>
     </g>
    </g>
    <g id="xtick_7">
     <g id="line2d_7">
      <defs>
       <path id="m5c9542d4e0" d="M 0 0 
L 0 2 
" style="stroke: #000000; stroke-width: 0.6"/>
      </defs>
      <g>
       <use xlink:href="#m5c9542d4e0" x="62.459577" y="211.711634" style="stroke: #000000; stroke-width: 0.6"/>
      </g>
     </g>
    </g>
    <g id="xtick_8">
     <g id="line2d_8">
      <g>
       <use xlink:href="#m5c9542d4e0" x="81.579778" y="211.711634" style="stroke: #000000; stroke-width: 0.6"/>
      </g>
     </g>
    </g>
    <g id="xtick_9">
     <g id="line2d_9">
      <g>
       <use xlink:href="#m5c9542d4e0" x="100.69998" y="211.711634" style="stroke: #000000; stroke-width: 0.6"/>
      </g>
     </g>
    </g>
    <g id="xtick_10">
     <g id="line2d_10">
      <g>
       <use xlink:href="#m5c9542d4e0" x="138.940383" y="211.711634" style="stroke: #000000; stroke-width: 0.6"/>
      </g>
     </g>
    </g>
    <g id="xtick_11">
     <g id="line2d_11">
      <g>
       <use xlink:href="#m5c9542d4e0" x="158.060584" y="211.711634" style="stroke: #000000; stroke-width: 0.6"/>
      </g>
     </g>
    </g>
    <g id="xtick_12">
     <g id="line2d_12">
      <g>
       <use xlink:href="#m5c9542d4e0" x="177.180786" y="211.711634" style="stroke: #000000; stroke-width: 0.6"/>
      </g>
     </g>
    </g>
    <g id="xtick_13">
     <g id="line2d_13">
      <g>
       <use xlink:href="#m5c9542d4e0" x="215.421189" y="211.711634" style="stroke: #000000; stroke-width: 0.6"/>
      </g>
     </g>
    </g>
    <g id="xtick_14">
     <g id="line2d_14">
      <g>
       <use xlink:href="#m5c9542d4e0" x="234.541391" y="211.711634" style="stroke: #000000; stroke-width: 0.6"/>
      </g>
     </g>
    </g>
    <g id="xtick_15">
     <g id="line2d_15">
      <g>
       <use xlink:href="#m5c9542d4e0" x="253.661592" y="211.711634" style="stroke: #000000; stroke-width: 0.6"/>
      </g>
     </g>
    </g>
    <g id="xtick_16">
     <g id="line2d_16">
      <g>
       <use xlink:href="#m5c9542d4e0" x="291.901995" y="211.711634" style="stroke: #000000; stroke-width: 0.6"/>
      </g>
     </g>
    </g>
    <g id="xtick_17">
     <g id="line2d_17">
      <g>
       <use xlink:href="#m5c9542d4e0" x="311.022197" y="211.711634" style="stroke: #000000; stroke-width: 0.6"/>
      </g>
     </g>
    </g>
    <g id="xtick_18">
     <g id="line2d_18">
      <g>
       <use xlink:href="#m5c9542d4e0" x="330.142398" y="211.711634" style="stroke: #000000; stroke-width: 0.6"/>
      </g>
     </g>
    </g>
    <g id="xtick_19">
     <g id="line2d_19">
      <g>
       <use xlink:href="#m5c9542d4e0" x="368.382801" y="211.711634" style="stroke: #000000; stroke-width: 0.6"/>
      </g>
     </g>
    </g>
    <g id="xtick_20">
     <g id="line2d_20">
      <g>
       <use xlink:href="#m5c9542d4e0" x="387.503003" y="211.711634" style="stroke: #000000; stroke-width: 0.6"/>
      </g>
     </g>
    </g>
    <g id="xtick_21">
     <g id="line2d_21">
      <g>
       <use xlink:href="#m5c9542d4e0" x="406.623205" y="211.711634" style="stroke: #000000; stroke-width: 0.6"/>
      </g>
     </g>
    </g>
    <g id="text_6">
     <!-- $t$ -->
     <g transform="translate(441.391487 211.711634)scale(0.19 -0.19)">
      <defs>
       <path id="Cmmi10-74" d="M 397 519 
Q 397 613 416 697 
L 878 2534 
L 206 2534 
Q 141 2534 141 2619 
Q 166 2759 225 2759 
L 934 2759 
L 1191 3803 
Q 1216 3888 1291 3947 
Q 1366 4006 1459 4006 
Q 1541 4006 1595 3957 
Q 1650 3909 1650 3828 
Q 1650 3809 1648 3798 
Q 1647 3788 1644 3775 
L 1388 2759 
L 2047 2759 
Q 2113 2759 2113 2675 
Q 2109 2659 2100 2621 
Q 2091 2584 2075 2559 
Q 2059 2534 2028 2534 
L 1331 2534 
L 872 684 
Q 825 503 825 372 
Q 825 97 1013 97 
Q 1294 97 1511 361 
Q 1728 625 1844 941 
Q 1869 978 1894 978 
L 1972 978 
Q 1997 978 2012 961 
Q 2028 944 2028 922 
Q 2028 909 2022 903 
Q 1881 516 1612 222 
Q 1344 -72 997 -72 
Q 744 -72 570 93 
Q 397 259 397 519 
z
" transform="scale(0.015625)"/>
      </defs>
      <use xlink:href="#Cmmi10-74" transform="translate(0 0.40625)"/>
     </g>
    </g>
   </g>
   <g id="matplotlib.axis_2">
    <g id="ytick_1">
     <g id="line2d_22">
      <defs>
       <path id="m0e671786ea" d="M 0 0 
L -3.5 0 
" style="stroke: #000000; stroke-width: 0.8"/>
      </defs>
      <g>
       <use xlink:href="#m0e671786ea" x="43.339375" y="322.609531" style="stroke: #000000; stroke-width: 0.8"/>
      </g>
     </g>
     <g id="text_7">
      <!-- −1.5 -->
      <g transform="translate(7.2 327.168594)scale(0.12 -0.12)">
       <defs>
        <path id="DejaVuSans-2212" d="M 678 2272 
L 4684 2272 
L 4684 1741 
L 678 1741 
L 678 2272 
z
" transform="scale(0.015625)"/>
        <path id="DejaVuSans-2e" d="M 684 794 
L 1344 794 
L 1344 0 
L 684 0 
L 684 794 
z
" transform="scale(0.015625)"/>
        <path id="DejaVuSans-35" d="M 691 4666 
L 3169 4666 
L 3169 4134 
L 1269 4134 
L 1269 2991 
Q 1406 3038 1543 3061 
Q 1681 3084 1819 3084 
Q 2600 3084 3056 2656 
Q 3513 2228 3513 1497 
Q 3513 744 3044 326 
Q 2575 -91 1722 -91 
Q 1428 -91 1123 -41 
Q 819 9 494 109 
L 494 744 
Q 775 591 1075 516 
Q 1375 441 1709 441 
Q 2250 441 2565 725 
Q 2881 1009 2881 1497 
Q 2881 1984 2565 2268 
Q 2250 2553 1709 2553 
Q 1456 2553 1204 2497 
Q 953 2441 691 2322 
L 691 4666 
z
" transform="scale(0.015625)"/>
       </defs>
       <use xlink:href="#DejaVuSans-2212"/>
       <use xlink:href="#DejaVuSans-31" x="83.789062"/>
       <use xlink:href="#DejaVuSans-2e" x="147.412109"/>
       <use xlink:href="#DejaVuSans-35" x="179.199219"/>
      </g>
     </g>
    </g>
    <g id="ytick_2">
     <g id="line2d_23">
      <g>
       <use xlink:href="#m0e671786ea" x="43.339375" y="285.643566" style="stroke: #000000; stroke-width: 0.8"/>
      </g>
     </g>
     <g id="text_8">
      <!-- −1.0 -->
      <g transform="translate(7.2 290.202628)scale(0.12 -0.12)">
       <use xlink:href="#DejaVuSans-2212"/>
       <use xlink:href="#DejaVuSans-31" x="83.789062"/>
       <use xlink:href="#DejaVuSans-2e" x="147.412109"/>
       <use xlink:href="#DejaVuSans-30" x="179.199219"/>
      </g>
     </g>
    </g>
    <g id="ytick_3">
     <g id="line2d_24">
      <g>
       <use xlink:href="#m0e671786ea" x="43.339375" y="248.6776" style="stroke: #000000; stroke-width: 0.8"/>
      </g>
     </g>
     <g id="text_9">
      <!-- −0.5 -->
      <g transform="translate(7.2 253.236663)scale(0.12 -0.12)">
       <use xlink:href="#DejaVuSans-2212"/>
       <use xlink:href="#DejaVuSans-30" x="83.789062"/>
       <use xlink:href="#DejaVuSans-2e" x="147.412109"/>
       <use xlink:href="#DejaVuSans-35" x="179.199219"/>
      </g>
     </g>
    </g>
    <g id="ytick_4">
     <g id="line2d_25">
      <g>
       <use xlink:href="#m0e671786ea" x="43.339375" y="211.711634" style="stroke: #000000; stroke-width: 0.8"/>
      </g>
     </g>
    </g>
    <g id="ytick_5">
     <g id="line2d_26">
      <g>
       <use xlink:href="#m0e671786ea" x="43.339375" y="174.745669" style="stroke: #000000; stroke-width: 0.8"/>
      </g>
     </g>
     <g id="text_10">
      <!-- 0.5 -->
      <g transform="translate(17.255625 179.304731)scale(0.12 -0.12)">
       <use xlink:href="#DejaVuSans-30"/>
       <use xlink:href="#DejaVuSans-2e" x="63.623047"/>
       <use xlink:href="#DejaVuSans-35" x="95.410156"/>
      </g>
     </g>
    </g>
    <g id="ytick_6">
     <g id="line2d_27">
      <g>
       <use xlink:href="#m0e671786ea" x="43.339375" y="137.779703" style="stroke: #000000; stroke-width: 0.8"/>
      </g>
     </g>
     <g id="text_11">
      <!-- 1.0 -->
      <g transform="translate(17.255625 142.338765)scale(0.12 -0.12)">
       <use xlink:href="#DejaVuSans-31"/>
       <use xlink:href="#DejaVuSans-2e" x="63.623047"/>
       <use xlink:href="#DejaVuSans-30" x="95.410156"/>
      </g>
     </g>
    </g>
    <g id="ytick_7">
     <g id="line2d_28">
      <g>
       <use xlink:href="#m0e671786ea" x="43.339375" y="100.813737" style="stroke: #000000; stroke-width: 0.8"/>
      </g>
     </g>
     <g id="text_12">
      <!-- 1.5 -->
      <g transform="translate(17.255625 105.3728)scale(0.12 -0.12)">
       <use xlink:href="#DejaVuSans-31"/>
       <use xlink:href="#DejaVuSans-2e" x="63.623047"/>
       <use xlink:href="#DejaVuSans-35" x="95.410156"/>
      </g>
     </g>
    </g>
    <g id="ytick_8">
     <g id="line2d_29">
      <g>
       <use xlink:href="#m0e671786ea" x="43.339375" y="63.847771" style="stroke: #000000; stroke-width: 0.8"/>
      </g>
     </g>
     <g id="text_13">
      <!-- 2.0 -->
      <g transform="translate(17.255625 68.406834)scale(0.12 -0.12)">
       <use xlink:href="#DejaVuSans-32"/>
       <use xlink:href="#DejaVuSans-2e" x="63.623047"/>
       <use xlink:href="#DejaVuSans-30" x="95.410156"/>
      </g>
     </g>
    </g>
    <g id="ytick_9">
     <g id="line2d_30">
      <g>
       <use xlink:href="#m0e671786ea" x="43.339375" y="26.881806" style="stroke: #000000; stroke-width: 0.8"/>
      </g>
     </g>
     <g id="text_14">
      <!-- 2.5 -->
      <g transform="translate(17.255625 31.440868)scale(0.12 -0.12)">
       <use xlink:href="#DejaVuSans-32"/>
       <use xlink:href="#DejaVuSans-2e" x="63.623047"/>
       <use xlink:href="#DejaVuSans-35" x="95.410156"/>
      </g>
     </g>
    </g>
    <g id="ytick_10">
     <g id="line2d_31">
      <defs>
       <path id="mf392547952" d="M 0 0 
L -2 0 
" style="stroke: #000000; stroke-width: 0.6"/>
      </defs>
      <g>
       <use xlink:href="#mf392547952" x="43.339375" y="330.002725" style="stroke: #000000; stroke-width: 0.6"/>
      </g>
     </g>
    </g>
    <g id="ytick_11">
     <g id="line2d_32">
      <g>
       <use xlink:href="#mf392547952" x="43.339375" y="315.216338" style="stroke: #000000; stroke-width: 0.6"/>
      </g>
     </g>
    </g>
    <g id="ytick_12">
     <g id="line2d_33">
      <g>
       <use xlink:href="#mf392547952" x="43.339375" y="307.823145" style="stroke: #000000; stroke-width: 0.6"/>
      </g>
     </g>
    </g>
    <g id="ytick_13">
     <g id="line2d_34">
      <g>
       <use xlink:href="#mf392547952" x="43.339375" y="300.429952" style="stroke: #000000; stroke-width: 0.6"/>
      </g>
     </g>
    </g>
    <g id="ytick_14">
     <g id="line2d_35">
      <g>
       <use xlink:href="#mf392547952" x="43.339375" y="293.036759" style="stroke: #000000; stroke-width: 0.6"/>
      </g>
     </g>
    </g>
    <g id="ytick_15">
     <g id="line2d_36">
      <g>
       <use xlink:href="#mf392547952" x="43.339375" y="278.250373" style="stroke: #000000; stroke-width: 0.6"/>
      </g>
     </g>
    </g>
    <g id="ytick_16">
     <g id="line2d_37">
      <g>
       <use xlink:href="#mf392547952" x="43.339375" y="270.857179" style="stroke: #000000; stroke-width: 0.6"/>
      </g>
     </g>
    </g>
    <g id="ytick_17">
     <g id="line2d_38">
      <g>
       <use xlink:href="#mf392547952" x="43.339375" y="263.463986" style="stroke: #000000; stroke-width: 0.6"/>
      </g>
     </g>
    </g>
    <g id="ytick_18">
     <g id="line2d_39">
      <g>
       <use xlink:href="#mf392547952" x="43.339375" y="256.070793" style="stroke: #000000; stroke-width: 0.6"/>
      </g>
     </g>
    </g>
    <g id="ytick_19">
     <g id="line2d_40">
      <g>
       <use xlink:href="#mf392547952" x="43.339375" y="241.284407" style="stroke: #000000; stroke-width: 0.6"/>
      </g>
     </g>
    </g>
    <g id="ytick_20">
     <g id="line2d_41">
      <g>
       <use xlink:href="#mf392547952" x="43.339375" y="233.891214" style="stroke: #000000; stroke-width: 0.6"/>
      </g>
     </g>
    </g>
    <g id="ytick_21">
     <g id="line2d_42">
      <g>
       <use xlink:href="#mf392547952" x="43.339375" y="226.498021" style="stroke: #000000; stroke-width: 0.6"/>
      </g>
     </g>
    </g>
    <g id="ytick_22">
     <g id="line2d_43">
      <g>
       <use xlink:href="#mf392547952" x="43.339375" y="219.104827" style="stroke: #000000; stroke-width: 0.6"/>
      </g>
     </g>
    </g>
    <g id="ytick_23">
     <g id="line2d_44">
      <g>
       <use xlink:href="#mf392547952" x="43.339375" y="204.318441" style="stroke: #000000; stroke-width: 0.6"/>
      </g>
     </g>
    </g>
    <g id="ytick_24">
     <g id="line2d_45">
      <g>
       <use xlink:href="#mf392547952" x="43.339375" y="196.925248" style="stroke: #000000; stroke-width: 0.6"/>
      </g>
     </g>
    </g>
    <g id="ytick_25">
     <g id="line2d_46">
      <g>
       <use xlink:href="#mf392547952" x="43.339375" y="189.532055" style="stroke: #000000; stroke-width: 0.6"/>
      </g>
     </g>
    </g>
    <g id="ytick_26">
     <g id="line2d_47">
      <g>
       <use xlink:href="#mf392547952" x="43.339375" y="182.138862" style="stroke: #000000; stroke-width: 0.6"/>
      </g>
     </g>
    </g>
    <g id="ytick_27">
     <g id="line2d_48">
      <g>
       <use xlink:href="#mf392547952" x="43.339375" y="167.352475" style="stroke: #000000; stroke-width: 0.6"/>
      </g>
     </g>
    </g>
    <g id="ytick_28">
     <g id="line2d_49">
      <g>
       <use xlink:href="#mf392547952" x="43.339375" y="159.959282" style="stroke: #000000; stroke-width: 0.6"/>
      </g>
     </g>
    </g>
    <g id="ytick_29">
     <g id="line2d_50">
      <g>
       <use xlink:href="#mf392547952" x="43.339375" y="152.566089" style="stroke: #000000; stroke-width: 0.6"/>
      </g>
     </g>
    </g>
    <g id="ytick_30">
     <g id="line2d_51">
      <g>
       <use xlink:href="#mf392547952" x="43.339375" y="145.172896" style="stroke: #000000; stroke-width: 0.6"/>
      </g>
     </g>
    </g>
    <g id="ytick_31">
     <g id="line2d_52">
      <g>
       <use xlink:href="#mf392547952" x="43.339375" y="130.38651" style="stroke: #000000; stroke-width: 0.6"/>
      </g>
     </g>
    </g>
    <g id="ytick_32">
     <g id="line2d_53">
      <g>
       <use xlink:href="#mf392547952" x="43.339375" y="122.993317" style="stroke: #000000; stroke-width: 0.6"/>
      </g>
     </g>
    </g>
    <g id="ytick_33">
     <g id="line2d_54">
      <g>
       <use xlink:href="#mf392547952" x="43.339375" y="115.600123" style="stroke: #000000; stroke-width: 0.6"/>
      </g>
     </g>
    </g>
    <g id="ytick_34">
     <g id="line2d_55">
      <g>
       <use xlink:href="#mf392547952" x="43.339375" y="108.20693" style="stroke: #000000; stroke-width: 0.6"/>
      </g>
     </g>
    </g>
    <g id="ytick_35">
     <g id="line2d_56">
      <g>
       <use xlink:href="#mf392547952" x="43.339375" y="93.420544" style="stroke: #000000; stroke-width: 0.6"/>
      </g>
     </g>
    </g>
    <g id="ytick_36">
     <g id="line2d_57">
      <g>
       <use xlink:href="#mf392547952" x="43.339375" y="86.027351" style="stroke: #000000; stroke-width: 0.6"/>
      </g>
     </g>
    </g>
    <g id="ytick_37">
     <g id="line2d_58">
      <g>
       <use xlink:href="#mf392547952" x="43.339375" y="78.634158" style="stroke: #000000; stroke-width: 0.6"/>
      </g>
     </g>
    </g>
    <g id="ytick_38">
     <g id="line2d_59">
      <g>
       <use xlink:href="#mf392547952" x="43.339375" y="71.240964" style="stroke: #000000; stroke-width: 0.6"/>
      </g>
     </g>
    </g>
    <g id="ytick_39">
     <g id="line2d_60">
      <g>
       <use xlink:href="#mf392547952" x="43.339375" y="56.454578" style="stroke: #000000; stroke-width: 0.6"/>
      </g>
     </g>
    </g>
    <g id="ytick_40">
     <g id="line2d_61">
      <g>
       <use xlink:href="#mf392547952" x="43.339375" y="49.061385" style="stroke: #000000; stroke-width: 0.6"/>
      </g>
     </g>
    </g>
    <g id="ytick_41">
     <g id="line2d_62">
      <g>
       <use xlink:href="#mf392547952" x="43.339375" y="41.668192" style="stroke: #000000; stroke-width: 0.6"/>
      </g>
     </g>
    </g>
    <g id="ytick_42">
     <g id="line2d_63">
      <g>
       <use xlink:href="#mf392547952" x="43.339375" y="34.274999" style="stroke: #000000; stroke-width: 0.6"/>
      </g>
     </g>
    </g>
    <g id="ytick_43">
     <g id="line2d_64">
      <g>
       <use xlink:href="#mf392547952" x="43.339375" y="19.488612" style="stroke: #000000; stroke-width: 0.6"/>
      </g>
     </g>
    </g>
    <g id="ytick_44">
     <g id="line2d_65">
      <g>
       <use xlink:href="#mf392547952" x="43.339375" y="12.095419" style="stroke: #000000; stroke-width: 0.6"/>
      </g>
     </g>
    </g>
   </g>
   <g id="line2d_66">
    <path d="M 43.339375 174.745669 
L 45.348187 173.134576 
L 46.981806 172.248356 
L 48.7964 171.622845 
L 50.937363 171.272377 
L 52.375417 171.224923 
L 54.508392 171.371963 
L 58.280387 172.091306 
L 61.782648 173.092171 
L 68.311164 175.345245 
L 78.516192 178.961741 
L 86.108399 181.359192 
L 91.154293 182.766066 
L 98.396705 184.526657 
L 106.529057 186.171489 
L 111.896616 187.088242 
L 120.445244 188.312769 
L 127.301157 189.117603 
L 136.586816 190.002753 
L 148.545437 190.86858 
L 161.911342 191.564603 
L 177.477013 192.121005 
L 195.20364 192.531888 
L 219.622956 192.860728 
L 254.414166 193.080524 
L 314.49711 193.197871 
L 425.743406 193.226973 
L 425.743406 193.226973 
" clip-path="url(#p0d9af5c914)" style="fill: none; stroke: #0000ff; stroke-linecap: square"/>
   </g>
   <g id="line2d_67">
    <path d="M 43.339375 174.745669 
L 44.649308 182.967668 
L 45.959242 190.019378 
L 47.341374 196.36045 
L 48.563328 201.150045 
L 50.231995 206.629291 
L 52.019744 211.351133 
L 53.807493 215.091556 
L 54.828594 216.856373 
L 56.355069 219.065566 
L 57.118307 219.999715 
L 58.347853 221.29518 
L 60.080491 222.739078 
L 62.075174 223.943032 
L 64.213724 224.799079 
L 65.810634 225.204349 
L 68.548104 225.540083 
L 70.554143 225.564642 
L 74.440353 225.244564 
L 78.45991 224.590005 
L 85.359781 223.118836 
L 98.306509 220.257218 
L 106.657666 218.671649 
L 114.119208 217.473702 
L 123.433602 216.24636 
L 131.048406 215.43385 
L 141.161368 214.572111 
L 153.411444 213.789246 
L 166.440941 213.18968 
L 182.939066 212.67183 
L 202.641017 212.285245 
L 229.079303 211.998952 
L 267.875492 211.815807 
L 342.606543 211.726393 
L 425.743406 211.713313 
L 425.743406 211.713313 
" clip-path="url(#p0d9af5c914)" style="fill: none; stroke: #ff0000; stroke-linecap: square"/>
   </g>
   <g id="line2d_68">
    <path d="M 43.339375 137.779703 
L 44.437802 135.889854 
L 45.536229 134.429063 
L 46.356824 133.585909 
L 47.17742 132.932689 
L 48.077668 132.413 
L 48.977916 132.078184 
L 49.816844 131.915115 
L 51.425885 131.951125 
L 52.195998 132.109302 
L 53.35623 132.494512 
L 54.516461 133.032935 
L 56.172251 134.020983 
L 58.093426 135.42303 
L 59.839859 136.876405 
L 64.866199 141.623828 
L 77.592347 154.177771 
L 82.16717 158.260205 
L 84.708418 160.382853 
L 89.899028 164.38558 
L 94.043151 167.265499 
L 96.940088 169.119286 
L 102.032489 172.079624 
L 107.706649 174.967223 
L 112.684212 177.181441 
L 117.677657 179.137164 
L 123.537879 181.133588 
L 130.865845 183.239268 
L 137.923194 184.921102 
L 143.344046 186.01844 
L 151.478817 187.399614 
L 158.361527 188.359574 
L 166.583241 189.301443 
L 176.985506 190.236713 
L 189.569305 191.07566 
L 202.67965 191.700558 
L 218.238094 192.21134 
L 237.347656 192.611449 
L 263.629755 192.918236 
L 303.99013 193.120614 
L 378.347027 193.213195 
L 425.743406 193.224176 
L 425.743406 193.224176 
" clip-path="url(#p0d9af5c914)" style="fill: none; stroke: #0000ff; stroke-linecap: square"/>
   </g>
   <g id="line2d_69">
    <path d="M 43.339375 137.779703 
L 44.763869 158.056226 
L 45.9899 172.948616 
L 47.367554 187.23947 
L 48.685805 198.813057 
L 50.148491 209.586534 
L 51.083876 215.480597 
L 52.237585 221.811458 
L 53.827938 229.052529 
L 54.86232 232.958599 
L 56.259515 237.369397 
L 57.496925 240.552114 
L 58.734336 243.147896 
L 60.112426 245.442478 
L 61.490515 247.198437 
L 62.72427 248.379658 
L 64.151724 249.353816 
L 65.719293 250.014376 
L 66.573135 250.220467 
L 68.045215 250.359627 
L 69.289913 250.294034 
L 70.53461 250.087453 
L 72.946474 249.365511 
L 74.223204 248.847661 
L 76.160823 247.927191 
L 80.265319 245.618581 
L 89.406554 239.870304 
L 95.096465 236.409638 
L 100.179773 233.556635 
L 106.045202 230.593144 
L 109.873435 228.851837 
L 115.520376 226.54934 
L 121.224776 224.521344 
L 128.653886 222.277735 
L 134.088729 220.884797 
L 138.837011 219.817224 
L 145.93846 218.446282 
L 153.788111 217.197921 
L 161.486245 216.198164 
L 171.008977 215.209467 
L 179.572284 214.507798 
L 191.432559 213.762213 
L 204.809916 213.156924 
L 222.178422 212.62934 
L 242.243159 212.254672 
L 269.980169 211.974553 
L 312.638423 211.797804 
L 397.132846 211.721091 
L 425.743406 211.71611 
L 425.743406 211.71611 
" clip-path="url(#p0d9af5c914)" style="fill: none; stroke: #ff0000; stroke-linecap: square"/>
   </g>
   <g id="line2d_70">
    <path d="M 43.339375 100.813737 
L 44.23701 98.456391 
L 45.134646 96.557153 
L 46.448697 94.506669 
L 47.105722 93.770856 
L 47.762748 93.208143 
L 48.626606 92.708937 
L 49.821509 92.420517 
L 51.016412 92.53819 
L 51.755286 92.787995 
L 52.49416 93.157752 
L 53.489787 93.82543 
L 55.27965 95.440701 
L 56.073887 96.300785 
L 57.662361 98.234119 
L 59.472778 100.713621 
L 61.70517 104.060151 
L 67.501085 113.484473 
L 73.471351 123.279577 
L 78.276828 130.73691 
L 82.602403 136.969914 
L 86.821083 142.564836 
L 89.520795 145.890685 
L 93.970736 150.948972 
L 98.035821 155.129421 
L 101.421068 158.309807 
L 104.666435 161.118847 
L 109.893872 165.188884 
L 111.845756 166.575527 
L 116.969362 169.902567 
L 121.476405 172.487856 
L 127.281154 175.402912 
L 132.797088 177.794154 
L 136.797602 179.325823 
L 143.1392 181.449091 
L 149.1058 183.150196 
L 154.992582 184.58783 
L 162.174553 186.067182 
L 169.372648 187.295837 
L 178.496347 188.555088 
L 186.817549 189.469007 
L 196.118511 190.280719 
L 207.803715 191.056901 
L 220.613314 191.675077 
L 236.780469 192.21071 
L 256.803428 192.625644 
L 281.54909 192.912942 
L 319.200622 193.110706 
L 388.510735 193.209397 
L 425.743406 193.221379 
L 425.743406 193.221379 
" clip-path="url(#p0d9af5c914)" style="fill: none; stroke: #0000ff; stroke-linecap: square"/>
   </g>
   <g id="line2d_71">
    <path d="M 43.339375 100.813737 
L 44.620619 129.536952 
L 46.023565 156.316202 
L 47.383387 178.242916 
L 48.71446 196.39371 
L 50.115814 212.45099 
L 51.605054 226.573905 
L 52.953741 237.125918 
L 54.31917 245.954149 
L 55.602452 252.7854 
L 56.885734 258.391161 
L 58.184389 262.986144 
L 59.426923 266.505423 
L 60.669458 269.28347 
L 61.825256 271.290334 
L 62.951146 272.779864 
L 64.077036 273.86865 
L 65.20542 274.609324 
L 66.333805 275.044792 
L 67.379961 275.211211 
L 68.840855 275.116532 
L 70.301749 274.701537 
L 71.57335 274.124889 
L 73.164183 273.173309 
L 75.913665 271.07134 
L 79.439332 267.82224 
L 85.19455 261.923625 
L 92.569823 254.348405 
L 96.592359 250.474388 
L 101.376058 246.201498 
L 105.519766 242.815472 
L 109.923502 239.537792 
L 114.906173 236.211087 
L 119.610503 233.416672 
L 124.796452 230.691153 
L 127.298517 229.498101 
L 132.110894 227.406405 
L 135.673288 226.015935 
L 142.070242 223.81829 
L 147.884092 222.113544 
L 153.161857 220.774011 
L 158.394748 219.615822 
L 166.727999 218.068738 
L 174.410915 216.911901 
L 183.390824 215.823642 
L 192.775654 214.928829 
L 202.766338 214.189152 
L 213.873862 213.564614 
L 229.757725 212.934783 
L 246.438764 212.502374 
L 269.75093 212.141446 
L 302.078226 211.896195 
L 354.445535 211.758559 
L 425.743406 211.718907 
L 425.743406 211.718907 
" clip-path="url(#p0d9af5c914)" style="fill: none; stroke: #ff0000; stroke-linecap: square"/>
   </g>
   <g id="line2d_72">
    <path d="M 43.339375 63.847771 
L 44.530481 59.824042 
L 45.332473 57.720771 
L 46.142385 56.038748 
L 46.980071 54.722069 
L 47.845531 53.769178 
L 48.710991 53.18835 
L 49.57645 52.940901 
L 50.476839 52.999484 
L 51.273032 53.291299 
L 52.069224 53.784678 
L 52.865417 54.458881 
L 54.04987 55.756029 
L 55.874227 58.328144 
L 57.605218 61.275735 
L 59.874563 65.684683 
L 63.026969 72.470302 
L 71.183168 91.164466 
L 74.57735 98.758927 
L 78.161775 106.425748 
L 81.639732 113.444418 
L 86.182104 121.932566 
L 89.955537 128.389041 
L 93.787343 134.405715 
L 97.289449 139.449998 
L 99.923369 142.972443 
L 102.558179 146.27525 
L 106.02489 150.303582 
L 109.787752 154.295852 
L 113.520596 157.896298 
L 117.255743 161.170409 
L 120.650706 163.885169 
L 124.645594 166.789041 
L 128.208207 169.136833 
L 133.13648 172.046312 
L 137.376822 174.267652 
L 141.050231 176.003191 
L 145.40982 177.858302 
L 148.689695 179.121217 
L 155.426743 181.399467 
L 160.430672 182.850157 
L 167.138076 184.519692 
L 173.866424 185.924711 
L 181.816397 187.295673 
L 190.30799 188.477096 
L 199.590066 189.501126 
L 209.431491 190.346927 
L 219.857106 191.034587 
L 232.538464 191.653842 
L 247.821932 192.172675 
L 266.678652 192.583741 
L 292.542513 192.900734 
L 331.076315 193.108939 
L 399.417022 193.208607 
L 425.743406 193.218582 
L 425.743406 193.218582 
" clip-path="url(#p0d9af5c914)" style="fill: none; stroke: #0000ff; stroke-linecap: square"/>
   </g>
   <g id="line2d_73">
    <path d="M 43.339375 63.847771 
L 44.821393 108.500657 
L 46.192237 143.277432 
L 47.505185 171.526769 
L 48.804892 195.271738 
L 50.136017 215.82065 
L 51.413887 232.43623 
L 52.691757 246.409932 
L 53.915388 257.637429 
L 55.199333 267.451077 
L 56.367423 274.854337 
L 57.480875 280.729385 
L 58.697883 285.995745 
L 59.88462 290.116045 
L 61.071357 293.364458 
L 62.015196 295.401659 
L 63.164304 297.308324 
L 64.333817 298.68152 
L 65.47115 299.54027 
L 66.039816 299.813309 
L 66.847104 300.039945 
L 67.654393 300.094465 
L 68.461681 299.994018 
L 69.982111 299.438185 
L 70.695253 299.033707 
L 72.116725 297.996613 
L 73.946542 296.287467 
L 76.76085 293.055682 
L 78.937357 290.217148 
L 85.033763 281.541405 
L 91.113356 272.803615 
L 94.930455 267.584921 
L 99.238164 262.061736 
L 103.061315 257.521696 
L 105.922042 254.353252 
L 110.33691 249.842218 
L 113.990499 246.443483 
L 117.525917 243.426791 
L 121.37779 240.424989 
L 125.983023 237.19551 
L 130.944321 234.113166 
L 134.724474 232.013659 
L 139.094506 229.827998 
L 144.980153 227.248893 
L 150.76409 225.070742 
L 156.628409 223.172965 
L 161.646101 221.764315 
L 167.346133 220.372697 
L 175.170785 218.770368 
L 181.449868 217.701604 
L 189.741776 216.534005 
L 199.200319 215.477322 
L 209.710214 214.572424 
L 222.286877 213.770624 
L 235.603486 213.165146 
L 251.447408 212.672096 
L 271.188418 212.284803 
L 296.523301 212.007133 
L 336.927445 211.814362 
L 411.898445 211.726097 
L 425.743406 211.721704 
L 425.743406 211.721704 
" clip-path="url(#p0d9af5c914)" style="fill: none; stroke: #ff0000; stroke-linecap: square"/>
   </g>
   <g id="line2d_74">
    <path d="M 43.339375 26.881806 
L 44.572937 21.707552 
L 45.489327 18.800811 
L 46.499734 16.410901 
L 47.345338 14.997456 
L 47.685738 14.566201 
L 48.36654 13.923047 
L 49.047342 13.552149 
L 49.728143 13.430769 
L 50.585463 13.600404 
L 51.442784 14.093628 
L 52.164193 14.733405 
L 53.582374 16.513354 
L 54.975918 18.83357 
L 56.456604 21.800818 
L 58.01684 25.371372 
L 59.983136 30.36068 
L 61.962426 35.772886 
L 67.32219 51.385811 
L 73.021355 68.066668 
L 77.459874 80.408555 
L 81.579727 91.113387 
L 84.67852 98.635166 
L 87.628653 105.361823 
L 91.635291 113.825593 
L 95.253896 120.8264 
L 98.185988 126.072751 
L 102.465473 133.08666 
L 105.376157 137.448874 
L 108.345927 141.58261 
L 111.573426 145.735859 
L 116.00456 150.907908 
L 118.047647 153.10144 
L 122.084336 157.10985 
L 123.171988 158.120222 
L 127.558315 161.917743 
L 131.991145 165.340262 
L 136.173349 168.226682 
L 138.667537 169.804182 
L 143.7915 172.740126 
L 148.451399 175.089824 
L 152.648868 176.974962 
L 157.467628 178.898982 
L 162.67844 180.724189 
L 168.517573 182.494792 
L 173.288166 183.753644 
L 179.417877 185.15691 
L 185.757587 186.390022 
L 192.331599 187.470152 
L 200.22902 188.544624 
L 209.676604 189.569974 
L 219.546925 190.402291 
L 232.105536 191.193484 
L 245.072104 191.778747 
L 259.85553 192.243632 
L 281.074631 192.663115 
L 308.325924 192.951339 
L 348.619305 193.131967 
L 425.743406 193.215785 
L 425.743406 193.215785 
" clip-path="url(#p0d9af5c914)" style="fill: none; stroke: #0000ff; stroke-linecap: square"/>
   </g>
   <g id="line2d_75">
    <path d="M 43.339375 26.881806 
L 44.714021 79.585968 
L 46.084453 124.118754 
L 47.454884 161.75774 
L 48.805172 193.029894 
L 50.179147 219.747291 
L 51.529398 241.68258 
L 52.977916 261.129282 
L 54.248826 275.196414 
L 55.660664 288.009735 
L 57.036631 298.050725 
L 58.211384 304.979238 
L 59.240783 309.965417 
L 60.604001 315.209388 
L 61.605456 318.197546 
L 62.94073 321.19821 
L 64.075854 322.979942 
L 65.210977 324.151572 
L 66.197612 324.736972 
L 67.184247 324.969231 
L 68.088223 324.908085 
L 69.325741 324.453895 
L 70.423983 323.740677 
L 71.522225 322.778659 
L 72.869274 321.311824 
L 74.216323 319.583295 
L 75.620745 317.556541 
L 78.776464 312.402556 
L 83.148312 304.502501 
L 92.020291 288.183307 
L 94.723911 283.475794 
L 99.105561 276.269068 
L 102.058063 271.734677 
L 105.936268 266.184524 
L 109.514486 261.468206 
L 113.826075 256.281228 
L 117.878401 251.871863 
L 121.534419 248.253742 
L 125.926374 244.322994 
L 129.704456 241.274369 
L 134.84852 237.569705 
L 138.935425 234.956741 
L 144.510918 231.809581 
L 148.290647 229.920853 
L 152.438819 228.050942 
L 157.90877 225.87478 
L 162.988039 224.113989 
L 169.351994 222.213166 
L 175.850806 220.572181 
L 182.001165 219.255945 
L 189.560119 217.902893 
L 196.95535 216.814275 
L 206.327659 215.705158 
L 215.992921 214.81326 
L 225.835296 214.109421 
L 239.256948 213.39967 
L 254.535648 212.843676 
L 272.176184 212.425341 
L 296.355442 212.090877 
L 330.636105 211.866371 
L 390.62891 211.743864 
L 425.743406 211.724501 
L 425.743406 211.724501 
" clip-path="url(#p0d9af5c914)" style="fill: none; stroke: #ff0000; stroke-linecap: square"/>
   </g>
   <g id="patch_3">
    <path d="M 43.339375 331.2 
L 43.339375 7.2 
" style="fill: none; stroke: #000000; stroke-width: 0.8; stroke-linejoin: miter; stroke-linecap: square"/>
   </g>
   <g id="patch_4">
    <path d="M 35.691294 211.711634 
L 433.391487 211.711634 
" style="fill: none; stroke: #000000; stroke-width: 0.8; stroke-linejoin: miter; stroke-linecap: square"/>
   </g>
   <g id="legend_1">
    <g id="patch_5">
     <path d="M 388.091487 46.596875 
L 430.391487 46.596875 
L 430.391487 14.2 
L 388.091487 14.2 
z
" style="fill: #4c4c4c; opacity: 0.5; stroke: #4c4c4c; stroke-linejoin: miter"/>
    </g>
    <g id="patch_6">
     <path d="M 386.091487 44.596875 
L 428.391487 44.596875 
L 428.391487 12.2 
L 386.091487 12.2 
z
" style="fill: #ffffff; stroke: #cccccc; stroke-linejoin: miter"/>
    </g>
    <g id="line2d_76">
     <path d="M 395.091487 22.298438 
L 389.591487 22.298438 
" style="fill: none; stroke: #0000ff; stroke-linecap: square"/>
    </g>
    <g id="text_15">
     <!-- $x(t)$ -->
     <g transform="translate(397.591487 25.798438)scale(0.1 -0.1)">
      <defs>
       <path id="Cmmi10-78" d="M 500 184 
Q 613 97 819 97 
Q 1019 97 1172 289 
Q 1325 481 1381 709 
L 1672 1844 
Q 1741 2153 1741 2266 
Q 1741 2425 1652 2544 
Q 1563 2663 1403 2663 
Q 1200 2663 1022 2536 
Q 844 2409 722 2214 
Q 600 2019 550 1819 
Q 538 1778 500 1778 
L 422 1778 
Q 372 1778 372 1838 
L 372 1856 
Q 434 2094 584 2320 
Q 734 2547 951 2687 
Q 1169 2828 1416 2828 
Q 1650 2828 1839 2703 
Q 2028 2578 2106 2363 
Q 2216 2559 2386 2693 
Q 2556 2828 2759 2828 
Q 2897 2828 3040 2779 
Q 3184 2731 3275 2631 
Q 3366 2531 3366 2381 
Q 3366 2219 3261 2101 
Q 3156 1984 2994 1984 
Q 2891 1984 2822 2050 
Q 2753 2116 2753 2216 
Q 2753 2350 2845 2451 
Q 2938 2553 3066 2572 
Q 2950 2663 2747 2663 
Q 2541 2663 2389 2472 
Q 2238 2281 2175 2047 
L 1894 916 
Q 1825 659 1825 494 
Q 1825 331 1917 214 
Q 2009 97 2163 97 
Q 2463 97 2698 361 
Q 2934 625 3009 941 
Q 3022 978 3059 978 
L 3138 978 
Q 3163 978 3178 961 
Q 3194 944 3194 922 
Q 3194 916 3188 903 
Q 3097 522 2806 225 
Q 2516 -72 2150 -72 
Q 1916 -72 1727 54 
Q 1538 181 1459 397 
Q 1359 209 1182 68 
Q 1006 -72 806 -72 
Q 669 -72 523 -23 
Q 378 25 287 125 
Q 197 225 197 378 
Q 197 528 301 651 
Q 406 775 563 775 
Q 669 775 741 711 
Q 813 647 813 544 
Q 813 409 723 309 
Q 634 209 500 184 
z
" transform="scale(0.015625)"/>
       <path id="Cmr10-28" d="M 1984 -1588 
Q 1628 -1306 1370 -942 
Q 1113 -578 948 -165 
Q 784 247 703 697 
Q 622 1147 622 1600 
Q 622 2059 703 2509 
Q 784 2959 951 3375 
Q 1119 3791 1378 4153 
Q 1638 4516 1984 4788 
Q 1984 4800 2016 4800 
L 2075 4800 
Q 2094 4800 2109 4783 
Q 2125 4766 2125 4744 
Q 2125 4716 2113 4703 
Q 1800 4397 1592 4047 
Q 1384 3697 1257 3301 
Q 1131 2906 1075 2482 
Q 1019 2059 1019 1600 
Q 1019 -434 2106 -1491 
Q 2125 -1509 2125 -1544 
Q 2125 -1559 2108 -1579 
Q 2091 -1600 2075 -1600 
L 2016 -1600 
Q 1984 -1600 1984 -1588 
z
" transform="scale(0.015625)"/>
       <path id="Cmr10-29" d="M 416 -1600 
Q 359 -1600 359 -1544 
Q 359 -1516 372 -1503 
Q 1466 -434 1466 1600 
Q 1466 3634 384 4691 
Q 359 4706 359 4744 
Q 359 4766 376 4783 
Q 394 4800 416 4800 
L 475 4800 
Q 494 4800 506 4788 
Q 966 4425 1272 3906 
Q 1578 3388 1720 2800 
Q 1863 2213 1863 1600 
Q 1863 1147 1786 708 
Q 1709 269 1542 -157 
Q 1375 -584 1119 -945 
Q 863 -1306 506 -1588 
Q 494 -1600 475 -1600 
L 416 -1600 
z
" transform="scale(0.015625)"/>
      </defs>
      <use xlink:href="#Cmmi10-78"/>
      <use xlink:href="#Cmr10-28" transform="translate(57.080078 0)"/>
      <use xlink:href="#Cmmi10-74" transform="translate(95.898438 0)"/>
      <use xlink:href="#Cmr10-29" transform="translate(131.982422 0)"/>
     </g>
    </g>
    <g id="line2d_77">
     <path d="M 395.091487 32.596875 
L 389.591487 32.596875 
" style="fill: none; stroke: #ff0000; stroke-linecap: square"/>
    </g>
    <g id="text_16">
     <!-- $dx/dt$ -->
     <g transform="translate(397.591487 36.096875)scale(0.1 -0.1)">
      <defs>
       <path id="Cmmi10-64" d="M 1113 -72 
Q 709 -72 476 233 
Q 244 538 244 953 
Q 244 1363 456 1803 
Q 669 2244 1030 2536 
Q 1391 2828 1806 2828 
Q 1994 2828 2145 2723 
Q 2297 2619 2381 2444 
L 2741 3872 
Q 2766 3981 2772 4044 
Q 2772 4147 2356 4147 
Q 2291 4147 2291 4231 
Q 2294 4247 2305 4287 
Q 2316 4328 2333 4350 
Q 2350 4372 2381 4372 
L 3244 4441 
Q 3322 4441 3322 4359 
L 2400 678 
Q 2356 572 2356 372 
Q 2356 97 2541 97 
Q 2741 97 2845 351 
Q 2950 606 3022 941 
Q 3034 978 3072 978 
L 3150 978 
Q 3175 978 3190 956 
Q 3206 934 3206 916 
Q 3094 469 2961 198 
Q 2828 -72 2528 -72 
Q 2313 -72 2147 54 
Q 1981 181 1941 391 
Q 1528 -72 1113 -72 
z
M 1119 97 
Q 1350 97 1567 270 
Q 1784 444 1941 678 
Q 1947 684 1947 703 
L 2297 2113 
Q 2259 2338 2131 2500 
Q 2003 2663 1791 2663 
Q 1575 2663 1389 2486 
Q 1203 2309 1075 2069 
Q 950 1813 836 1366 
Q 722 919 722 672 
Q 722 450 817 273 
Q 913 97 1119 97 
z
" transform="scale(0.015625)"/>
       <path id="Cmmi10-3d" d="M 359 -1472 
Q 359 -1453 366 -1447 
L 2591 4722 
Q 2603 4759 2634 4779 
Q 2666 4800 2706 4800 
Q 2763 4800 2798 4765 
Q 2834 4731 2834 4672 
L 2834 4647 
L 609 -1522 
Q 572 -1600 488 -1600 
Q 434 -1600 396 -1562 
Q 359 -1525 359 -1472 
z
" transform="scale(0.015625)"/>
      </defs>
      <use xlink:href="#Cmmi10-64"/>
      <use xlink:href="#Cmmi10-78" transform="translate(52.001953 0)"/>
      <use xlink:href="#Cmmi10-3d" transform="translate(109.082031 0)"/>
      <use xlink:href="#Cmmi10-64" transform="translate(159.082031 0)"/>
      <use xlink:href="#Cmmi10-74" transform="translate(211.083984 0)"/>
     </g>
    </g>
   </g>
  </g>
 </g>
 <defs>
  <clipPath id="p0d9af5c914">
   <rect x="35.691294" y="7.2" width="397.700192" height="324"/>
  </clipPath>
 </defs>
</svg>
