<?xml version="1.0" encoding="utf-8" standalone="no"?>
<!DOCTYPE svg PUBLIC "-//W3C//DTD SVG 1.1//EN"
  "http://www.w3.org/Graphics/SVG/1.1/DTD/svg11.dtd">
<svg xmlns:xlink="http://www.w3.org/1999/xlink" width="454.711823pt" height="338.4pt" viewBox="0 0 454.711823 338.4" xmlns="http://www.w3.org/2000/svg" version="1.1">
 <metadata>
  <rdf:RDF xmlns:dc="http://purl.org/dc/elements/1.1/" xmlns:cc="http://creativecommons.org/ns#" xmlns:rdf="http://www.w3.org/1999/02/22-rdf-syntax-ns#">
   <cc:Work>
    <dc:type rdf:resource="http://purl.org/dc/dcmitype/StillImage"/>
    <dc:date>2022-07-30T11:11:36.808523</dc:date>
    <dc:format>image/svg+xml</dc:format>
    <dc:creator>
     <cc:Agent>
      <dc:title>Matplotlib v3.5.1, https://matplotlib.org/</dc:title>
     </cc:Agent>
    </dc:creator>
   </cc:Work>
  </rdf:RDF>
 </metadata>
 <defs>
  <style type="text/css">*{stroke-linejoin: round; stroke-linecap: butt}</style>
 </defs>
 <g id="figure_1">
  <g id="patch_1">
   <path d="M 0 338.4 
L 454.711823 338.4 
L 454.711823 0 
L 0 0 
z
" style="fill: #ffffff"/>
  </g>
  <g id="axes_1">
   <g id="patch_2">
    <path d="M 21.007881 331.2 
L 433.591823 331.2 
L 433.591823 7.2 
L 21.007881 7.2 
z
" style="fill: #ffffff"/>
   </g>
   <g id="matplotlib.axis_1">
    <g id="xtick_1">
     <g id="line2d_1">
      <defs>
       <path id="m7061aed65f" d="M 0 0 
L 0 3.5 
" style="stroke: #000000; stroke-width: 0.8"/>
      </defs>
      <g>
       <use xlink:href="#m7061aed65f" x="28.942187" y="213.645886" style="stroke: #000000; stroke-width: 0.8"/>
      </g>
     </g>
    </g>
    <g id="xtick_2">
     <g id="line2d_2">
      <g>
       <use xlink:href="#m7061aed65f" x="108.285253" y="213.645886" style="stroke: #000000; stroke-width: 0.8"/>
      </g>
     </g>
     <g id="text_1">
      <!-- 10 -->
      <g transform="translate(101.922753 228.244323)scale(0.1 -0.1)">
       <defs>
        <path id="DejaVuSans-31" d="M 794 531 
L 1825 531 
L 1825 4091 
L 703 3866 
L 703 4441 
L 1819 4666 
L 2450 4666 
L 2450 531 
L 3481 531 
L 3481 0 
L 794 0 
L 794 531 
z
" transform="scale(0.015625)"/>
        <path id="DejaVuSans-30" d="M 2034 4250 
Q 1547 4250 1301 3770 
Q 1056 3291 1056 2328 
Q 1056 1369 1301 889 
Q 1547 409 2034 409 
Q 2525 409 2770 889 
Q 3016 1369 3016 2328 
Q 3016 3291 2770 3770 
Q 2525 4250 2034 4250 
z
M 2034 4750 
Q 2819 4750 3233 4129 
Q 3647 3509 3647 2328 
Q 3647 1150 3233 529 
Q 2819 -91 2034 -91 
Q 1250 -91 836 529 
Q 422 1150 422 2328 
Q 422 3509 836 4129 
Q 1250 4750 2034 4750 
z
" transform="scale(0.015625)"/>
       </defs>
       <use xlink:href="#DejaVuSans-31"/>
       <use xlink:href="#DejaVuSans-30" x="63.623047"/>
      </g>
     </g>
    </g>
    <g id="xtick_3">
     <g id="line2d_3">
      <g>
       <use xlink:href="#m7061aed65f" x="187.628319" y="213.645886" style="stroke: #000000; stroke-width: 0.8"/>
      </g>
     </g>
     <g id="text_2">
      <!-- 20 -->
      <g transform="translate(181.265819 228.244323)scale(0.1 -0.1)">
       <defs>
        <path id="DejaVuSans-32" d="M 1228 531 
L 3431 531 
L 3431 0 
L 469 0 
L 469 531 
Q 828 903 1448 1529 
Q 2069 2156 2228 2338 
Q 2531 2678 2651 2914 
Q 2772 3150 2772 3378 
Q 2772 3750 2511 3984 
Q 2250 4219 1831 4219 
Q 1534 4219 1204 4116 
Q 875 4013 500 3803 
L 500 4441 
Q 881 4594 1212 4672 
Q 1544 4750 1819 4750 
Q 2544 4750 2975 4387 
Q 3406 4025 3406 3419 
Q 3406 3131 3298 2873 
Q 3191 2616 2906 2266 
Q 2828 2175 2409 1742 
Q 1991 1309 1228 531 
z
" transform="scale(0.015625)"/>
       </defs>
       <use xlink:href="#DejaVuSans-32"/>
       <use xlink:href="#DejaVuSans-30" x="63.623047"/>
      </g>
     </g>
    </g>
    <g id="xtick_4">
     <g id="line2d_4">
      <g>
       <use xlink:href="#m7061aed65f" x="266.971385" y="213.645886" style="stroke: #000000; stroke-width: 0.8"/>
      </g>
     </g>
     <g id="text_3">
      <!-- 30 -->
      <g transform="translate(260.608885 228.244323)scale(0.1 -0.1)">
       <defs>
        <path id="DejaVuSans-33" d="M 2597 2516 
Q 3050 2419 3304 2112 
Q 3559 1806 3559 1356 
Q 3559 666 3084 287 
Q 2609 -91 1734 -91 
Q 1441 -91 1130 -33 
Q 819 25 488 141 
L 488 750 
Q 750 597 1062 519 
Q 1375 441 1716 441 
Q 2309 441 2620 675 
Q 2931 909 2931 1356 
Q 2931 1769 2642 2001 
Q 2353 2234 1838 2234 
L 1294 2234 
L 1294 2753 
L 1863 2753 
Q 2328 2753 2575 2939 
Q 2822 3125 2822 3475 
Q 2822 3834 2567 4026 
Q 2313 4219 1838 4219 
Q 1578 4219 1281 4162 
Q 984 4106 628 3988 
L 628 4550 
Q 988 4650 1302 4700 
Q 1616 4750 1894 4750 
Q 2613 4750 3031 4423 
Q 3450 4097 3450 3541 
Q 3450 3153 3228 2886 
Q 3006 2619 2597 2516 
z
" transform="scale(0.015625)"/>
       </defs>
       <use xlink:href="#DejaVuSans-33"/>
       <use xlink:href="#DejaVuSans-30" x="63.623047"/>
      </g>
     </g>
    </g>
    <g id="xtick_5">
     <g id="line2d_5">
      <g>
       <use xlink:href="#m7061aed65f" x="346.314451" y="213.645886" style="stroke: #000000; stroke-width: 0.8"/>
      </g>
     </g>
     <g id="text_4">
      <!-- 40 -->
      <g transform="translate(339.951951 228.244323)scale(0.1 -0.1)">
       <defs>
        <path id="DejaVuSans-34" d="M 2419 4116 
L 825 1625 
L 2419 1625 
L 2419 4116 
z
M 2253 4666 
L 3047 4666 
L 3047 1625 
L 3713 1625 
L 3713 1100 
L 3047 1100 
L 3047 0 
L 2419 0 
L 2419 1100 
L 313 1100 
L 313 1709 
L 2253 4666 
z
" transform="scale(0.015625)"/>
       </defs>
       <use xlink:href="#DejaVuSans-34"/>
       <use xlink:href="#DejaVuSans-30" x="63.623047"/>
      </g>
     </g>
    </g>
    <g id="xtick_6">
     <g id="line2d_6">
      <g>
       <use xlink:href="#m7061aed65f" x="425.657517" y="213.645886" style="stroke: #000000; stroke-width: 0.8"/>
      </g>
     </g>
     <g id="text_5">
      <!-- 50 -->
      <g transform="translate(419.295017 228.244323)scale(0.1 -0.1)">
       <defs>
        <path id="DejaVuSans-35" d="M 691 4666 
L 3169 4666 
L 3169 4134 
L 1269 4134 
L 1269 2991 
Q 1406 3038 1543 3061 
Q 1681 3084 1819 3084 
Q 2600 3084 3056 2656 
Q 3513 2228 3513 1497 
Q 3513 744 3044 326 
Q 2575 -91 1722 -91 
Q 1428 -91 1123 -41 
Q 819 9 494 109 
L 494 744 
Q 775 591 1075 516 
Q 1375 441 1709 441 
Q 2250 441 2565 725 
Q 2881 1009 2881 1497 
Q 2881 1984 2565 2268 
Q 2250 2553 1709 2553 
Q 1456 2553 1204 2497 
Q 953 2441 691 2322 
L 691 4666 
z
" transform="scale(0.015625)"/>
       </defs>
       <use xlink:href="#DejaVuSans-35"/>
       <use xlink:href="#DejaVuSans-30" x="63.623047"/>
      </g>
     </g>
    </g>
    <g id="xtick_7">
     <g id="line2d_7">
      <defs>
       <path id="m595ca74688" d="M 0 0 
L 0 2 
" style="stroke: #000000; stroke-width: 0.6"/>
      </defs>
      <g>
       <use xlink:href="#m595ca74688" x="44.810801" y="213.645886" style="stroke: #000000; stroke-width: 0.6"/>
      </g>
     </g>
    </g>
    <g id="xtick_8">
     <g id="line2d_8">
      <g>
       <use xlink:href="#m595ca74688" x="60.679414" y="213.645886" style="stroke: #000000; stroke-width: 0.6"/>
      </g>
     </g>
    </g>
    <g id="xtick_9">
     <g id="line2d_9">
      <g>
       <use xlink:href="#m595ca74688" x="76.548027" y="213.645886" style="stroke: #000000; stroke-width: 0.6"/>
      </g>
     </g>
    </g>
    <g id="xtick_10">
     <g id="line2d_10">
      <g>
       <use xlink:href="#m595ca74688" x="92.41664" y="213.645886" style="stroke: #000000; stroke-width: 0.6"/>
      </g>
     </g>
    </g>
    <g id="xtick_11">
     <g id="line2d_11">
      <g>
       <use xlink:href="#m595ca74688" x="124.153866" y="213.645886" style="stroke: #000000; stroke-width: 0.6"/>
      </g>
     </g>
    </g>
    <g id="xtick_12">
     <g id="line2d_12">
      <g>
       <use xlink:href="#m595ca74688" x="140.02248" y="213.645886" style="stroke: #000000; stroke-width: 0.6"/>
      </g>
     </g>
    </g>
    <g id="xtick_13">
     <g id="line2d_13">
      <g>
       <use xlink:href="#m595ca74688" x="155.891093" y="213.645886" style="stroke: #000000; stroke-width: 0.6"/>
      </g>
     </g>
    </g>
    <g id="xtick_14">
     <g id="line2d_14">
      <g>
       <use xlink:href="#m595ca74688" x="171.759706" y="213.645886" style="stroke: #000000; stroke-width: 0.6"/>
      </g>
     </g>
    </g>
    <g id="xtick_15">
     <g id="line2d_15">
      <g>
       <use xlink:href="#m595ca74688" x="203.496932" y="213.645886" style="stroke: #000000; stroke-width: 0.6"/>
      </g>
     </g>
    </g>
    <g id="xtick_16">
     <g id="line2d_16">
      <g>
       <use xlink:href="#m595ca74688" x="219.365545" y="213.645886" style="stroke: #000000; stroke-width: 0.6"/>
      </g>
     </g>
    </g>
    <g id="xtick_17">
     <g id="line2d_17">
      <g>
       <use xlink:href="#m595ca74688" x="235.234159" y="213.645886" style="stroke: #000000; stroke-width: 0.6"/>
      </g>
     </g>
    </g>
    <g id="xtick_18">
     <g id="line2d_18">
      <g>
       <use xlink:href="#m595ca74688" x="251.102772" y="213.645886" style="stroke: #000000; stroke-width: 0.6"/>
      </g>
     </g>
    </g>
    <g id="xtick_19">
     <g id="line2d_19">
      <g>
       <use xlink:href="#m595ca74688" x="282.839998" y="213.645886" style="stroke: #000000; stroke-width: 0.6"/>
      </g>
     </g>
    </g>
    <g id="xtick_20">
     <g id="line2d_20">
      <g>
       <use xlink:href="#m595ca74688" x="298.708611" y="213.645886" style="stroke: #000000; stroke-width: 0.6"/>
      </g>
     </g>
    </g>
    <g id="xtick_21">
     <g id="line2d_21">
      <g>
       <use xlink:href="#m595ca74688" x="314.577224" y="213.645886" style="stroke: #000000; stroke-width: 0.6"/>
      </g>
     </g>
    </g>
    <g id="xtick_22">
     <g id="line2d_22">
      <g>
       <use xlink:href="#m595ca74688" x="330.445838" y="213.645886" style="stroke: #000000; stroke-width: 0.6"/>
      </g>
     </g>
    </g>
    <g id="xtick_23">
     <g id="line2d_23">
      <g>
       <use xlink:href="#m595ca74688" x="362.183064" y="213.645886" style="stroke: #000000; stroke-width: 0.6"/>
      </g>
     </g>
    </g>
    <g id="xtick_24">
     <g id="line2d_24">
      <g>
       <use xlink:href="#m595ca74688" x="378.051677" y="213.645886" style="stroke: #000000; stroke-width: 0.6"/>
      </g>
     </g>
    </g>
    <g id="xtick_25">
     <g id="line2d_25">
      <g>
       <use xlink:href="#m595ca74688" x="393.92029" y="213.645886" style="stroke: #000000; stroke-width: 0.6"/>
      </g>
     </g>
    </g>
    <g id="xtick_26">
     <g id="line2d_26">
      <g>
       <use xlink:href="#m595ca74688" x="409.788903" y="213.645886" style="stroke: #000000; stroke-width: 0.6"/>
      </g>
     </g>
    </g>
    <g id="text_6">
     <!-- $t$ -->
     <g transform="translate(441.591823 213.645886)scale(0.16 -0.16)">
      <defs>
       <path id="Cmmi10-74" d="M 397 519 
Q 397 613 416 697 
L 878 2534 
L 206 2534 
Q 141 2534 141 2619 
Q 166 2759 225 2759 
L 934 2759 
L 1191 3803 
Q 1216 3888 1291 3947 
Q 1366 4006 1459 4006 
Q 1541 4006 1595 3957 
Q 1650 3909 1650 3828 
Q 1650 3809 1648 3798 
Q 1647 3788 1644 3775 
L 1388 2759 
L 2047 2759 
Q 2113 2759 2113 2675 
Q 2109 2659 2100 2621 
Q 2091 2584 2075 2559 
Q 2059 2534 2028 2534 
L 1331 2534 
L 872 684 
Q 825 503 825 372 
Q 825 97 1013 97 
Q 1294 97 1511 361 
Q 1728 625 1844 941 
Q 1869 978 1894 978 
L 1972 978 
Q 1997 978 2012 961 
Q 2028 944 2028 922 
Q 2028 909 2022 903 
Q 1881 516 1612 222 
Q 1344 -72 997 -72 
Q 744 -72 570 93 
Q 397 259 397 519 
z
" transform="scale(0.015625)"/>
      </defs>
      <use xlink:href="#Cmmi10-74" transform="translate(0 0.40625)"/>
     </g>
    </g>
   </g>
   <g id="matplotlib.axis_2">
    <g id="ytick_1">
     <g id="line2d_27">
      <defs>
       <path id="m56e10f09b3" d="M 0 0 
L -3.5 0 
" style="stroke: #000000; stroke-width: 0.8"/>
      </defs>
      <g>
       <use xlink:href="#m56e10f09b3" x="28.942187" y="317.319485" style="stroke: #000000; stroke-width: 0.8"/>
      </g>
     </g>
     <g id="text_7">
      <!-- −2 -->
      <g transform="translate(7.2 321.118703)scale(0.1 -0.1)">
       <defs>
        <path id="DejaVuSans-2212" d="M 678 2272 
L 4684 2272 
L 4684 1741 
L 678 1741 
L 678 2272 
z
" transform="scale(0.015625)"/>
       </defs>
       <use xlink:href="#DejaVuSans-2212"/>
       <use xlink:href="#DejaVuSans-32" x="83.789062"/>
      </g>
     </g>
    </g>
    <g id="ytick_2">
     <g id="line2d_28">
      <g>
       <use xlink:href="#m56e10f09b3" x="28.942187" y="265.482685" style="stroke: #000000; stroke-width: 0.8"/>
      </g>
     </g>
     <g id="text_8">
      <!-- −1 -->
      <g transform="translate(7.2 269.281904)scale(0.1 -0.1)">
       <use xlink:href="#DejaVuSans-2212"/>
       <use xlink:href="#DejaVuSans-31" x="83.789062"/>
      </g>
     </g>
    </g>
    <g id="ytick_3">
     <g id="line2d_29">
      <g>
       <use xlink:href="#m56e10f09b3" x="28.942187" y="213.645886" style="stroke: #000000; stroke-width: 0.8"/>
      </g>
     </g>
    </g>
    <g id="ytick_4">
     <g id="line2d_30">
      <g>
       <use xlink:href="#m56e10f09b3" x="28.942187" y="161.809086" style="stroke: #000000; stroke-width: 0.8"/>
      </g>
     </g>
     <g id="text_9">
      <!-- 1 -->
      <g transform="translate(15.579687 165.608305)scale(0.1 -0.1)">
       <use xlink:href="#DejaVuSans-31"/>
      </g>
     </g>
    </g>
    <g id="ytick_5">
     <g id="line2d_31">
      <g>
       <use xlink:href="#m56e10f09b3" x="28.942187" y="109.972287" style="stroke: #000000; stroke-width: 0.8"/>
      </g>
     </g>
     <g id="text_10">
      <!-- 2 -->
      <g transform="translate(15.579687 113.771506)scale(0.1 -0.1)">
       <use xlink:href="#DejaVuSans-32"/>
      </g>
     </g>
    </g>
    <g id="ytick_6">
     <g id="line2d_32">
      <g>
       <use xlink:href="#m56e10f09b3" x="28.942187" y="58.135488" style="stroke: #000000; stroke-width: 0.8"/>
      </g>
     </g>
     <g id="text_11">
      <!-- 3 -->
      <g transform="translate(15.579687 61.934706)scale(0.1 -0.1)">
       <use xlink:href="#DejaVuSans-33"/>
      </g>
     </g>
    </g>
    <g id="ytick_7">
     <g id="line2d_33">
      <defs>
       <path id="m5eb40c8217" d="M 0 0 
L -2 0 
" style="stroke: #000000; stroke-width: 0.6"/>
      </defs>
      <g>
       <use xlink:href="#m5eb40c8217" x="28.942187" y="327.686844" style="stroke: #000000; stroke-width: 0.6"/>
      </g>
     </g>
    </g>
    <g id="ytick_8">
     <g id="line2d_34">
      <g>
       <use xlink:href="#m5eb40c8217" x="28.942187" y="306.952125" style="stroke: #000000; stroke-width: 0.6"/>
      </g>
     </g>
    </g>
    <g id="ytick_9">
     <g id="line2d_35">
      <g>
       <use xlink:href="#m5eb40c8217" x="28.942187" y="296.584765" style="stroke: #000000; stroke-width: 0.6"/>
      </g>
     </g>
    </g>
    <g id="ytick_10">
     <g id="line2d_36">
      <g>
       <use xlink:href="#m5eb40c8217" x="28.942187" y="286.217405" style="stroke: #000000; stroke-width: 0.6"/>
      </g>
     </g>
    </g>
    <g id="ytick_11">
     <g id="line2d_37">
      <g>
       <use xlink:href="#m5eb40c8217" x="28.942187" y="275.850045" style="stroke: #000000; stroke-width: 0.6"/>
      </g>
     </g>
    </g>
    <g id="ytick_12">
     <g id="line2d_38">
      <g>
       <use xlink:href="#m5eb40c8217" x="28.942187" y="255.115325" style="stroke: #000000; stroke-width: 0.6"/>
      </g>
     </g>
    </g>
    <g id="ytick_13">
     <g id="line2d_39">
      <g>
       <use xlink:href="#m5eb40c8217" x="28.942187" y="244.747965" style="stroke: #000000; stroke-width: 0.6"/>
      </g>
     </g>
    </g>
    <g id="ytick_14">
     <g id="line2d_40">
      <g>
       <use xlink:href="#m5eb40c8217" x="28.942187" y="234.380606" style="stroke: #000000; stroke-width: 0.6"/>
      </g>
     </g>
    </g>
    <g id="ytick_15">
     <g id="line2d_41">
      <g>
       <use xlink:href="#m5eb40c8217" x="28.942187" y="224.013246" style="stroke: #000000; stroke-width: 0.6"/>
      </g>
     </g>
    </g>
    <g id="ytick_16">
     <g id="line2d_42">
      <g>
       <use xlink:href="#m5eb40c8217" x="28.942187" y="203.278526" style="stroke: #000000; stroke-width: 0.6"/>
      </g>
     </g>
    </g>
    <g id="ytick_17">
     <g id="line2d_43">
      <g>
       <use xlink:href="#m5eb40c8217" x="28.942187" y="192.911166" style="stroke: #000000; stroke-width: 0.6"/>
      </g>
     </g>
    </g>
    <g id="ytick_18">
     <g id="line2d_44">
      <g>
       <use xlink:href="#m5eb40c8217" x="28.942187" y="182.543806" style="stroke: #000000; stroke-width: 0.6"/>
      </g>
     </g>
    </g>
    <g id="ytick_19">
     <g id="line2d_45">
      <g>
       <use xlink:href="#m5eb40c8217" x="28.942187" y="172.176446" style="stroke: #000000; stroke-width: 0.6"/>
      </g>
     </g>
    </g>
    <g id="ytick_20">
     <g id="line2d_46">
      <g>
       <use xlink:href="#m5eb40c8217" x="28.942187" y="151.441727" style="stroke: #000000; stroke-width: 0.6"/>
      </g>
     </g>
    </g>
    <g id="ytick_21">
     <g id="line2d_47">
      <g>
       <use xlink:href="#m5eb40c8217" x="28.942187" y="141.074367" style="stroke: #000000; stroke-width: 0.6"/>
      </g>
     </g>
    </g>
    <g id="ytick_22">
     <g id="line2d_48">
      <g>
       <use xlink:href="#m5eb40c8217" x="28.942187" y="130.707007" style="stroke: #000000; stroke-width: 0.6"/>
      </g>
     </g>
    </g>
    <g id="ytick_23">
     <g id="line2d_49">
      <g>
       <use xlink:href="#m5eb40c8217" x="28.942187" y="120.339647" style="stroke: #000000; stroke-width: 0.6"/>
      </g>
     </g>
    </g>
    <g id="ytick_24">
     <g id="line2d_50">
      <g>
       <use xlink:href="#m5eb40c8217" x="28.942187" y="99.604927" style="stroke: #000000; stroke-width: 0.6"/>
      </g>
     </g>
    </g>
    <g id="ytick_25">
     <g id="line2d_51">
      <g>
       <use xlink:href="#m5eb40c8217" x="28.942187" y="89.237567" style="stroke: #000000; stroke-width: 0.6"/>
      </g>
     </g>
    </g>
    <g id="ytick_26">
     <g id="line2d_52">
      <g>
       <use xlink:href="#m5eb40c8217" x="28.942187" y="78.870207" style="stroke: #000000; stroke-width: 0.6"/>
      </g>
     </g>
    </g>
    <g id="ytick_27">
     <g id="line2d_53">
      <g>
       <use xlink:href="#m5eb40c8217" x="28.942187" y="68.502848" style="stroke: #000000; stroke-width: 0.6"/>
      </g>
     </g>
    </g>
    <g id="ytick_28">
     <g id="line2d_54">
      <g>
       <use xlink:href="#m5eb40c8217" x="28.942187" y="47.768128" style="stroke: #000000; stroke-width: 0.6"/>
      </g>
     </g>
    </g>
    <g id="ytick_29">
     <g id="line2d_55">
      <g>
       <use xlink:href="#m5eb40c8217" x="28.942187" y="37.400768" style="stroke: #000000; stroke-width: 0.6"/>
      </g>
     </g>
    </g>
    <g id="ytick_30">
     <g id="line2d_56">
      <g>
       <use xlink:href="#m5eb40c8217" x="28.942187" y="27.033408" style="stroke: #000000; stroke-width: 0.6"/>
      </g>
     </g>
    </g>
    <g id="ytick_31">
     <g id="line2d_57">
      <g>
       <use xlink:href="#m5eb40c8217" x="28.942187" y="16.666048" style="stroke: #000000; stroke-width: 0.6"/>
      </g>
     </g>
    </g>
   </g>
   <g id="line2d_58">
    <path d="M 28.942187 213.645886 
L 32.433282 174.633518 
L 35.051604 147.75825 
L 37.352552 126.389878 
L 39.415472 109.233494 
L 41.399049 94.58347 
L 43.223939 82.684506 
L 45.04883 72.233702 
L 46.794377 63.505363 
L 48.539925 55.916252 
L 50.206129 49.636031 
L 51.872334 44.200409 
L 53.538538 39.515967 
L 55.204742 35.493853 
L 56.870947 32.051451 
L 58.537151 29.113298 
L 60.203355 26.61145 
L 61.948903 24.392644 
L 63.69445 22.525297 
L 65.519341 20.891351 
L 67.423574 19.47786 
L 69.486494 18.225339 
L 71.7081 17.141501 
L 74.167735 16.198439 
L 76.865399 15.407434 
L 79.959779 14.738864 
L 83.530217 14.200894 
L 87.814742 13.788504 
L 92.972042 13.522039 
L 99.160801 13.431211 
L 105.666932 13.556323 
L 111.458976 13.882095 
L 116.298903 14.371517 
L 120.266056 14.987315 
L 123.677808 15.734356 
L 126.692845 16.619982 
L 129.390509 17.645639 
L 131.770801 18.781442 
L 133.992407 20.08188 
L 136.055326 21.540132 
L 138.038903 23.213213 
L 139.943137 25.113235 
L 141.768027 27.248643 
L 143.592918 29.739688 
L 145.338465 32.503634 
L 147.084013 35.691637 
L 148.82956 39.358515 
L 150.575107 43.562706 
L 152.320655 48.365271 
L 154.066202 53.828405 
L 155.81175 60.013359 
L 157.63664 67.313653 
L 159.540874 75.901508 
L 161.445107 85.52879 
L 163.508027 97.161415 
L 165.65029 110.557526 
L 168.030582 126.932278 
L 170.728246 147.146264 
L 174.139998 174.537838 
L 182.312334 240.868529 
L 184.930655 259.90349 
L 187.152261 274.488928 
L 189.135837 286.097866 
L 190.960728 295.49891 
L 192.626932 302.963247 
L 194.213794 309.057155 
L 195.641969 313.688818 
L 196.990801 317.322388 
L 198.180947 319.934792 
L 199.29175 321.875519 
L 200.32321 323.251984 
L 201.275326 324.162728 
L 202.1481 324.697384 
L 202.941531 324.936836 
L 203.734962 324.943787 
L 204.528392 324.720548 
L 205.321823 324.269464 
L 206.194597 323.512956 
L 207.146713 322.380356 
L 208.178173 320.796439 
L 209.288976 318.682117 
L 210.558465 315.756909 
L 211.907297 312.068367 
L 213.414816 307.260121 
L 215.08102 301.138746 
L 216.90591 293.518941 
L 218.889487 284.241734 
L 221.190436 272.344961 
L 223.8881 257.15636 
L 227.696567 234.305543 
L 233.72664 198.146078 
L 236.503648 182.911565 
L 238.804597 171.48425 
L 240.788173 162.690127 
L 242.613064 155.567155 
L 244.279268 149.93174 
L 245.786786 145.578834 
L 247.214962 142.126048 
L 248.484451 139.613091 
L 249.674597 137.735809 
L 250.7854 136.402018 
L 251.737516 135.579363 
L 252.689633 135.051007 
L 253.562407 134.823282 
L 254.435181 134.838704 
L 255.307954 135.094582 
L 256.180728 135.587787 
L 257.132845 136.392299 
L 258.164305 137.571706 
L 259.275108 139.191485 
L 260.465254 141.31761 
L 261.814086 144.197643 
L 263.321604 147.979433 
L 264.987808 152.806072 
L 266.812699 158.803979 
L 268.875619 166.372212 
L 271.335254 176.2945 
L 274.508976 190.114751 
L 283.792115 231.173361 
L 286.331093 241.043226 
L 288.473356 248.508141 
L 290.377589 254.368987 
L 292.123137 259.03607 
L 293.709998 262.65558 
L 295.138173 265.384667 
L 296.487005 267.490656 
L 297.677151 268.962999 
L 298.787954 270.008583 
L 299.819414 270.695098 
L 300.771531 271.086508 
L 301.723648 271.246841 
L 302.675765 271.178336 
L 303.627881 270.883943 
L 304.659341 270.314358 
L 305.690801 269.48951 
L 306.801604 268.323185 
L 308.071093 266.648904 
L 309.419925 264.488091 
L 310.927443 261.633517 
L 312.593648 257.978247 
L 314.418538 253.431281 
L 316.560801 247.467372 
L 319.099779 239.700003 
L 322.511531 228.478461 
L 330.128465 203.192241 
L 332.82613 195.135894 
L 335.047735 189.16203 
L 337.031312 184.436212 
L 338.856203 180.656952 
L 340.522407 177.719686 
L 342.029925 175.506102 
L 343.378757 173.89456 
L 344.648246 172.702284 
L 345.838392 171.873057 
L 346.949195 171.351709 
L 348.059998 171.073504 
L 349.170801 171.03647 
L 350.281604 171.237442 
L 351.392407 171.672093 
L 352.582553 172.39089 
L 353.852042 173.437223 
L 355.200874 174.852472 
L 356.629049 176.674283 
L 358.215911 179.062602 
L 359.961458 182.093765 
L 361.945035 185.991065 
L 364.245984 191.014057 
L 367.181677 198.000165 
L 372.418319 211.183957 
L 376.464816 221.089926 
L 379.241823 227.318211 
L 381.542772 231.953337 
L 383.605692 235.615891 
L 385.430582 238.417508 
L 387.096787 240.586759 
L 388.683648 242.289365 
L 390.111823 243.508372 
L 391.460655 244.381654 
L 392.730144 244.954581 
L 393.999633 245.285817 
L 395.269122 245.376861 
L 396.538611 245.230883 
L 397.808101 244.852676 
L 399.156933 244.203511 
L 400.585108 243.248813 
L 402.092626 241.957448 
L 403.679487 240.303448 
L 405.425035 238.163905 
L 407.408612 235.37077 
L 409.70956 231.724068 
L 412.486568 226.87889 
L 416.612407 219.170468 
L 422.325108 208.558174 
L 425.181458 203.722912 
L 425.657517 202.966074 
L 425.657517 202.966074 
" clip-path="url(#p5a15741d5d)" style="fill: none; stroke: #0000ff; stroke-width: 2; stroke-linecap: square"/>
   </g>
   <g id="line2d_59">
    <path d="M 28.942187 122.143568 
L 29.814961 123.309186 
L 30.846421 125.085858 
L 31.957224 127.453129 
L 33.306056 130.895885 
L 34.892917 135.614729 
L 36.876494 142.259629 
L 40.367589 154.905213 
L 44.01737 167.825421 
L 46.397662 175.450351 
L 48.539925 181.577681 
L 50.523501 186.584152 
L 52.427735 190.790779 
L 54.252625 194.297623 
L 56.077516 197.329647 
L 57.902407 199.93158 
L 59.727297 202.150557 
L 61.552188 204.033174 
L 63.456421 205.686765 
L 65.439998 207.120522 
L 67.582261 208.390763 
L 69.883209 209.489652 
L 72.342845 210.418881 
L 75.119852 211.228325 
L 78.293574 211.91697 
L 82.022699 212.493232 
L 86.624596 212.971527 
L 92.813355 213.377257 
L 117.171677 214.747505 
L 121.773575 215.34499 
L 125.582042 216.054896 
L 128.835107 216.878071 
L 131.770801 217.847871 
L 134.389122 218.94331 
L 136.848757 220.216047 
L 139.149706 221.663063 
L 141.291969 223.271718 
L 143.354888 225.094658 
L 145.417808 227.220836 
L 147.401385 229.581941 
L 149.464304 232.395121 
L 151.527224 235.594244 
L 153.669487 239.334441 
L 155.970436 243.812509 
L 158.588757 249.419885 
L 162.238538 257.829681 
L 166.443721 267.412932 
L 168.50664 271.578671 
L 170.172845 274.466304 
L 171.60102 276.501103 
L 172.791166 277.832212 
L 173.901969 278.74229 
L 174.854086 279.248802 
L 175.726859 279.481097 
L 176.599633 279.485335 
L 177.472407 279.258275 
L 178.34518 278.799392 
L 179.297297 278.037031 
L 180.328757 276.910274 
L 181.43956 275.361284 
L 182.709049 273.191954 
L 184.137224 270.290101 
L 185.803429 266.371004 
L 187.787005 261.103917 
L 190.325983 253.692636 
L 194.610509 240.375266 
L 201.037297 220.519446 
L 205.480509 207.553268 
L 209.527005 196.412753 
L 212.938757 187.646205 
L 215.636421 181.293508 
L 217.858027 176.59486 
L 219.762261 173.059872 
L 221.428465 170.415522 
L 222.935983 168.436665 
L 224.284816 167.033898 
L 225.474962 166.105543 
L 226.585764 165.513525 
L 227.617224 165.208379 
L 228.648684 165.142839 
L 229.680144 165.318241 
L 230.711604 165.733269 
L 231.743064 166.383969 
L 232.853867 167.340789 
L 234.123356 168.745292 
L 235.472188 170.578217 
L 236.979706 173.005591 
L 238.725254 176.255341 
L 240.788173 180.600397 
L 243.327151 186.514431 
L 246.818246 195.27646 
L 257.053502 221.305438 
L 260.227224 228.614653 
L 262.845546 234.114787 
L 265.146494 238.442059 
L 267.130071 241.715542 
L 268.875619 244.193766 
L 270.46248 246.083694 
L 271.890655 247.465227 
L 273.239487 248.476001 
L 274.508976 249.155941 
L 275.699122 249.548298 
L 276.889268 249.700397 
L 278.000071 249.625191 
L 279.190217 249.313953 
L 280.380363 248.768703 
L 281.649852 247.937311 
L 282.998684 246.784286 
L 284.506203 245.187827 
L 286.172407 243.078484 
L 287.997297 240.402185 
L 290.13956 236.851647 
L 292.757881 232.051974 
L 296.328319 224.993347 
L 305.294086 207.075292 
L 308.229779 201.801917 
L 310.689414 197.816546 
L 312.831677 194.74362 
L 314.815254 192.281793 
L 316.560801 190.454881 
L 318.227006 189.031766 
L 319.734524 188.02953 
L 321.162699 187.339687 
L 322.511531 186.925393 
L 323.860363 186.74382 
L 325.209195 186.79454 
L 326.558027 187.074455 
L 327.90686 187.577833 
L 329.335035 188.345186 
L 330.921896 189.465319 
L 332.5881 190.922166 
L 334.412991 192.814795 
L 336.475911 195.278006 
L 338.935546 198.578932 
L 342.029925 203.132394 
L 347.980655 212.399959 
L 352.185838 218.726282 
L 355.121531 222.758105 
L 357.581166 225.777784 
L 359.802772 228.160003 
L 361.786349 229.969991 
L 363.611239 231.345177 
L 365.356787 232.383173 
L 367.022991 233.109823 
L 368.609852 233.555788 
L 370.117371 233.754808 
L 371.624889 233.73569 
L 373.132407 233.501966 
L 374.719268 233.030982 
L 376.385473 232.299326 
L 378.13102 231.288859 
L 380.035254 229.926545 
L 382.177517 228.10827 
L 384.637152 225.710206 
L 387.572845 222.521878 
L 392.016057 217.321243 
L 398.04613 210.304764 
L 401.219852 206.963019 
L 403.838174 204.520559 
L 406.139122 202.666649 
L 408.281385 201.222448 
L 410.264962 200.15032 
L 412.169195 199.375462 
L 413.994086 198.875128 
L 415.739633 198.621956 
L 417.485181 198.588945 
L 419.230728 198.772361 
L 421.055619 199.18777 
L 422.959852 199.852294 
L 425.022772 200.818381 
L 425.657517 201.163227 
L 425.657517 201.163227 
" clip-path="url(#p5a15741d5d)" style="fill: none; stroke: #ff0000; stroke-width: 2; stroke-linecap: square"/>
   </g>
   <g id="patch_3">
    <path d="M 28.942187 331.2 
L 28.942187 7.2 
" style="fill: none; stroke: #000000; stroke-width: 0.8; stroke-linejoin: miter; stroke-linecap: square"/>
   </g>
   <g id="patch_4">
    <path d="M 21.007881 213.645886 
L 433.591823 213.645886 
" style="fill: none; stroke: #000000; stroke-width: 0.8; stroke-linejoin: miter; stroke-linecap: square"/>
   </g>
   <g id="legend_1">
    <g id="patch_5">
     <path d="M 395.991823 46.596875 
L 430.591823 46.596875 
L 430.591823 14.2 
L 395.991823 14.2 
z
" style="fill: #4c4c4c; opacity: 0.5; stroke: #4c4c4c; stroke-linejoin: miter"/>
    </g>
    <g id="patch_6">
     <path d="M 393.991823 44.596875 
L 428.591823 44.596875 
L 428.591823 12.2 
L 393.991823 12.2 
z
" style="fill: #ffffff; stroke: #cccccc; stroke-linejoin: miter"/>
    </g>
    <g id="line2d_60">
     <path d="M 402.991823 22.298438 
L 397.491823 22.298438 
" style="fill: none; stroke: #0000ff; stroke-width: 2; stroke-linecap: square"/>
    </g>
    <g id="text_12">
     <!-- $x(t)$ -->
     <g style="fill: #0000ff" transform="translate(405.491823 25.798438)scale(0.1 -0.1)">
      <defs>
       <path id="Cmmi10-78" d="M 500 184 
Q 613 97 819 97 
Q 1019 97 1172 289 
Q 1325 481 1381 709 
L 1672 1844 
Q 1741 2153 1741 2266 
Q 1741 2425 1652 2544 
Q 1563 2663 1403 2663 
Q 1200 2663 1022 2536 
Q 844 2409 722 2214 
Q 600 2019 550 1819 
Q 538 1778 500 1778 
L 422 1778 
Q 372 1778 372 1838 
L 372 1856 
Q 434 2094 584 2320 
Q 734 2547 951 2687 
Q 1169 2828 1416 2828 
Q 1650 2828 1839 2703 
Q 2028 2578 2106 2363 
Q 2216 2559 2386 2693 
Q 2556 2828 2759 2828 
Q 2897 2828 3040 2779 
Q 3184 2731 3275 2631 
Q 3366 2531 3366 2381 
Q 3366 2219 3261 2101 
Q 3156 1984 2994 1984 
Q 2891 1984 2822 2050 
Q 2753 2116 2753 2216 
Q 2753 2350 2845 2451 
Q 2938 2553 3066 2572 
Q 2950 2663 2747 2663 
Q 2541 2663 2389 2472 
Q 2238 2281 2175 2047 
L 1894 916 
Q 1825 659 1825 494 
Q 1825 331 1917 214 
Q 2009 97 2163 97 
Q 2463 97 2698 361 
Q 2934 625 3009 941 
Q 3022 978 3059 978 
L 3138 978 
Q 3163 978 3178 961 
Q 3194 944 3194 922 
Q 3194 916 3188 903 
Q 3097 522 2806 225 
Q 2516 -72 2150 -72 
Q 1916 -72 1727 54 
Q 1538 181 1459 397 
Q 1359 209 1182 68 
Q 1006 -72 806 -72 
Q 669 -72 523 -23 
Q 378 25 287 125 
Q 197 225 197 378 
Q 197 528 301 651 
Q 406 775 563 775 
Q 669 775 741 711 
Q 813 647 813 544 
Q 813 409 723 309 
Q 634 209 500 184 
z
" transform="scale(0.015625)"/>
       <path id="Cmr10-28" d="M 1984 -1588 
Q 1628 -1306 1370 -942 
Q 1113 -578 948 -165 
Q 784 247 703 697 
Q 622 1147 622 1600 
Q 622 2059 703 2509 
Q 784 2959 951 3375 
Q 1119 3791 1378 4153 
Q 1638 4516 1984 4788 
Q 1984 4800 2016 4800 
L 2075 4800 
Q 2094 4800 2109 4783 
Q 2125 4766 2125 4744 
Q 2125 4716 2113 4703 
Q 1800 4397 1592 4047 
Q 1384 3697 1257 3301 
Q 1131 2906 1075 2482 
Q 1019 2059 1019 1600 
Q 1019 -434 2106 -1491 
Q 2125 -1509 2125 -1544 
Q 2125 -1559 2108 -1579 
Q 2091 -1600 2075 -1600 
L 2016 -1600 
Q 1984 -1600 1984 -1588 
z
" transform="scale(0.015625)"/>
       <path id="Cmr10-29" d="M 416 -1600 
Q 359 -1600 359 -1544 
Q 359 -1516 372 -1503 
Q 1466 -434 1466 1600 
Q 1466 3634 384 4691 
Q 359 4706 359 4744 
Q 359 4766 376 4783 
Q 394 4800 416 4800 
L 475 4800 
Q 494 4800 506 4788 
Q 966 4425 1272 3906 
Q 1578 3388 1720 2800 
Q 1863 2213 1863 1600 
Q 1863 1147 1786 708 
Q 1709 269 1542 -157 
Q 1375 -584 1119 -945 
Q 863 -1306 506 -1588 
Q 494 -1600 475 -1600 
L 416 -1600 
z
" transform="scale(0.015625)"/>
      </defs>
      <use xlink:href="#Cmmi10-78"/>
      <use xlink:href="#Cmr10-28" transform="translate(57.080078 0)"/>
      <use xlink:href="#Cmmi10-74" transform="translate(95.898438 0)"/>
      <use xlink:href="#Cmr10-29" transform="translate(131.982422 0)"/>
     </g>
    </g>
    <g id="line2d_61">
     <path d="M 402.991823 32.596875 
L 397.491823 32.596875 
" style="fill: none; stroke: #ff0000; stroke-width: 2; stroke-linecap: square"/>
    </g>
    <g id="text_13">
     <!-- $v(t)$ -->
     <g style="fill: #ff0000" transform="translate(405.491823 36.096875)scale(0.1 -0.1)">
      <defs>
       <path id="Cmmi10-76" d="M 684 722 
Q 684 866 718 1037 
Q 753 1209 787 1320 
Q 822 1431 944 1753 
Q 1066 2075 1069 2088 
Q 1153 2322 1153 2472 
Q 1153 2663 1013 2663 
Q 759 2663 595 2402 
Q 431 2141 353 1819 
Q 341 1778 300 1778 
L 225 1778 
Q 172 1778 172 1838 
L 172 1856 
Q 275 2238 487 2533 
Q 700 2828 1025 2828 
Q 1253 2828 1411 2678 
Q 1569 2528 1569 2297 
Q 1569 2178 1516 2047 
Q 1391 1722 1319 1526 
Q 1247 1331 1186 1089 
Q 1125 847 1125 641 
Q 1125 400 1236 248 
Q 1347 97 1581 97 
Q 2025 97 2381 781 
Q 2494 1003 2594 1303 
Q 2694 1603 2694 1791 
Q 2694 1984 2631 2092 
Q 2569 2200 2469 2317 
Q 2369 2434 2369 2503 
Q 2369 2628 2472 2731 
Q 2575 2834 2700 2834 
Q 2853 2834 2920 2693 
Q 2988 2553 2988 2375 
Q 2988 2163 2927 1869 
Q 2866 1575 2758 1259 
Q 2650 944 2559 763 
Q 2138 -72 1575 -72 
Q 1172 -72 928 129 
Q 684 331 684 722 
z
" transform="scale(0.015625)"/>
      </defs>
      <use xlink:href="#Cmmi10-76"/>
      <use xlink:href="#Cmr10-28" transform="translate(48.388672 0)"/>
      <use xlink:href="#Cmmi10-74" transform="translate(87.207031 0)"/>
      <use xlink:href="#Cmr10-29" transform="translate(123.291016 0)"/>
     </g>
    </g>
   </g>
  </g>
 </g>
 <defs>
  <clipPath id="p5a15741d5d">
   <rect x="21.007881" y="7.2" width="412.583942" height="324"/>
  </clipPath>
 </defs>
</svg>
